<?xml version="1.0" encoding="utf-8" standalone="no"?>
<!DOCTYPE svg PUBLIC "-//W3C//DTD SVG 1.1//EN"
  "http://www.w3.org/Graphics/SVG/1.1/DTD/svg11.dtd">
<svg height="301.037214pt" version="1.1" viewBox="0 0 399.588782 301.037214" width="399.588782pt" xmlns="http://www.w3.org/2000/svg" xmlns:xlink="http://www.w3.org/1999/xlink">
 <metadata>
  <rdf:RDF xmlns:cc="http://creativecommons.org/ns#" xmlns:dc="http://purl.org/dc/elements/1.1/" xmlns:rdf="http://www.w3.org/1999/02/22-rdf-syntax-ns#">
   <cc:Work>
    <dc:type rdf:resource="http://purl.org/dc/dcmitype/StillImage"/>
    <dc:date>2021-04-16T09:47:16.227713</dc:date>
    <dc:format>image/svg+xml</dc:format>
    <dc:creator>
     <cc:Agent>
      <dc:title>Matplotlib v3.4.1, https://matplotlib.org/</dc:title>
     </cc:Agent>
    </dc:creator>
   </cc:Work>
  </rdf:RDF>
 </metadata>
 <defs>
  <style type="text/css">*{stroke-linecap:butt;stroke-linejoin:round;}</style>
 </defs>
 <g id="figure_1">
  <g id="patch_1">
   <path d="M 0 301.037214 
L 399.588782 301.037214 
L 399.588782 0 
L 0 0 
z
" style="fill:#ffffff;"/>
  </g>
  <g id="axes_1">
   <g id="patch_2">
    <path d="M 40.892719 264.018898 
L 392.388782 264.018898 
L 392.388782 7.2 
L 40.892719 7.2 
z
" style="fill:#ffffff;"/>
   </g>
   <g id="matplotlib.axis_1">
    <g id="xtick_1">
     <g id="line2d_1">
      <defs>
       <path d="M 0 0 
L 0 3.5 
" id="m13719fc53c" style="stroke:#000000;stroke-width:0.8;"/>
      </defs>
      <g>
       <use style="stroke:#000000;stroke-width:0.8;" x="56.869813" xlink:href="#m13719fc53c" y="264.018898"/>
      </g>
     </g>
     <g id="text_1">
      <!-- 0.0 -->
      <g transform="translate(50.504773 277.937396)scale(0.1 -0.1)">
       <defs>
        <path d="M 2688 2038 
C 2688 2430 2682 3099 2413 3613 
C 2176 4063 1798 4224 1466 4224 
C 1158 4224 768 4082 525 3620 
C 269 3137 243 2539 243 2038 
C 243 1671 250 1112 448 623 
C 723 -39 1216 -128 1466 -128 
C 1760 -128 2208 -7 2470 604 
C 2662 1048 2688 1568 2688 2038 
z
M 1466 -26 
C 1056 -26 813 328 723 816 
C 653 1196 653 1749 653 2109 
C 653 2604 653 3015 736 3407 
C 858 3954 1216 4121 1466 4121 
C 1728 4121 2067 3947 2189 3420 
C 2272 3054 2278 2623 2278 2109 
C 2278 1691 2278 1176 2202 797 
C 2067 96 1690 -26 1466 -26 
z
" id="CMR17-30" transform="scale(0.015625)"/>
        <path d="M 1062 262 
C 1062 422 934 524 800 524 
C 672 524 538 422 538 262 
C 538 102 666 0 800 0 
C 928 0 1062 102 1062 262 
z
" id="CMR17-2e" transform="scale(0.015625)"/>
       </defs>
       <use transform="scale(0.996264)" xlink:href="#CMR17-30"/>
       <use transform="translate(45.690477 0)scale(0.996264)" xlink:href="#CMR17-2e"/>
       <use transform="translate(70.561536 0)scale(0.996264)" xlink:href="#CMR17-30"/>
      </g>
     </g>
    </g>
    <g id="xtick_2">
     <g id="line2d_2">
      <g>
       <use style="stroke:#000000;stroke-width:0.8;" x="163.383771" xlink:href="#m13719fc53c" y="264.018898"/>
      </g>
     </g>
     <g id="text_2">
      <!-- 0.3 -->
      <g transform="translate(157.018732 277.937396)scale(0.1 -0.1)">
       <defs>
        <path d="M 1414 2176 
C 1984 2176 2234 1673 2234 1094 
C 2234 322 1824 25 1453 25 
C 1114 25 563 193 390 691 
C 422 678 454 678 486 678 
C 640 678 755 780 755 947 
C 755 1132 614 1216 486 1216 
C 378 1216 211 1164 211 927 
C 211 335 787 -128 1466 -128 
C 2176 -128 2720 432 2720 1087 
C 2720 1718 2208 2176 1600 2246 
C 2086 2347 2554 2776 2554 3353 
C 2554 3856 2048 4224 1472 4224 
C 890 4224 378 3862 378 3347 
C 378 3123 544 3084 627 3084 
C 762 3084 877 3167 877 3334 
C 877 3500 762 3584 627 3584 
C 602 3584 570 3584 544 3571 
C 730 3999 1235 4076 1459 4076 
C 1683 4076 2106 3966 2106 3347 
C 2106 3167 2080 2851 1862 2574 
C 1670 2329 1453 2316 1242 2297 
C 1210 2297 1062 2284 1037 2284 
C 992 2278 966 2272 966 2227 
C 966 2182 973 2176 1101 2176 
L 1414 2176 
z
" id="CMR17-33" transform="scale(0.015625)"/>
       </defs>
       <use transform="scale(0.996264)" xlink:href="#CMR17-30"/>
       <use transform="translate(45.690477 0)scale(0.996264)" xlink:href="#CMR17-2e"/>
       <use transform="translate(70.561536 0)scale(0.996264)" xlink:href="#CMR17-33"/>
      </g>
     </g>
    </g>
    <g id="xtick_3">
     <g id="line2d_3">
      <g>
       <use style="stroke:#000000;stroke-width:0.8;" x="269.89773" xlink:href="#m13719fc53c" y="264.018898"/>
      </g>
     </g>
     <g id="text_3">
      <!-- 0.7 -->
      <g transform="translate(263.53269 277.937396)scale(0.1 -0.1)">
       <defs>
        <path d="M 2886 3955 
L 2886 4096 
L 1382 4096 
C 634 4096 621 4166 595 4288 
L 480 4288 
L 294 3104 
L 410 3104 
C 429 3226 474 3552 550 3673 
C 589 3724 1062 3724 1171 3724 
L 2579 3724 
L 1869 2670 
C 1395 1961 1069 1003 1069 166 
C 1069 89 1069 -128 1299 -128 
C 1530 -128 1530 89 1530 172 
L 1530 466 
C 1530 1514 1709 2204 2003 2644 
L 2886 3955 
z
" id="CMR17-37" transform="scale(0.015625)"/>
       </defs>
       <use transform="scale(0.996264)" xlink:href="#CMR17-30"/>
       <use transform="translate(45.690477 0)scale(0.996264)" xlink:href="#CMR17-2e"/>
       <use transform="translate(70.561536 0)scale(0.996264)" xlink:href="#CMR17-37"/>
      </g>
     </g>
    </g>
    <g id="xtick_4">
     <g id="line2d_4">
      <g>
       <use style="stroke:#000000;stroke-width:0.8;" x="376.411688" xlink:href="#m13719fc53c" y="264.018898"/>
      </g>
     </g>
     <g id="text_4">
      <!-- 1.0 -->
      <g transform="translate(370.046649 277.937396)scale(0.1 -0.1)">
       <defs>
        <path d="M 1702 4083 
C 1702 4217 1696 4224 1606 4224 
C 1357 3927 979 3833 621 3820 
C 602 3820 570 3820 563 3808 
C 557 3795 557 3782 557 3648 
C 755 3648 1088 3686 1344 3839 
L 1344 467 
C 1344 243 1331 166 781 166 
L 589 166 
L 589 0 
C 896 6 1216 12 1523 12 
C 1830 12 2150 6 2458 0 
L 2458 166 
L 2266 166 
C 1715 166 1702 236 1702 467 
L 1702 4083 
z
" id="CMR17-31" transform="scale(0.015625)"/>
       </defs>
       <use transform="scale(0.996264)" xlink:href="#CMR17-31"/>
       <use transform="translate(45.690477 0)scale(0.996264)" xlink:href="#CMR17-2e"/>
       <use transform="translate(70.561536 0)scale(0.996264)" xlink:href="#CMR17-30"/>
      </g>
     </g>
    </g>
    <g id="text_5">
     <!-- Density $\rho/\rho_0$ -->
     <g transform="translate(188.790272 291.346554)scale(0.1 -0.1)">
      <defs>
       <path d="M 333 4352 
L 333 4185 
C 774 4185 845 4185 845 3898 
L 845 453 
C 845 166 774 166 333 166 
L 333 0 
L 2368 0 
C 3398 0 4224 943 4224 2140 
C 4224 3344 3411 4352 2368 4352 
L 333 4352 
z
M 1523 166 
C 1267 166 1254 198 1254 414 
L 1254 3936 
C 1254 4153 1267 4185 1523 4185 
L 2240 4185 
C 2771 4185 3750 3873 3750 2140 
C 3750 1242 3488 879 3366 707 
C 3213 510 2848 166 2240 166 
L 1523 166 
z
" id="CMR17-44" transform="scale(0.015625)"/>
       <path d="M 2438 1503 
C 2464 1529 2464 1542 2464 1606 
C 2464 2251 2118 2816 1389 2816 
C 710 2816 173 2175 173 1394 
C 173 554 781 -64 1459 -64 
C 2176 -64 2458 619 2458 755 
C 2458 800 2419 800 2406 800 
C 2362 800 2355 787 2330 709 
C 2189 270 1837 51 1504 51 
C 1229 51 954 206 781 490 
C 582 819 582 1200 582 1503 
L 2438 1503 
z
M 589 1600 
C 634 2511 1126 2713 1382 2713 
C 1818 2713 2112 2308 2118 1600 
L 589 1600 
z
" id="CMR17-65" transform="scale(0.015625)"/>
       <path d="M 2656 1954 
C 2656 2282 2592 2816 1837 2816 
C 1331 2816 1069 2424 973 2166 
L 966 2166 
L 966 2816 
L 211 2745 
L 211 2578 
C 589 2578 646 2540 646 2231 
L 646 443 
C 646 198 621 166 211 166 
L 211 0 
C 365 12 646 12 813 12 
C 979 12 1267 12 1421 0 
L 1421 166 
C 1011 166 986 192 986 443 
L 986 1678 
C 986 2269 1344 2713 1792 2713 
C 2266 2713 2317 2289 2317 1980 
L 2317 443 
C 2317 198 2291 166 1882 166 
L 1882 0 
C 2035 12 2317 12 2483 12 
C 2650 12 2938 12 3091 0 
L 3091 166 
C 2682 166 2656 192 2656 443 
L 2656 1954 
z
" id="CMR17-6e" transform="scale(0.015625)"/>
       <path d="M 1978 2688 
C 1978 2803 1971 2809 1933 2809 
C 1907 2809 1901 2803 1824 2707 
C 1805 2681 1747 2617 1728 2592 
C 1523 2809 1235 2816 1126 2816 
C 416 2816 160 2444 160 2073 
C 160 1497 813 1363 998 1324 
C 1402 1241 1542 1216 1677 1100 
C 1760 1024 1901 883 1901 652 
C 1901 384 1747 38 1158 38 
C 602 38 403 460 288 1024 
C 269 1113 269 1120 218 1120 
C 166 1120 160 1113 160 985 
L 160 64 
C 160 -52 166 -58 205 -58 
C 237 -58 243 -52 275 0 
C 314 57 410 211 448 275 
C 576 102 800 -64 1158 -64 
C 1792 -64 2131 281 2131 780 
C 2131 1107 1958 1280 1875 1356 
C 1683 1555 1459 1600 1190 1651 
C 838 1728 390 1817 390 2208 
C 390 2374 480 2726 1126 2726 
C 1811 2726 1850 2086 1862 1881 
C 1869 1849 1901 1843 1920 1843 
C 1978 1843 1978 1862 1978 1971 
L 1978 2688 
z
" id="CMR17-73" transform="scale(0.015625)"/>
       <path d="M 992 3961 
C 992 4102 877 4224 730 4224 
C 589 4224 467 4108 467 3961 
C 467 3820 582 3699 730 3699 
C 870 3699 992 3814 992 3961 
z
M 243 2745 
L 243 2579 
C 602 2579 653 2540 653 2231 
L 653 443 
C 653 198 627 166 218 166 
L 218 0 
C 371 12 646 12 806 12 
C 960 12 1222 12 1370 0 
L 1370 166 
C 992 166 979 205 979 436 
L 979 2816 
L 243 2745 
z
" id="CMR17-69" transform="scale(0.015625)"/>
       <path d="M 966 2585 
L 1862 2585 
L 1862 2752 
L 966 2752 
L 966 3968 
L 851 3968 
C 838 3292 614 2700 70 2687 
L 70 2585 
L 627 2585 
L 627 778 
C 627 655 627 -64 1370 -64 
C 1747 -64 1965 308 1965 784 
L 1965 1151 
L 1850 1151 
L 1850 790 
C 1850 347 1677 51 1408 51 
C 1222 51 966 179 966 765 
L 966 2585 
z
" id="CMR17-74" transform="scale(0.015625)"/>
       <path d="M 2496 2183 
C 2656 2579 2944 2585 3034 2585 
L 3034 2752 
C 2912 2745 2752 2739 2630 2739 
C 2496 2739 2285 2739 2157 2752 
L 2157 2585 
C 2400 2566 2406 2384 2406 2332 
C 2406 2268 2394 2235 2362 2158 
L 1664 409 
L 902 2300 
C 870 2378 870 2423 870 2430 
C 870 2572 1018 2585 1171 2585 
L 1171 2752 
C 1018 2739 742 2739 582 2739 
C 410 2739 205 2739 64 2752 
L 64 2585 
C 410 2585 448 2553 531 2345 
L 1485 -31 
C 1197 -795 1030 -1242 627 -1242 
C 557 -1242 397 -1223 282 -1106 
C 429 -1093 493 -1002 493 -892 
C 493 -782 416 -685 288 -685 
C 147 -685 77 -782 77 -899 
C 77 -1158 339 -1344 627 -1344 
C 998 -1344 1229 -983 1357 -659 
L 2496 2183 
z
" id="CMR17-79" transform="scale(0.015625)"/>
       <path d="M 198 -1085 
C 192 -1116 179 -1154 179 -1191 
C 179 -1287 256 -1351 352 -1351 
C 448 -1351 538 -1287 576 -1198 
C 602 -1141 781 -390 986 389 
C 1114 70 1350 -64 1600 -64 
C 2323 -64 3142 830 3142 1794 
C 3142 2477 2726 2816 2285 2816 
C 1722 2816 1037 2234 826 1385 
L 198 -1085 
z
M 1594 64 
C 1158 64 1050 568 1050 645 
C 1050 683 1210 1289 1229 1385 
C 1555 2656 2182 2687 2278 2687 
C 2566 2687 2726 2426 2726 2049 
C 2726 1724 2554 1091 2445 823 
C 2253 383 1920 64 1594 64 
z
" id="CMMI12-1a" transform="scale(0.015625)"/>
       <path d="M 2746 4563 
C 2746 4569 2784 4665 2784 4678 
C 2784 4755 2720 4800 2669 4800 
C 2637 4800 2579 4800 2528 4659 
L 384 -1364 
C 384 -1370 346 -1466 346 -1479 
C 346 -1556 410 -1600 461 -1600 
C 499 -1600 557 -1594 602 -1460 
L 2746 4563 
z
" id="CMMI12-3d" transform="scale(0.015625)"/>
      </defs>
      <use transform="scale(0.996264)" xlink:href="#CMR17-44"/>
      <use transform="translate(70.393556 0)scale(0.996264)" xlink:href="#CMR17-65"/>
      <use transform="translate(110.879216 0)scale(0.996264)" xlink:href="#CMR17-6e"/>
      <use transform="translate(161.774586 0)scale(0.996264)" xlink:href="#CMR17-73"/>
      <use transform="translate(197.575924 0)scale(0.996264)" xlink:href="#CMR17-69"/>
      <use transform="translate(222.446982 0)scale(0.996264)" xlink:href="#CMR17-74"/>
      <use transform="translate(255.125296 0)scale(0.996264)" xlink:href="#CMR17-79"/>
      <use transform="translate(333.494178 0)scale(0.996264)" xlink:href="#CMMI12-1a"/>
      <use transform="translate(383.808551 0)scale(0.996264)" xlink:href="#CMMI12-3d"/>
      <use transform="translate(432.58347 0)scale(0.996264)" xlink:href="#CMMI12-1a"/>
      <use transform="translate(482.897843 -14.943915)scale(0.697382)" xlink:href="#CMR17-30"/>
     </g>
    </g>
   </g>
   <g id="matplotlib.axis_2">
    <g id="ytick_1">
     <g id="line2d_5">
      <defs>
       <path d="M 0 0 
L -3.5 0 
" id="m39ca02528b" style="stroke:#000000;stroke-width:0.8;"/>
      </defs>
      <g>
       <use style="stroke:#000000;stroke-width:0.8;" x="40.892719" xlink:href="#m39ca02528b" y="252.345311"/>
      </g>
     </g>
     <g id="text_6">
      <!-- 0.0 -->
      <g transform="translate(21.16264 255.804561)scale(0.1 -0.1)">
       <use transform="scale(0.996264)" xlink:href="#CMR17-30"/>
       <use transform="translate(45.690477 0)scale(0.996264)" xlink:href="#CMR17-2e"/>
       <use transform="translate(70.561536 0)scale(0.996264)" xlink:href="#CMR17-30"/>
      </g>
     </g>
    </g>
    <g id="ytick_2">
     <g id="line2d_6">
      <g>
       <use style="stroke:#000000;stroke-width:0.8;" x="40.892719" xlink:href="#m39ca02528b" y="205.650966"/>
      </g>
     </g>
     <g id="text_7">
      <!-- 0.2 -->
      <g transform="translate(21.16264 209.110216)scale(0.1 -0.1)">
       <defs>
        <path d="M 2669 990 
L 2554 990 
C 2490 537 2438 460 2413 422 
C 2381 371 1920 371 1830 371 
L 602 371 
C 832 620 1280 1073 1824 1596 
C 2214 1966 2669 2400 2669 3033 
C 2669 3788 2067 4224 1395 4224 
C 691 4224 262 3603 262 3027 
C 262 2777 448 2745 525 2745 
C 589 2745 781 2783 781 3007 
C 781 3206 614 3264 525 3264 
C 486 3264 448 3257 422 3244 
C 544 3788 915 4057 1306 4057 
C 1862 4057 2227 3616 2227 3033 
C 2227 2477 1901 1998 1536 1583 
L 262 147 
L 262 0 
L 2515 0 
L 2669 990 
z
" id="CMR17-32" transform="scale(0.015625)"/>
       </defs>
       <use transform="scale(0.996264)" xlink:href="#CMR17-30"/>
       <use transform="translate(45.690477 0)scale(0.996264)" xlink:href="#CMR17-2e"/>
       <use transform="translate(70.561536 0)scale(0.996264)" xlink:href="#CMR17-32"/>
      </g>
     </g>
    </g>
    <g id="ytick_3">
     <g id="line2d_7">
      <g>
       <use style="stroke:#000000;stroke-width:0.8;" x="40.892719" xlink:href="#m39ca02528b" y="158.956621"/>
      </g>
     </g>
     <g id="text_8">
      <!-- 0.4 -->
      <g transform="translate(21.16264 162.415871)scale(0.1 -0.1)">
       <defs>
        <path d="M 2150 4147 
C 2150 4281 2144 4288 2029 4288 
L 128 1254 
L 128 1088 
L 1779 1088 
L 1779 460 
C 1779 230 1766 166 1318 166 
L 1197 166 
L 1197 0 
C 1402 12 1747 12 1965 12 
C 2182 12 2528 12 2733 0 
L 2733 166 
L 2611 166 
C 2163 166 2150 230 2150 460 
L 2150 1088 
L 2803 1088 
L 2803 1254 
L 2150 1254 
L 2150 4147 
z
M 1798 3723 
L 1798 1254 
L 256 1254 
L 1798 3723 
z
" id="CMR17-34" transform="scale(0.015625)"/>
       </defs>
       <use transform="scale(0.996264)" xlink:href="#CMR17-30"/>
       <use transform="translate(45.690477 0)scale(0.996264)" xlink:href="#CMR17-2e"/>
       <use transform="translate(70.561536 0)scale(0.996264)" xlink:href="#CMR17-34"/>
      </g>
     </g>
    </g>
    <g id="ytick_4">
     <g id="line2d_8">
      <g>
       <use style="stroke:#000000;stroke-width:0.8;" x="40.892719" xlink:href="#m39ca02528b" y="112.262276"/>
      </g>
     </g>
     <g id="text_9">
      <!-- 0.6 -->
      <g transform="translate(21.16264 115.721525)scale(0.1 -0.1)">
       <defs>
        <path d="M 678 2198 
C 678 3712 1395 4076 1811 4076 
C 1946 4076 2272 4049 2400 3782 
C 2298 3782 2106 3782 2106 3558 
C 2106 3385 2246 3328 2336 3328 
C 2394 3328 2566 3353 2566 3571 
C 2566 3987 2246 4224 1805 4224 
C 1043 4224 243 3411 243 2011 
C 243 257 966 -128 1478 -128 
C 2099 -128 2688 431 2688 1295 
C 2688 2101 2170 2688 1517 2688 
C 1126 2688 838 2430 678 1979 
L 678 2198 
z
M 1478 25 
C 691 25 691 1212 691 1450 
C 691 1914 909 2585 1504 2585 
C 1613 2585 1926 2585 2138 2140 
C 2253 1889 2253 1624 2253 1302 
C 2253 954 2253 696 2118 438 
C 1978 173 1773 25 1478 25 
z
" id="CMR17-36" transform="scale(0.015625)"/>
       </defs>
       <use transform="scale(0.996264)" xlink:href="#CMR17-30"/>
       <use transform="translate(45.690477 0)scale(0.996264)" xlink:href="#CMR17-2e"/>
       <use transform="translate(70.561536 0)scale(0.996264)" xlink:href="#CMR17-36"/>
      </g>
     </g>
    </g>
    <g id="ytick_5">
     <g id="line2d_9">
      <g>
       <use style="stroke:#000000;stroke-width:0.8;" x="40.892719" xlink:href="#m39ca02528b" y="65.567931"/>
      </g>
     </g>
     <g id="text_10">
      <!-- 0.8 -->
      <g transform="translate(21.16264 69.02718)scale(0.1 -0.1)">
       <defs>
        <path d="M 1741 2289 
C 2144 2494 2554 2803 2554 3298 
C 2554 3884 1990 4224 1472 4224 
C 890 4224 378 3800 378 3215 
C 378 3054 416 2777 666 2533 
C 730 2469 998 2276 1171 2154 
C 883 2006 211 1652 211 945 
C 211 282 838 -128 1459 -128 
C 2144 -128 2720 366 2720 1022 
C 2720 1607 2330 1877 2074 2051 
L 1741 2289 
z
M 902 2855 
C 851 2887 595 3086 595 3388 
C 595 3781 998 4076 1459 4076 
C 1965 4076 2336 3716 2336 3298 
C 2336 2700 1670 2359 1638 2359 
C 1632 2359 1626 2359 1574 2398 
L 902 2855 
z
M 2080 1536 
C 2176 1466 2483 1253 2483 861 
C 2483 385 2010 25 1472 25 
C 890 25 448 443 448 951 
C 448 1459 838 1884 1280 2083 
L 2080 1536 
z
" id="CMR17-38" transform="scale(0.015625)"/>
       </defs>
       <use transform="scale(0.996264)" xlink:href="#CMR17-30"/>
       <use transform="translate(45.690477 0)scale(0.996264)" xlink:href="#CMR17-2e"/>
       <use transform="translate(70.561536 0)scale(0.996264)" xlink:href="#CMR17-38"/>
      </g>
     </g>
    </g>
    <g id="ytick_6">
     <g id="line2d_10">
      <g>
       <use style="stroke:#000000;stroke-width:0.8;" x="40.892719" xlink:href="#m39ca02528b" y="18.873586"/>
      </g>
     </g>
     <g id="text_11">
      <!-- 1.0 -->
      <g transform="translate(21.16264 22.332835)scale(0.1 -0.1)">
       <use transform="scale(0.996264)" xlink:href="#CMR17-31"/>
       <use transform="translate(45.690477 0)scale(0.996264)" xlink:href="#CMR17-2e"/>
       <use transform="translate(70.561536 0)scale(0.996264)" xlink:href="#CMR17-30"/>
      </g>
     </g>
    </g>
    <g id="text_12">
     <!-- Pressure $p/p_0$ -->
     <g transform="translate(14.67198 165.175692)rotate(-90)scale(0.1 -0.1)">
      <defs>
       <path d="M 1267 2048 
L 2291 2048 
C 3117 2048 3718 2583 3718 3187 
C 3718 3791 3130 4352 2291 4352 
L 333 4352 
L 333 4185 
C 774 4185 845 4185 845 3899 
L 845 453 
C 845 166 774 166 333 166 
L 333 0 
C 518 12 858 12 1056 12 
C 1254 12 1594 12 1779 0 
L 1779 166 
C 1338 166 1267 166 1267 453 
L 1267 2048 
z
M 1254 2182 
L 1254 3937 
C 1254 4153 1267 4185 1523 4185 
L 2170 4185 
C 2995 4185 3232 3715 3232 3187 
C 3232 2608 2950 2182 2170 2182 
L 1254 2182 
z
" id="CMR17-50" transform="scale(0.015625)"/>
       <path d="M 960 1517 
C 960 2134 1222 2713 1702 2713 
C 1747 2713 1792 2707 1837 2687 
C 1837 2687 1696 2642 1696 2475 
C 1696 2321 1818 2257 1914 2257 
C 1990 2257 2131 2302 2131 2482 
C 2131 2687 1926 2816 1709 2816 
C 1222 2816 1011 2340 947 2115 
L 941 2115 
L 941 2816 
L 198 2745 
L 198 2578 
C 576 2578 634 2540 634 2231 
L 634 443 
C 634 198 608 166 198 166 
L 198 0 
C 352 12 646 12 813 12 
C 998 12 1325 12 1498 0 
L 1498 166 
C 1037 166 960 166 960 455 
L 960 1517 
z
" id="CMR17-72" transform="scale(0.015625)"/>
       <path d="M 1882 2745 
L 1882 2579 
C 2259 2579 2317 2540 2317 2229 
L 2317 1053 
C 2317 510 2029 38 1555 38 
C 1030 38 986 355 986 691 
L 986 2816 
L 211 2745 
L 211 2579 
C 467 2579 640 2579 646 2320 
L 646 1079 
C 646 646 646 368 813 187 
C 896 103 1056 -64 1517 -64 
C 2061 -64 2272 400 2323 536 
L 2330 536 
L 2330 -64 
L 3091 -13 
L 3091 154 
C 2714 154 2656 193 2656 503 
L 2656 2816 
L 1882 2745 
z
" id="CMR17-75" transform="scale(0.015625)"/>
       <path d="M 275 -794 
C 230 -981 205 -1031 -58 -1031 
C -135 -1031 -199 -1031 -199 -1152 
C -199 -1165 -192 -1216 -122 -1216 
C -39 -1216 51 -1204 134 -1204 
L 410 -1204 
C 544 -1204 870 -1216 1005 -1216 
C 1043 -1216 1120 -1216 1120 -1101 
C 1120 -1031 1075 -1031 966 -1031 
C 672 -1031 653 -987 653 -937 
C 653 -863 941 217 979 364 
C 1050 185 1222 -64 1555 -64 
C 2278 -64 3059 874 3059 1813 
C 3059 2400 2726 2816 2246 2816 
C 1837 2816 1491 2419 1421 2330 
C 1370 2649 1120 2816 864 2816 
C 678 2816 531 2726 410 2483 
C 294 2253 205 1864 205 1838 
C 205 1813 230 1781 275 1781 
C 326 1781 333 1787 371 1934 
C 467 2311 589 2687 845 2687 
C 992 2687 1043 2585 1043 2394 
C 1043 2241 1024 2177 998 2062 
L 275 -794 
z
M 1382 1992 
C 1427 2170 1606 2356 1709 2445 
C 1779 2509 1990 2687 2234 2687 
C 2515 2687 2643 2407 2643 2075 
C 2643 1768 2464 1047 2304 715 
C 2144 370 1850 64 1555 64 
C 1120 64 1050 613 1050 638 
C 1050 657 1062 708 1069 740 
L 1382 1992 
z
" id="CMMI12-70" transform="scale(0.015625)"/>
      </defs>
      <use transform="scale(0.996264)" xlink:href="#CMR17-50"/>
      <use transform="translate(62.586301 0)scale(0.996264)" xlink:href="#CMR17-72"/>
      <use transform="translate(97.867068 0)scale(0.996264)" xlink:href="#CMR17-65"/>
      <use transform="translate(138.352729 0)scale(0.996264)" xlink:href="#CMR17-73"/>
      <use transform="translate(174.154066 0)scale(0.996264)" xlink:href="#CMR17-73"/>
      <use transform="translate(209.955404 0)scale(0.996264)" xlink:href="#CMR17-75"/>
      <use transform="translate(260.850774 0)scale(0.996264)" xlink:href="#CMR17-72"/>
      <use transform="translate(296.131542 0)scale(0.996264)" xlink:href="#CMR17-65"/>
      <use transform="translate(366.693168 0)scale(0.996264)" xlink:href="#CMMI12-70"/>
      <use transform="translate(415.652682 0)scale(0.996264)" xlink:href="#CMMI12-3d"/>
      <use transform="translate(464.427601 0)scale(0.996264)" xlink:href="#CMMI12-70"/>
      <use transform="translate(513.387115 -14.943915)scale(0.697382)" xlink:href="#CMR17-30"/>
     </g>
    </g>
   </g>
   <g id="line2d_11">
    <path clip-path="url(#pe3fde370e7)" d="M 56.896426 200.172264 
L 63.417145 173.043543 
L 69.937865 157.125629 
L 76.458585 145.358288 
L 82.979304 135.88052 
L 89.500024 127.885763 
L 96.020743 120.944395 
L 102.541463 114.793844 
L 109.062183 109.263839 
L 115.582902 104.232701 
L 122.103622 99.617764 
L 128.624342 95.355126 
L 135.145061 91.384585 
L 141.665781 87.675786 
L 148.186501 84.192889 
L 154.70722 80.915069 
L 161.22794 77.8083 
L 167.74866 74.863098 
L 174.269379 72.058824 
L 180.790099 69.385206 
L 187.310819 66.833453 
L 193.831538 64.388846 
L 200.352258 62.038624 
L 206.872977 59.780866 
L 213.393697 57.610349 
L 219.914417 55.515708 
L 226.435136 53.491179 
L 232.955856 51.536076 
L 239.476576 49.654216 
L 245.997295 47.805445 
L 252.518015 46.032459 
L 259.038735 44.291043 
L 265.559454 42.616933 
L 272.080174 40.972302 
L 278.600894 39.366904 
L 285.121613 37.807266 
L 291.642333 36.287202 
L 298.163053 34.801686 
L 304.683772 33.346747 
L 311.204492 31.919375 
L 317.725211 30.517402 
L 324.245931 29.13939 
L 330.766651 27.784486 
L 337.28737 26.452277 
L 343.80809 25.142617 
L 350.32881 23.85544 
L 356.849529 22.590529 
L 363.370249 21.347258 
L 369.890969 20.103452 
L 376.411688 18.873586 
" style="fill:none;stroke:#000000;stroke-dasharray:6,1.5;stroke-dashoffset:0;stroke-width:1.5;"/>
   </g>
   <g id="line2d_12">
    <path clip-path="url(#pe3fde370e7)" d="M 56.879044 208.491054 
L 63.400118 184.132645 
L 69.921192 169.506501 
L 76.442267 158.482448 
L 82.963341 149.447714 
L 89.484416 141.704465 
L 96.00549 134.879582 
L 102.526564 128.747121 
L 109.047639 123.158879 
L 115.568713 118.011629 
L 122.089787 113.230321 
L 128.610862 108.758443 
L 135.131936 104.552223 
L 141.653011 100.577254 
L 148.174085 96.805179 
L 154.695159 93.213616 
L 161.216234 89.783048 
L 167.737308 86.497768 
L 174.258383 83.344479 
L 180.779457 80.31082 
L 187.300531 77.386917 
L 193.821606 74.563987 
L 200.34268 71.834478 
L 206.863754 69.191749 
L 213.384829 66.628661 
L 219.905903 64.141055 
L 226.426978 61.723541 
L 232.948052 59.371708 
L 239.469126 57.08206 
L 245.990201 54.850231 
L 252.511275 52.673359 
L 259.032349 50.54846 
L 265.553424 48.472939 
L 272.074498 46.445025 
L 278.595573 44.459829 
L 285.116647 42.51765 
L 291.637721 40.616121 
L 298.158796 38.75307 
L 304.67987 36.926195 
L 311.200944 35.134614 
L 317.722019 33.377001 
L 324.243093 31.651662 
L 330.764168 29.957824 
L 337.285242 28.293471 
L 343.806316 26.657393 
L 350.327391 25.048994 
L 356.848465 23.468032 
L 363.36954 21.912639 
L 369.890614 20.381448 
L 376.411688 18.873586 
" style="fill:none;stroke:#000000;stroke-dasharray:6,6;stroke-dashoffset:0;stroke-width:1.5;"/>
   </g>
   <g id="line2d_13">
    <path clip-path="url(#pe3fde370e7)" d="M 56.869813 150.066785 
L 63.391076 127.077445 
L 69.912338 114.901883 
L 76.433601 106.303348 
L 82.954864 99.561461 
L 89.476127 93.972892 
L 95.997389 89.176506 
L 102.518652 84.960742 
L 109.039915 81.190372 
L 115.561178 77.773408 
L 122.08244 74.644277 
L 128.603703 71.754495 
L 135.124966 69.067145 
L 141.646229 66.553433 
L 148.167492 64.19044 
L 154.688754 61.959613 
L 161.210017 59.845704 
L 167.73128 57.836026 
L 174.252543 55.919901 
L 180.773805 54.088253 
L 187.295068 52.333298 
L 193.816331 50.648306 
L 200.337594 49.027423 
L 206.858856 47.465513 
L 213.380119 45.958055 
L 219.901382 44.501038 
L 226.422645 43.090892 
L 232.943907 41.724423 
L 239.46517 40.398761 
L 245.986433 39.111318 
L 252.507696 37.85975 
L 259.028959 36.641929 
L 265.550221 35.455915 
L 272.071484 34.299936 
L 278.592747 33.172369 
L 285.11401 32.071721 
L 291.635272 30.996616 
L 298.156535 29.945787 
L 304.677798 28.918059 
L 311.199061 27.912344 
L 317.720323 26.92763 
L 324.241586 25.962976 
L 330.762849 25.017503 
L 337.284112 24.090394 
L 343.805374 23.180881 
L 350.326637 22.288245 
L 356.8479 21.411812 
L 363.369163 20.55095 
L 369.890426 19.705061 
L 376.411688 18.873586 
" style="fill:none;stroke:#000000;stroke-dasharray:0.75,1.5;stroke-dashoffset:0;stroke-width:1.5;"/>
   </g>
   <g id="line2d_14">
    <path clip-path="url(#pe3fde370e7)" d="M 56.869813 239.225992 
L 63.391076 221.158755 
L 69.912338 208.739594 
L 76.433601 198.649407 
L 82.954864 189.926432 
L 89.476127 182.130908 
L 95.997389 175.017943 
L 102.518652 168.434539 
L 109.039915 162.277533 
L 115.561178 156.473452 
L 122.08244 150.967778 
L 128.603703 145.718729 
L 135.124966 140.693452 
L 141.646229 135.865555 
L 148.167492 131.213461 
L 154.688754 126.719258 
L 161.210017 122.367883 
L 167.73128 118.146528 
L 174.252543 114.04419 
L 180.773805 110.051336 
L 187.295068 106.159642 
L 193.816331 102.361789 
L 200.337594 98.651297 
L 206.858856 95.022403 
L 213.380119 91.469949 
L 219.901382 87.989298 
L 226.422645 84.576265 
L 232.943907 81.227057 
L 239.46517 77.93822 
L 245.986433 74.706603 
L 252.507696 71.529321 
L 259.028959 68.40372 
L 265.550221 65.327358 
L 272.071484 62.297979 
L 278.592747 59.313494 
L 285.11401 56.371965 
L 291.635272 53.471587 
L 298.156535 50.610681 
L 304.677798 47.787679 
L 311.199061 45.001111 
L 317.720323 42.249603 
L 324.241586 39.531864 
L 330.762849 36.84668 
L 337.284112 34.192909 
L 343.805374 31.569473 
L 350.326637 28.975356 
L 356.8479 26.409595 
L 363.369163 23.87128 
L 369.890426 21.35955 
L 376.411688 18.873586 
" style="fill:none;stroke:#000000;stroke-dasharray:0.75,4.5;stroke-dashoffset:0;stroke-width:1.5;"/>
   </g>
   <g id="line2d_15">
    <path clip-path="url(#pe3fde370e7)" d="M 56.869813 252.345311 
L 63.391076 239.963852 
L 69.912338 230.299639 
L 76.433601 221.882087 
L 82.954864 214.242326 
L 89.476127 207.15379 
L 95.997389 200.48512 
L 102.518652 194.151579 
L 109.039915 188.094486 
L 115.561178 182.271085 
L 122.08244 176.649004 
L 128.603703 171.202988 
L 135.124966 165.912855 
L 141.646229 160.762155 
L 148.167492 155.737255 
L 154.688754 150.826697 
L 161.210017 146.020732 
L 167.73128 141.310981 
L 174.252543 136.690171 
L 180.773805 132.151943 
L 187.295068 127.69069 
L 193.816331 123.301443 
L 200.337594 118.979765 
L 206.858856 114.721678 
L 213.380119 110.523597 
L 219.901382 106.382276 
L 226.422645 102.294765 
L 232.943907 98.25837 
L 239.46517 94.270627 
L 245.986433 90.329272 
L 252.507696 86.432219 
L 259.028959 82.57754 
L 265.550221 78.763451 
L 272.071484 74.988295 
L 278.592747 71.250527 
L 285.11401 67.548711 
L 291.635272 63.881501 
L 298.156535 60.247638 
L 304.677798 56.645942 
L 311.199061 53.075303 
L 317.720323 49.534677 
L 324.241586 46.023079 
L 330.762849 42.539581 
L 337.284112 39.083303 
L 343.805374 35.653414 
L 350.326637 32.249128 
L 356.8479 28.869694 
L 363.369163 25.514405 
L 369.890426 22.182583 
L 376.411688 18.873586 
" style="fill:none;stroke:#000000;stroke-dasharray:0.75,9;stroke-dashoffset:0;stroke-width:1.5;"/>
   </g>
   <g id="patch_3">
    <path d="M 40.892719 264.018898 
L 40.892719 7.2 
" style="fill:none;stroke:#000000;stroke-linecap:square;stroke-linejoin:miter;stroke-width:0.8;"/>
   </g>
   <g id="patch_4">
    <path d="M 392.388782 264.018898 
L 392.388782 7.2 
" style="fill:none;stroke:#000000;stroke-linecap:square;stroke-linejoin:miter;stroke-width:0.8;"/>
   </g>
   <g id="patch_5">
    <path d="M 40.892719 264.018898 
L 392.388782 264.018898 
" style="fill:none;stroke:#000000;stroke-linecap:square;stroke-linejoin:miter;stroke-width:0.8;"/>
   </g>
   <g id="patch_6">
    <path d="M 40.892719 7.2 
L 392.388782 7.2 
" style="fill:none;stroke:#000000;stroke-linecap:square;stroke-linejoin:miter;stroke-width:0.8;"/>
   </g>
   <g id="legend_1">
    <g id="patch_7">
     <path d="M 282.63315 259.018898 
L 385.388782 259.018898 
Q 387.388782 259.018898 387.388782 257.018898 
L 387.388782 185.593356 
Q 387.388782 183.593356 385.388782 183.593356 
L 282.63315 183.593356 
Q 280.63315 183.593356 280.63315 185.593356 
L 280.63315 257.018898 
Q 280.63315 259.018898 282.63315 259.018898 
z
" style="fill:#ffffff;opacity:0.8;stroke:#cccccc;stroke-linejoin:miter;"/>
    </g>
    <g id="line2d_16">
     <path d="M 284.63315 191.093356 
L 304.63315 191.093356 
" style="fill:none;stroke:#000000;stroke-dasharray:6,1.5;stroke-dashoffset:0;stroke-width:1.5;"/>
    </g>
    <g id="line2d_17"/>
    <g id="text_13">
     <!-- $\rho_{rel}$ for $B=20$ -->
     <g transform="translate(312.63315 194.593356)scale(0.1 -0.1)">
      <defs>
       <path d="M 2490 2633 
C 2291 2598 2189 2457 2189 2316 
C 2189 2163 2310 2111 2400 2111 
C 2579 2111 2726 2265 2726 2457 
C 2726 2651 2528 2816 2208 2816 
C 1952 2816 1658 2700 1389 2335 
C 1344 2660 1088 2816 832 2816 
C 582 2816 454 2642 378 2508 
C 269 2278 173 1892 173 1860 
C 173 1834 198 1801 243 1801 
C 294 1801 301 1808 339 1957 
C 435 2342 557 2687 813 2687 
C 966 2687 1011 2604 1011 2419 
C 1011 2278 947 2028 902 1827 
L 723 1130 
C 698 1007 627 716 595 600 
C 550 432 480 128 480 96 
C 480 6 550 -64 646 -64 
C 717 -64 838 -20 877 109 
C 896 160 1133 1136 1171 1285 
C 1203 1427 1242 1562 1274 1705 
C 1299 1795 1325 1898 1344 1982 
C 1363 2040 1536 2355 1696 2495 
C 1773 2566 1939 2687 2202 2687 
C 2304 2687 2406 2674 2490 2633 
z
" id="CMMI12-72" transform="scale(0.015625)"/>
       <path d="M 1146 1472 
C 1318 1472 1754 1484 2061 1600 
C 2547 1786 2592 2160 2592 2275 
C 2592 2559 2349 2816 1926 2816 
C 1254 2816 288 2205 288 1066 
C 288 400 672 -64 1254 -64 
C 2125 -64 2675 609 2675 691 
C 2675 729 2637 761 2611 761 
C 2592 761 2586 755 2528 698 
C 2118 159 1510 64 1267 64 
C 902 64 710 349 710 818 
C 710 907 710 1066 806 1472 
L 1146 1472 
z
M 838 1600 
C 1114 2591 1722 2687 1926 2687 
C 2208 2687 2400 2520 2400 2275 
C 2400 1600 1376 1600 1107 1600 
L 838 1600 
z
" id="CMMI12-65" transform="scale(0.015625)"/>
       <path d="M 1626 4255 
C 1632 4281 1645 4319 1645 4351 
C 1645 4416 1581 4416 1568 4416 
C 1562 4416 1331 4396 1216 4383 
C 1107 4377 1011 4364 896 4358 
C 742 4345 698 4339 698 4223 
C 698 4159 762 4159 826 4159 
C 1152 4159 1152 4102 1152 4039 
C 1152 4013 1152 4001 1120 3886 
L 326 731 
C 307 661 294 610 294 509 
C 294 191 531 -64 858 -64 
C 1069 -64 1210 76 1312 273 
C 1421 483 1510 884 1510 909 
C 1510 941 1485 967 1446 967 
C 1389 967 1382 935 1357 839 
C 1242 401 1126 64 870 64 
C 678 64 678 267 678 356 
C 678 382 678 515 723 693 
L 1626 4255 
z
" id="CMMI12-6c" transform="scale(0.015625)"/>
       <path d="M 979 2585 
L 1709 2585 
L 1709 2752 
L 966 2752 
L 966 3539 
C 966 4076 1235 4377 1510 4377 
C 1594 4377 1690 4363 1754 4339 
C 1702 4326 1568 4281 1568 4121 
C 1568 3955 1696 3904 1786 3904 
C 1875 3904 2003 3955 2003 4121 
C 2003 4353 1773 4480 1517 4480 
C 1152 4480 653 4211 653 3526 
L 653 2752 
L 141 2752 
L 141 2585 
L 653 2585 
L 653 441 
C 653 198 627 166 218 166 
L 218 0 
C 371 12 666 12 832 12 
C 1018 12 1344 12 1517 0 
L 1517 166 
C 1056 166 979 166 979 454 
L 979 2585 
z
" id="CMR17-66" transform="scale(0.015625)"/>
       <path d="M 2758 1356 
C 2758 2176 2163 2816 1466 2816 
C 768 2816 173 2176 173 1356 
C 173 550 768 -64 1466 -64 
C 2163 -64 2758 550 2758 1356 
z
M 1466 51 
C 1165 51 909 230 762 480 
C 602 768 582 1126 582 1408 
C 582 1676 595 2009 762 2297 
C 890 2508 1139 2713 1466 2713 
C 1754 2713 1997 2553 2150 2329 
C 2349 2028 2349 1606 2349 1408 
C 2349 1158 2336 774 2163 467 
C 1984 172 1709 51 1466 51 
z
" id="CMR17-6f" transform="scale(0.015625)"/>
       <path d="M 2342 3915 
C 2400 4153 2426 4166 2675 4166 
L 3507 4166 
C 4230 4166 4230 3547 4230 3489 
C 4230 2967 3712 2304 2867 2304 
L 1946 2304 
L 2342 3915 
z
M 3424 2252 
C 4122 2381 4755 2871 4755 3463 
C 4755 3966 4314 4352 3590 4352 
L 1536 4352 
C 1414 4352 1357 4352 1357 4230 
C 1357 4166 1414 4166 1510 4166 
C 1901 4166 1901 4114 1901 4043 
C 1901 4031 1901 3992 1875 3895 
L 1011 469 
C 954 248 941 185 493 185 
C 371 185 307 185 307 70 
C 307 0 346 0 474 0 
L 2669 0 
C 3648 0 4403 733 4403 1369 
C 4403 1886 3942 2201 3424 2252 
z
M 2515 185 
L 1651 185 
C 1562 185 1549 185 1510 191 
C 1440 198 1434 210 1434 261 
C 1434 305 1446 343 1459 399 
L 1907 2176 
L 3110 2176 
C 3866 2176 3866 1483 3866 1432 
C 3866 828 3309 185 2515 185 
z
" id="CMMI12-42" transform="scale(0.015625)"/>
       <path d="M 4115 2048 
C 4211 2048 4307 2048 4307 2156 
C 4307 2272 4198 2272 4090 2272 
L 512 2272 
C 403 2272 294 2272 294 2156 
C 294 2048 390 2048 486 2048 
L 4115 2048 
z
M 4090 927 
C 4198 927 4307 927 4307 1043 
C 4307 1152 4211 1152 4115 1152 
L 486 1152 
C 390 1152 294 1152 294 1043 
C 294 927 403 927 512 927 
L 4090 927 
z
" id="CMR17-3d" transform="scale(0.015625)"/>
      </defs>
      <use transform="scale(0.996264)" xlink:href="#CMMI12-1a"/>
      <use transform="translate(50.314373 -14.943915)scale(0.697382)" xlink:href="#CMMI12-72"/>
      <use transform="translate(82.983642 -14.943915)scale(0.697382)" xlink:href="#CMMI12-65"/>
      <use transform="translate(114.631898 -14.943915)scale(0.697382)" xlink:href="#CMMI12-6c"/>
      <use transform="translate(167.07978 0)scale(0.996264)" xlink:href="#CMR17-66"/>
      <use transform="translate(194.553293 0)scale(0.996264)" xlink:href="#CMR17-6f"/>
      <use transform="translate(240.24377 0)scale(0.996264)" xlink:href="#CMR17-72"/>
      <use transform="translate(305.600504 0)scale(0.996264)" xlink:href="#CMMI12-42"/>
      <use transform="translate(412.410036 0)scale(0.996264)" xlink:href="#CMR17-3d"/>
      <use transform="translate(511.798833 0)scale(0.996264)" xlink:href="#CMR17-32"/>
      <use transform="translate(557.48931 0)scale(0.996264)" xlink:href="#CMR17-30"/>
     </g>
    </g>
    <g id="line2d_18">
     <path d="M 284.63315 205.030534 
L 304.63315 205.030534 
" style="fill:none;stroke:#000000;stroke-dasharray:6,6;stroke-dashoffset:0;stroke-width:1.5;"/>
    </g>
    <g id="line2d_19"/>
    <g id="text_14">
     <!-- $\rho_{rel}$ for $B=200$ -->
     <g transform="translate(312.63315 208.530534)scale(0.1 -0.1)">
      <use transform="scale(0.996264)" xlink:href="#CMMI12-1a"/>
      <use transform="translate(50.314373 -14.943915)scale(0.697382)" xlink:href="#CMMI12-72"/>
      <use transform="translate(82.983642 -14.943915)scale(0.697382)" xlink:href="#CMMI12-65"/>
      <use transform="translate(114.631898 -14.943915)scale(0.697382)" xlink:href="#CMMI12-6c"/>
      <use transform="translate(167.07978 0)scale(0.996264)" xlink:href="#CMR17-66"/>
      <use transform="translate(194.553293 0)scale(0.996264)" xlink:href="#CMR17-6f"/>
      <use transform="translate(240.24377 0)scale(0.996264)" xlink:href="#CMR17-72"/>
      <use transform="translate(305.600504 0)scale(0.996264)" xlink:href="#CMMI12-42"/>
      <use transform="translate(412.410036 0)scale(0.996264)" xlink:href="#CMR17-3d"/>
      <use transform="translate(511.798833 0)scale(0.996264)" xlink:href="#CMR17-32"/>
      <use transform="translate(557.48931 0)scale(0.996264)" xlink:href="#CMR17-30"/>
      <use transform="translate(603.179787 0)scale(0.996264)" xlink:href="#CMR17-30"/>
     </g>
    </g>
    <g id="line2d_20">
     <path d="M 284.63315 218.967713 
L 304.63315 218.967713 
" style="fill:none;stroke:#000000;stroke-dasharray:0.75,1.5;stroke-dashoffset:0;stroke-width:1.5;"/>
    </g>
    <g id="line2d_21"/>
    <g id="text_15">
     <!-- $\rho_{pol}$ for $n=0.2$ -->
     <g transform="translate(312.63315 222.467713)scale(0.1 -0.1)">
      <defs>
       <path d="M 2918 1755 
C 2918 2362 2522 2816 1939 2816 
C 1094 2816 262 1896 262 996 
C 262 389 659 -64 1242 -64 
C 2093 -64 2918 855 2918 1755 
z
M 1248 64 
C 928 64 691 319 691 766 
C 691 1060 845 1711 1024 2030 
C 1312 2522 1670 2687 1933 2687 
C 2246 2687 2490 2432 2490 1985 
C 2490 1730 2355 1047 2112 657 
C 1850 230 1498 64 1248 64 
z
" id="CMMI12-6f" transform="scale(0.015625)"/>
       <path d="M 1318 1870 
C 1331 1909 1491 2228 1728 2432 
C 1894 2585 2112 2687 2362 2687 
C 2618 2687 2707 2496 2707 2241 
C 2707 1877 2445 1149 2317 804 
C 2259 651 2227 568 2227 453 
C 2227 166 2426 -64 2733 -64 
C 3328 -64 3552 874 3552 913 
C 3552 945 3526 970 3488 970 
C 3430 970 3424 951 3392 842 
C 3245 319 3002 64 2752 64 
C 2688 64 2586 70 2586 274 
C 2586 434 2656 625 2694 715 
C 2822 1066 3091 1781 3091 2145 
C 3091 2528 2867 2816 2381 2816 
C 1811 2816 1510 2413 1395 2253 
C 1376 2617 1114 2816 832 2816 
C 627 2816 486 2694 378 2477 
C 262 2247 173 1864 173 1838 
C 173 1813 198 1781 243 1781 
C 294 1781 301 1787 339 1934 
C 442 2324 557 2687 813 2687 
C 960 2687 1011 2585 1011 2394 
C 1011 2253 947 2004 902 1807 
L 723 1117 
C 698 996 627 708 595 593 
C 550 427 480 127 480 95 
C 480 6 550 -64 646 -64 
C 723 -64 813 -26 864 70 
C 877 102 934 325 966 453 
L 1107 1028 
L 1318 1870 
z
" id="CMMI12-6e" transform="scale(0.015625)"/>
       <path d="M 1178 307 
C 1178 492 1024 620 870 620 
C 685 620 557 467 557 313 
C 557 128 710 0 864 0 
C 1050 0 1178 153 1178 307 
z
" id="CMMI12-3a" transform="scale(0.015625)"/>
      </defs>
      <use transform="scale(0.996264)" xlink:href="#CMMI12-1a"/>
      <use transform="translate(50.314373 -14.943915)scale(0.697382)" xlink:href="#CMMI12-70"/>
      <use transform="translate(84.585879 -14.943915)scale(0.697382)" xlink:href="#CMMI12-6f"/>
      <use transform="translate(117.412441 -14.943915)scale(0.697382)" xlink:href="#CMMI12-6c"/>
      <use transform="translate(169.860323 0)scale(0.996264)" xlink:href="#CMR17-66"/>
      <use transform="translate(197.333835 0)scale(0.996264)" xlink:href="#CMR17-6f"/>
      <use transform="translate(243.024313 0)scale(0.996264)" xlink:href="#CMR17-72"/>
      <use transform="translate(308.381047 0)scale(0.996264)" xlink:href="#CMMI12-6e"/>
      <use transform="translate(394.285103 0)scale(0.996264)" xlink:href="#CMR17-3d"/>
      <use transform="translate(493.6739 0)scale(0.996264)" xlink:href="#CMR17-30"/>
      <use transform="translate(539.364377 0)scale(0.996264)" xlink:href="#CMMI12-3a"/>
      <use transform="translate(566.461554 0)scale(0.996264)" xlink:href="#CMR17-32"/>
     </g>
    </g>
    <g id="line2d_22">
     <path d="M 284.63315 233.818108 
L 304.63315 233.818108 
" style="fill:none;stroke:#000000;stroke-dasharray:0.75,4.5;stroke-dashoffset:0;stroke-width:1.5;"/>
    </g>
    <g id="line2d_23"/>
    <g id="text_16">
     <!-- $\rho_{pol}$ for $n=1$ -->
     <g transform="translate(312.63315 237.318108)scale(0.1 -0.1)">
      <use transform="scale(0.996264)" xlink:href="#CMMI12-1a"/>
      <use transform="translate(50.314373 -14.943915)scale(0.697382)" xlink:href="#CMMI12-70"/>
      <use transform="translate(84.585879 -14.943915)scale(0.697382)" xlink:href="#CMMI12-6f"/>
      <use transform="translate(117.412441 -14.943915)scale(0.697382)" xlink:href="#CMMI12-6c"/>
      <use transform="translate(169.860323 0)scale(0.996264)" xlink:href="#CMR17-66"/>
      <use transform="translate(197.333835 0)scale(0.996264)" xlink:href="#CMR17-6f"/>
      <use transform="translate(243.024313 0)scale(0.996264)" xlink:href="#CMR17-72"/>
      <use transform="translate(308.381047 0)scale(0.996264)" xlink:href="#CMMI12-6e"/>
      <use transform="translate(394.285103 0)scale(0.996264)" xlink:href="#CMR17-3d"/>
      <use transform="translate(493.6739 0)scale(0.996264)" xlink:href="#CMR17-31"/>
     </g>
    </g>
    <g id="line2d_24">
     <path d="M 284.63315 248.668503 
L 304.63315 248.668503 
" style="fill:none;stroke:#000000;stroke-dasharray:0.75,9;stroke-dashoffset:0;stroke-width:1.5;"/>
    </g>
    <g id="line2d_25"/>
    <g id="text_17">
     <!-- $\rho_{pol}$ for $n=2$ -->
     <g transform="translate(312.63315 252.168503)scale(0.1 -0.1)">
      <use transform="scale(0.996264)" xlink:href="#CMMI12-1a"/>
      <use transform="translate(50.314373 -14.943915)scale(0.697382)" xlink:href="#CMMI12-70"/>
      <use transform="translate(84.585879 -14.943915)scale(0.697382)" xlink:href="#CMMI12-6f"/>
      <use transform="translate(117.412441 -14.943915)scale(0.697382)" xlink:href="#CMMI12-6c"/>
      <use transform="translate(169.860323 0)scale(0.996264)" xlink:href="#CMR17-66"/>
      <use transform="translate(197.333835 0)scale(0.996264)" xlink:href="#CMR17-6f"/>
      <use transform="translate(243.024313 0)scale(0.996264)" xlink:href="#CMR17-72"/>
      <use transform="translate(308.381047 0)scale(0.996264)" xlink:href="#CMMI12-6e"/>
      <use transform="translate(394.285103 0)scale(0.996264)" xlink:href="#CMR17-3d"/>
      <use transform="translate(493.6739 0)scale(0.996264)" xlink:href="#CMR17-32"/>
     </g>
    </g>
   </g>
  </g>
 </g>
 <defs>
  <clipPath id="pe3fde370e7">
   <rect height="256.818898" width="351.496063" x="40.892719" y="7.2"/>
  </clipPath>
 </defs>
</svg>
