<?xml version="1.0" encoding="utf-8" standalone="no"?>
<!DOCTYPE svg PUBLIC "-//W3C//DTD SVG 1.1//EN"
  "http://www.w3.org/Graphics/SVG/1.1/DTD/svg11.dtd">
<!-- Created with matplotlib (https://matplotlib.org/) -->
<svg height="356.415677pt" version="1.1" viewBox="0 0 502.231277 356.415677" width="502.231277pt" xmlns="http://www.w3.org/2000/svg" xmlns:xlink="http://www.w3.org/1999/xlink">
 <metadata>
  <rdf:RDF xmlns:cc="http://creativecommons.org/ns#" xmlns:dc="http://purl.org/dc/elements/1.1/" xmlns:rdf="http://www.w3.org/1999/02/22-rdf-syntax-ns#">
   <cc:Work>
    <dc:type rdf:resource="http://purl.org/dc/dcmitype/StillImage"/>
    <dc:date>2020-12-14T10:16:08.885072</dc:date>
    <dc:format>image/svg+xml</dc:format>
    <dc:creator>
     <cc:Agent>
      <dc:title>Matplotlib v3.3.3, https://matplotlib.org/</dc:title>
     </cc:Agent>
    </dc:creator>
   </cc:Work>
  </rdf:RDF>
 </metadata>
 <defs>
  <style type="text/css">*{stroke-linecap:butt;stroke-linejoin:round;}</style>
 </defs>
 <g id="figure_1">
  <g id="patch_1">
   <path d="M 0 356.415677 
L 502.231277 356.415677 
L 502.231277 0 
L 0 0 
z
" style="fill:#ffffff;"/>
  </g>
  <g id="axes_1">
   <g id="patch_2">
    <path d="M 48.631277 333.36 
L 495.031277 333.36 
L 495.031277 7.2 
L 48.631277 7.2 
z
" style="fill:#ffffff;"/>
   </g>
   <g id="matplotlib.axis_1">
    <g id="xtick_1">
     <g id="line2d_1">
      <defs>
       <path d="M 0 0 
L 0 3.5 
" id="mc2fd146eb8" style="stroke:#000000;stroke-width:0.8;"/>
      </defs>
      <g>
       <use style="stroke:#000000;stroke-width:0.8;" x="72.979966" xlink:href="#mc2fd146eb8" y="333.36"/>
      </g>
     </g>
     <g id="text_1">
      <!-- 0.0$p_0$ -->
      <g transform="translate(62.123081 347.278498)scale(0.1 -0.1)">
       <defs>
        <path d="M 43.09375 32.390625 
C 43.09375 38.109375 43 48.75 38.90625 56.984375 
C 34.796875 64.890625 28.203125 67 23.5 67 
C 16.703125 67 10.90625 62.984375 7.90625 56.578125 
C 4.703125 49.859375 3.796875 42.9375 3.796875 32.390625 
C 3.796875 25.171875 4.09375 16.34375 7.703125 8.609375 
C 11.796875 0.09375 18.703125 -2 23.40625 -2 
C 29.59375 -2 35.59375 1.296875 39 8.203125 
C 42.5 15.4375 43.09375 23.359375 43.09375 32.390625 
z
M 23.40625 4.09375 
C 15.796875 4.09375 13.5 12.828125 12.796875 15.734375 
C 11.59375 20.75 11.40625 25.5625 11.40625 33.5 
C 11.40625 39.71875 11.40625 46.75 13.296875 52.265625 
C 15.59375 58.6875 19.59375 60.890625 23.40625 60.890625 
C 30.796875 60.890625 33.203125 53.46875 34 50.859375 
C 35.5 45.546875 35.5 39.3125 35.5 33.5 
C 35.5 24.15625 35.5 4.09375 23.40625 4.09375 
z
" id="CMSS17-48"/>
        <path d="M 17 8 
L 9 8 
L 9 0 
L 17 0 
z
" id="CMSS17-46"/>
        <path d="M 4.296875 -12.40625 
C 3.59375 -15.328125 3.203125 -16.109375 -0.90625 -16.109375 
C -2.109375 -16.109375 -3.109375 -16.109375 -3.109375 -18 
C -3.109375 -18.203125 -3 -19 -1.90625 -19 
C -0.609375 -19 0.796875 -18.8125 2.09375 -18.8125 
L 6.40625 -18.8125 
C 8.5 -18.8125 13.59375 -19 15.703125 -19 
C 16.296875 -19 17.5 -19 17.5 -17.203125 
C 17.5 -16.109375 16.796875 -16.109375 15.09375 -16.109375 
C 10.5 -16.109375 10.203125 -15.421875 10.203125 -14.640625 
C 10.203125 -13.484375 14.703125 3.390625 15.296875 5.6875 
C 16.40625 2.890625 19.09375 -1 24.296875 -1 
C 35.59375 -1 47.796875 13.65625 47.796875 28.328125 
C 47.796875 37.5 42.59375 44 35.09375 44 
C 28.703125 44 23.296875 37.796875 22.203125 36.40625 
C 21.40625 41.390625 17.5 44 13.5 44 
C 10.59375 44 8.296875 42.59375 6.40625 38.796875 
C 4.59375 35.203125 3.203125 29.125 3.203125 28.71875 
C 3.203125 28.328125 3.59375 27.828125 4.296875 27.828125 
C 5.09375 27.828125 5.203125 27.921875 5.796875 30.21875 
C 7.296875 36.109375 9.203125 41.984375 13.203125 41.984375 
C 15.5 41.984375 16.296875 40.390625 16.296875 37.40625 
C 16.296875 35.015625 16 34.015625 15.59375 32.21875 
z
M 21.59375 31.125 
C 22.296875 33.90625 25.09375 36.8125 26.703125 38.203125 
C 27.796875 39.203125 31.09375 41.984375 34.90625 41.984375 
C 39.296875 41.984375 41.296875 37.609375 41.296875 32.421875 
C 41.296875 27.625 38.5 16.359375 36 11.171875 
C 33.5 5.78125 28.90625 1 24.296875 1 
C 17.5 1 16.40625 9.578125 16.40625 9.96875 
C 16.40625 10.265625 16.59375 11.0625 16.703125 11.5625 
z
" id="CMMI12-112"/>
        <path d="M 42 31.84375 
C 42 37.96875 41.90625 48.421875 37.703125 56.453125 
C 34 63.484375 28.09375 66 22.90625 66 
C 18.09375 66 12 63.78125 8.203125 56.5625 
C 4.203125 49.015625 3.796875 39.671875 3.796875 31.84375 
C 3.796875 26.109375 3.90625 17.375 7 9.734375 
C 11.296875 -0.609375 19 -2 22.90625 -2 
C 27.5 -2 34.5 -0.109375 38.59375 9.4375 
C 41.59375 16.375 42 24.5 42 31.84375 
z
M 22.90625 -0.40625 
C 16.5 -0.40625 12.703125 5.125 11.296875 12.75 
C 10.203125 18.6875 10.203125 27.328125 10.203125 32.953125 
C 10.203125 40.6875 10.203125 47.109375 11.5 53.234375 
C 13.40625 61.78125 19 64.390625 22.90625 64.390625 
C 27 64.390625 32.296875 61.671875 34.203125 53.4375 
C 35.5 47.71875 35.59375 40.984375 35.59375 32.953125 
C 35.59375 26.421875 35.59375 18.375 34.40625 12.453125 
C 32.296875 1.5 26.40625 -0.40625 22.90625 -0.40625 
z
" id="CMR17-48"/>
       </defs>
       <use transform="scale(0.996264)" xlink:href="#CMSS17-48"/>
       <use transform="translate(46.843624 0)scale(0.996264)" xlink:href="#CMSS17-46"/>
       <use transform="translate(72.867828 0)scale(0.996264)" xlink:href="#CMSS17-48"/>
       <use transform="translate(119.711452 0)scale(0.996264)" xlink:href="#CMMI12-112"/>
       <use transform="translate(168.670966 -14.943915)scale(0.697382)" xlink:href="#CMR17-48"/>
      </g>
     </g>
    </g>
    <g id="xtick_2">
     <g id="line2d_2">
      <g>
       <use style="stroke:#000000;stroke-width:0.8;" x="206.9001" xlink:href="#mc2fd146eb8" y="333.36"/>
      </g>
     </g>
     <g id="text_2">
      <!-- 0.3$p_0$ -->
      <g transform="translate(196.043215 347.278498)scale(0.1 -0.1)">
       <defs>
        <path d="M 15.703125 32.1875 
L 22.5 32.1875 
C 31.90625 32.1875 34.59375 23.9375 34.59375 18.1875 
C 34.59375 10.34375 30.203125 4.1875 23 4.1875 
C 17.40625 4.1875 9.5 7.015625 5 14.46875 
C 4.296875 10.9375 4.296875 10.734375 3.90625 8.328125 
C 8.59375 1.390625 16.203125 -2 23.203125 -2 
C 34.59375 -2 43 7.515625 43 18.09375 
C 43 26.046875 37.5 32.6875 30 35.1875 
C 36 38.484375 40.40625 44.6875 40.40625 51.890625 
C 40.40625 60.296875 32.703125 67 23.296875 67 
C 14.703125 67 8 61.6875 5.203125 55.984375 
C 5.90625 54.984375 7.703125 52.09375 8.59375 50.59375 
C 10.796875 56.484375 16.5 60.890625 23.203125 60.890625 
C 28.796875 60.890625 32.5 57.1875 32.5 51.890625 
C 32.5 46.390625 29 40.390625 23.09375 39 
C 22.703125 39 16.5 38.390625 15.703125 38.296875 
z
" id="CMSS17-51"/>
       </defs>
       <use transform="scale(0.996264)" xlink:href="#CMSS17-48"/>
       <use transform="translate(46.843624 0)scale(0.996264)" xlink:href="#CMSS17-46"/>
       <use transform="translate(72.867828 0)scale(0.996264)" xlink:href="#CMSS17-51"/>
       <use transform="translate(119.711452 0)scale(0.996264)" xlink:href="#CMMI12-112"/>
       <use transform="translate(168.670966 -14.943915)scale(0.697382)" xlink:href="#CMR17-48"/>
      </g>
     </g>
    </g>
    <g id="xtick_3">
     <g id="line2d_3">
      <g>
       <use style="stroke:#000000;stroke-width:0.8;" x="340.820234" xlink:href="#mc2fd146eb8" y="333.36"/>
      </g>
     </g>
     <g id="text_3">
      <!-- 0.7$p_0$ -->
      <g transform="translate(329.963349 347.278498)scale(0.1 -0.1)">
       <defs>
        <path d="M 21.703125 59.1875 
C 22.90625 59.1875 24.09375 59.296875 25.296875 59.296875 
L 36.796875 59.296875 
C 22.5 42.421875 14.296875 21.09375 14.296875 -1 
L 22.296875 -1 
C 22.296875 20.390625 29.296875 42.109375 43 59.484375 
L 43 66 
L 3.90625 66 
L 3.90625 59.1875 
z
" id="CMSS17-55"/>
       </defs>
       <use transform="scale(0.996264)" xlink:href="#CMSS17-48"/>
       <use transform="translate(46.843624 0)scale(0.996264)" xlink:href="#CMSS17-46"/>
       <use transform="translate(72.867828 0)scale(0.996264)" xlink:href="#CMSS17-55"/>
       <use transform="translate(119.711452 0)scale(0.996264)" xlink:href="#CMMI12-112"/>
       <use transform="translate(168.670966 -14.943915)scale(0.697382)" xlink:href="#CMR17-48"/>
      </g>
     </g>
    </g>
    <g id="xtick_4">
     <g id="line2d_4">
      <g>
       <use style="stroke:#000000;stroke-width:0.8;" x="474.740368" xlink:href="#mc2fd146eb8" y="333.36"/>
      </g>
     </g>
     <g id="text_4">
      <!-- 1.0$p_0$ -->
      <g transform="translate(463.883483 347.278498)scale(0.1 -0.1)">
       <defs>
        <path d="M 28.40625 67 
L 26.5 67 
C 21.09375 61.703125 14.796875 60.96875 8.40625 60.796875 
L 8.40625 55 
C 11.296875 55.09375 16 55.296875 20.703125 57.390625 
L 20.703125 5.796875 
L 8.90625 5.796875 
L 8.90625 0 
L 40.203125 0 
L 40.203125 5.796875 
L 28.40625 5.796875 
z
" id="CMSS17-49"/>
       </defs>
       <use transform="scale(0.996264)" xlink:href="#CMSS17-49"/>
       <use transform="translate(46.843624 0)scale(0.996264)" xlink:href="#CMSS17-46"/>
       <use transform="translate(72.867828 0)scale(0.996264)" xlink:href="#CMSS17-48"/>
       <use transform="translate(119.711452 0)scale(0.996264)" xlink:href="#CMMI12-112"/>
       <use transform="translate(168.670966 -14.943915)scale(0.697382)" xlink:href="#CMR17-48"/>
      </g>
     </g>
    </g>
   </g>
   <g id="matplotlib.axis_2">
    <g id="ytick_1">
     <g id="line2d_5">
      <defs>
       <path d="M 0 0 
L -3.5 0 
" id="mdba2599e21" style="stroke:#000000;stroke-width:0.8;"/>
      </defs>
      <g>
       <use style="stroke:#000000;stroke-width:0.8;" x="48.631277" xlink:href="#mdba2599e21" y="318.534484"/>
      </g>
     </g>
     <g id="text_5">
      <!-- 0.0$\rho_{0,rel}$ -->
      <g transform="translate(7.2 321.800017)scale(0.1 -0.1)">
       <defs>
        <path d="M 3.09375 -16.953125 
C 3 -17.4375 2.796875 -18.03125 2.796875 -18.609375 
C 2.796875 -20.109375 4 -21.109375 5.5 -21.109375 
C 7 -21.109375 8.40625 -20.109375 9 -18.71875 
C 9.40625 -17.828125 12.203125 -6.09375 15.40625 6.078125 
C 17.40625 1.09375 21.09375 -1 25 -1 
C 36.296875 -1 49.09375 12.96875 49.09375 28.03125 
C 49.09375 38.703125 42.59375 44 35.703125 44 
C 26.90625 44 16.203125 34.90625 12.90625 21.640625 
z
M 24.90625 1 
C 18.09375 1 16.40625 8.875 16.40625 10.078125 
C 16.40625 10.671875 18.90625 20.140625 19.203125 21.640625 
C 24.296875 41.5 34.09375 41.984375 35.59375 41.984375 
C 40.09375 41.984375 42.59375 37.90625 42.59375 32.015625 
C 42.59375 26.9375 39.90625 17.046875 38.203125 12.859375 
C 35.203125 5.984375 30 1 24.90625 1 
z
" id="CMMI12-26"/>
        <path d="M 19.5 -0.40625 
C 19.5 5.390625 17.59375 9.6875 13.5 9.6875 
C 10.296875 9.6875 8.703125 7.09375 8.703125 4.890625 
C 8.703125 2.6875 10.203125 0 13.59375 0 
C 14.90625 0 16 0.390625 16.90625 1.296875 
C 17.09375 1.5 17.203125 1.5 17.296875 1.5 
C 17.5 1.5 17.5 0.09375 17.5 -0.40625 
C 17.5 -3.640625 16.90625 -10.03125 11.09375 -16.421875 
C 10 -17.609375 10 -17.8125 10 -18 
C 10 -18.5 10.5 -19 11 -19 
C 11.796875 -19 19.5 -11.703125 19.5 -0.40625 
z
" id="CMMI12-59"/>
        <path d="M 38.90625 41.140625 
C 35.796875 40.59375 34.203125 38.390625 34.203125 36.1875 
C 34.203125 33.796875 36.09375 32.984375 37.5 32.984375 
C 40.296875 32.984375 42.59375 35.390625 42.59375 38.390625 
C 42.59375 41.421875 39.5 44 34.5 44 
C 30.5 44 25.90625 42.1875 21.703125 36.484375 
C 21 41.5625 17 44 13 44 
C 9.09375 44 7.09375 41.28125 5.90625 39.1875 
C 4.203125 35.59375 2.703125 29.5625 2.703125 29.0625 
C 2.703125 28.65625 3.09375 28.140625 3.796875 28.140625 
C 4.59375 28.140625 4.703125 28.25 5.296875 30.578125 
C 6.796875 36.59375 8.703125 41.984375 12.703125 41.984375 
C 15.09375 41.984375 15.796875 40.6875 15.796875 37.796875 
C 15.796875 35.59375 14.796875 31.6875 14.09375 28.546875 
L 11.296875 17.65625 
C 10.90625 15.734375 9.796875 11.1875 9.296875 9.375 
C 8.59375 6.75 7.5 2 7.5 1.5 
C 7.5 0.09375 8.59375 -1 10.09375 -1 
C 11.203125 -1 13.09375 -0.3125 13.703125 1.703125 
C 14 2.5 17.703125 17.75 18.296875 20.078125 
C 18.796875 22.296875 19.40625 24.40625 19.90625 26.640625 
C 20.296875 28.046875 20.703125 29.65625 21 30.96875 
C 21.296875 31.875 24 36.796875 26.5 38.984375 
C 27.703125 40.09375 30.296875 41.984375 34.40625 41.984375 
C 36 41.984375 37.59375 41.78125 38.90625 41.140625 
z
" id="CMMI12-114"/>
        <path d="M 17.90625 23 
C 20.59375 23 27.40625 23.1875 32.203125 25 
C 39.796875 27.90625 40.5 33.75 40.5 35.546875 
C 40.5 39.984375 36.703125 44 30.09375 44 
C 19.59375 44 4.5 34.453125 4.5 16.65625 
C 4.5 6.25 10.5 -1 19.59375 -1 
C 33.203125 -1 41.796875 9.515625 41.796875 10.796875 
C 41.796875 11.390625 41.203125 11.890625 40.796875 11.890625 
C 40.5 11.890625 40.40625 11.796875 39.5 10.90625 
C 33.09375 2.484375 23.59375 1 19.796875 1 
C 14.09375 1 11.09375 5.453125 11.09375 12.78125 
C 11.09375 14.171875 11.09375 16.65625 12.59375 23 
z
M 13.09375 25 
C 17.40625 40.484375 26.90625 41.984375 30.09375 41.984375 
C 34.5 41.984375 37.5 39.375 37.5 35.546875 
C 37.5 25 21.5 25 17.296875 25 
z
" id="CMMI12-101"/>
        <path d="M 25.40625 66.484375 
C 25.5 66.890625 25.703125 67.484375 25.703125 67.984375 
C 25.703125 69 24.703125 69 24.5 69 
C 24.40625 69 20.796875 68.6875 19 68.484375 
C 17.296875 68.390625 15.796875 68.1875 14 68.09375 
C 11.59375 67.890625 10.90625 67.796875 10.90625 65.984375 
C 10.90625 64.984375 11.90625 64.984375 12.90625 64.984375 
C 18 64.984375 18 64.09375 18 63.109375 
C 18 62.703125 18 62.515625 17.5 60.71875 
L 5.09375 11.421875 
C 4.796875 10.328125 4.59375 9.53125 4.59375 7.953125 
C 4.59375 2.984375 8.296875 -1 13.40625 -1 
C 16.703125 -1 18.90625 1.1875 20.5 4.265625 
C 22.203125 7.546875 23.59375 13.8125 23.59375 14.203125 
C 23.59375 14.703125 23.203125 15.109375 22.59375 15.109375 
C 21.703125 15.109375 21.59375 14.609375 21.203125 13.109375 
C 19.40625 6.265625 17.59375 1 13.59375 1 
C 10.59375 1 10.59375 4.171875 10.59375 5.5625 
C 10.59375 5.96875 10.59375 8.046875 11.296875 10.828125 
z
" id="CMMI12-108"/>
       </defs>
       <use transform="scale(0.996264)" xlink:href="#CMSS17-48"/>
       <use transform="translate(46.843624 0)scale(0.996264)" xlink:href="#CMSS17-46"/>
       <use transform="translate(72.867828 0)scale(0.996264)" xlink:href="#CMSS17-48"/>
       <use transform="translate(119.711452 0)scale(0.996264)" xlink:href="#CMMI12-26"/>
       <use transform="translate(170.025825 -14.943915)scale(0.697382)" xlink:href="#CMR17-48"/>
       <use transform="translate(202.009007 -14.943915)scale(0.697382)" xlink:href="#CMMI12-59"/>
       <use transform="translate(220.97694 -14.943915)scale(0.697382)" xlink:href="#CMMI12-114"/>
       <use transform="translate(253.646208 -14.943915)scale(0.697382)" xlink:href="#CMMI12-101"/>
       <use transform="translate(285.294465 -14.943915)scale(0.697382)" xlink:href="#CMMI12-108"/>
      </g>
     </g>
    </g>
    <g id="ytick_2">
     <g id="line2d_6">
      <g>
       <use style="stroke:#000000;stroke-width:0.8;" x="48.631277" xlink:href="#mdba2599e21" y="259.232678"/>
      </g>
     </g>
     <g id="text_6">
      <!-- 0.2$\rho_{0,rel}$ -->
      <g transform="translate(7.2 262.498211)scale(0.1 -0.1)">
       <defs>
        <path d="M 25.796875 21.140625 
C 28.59375 24.03125 32.796875 27.515625 35.703125 31 
C 38.5 34.390625 42.203125 39.171875 42.203125 46.140625 
C 42.203125 57.109375 34.796875 67 22.203125 67 
C 12.296875 67 6.59375 60.796875 3.90625 51.125 
L 7.796875 45.75 
C 10 54.8125 13.09375 60.59375 20.90625 60.59375 
C 29.5 60.59375 34.296875 53.609375 34.296875 45.9375 
C 34.296875 36.78125 27.296875 29.703125 22 24.421875 
C 16.09375 18.546875 10.296875 12.578125 4.703125 6.390625 
L 4.703125 0 
L 42.203125 0 
L 42.203125 6.796875 
L 25.203125 6.796875 
C 24 6.796875 22.796875 6.6875 21.59375 6.6875 
L 11.59375 6.6875 
L 11.59375 6.796875 
z
" id="CMSS17-50"/>
       </defs>
       <use transform="scale(0.996264)" xlink:href="#CMSS17-48"/>
       <use transform="translate(46.843624 0)scale(0.996264)" xlink:href="#CMSS17-46"/>
       <use transform="translate(72.867828 0)scale(0.996264)" xlink:href="#CMSS17-50"/>
       <use transform="translate(119.711452 0)scale(0.996264)" xlink:href="#CMMI12-26"/>
       <use transform="translate(170.025825 -14.943915)scale(0.697382)" xlink:href="#CMR17-48"/>
       <use transform="translate(202.009007 -14.943915)scale(0.697382)" xlink:href="#CMMI12-59"/>
       <use transform="translate(220.97694 -14.943915)scale(0.697382)" xlink:href="#CMMI12-114"/>
       <use transform="translate(253.646208 -14.943915)scale(0.697382)" xlink:href="#CMMI12-101"/>
       <use transform="translate(285.294465 -14.943915)scale(0.697382)" xlink:href="#CMMI12-108"/>
      </g>
     </g>
    </g>
    <g id="ytick_3">
     <g id="line2d_7">
      <g>
       <use style="stroke:#000000;stroke-width:0.8;" x="48.631277" xlink:href="#mdba2599e21" y="199.930872"/>
      </g>
     </g>
     <g id="text_7">
      <!-- 0.4$\rho_{0,rel}$ -->
      <g transform="translate(7.2 203.196405)scale(0.1 -0.1)">
       <defs>
        <path d="M 35.203125 17 
L 44.296875 17 
L 44.296875 23.09375 
L 35.203125 23.09375 
L 35.203125 66 
L 26.40625 66 
L 2.59375 23.09375 
L 2.59375 17 
L 27.296875 17 
L 27.296875 0 
L 35.203125 0 
z
M 10.296875 23.09375 
C 16.09375 33.421875 27.59375 54.28125 27.59375 61.359375 
L 27.59375 23.09375 
z
" id="CMSS17-52"/>
       </defs>
       <use transform="scale(0.996264)" xlink:href="#CMSS17-48"/>
       <use transform="translate(46.843624 0)scale(0.996264)" xlink:href="#CMSS17-46"/>
       <use transform="translate(72.867828 0)scale(0.996264)" xlink:href="#CMSS17-52"/>
       <use transform="translate(119.711452 0)scale(0.996264)" xlink:href="#CMMI12-26"/>
       <use transform="translate(170.025825 -14.943915)scale(0.697382)" xlink:href="#CMR17-48"/>
       <use transform="translate(202.009007 -14.943915)scale(0.697382)" xlink:href="#CMMI12-59"/>
       <use transform="translate(220.97694 -14.943915)scale(0.697382)" xlink:href="#CMMI12-114"/>
       <use transform="translate(253.646208 -14.943915)scale(0.697382)" xlink:href="#CMMI12-101"/>
       <use transform="translate(285.294465 -14.943915)scale(0.697382)" xlink:href="#CMMI12-108"/>
      </g>
     </g>
    </g>
    <g id="ytick_4">
     <g id="line2d_8">
      <g>
       <use style="stroke:#000000;stroke-width:0.8;" x="48.631277" xlink:href="#mdba2599e21" y="140.629066"/>
      </g>
     </g>
     <g id="text_8">
      <!-- 0.6$\rho_{0,rel}$ -->
      <g transform="translate(7.2 143.894599)scale(0.1 -0.1)">
       <defs>
        <path d="M 39 64.984375 
C 34.796875 66.6875 31.796875 67 29 67 
C 16 67 3.90625 53.25 3.90625 31.609375 
C 3.90625 4.1875 15.40625 -2 23.59375 -2 
C 28.09375 -2 32.59375 -0.609375 36.90625 4.390625 
C 41.296875 9.671875 43 14.0625 43 21.75 
C 43 34.109375 36.90625 45.09375 27.796875 45.09375 
C 21.203125 45.09375 15.5 41.59375 12 37.203125 
C 13 51.40625 19.59375 60.890625 29.09375 60.890625 
C 31.703125 60.890625 35.09375 60.484375 39 58.75 
z
M 12.09375 21.4375 
C 12.09375 22.234375 12.09375 22.734375 12.203125 24.234375 
C 12.203125 32.015625 16.703125 39 24 39 
C 28.703125 39 31.09375 36.5 32.90625 33.40625 
C 35 29.515625 35.09375 25.828125 35.09375 21.75 
C 35.09375 17.859375 35.09375 13.96875 32.796875 9.96875 
C 30.90625 6.890625 28.40625 4.1875 23.59375 4.1875 
C 14.09375 4.1875 12.5 17.453125 12.09375 21.4375 
z
" id="CMSS17-54"/>
       </defs>
       <use transform="scale(0.996264)" xlink:href="#CMSS17-48"/>
       <use transform="translate(46.843624 0)scale(0.996264)" xlink:href="#CMSS17-46"/>
       <use transform="translate(72.867828 0)scale(0.996264)" xlink:href="#CMSS17-54"/>
       <use transform="translate(119.711452 0)scale(0.996264)" xlink:href="#CMMI12-26"/>
       <use transform="translate(170.025825 -14.943915)scale(0.697382)" xlink:href="#CMR17-48"/>
       <use transform="translate(202.009007 -14.943915)scale(0.697382)" xlink:href="#CMMI12-59"/>
       <use transform="translate(220.97694 -14.943915)scale(0.697382)" xlink:href="#CMMI12-114"/>
       <use transform="translate(253.646208 -14.943915)scale(0.697382)" xlink:href="#CMMI12-101"/>
       <use transform="translate(285.294465 -14.943915)scale(0.697382)" xlink:href="#CMMI12-108"/>
      </g>
     </g>
    </g>
    <g id="ytick_5">
     <g id="line2d_9">
      <g>
       <use style="stroke:#000000;stroke-width:0.8;" x="48.631277" xlink:href="#mdba2599e21" y="81.32726"/>
      </g>
     </g>
     <g id="text_9">
      <!-- 0.8$\rho_{0,rel}$ -->
      <g transform="translate(7.2 84.592793)scale(0.1 -0.1)">
       <defs>
        <path d="M 30.203125 35.09375 
C 37.796875 37.59375 41.703125 43.640625 41.703125 49.59375 
C 41.703125 58.96875 33.703125 67 23.5 67 
C 12.90625 67 5.203125 58.671875 5.203125 49.59375 
C 5.203125 43.734375 9 37.6875 16.703125 35.09375 
C 6.90625 31.296875 3.90625 23.6875 3.90625 18 
C 3.90625 7 12.796875 -2 23.40625 -2 
C 34.40625 -2 43 7.1875 43 18 
C 43 24.59375 39.09375 31.59375 30.203125 35.09375 
z
M 23.5 38.09375 
C 16.796875 38.09375 12.296875 42.625 12.296875 49.484375 
C 12.296875 56.453125 16.796875 60.890625 23.5 60.890625 
C 29.703125 60.890625 34.59375 56.859375 34.59375 49.484375 
C 34.59375 42.234375 29.796875 38.09375 23.5 38.09375 
z
M 23.5 4.1875 
C 17.796875 4.1875 11.703125 8.09375 11.703125 18.09375 
C 11.703125 28.390625 18.5 32 23.40625 32 
C 28.796875 32 35.203125 28.1875 35.203125 18.09375 
C 35.203125 7.6875 28.59375 4.1875 23.5 4.1875 
z
" id="CMSS17-56"/>
       </defs>
       <use transform="scale(0.996264)" xlink:href="#CMSS17-48"/>
       <use transform="translate(46.843624 0)scale(0.996264)" xlink:href="#CMSS17-46"/>
       <use transform="translate(72.867828 0)scale(0.996264)" xlink:href="#CMSS17-56"/>
       <use transform="translate(119.711452 0)scale(0.996264)" xlink:href="#CMMI12-26"/>
       <use transform="translate(170.025825 -14.943915)scale(0.697382)" xlink:href="#CMR17-48"/>
       <use transform="translate(202.009007 -14.943915)scale(0.697382)" xlink:href="#CMMI12-59"/>
       <use transform="translate(220.97694 -14.943915)scale(0.697382)" xlink:href="#CMMI12-114"/>
       <use transform="translate(253.646208 -14.943915)scale(0.697382)" xlink:href="#CMMI12-101"/>
       <use transform="translate(285.294465 -14.943915)scale(0.697382)" xlink:href="#CMMI12-108"/>
      </g>
     </g>
    </g>
    <g id="ytick_6">
     <g id="line2d_10">
      <g>
       <use style="stroke:#000000;stroke-width:0.8;" x="48.631277" xlink:href="#mdba2599e21" y="22.025455"/>
      </g>
     </g>
     <g id="text_10">
      <!-- 1.0$\rho_{0,rel}$ -->
      <g transform="translate(7.2 25.290987)scale(0.1 -0.1)">
       <use transform="scale(0.996264)" xlink:href="#CMSS17-49"/>
       <use transform="translate(46.843624 0)scale(0.996264)" xlink:href="#CMSS17-46"/>
       <use transform="translate(72.867828 0)scale(0.996264)" xlink:href="#CMSS17-48"/>
       <use transform="translate(119.711452 0)scale(0.996264)" xlink:href="#CMMI12-26"/>
       <use transform="translate(170.025825 -14.943915)scale(0.697382)" xlink:href="#CMR17-48"/>
       <use transform="translate(202.009007 -14.943915)scale(0.697382)" xlink:href="#CMMI12-59"/>
       <use transform="translate(220.97694 -14.943915)scale(0.697382)" xlink:href="#CMMI12-114"/>
       <use transform="translate(253.646208 -14.943915)scale(0.697382)" xlink:href="#CMMI12-101"/>
       <use transform="translate(285.294465 -14.943915)scale(0.697382)" xlink:href="#CMMI12-108"/>
      </g>
     </g>
    </g>
   </g>
   <g id="line2d_11">
    <path clip-path="url(#p73ecc16938)" d="M 68.922186 318.534545 
L 474.700192 22.054803 
L 474.700192 22.054803 
" style="fill:none;stroke:#000000;stroke-linecap:square;stroke-width:1.5;"/>
   </g>
   <g id="line2d_12">
    <path clip-path="url(#p73ecc16938)" d="M 68.922186 318.534513 
L 95.706213 296.968738 
L 122.449658 275.720876 
L 149.152521 254.788862 
L 175.814802 234.170613 
L 202.436501 213.864031 
L 229.058201 193.836681 
L 255.639318 174.117588 
L 282.220436 154.675115 
L 308.760971 135.537389 
L 335.301507 116.673561 
L 361.801461 98.110862 
L 388.301415 79.819218 
L 414.801368 61.797573 
L 441.26074 44.071813 
L 467.720112 26.613001 
L 474.700192 22.051655 
L 474.700192 22.051655 
" style="fill:none;stroke:#008080;stroke-linecap:square;stroke-width:1.5;"/>
   </g>
   <g id="line2d_13">
    <path clip-path="url(#p73ecc16938)" d="M 68.922186 318.534484 
L 88.888461 301.080578 
L 108.773571 283.992391 
L 128.577518 267.266321 
L 148.300302 250.898781 
L 167.982503 234.853411 
L 187.583541 219.160621 
L 207.103415 203.81686 
L 226.542126 188.818591 
L 245.940254 174.13186 
L 265.257219 159.784758 
L 284.533602 145.744518 
L 303.728821 132.038079 
L 322.842876 118.661964 
L 341.91635 105.585176 
L 360.90866 92.832945 
L 379.860388 80.375443 
L 398.730952 68.23677 
L 417.560935 56.388256 
L 436.309753 44.852878 
L 455.01799 33.603121 
L 473.645064 22.660844 
L 474.700192 22.048745 
L 474.700192 22.048745 
" style="fill:none;stroke:#ff8c00;stroke-linecap:square;stroke-width:1.5;"/>
   </g>
   <g id="line2d_14">
    <path clip-path="url(#p73ecc16938)" d="M 72.979966 35.241435 
L 81.179158 32.123909 
L 89.37835 30.667816 
L 97.577542 29.70556 
L 105.776734 28.985062 
L 113.975926 28.408615 
L 122.175117 27.927942 
L 130.374309 27.515608 
L 138.573501 27.154513 
L 146.772693 26.833275 
L 154.971885 26.543931 
L 163.171077 26.280692 
L 171.370269 26.039217 
L 179.56946 25.816166 
L 187.768652 25.608916 
L 195.967844 25.415364 
L 204.167036 25.233806 
L 212.366228 25.062834 
L 220.56542 24.901277 
L 228.764612 24.748147 
L 236.963804 24.602605 
L 245.162995 24.463931 
L 253.362187 24.331503 
L 261.561379 24.20478 
L 269.760571 24.083288 
L 277.959763 23.966612 
L 286.158955 23.854381 
L 294.358147 23.746268 
L 302.557339 23.641981 
L 310.75653 23.541255 
L 318.955722 23.443856 
L 327.154914 23.34957 
L 335.354106 23.258202 
L 343.553298 23.169576 
L 351.75249 23.083533 
L 359.951682 22.999924 
L 368.150874 22.918616 
L 376.350065 22.839485 
L 384.549257 22.762416 
L 392.748449 22.687304 
L 400.947641 22.614052 
L 409.146833 22.54257 
L 417.346025 22.472774 
L 425.545217 22.404585 
L 433.744409 22.337931 
L 441.9436 22.272744 
L 450.142792 22.20896 
L 458.341984 22.146521 
L 466.541176 22.08537 
L 474.740368 22.025455 
" style="fill:none;stroke:#000000;stroke-dasharray:5.55,2.4;stroke-dashoffset:0;stroke-width:1.5;"/>
   </g>
   <g id="line2d_15">
    <path clip-path="url(#p73ecc16938)" d="M 72.979966 254.653831 
L 81.179158 226.194036 
L 89.37835 209.003417 
L 97.577542 195.97963 
L 105.776734 185.256446 
L 113.975926 176.026795 
L 122.175117 167.859075 
L 130.374309 160.492161 
L 138.573501 153.754619 
L 146.772693 147.527126 
L 154.971885 141.722896 
L 163.171077 136.276601 
L 171.370269 131.13769 
L 179.56946 126.266149 
L 187.768652 121.629701 
L 195.967844 117.201884 
L 204.167036 112.960702 
L 212.366228 108.88765 
L 220.56542 104.966995 
L 228.764612 101.185236 
L 236.963804 97.530688 
L 245.162995 93.993165 
L 253.362187 90.563725 
L 261.561379 87.234474 
L 269.760571 83.998398 
L 277.959763 80.849242 
L 286.158955 77.781393 
L 294.358147 74.789798 
L 302.557339 71.869888 
L 310.75653 69.017518 
L 318.955722 66.228912 
L 327.154914 63.500622 
L 335.354106 60.829488 
L 343.553298 58.212609 
L 351.75249 55.647309 
L 359.951682 53.131121 
L 368.150874 50.66176 
L 376.350065 48.237105 
L 384.549257 45.855186 
L 392.748449 43.514169 
L 400.947641 41.212342 
L 409.146833 38.948105 
L 417.346025 36.719959 
L 425.545217 34.5265 
L 433.744409 32.366409 
L 441.9436 30.238445 
L 450.142792 28.141439 
L 458.341984 26.07429 
L 466.541176 24.035956 
L 474.740368 22.025455 
" style="fill:none;stroke:#008080;stroke-dasharray:5.55,2.4;stroke-dashoffset:0;stroke-width:1.5;"/>
   </g>
   <g id="line2d_16">
    <path clip-path="url(#p73ecc16938)" d="M 72.979966 307.482177 
L 81.179158 294.192013 
L 89.37835 283.439187 
L 97.577542 273.886032 
L 105.776734 265.094426 
L 113.975926 256.849309 
L 122.175117 249.024554 
L 130.374309 241.538054 
L 138.573501 234.332513 
L 146.772693 227.365912 
L 154.971885 220.606253 
L 163.171077 214.028448 
L 171.370269 207.612353 
L 179.56946 201.341483 
L 187.768652 195.202119 
L 195.967844 189.182693 
L 204.167036 183.27333 
L 212.366228 177.465515 
L 220.56542 171.751835 
L 228.764612 166.125793 
L 236.963804 160.581644 
L 245.162995 155.114283 
L 253.362187 149.719143 
L 261.561379 144.392121 
L 269.760571 139.129509 
L 277.959763 133.927943 
L 286.158955 128.784362 
L 294.358147 123.695964 
L 302.557339 118.660182 
L 310.75653 113.674653 
L 318.955722 108.737195 
L 327.154914 103.84579 
L 335.354106 98.998567 
L 343.553298 94.193784 
L 351.75249 89.429819 
L 359.951682 84.705156 
L 368.150874 80.018378 
L 376.350065 75.368153 
L 384.549257 70.753233 
L 392.748449 66.172444 
L 400.947641 61.624677 
L 409.146833 57.108888 
L 417.346025 52.624089 
L 425.545217 48.169346 
L 433.744409 43.743773 
L 441.9436 39.346529 
L 450.142792 34.976816 
L 458.341984 30.633876 
L 466.541176 26.316985 
L 474.740368 22.025455 
" style="fill:none;stroke:#ff8c00;stroke-dasharray:5.55,2.4;stroke-dashoffset:0;stroke-width:1.5;"/>
   </g>
   <g id="patch_3">
    <path d="M 48.631277 333.36 
L 48.631277 7.2 
" style="fill:none;stroke:#000000;stroke-linecap:square;stroke-linejoin:miter;stroke-width:0.8;"/>
   </g>
   <g id="patch_4">
    <path d="M 495.031277 333.36 
L 495.031277 7.2 
" style="fill:none;stroke:#000000;stroke-linecap:square;stroke-linejoin:miter;stroke-width:0.8;"/>
   </g>
   <g id="patch_5">
    <path d="M 48.631277 333.36 
L 495.031277 333.36 
" style="fill:none;stroke:#000000;stroke-linecap:square;stroke-linejoin:miter;stroke-width:0.8;"/>
   </g>
   <g id="patch_6">
    <path d="M 48.631277 7.2 
L 495.031277 7.2 
" style="fill:none;stroke:#000000;stroke-linecap:square;stroke-linejoin:miter;stroke-width:0.8;"/>
   </g>
   <g id="legend_1">
    <g id="patch_7">
     <path d="M 371.65991 328.36 
L 488.031277 328.36 
Q 490.031277 328.36 490.031277 326.36 
L 490.031277 236.825415 
Q 490.031277 234.825415 488.031277 234.825415 
L 371.65991 234.825415 
Q 369.65991 234.825415 369.65991 236.825415 
L 369.65991 326.36 
Q 369.65991 328.36 371.65991 328.36 
z
" style="fill:#ffffff;opacity:0.8;stroke:#cccccc;stroke-linejoin:miter;"/>
    </g>
    <g id="line2d_17">
     <path d="M 373.65991 242.923852 
L 393.65991 242.923852 
" style="fill:none;stroke:#000000;stroke-linecap:square;stroke-width:1.5;"/>
    </g>
    <g id="line2d_18"/>
    <g id="text_11">
     <!-- $\rho(p)_{rel}$ for $A=$1 -->
     <g transform="translate(401.65991 246.423852)scale(0.1 -0.1)">
      <defs>
       <path d="M 30.59375 -24.40625 
C 30.59375 -24.3125 30.59375 -24.109375 30.296875 -23.8125 
C 25.703125 -19.109375 13.40625 -6.296875 13.40625 24.9375 
C 13.40625 56.171875 25.5 68.875 30.40625 73.890625 
C 30.40625 73.984375 30.59375 74.1875 30.59375 74.484375 
C 30.59375 74.796875 30.296875 75 29.90625 75 
C 28.796875 75 20.296875 67.578125 15.40625 56.5625 
C 10.40625 45.453125 9 34.65625 9 25.046875 
C 9 17.828125 9.703125 5.625 15.703125 -7.296875 
C 20.5 -17.703125 28.703125 -25 29.90625 -25 
C 30.40625 -25 30.59375 -24.8125 30.59375 -24.40625 
z
" id="CMR17-40"/>
       <path d="M 26.296875 24.9375 
C 26.296875 32.140625 25.59375 44.359375 19.59375 57.265625 
C 14.796875 67.6875 6.59375 75 5.40625 75 
C 5.09375 75 4.703125 74.890625 4.703125 74.390625 
C 4.703125 74.1875 4.796875 74.09375 4.90625 73.890625 
C 9.703125 68.875 21.90625 56.171875 21.90625 25.046875 
C 21.90625 -6.1875 9.796875 -18.90625 4.90625 -23.90625 
C 4.796875 -24.109375 4.703125 -24.203125 4.703125 -24.40625 
C 4.703125 -24.90625 5.09375 -25 5.40625 -25 
C 6.5 -25 15 -17.609375 19.90625 -6.59375 
C 24.90625 4.515625 26.296875 15.328125 26.296875 24.9375 
z
" id="CMR17-41"/>
       <path d="M 16.796875 37.1875 
L 26.90625 37.1875 
L 26.90625 43 
L 16.59375 43 
L 16.59375 55.671875 
C 16.59375 62.703125 22 63.890625 25.09375 63.890625 
C 26.09375 63.890625 28.90625 63.890625 32.5 62.609375 
L 32.5 69.1875 
C 30.203125 69.6875 27.40625 70 25.203125 70 
C 15.90625 70 9.40625 62.40625 9.40625 52.59375 
L 9.40625 43 
L 2.5 43 
L 2.5 37.1875 
L 9.40625 37.1875 
L 9.40625 0 
L 16.796875 0 
z
" id="CMSS17-102"/>
       <path d="M 44.203125 21.1875 
C 44.203125 33.984375 34.703125 44 23.5 44 
C 12 44 2.703125 33.6875 2.703125 21.1875 
C 2.703125 8.5 12.296875 -1 23.40625 -1 
C 34.796875 -1 44.203125 8.796875 44.203125 21.1875 
z
M 23.5 5.296875 
C 16.40625 5.296875 10.296875 11.09375 10.296875 21.984375 
C 10.296875 33.59375 17.40625 37.890625 23.40625 37.890625 
C 29.90625 37.890625 36.59375 33.1875 36.59375 21.984375 
C 36.59375 10.6875 30.09375 5.296875 23.5 5.296875 
z
" id="CMSS17-111"/>
       <path d="M 14.90625 21.390625 
C 14.90625 30.84375 21.796875 37.171875 30.59375 37.375 
L 30.59375 44 
C 24.203125 43.890625 18.203125 40.6875 14.59375 35.46875 
L 14.59375 43.484375 
L 7.5 43.484375 
L 7.5 0 
L 14.90625 0 
z
" id="CMSS17-114"/>
       <path d="M 17 11.25 
C 13.5 5.234375 10.09375 3.203125 5.296875 2.890625 
C 4.203125 2.796875 3.40625 2.796875 3.40625 1 
C 3.40625 0.390625 3.90625 0 4.59375 0 
C 6.40625 0 10.90625 0.1875 12.703125 0.1875 
C 15.59375 0.1875 18.796875 0 21.59375 0 
C 22.203125 0 23.40625 0 23.40625 1.890625 
C 23.40625 2.796875 22.59375 2.890625 22 2.890625 
C 19.703125 3.09375 17.796875 3.90625 17.796875 6.359375 
C 17.796875 7.78125 18.40625 8.90625 19.703125 11.15625 
L 27.296875 24 
L 52.796875 24 
C 52.90625 23.078125 52.90625 22.265625 53 21.34375 
C 53.296875 18.6875 54.5 8.09375 54.5 6.15625 
C 54.5 3.09375 49.40625 2.890625 47.796875 2.890625 
C 46.703125 2.890625 45.59375 2.890625 45.59375 1.09375 
C 45.59375 0 46.5 0 47.09375 0 
C 48.796875 0 50.796875 0.1875 52.5 0.1875 
L 58.203125 0.1875 
C 64.296875 0.1875 68.703125 0 68.796875 0 
C 69.5 0 70.59375 0 70.59375 1.890625 
C 70.59375 2.890625 69.703125 2.890625 68.203125 2.890625 
C 62.703125 2.890625 62.59375 3.8125 62.296875 6.875 
L 56.203125 68.796875 
C 56 70.796875 55.59375 71 54.5 71 
C 53.5 71 52.90625 70.796875 52 69.296875 
z
M 29 26.890625 
L 49.09375 59.859375 
L 52.5 26.890625 
z
" id="CMMI12-65"/>
       <path d="M 64.296875 32 
C 65.796875 32 67.296875 32 67.296875 33.6875 
C 67.296875 35.5 65.59375 35.5 63.90625 35.5 
L 8 35.5 
C 6.296875 35.5 4.59375 35.5 4.59375 33.6875 
C 4.59375 32 6.09375 32 7.59375 32 
z
M 63.90625 14.484375 
C 65.59375 14.484375 67.296875 14.484375 67.296875 16.296875 
C 67.296875 18 65.796875 18 64.296875 18 
L 7.59375 18 
C 6.09375 18 4.59375 18 4.59375 16.296875 
C 4.59375 14.484375 6.296875 14.484375 8 14.484375 
z
" id="CMR17-61"/>
      </defs>
      <use transform="scale(0.996264)" xlink:href="#CMMI12-26"/>
      <use transform="translate(50.314373 0)scale(0.996264)" xlink:href="#CMR17-40"/>
      <use transform="translate(85.595141 0)scale(0.996264)" xlink:href="#CMMI12-112"/>
      <use transform="translate(134.554655 0)scale(0.996264)" xlink:href="#CMR17-41"/>
      <use transform="translate(169.835422 -14.943915)scale(0.697382)" xlink:href="#CMMI12-114"/>
      <use transform="translate(202.504691 -14.943915)scale(0.697382)" xlink:href="#CMMI12-101"/>
      <use transform="translate(234.152948 -14.943915)scale(0.697382)" xlink:href="#CMMI12-108"/>
      <use transform="translate(287.753976 0)scale(0.996264)" xlink:href="#CMSS17-102"/>
      <use transform="translate(316.380635 0)scale(0.996264)" xlink:href="#CMSS17-111"/>
      <use transform="translate(360.621805 0)scale(0.996264)" xlink:href="#CMSS17-114"/>
      <use transform="translate(423.76069 0)scale(0.996264)" xlink:href="#CMMI12-65"/>
      <use transform="translate(524.562584 0)scale(0.996264)" xlink:href="#CMR17-61"/>
      <use transform="translate(596.277372 0)scale(0.996264)" xlink:href="#CMSS17-49"/>
     </g>
    </g>
    <g id="line2d_19">
     <path d="M 373.65991 258.01295 
L 393.65991 258.01295 
" style="fill:none;stroke:#008080;stroke-linecap:square;stroke-width:1.5;"/>
    </g>
    <g id="line2d_20"/>
    <g id="text_12">
     <!-- $\rho(p)_{rel}$ for $A=$50 -->
     <g transform="translate(401.65991 261.51295)scale(0.1 -0.1)">
      <defs>
       <path d="M 14.59375 59.59375 
L 39.09375 59.59375 
L 39.09375 66 
L 7.296875 66 
L 7.296875 28.59375 
L 14 28.59375 
C 15.796875 32.859375 19.5 36 24.296875 36 
C 28.796875 36 33.796875 31.9375 33.796875 20.296875 
C 33.796875 7.84375 26.703125 4.1875 21.5 4.1875 
C 15.09375 4.1875 9.203125 8.140625 6.59375 13.609375 
L 3.40625 7.9375 
C 8 0.796875 15.5 -2 21.5 -2 
C 33.09375 -2 42.203125 7.9375 42.203125 20.09375 
C 42.203125 32.546875 34.09375 42.09375 24.40625 42.09375 
C 20.90625 42.09375 17.5 40.890625 14.59375 38.5 
z
" id="CMSS17-53"/>
      </defs>
      <use transform="scale(0.996264)" xlink:href="#CMMI12-26"/>
      <use transform="translate(50.314373 0)scale(0.996264)" xlink:href="#CMR17-40"/>
      <use transform="translate(85.595141 0)scale(0.996264)" xlink:href="#CMMI12-112"/>
      <use transform="translate(134.554655 0)scale(0.996264)" xlink:href="#CMR17-41"/>
      <use transform="translate(169.835422 -14.943915)scale(0.697382)" xlink:href="#CMMI12-114"/>
      <use transform="translate(202.504691 -14.943915)scale(0.697382)" xlink:href="#CMMI12-101"/>
      <use transform="translate(234.152948 -14.943915)scale(0.697382)" xlink:href="#CMMI12-108"/>
      <use transform="translate(287.753976 0)scale(0.996264)" xlink:href="#CMSS17-102"/>
      <use transform="translate(316.380635 0)scale(0.996264)" xlink:href="#CMSS17-111"/>
      <use transform="translate(360.621805 0)scale(0.996264)" xlink:href="#CMSS17-114"/>
      <use transform="translate(423.76069 0)scale(0.996264)" xlink:href="#CMMI12-65"/>
      <use transform="translate(524.562584 0)scale(0.996264)" xlink:href="#CMR17-61"/>
      <use transform="translate(596.277372 0)scale(0.996264)" xlink:href="#CMSS17-53"/>
      <use transform="translate(643.120996 0)scale(0.996264)" xlink:href="#CMSS17-48"/>
     </g>
    </g>
    <g id="line2d_21">
     <path d="M 373.65991 273.102047 
L 393.65991 273.102047 
" style="fill:none;stroke:#ff8c00;stroke-linecap:square;stroke-width:1.5;"/>
    </g>
    <g id="line2d_22"/>
    <g id="text_13">
     <!-- $\rho(p)_{rel}$ for $A=$2500 -->
     <g transform="translate(401.65991 276.602047)scale(0.1 -0.1)">
      <use transform="scale(0.996264)" xlink:href="#CMMI12-26"/>
      <use transform="translate(50.314373 0)scale(0.996264)" xlink:href="#CMR17-40"/>
      <use transform="translate(85.595141 0)scale(0.996264)" xlink:href="#CMMI12-112"/>
      <use transform="translate(134.554655 0)scale(0.996264)" xlink:href="#CMR17-41"/>
      <use transform="translate(169.835422 -14.943915)scale(0.697382)" xlink:href="#CMMI12-114"/>
      <use transform="translate(202.504691 -14.943915)scale(0.697382)" xlink:href="#CMMI12-101"/>
      <use transform="translate(234.152948 -14.943915)scale(0.697382)" xlink:href="#CMMI12-108"/>
      <use transform="translate(287.753976 0)scale(0.996264)" xlink:href="#CMSS17-102"/>
      <use transform="translate(316.380635 0)scale(0.996264)" xlink:href="#CMSS17-111"/>
      <use transform="translate(360.621805 0)scale(0.996264)" xlink:href="#CMSS17-114"/>
      <use transform="translate(423.76069 0)scale(0.996264)" xlink:href="#CMMI12-65"/>
      <use transform="translate(524.562584 0)scale(0.996264)" xlink:href="#CMR17-61"/>
      <use transform="translate(596.277372 0)scale(0.996264)" xlink:href="#CMSS17-50"/>
      <use transform="translate(643.120996 0)scale(0.996264)" xlink:href="#CMSS17-53"/>
      <use transform="translate(689.964619 0)scale(0.996264)" xlink:href="#CMSS17-48"/>
      <use transform="translate(736.808243 0)scale(0.996264)" xlink:href="#CMSS17-48"/>
     </g>
    </g>
    <g id="line2d_23">
     <path d="M 373.65991 288.191145 
L 393.65991 288.191145 
" style="fill:none;stroke:#000000;stroke-dasharray:5.55,2.4;stroke-dashoffset:0;stroke-width:1.5;"/>
    </g>
    <g id="line2d_24"/>
    <g id="text_14">
     <!-- $\rho(p)_{cla}$ for $n=$0.01 -->
     <g transform="translate(401.65991 291.691145)scale(0.1 -0.1)">
      <defs>
       <path d="M 39.09375 38 
C 37.203125 38 36.296875 38 34.90625 36.796875 
C 34.296875 36.296875 33.203125 34.796875 33.203125 33.1875 
C 33.203125 31.1875 34.703125 29.984375 36.59375 29.984375 
C 39 29.984375 41.703125 31.984375 41.703125 35.984375 
C 41.703125 40.484375 37.09375 44 30.203125 44 
C 17.09375 44 4 30.1875 4 15.796875 
C 4 6.96875 9.40625 -1 19.59375 -1 
C 33.203125 -1 41.796875 9.71875 41.796875 11.03125 
C 41.796875 11.640625 41.203125 12.140625 40.796875 12.140625 
C 40.5 12.140625 40.40625 12.046875 39.5 11.125 
C 33.09375 2.515625 23.59375 1 19.796875 1 
C 12.90625 1 10.703125 7.078125 10.703125 12.140625 
C 10.703125 15.6875 12.40625 25.53125 16 32.390625 
C 18.59375 37.09375 24 41.984375 30.296875 41.984375 
C 31.59375 41.984375 37.09375 41.8125 39.09375 38 
z
" id="CMMI12-99"/>
       <path d="M 30.09375 11.859375 
C 29.59375 10.171875 29.59375 9.96875 28.203125 8.078125 
C 26 5.28125 21.59375 1 16.90625 1 
C 12.796875 1 10.5 4.6875 10.5 10.5625 
C 10.5 16.0625 13.59375 27.234375 15.5 31.421875 
C 18.90625 38.40625 23.59375 41.984375 27.5 41.984375 
C 34.09375 41.984375 35.40625 33.8125 35.40625 33.015625 
C 35.40625 32.921875 35.09375 31.625 35 31.421875 
z
M 36.5 37.40625 
C 35.40625 40 32.703125 44 27.5 44 
C 16.203125 44 4 29.421875 4 14.65625 
C 4 4.78125 9.796875 -1 16.59375 -1 
C 22.09375 -1 26.796875 3.28125 29.59375 6.578125 
C 30.59375 0.6875 35.296875 -1 38.296875 -1 
C 41.296875 -1 43.703125 0.796875 45.5 4.375 
C 47.09375 7.75 48.5 13.828125 48.5 14.21875 
C 48.5 14.71875 48.09375 15.125 47.5 15.125 
C 46.59375 15.125 46.5 14.625 46.09375 13.125 
C 44.59375 7.265625 42.703125 1 38.59375 1 
C 35.703125 1 35.5 3.578125 35.5 5.5625 
C 35.5 7.859375 35.796875 8.953125 36.703125 12.828125 
C 37.40625 15.3125 37.90625 17.5 38.703125 20.390625 
C 42.40625 35.3125 43.296875 38.890625 43.296875 39.5 
C 43.296875 40.890625 42.203125 42 40.703125 42 
C 37.5 42 36.703125 38.5 36.5 37.3125 
z
" id="CMMI12-97"/>
       <path d="M 20.59375 29.21875 
C 20.796875 29.828125 23.296875 34.8125 27 38 
C 29.59375 40.390625 33 41.984375 36.90625 41.984375 
C 40.90625 41.984375 42.296875 39 42.296875 35.015625 
C 42.296875 29.328125 38.203125 17.953125 36.203125 12.5625 
C 35.296875 10.171875 34.796875 8.875 34.796875 7.078125 
C 34.796875 2.59375 37.90625 -1 42.703125 -1 
C 52 -1 55.5 13.65625 55.5 14.265625 
C 55.5 14.765625 55.09375 15.15625 54.5 15.15625 
C 53.59375 15.15625 53.5 14.859375 53 13.15625 
C 50.703125 4.984375 46.90625 1 43 1 
C 42 1 40.40625 1.09375 40.40625 4.28125 
C 40.40625 6.78125 41.5 9.765625 42.09375 11.171875 
C 44.09375 16.65625 48.296875 27.828125 48.296875 33.515625 
C 48.296875 39.5 44.796875 44 37.203125 44 
C 28.296875 44 23.59375 37.703125 21.796875 35.203125 
C 21.5 40.890625 17.40625 44 13 44 
C 9.796875 44 7.59375 42.09375 5.90625 38.703125 
C 4.09375 35.109375 2.703125 29.125 2.703125 28.71875 
C 2.703125 28.328125 3.09375 27.828125 3.796875 27.828125 
C 4.59375 27.828125 4.703125 27.921875 5.296875 30.21875 
C 6.90625 36.3125 8.703125 41.984375 12.703125 41.984375 
C 15 41.984375 15.796875 40.390625 15.796875 37.40625 
C 15.796875 35.203125 14.796875 31.3125 14.09375 28.234375 
L 11.296875 17.453125 
C 10.90625 15.5625 9.796875 11.0625 9.296875 9.265625 
C 8.59375 6.671875 7.5 1.984375 7.5 1.484375 
C 7.5 0.09375 8.59375 -1 10.09375 -1 
C 11.296875 -1 12.703125 -0.40625 13.5 1.09375 
C 13.703125 1.59375 14.59375 5.078125 15.09375 7.078125 
L 17.296875 16.0625 
z
" id="CMMI12-110"/>
      </defs>
      <use transform="scale(0.996264)" xlink:href="#CMMI12-26"/>
      <use transform="translate(50.314373 0)scale(0.996264)" xlink:href="#CMR17-40"/>
      <use transform="translate(85.595141 0)scale(0.996264)" xlink:href="#CMMI12-112"/>
      <use transform="translate(134.554655 0)scale(0.996264)" xlink:href="#CMR17-41"/>
      <use transform="translate(169.835422 -14.943915)scale(0.697382)" xlink:href="#CMMI12-99"/>
      <use transform="translate(199.223554 -14.943915)scale(0.697382)" xlink:href="#CMMI12-108"/>
      <use transform="translate(221.097338 -14.943915)scale(0.697382)" xlink:href="#CMMI12-97"/>
      <use transform="translate(288.669929 0)scale(0.996264)" xlink:href="#CMSS17-102"/>
      <use transform="translate(317.296588 0)scale(0.996264)" xlink:href="#CMSS17-111"/>
      <use transform="translate(361.537758 0)scale(0.996264)" xlink:href="#CMSS17-114"/>
      <use transform="translate(424.676643 0)scale(0.996264)" xlink:href="#CMMI12-110"/>
      <use transform="translate(510.580699 0)scale(0.996264)" xlink:href="#CMR17-61"/>
      <use transform="translate(582.295487 0)scale(0.996264)" xlink:href="#CMSS17-48"/>
      <use transform="translate(629.139111 0)scale(0.996264)" xlink:href="#CMSS17-46"/>
      <use transform="translate(655.163316 0)scale(0.996264)" xlink:href="#CMSS17-48"/>
      <use transform="translate(702.006939 0)scale(0.996264)" xlink:href="#CMSS17-49"/>
     </g>
    </g>
    <g id="line2d_25">
     <path d="M 373.65991 303.280242 
L 393.65991 303.280242 
" style="fill:none;stroke:#008080;stroke-dasharray:5.55,2.4;stroke-dashoffset:0;stroke-width:1.5;"/>
    </g>
    <g id="line2d_26"/>
    <g id="text_15">
     <!-- $\rho(p)_{cla}$ for $n=$0.5 -->
     <g transform="translate(401.65991 306.780242)scale(0.1 -0.1)">
      <use transform="scale(0.996264)" xlink:href="#CMMI12-26"/>
      <use transform="translate(50.314373 0)scale(0.996264)" xlink:href="#CMR17-40"/>
      <use transform="translate(85.595141 0)scale(0.996264)" xlink:href="#CMMI12-112"/>
      <use transform="translate(134.554655 0)scale(0.996264)" xlink:href="#CMR17-41"/>
      <use transform="translate(169.835422 -14.943915)scale(0.697382)" xlink:href="#CMMI12-99"/>
      <use transform="translate(199.223554 -14.943915)scale(0.697382)" xlink:href="#CMMI12-108"/>
      <use transform="translate(221.097338 -14.943915)scale(0.697382)" xlink:href="#CMMI12-97"/>
      <use transform="translate(288.669929 0)scale(0.996264)" xlink:href="#CMSS17-102"/>
      <use transform="translate(317.296588 0)scale(0.996264)" xlink:href="#CMSS17-111"/>
      <use transform="translate(361.537758 0)scale(0.996264)" xlink:href="#CMSS17-114"/>
      <use transform="translate(424.676643 0)scale(0.996264)" xlink:href="#CMMI12-110"/>
      <use transform="translate(510.580699 0)scale(0.996264)" xlink:href="#CMR17-61"/>
      <use transform="translate(582.295487 0)scale(0.996264)" xlink:href="#CMSS17-48"/>
      <use transform="translate(629.139111 0)scale(0.996264)" xlink:href="#CMSS17-46"/>
      <use transform="translate(655.163316 0)scale(0.996264)" xlink:href="#CMSS17-53"/>
     </g>
    </g>
    <g id="line2d_27">
     <path d="M 373.65991 318.36934 
L 393.65991 318.36934 
" style="fill:none;stroke:#ff8c00;stroke-dasharray:5.55,2.4;stroke-dashoffset:0;stroke-width:1.5;"/>
    </g>
    <g id="line2d_28"/>
    <g id="text_16">
     <!-- $\rho(p)_{cla}$ for $n=$2.5 -->
     <g transform="translate(401.65991 321.86934)scale(0.1 -0.1)">
      <use transform="scale(0.996264)" xlink:href="#CMMI12-26"/>
      <use transform="translate(50.314373 0)scale(0.996264)" xlink:href="#CMR17-40"/>
      <use transform="translate(85.595141 0)scale(0.996264)" xlink:href="#CMMI12-112"/>
      <use transform="translate(134.554655 0)scale(0.996264)" xlink:href="#CMR17-41"/>
      <use transform="translate(169.835422 -14.943915)scale(0.697382)" xlink:href="#CMMI12-99"/>
      <use transform="translate(199.223554 -14.943915)scale(0.697382)" xlink:href="#CMMI12-108"/>
      <use transform="translate(221.097338 -14.943915)scale(0.697382)" xlink:href="#CMMI12-97"/>
      <use transform="translate(288.669929 0)scale(0.996264)" xlink:href="#CMSS17-102"/>
      <use transform="translate(317.296588 0)scale(0.996264)" xlink:href="#CMSS17-111"/>
      <use transform="translate(361.537758 0)scale(0.996264)" xlink:href="#CMSS17-114"/>
      <use transform="translate(424.676643 0)scale(0.996264)" xlink:href="#CMMI12-110"/>
      <use transform="translate(510.580699 0)scale(0.996264)" xlink:href="#CMR17-61"/>
      <use transform="translate(582.295487 0)scale(0.996264)" xlink:href="#CMSS17-50"/>
      <use transform="translate(629.139111 0)scale(0.996264)" xlink:href="#CMSS17-46"/>
      <use transform="translate(655.163316 0)scale(0.996264)" xlink:href="#CMSS17-53"/>
     </g>
    </g>
   </g>
  </g>
 </g>
 <defs>
  <clipPath id="p73ecc16938">
   <rect height="326.16" width="446.4" x="48.631277" y="7.2"/>
  </clipPath>
 </defs>
</svg>
