<?xml version="1.0" encoding="utf-8" standalone="no"?>
<!DOCTYPE svg PUBLIC "-//W3C//DTD SVG 1.1//EN"
  "http://www.w3.org/Graphics/SVG/1.1/DTD/svg11.dtd">
<svg height="287.074574pt" version="1.1" viewBox="0 0 394.748215 287.074574" width="394.748215pt" xmlns="http://www.w3.org/2000/svg" xmlns:xlink="http://www.w3.org/1999/xlink">
 <metadata>
  <rdf:RDF xmlns:cc="http://creativecommons.org/ns#" xmlns:dc="http://purl.org/dc/elements/1.1/" xmlns:rdf="http://www.w3.org/1999/02/22-rdf-syntax-ns#">
   <cc:Work>
    <dc:type rdf:resource="http://purl.org/dc/dcmitype/StillImage"/>
    <dc:date>2021-04-13T14:04:46.569088</dc:date>
    <dc:format>image/svg+xml</dc:format>
    <dc:creator>
     <cc:Agent>
      <dc:title>Matplotlib v3.4.1, https://matplotlib.org/</dc:title>
     </cc:Agent>
    </dc:creator>
   </cc:Work>
  </rdf:RDF>
 </metadata>
 <defs>
  <style type="text/css">*{stroke-linecap:butt;stroke-linejoin:round;}</style>
 </defs>
 <g id="figure_1">
  <g id="patch_1">
   <path d="M 0 287.074574 
L 394.748215 287.074574 
L 394.748215 0 
L 0 0 
z
" style="fill:#ffffff;"/>
  </g>
  <g id="axes_1">
   <g id="patch_2">
    <path d="M 36.052152 264.018898 
L 387.548215 264.018898 
L 387.548215 7.2 
L 36.052152 7.2 
z
" style="fill:#ffffff;"/>
   </g>
   <g id="matplotlib.axis_1">
    <g id="xtick_1">
     <g id="line2d_1">
      <defs>
       <path d="M 0 0 
L 0 3.5 
" id="mfbc8bf1c42" style="stroke:#000000;stroke-width:0.8;"/>
      </defs>
      <g>
       <use style="stroke:#000000;stroke-width:0.8;" x="52.029245" xlink:href="#mfbc8bf1c42" y="264.018898"/>
      </g>
     </g>
     <g id="text_1">
      <!-- 0.0$p_0$ -->
      <g transform="translate(41.172361 277.937396)scale(0.1 -0.1)">
       <defs>
        <path d="M 2688 2038 
C 2688 2430 2682 3099 2413 3613 
C 2176 4063 1798 4224 1466 4224 
C 1158 4224 768 4082 525 3620 
C 269 3137 243 2539 243 2038 
C 243 1671 250 1112 448 623 
C 723 -39 1216 -128 1466 -128 
C 1760 -128 2208 -7 2470 604 
C 2662 1048 2688 1568 2688 2038 
z
M 1466 -26 
C 1056 -26 813 328 723 816 
C 653 1196 653 1749 653 2109 
C 653 2604 653 3015 736 3407 
C 858 3954 1216 4121 1466 4121 
C 1728 4121 2067 3947 2189 3420 
C 2272 3054 2278 2623 2278 2109 
C 2278 1691 2278 1176 2202 797 
C 2067 96 1690 -26 1466 -26 
z
" id="CMR17-30" transform="scale(0.015625)"/>
        <path d="M 1062 262 
C 1062 422 934 524 800 524 
C 672 524 538 422 538 262 
C 538 102 666 0 800 0 
C 928 0 1062 102 1062 262 
z
" id="CMR17-2e" transform="scale(0.015625)"/>
        <path d="M 275 -794 
C 230 -981 205 -1031 -58 -1031 
C -135 -1031 -199 -1031 -199 -1152 
C -199 -1165 -192 -1216 -122 -1216 
C -39 -1216 51 -1204 134 -1204 
L 410 -1204 
C 544 -1204 870 -1216 1005 -1216 
C 1043 -1216 1120 -1216 1120 -1101 
C 1120 -1031 1075 -1031 966 -1031 
C 672 -1031 653 -987 653 -937 
C 653 -863 941 217 979 364 
C 1050 185 1222 -64 1555 -64 
C 2278 -64 3059 874 3059 1813 
C 3059 2400 2726 2816 2246 2816 
C 1837 2816 1491 2419 1421 2330 
C 1370 2649 1120 2816 864 2816 
C 678 2816 531 2726 410 2483 
C 294 2253 205 1864 205 1838 
C 205 1813 230 1781 275 1781 
C 326 1781 333 1787 371 1934 
C 467 2311 589 2687 845 2687 
C 992 2687 1043 2585 1043 2394 
C 1043 2241 1024 2177 998 2062 
L 275 -794 
z
M 1382 1992 
C 1427 2170 1606 2356 1709 2445 
C 1779 2509 1990 2687 2234 2687 
C 2515 2687 2643 2407 2643 2075 
C 2643 1768 2464 1047 2304 715 
C 2144 370 1850 64 1555 64 
C 1120 64 1050 613 1050 638 
C 1050 657 1062 708 1069 740 
L 1382 1992 
z
" id="CMMI12-70" transform="scale(0.015625)"/>
       </defs>
       <use transform="scale(0.996264)" xlink:href="#CMR17-30"/>
       <use transform="translate(45.690477 0)scale(0.996264)" xlink:href="#CMR17-2e"/>
       <use transform="translate(70.561536 0)scale(0.996264)" xlink:href="#CMR17-30"/>
       <use transform="translate(116.252013 0)scale(0.996264)" xlink:href="#CMMI12-70"/>
       <use transform="translate(165.211527 -14.943915)scale(0.697382)" xlink:href="#CMR17-30"/>
      </g>
     </g>
    </g>
    <g id="xtick_2">
     <g id="line2d_2">
      <g>
       <use style="stroke:#000000;stroke-width:0.8;" x="158.543204" xlink:href="#mfbc8bf1c42" y="264.018898"/>
      </g>
     </g>
     <g id="text_2">
      <!-- 0.3$p_0$ -->
      <g transform="translate(147.686319 277.937396)scale(0.1 -0.1)">
       <defs>
        <path d="M 1414 2176 
C 1984 2176 2234 1673 2234 1094 
C 2234 322 1824 25 1453 25 
C 1114 25 563 193 390 691 
C 422 678 454 678 486 678 
C 640 678 755 780 755 947 
C 755 1132 614 1216 486 1216 
C 378 1216 211 1164 211 927 
C 211 335 787 -128 1466 -128 
C 2176 -128 2720 432 2720 1087 
C 2720 1718 2208 2176 1600 2246 
C 2086 2347 2554 2776 2554 3353 
C 2554 3856 2048 4224 1472 4224 
C 890 4224 378 3862 378 3347 
C 378 3123 544 3084 627 3084 
C 762 3084 877 3167 877 3334 
C 877 3500 762 3584 627 3584 
C 602 3584 570 3584 544 3571 
C 730 3999 1235 4076 1459 4076 
C 1683 4076 2106 3966 2106 3347 
C 2106 3167 2080 2851 1862 2574 
C 1670 2329 1453 2316 1242 2297 
C 1210 2297 1062 2284 1037 2284 
C 992 2278 966 2272 966 2227 
C 966 2182 973 2176 1101 2176 
L 1414 2176 
z
" id="CMR17-33" transform="scale(0.015625)"/>
       </defs>
       <use transform="scale(0.996264)" xlink:href="#CMR17-30"/>
       <use transform="translate(45.690477 0)scale(0.996264)" xlink:href="#CMR17-2e"/>
       <use transform="translate(70.561536 0)scale(0.996264)" xlink:href="#CMR17-33"/>
       <use transform="translate(116.252013 0)scale(0.996264)" xlink:href="#CMMI12-70"/>
       <use transform="translate(165.211527 -14.943915)scale(0.697382)" xlink:href="#CMR17-30"/>
      </g>
     </g>
    </g>
    <g id="xtick_3">
     <g id="line2d_3">
      <g>
       <use style="stroke:#000000;stroke-width:0.8;" x="265.057162" xlink:href="#mfbc8bf1c42" y="264.018898"/>
      </g>
     </g>
     <g id="text_3">
      <!-- 0.7$p_0$ -->
      <g transform="translate(254.200278 277.937396)scale(0.1 -0.1)">
       <defs>
        <path d="M 2886 3955 
L 2886 4096 
L 1382 4096 
C 634 4096 621 4166 595 4288 
L 480 4288 
L 294 3104 
L 410 3104 
C 429 3226 474 3552 550 3673 
C 589 3724 1062 3724 1171 3724 
L 2579 3724 
L 1869 2670 
C 1395 1961 1069 1003 1069 166 
C 1069 89 1069 -128 1299 -128 
C 1530 -128 1530 89 1530 172 
L 1530 466 
C 1530 1514 1709 2204 2003 2644 
L 2886 3955 
z
" id="CMR17-37" transform="scale(0.015625)"/>
       </defs>
       <use transform="scale(0.996264)" xlink:href="#CMR17-30"/>
       <use transform="translate(45.690477 0)scale(0.996264)" xlink:href="#CMR17-2e"/>
       <use transform="translate(70.561536 0)scale(0.996264)" xlink:href="#CMR17-37"/>
       <use transform="translate(116.252013 0)scale(0.996264)" xlink:href="#CMMI12-70"/>
       <use transform="translate(165.211527 -14.943915)scale(0.697382)" xlink:href="#CMR17-30"/>
      </g>
     </g>
    </g>
    <g id="xtick_4">
     <g id="line2d_4">
      <g>
       <use style="stroke:#000000;stroke-width:0.8;" x="371.571121" xlink:href="#mfbc8bf1c42" y="264.018898"/>
      </g>
     </g>
     <g id="text_4">
      <!-- 1.0$p_0$ -->
      <g transform="translate(360.714236 277.937396)scale(0.1 -0.1)">
       <defs>
        <path d="M 1702 4083 
C 1702 4217 1696 4224 1606 4224 
C 1357 3927 979 3833 621 3820 
C 602 3820 570 3820 563 3808 
C 557 3795 557 3782 557 3648 
C 755 3648 1088 3686 1344 3839 
L 1344 467 
C 1344 243 1331 166 781 166 
L 589 166 
L 589 0 
C 896 6 1216 12 1523 12 
C 1830 12 2150 6 2458 0 
L 2458 166 
L 2266 166 
C 1715 166 1702 236 1702 467 
L 1702 4083 
z
" id="CMR17-31" transform="scale(0.015625)"/>
       </defs>
       <use transform="scale(0.996264)" xlink:href="#CMR17-31"/>
       <use transform="translate(45.690477 0)scale(0.996264)" xlink:href="#CMR17-2e"/>
       <use transform="translate(70.561536 0)scale(0.996264)" xlink:href="#CMR17-30"/>
       <use transform="translate(116.252013 0)scale(0.996264)" xlink:href="#CMMI12-70"/>
       <use transform="translate(165.211527 -14.943915)scale(0.697382)" xlink:href="#CMR17-30"/>
      </g>
     </g>
    </g>
   </g>
   <g id="matplotlib.axis_2">
    <g id="ytick_1">
     <g id="line2d_5">
      <defs>
       <path d="M 0 0 
L -3.5 0 
" id="m9ffc62c09c" style="stroke:#000000;stroke-width:0.8;"/>
      </defs>
      <g>
       <use style="stroke:#000000;stroke-width:0.8;" x="36.052152" xlink:href="#m9ffc62c09c" y="252.345311"/>
      </g>
     </g>
     <g id="text_5">
      <!-- 0.0$\rho_{0}$ -->
      <g transform="translate(7.2 255.804561)scale(0.1 -0.1)">
       <defs>
        <path d="M 198 -1085 
C 192 -1116 179 -1154 179 -1191 
C 179 -1287 256 -1351 352 -1351 
C 448 -1351 538 -1287 576 -1198 
C 602 -1141 781 -390 986 389 
C 1114 70 1350 -64 1600 -64 
C 2323 -64 3142 830 3142 1794 
C 3142 2477 2726 2816 2285 2816 
C 1722 2816 1037 2234 826 1385 
L 198 -1085 
z
M 1594 64 
C 1158 64 1050 568 1050 645 
C 1050 683 1210 1289 1229 1385 
C 1555 2656 2182 2687 2278 2687 
C 2566 2687 2726 2426 2726 2049 
C 2726 1724 2554 1091 2445 823 
C 2253 383 1920 64 1594 64 
z
" id="CMMI12-1a" transform="scale(0.015625)"/>
       </defs>
       <use transform="scale(0.996264)" xlink:href="#CMR17-30"/>
       <use transform="translate(45.690477 0)scale(0.996264)" xlink:href="#CMR17-2e"/>
       <use transform="translate(70.561536 0)scale(0.996264)" xlink:href="#CMR17-30"/>
       <use transform="translate(116.252013 0)scale(0.996264)" xlink:href="#CMMI12-1a"/>
       <use transform="translate(166.566386 -14.943915)scale(0.697382)" xlink:href="#CMR17-30"/>
      </g>
     </g>
    </g>
    <g id="ytick_2">
     <g id="line2d_6">
      <g>
       <use style="stroke:#000000;stroke-width:0.8;" x="36.052152" xlink:href="#m9ffc62c09c" y="205.650966"/>
      </g>
     </g>
     <g id="text_6">
      <!-- 0.2$\rho_{0}$ -->
      <g transform="translate(7.2 209.110216)scale(0.1 -0.1)">
       <defs>
        <path d="M 2669 990 
L 2554 990 
C 2490 537 2438 460 2413 422 
C 2381 371 1920 371 1830 371 
L 602 371 
C 832 620 1280 1073 1824 1596 
C 2214 1966 2669 2400 2669 3033 
C 2669 3788 2067 4224 1395 4224 
C 691 4224 262 3603 262 3027 
C 262 2777 448 2745 525 2745 
C 589 2745 781 2783 781 3007 
C 781 3206 614 3264 525 3264 
C 486 3264 448 3257 422 3244 
C 544 3788 915 4057 1306 4057 
C 1862 4057 2227 3616 2227 3033 
C 2227 2477 1901 1998 1536 1583 
L 262 147 
L 262 0 
L 2515 0 
L 2669 990 
z
" id="CMR17-32" transform="scale(0.015625)"/>
       </defs>
       <use transform="scale(0.996264)" xlink:href="#CMR17-30"/>
       <use transform="translate(45.690477 0)scale(0.996264)" xlink:href="#CMR17-2e"/>
       <use transform="translate(70.561536 0)scale(0.996264)" xlink:href="#CMR17-32"/>
       <use transform="translate(116.252013 0)scale(0.996264)" xlink:href="#CMMI12-1a"/>
       <use transform="translate(166.566386 -14.943915)scale(0.697382)" xlink:href="#CMR17-30"/>
      </g>
     </g>
    </g>
    <g id="ytick_3">
     <g id="line2d_7">
      <g>
       <use style="stroke:#000000;stroke-width:0.8;" x="36.052152" xlink:href="#m9ffc62c09c" y="158.956621"/>
      </g>
     </g>
     <g id="text_7">
      <!-- 0.4$\rho_{0}$ -->
      <g transform="translate(7.2 162.415871)scale(0.1 -0.1)">
       <defs>
        <path d="M 2150 4147 
C 2150 4281 2144 4288 2029 4288 
L 128 1254 
L 128 1088 
L 1779 1088 
L 1779 460 
C 1779 230 1766 166 1318 166 
L 1197 166 
L 1197 0 
C 1402 12 1747 12 1965 12 
C 2182 12 2528 12 2733 0 
L 2733 166 
L 2611 166 
C 2163 166 2150 230 2150 460 
L 2150 1088 
L 2803 1088 
L 2803 1254 
L 2150 1254 
L 2150 4147 
z
M 1798 3723 
L 1798 1254 
L 256 1254 
L 1798 3723 
z
" id="CMR17-34" transform="scale(0.015625)"/>
       </defs>
       <use transform="scale(0.996264)" xlink:href="#CMR17-30"/>
       <use transform="translate(45.690477 0)scale(0.996264)" xlink:href="#CMR17-2e"/>
       <use transform="translate(70.561536 0)scale(0.996264)" xlink:href="#CMR17-34"/>
       <use transform="translate(116.252013 0)scale(0.996264)" xlink:href="#CMMI12-1a"/>
       <use transform="translate(166.566386 -14.943915)scale(0.697382)" xlink:href="#CMR17-30"/>
      </g>
     </g>
    </g>
    <g id="ytick_4">
     <g id="line2d_8">
      <g>
       <use style="stroke:#000000;stroke-width:0.8;" x="36.052152" xlink:href="#m9ffc62c09c" y="112.262276"/>
      </g>
     </g>
     <g id="text_8">
      <!-- 0.6$\rho_{0}$ -->
      <g transform="translate(7.2 115.721525)scale(0.1 -0.1)">
       <defs>
        <path d="M 678 2198 
C 678 3712 1395 4076 1811 4076 
C 1946 4076 2272 4049 2400 3782 
C 2298 3782 2106 3782 2106 3558 
C 2106 3385 2246 3328 2336 3328 
C 2394 3328 2566 3353 2566 3571 
C 2566 3987 2246 4224 1805 4224 
C 1043 4224 243 3411 243 2011 
C 243 257 966 -128 1478 -128 
C 2099 -128 2688 431 2688 1295 
C 2688 2101 2170 2688 1517 2688 
C 1126 2688 838 2430 678 1979 
L 678 2198 
z
M 1478 25 
C 691 25 691 1212 691 1450 
C 691 1914 909 2585 1504 2585 
C 1613 2585 1926 2585 2138 2140 
C 2253 1889 2253 1624 2253 1302 
C 2253 954 2253 696 2118 438 
C 1978 173 1773 25 1478 25 
z
" id="CMR17-36" transform="scale(0.015625)"/>
       </defs>
       <use transform="scale(0.996264)" xlink:href="#CMR17-30"/>
       <use transform="translate(45.690477 0)scale(0.996264)" xlink:href="#CMR17-2e"/>
       <use transform="translate(70.561536 0)scale(0.996264)" xlink:href="#CMR17-36"/>
       <use transform="translate(116.252013 0)scale(0.996264)" xlink:href="#CMMI12-1a"/>
       <use transform="translate(166.566386 -14.943915)scale(0.697382)" xlink:href="#CMR17-30"/>
      </g>
     </g>
    </g>
    <g id="ytick_5">
     <g id="line2d_9">
      <g>
       <use style="stroke:#000000;stroke-width:0.8;" x="36.052152" xlink:href="#m9ffc62c09c" y="65.567931"/>
      </g>
     </g>
     <g id="text_9">
      <!-- 0.8$\rho_{0}$ -->
      <g transform="translate(7.2 69.02718)scale(0.1 -0.1)">
       <defs>
        <path d="M 1741 2289 
C 2144 2494 2554 2803 2554 3298 
C 2554 3884 1990 4224 1472 4224 
C 890 4224 378 3800 378 3215 
C 378 3054 416 2777 666 2533 
C 730 2469 998 2276 1171 2154 
C 883 2006 211 1652 211 945 
C 211 282 838 -128 1459 -128 
C 2144 -128 2720 366 2720 1022 
C 2720 1607 2330 1877 2074 2051 
L 1741 2289 
z
M 902 2855 
C 851 2887 595 3086 595 3388 
C 595 3781 998 4076 1459 4076 
C 1965 4076 2336 3716 2336 3298 
C 2336 2700 1670 2359 1638 2359 
C 1632 2359 1626 2359 1574 2398 
L 902 2855 
z
M 2080 1536 
C 2176 1466 2483 1253 2483 861 
C 2483 385 2010 25 1472 25 
C 890 25 448 443 448 951 
C 448 1459 838 1884 1280 2083 
L 2080 1536 
z
" id="CMR17-38" transform="scale(0.015625)"/>
       </defs>
       <use transform="scale(0.996264)" xlink:href="#CMR17-30"/>
       <use transform="translate(45.690477 0)scale(0.996264)" xlink:href="#CMR17-2e"/>
       <use transform="translate(70.561536 0)scale(0.996264)" xlink:href="#CMR17-38"/>
       <use transform="translate(116.252013 0)scale(0.996264)" xlink:href="#CMMI12-1a"/>
       <use transform="translate(166.566386 -14.943915)scale(0.697382)" xlink:href="#CMR17-30"/>
      </g>
     </g>
    </g>
    <g id="ytick_6">
     <g id="line2d_10">
      <g>
       <use style="stroke:#000000;stroke-width:0.8;" x="36.052152" xlink:href="#m9ffc62c09c" y="18.873586"/>
      </g>
     </g>
     <g id="text_10">
      <!-- 1.0$\rho_{0}$ -->
      <g transform="translate(7.2 22.332835)scale(0.1 -0.1)">
       <use transform="scale(0.996264)" xlink:href="#CMR17-31"/>
       <use transform="translate(45.690477 0)scale(0.996264)" xlink:href="#CMR17-2e"/>
       <use transform="translate(70.561536 0)scale(0.996264)" xlink:href="#CMR17-30"/>
       <use transform="translate(116.252013 0)scale(0.996264)" xlink:href="#CMMI12-1a"/>
       <use transform="translate(166.566386 -14.943915)scale(0.697382)" xlink:href="#CMR17-30"/>
      </g>
     </g>
    </g>
   </g>
   <g id="line2d_11">
    <path clip-path="url(#pfc2584da18)" d="M 52.055858 200.172264 
L 58.576578 173.043543 
L 65.097298 157.125629 
L 71.618017 145.358288 
L 78.138737 135.88052 
L 84.659456 127.885763 
L 91.180176 120.944395 
L 97.700896 114.793844 
L 104.221615 109.263839 
L 110.742335 104.232701 
L 117.263055 99.617764 
L 123.783774 95.355126 
L 130.304494 91.384585 
L 136.825214 87.675786 
L 143.345933 84.192889 
L 149.866653 80.915069 
L 156.387373 77.8083 
L 162.908092 74.863098 
L 169.428812 72.058824 
L 175.949532 69.385206 
L 182.470251 66.833453 
L 188.990971 64.388846 
L 195.51169 62.038624 
L 202.03241 59.780866 
L 208.55313 57.610349 
L 215.073849 55.515708 
L 221.594569 53.491179 
L 228.115289 51.536076 
L 234.636008 49.654216 
L 241.156728 47.805445 
L 247.677448 46.032459 
L 254.198167 44.291043 
L 260.718887 42.616933 
L 267.239607 40.972302 
L 273.760326 39.366904 
L 280.281046 37.807266 
L 286.801766 36.287202 
L 293.322485 34.801686 
L 299.843205 33.346747 
L 306.363924 31.919375 
L 312.884644 30.517402 
L 319.405364 29.13939 
L 325.926083 27.784486 
L 332.446803 26.452277 
L 338.967523 25.142617 
L 345.488242 23.85544 
L 352.008962 22.590529 
L 358.529682 21.347258 
L 365.050401 20.103452 
L 371.571121 18.873586 
" style="fill:none;stroke:#000000;stroke-dasharray:6,1.5;stroke-dashoffset:0;stroke-width:1.5;"/>
   </g>
   <g id="line2d_12">
    <path clip-path="url(#pfc2584da18)" d="M 52.038476 208.491054 
L 58.559551 184.132645 
L 65.080625 169.506501 
L 71.601699 158.482448 
L 78.122774 149.447714 
L 84.643848 141.704465 
L 91.164923 134.879582 
L 97.685997 128.747121 
L 104.207071 123.158879 
L 110.728146 118.011629 
L 117.24922 113.230321 
L 123.770295 108.758443 
L 130.291369 104.552223 
L 136.812443 100.577254 
L 143.333518 96.805179 
L 149.854592 93.213616 
L 156.375666 89.783048 
L 162.896741 86.497768 
L 169.417815 83.344479 
L 175.93889 80.31082 
L 182.459964 77.386917 
L 188.981038 74.563987 
L 195.502113 71.834478 
L 202.023187 69.191749 
L 208.544261 66.628661 
L 215.065336 64.141055 
L 221.58641 61.723541 
L 228.107485 59.371708 
L 234.628559 57.08206 
L 241.149633 54.850231 
L 247.670708 52.673359 
L 254.191782 50.54846 
L 260.712856 48.472939 
L 267.233931 46.445025 
L 273.755005 44.459829 
L 280.27608 42.51765 
L 286.797154 40.616121 
L 293.318228 38.75307 
L 299.839303 36.926195 
L 306.360377 35.134614 
L 312.881452 33.377001 
L 319.402526 31.651662 
L 325.9236 29.957824 
L 332.444675 28.293471 
L 338.965749 26.657393 
L 345.486823 25.048994 
L 352.007898 23.468032 
L 358.528972 21.912639 
L 365.050047 20.381448 
L 371.571121 18.873586 
" style="fill:none;stroke:#000000;stroke-dasharray:6,6;stroke-dashoffset:0;stroke-width:1.5;"/>
   </g>
   <g id="line2d_13">
    <path clip-path="url(#pfc2584da18)" d="M 52.029245 150.066785 
L 58.550508 127.077445 
L 65.071771 114.901883 
L 71.593034 106.303348 
L 78.114297 99.561461 
L 84.635559 93.972892 
L 91.156822 89.176506 
L 97.678085 84.960742 
L 104.199348 81.190372 
L 110.72061 77.773408 
L 117.241873 74.644277 
L 123.763136 71.754495 
L 130.284399 69.067145 
L 136.805661 66.553433 
L 143.326924 64.19044 
L 149.848187 61.959613 
L 156.36945 59.845704 
L 162.890712 57.836026 
L 169.411975 55.919901 
L 175.933238 54.088253 
L 182.454501 52.333298 
L 188.975764 50.648306 
L 195.497026 49.027423 
L 202.018289 47.465513 
L 208.539552 45.958055 
L 215.060815 44.501038 
L 221.582077 43.090892 
L 228.10334 41.724423 
L 234.624603 40.398761 
L 241.145866 39.111318 
L 247.667128 37.85975 
L 254.188391 36.641929 
L 260.709654 35.455915 
L 267.230917 34.299936 
L 273.752179 33.172369 
L 280.273442 32.071721 
L 286.794705 30.996616 
L 293.315968 29.945787 
L 299.837231 28.918059 
L 306.358493 27.912344 
L 312.879756 26.92763 
L 319.401019 25.962976 
L 325.922282 25.017503 
L 332.443544 24.090394 
L 338.964807 23.180881 
L 345.48607 22.288245 
L 352.007333 21.411812 
L 358.528595 20.55095 
L 365.049858 19.705061 
L 371.571121 18.873586 
" style="fill:none;stroke:#000000;stroke-dasharray:0.75,1.5;stroke-dashoffset:0;stroke-width:1.5;"/>
   </g>
   <g id="line2d_14">
    <path clip-path="url(#pfc2584da18)" d="M 52.029245 239.225992 
L 58.550508 221.158755 
L 65.071771 208.739594 
L 71.593034 198.649407 
L 78.114297 189.926432 
L 84.635559 182.130908 
L 91.156822 175.017943 
L 97.678085 168.434539 
L 104.199348 162.277533 
L 110.72061 156.473452 
L 117.241873 150.967778 
L 123.763136 145.718729 
L 130.284399 140.693452 
L 136.805661 135.865555 
L 143.326924 131.213461 
L 149.848187 126.719258 
L 156.36945 122.367883 
L 162.890712 118.146528 
L 169.411975 114.04419 
L 175.933238 110.051336 
L 182.454501 106.159642 
L 188.975764 102.361789 
L 195.497026 98.651297 
L 202.018289 95.022403 
L 208.539552 91.469949 
L 215.060815 87.989298 
L 221.582077 84.576265 
L 228.10334 81.227057 
L 234.624603 77.93822 
L 241.145866 74.706603 
L 247.667128 71.529321 
L 254.188391 68.40372 
L 260.709654 65.327358 
L 267.230917 62.297979 
L 273.752179 59.313494 
L 280.273442 56.371965 
L 286.794705 53.471587 
L 293.315968 50.610681 
L 299.837231 47.787679 
L 306.358493 45.001111 
L 312.879756 42.249603 
L 319.401019 39.531864 
L 325.922282 36.84668 
L 332.443544 34.192909 
L 338.964807 31.569473 
L 345.48607 28.975356 
L 352.007333 26.409595 
L 358.528595 23.87128 
L 365.049858 21.35955 
L 371.571121 18.873586 
" style="fill:none;stroke:#000000;stroke-dasharray:0.75,4.5;stroke-dashoffset:0;stroke-width:1.5;"/>
   </g>
   <g id="line2d_15">
    <path clip-path="url(#pfc2584da18)" d="M 52.029245 252.345311 
L 58.550508 239.963852 
L 65.071771 230.299639 
L 71.593034 221.882087 
L 78.114297 214.242326 
L 84.635559 207.15379 
L 91.156822 200.48512 
L 97.678085 194.151579 
L 104.199348 188.094486 
L 110.72061 182.271085 
L 117.241873 176.649004 
L 123.763136 171.202988 
L 130.284399 165.912855 
L 136.805661 160.762155 
L 143.326924 155.737255 
L 149.848187 150.826697 
L 156.36945 146.020732 
L 162.890712 141.310981 
L 169.411975 136.690171 
L 175.933238 132.151943 
L 182.454501 127.69069 
L 188.975764 123.301443 
L 195.497026 118.979765 
L 202.018289 114.721678 
L 208.539552 110.523597 
L 215.060815 106.382276 
L 221.582077 102.294765 
L 228.10334 98.25837 
L 234.624603 94.270627 
L 241.145866 90.329272 
L 247.667128 86.432219 
L 254.188391 82.57754 
L 260.709654 78.763451 
L 267.230917 74.988295 
L 273.752179 71.250527 
L 280.273442 67.548711 
L 286.794705 63.881501 
L 293.315968 60.247638 
L 299.837231 56.645942 
L 306.358493 53.075303 
L 312.879756 49.534677 
L 319.401019 46.023079 
L 325.922282 42.539581 
L 332.443544 39.083303 
L 338.964807 35.653414 
L 345.48607 32.249128 
L 352.007333 28.869694 
L 358.528595 25.514405 
L 365.049858 22.182583 
L 371.571121 18.873586 
" style="fill:none;stroke:#000000;stroke-dasharray:0.75,9;stroke-dashoffset:0;stroke-width:1.5;"/>
   </g>
   <g id="patch_3">
    <path d="M 36.052152 264.018898 
L 36.052152 7.2 
" style="fill:none;stroke:#000000;stroke-linecap:square;stroke-linejoin:miter;stroke-width:0.8;"/>
   </g>
   <g id="patch_4">
    <path d="M 387.548215 264.018898 
L 387.548215 7.2 
" style="fill:none;stroke:#000000;stroke-linecap:square;stroke-linejoin:miter;stroke-width:0.8;"/>
   </g>
   <g id="patch_5">
    <path d="M 36.052152 264.018898 
L 387.548215 264.018898 
" style="fill:none;stroke:#000000;stroke-linecap:square;stroke-linejoin:miter;stroke-width:0.8;"/>
   </g>
   <g id="patch_6">
    <path d="M 36.052152 7.2 
L 387.548215 7.2 
" style="fill:none;stroke:#000000;stroke-linecap:square;stroke-linejoin:miter;stroke-width:0.8;"/>
   </g>
   <g id="legend_1">
    <g id="patch_7">
     <path d="M 265.031386 259.018898 
L 380.548215 259.018898 
Q 382.548215 259.018898 382.548215 257.018898 
L 382.548215 183.205697 
Q 382.548215 181.205697 380.548215 181.205697 
L 265.031386 181.205697 
Q 263.031386 181.205697 263.031386 183.205697 
L 263.031386 257.018898 
Q 263.031386 259.018898 265.031386 259.018898 
z
" style="fill:#ffffff;opacity:0.8;stroke:#cccccc;stroke-linejoin:miter;"/>
    </g>
    <g id="line2d_16">
     <path d="M 267.031386 189.177677 
L 287.031386 189.177677 
" style="fill:none;stroke:#000000;stroke-dasharray:6,1.5;stroke-dashoffset:0;stroke-width:1.5;"/>
    </g>
    <g id="line2d_17"/>
    <g id="text_11">
     <!-- $\rho(p)_{rel}$ for $B=20$ -->
     <g transform="translate(295.031386 192.677677)scale(0.1 -0.1)">
      <defs>
       <path d="M 1958 -1562 
C 1958 -1556 1958 -1543 1939 -1524 
C 1645 -1223 858 -403 858 1596 
C 858 3595 1632 4408 1946 4729 
C 1946 4735 1958 4748 1958 4767 
C 1958 4787 1939 4800 1914 4800 
C 1843 4800 1299 4325 986 3620 
C 666 2909 576 2218 576 1603 
C 576 1141 621 360 1005 -467 
C 1312 -1133 1837 -1600 1914 -1600 
C 1946 -1600 1958 -1588 1958 -1562 
z
" id="CMR17-28" transform="scale(0.015625)"/>
       <path d="M 1683 1596 
C 1683 2057 1638 2839 1254 3665 
C 947 4332 422 4800 346 4800 
C 326 4800 301 4793 301 4761 
C 301 4748 307 4742 314 4729 
C 621 4408 1402 3595 1402 1603 
C 1402 -396 627 -1210 314 -1530 
C 307 -1543 301 -1549 301 -1562 
C 301 -1594 326 -1600 346 -1600 
C 416 -1600 960 -1127 1274 -422 
C 1594 289 1683 981 1683 1596 
z
" id="CMR17-29" transform="scale(0.015625)"/>
       <path d="M 2490 2633 
C 2291 2598 2189 2457 2189 2316 
C 2189 2163 2310 2111 2400 2111 
C 2579 2111 2726 2265 2726 2457 
C 2726 2651 2528 2816 2208 2816 
C 1952 2816 1658 2700 1389 2335 
C 1344 2660 1088 2816 832 2816 
C 582 2816 454 2642 378 2508 
C 269 2278 173 1892 173 1860 
C 173 1834 198 1801 243 1801 
C 294 1801 301 1808 339 1957 
C 435 2342 557 2687 813 2687 
C 966 2687 1011 2604 1011 2419 
C 1011 2278 947 2028 902 1827 
L 723 1130 
C 698 1007 627 716 595 600 
C 550 432 480 128 480 96 
C 480 6 550 -64 646 -64 
C 717 -64 838 -20 877 109 
C 896 160 1133 1136 1171 1285 
C 1203 1427 1242 1562 1274 1705 
C 1299 1795 1325 1898 1344 1982 
C 1363 2040 1536 2355 1696 2495 
C 1773 2566 1939 2687 2202 2687 
C 2304 2687 2406 2674 2490 2633 
z
" id="CMMI12-72" transform="scale(0.015625)"/>
       <path d="M 1146 1472 
C 1318 1472 1754 1484 2061 1600 
C 2547 1786 2592 2160 2592 2275 
C 2592 2559 2349 2816 1926 2816 
C 1254 2816 288 2205 288 1066 
C 288 400 672 -64 1254 -64 
C 2125 -64 2675 609 2675 691 
C 2675 729 2637 761 2611 761 
C 2592 761 2586 755 2528 698 
C 2118 159 1510 64 1267 64 
C 902 64 710 349 710 818 
C 710 907 710 1066 806 1472 
L 1146 1472 
z
M 838 1600 
C 1114 2591 1722 2687 1926 2687 
C 2208 2687 2400 2520 2400 2275 
C 2400 1600 1376 1600 1107 1600 
L 838 1600 
z
" id="CMMI12-65" transform="scale(0.015625)"/>
       <path d="M 1626 4255 
C 1632 4281 1645 4319 1645 4351 
C 1645 4416 1581 4416 1568 4416 
C 1562 4416 1331 4396 1216 4383 
C 1107 4377 1011 4364 896 4358 
C 742 4345 698 4339 698 4223 
C 698 4159 762 4159 826 4159 
C 1152 4159 1152 4102 1152 4039 
C 1152 4013 1152 4001 1120 3886 
L 326 731 
C 307 661 294 610 294 509 
C 294 191 531 -64 858 -64 
C 1069 -64 1210 76 1312 273 
C 1421 483 1510 884 1510 909 
C 1510 941 1485 967 1446 967 
C 1389 967 1382 935 1357 839 
C 1242 401 1126 64 870 64 
C 678 64 678 267 678 356 
C 678 382 678 515 723 693 
L 1626 4255 
z
" id="CMMI12-6c" transform="scale(0.015625)"/>
       <path d="M 979 2585 
L 1709 2585 
L 1709 2752 
L 966 2752 
L 966 3539 
C 966 4076 1235 4377 1510 4377 
C 1594 4377 1690 4363 1754 4339 
C 1702 4326 1568 4281 1568 4121 
C 1568 3955 1696 3904 1786 3904 
C 1875 3904 2003 3955 2003 4121 
C 2003 4353 1773 4480 1517 4480 
C 1152 4480 653 4211 653 3526 
L 653 2752 
L 141 2752 
L 141 2585 
L 653 2585 
L 653 441 
C 653 198 627 166 218 166 
L 218 0 
C 371 12 666 12 832 12 
C 1018 12 1344 12 1517 0 
L 1517 166 
C 1056 166 979 166 979 454 
L 979 2585 
z
" id="CMR17-66" transform="scale(0.015625)"/>
       <path d="M 2758 1356 
C 2758 2176 2163 2816 1466 2816 
C 768 2816 173 2176 173 1356 
C 173 550 768 -64 1466 -64 
C 2163 -64 2758 550 2758 1356 
z
M 1466 51 
C 1165 51 909 230 762 480 
C 602 768 582 1126 582 1408 
C 582 1676 595 2009 762 2297 
C 890 2508 1139 2713 1466 2713 
C 1754 2713 1997 2553 2150 2329 
C 2349 2028 2349 1606 2349 1408 
C 2349 1158 2336 774 2163 467 
C 1984 172 1709 51 1466 51 
z
" id="CMR17-6f" transform="scale(0.015625)"/>
       <path d="M 960 1517 
C 960 2134 1222 2713 1702 2713 
C 1747 2713 1792 2707 1837 2687 
C 1837 2687 1696 2642 1696 2475 
C 1696 2321 1818 2257 1914 2257 
C 1990 2257 2131 2302 2131 2482 
C 2131 2687 1926 2816 1709 2816 
C 1222 2816 1011 2340 947 2115 
L 941 2115 
L 941 2816 
L 198 2745 
L 198 2578 
C 576 2578 634 2540 634 2231 
L 634 443 
C 634 198 608 166 198 166 
L 198 0 
C 352 12 646 12 813 12 
C 998 12 1325 12 1498 0 
L 1498 166 
C 1037 166 960 166 960 455 
L 960 1517 
z
" id="CMR17-72" transform="scale(0.015625)"/>
       <path d="M 2342 3915 
C 2400 4153 2426 4166 2675 4166 
L 3507 4166 
C 4230 4166 4230 3547 4230 3489 
C 4230 2967 3712 2304 2867 2304 
L 1946 2304 
L 2342 3915 
z
M 3424 2252 
C 4122 2381 4755 2871 4755 3463 
C 4755 3966 4314 4352 3590 4352 
L 1536 4352 
C 1414 4352 1357 4352 1357 4230 
C 1357 4166 1414 4166 1510 4166 
C 1901 4166 1901 4114 1901 4043 
C 1901 4031 1901 3992 1875 3895 
L 1011 469 
C 954 248 941 185 493 185 
C 371 185 307 185 307 70 
C 307 0 346 0 474 0 
L 2669 0 
C 3648 0 4403 733 4403 1369 
C 4403 1886 3942 2201 3424 2252 
z
M 2515 185 
L 1651 185 
C 1562 185 1549 185 1510 191 
C 1440 198 1434 210 1434 261 
C 1434 305 1446 343 1459 399 
L 1907 2176 
L 3110 2176 
C 3866 2176 3866 1483 3866 1432 
C 3866 828 3309 185 2515 185 
z
" id="CMMI12-42" transform="scale(0.015625)"/>
       <path d="M 4115 2048 
C 4211 2048 4307 2048 4307 2156 
C 4307 2272 4198 2272 4090 2272 
L 512 2272 
C 403 2272 294 2272 294 2156 
C 294 2048 390 2048 486 2048 
L 4115 2048 
z
M 4090 927 
C 4198 927 4307 927 4307 1043 
C 4307 1152 4211 1152 4115 1152 
L 486 1152 
C 390 1152 294 1152 294 1043 
C 294 927 403 927 512 927 
L 4090 927 
z
" id="CMR17-3d" transform="scale(0.015625)"/>
      </defs>
      <use transform="scale(0.996264)" xlink:href="#CMMI12-1a"/>
      <use transform="translate(50.314373 0)scale(0.996264)" xlink:href="#CMR17-28"/>
      <use transform="translate(85.595141 0)scale(0.996264)" xlink:href="#CMMI12-70"/>
      <use transform="translate(134.554655 0)scale(0.996264)" xlink:href="#CMR17-29"/>
      <use transform="translate(169.835422 -14.943915)scale(0.697382)" xlink:href="#CMMI12-72"/>
      <use transform="translate(202.504691 -14.943915)scale(0.697382)" xlink:href="#CMMI12-65"/>
      <use transform="translate(234.152948 -14.943915)scale(0.697382)" xlink:href="#CMMI12-6c"/>
      <use transform="translate(286.60083 0)scale(0.996264)" xlink:href="#CMR17-66"/>
      <use transform="translate(314.074342 0)scale(0.996264)" xlink:href="#CMR17-6f"/>
      <use transform="translate(359.764819 0)scale(0.996264)" xlink:href="#CMR17-72"/>
      <use transform="translate(425.121553 0)scale(0.996264)" xlink:href="#CMMI12-42"/>
      <use transform="translate(531.931085 0)scale(0.996264)" xlink:href="#CMR17-3d"/>
      <use transform="translate(631.319883 0)scale(0.996264)" xlink:href="#CMR17-32"/>
      <use transform="translate(677.01036 0)scale(0.996264)" xlink:href="#CMR17-30"/>
     </g>
    </g>
    <g id="line2d_18">
     <path d="M 267.031386 204.140317 
L 287.031386 204.140317 
" style="fill:none;stroke:#000000;stroke-dasharray:6,6;stroke-dashoffset:0;stroke-width:1.5;"/>
    </g>
    <g id="line2d_19"/>
    <g id="text_12">
     <!-- $\rho(p)_{rel}$ for $B=200$ -->
     <g transform="translate(295.031386 207.640317)scale(0.1 -0.1)">
      <use transform="scale(0.996264)" xlink:href="#CMMI12-1a"/>
      <use transform="translate(50.314373 0)scale(0.996264)" xlink:href="#CMR17-28"/>
      <use transform="translate(85.595141 0)scale(0.996264)" xlink:href="#CMMI12-70"/>
      <use transform="translate(134.554655 0)scale(0.996264)" xlink:href="#CMR17-29"/>
      <use transform="translate(169.835422 -14.943915)scale(0.697382)" xlink:href="#CMMI12-72"/>
      <use transform="translate(202.504691 -14.943915)scale(0.697382)" xlink:href="#CMMI12-65"/>
      <use transform="translate(234.152948 -14.943915)scale(0.697382)" xlink:href="#CMMI12-6c"/>
      <use transform="translate(286.60083 0)scale(0.996264)" xlink:href="#CMR17-66"/>
      <use transform="translate(314.074342 0)scale(0.996264)" xlink:href="#CMR17-6f"/>
      <use transform="translate(359.764819 0)scale(0.996264)" xlink:href="#CMR17-72"/>
      <use transform="translate(425.121553 0)scale(0.996264)" xlink:href="#CMMI12-42"/>
      <use transform="translate(531.931085 0)scale(0.996264)" xlink:href="#CMR17-3d"/>
      <use transform="translate(631.319883 0)scale(0.996264)" xlink:href="#CMR17-32"/>
      <use transform="translate(677.01036 0)scale(0.996264)" xlink:href="#CMR17-30"/>
      <use transform="translate(722.700837 0)scale(0.996264)" xlink:href="#CMR17-30"/>
     </g>
    </g>
    <g id="line2d_20">
     <path d="M 267.031386 219.102957 
L 287.031386 219.102957 
" style="fill:none;stroke:#000000;stroke-dasharray:0.75,1.5;stroke-dashoffset:0;stroke-width:1.5;"/>
    </g>
    <g id="line2d_21"/>
    <g id="text_13">
     <!-- $\rho(p)_{cla}$ for $n=0.2$ -->
     <g transform="translate(295.031386 222.602957)scale(0.1 -0.1)">
      <defs>
       <path d="M 2502 2432 
C 2381 2432 2323 2432 2234 2355 
C 2195 2323 2125 2227 2125 2124 
C 2125 1996 2221 1919 2342 1919 
C 2496 1919 2669 2047 2669 2303 
C 2669 2591 2374 2816 1933 2816 
C 1094 2816 256 1932 256 1011 
C 256 446 602 -64 1254 -64 
C 2125 -64 2675 622 2675 706 
C 2675 745 2637 777 2611 777 
C 2592 777 2586 771 2528 712 
C 2118 161 1510 64 1267 64 
C 826 64 685 453 685 777 
C 685 1004 794 1634 1024 2073 
C 1190 2374 1536 2687 1939 2687 
C 2022 2687 2374 2676 2502 2432 
z
" id="CMMI12-63" transform="scale(0.015625)"/>
       <path d="M 1926 759 
C 1894 651 1894 638 1805 517 
C 1664 338 1382 64 1082 64 
C 819 64 672 300 672 676 
C 672 1028 870 1743 992 2011 
C 1210 2458 1510 2687 1760 2687 
C 2182 2687 2266 2164 2266 2113 
C 2266 2107 2246 2024 2240 2011 
L 1926 759 
z
M 2336 2394 
C 2266 2560 2093 2816 1760 2816 
C 1037 2816 256 1883 256 938 
C 256 306 627 -64 1062 -64 
C 1414 -64 1715 210 1894 421 
C 1958 44 2259 -64 2451 -64 
C 2643 -64 2797 51 2912 280 
C 3014 496 3104 885 3104 910 
C 3104 942 3078 968 3040 968 
C 2982 968 2976 936 2950 840 
C 2854 465 2733 64 2470 64 
C 2285 64 2272 229 2272 356 
C 2272 503 2291 573 2349 821 
C 2394 980 2426 1120 2477 1305 
C 2714 2260 2771 2489 2771 2528 
C 2771 2617 2701 2688 2605 2688 
C 2400 2688 2349 2464 2336 2388 
L 2336 2394 
z
" id="CMMI12-61" transform="scale(0.015625)"/>
       <path d="M 1318 1870 
C 1331 1909 1491 2228 1728 2432 
C 1894 2585 2112 2687 2362 2687 
C 2618 2687 2707 2496 2707 2241 
C 2707 1877 2445 1149 2317 804 
C 2259 651 2227 568 2227 453 
C 2227 166 2426 -64 2733 -64 
C 3328 -64 3552 874 3552 913 
C 3552 945 3526 970 3488 970 
C 3430 970 3424 951 3392 842 
C 3245 319 3002 64 2752 64 
C 2688 64 2586 70 2586 274 
C 2586 434 2656 625 2694 715 
C 2822 1066 3091 1781 3091 2145 
C 3091 2528 2867 2816 2381 2816 
C 1811 2816 1510 2413 1395 2253 
C 1376 2617 1114 2816 832 2816 
C 627 2816 486 2694 378 2477 
C 262 2247 173 1864 173 1838 
C 173 1813 198 1781 243 1781 
C 294 1781 301 1787 339 1934 
C 442 2324 557 2687 813 2687 
C 960 2687 1011 2585 1011 2394 
C 1011 2253 947 2004 902 1807 
L 723 1117 
C 698 996 627 708 595 593 
C 550 427 480 127 480 95 
C 480 6 550 -64 646 -64 
C 723 -64 813 -26 864 70 
C 877 102 934 325 966 453 
L 1107 1028 
L 1318 1870 
z
" id="CMMI12-6e" transform="scale(0.015625)"/>
       <path d="M 1178 307 
C 1178 492 1024 620 870 620 
C 685 620 557 467 557 313 
C 557 128 710 0 864 0 
C 1050 0 1178 153 1178 307 
z
" id="CMMI12-3a" transform="scale(0.015625)"/>
      </defs>
      <use transform="scale(0.996264)" xlink:href="#CMMI12-1a"/>
      <use transform="translate(50.314373 0)scale(0.996264)" xlink:href="#CMR17-28"/>
      <use transform="translate(85.595141 0)scale(0.996264)" xlink:href="#CMMI12-70"/>
      <use transform="translate(134.554655 0)scale(0.996264)" xlink:href="#CMR17-29"/>
      <use transform="translate(169.835422 -14.943915)scale(0.697382)" xlink:href="#CMMI12-63"/>
      <use transform="translate(199.223554 -14.943915)scale(0.697382)" xlink:href="#CMMI12-6c"/>
      <use transform="translate(221.097338 -14.943915)scale(0.697382)" xlink:href="#CMMI12-61"/>
      <use transform="translate(287.516783 0)scale(0.996264)" xlink:href="#CMR17-66"/>
      <use transform="translate(314.990295 0)scale(0.996264)" xlink:href="#CMR17-6f"/>
      <use transform="translate(360.680772 0)scale(0.996264)" xlink:href="#CMR17-72"/>
      <use transform="translate(426.037506 0)scale(0.996264)" xlink:href="#CMMI12-6e"/>
      <use transform="translate(511.941563 0)scale(0.996264)" xlink:href="#CMR17-3d"/>
      <use transform="translate(611.33036 0)scale(0.996264)" xlink:href="#CMR17-30"/>
      <use transform="translate(657.020837 0)scale(0.996264)" xlink:href="#CMMI12-3a"/>
      <use transform="translate(684.118014 0)scale(0.996264)" xlink:href="#CMR17-32"/>
     </g>
    </g>
    <g id="line2d_22">
     <path d="M 267.031386 234.065598 
L 287.031386 234.065598 
" style="fill:none;stroke:#000000;stroke-dasharray:0.75,4.5;stroke-dashoffset:0;stroke-width:1.5;"/>
    </g>
    <g id="line2d_23"/>
    <g id="text_14">
     <!-- $\rho(p)_{cla}$ for $n=1$ -->
     <g transform="translate(295.031386 237.565598)scale(0.1 -0.1)">
      <use transform="scale(0.996264)" xlink:href="#CMMI12-1a"/>
      <use transform="translate(50.314373 0)scale(0.996264)" xlink:href="#CMR17-28"/>
      <use transform="translate(85.595141 0)scale(0.996264)" xlink:href="#CMMI12-70"/>
      <use transform="translate(134.554655 0)scale(0.996264)" xlink:href="#CMR17-29"/>
      <use transform="translate(169.835422 -14.943915)scale(0.697382)" xlink:href="#CMMI12-63"/>
      <use transform="translate(199.223554 -14.943915)scale(0.697382)" xlink:href="#CMMI12-6c"/>
      <use transform="translate(221.097338 -14.943915)scale(0.697382)" xlink:href="#CMMI12-61"/>
      <use transform="translate(287.516783 0)scale(0.996264)" xlink:href="#CMR17-66"/>
      <use transform="translate(314.990295 0)scale(0.996264)" xlink:href="#CMR17-6f"/>
      <use transform="translate(360.680772 0)scale(0.996264)" xlink:href="#CMR17-72"/>
      <use transform="translate(426.037506 0)scale(0.996264)" xlink:href="#CMMI12-6e"/>
      <use transform="translate(511.941563 0)scale(0.996264)" xlink:href="#CMR17-3d"/>
      <use transform="translate(611.33036 0)scale(0.996264)" xlink:href="#CMR17-31"/>
     </g>
    </g>
    <g id="line2d_24">
     <path d="M 267.031386 249.028238 
L 287.031386 249.028238 
" style="fill:none;stroke:#000000;stroke-dasharray:0.75,9;stroke-dashoffset:0;stroke-width:1.5;"/>
    </g>
    <g id="line2d_25"/>
    <g id="text_15">
     <!-- $\rho(p)_{cla}$ for $n=2$ -->
     <g transform="translate(295.031386 252.528238)scale(0.1 -0.1)">
      <use transform="scale(0.996264)" xlink:href="#CMMI12-1a"/>
      <use transform="translate(50.314373 0)scale(0.996264)" xlink:href="#CMR17-28"/>
      <use transform="translate(85.595141 0)scale(0.996264)" xlink:href="#CMMI12-70"/>
      <use transform="translate(134.554655 0)scale(0.996264)" xlink:href="#CMR17-29"/>
      <use transform="translate(169.835422 -14.943915)scale(0.697382)" xlink:href="#CMMI12-63"/>
      <use transform="translate(199.223554 -14.943915)scale(0.697382)" xlink:href="#CMMI12-6c"/>
      <use transform="translate(221.097338 -14.943915)scale(0.697382)" xlink:href="#CMMI12-61"/>
      <use transform="translate(287.516783 0)scale(0.996264)" xlink:href="#CMR17-66"/>
      <use transform="translate(314.990295 0)scale(0.996264)" xlink:href="#CMR17-6f"/>
      <use transform="translate(360.680772 0)scale(0.996264)" xlink:href="#CMR17-72"/>
      <use transform="translate(426.037506 0)scale(0.996264)" xlink:href="#CMMI12-6e"/>
      <use transform="translate(511.941563 0)scale(0.996264)" xlink:href="#CMR17-3d"/>
      <use transform="translate(611.33036 0)scale(0.996264)" xlink:href="#CMR17-32"/>
     </g>
    </g>
   </g>
  </g>
 </g>
 <defs>
  <clipPath id="pfc2584da18">
   <rect height="256.818898" width="351.496063" x="36.052152" y="7.2"/>
  </clipPath>
 </defs>
</svg>
