<?xml version="1.0" encoding="utf-8" standalone="no"?>
<!DOCTYPE svg PUBLIC "-//W3C//DTD SVG 1.1//EN"
  "http://www.w3.org/Graphics/SVG/1.1/DTD/svg11.dtd">
<!-- Created with matplotlib (https://matplotlib.org/) -->
<svg height="170.07874pt" version="1.1" viewBox="0 0 453.543307 170.07874" width="453.543307pt" xmlns="http://www.w3.org/2000/svg" xmlns:xlink="http://www.w3.org/1999/xlink">
 <metadata>
  <rdf:RDF xmlns:cc="http://creativecommons.org/ns#" xmlns:dc="http://purl.org/dc/elements/1.1/" xmlns:rdf="http://www.w3.org/1999/02/22-rdf-syntax-ns#">
   <cc:Work>
    <dc:type rdf:resource="http://purl.org/dc/dcmitype/StillImage"/>
    <dc:date>2020-12-29T16:58:02.857305</dc:date>
    <dc:format>image/svg+xml</dc:format>
    <dc:creator>
     <cc:Agent>
      <dc:title>Matplotlib v3.3.3, https://matplotlib.org/</dc:title>
     </cc:Agent>
    </dc:creator>
   </cc:Work>
  </rdf:RDF>
 </metadata>
 <defs>
  <style type="text/css">*{stroke-linecap:butt;stroke-linejoin:round;}</style>
 </defs>
 <g id="figure_1">
  <g id="patch_1">
   <path d="M 0 170.07874 
L 453.543307 170.07874 
L 453.543307 0 
L 0 0 
z
" style="fill:#ffffff;"/>
  </g>
  <g id="axes_1">
   <g id="patch_2">
    <path d="M 30.57782 143.39875 
L 210.034937 143.39875 
L 210.034937 25.248 
L 30.57782 25.248 
z
" style="fill:#ffffff;"/>
   </g>
   <g id="matplotlib.axis_1">
    <g id="xtick_1">
     <g id="line2d_1">
      <defs>
       <path d="M 0 0 
L 0 3.5 
" id="mfe8bf0acc1" style="stroke:#000000;stroke-width:0.8;"/>
      </defs>
      <g>
       <use style="stroke:#000000;stroke-width:0.8;" x="38.734962" xlink:href="#mfe8bf0acc1" y="143.39875"/>
      </g>
     </g>
     <g id="text_1">
      <!-- $\mathdefault{0.0}$ -->
      <g transform="translate(32.369922 157.317249)scale(0.1 -0.1)">
       <defs>
        <path d="M 42 31.84375 
C 42 37.96875 41.90625 48.421875 37.703125 56.453125 
C 34 63.484375 28.09375 66 22.90625 66 
C 18.09375 66 12 63.78125 8.203125 56.5625 
C 4.203125 49.015625 3.796875 39.671875 3.796875 31.84375 
C 3.796875 26.109375 3.90625 17.375 7 9.734375 
C 11.296875 -0.609375 19 -2 22.90625 -2 
C 27.5 -2 34.5 -0.109375 38.59375 9.4375 
C 41.59375 16.375 42 24.5 42 31.84375 
z
M 22.90625 -0.40625 
C 16.5 -0.40625 12.703125 5.125 11.296875 12.75 
C 10.203125 18.6875 10.203125 27.328125 10.203125 32.953125 
C 10.203125 40.6875 10.203125 47.109375 11.5 53.234375 
C 13.40625 61.78125 19 64.390625 22.90625 64.390625 
C 27 64.390625 32.296875 61.671875 34.203125 53.4375 
C 35.5 47.71875 35.59375 40.984375 35.59375 32.953125 
C 35.59375 26.421875 35.59375 18.375 34.40625 12.453125 
C 32.296875 1.5 26.40625 -0.40625 22.90625 -0.40625 
z
" id="CMR17-48"/>
        <path d="M 18.40625 4.796875 
C 18.40625 7.6875 16 9.6875 13.59375 9.6875 
C 10.703125 9.6875 8.703125 7.296875 8.703125 4.890625 
C 8.703125 2 11.09375 0 13.5 0 
C 16.40625 0 18.40625 2.390625 18.40625 4.796875 
z
" id="CMMI12-58"/>
       </defs>
       <use transform="scale(0.996264)" xlink:href="#CMR17-48"/>
       <use transform="translate(45.690477 0)scale(0.996264)" xlink:href="#CMMI12-58"/>
       <use transform="translate(72.787654 0)scale(0.996264)" xlink:href="#CMR17-48"/>
      </g>
     </g>
    </g>
    <g id="xtick_2">
     <g id="line2d_2">
      <g>
       <use style="stroke:#000000;stroke-width:0.8;" x="79.439261" xlink:href="#mfe8bf0acc1" y="143.39875"/>
      </g>
     </g>
     <g id="text_2">
      <!-- $\mathdefault{2.5}$ -->
      <g transform="translate(73.074222 157.317249)scale(0.1 -0.1)">
       <defs>
        <path d="M 41.703125 15.46875 
L 39.90625 15.46875 
C 38.90625 8.390625 38.09375 7.1875 37.703125 6.59375 
C 37.203125 5.796875 30 5.796875 28.59375 5.796875 
L 9.40625 5.796875 
C 13 9.6875 20 16.765625 28.5 24.9375 
C 34.59375 30.71875 41.703125 37.5 41.703125 47.390625 
C 41.703125 59.1875 32.296875 66 21.796875 66 
C 10.796875 66 4.09375 56.296875 4.09375 47.296875 
C 4.09375 43.390625 7 42.890625 8.203125 42.890625 
C 9.203125 42.890625 12.203125 43.484375 12.203125 46.984375 
C 12.203125 50.09375 9.59375 51 8.203125 51 
C 7.59375 51 7 50.890625 6.59375 50.6875 
C 8.5 59.1875 14.296875 63.390625 20.40625 63.390625 
C 29.09375 63.390625 34.796875 56.5 34.796875 47.390625 
C 34.796875 38.703125 29.703125 31.21875 24 24.734375 
L 4.09375 2.296875 
L 4.09375 0 
L 39.296875 0 
z
" id="CMR17-50"/>
        <path d="M 11.40625 58.59375 
C 12.40625 58.1875 16.5 56.890625 20.703125 56.890625 
C 30 56.890625 35.09375 61.890625 38 64.6875 
C 38 65.484375 38 66 37.40625 66 
C 37.296875 66 37.09375 66 36.296875 65.59375 
C 32.796875 64.09375 28.703125 63 23.703125 63 
C 20.703125 63 16.203125 63.359375 11.296875 65.484375 
C 10.203125 66 10 66 9.90625 66 
C 9.40625 66 9.296875 65.890625 9.296875 63.90625 
L 9.296875 34.859375 
C 9.296875 33.015625 9.296875 32.5 10.296875 32.5 
C 10.796875 32.5 11 32.703125 11.5 33.421875 
C 14.703125 38.046875 19.09375 40 24.09375 40 
C 27.59375 40 35.09375 37.734375 35.09375 20.203125 
C 35.09375 16.984375 35.09375 11.1875 32.09375 6.59375 
C 29.59375 2.484375 25.703125 0.390625 21.40625 0.390625 
C 14.796875 0.390625 8.09375 4.984375 6.296875 12.6875 
C 6.703125 12.59375 7.5 12.390625 7.90625 12.390625 
C 9.203125 12.390625 11.703125 13.09375 11.703125 16.1875 
C 11.703125 18.890625 9.796875 20 7.90625 20 
C 5.59375 20 4.09375 18.59375 4.09375 15.796875 
C 4.09375 7.09375 11 -2 21.59375 -2 
C 31.90625 -2 41.703125 6.890625 41.703125 19.796875 
C 41.703125 32.09375 33.90625 41.59375 24.203125 41.59375 
C 19.09375 41.59375 14.796875 39.6875 11.40625 36 
z
" id="CMR17-53"/>
       </defs>
       <use transform="scale(0.996264)" xlink:href="#CMR17-50"/>
       <use transform="translate(45.690477 0)scale(0.996264)" xlink:href="#CMMI12-58"/>
       <use transform="translate(72.787654 0)scale(0.996264)" xlink:href="#CMR17-53"/>
      </g>
     </g>
    </g>
    <g id="xtick_3">
     <g id="line2d_3">
      <g>
       <use style="stroke:#000000;stroke-width:0.8;" x="120.143561" xlink:href="#mfe8bf0acc1" y="143.39875"/>
      </g>
     </g>
     <g id="text_3">
      <!-- $\mathdefault{5.0}$ -->
      <g transform="translate(113.778522 157.317249)scale(0.1 -0.1)">
       <use transform="scale(0.996264)" xlink:href="#CMR17-53"/>
       <use transform="translate(45.690477 0)scale(0.996264)" xlink:href="#CMMI12-58"/>
       <use transform="translate(72.787654 0)scale(0.996264)" xlink:href="#CMR17-48"/>
      </g>
     </g>
    </g>
    <g id="xtick_4">
     <g id="line2d_4">
      <g>
       <use style="stroke:#000000;stroke-width:0.8;" x="160.847861" xlink:href="#mfe8bf0acc1" y="143.39875"/>
      </g>
     </g>
     <g id="text_4">
      <!-- $\mathdefault{7.5}$ -->
      <g transform="translate(154.482821 157.317249)scale(0.1 -0.1)">
       <defs>
        <path d="M 45.09375 61.796875 
L 45.09375 64 
L 21.59375 64 
C 9.90625 64 9.703125 65.09375 9.296875 67 
L 7.5 67 
L 4.59375 48.5 
L 6.40625 48.5 
C 6.703125 50.40625 7.40625 55.5 8.59375 57.390625 
C 9.203125 58.1875 16.59375 58.1875 18.296875 58.1875 
L 40.296875 58.1875 
L 29.203125 41.71875 
C 21.796875 30.640625 16.703125 15.671875 16.703125 2.59375 
C 16.703125 1.390625 16.703125 -2 20.296875 -2 
C 23.90625 -2 23.90625 1.390625 23.90625 2.6875 
L 23.90625 7.28125 
C 23.90625 23.65625 26.703125 34.4375 31.296875 41.3125 
z
" id="CMR17-55"/>
       </defs>
       <use transform="scale(0.996264)" xlink:href="#CMR17-55"/>
       <use transform="translate(45.690477 0)scale(0.996264)" xlink:href="#CMMI12-58"/>
       <use transform="translate(72.787654 0)scale(0.996264)" xlink:href="#CMR17-53"/>
      </g>
     </g>
    </g>
    <g id="xtick_5">
     <g id="line2d_5">
      <g>
       <use style="stroke:#000000;stroke-width:0.8;" x="201.552161" xlink:href="#mfe8bf0acc1" y="143.39875"/>
      </g>
     </g>
     <g id="text_5">
      <!-- $\mathdefault{10.0}$ -->
      <g transform="translate(192.696454 157.317249)scale(0.1 -0.1)">
       <defs>
        <path d="M 26.59375 63.796875 
C 26.59375 65.890625 26.5 66 25.09375 66 
C 21.203125 61.359375 15.296875 59.890625 9.703125 59.6875 
C 9.40625 59.6875 8.90625 59.6875 8.796875 59.5 
C 8.703125 59.296875 8.703125 59.09375 8.703125 57 
C 11.796875 57 17 57.59375 21 59.984375 
L 21 7.296875 
C 21 3.796875 20.796875 2.59375 12.203125 2.59375 
L 9.203125 2.59375 
L 9.203125 0 
C 14 0.09375 19 0.1875 23.796875 0.1875 
C 28.59375 0.1875 33.59375 0.09375 38.40625 0 
L 38.40625 2.59375 
L 35.40625 2.59375 
C 26.796875 2.59375 26.59375 3.6875 26.59375 7.296875 
z
" id="CMR17-49"/>
       </defs>
       <use transform="scale(0.996264)" xlink:href="#CMR17-49"/>
       <use transform="translate(45.690477 0)scale(0.996264)" xlink:href="#CMR17-48"/>
       <use transform="translate(91.380954 0)scale(0.996264)" xlink:href="#CMMI12-58"/>
       <use transform="translate(118.478131 0)scale(0.996264)" xlink:href="#CMR17-48"/>
      </g>
     </g>
    </g>
   </g>
   <g id="matplotlib.axis_2">
    <g id="ytick_1">
     <g id="line2d_6">
      <defs>
       <path d="M 0 0 
L -3.5 0 
" id="m88f991ffd8" style="stroke:#000000;stroke-width:0.8;"/>
      </defs>
      <g>
       <use style="stroke:#000000;stroke-width:0.8;" x="30.57782" xlink:href="#m88f991ffd8" y="138.776561"/>
      </g>
     </g>
     <g id="text_6">
      <!-- $\mathdefault{0.00}$ -->
      <g transform="translate(5.866406 142.23581)scale(0.1 -0.1)">
       <use transform="scale(0.996264)" xlink:href="#CMR17-48"/>
       <use transform="translate(45.690477 0)scale(0.996264)" xlink:href="#CMMI12-58"/>
       <use transform="translate(72.787654 0)scale(0.996264)" xlink:href="#CMR17-48"/>
       <use transform="translate(118.478131 0)scale(0.996264)" xlink:href="#CMR17-48"/>
      </g>
     </g>
    </g>
    <g id="ytick_2">
     <g id="line2d_7">
      <g>
       <use style="stroke:#000000;stroke-width:0.8;" x="30.57782" xlink:href="#m88f991ffd8" y="111.737043"/>
      </g>
     </g>
     <g id="text_7">
      <!-- $\mathdefault{0.25}$ -->
      <g transform="translate(5.866406 115.196292)scale(0.1 -0.1)">
       <use transform="scale(0.996264)" xlink:href="#CMR17-48"/>
       <use transform="translate(45.690477 0)scale(0.996264)" xlink:href="#CMMI12-58"/>
       <use transform="translate(72.787654 0)scale(0.996264)" xlink:href="#CMR17-50"/>
       <use transform="translate(118.478131 0)scale(0.996264)" xlink:href="#CMR17-53"/>
      </g>
     </g>
    </g>
    <g id="ytick_3">
     <g id="line2d_8">
      <g>
       <use style="stroke:#000000;stroke-width:0.8;" x="30.57782" xlink:href="#m88f991ffd8" y="84.697525"/>
      </g>
     </g>
     <g id="text_8">
      <!-- $\mathdefault{0.50}$ -->
      <g transform="translate(5.866406 88.156774)scale(0.1 -0.1)">
       <use transform="scale(0.996264)" xlink:href="#CMR17-48"/>
       <use transform="translate(45.690477 0)scale(0.996264)" xlink:href="#CMMI12-58"/>
       <use transform="translate(72.787654 0)scale(0.996264)" xlink:href="#CMR17-53"/>
       <use transform="translate(118.478131 0)scale(0.996264)" xlink:href="#CMR17-48"/>
      </g>
     </g>
    </g>
    <g id="ytick_4">
     <g id="line2d_9">
      <g>
       <use style="stroke:#000000;stroke-width:0.8;" x="30.57782" xlink:href="#m88f991ffd8" y="57.658007"/>
      </g>
     </g>
     <g id="text_9">
      <!-- $\mathdefault{0.75}$ -->
      <g transform="translate(5.866406 61.117256)scale(0.1 -0.1)">
       <use transform="scale(0.996264)" xlink:href="#CMR17-48"/>
       <use transform="translate(45.690477 0)scale(0.996264)" xlink:href="#CMMI12-58"/>
       <use transform="translate(72.787654 0)scale(0.996264)" xlink:href="#CMR17-55"/>
       <use transform="translate(118.478131 0)scale(0.996264)" xlink:href="#CMR17-53"/>
      </g>
     </g>
    </g>
    <g id="ytick_5">
     <g id="line2d_10">
      <g>
       <use style="stroke:#000000;stroke-width:0.8;" x="30.57782" xlink:href="#m88f991ffd8" y="30.618489"/>
      </g>
     </g>
     <g id="text_10">
      <!-- $\mathdefault{1.00}$ -->
      <g transform="translate(5.866406 34.077738)scale(0.1 -0.1)">
       <use transform="scale(0.996264)" xlink:href="#CMR17-49"/>
       <use transform="translate(45.690477 0)scale(0.996264)" xlink:href="#CMMI12-58"/>
       <use transform="translate(72.787654 0)scale(0.996264)" xlink:href="#CMR17-48"/>
       <use transform="translate(118.478131 0)scale(0.996264)" xlink:href="#CMR17-48"/>
      </g>
     </g>
    </g>
   </g>
   <g id="line2d_11">
    <path clip-path="url(#p8e3bbc7e26)" d="M 38.734962 30.618489 
L 39.223413 30.618489 
L 39.711865 30.67437 
L 40.200316 30.758463 
L 40.688768 30.873535 
L 41.17722 31.020455 
L 41.665671 31.19952 
L 42.154123 31.41086 
L 42.642574 31.654539 
L 43.131026 31.930594 
L 43.619478 32.239046 
L 44.107929 32.579909 
L 44.596381 32.953192 
L 45.084832 33.358901 
L 45.573284 33.797041 
L 46.061736 34.267615 
L 46.550187 34.770625 
L 47.038639 35.306074 
L 47.52709 35.873963 
L 48.015542 36.474294 
L 48.503994 37.107066 
L 48.992445 37.772282 
L 49.480897 38.46994 
L 49.969348 39.200043 
L 50.4578 39.96259 
L 50.946252 40.757583 
L 51.434703 41.58502 
L 51.923155 42.444902 
L 52.411606 43.33723 
L 52.900058 44.262004 
L 53.38851 45.219224 
L 53.876961 46.20889 
L 54.365413 47.231002 
L 54.853864 48.28556 
L 55.342316 49.372565 
L 55.830768 50.492016 
L 56.319219 51.643914 
L 56.807671 52.828259 
L 57.296122 54.04505 
L 57.784574 55.294288 
L 58.273026 56.575973 
L 58.761477 57.890104 
L 59.249929 59.236683 
L 59.73838 60.615708 
L 60.226832 62.027181 
L 60.715284 63.4711 
L 61.203735 64.947467 
L 61.692187 66.45628 
L 62.180638 67.997541 
L 62.66909 69.571248 
L 63.157542 71.177403 
L 63.645993 72.816005 
L 64.134445 74.487054 
L 64.622896 76.19055 
L 65.111348 77.926494 
L 65.599799 79.694884 
L 66.088251 81.495722 
L 66.576703 83.329007 
L 67.065154 85.194739 
L 67.553606 87.092919 
L 68.042057 89.023546 
L 68.530509 90.986619 
L 69.018961 92.982141 
L 69.507412 95.010109 
L 69.995864 97.070525 
L 70.484315 99.163388 
L 70.972767 101.288698 
L 71.461219 103.446456 
L 71.94967 105.636661 
L 72.438122 107.859313 
L 72.926573 110.114413 
L 73.415025 112.40196 
L 73.903477 114.721954 
L 74.391928 117.074395 
L 74.88038 119.459284 
L 75.368831 121.87662 
L 75.857283 124.326404 
L 76.345735 126.808635 
L 76.834186 129.323313 
L 77.322638 131.870439 
L 77.811089 134.450012 
L 78.299541 137.062032 
" style="fill:none;stroke:#000000;stroke-dasharray:5.55,2.4;stroke-dashoffset:0;stroke-width:1.5;"/>
   </g>
   <g id="line2d_12">
    <path clip-path="url(#p8e3bbc7e26)" d="M 38.734962 30.618489 
L 39.223413 30.618489 
L 39.711865 30.674362 
L 40.200316 30.758413 
L 40.688768 30.873364 
L 41.17722 31.020021 
L 41.665671 31.198604 
L 42.154123 31.409146 
L 42.642574 31.651598 
L 43.131026 31.925865 
L 43.619478 32.231822 
L 44.107929 32.569316 
L 44.596381 32.938176 
L 45.084832 33.338209 
L 45.573284 33.769204 
L 46.061736 34.230932 
L 46.550187 34.723148 
L 47.038639 35.245589 
L 47.52709 35.797976 
L 48.015542 36.380014 
L 48.503994 36.991389 
L 48.992445 37.631777 
L 49.480897 38.300833 
L 49.969348 38.998201 
L 50.4578 39.723507 
L 50.946252 40.476364 
L 51.434703 41.25637 
L 51.923155 42.063109 
L 52.411606 42.896151 
L 52.900058 43.755052 
L 53.38851 44.639356 
L 53.876961 45.548592 
L 54.365413 46.482278 
L 54.853864 47.439919 
L 55.342316 48.421007 
L 55.830768 49.425024 
L 56.319219 50.451438 
L 56.807671 51.499709 
L 57.296122 52.569285 
L 57.784574 53.659601 
L 58.273026 54.770087 
L 58.761477 55.900158 
L 59.249929 57.049224 
L 59.73838 58.216684 
L 60.226832 59.401929 
L 60.715284 60.60434 
L 61.203735 61.823292 
L 61.692187 63.058154 
L 62.180638 64.308285 
L 62.66909 65.573039 
L 63.157542 66.851764 
L 63.645993 68.1438 
L 64.134445 69.448486 
L 64.622896 70.765151 
L 65.111348 72.093123 
L 65.599799 73.431725 
L 66.088251 74.780275 
L 66.576703 76.13809 
L 67.065154 77.504482 
L 67.553606 78.878762 
L 68.042057 80.260238 
L 68.530509 81.648217 
L 69.018961 83.042006 
L 69.507412 84.440908 
L 69.995864 85.844228 
L 70.484315 87.251273 
L 70.972767 88.661346 
L 71.461219 90.073755 
L 71.94967 91.487807 
L 72.438122 92.902812 
L 72.926573 94.318082 
L 73.415025 95.732931 
L 73.903477 97.146677 
L 74.391928 98.558641 
L 74.88038 99.968149 
L 75.368831 101.374528 
L 75.857283 102.777115 
L 76.345735 104.175246 
L 76.834186 105.568268 
L 77.322638 106.955531 
L 77.811089 108.33639 
L 78.299541 109.71021 
L 78.787993 111.076362 
L 79.276444 112.434222 
L 79.764896 113.783175 
L 80.253347 115.122617 
L 80.741799 116.451948 
L 81.230251 117.77058 
L 81.718702 119.077932 
L 82.207154 120.373433 
L 82.695605 121.656523 
L 83.184057 122.926651 
L 83.672509 124.183276 
L 84.16096 125.425869 
L 84.649412 126.653911 
L 85.137863 127.866893 
L 85.626315 129.064321 
L 86.114767 130.24571 
L 86.603218 131.410588 
L 87.09167 132.558495 
L 87.580121 133.688984 
L 88.068573 134.801619 
L 88.557025 135.895981 
L 89.045476 136.97166 
L 89.533928 138.028262 
" style="fill:none;stroke:#000000;stroke-dasharray:1.5,2.475;stroke-dashoffset:0;stroke-width:1.5;"/>
   </g>
   <g id="line2d_13">
    <path clip-path="url(#p8e3bbc7e26)" d="M 38.734962 30.618489 
L 39.711865 30.67433 
L 41.17722 31.018297 
L 42.642574 31.640042 
L 44.107929 32.528358 
L 45.573284 33.663772 
L 47.52709 35.519923 
L 49.480897 37.707311 
L 51.923155 40.802695 
L 55.342316 45.578669 
L 67.553606 63.130885 
L 71.461219 68.172829 
L 74.88038 72.245508 
L 78.299541 75.999237 
L 81.718702 79.445974 
L 85.137863 82.604997 
L 89.045476 85.891988 
L 92.953089 88.867464 
L 96.860702 91.564976 
L 101.256766 94.305908 
L 105.65283 96.773703 
L 110.537346 99.237195 
L 115.421862 101.446679 
L 120.79483 103.624662 
L 126.656249 105.742454 
L 133.00612 107.778735 
L 139.844442 109.718794 
L 147.171216 111.553548 
L 154.986442 113.27848 
L 163.77857 114.9814 
L 173.059151 116.553539 
L 183.316634 118.070241 
L 195.039473 119.572311 
L 201.877795 120.353414 
L 201.877795 120.353414 
" style="fill:none;stroke:#000000;stroke-dasharray:9.6,2.4,1.5,2.4;stroke-dashoffset:0;stroke-width:1.5;"/>
   </g>
   <g id="patch_3">
    <path d="M 30.57782 143.39875 
L 30.57782 25.248 
" style="fill:none;stroke:#000000;stroke-linecap:square;stroke-linejoin:miter;stroke-width:0.8;"/>
   </g>
   <g id="patch_4">
    <path d="M 210.034937 143.39875 
L 210.034937 25.248 
" style="fill:none;stroke:#000000;stroke-linecap:square;stroke-linejoin:miter;stroke-width:0.8;"/>
   </g>
   <g id="patch_5">
    <path d="M 30.57782 143.39875 
L 210.034937 143.39875 
" style="fill:none;stroke:#000000;stroke-linecap:square;stroke-linejoin:miter;stroke-width:0.8;"/>
   </g>
   <g id="patch_6">
    <path d="M 30.57782 25.248 
L 210.034937 25.248 
" style="fill:none;stroke:#000000;stroke-linecap:square;stroke-linejoin:miter;stroke-width:0.8;"/>
   </g>
   <g id="text_11">
    <!-- Exact Solutions for $n=0,1,5$ -->
    <g transform="translate(43.75192 19.248)scale(0.12 -0.12)">
     <defs>
      <path d="M 60.703125 25.21875 
L 58.90625 25.21875 
C 56.703125 10.5625 55.40625 2.59375 37.796875 2.59375 
L 23.90625 2.59375 
C 19.90625 2.59375 19.703125 3.09375 19.703125 6.484375 
L 19.703125 34 
L 29.09375 34 
C 38.5 34 39.40625 30.609375 39.40625 22.328125 
L 41.203125 22.328125 
L 41.203125 48.21875 
L 39.40625 48.21875 
C 39.40625 39.96875 38.5 36.59375 29.09375 36.59375 
L 19.703125 36.59375 
L 19.703125 61.3125 
C 19.703125 64.703125 19.90625 65.1875 23.90625 65.1875 
L 37.59375 65.1875 
C 53.09375 65.1875 54.90625 59.03125 56.296875 45.828125 
L 58.09375 45.828125 
L 55.703125 67.796875 
L 5.09375 67.796875 
L 5.09375 65.1875 
C 12 65.1875 13.09375 65.1875 13.09375 60.71875 
L 13.09375 7.078125 
C 13.09375 2.59375 12 2.59375 5.09375 2.59375 
L 5.09375 0 
L 57.09375 0 
z
" id="CMR17-69"/>
      <path d="M 26 23.296875 
C 29 27.1875 32.40625 31.59375 35.203125 34.890625 
C 38.5 38.6875 42.296875 40.296875 46.703125 40.390625 
L 46.703125 43 
C 45 42.890625 41.5 42.796875 39.703125 42.796875 
C 37 42.796875 33.90625 42.796875 31.59375 43 
L 31.59375 40.390625 
C 33 40.1875 33.796875 39.1875 33.796875 37.796875 
C 33.796875 36 32.796875 34.890625 32.296875 34.1875 
L 24.90625 24.796875 
L 16.09375 36.296875 
C 15.203125 37.390625 15.203125 37.59375 15.203125 38.09375 
C 15.203125 39.296875 16.203125 40.296875 17.90625 40.390625 
L 17.90625 43 
C 15.5 42.796875 11.203125 42.796875 8.703125 42.796875 
C 6 42.796875 2.796875 42.796875 0.59375 43 
L 0.59375 40.390625 
C 6 40.390625 7.203125 40 9.59375 37 
L 21.09375 22.09375 
C 21.296875 21.890625 21.796875 21.296875 21.796875 21 
C 21.796875 20.59375 13.09375 9.890625 12 8.5 
C 7.5 3.09375 2.796875 2.6875 0.09375 2.59375 
L 0.09375 0 
C 1.796875 0.09375 5.296875 0.1875 7.09375 0.1875 
C 9.09375 0.1875 13.5 0.1875 15.296875 0 
L 15.296875 2.59375 
C 14.703125 2.6875 13.09375 2.890625 13.09375 5.1875 
C 13.09375 7 13.90625 8.09375 14.796875 9.296875 
L 23.09375 19.5 
L 31.796875 8.1875 
C 32.59375 7.09375 33.796875 5.59375 33.796875 4.890625 
C 33.796875 3.5 32.59375 2.6875 31 2.59375 
L 31 0 
C 33.40625 0.1875 37.703125 0.1875 40.203125 0.1875 
C 42.90625 0.1875 46.09375 0.1875 48.296875 0 
L 48.296875 2.59375 
C 43.296875 2.59375 41.796875 2.796875 39.40625 5.890625 
z
" id="CMR17-120"/>
      <path d="M 36 25.875 
C 36 32 36 35.546875 31.796875 39.59375 
C 28.09375 42.984375 23.796875 44 20.40625 44 
C 12.5 44 6.796875 37.625 6.796875 30.890625 
C 6.796875 27.1875 9.796875 27 10.40625 27 
C 11.703125 27 14 27.796875 14 30.59375 
C 14 33.09375 12.09375 34.1875 10.40625 34.1875 
C 10 34.1875 9.5 34.09375 9.203125 34 
C 11.296875 40.53125 16.703125 42.390625 20.203125 42.390625 
C 25.203125 42.390625 30.703125 37.828125 30.703125 29.296875 
L 30.703125 25.5 
C 24.796875 25.296875 17.703125 24.5 12.09375 21.453125 
C 5.796875 17.921875 4 12.84375 4 9 
C 4 1.203125 13 -1 18.296875 -1 
C 23.796875 -1 28.90625 2.109375 31.09375 7.890625 
C 31.296875 3.421875 34.09375 -0.609375 38.5 -0.609375 
C 40.59375 -0.609375 45.90625 0.796875 45.90625 8.796875 
L 45.90625 14.46875 
L 44.09375 14.46875 
L 44.09375 8.703125 
C 44.09375 2.515625 41.40625 1.703125 40.09375 1.703125 
C 36 1.703125 36 6.96875 36 11.4375 
z
M 30.703125 13.859375 
C 30.703125 5.046875 24.5 0.59375 19 0.59375 
C 14 0.59375 10.09375 4.34375 10.09375 9 
C 10.09375 12.046875 11.40625 17.40625 17.203125 20.65625 
C 22 23.390625 27.5 23.796875 30.703125 24 
z
" id="CMR17-97"/>
      <path d="M 34.90625 35 
C 33 35 30.203125 35 30.203125 31.484375 
C 30.203125 28.6875 32.5 27.890625 33.796875 27.890625 
C 34.5 27.890625 37.40625 28.1875 37.40625 31.6875 
C 37.40625 38.6875 30.59375 44 22.90625 44 
C 12.296875 44 3.296875 34.390625 3.296875 21.546875 
C 3.296875 8.140625 12.703125 -1 22.90625 -1 
C 35.296875 -1 38.40625 10.5625 38.40625 11.671875 
C 38.40625 12.078125 38.296875 12.375 37.59375 12.375 
C 36.90625 12.375 36.796875 12.28125 36.40625 10.96875 
C 33.796875 2.8125 28.09375 0.796875 23.796875 0.796875 
C 17.40625 0.796875 9.703125 6.734375 9.703125 21.640625 
C 9.703125 36.84375 17.09375 42.1875 23 42.1875 
C 26.90625 42.1875 32.703125 40.34375 34.90625 35 
z
" id="CMR17-99"/>
      <path d="M 15.09375 40.390625 
L 29.09375 40.390625 
L 29.09375 43 
L 15.09375 43 
L 15.09375 62 
L 13.296875 62 
C 13.09375 51.4375 9.59375 42.1875 1.09375 41.984375 
L 1.09375 40.390625 
L 9.796875 40.390625 
L 9.796875 12.15625 
C 9.796875 10.234375 9.796875 -1 21.40625 -1 
C 27.296875 -1 30.703125 4.8125 30.703125 12.25 
L 30.703125 17.984375 
L 28.90625 17.984375 
L 28.90625 12.34375 
C 28.90625 5.421875 26.203125 0.796875 22 0.796875 
C 19.09375 0.796875 15.09375 2.796875 15.09375 11.953125 
z
" id="CMR17-116"/>
      <path d="M 43.796875 67.984375 
C 43.796875 69.796875 43.703125 69.890625 43.09375 69.890625 
C 42.5 69.890625 42.296875 69.484375 41.90625 68.59375 
L 38.90625 61.953125 
C 35.09375 67.5 29.296875 70 23 70 
C 12.796875 70 4.59375 61.84375 4.59375 51.578125 
C 4.59375 48.453125 5.296875 44.015625 8.703125 39.78125 
C 12.40625 35.15625 15.90625 34.34375 23.90625 32.234375 
C 26.90625 31.421875 31.90625 30.109375 32.90625 29.703125 
C 38.59375 27.296875 41.59375 21.25 41.59375 15.609375 
C 41.59375 8.34375 36.5 0.59375 27.796875 0.59375 
C 17.09375 0.59375 7.09375 6.640625 6.40625 20.75 
C 6.296875 22.359375 6.203125 22.453125 5.5 22.453125 
C 4.703125 22.453125 4.59375 22.359375 4.59375 20.34375 
L 4.59375 0 
C 4.59375 -1.8125 4.703125 -1.90625 5.296875 -1.90625 
C 6 -1.90625 6.203125 -1.40625 7.59375 1.703125 
C 7.703125 2 7.703125 2.203125 9.59375 6.03125 
C 14.59375 -0.609375 23 -2 27.796875 -2 
C 38.703125 -2 46.40625 7.140625 46.40625 17.828125 
C 46.40625 23.0625 44.5 27.09375 43.40625 28.90625 
C 39.203125 35.359375 34.703125 36.5625 29.90625 37.765625 
C 29.203125 38.078125 29 38.078125 23.40625 39.484375 
C 18 40.890625 15.703125 41.59375 13.203125 44.3125 
C 10.40625 47.4375 9.40625 50.671875 9.40625 53.890625 
C 9.40625 60.4375 14.59375 67.59375 23.09375 67.59375 
C 33.703125 67.59375 40.296875 60.03125 41.796875 47.4375 
C 42.09375 45.625 42.203125 45.53125 42.90625 45.53125 
C 43.796875 45.53125 43.796875 45.828125 43.796875 47.546875 
z
" id="CMR17-83"/>
      <path d="M 43.09375 21.1875 
C 43.09375 34 33.796875 44 22.90625 44 
C 12 44 2.703125 34 2.703125 21.1875 
C 2.703125 8.59375 12 -1 22.90625 -1 
C 33.796875 -1 43.09375 8.59375 43.09375 21.1875 
z
M 22.90625 0.796875 
C 18.203125 0.796875 14.203125 3.59375 11.90625 7.5 
C 9.40625 12 9.09375 17.59375 9.09375 22 
C 9.09375 26.1875 9.296875 31.390625 11.90625 35.890625 
C 13.90625 39.1875 17.796875 42.390625 22.90625 42.390625 
C 27.40625 42.390625 31.203125 39.890625 33.59375 36.390625 
C 36.703125 31.6875 36.703125 25.09375 36.703125 22 
C 36.703125 18.09375 36.5 12.09375 33.796875 7.296875 
C 31 2.6875 26.703125 0.796875 22.90625 0.796875 
z
" id="CMR17-111"/>
      <path d="M 15.296875 69 
L 3.40625 67.890625 
L 3.40625 65.296875 
C 9.296875 65.296875 10.203125 64.703125 10.203125 59.921875 
L 10.203125 6.859375 
C 10.203125 3.09375 9.796875 2.59375 3.40625 2.59375 
L 3.40625 0 
C 5.796875 0.1875 10.203125 0.1875 12.703125 0.1875 
C 15.296875 0.1875 19.703125 0.1875 22.09375 0 
L 22.09375 2.59375 
C 15.703125 2.59375 15.296875 2.984375 15.296875 6.859375 
z
" id="CMR17-108"/>
      <path d="M 29.40625 42.890625 
L 29.40625 40.296875 
C 35.296875 40.296875 36.203125 39.6875 36.203125 34.828125 
L 36.203125 16.453125 
C 36.203125 7.96875 31.703125 0.59375 24.296875 0.59375 
C 16.09375 0.59375 15.40625 5.546875 15.40625 10.796875 
L 15.40625 44 
L 3.296875 42.890625 
L 3.296875 40.296875 
C 7.296875 40.296875 10 40.296875 10.09375 36.25 
L 10.09375 16.859375 
C 10.09375 10.09375 10.09375 5.75 12.703125 2.921875 
C 14 1.609375 16.5 -1 23.703125 -1 
C 32.203125 -1 35.5 6.25 36.296875 8.375 
L 36.40625 8.375 
L 36.40625 -1 
L 48.296875 -0.203125 
L 48.296875 2.40625 
C 42.40625 2.40625 41.5 3.015625 41.5 7.859375 
L 41.5 44 
z
" id="CMR17-117"/>
      <path d="M 15.5 61.890625 
C 15.5 64.09375 13.703125 66 11.40625 66 
C 9.203125 66 7.296875 64.1875 7.296875 61.890625 
C 7.296875 59.6875 9.09375 57.796875 11.40625 57.796875 
C 13.59375 57.796875 15.5 59.59375 15.5 61.890625 
z
M 3.796875 42.890625 
L 3.796875 40.296875 
C 9.40625 40.296875 10.203125 39.6875 10.203125 34.859375 
L 10.203125 6.921875 
C 10.203125 3.09375 9.796875 2.59375 3.40625 2.59375 
L 3.40625 0 
C 5.796875 0.1875 10.09375 0.1875 12.59375 0.1875 
C 15 0.1875 19.09375 0.1875 21.40625 0 
L 21.40625 2.59375 
C 15.5 2.59375 15.296875 3.203125 15.296875 6.8125 
L 15.296875 44 
z
" id="CMR17-105"/>
      <path d="M 41.5 30.53125 
C 41.5 35.65625 40.5 44 28.703125 44 
C 20.796875 44 16.703125 37.875 15.203125 33.84375 
L 15.09375 33.84375 
L 15.09375 44 
L 3.296875 42.890625 
L 3.296875 40.28125 
C 9.203125 40.28125 10.09375 39.6875 10.09375 34.859375 
L 10.09375 6.921875 
C 10.09375 3.09375 9.703125 2.59375 3.296875 2.59375 
L 3.296875 0 
C 5.703125 0.1875 10.09375 0.1875 12.703125 0.1875 
C 15.296875 0.1875 19.796875 0.1875 22.203125 0 
L 22.203125 2.59375 
C 15.796875 2.59375 15.40625 3 15.40625 6.921875 
L 15.40625 26.21875 
C 15.40625 35.453125 21 42.390625 28 42.390625 
C 35.40625 42.390625 36.203125 35.765625 36.203125 30.9375 
L 36.203125 6.921875 
C 36.203125 3.09375 35.796875 2.59375 29.40625 2.59375 
L 29.40625 0 
C 31.796875 0.1875 36.203125 0.1875 38.796875 0.1875 
C 41.40625 0.1875 45.90625 0.1875 48.296875 0 
L 48.296875 2.59375 
C 41.90625 2.59375 41.5 3 41.5 6.921875 
z
" id="CMR17-110"/>
      <path d="M 30.90625 42 
C 30.90625 43.796875 30.796875 43.890625 30.203125 43.890625 
C 29.796875 43.890625 29.703125 43.796875 28.5 42.296875 
C 28.203125 41.890625 27.296875 40.890625 27 40.5 
C 23.796875 43.890625 19.296875 44 17.59375 44 
C 6.5 44 2.5 38.1875 2.5 32.390625 
C 2.5 23.390625 12.703125 21.296875 15.59375 20.6875 
C 21.90625 19.390625 24.09375 19 26.203125 17.1875 
C 27.5 16 29.703125 13.796875 29.703125 10.1875 
C 29.703125 6 27.296875 0.59375 18.09375 0.59375 
C 9.40625 0.59375 6.296875 7.1875 4.5 16 
C 4.203125 17.390625 4.203125 17.5 3.40625 17.5 
C 2.59375 17.5 2.5 17.390625 2.5 15.390625 
L 2.5 1 
C 2.5 -0.8125 2.59375 -0.90625 3.203125 -0.90625 
C 3.703125 -0.90625 3.796875 -0.8125 4.296875 0 
C 4.90625 0.890625 6.40625 3.296875 7 4.296875 
C 9 1.59375 12.5 -1 18.09375 -1 
C 28 -1 33.296875 4.390625 33.296875 12.1875 
C 33.296875 17.296875 30.59375 20 29.296875 21.1875 
C 26.296875 24.296875 22.796875 25 18.59375 25.796875 
C 13.09375 27 6.09375 28.390625 6.09375 34.5 
C 6.09375 37.09375 7.5 42.59375 17.59375 42.59375 
C 28.296875 42.59375 28.90625 32.59375 29.09375 29.390625 
C 29.203125 28.890625 29.703125 28.796875 30 28.796875 
C 30.90625 28.796875 30.90625 29.09375 30.90625 30.796875 
z
" id="CMR17-115"/>
      <path d="M 15.296875 40.390625 
L 26.703125 40.390625 
L 26.703125 43 
L 15.09375 43 
L 15.09375 55.296875 
C 15.09375 63.6875 19.296875 68.390625 23.59375 68.390625 
C 24.90625 68.390625 26.40625 68.171875 27.40625 67.796875 
C 26.59375 67.59375 24.5 66.890625 24.5 64.390625 
C 24.5 61.796875 26.5 61 27.90625 61 
C 29.296875 61 31.296875 61.796875 31.296875 64.390625 
C 31.296875 68.015625 27.703125 70 23.703125 70 
C 18 70 10.203125 65.796875 10.203125 55.09375 
L 10.203125 43 
L 2.203125 43 
L 2.203125 40.390625 
L 10.203125 40.390625 
L 10.203125 6.890625 
C 10.203125 3.09375 9.796875 2.59375 3.40625 2.59375 
L 3.40625 0 
C 5.796875 0.1875 10.40625 0.1875 13 0.1875 
C 15.90625 0.1875 21 0.1875 23.703125 0 
L 23.703125 2.59375 
C 16.5 2.59375 15.296875 2.59375 15.296875 7.09375 
z
" id="CMR17-102"/>
      <path d="M 15 23.703125 
C 15 33.34375 19.09375 42.390625 26.59375 42.390625 
C 27.296875 42.390625 28 42.296875 28.703125 41.984375 
C 28.703125 41.984375 26.5 41.28125 26.5 38.671875 
C 26.5 36.265625 28.40625 35.265625 29.90625 35.265625 
C 31.09375 35.265625 33.296875 35.96875 33.296875 38.78125 
C 33.296875 41.984375 30.09375 44 26.703125 44 
C 19.09375 44 15.796875 36.5625 14.796875 33.046875 
L 14.703125 33.046875 
L 14.703125 44 
L 3.09375 42.890625 
L 3.09375 40.28125 
C 9 40.28125 9.90625 39.6875 9.90625 34.859375 
L 9.90625 6.921875 
C 9.90625 3.09375 9.5 2.59375 3.09375 2.59375 
L 3.09375 0 
C 5.5 0.1875 10.09375 0.1875 12.703125 0.1875 
C 15.59375 0.1875 20.703125 0.1875 23.40625 0 
L 23.40625 2.59375 
C 16.203125 2.59375 15 2.59375 15 7.109375 
z
" id="CMR17-114"/>
      <path d="M 20.59375 29.21875 
C 20.796875 29.828125 23.296875 34.8125 27 38 
C 29.59375 40.390625 33 41.984375 36.90625 41.984375 
C 40.90625 41.984375 42.296875 39 42.296875 35.015625 
C 42.296875 29.328125 38.203125 17.953125 36.203125 12.5625 
C 35.296875 10.171875 34.796875 8.875 34.796875 7.078125 
C 34.796875 2.59375 37.90625 -1 42.703125 -1 
C 52 -1 55.5 13.65625 55.5 14.265625 
C 55.5 14.765625 55.09375 15.15625 54.5 15.15625 
C 53.59375 15.15625 53.5 14.859375 53 13.15625 
C 50.703125 4.984375 46.90625 1 43 1 
C 42 1 40.40625 1.09375 40.40625 4.28125 
C 40.40625 6.78125 41.5 9.765625 42.09375 11.171875 
C 44.09375 16.65625 48.296875 27.828125 48.296875 33.515625 
C 48.296875 39.5 44.796875 44 37.203125 44 
C 28.296875 44 23.59375 37.703125 21.796875 35.203125 
C 21.5 40.890625 17.40625 44 13 44 
C 9.796875 44 7.59375 42.09375 5.90625 38.703125 
C 4.09375 35.109375 2.703125 29.125 2.703125 28.71875 
C 2.703125 28.328125 3.09375 27.828125 3.796875 27.828125 
C 4.59375 27.828125 4.703125 27.921875 5.296875 30.21875 
C 6.90625 36.3125 8.703125 41.984375 12.703125 41.984375 
C 15 41.984375 15.796875 40.390625 15.796875 37.40625 
C 15.796875 35.203125 14.796875 31.3125 14.09375 28.234375 
L 11.296875 17.453125 
C 10.90625 15.5625 9.796875 11.0625 9.296875 9.265625 
C 8.59375 6.671875 7.5 1.984375 7.5 1.484375 
C 7.5 0.09375 8.59375 -1 10.09375 -1 
C 11.296875 -1 12.703125 -0.40625 13.5 1.09375 
C 13.703125 1.59375 14.59375 5.078125 15.09375 7.078125 
L 17.296875 16.0625 
z
" id="CMMI12-110"/>
      <path d="M 64.296875 32 
C 65.796875 32 67.296875 32 67.296875 33.6875 
C 67.296875 35.5 65.59375 35.5 63.90625 35.5 
L 8 35.5 
C 6.296875 35.5 4.59375 35.5 4.59375 33.6875 
C 4.59375 32 6.09375 32 7.59375 32 
z
M 63.90625 14.484375 
C 65.59375 14.484375 67.296875 14.484375 67.296875 16.296875 
C 67.296875 18 65.796875 18 64.296875 18 
L 7.59375 18 
C 6.09375 18 4.59375 18 4.59375 16.296875 
C 4.59375 14.484375 6.296875 14.484375 8 14.484375 
z
" id="CMR17-61"/>
      <path d="M 19.5 -0.40625 
C 19.5 5.390625 17.59375 9.6875 13.5 9.6875 
C 10.296875 9.6875 8.703125 7.09375 8.703125 4.890625 
C 8.703125 2.6875 10.203125 0 13.59375 0 
C 14.90625 0 16 0.390625 16.90625 1.296875 
C 17.09375 1.5 17.203125 1.5 17.296875 1.5 
C 17.5 1.5 17.5 0.09375 17.5 -0.40625 
C 17.5 -3.640625 16.90625 -10.03125 11.09375 -16.421875 
C 10 -17.609375 10 -17.8125 10 -18 
C 10 -18.5 10.5 -19 11 -19 
C 11.796875 -19 19.5 -11.703125 19.5 -0.40625 
z
" id="CMMI12-59"/>
     </defs>
     <use transform="scale(0.996264)" xlink:href="#CMR17-69"/>
     <use transform="translate(62.586301 0)scale(0.996264)" xlink:href="#CMR17-120"/>
     <use transform="translate(110.879216 0)scale(0.996264)" xlink:href="#CMR17-97"/>
     <use transform="translate(156.569693 0)scale(0.996264)" xlink:href="#CMR17-99"/>
     <use transform="translate(197.055354 0)scale(0.996264)" xlink:href="#CMR17-116"/>
     <use transform="translate(262.412088 0)scale(0.996264)" xlink:href="#CMR17-83"/>
     <use transform="translate(313.307458 0)scale(0.996264)" xlink:href="#CMR17-111"/>
     <use transform="translate(358.997935 0)scale(0.996264)" xlink:href="#CMR17-108"/>
     <use transform="translate(383.868993 0)scale(0.996264)" xlink:href="#CMR17-117"/>
     <use transform="translate(434.764363 0)scale(0.996264)" xlink:href="#CMR17-116"/>
     <use transform="translate(470.045131 0)scale(0.996264)" xlink:href="#CMR17-105"/>
     <use transform="translate(494.91619 0)scale(0.996264)" xlink:href="#CMR17-111"/>
     <use transform="translate(540.606667 0)scale(0.996264)" xlink:href="#CMR17-110"/>
     <use transform="translate(591.502036 0)scale(0.996264)" xlink:href="#CMR17-115"/>
     <use transform="translate(657.37934 0)scale(0.996264)" xlink:href="#CMR17-102"/>
     <use transform="translate(684.852853 0)scale(0.996264)" xlink:href="#CMR17-111"/>
     <use transform="translate(730.54333 0)scale(0.996264)" xlink:href="#CMR17-114"/>
     <use transform="translate(795.900064 0)scale(0.996264)" xlink:href="#CMMI12-110"/>
     <use transform="translate(881.80412 0)scale(0.996264)" xlink:href="#CMR17-61"/>
     <use transform="translate(981.192917 0)scale(0.996264)" xlink:href="#CMR17-48"/>
     <use transform="translate(1026.883394 0)scale(0.996264)" xlink:href="#CMMI12-59"/>
     <use transform="translate(1070.584977 0)scale(0.996264)" xlink:href="#CMR17-49"/>
     <use transform="translate(1116.275454 0)scale(0.996264)" xlink:href="#CMMI12-59"/>
     <use transform="translate(1159.977036 0)scale(0.996264)" xlink:href="#CMR17-53"/>
    </g>
   </g>
   <g id="legend_1">
    <g id="patch_7">
     <path d="M 111.811194 77.139866 
L 203.034937 77.139866 
Q 205.034937 77.139866 205.034937 75.139866 
L 205.034937 32.248 
Q 205.034937 30.248 203.034937 30.248 
L 111.811194 30.248 
Q 109.811194 30.248 109.811194 32.248 
L 109.811194 75.139866 
Q 109.811194 77.139866 111.811194 77.139866 
z
" style="fill:#ffffff;opacity:0.8;stroke:#cccccc;stroke-linejoin:miter;"/>
    </g>
    <g id="line2d_14">
     <path d="M 113.811194 38.346438 
L 133.811194 38.346438 
" style="fill:none;stroke:#000000;stroke-dasharray:5.55,2.4;stroke-dashoffset:0;stroke-width:1.5;"/>
    </g>
    <g id="line2d_15"/>
    <g id="text_12">
     <!-- $\theta_{calc}$ for $n=$0 -->
     <g transform="translate(141.811194 41.846438)scale(0.1 -0.1)">
      <defs>
       <path d="M 44.296875 50 
C 44.296875 60.140625 41.09375 70 32.90625 70 
C 18.90625 70 4 40.859375 4 18.984375 
C 4 14.40625 5 -1 15.5 -1 
C 29.09375 -1 44.296875 27.421875 44.296875 50 
z
M 14 36 
C 15.5 41.859375 17.59375 50.203125 21.59375 57.265625 
C 24.90625 63.21875 28.40625 67.984375 32.796875 67.984375 
C 36.09375 67.984375 38.296875 65.203125 38.296875 55.671875 
C 38.296875 52.09375 38 47.125 35.09375 36 
z
M 34.40625 33 
C 31.90625 23.25 29.796875 17 26.203125 10.734375 
C 23.296875 5.65625 19.796875 1 15.59375 1 
C 12.5 1 10 3.375 10 13.21875 
C 10 19.671875 11.59375 26.4375 13.203125 33 
z
" id="CMMI12-18"/>
       <path d="M 39.09375 38 
C 37.203125 38 36.296875 38 34.90625 36.796875 
C 34.296875 36.296875 33.203125 34.796875 33.203125 33.1875 
C 33.203125 31.1875 34.703125 29.984375 36.59375 29.984375 
C 39 29.984375 41.703125 31.984375 41.703125 35.984375 
C 41.703125 40.484375 37.09375 44 30.203125 44 
C 17.09375 44 4 30.1875 4 15.796875 
C 4 6.96875 9.40625 -1 19.59375 -1 
C 33.203125 -1 41.796875 9.71875 41.796875 11.03125 
C 41.796875 11.640625 41.203125 12.140625 40.796875 12.140625 
C 40.5 12.140625 40.40625 12.046875 39.5 11.125 
C 33.09375 2.515625 23.59375 1 19.796875 1 
C 12.90625 1 10.703125 7.078125 10.703125 12.140625 
C 10.703125 15.6875 12.40625 25.53125 16 32.390625 
C 18.59375 37.09375 24 41.984375 30.296875 41.984375 
C 31.59375 41.984375 37.09375 41.8125 39.09375 38 
z
" id="CMMI12-99"/>
       <path d="M 30.09375 11.859375 
C 29.59375 10.171875 29.59375 9.96875 28.203125 8.078125 
C 26 5.28125 21.59375 1 16.90625 1 
C 12.796875 1 10.5 4.6875 10.5 10.5625 
C 10.5 16.0625 13.59375 27.234375 15.5 31.421875 
C 18.90625 38.40625 23.59375 41.984375 27.5 41.984375 
C 34.09375 41.984375 35.40625 33.8125 35.40625 33.015625 
C 35.40625 32.921875 35.09375 31.625 35 31.421875 
z
M 36.5 37.40625 
C 35.40625 40 32.703125 44 27.5 44 
C 16.203125 44 4 29.421875 4 14.65625 
C 4 4.78125 9.796875 -1 16.59375 -1 
C 22.09375 -1 26.796875 3.28125 29.59375 6.578125 
C 30.59375 0.6875 35.296875 -1 38.296875 -1 
C 41.296875 -1 43.703125 0.796875 45.5 4.375 
C 47.09375 7.75 48.5 13.828125 48.5 14.21875 
C 48.5 14.71875 48.09375 15.125 47.5 15.125 
C 46.59375 15.125 46.5 14.625 46.09375 13.125 
C 44.59375 7.265625 42.703125 1 38.59375 1 
C 35.703125 1 35.5 3.578125 35.5 5.5625 
C 35.5 7.859375 35.796875 8.953125 36.703125 12.828125 
C 37.40625 15.3125 37.90625 17.5 38.703125 20.390625 
C 42.40625 35.3125 43.296875 38.890625 43.296875 39.5 
C 43.296875 40.890625 42.203125 42 40.703125 42 
C 37.5 42 36.703125 38.5 36.5 37.3125 
z
" id="CMMI12-97"/>
       <path d="M 25.40625 66.484375 
C 25.5 66.890625 25.703125 67.484375 25.703125 67.984375 
C 25.703125 69 24.703125 69 24.5 69 
C 24.40625 69 20.796875 68.6875 19 68.484375 
C 17.296875 68.390625 15.796875 68.1875 14 68.09375 
C 11.59375 67.890625 10.90625 67.796875 10.90625 65.984375 
C 10.90625 64.984375 11.90625 64.984375 12.90625 64.984375 
C 18 64.984375 18 64.09375 18 63.109375 
C 18 62.703125 18 62.515625 17.5 60.71875 
L 5.09375 11.421875 
C 4.796875 10.328125 4.59375 9.53125 4.59375 7.953125 
C 4.59375 2.984375 8.296875 -1 13.40625 -1 
C 16.703125 -1 18.90625 1.1875 20.5 4.265625 
C 22.203125 7.546875 23.59375 13.8125 23.59375 14.203125 
C 23.59375 14.703125 23.203125 15.109375 22.59375 15.109375 
C 21.703125 15.109375 21.59375 14.609375 21.203125 13.109375 
C 19.40625 6.265625 17.59375 1 13.59375 1 
C 10.59375 1 10.59375 4.171875 10.59375 5.5625 
C 10.59375 5.96875 10.59375 8.046875 11.296875 10.828125 
z
" id="CMMI12-108"/>
      </defs>
      <use transform="scale(0.996264)" xlink:href="#CMMI12-18"/>
      <use transform="translate(45.45979 -14.943915)scale(0.697382)" xlink:href="#CMMI12-99"/>
      <use transform="translate(74.847921 -14.943915)scale(0.697382)" xlink:href="#CMMI12-97"/>
      <use transform="translate(110.693268 -14.943915)scale(0.697382)" xlink:href="#CMMI12-108"/>
      <use transform="translate(132.567052 -14.943915)scale(0.697382)" xlink:href="#CMMI12-99"/>
      <use transform="translate(192.529282 0)scale(0.996264)" xlink:href="#CMR17-102"/>
      <use transform="translate(220.002794 0)scale(0.996264)" xlink:href="#CMR17-111"/>
      <use transform="translate(265.693271 0)scale(0.996264)" xlink:href="#CMR17-114"/>
      <use transform="translate(331.050005 0)scale(0.996264)" xlink:href="#CMMI12-110"/>
      <use transform="translate(416.954061 0)scale(0.996264)" xlink:href="#CMR17-61"/>
      <use transform="translate(488.66885 0)scale(0.996264)" xlink:href="#CMR17-48"/>
     </g>
    </g>
    <g id="line2d_16">
     <path d="M 113.811194 53.024563 
L 133.811194 53.024563 
" style="fill:none;stroke:#000000;stroke-dasharray:1.5,2.475;stroke-dashoffset:0;stroke-width:1.5;"/>
    </g>
    <g id="line2d_17"/>
    <g id="text_13">
     <!-- $\theta_{calc}$ for $n=$1 -->
     <g transform="translate(141.811194 56.524563)scale(0.1 -0.1)">
      <use transform="scale(0.996264)" xlink:href="#CMMI12-18"/>
      <use transform="translate(45.45979 -14.943915)scale(0.697382)" xlink:href="#CMMI12-99"/>
      <use transform="translate(74.847921 -14.943915)scale(0.697382)" xlink:href="#CMMI12-97"/>
      <use transform="translate(110.693268 -14.943915)scale(0.697382)" xlink:href="#CMMI12-108"/>
      <use transform="translate(132.567052 -14.943915)scale(0.697382)" xlink:href="#CMMI12-99"/>
      <use transform="translate(192.529282 0)scale(0.996264)" xlink:href="#CMR17-102"/>
      <use transform="translate(220.002794 0)scale(0.996264)" xlink:href="#CMR17-111"/>
      <use transform="translate(265.693271 0)scale(0.996264)" xlink:href="#CMR17-114"/>
      <use transform="translate(331.050005 0)scale(0.996264)" xlink:href="#CMMI12-110"/>
      <use transform="translate(416.954061 0)scale(0.996264)" xlink:href="#CMR17-61"/>
      <use transform="translate(488.66885 0)scale(0.996264)" xlink:href="#CMR17-49"/>
     </g>
    </g>
    <g id="line2d_18">
     <path d="M 113.811194 67.702688 
L 133.811194 67.702688 
" style="fill:none;stroke:#000000;stroke-dasharray:9.6,2.4,1.5,2.4;stroke-dashoffset:0;stroke-width:1.5;"/>
    </g>
    <g id="line2d_19"/>
    <g id="text_14">
     <!-- $\theta_{calc}$ for $n=$5 -->
     <g transform="translate(141.811194 71.202688)scale(0.1 -0.1)">
      <use transform="scale(0.996264)" xlink:href="#CMMI12-18"/>
      <use transform="translate(45.45979 -14.943915)scale(0.697382)" xlink:href="#CMMI12-99"/>
      <use transform="translate(74.847921 -14.943915)scale(0.697382)" xlink:href="#CMMI12-97"/>
      <use transform="translate(110.693268 -14.943915)scale(0.697382)" xlink:href="#CMMI12-108"/>
      <use transform="translate(132.567052 -14.943915)scale(0.697382)" xlink:href="#CMMI12-99"/>
      <use transform="translate(192.529282 0)scale(0.996264)" xlink:href="#CMR17-102"/>
      <use transform="translate(220.002794 0)scale(0.996264)" xlink:href="#CMR17-111"/>
      <use transform="translate(265.693271 0)scale(0.996264)" xlink:href="#CMR17-114"/>
      <use transform="translate(331.050005 0)scale(0.996264)" xlink:href="#CMMI12-110"/>
      <use transform="translate(416.954061 0)scale(0.996264)" xlink:href="#CMR17-61"/>
      <use transform="translate(488.66885 0)scale(0.996264)" xlink:href="#CMR17-53"/>
     </g>
    </g>
   </g>
  </g>
  <g id="axes_2">
   <g id="patch_8">
    <path d="M 261.949504 143.39875 
L 441.40662 143.39875 
L 441.40662 25.248 
L 261.949504 25.248 
z
" style="fill:#ffffff;"/>
   </g>
   <g id="matplotlib.axis_3">
    <g id="xtick_6">
     <g id="line2d_20">
      <g>
       <use style="stroke:#000000;stroke-width:0.8;" x="270.106645" xlink:href="#mfe8bf0acc1" y="143.39875"/>
      </g>
     </g>
     <g id="text_15">
      <!-- $\mathdefault{0.0}$ -->
      <g transform="translate(263.741606 157.317249)scale(0.1 -0.1)">
       <use transform="scale(0.996264)" xlink:href="#CMR17-48"/>
       <use transform="translate(45.690477 0)scale(0.996264)" xlink:href="#CMMI12-58"/>
       <use transform="translate(72.787654 0)scale(0.996264)" xlink:href="#CMR17-48"/>
      </g>
     </g>
    </g>
    <g id="xtick_7">
     <g id="line2d_21">
      <g>
       <use style="stroke:#000000;stroke-width:0.8;" x="310.810945" xlink:href="#mfe8bf0acc1" y="143.39875"/>
      </g>
     </g>
     <g id="text_16">
      <!-- $\mathdefault{2.5}$ -->
      <g transform="translate(304.445905 157.317249)scale(0.1 -0.1)">
       <use transform="scale(0.996264)" xlink:href="#CMR17-50"/>
       <use transform="translate(45.690477 0)scale(0.996264)" xlink:href="#CMMI12-58"/>
       <use transform="translate(72.787654 0)scale(0.996264)" xlink:href="#CMR17-53"/>
      </g>
     </g>
    </g>
    <g id="xtick_8">
     <g id="line2d_22">
      <g>
       <use style="stroke:#000000;stroke-width:0.8;" x="351.515245" xlink:href="#mfe8bf0acc1" y="143.39875"/>
      </g>
     </g>
     <g id="text_17">
      <!-- $\mathdefault{5.0}$ -->
      <g transform="translate(345.150205 157.317249)scale(0.1 -0.1)">
       <use transform="scale(0.996264)" xlink:href="#CMR17-53"/>
       <use transform="translate(45.690477 0)scale(0.996264)" xlink:href="#CMMI12-58"/>
       <use transform="translate(72.787654 0)scale(0.996264)" xlink:href="#CMR17-48"/>
      </g>
     </g>
    </g>
    <g id="xtick_9">
     <g id="line2d_23">
      <g>
       <use style="stroke:#000000;stroke-width:0.8;" x="392.219544" xlink:href="#mfe8bf0acc1" y="143.39875"/>
      </g>
     </g>
     <g id="text_18">
      <!-- $\mathdefault{7.5}$ -->
      <g transform="translate(385.854505 157.317249)scale(0.1 -0.1)">
       <use transform="scale(0.996264)" xlink:href="#CMR17-55"/>
       <use transform="translate(45.690477 0)scale(0.996264)" xlink:href="#CMMI12-58"/>
       <use transform="translate(72.787654 0)scale(0.996264)" xlink:href="#CMR17-53"/>
      </g>
     </g>
    </g>
    <g id="xtick_10">
     <g id="line2d_24">
      <g>
       <use style="stroke:#000000;stroke-width:0.8;" x="432.923844" xlink:href="#mfe8bf0acc1" y="143.39875"/>
      </g>
     </g>
     <g id="text_19">
      <!-- $\mathdefault{10.0}$ -->
      <g transform="translate(424.068137 157.317249)scale(0.1 -0.1)">
       <use transform="scale(0.996264)" xlink:href="#CMR17-49"/>
       <use transform="translate(45.690477 0)scale(0.996264)" xlink:href="#CMR17-48"/>
       <use transform="translate(91.380954 0)scale(0.996264)" xlink:href="#CMMI12-58"/>
       <use transform="translate(118.478131 0)scale(0.996264)" xlink:href="#CMR17-48"/>
      </g>
     </g>
    </g>
   </g>
   <g id="matplotlib.axis_4">
    <g id="ytick_6">
     <g id="line2d_25">
      <g>
       <use style="stroke:#000000;stroke-width:0.8;" x="261.949504" xlink:href="#m88f991ffd8" y="135.140888"/>
      </g>
     </g>
     <g id="text_20">
      <!-- $\mathdefault{0.00000}$ -->
      <g transform="translate(222.294084 138.600138)scale(0.1 -0.1)">
       <use transform="scale(0.996264)" xlink:href="#CMR17-48"/>
       <use transform="translate(45.690477 0)scale(0.996264)" xlink:href="#CMMI12-58"/>
       <use transform="translate(72.787654 0)scale(0.996264)" xlink:href="#CMR17-48"/>
       <use transform="translate(118.478131 0)scale(0.996264)" xlink:href="#CMR17-48"/>
       <use transform="translate(164.168608 0)scale(0.996264)" xlink:href="#CMR17-48"/>
       <use transform="translate(209.859086 0)scale(0.996264)" xlink:href="#CMR17-48"/>
       <use transform="translate(255.549563 0)scale(0.996264)" xlink:href="#CMR17-48"/>
      </g>
     </g>
    </g>
    <g id="ytick_7">
     <g id="line2d_26">
      <g>
       <use style="stroke:#000000;stroke-width:0.8;" x="261.949504" xlink:href="#m88f991ffd8" y="100.300088"/>
      </g>
     </g>
     <g id="text_21">
      <!-- $\mathdefault{0.00005}$ -->
      <g transform="translate(222.294084 103.759338)scale(0.1 -0.1)">
       <use transform="scale(0.996264)" xlink:href="#CMR17-48"/>
       <use transform="translate(45.690477 0)scale(0.996264)" xlink:href="#CMMI12-58"/>
       <use transform="translate(72.787654 0)scale(0.996264)" xlink:href="#CMR17-48"/>
       <use transform="translate(118.478131 0)scale(0.996264)" xlink:href="#CMR17-48"/>
       <use transform="translate(164.168608 0)scale(0.996264)" xlink:href="#CMR17-48"/>
       <use transform="translate(209.859086 0)scale(0.996264)" xlink:href="#CMR17-48"/>
       <use transform="translate(255.549563 0)scale(0.996264)" xlink:href="#CMR17-53"/>
      </g>
     </g>
    </g>
    <g id="ytick_8">
     <g id="line2d_27">
      <g>
       <use style="stroke:#000000;stroke-width:0.8;" x="261.949504" xlink:href="#m88f991ffd8" y="65.459289"/>
      </g>
     </g>
     <g id="text_22">
      <!-- $\mathdefault{0.00010}$ -->
      <g transform="translate(222.294084 68.918538)scale(0.1 -0.1)">
       <use transform="scale(0.996264)" xlink:href="#CMR17-48"/>
       <use transform="translate(45.690477 0)scale(0.996264)" xlink:href="#CMMI12-58"/>
       <use transform="translate(72.787654 0)scale(0.996264)" xlink:href="#CMR17-48"/>
       <use transform="translate(118.478131 0)scale(0.996264)" xlink:href="#CMR17-48"/>
       <use transform="translate(164.168608 0)scale(0.996264)" xlink:href="#CMR17-48"/>
       <use transform="translate(209.859086 0)scale(0.996264)" xlink:href="#CMR17-49"/>
       <use transform="translate(255.549563 0)scale(0.996264)" xlink:href="#CMR17-48"/>
      </g>
     </g>
    </g>
    <g id="ytick_9">
     <g id="line2d_28">
      <g>
       <use style="stroke:#000000;stroke-width:0.8;" x="261.949504" xlink:href="#m88f991ffd8" y="30.618489"/>
      </g>
     </g>
     <g id="text_23">
      <!-- $\mathdefault{0.00015}$ -->
      <g transform="translate(222.294084 34.077738)scale(0.1 -0.1)">
       <use transform="scale(0.996264)" xlink:href="#CMR17-48"/>
       <use transform="translate(45.690477 0)scale(0.996264)" xlink:href="#CMMI12-58"/>
       <use transform="translate(72.787654 0)scale(0.996264)" xlink:href="#CMR17-48"/>
       <use transform="translate(118.478131 0)scale(0.996264)" xlink:href="#CMR17-48"/>
       <use transform="translate(164.168608 0)scale(0.996264)" xlink:href="#CMR17-48"/>
       <use transform="translate(209.859086 0)scale(0.996264)" xlink:href="#CMR17-49"/>
       <use transform="translate(255.549563 0)scale(0.996264)" xlink:href="#CMR17-53"/>
      </g>
     </g>
    </g>
   </g>
   <g id="line2d_29">
    <path clip-path="url(#p7897757ca3)" d="M 270.106645 135.140888 
L 270.595097 30.618489 
L 271.083548 77.072888 
L 271.572 96.235328 
L 272.060452 105.939663 
L 272.548903 111.775402 
L 273.037355 115.668362 
L 273.525806 118.449694 
L 274.014258 120.535904 
L 274.50271 122.158593 
L 274.991161 123.456778 
L 275.479613 124.518946 
L 275.968064 125.404094 
L 276.456516 126.15307 
L 276.944968 126.795051 
L 277.433419 127.351437 
L 277.921871 127.838276 
L 278.410322 128.267839 
L 278.898774 128.649674 
L 279.387226 128.991317 
L 279.875677 129.298795 
L 280.364129 129.576989 
L 280.85258 129.829893 
L 281.341032 130.060806 
L 281.829484 130.272476 
L 282.317935 130.467212 
L 282.806387 130.646969 
L 283.294838 130.81341 
L 283.78329 130.967963 
L 284.271742 131.111857 
L 284.760193 131.246158 
L 285.248645 131.371794 
L 285.737096 131.489578 
L 286.225548 131.600224 
L 286.714 131.704361 
L 287.202451 131.802548 
L 287.690903 131.895279 
L 288.179354 131.982999 
L 288.667806 132.066101 
L 289.156257 132.144942 
L 289.644709 132.21984 
L 290.133161 132.291085 
L 290.621612 132.358938 
L 291.110064 132.423634 
L 291.598515 132.48539 
L 292.086967 132.544401 
L 292.575419 132.600847 
L 293.06387 132.65489 
L 293.552322 132.706682 
L 294.040773 132.756359 
L 294.529225 132.80405 
L 295.017677 132.84987 
L 295.506128 132.893928 
L 295.99458 132.936324 
L 296.483031 132.977149 
L 296.971483 133.01649 
L 297.459935 133.054425 
L 297.948386 133.09103 
L 298.436838 133.126372 
L 298.925289 133.160517 
L 299.413741 133.193523 
L 299.902193 133.225447 
L 300.390644 133.256341 
L 300.879096 133.286255 
L 301.367547 133.315233 
L 301.855999 133.34332 
L 302.344451 133.370556 
L 302.832902 133.396979 
L 303.321354 133.422625 
L 303.809805 133.447527 
L 304.298257 133.471718 
L 304.786709 133.495227 
L 305.27516 133.518084 
L 305.763612 133.540314 
L 306.252063 133.561943 
L 306.740515 133.582996 
L 307.228967 133.603495 
L 307.717418 133.623461 
L 308.20587 133.642915 
L 308.694321 133.661877 
L 309.182773 133.680364 
L 309.671225 133.698395 
" style="fill:none;stroke:#000000;stroke-dasharray:5.55,2.4;stroke-dashoffset:0;stroke-width:1.5;"/>
   </g>
   <g id="line2d_30">
    <path clip-path="url(#p7897757ca3)" d="M 270.106645 135.140888 
L 270.595097 30.623192 
L 271.083548 77.095878 
L 271.572 96.289951 
L 272.060452 106.035791 
L 272.548903 111.917311 
L 273.037355 115.858192 
L 273.525806 118.688624 
L 274.014258 120.824613 
L 274.50271 122.49747 
L 274.991161 123.846032 
L 275.479613 124.958658 
L 275.968064 125.894255 
L 276.456516 126.693601 
L 276.944968 127.385816 
L 277.433419 127.992252 
L 277.921871 128.528916 
L 278.410322 129.008044 
L 278.898774 129.43915 
L 279.387226 129.829738 
L 279.875677 130.185808 
L 280.364129 130.512215 
L 280.85258 130.812925 
L 281.341032 131.091213 
L 281.829484 131.349803 
L 282.317935 131.590981 
L 282.806387 131.81668 
L 283.294838 132.028542 
L 283.78329 132.227973 
L 284.271742 132.416181 
L 284.760193 132.594213 
L 285.248645 132.762978 
L 285.737096 132.923269 
L 286.225548 133.075781 
L 286.714 133.221126 
L 287.202451 133.359845 
L 287.690903 133.492416 
L 288.179354 133.619265 
L 288.667806 133.740773 
L 289.156257 133.857277 
L 289.644709 133.969084 
L 290.133161 134.076466 
L 290.621612 134.179671 
L 291.110064 134.278921 
L 291.598515 134.374419 
L 292.086967 134.466348 
L 292.575419 134.554875 
L 293.06387 134.640152 
L 293.552322 134.722318 
L 294.040773 134.8015 
L 294.529225 134.877816 
L 295.017677 134.951372 
L 295.506128 135.022267 
L 295.99458 135.090592 
L 296.483031 135.156433 
L 296.971483 135.219867 
L 297.459935 135.280967 
L 297.948386 135.3398 
L 298.436838 135.39643 
L 298.925289 135.450915 
L 299.413741 135.503311 
L 299.902193 135.55367 
L 300.390644 135.60204 
L 300.879096 135.648468 
L 301.367547 135.692996 
L 301.855999 135.735667 
L 302.344451 135.776518 
L 302.832902 135.815588 
L 303.321354 135.852913 
L 303.809805 135.888525 
L 304.298257 135.922458 
L 304.786709 135.954744 
L 305.27516 135.985411 
L 305.763612 136.014491 
L 306.252063 136.042011 
L 306.740515 136.067998 
L 307.228967 136.09248 
L 307.717418 136.115482 
L 308.20587 136.13703 
L 308.694321 136.157149 
L 309.182773 136.175864 
L 309.671225 136.193199 
L 310.159676 136.209177 
L 310.648128 136.223822 
L 311.136579 136.237157 
L 311.625031 136.249205 
L 312.113483 136.259988 
L 312.601934 136.269531 
L 313.090386 136.277854 
L 313.578837 136.28498 
L 314.067289 136.290931 
L 314.555741 136.29573 
L 315.044192 136.299398 
L 315.532644 136.301958 
L 316.021095 136.303431 
L 316.509547 136.303841 
L 316.997999 136.303207 
L 317.48645 136.301554 
L 317.974902 136.298902 
L 318.463353 136.295275 
L 318.951805 136.290693 
L 319.440256 136.285179 
L 319.928708 136.278756 
L 320.41716 136.271445 
L 320.905611 136.263269 
" style="fill:none;stroke:#000000;stroke-dasharray:1.5,2.475;stroke-dashoffset:0;stroke-width:1.5;"/>
   </g>
   <g id="line2d_31">
    <path clip-path="url(#p7897757ca3)" d="M 270.106645 135.140888 
L 270.595097 30.642 
L 271.083548 77.187681 
L 271.572 96.50771 
L 272.060452 106.417822 
L 272.548903 112.479022 
L 273.037355 116.605889 
L 274.014258 121.947474 
L 274.991161 125.335357 
L 275.968064 127.732451 
L 276.944968 129.549587 
L 277.921871 130.990939 
L 279.387226 132.681928 
L 280.85258 133.981901 
L 282.317935 135.001651 
L 284.271742 136.03535 
L 286.225548 136.78334 
L 288.179354 137.310538 
L 290.621612 137.730777 
L 293.552322 137.976504 
L 296.971483 138.020186 
L 301.367547 137.846085 
L 309.182773 137.2671 
L 325.790127 136.014759 
L 338.001417 135.349368 
L 352.166513 134.810244 
L 370.239223 134.359312 
L 394.661802 133.989728 
L 430.318769 133.693572 
L 433.249479 133.676593 
L 433.249479 133.676593 
" style="fill:none;stroke:#000000;stroke-dasharray:9.6,2.4,1.5,2.4;stroke-dashoffset:0;stroke-width:1.5;"/>
   </g>
   <g id="patch_9">
    <path d="M 261.949504 143.39875 
L 261.949504 25.248 
" style="fill:none;stroke:#000000;stroke-linecap:square;stroke-linejoin:miter;stroke-width:0.8;"/>
   </g>
   <g id="patch_10">
    <path d="M 441.40662 143.39875 
L 441.40662 25.248 
" style="fill:none;stroke:#000000;stroke-linecap:square;stroke-linejoin:miter;stroke-width:0.8;"/>
   </g>
   <g id="patch_11">
    <path d="M 261.949504 143.39875 
L 441.40662 143.39875 
" style="fill:none;stroke:#000000;stroke-linecap:square;stroke-linejoin:miter;stroke-width:0.8;"/>
   </g>
   <g id="patch_12">
    <path d="M 261.949504 25.248 
L 441.40662 25.248 
" style="fill:none;stroke:#000000;stroke-linecap:square;stroke-linejoin:miter;stroke-width:0.8;"/>
   </g>
   <g id="text_24">
    <!-- Difference for $n=$5 -->
    <g transform="translate(302.708743 19.248)scale(0.12 -0.12)">
     <defs>
      <path d="M 5.203125 68 
L 5.203125 65.390625 
C 12.09375 65.390625 13.203125 65.390625 13.203125 60.90625 
L 13.203125 7.078125 
C 13.203125 2.59375 12.09375 2.59375 5.203125 2.59375 
L 5.203125 0 
L 37 0 
C 53.09375 0 66 14.734375 66 33.4375 
C 66 52.25 53.296875 68 37 68 
z
M 23.796875 2.59375 
C 19.796875 2.59375 19.59375 3.09375 19.59375 6.46875 
L 19.59375 61.5 
C 19.59375 64.890625 19.796875 65.390625 23.796875 65.390625 
L 35 65.390625 
C 43.296875 65.390625 58.59375 60.515625 58.59375 33.4375 
C 58.59375 19.40625 54.5 13.734375 52.59375 11.046875 
C 50.203125 7.96875 44.5 2.59375 35 2.59375 
z
" id="CMR17-68"/>
      <path d="M 39.90625 40.390625 
L 51.296875 40.390625 
L 51.296875 43 
L 39.703125 43 
L 39.703125 55 
C 39.703125 63.234375 43.90625 68.390625 48.203125 68.390625 
C 49.5 68.390625 51 68 52 67.296875 
C 51.203125 67.09375 49.09375 66.40625 49.09375 63.921875 
C 49.09375 61.34375 51.09375 60.546875 52.5 60.546875 
C 53.90625 60.546875 55.90625 61.34375 55.90625 63.921875 
C 55.90625 67.703125 52.296875 70 48.296875 70 
C 44.40625 70 41.203125 68.09375 38.703125 65.71875 
C 36.40625 68.984375 32.59375 70 28.703125 70 
C 20.90625 70 9.90625 65.515625 9.90625 54.59375 
L 9.90625 43 
L 1.90625 43 
L 1.90625 40.390625 
L 9.90625 40.390625 
L 9.90625 6.890625 
C 9.90625 3.09375 9.5 2.59375 3.09375 2.59375 
L 3.09375 0 
C 5.5 0.1875 9.90625 0.1875 12.40625 0.1875 
C 15 0.1875 19.40625 0.1875 21.796875 0 
L 21.796875 2.59375 
C 15.40625 2.59375 15 3 15 6.890625 
L 15 40.390625 
L 34.796875 40.390625 
L 34.796875 6.890625 
C 34.796875 3.09375 34.40625 2.59375 28 2.59375 
L 28 0 
C 30.40625 0.1875 35 0.1875 37.59375 0.1875 
C 40.5 0.1875 45.59375 0.1875 48.296875 0 
L 48.296875 2.59375 
C 41.09375 2.59375 39.90625 2.59375 39.90625 7.09375 
z
M 14.796875 43 
L 14.796875 54.59375 
C 14.796875 63.625 21.796875 68.390625 28.5 68.390625 
C 30 68.390625 33.90625 68.09375 36.296875 65.90625 
C 34.5 65.8125 32.796875 65.015625 32.796875 62.53125 
C 32.796875 59.953125 35.09375 59.265625 35.296875 59.265625 
C 34.796875 57.484375 34.796875 55.5 34.796875 54.796875 
L 34.796875 43 
z
" id="CMR17-11"/>
      <path d="M 38.09375 23.484375 
C 38.5 23.890625 38.5 24.09375 38.5 25.09375 
C 38.5 35.171875 33.09375 44 21.703125 44 
C 11.09375 44 2.703125 33.984375 2.703125 21.78125 
C 2.703125 8.65625 12.203125 -1 22.796875 -1 
C 34 -1 38.40625 9.671875 38.40625 11.796875 
C 38.40625 12.5 37.796875 12.5 37.59375 12.5 
C 36.90625 12.5 36.796875 12.296875 36.40625 11.078125 
C 34.203125 4.21875 28.703125 0.796875 23.5 0.796875 
C 19.203125 0.796875 14.90625 3.21875 12.203125 7.65625 
C 9.09375 12.796875 9.09375 18.75 9.09375 23.484375 
z
M 9.203125 25 
C 9.90625 39.234375 17.59375 42.390625 21.59375 42.390625 
C 28.40625 42.390625 33 36.0625 33.09375 25 
z
" id="CMR17-101"/>
     </defs>
     <use transform="scale(0.996264)" xlink:href="#CMR17-68"/>
     <use transform="translate(70.393556 0)scale(0.996264)" xlink:href="#CMR17-105"/>
     <use transform="translate(95.264614 0)scale(0.996264)" xlink:href="#CMR17-11"/>
     <use transform="translate(147.609292 0)scale(0.996264)" xlink:href="#CMR17-101"/>
     <use transform="translate(188.094952 0)scale(0.996264)" xlink:href="#CMR17-114"/>
     <use transform="translate(223.37572 0)scale(0.996264)" xlink:href="#CMR17-101"/>
     <use transform="translate(263.86138 0)scale(0.996264)" xlink:href="#CMR17-110"/>
     <use transform="translate(314.75675 0)scale(0.996264)" xlink:href="#CMR17-99"/>
     <use transform="translate(355.242411 0)scale(0.996264)" xlink:href="#CMR17-101"/>
     <use transform="translate(425.804037 0)scale(0.996264)" xlink:href="#CMR17-102"/>
     <use transform="translate(453.27755 0)scale(0.996264)" xlink:href="#CMR17-111"/>
     <use transform="translate(498.968027 0)scale(0.996264)" xlink:href="#CMR17-114"/>
     <use transform="translate(564.324761 0)scale(0.996264)" xlink:href="#CMMI12-110"/>
     <use transform="translate(650.228817 0)scale(0.996264)" xlink:href="#CMR17-61"/>
     <use transform="translate(721.943606 0)scale(0.996264)" xlink:href="#CMR17-53"/>
    </g>
   </g>
   <g id="legend_2">
    <g id="patch_13">
     <path d="M 351.508438 77.139866 
L 434.40662 77.139866 
Q 436.40662 77.139866 436.40662 75.139866 
L 436.40662 32.248 
Q 436.40662 30.248 434.40662 30.248 
L 351.508438 30.248 
Q 349.508438 30.248 349.508438 32.248 
L 349.508438 75.139866 
Q 349.508438 77.139866 351.508438 77.139866 
z
" style="fill:#ffffff;opacity:0.8;stroke:#cccccc;stroke-linejoin:miter;"/>
    </g>
    <g id="line2d_32">
     <path d="M 353.508438 38.346438 
L 373.508438 38.346438 
" style="fill:none;stroke:#000000;stroke-dasharray:5.55,2.4;stroke-dashoffset:0;stroke-width:1.5;"/>
    </g>
    <g id="line2d_33"/>
    <g id="text_25">
     <!-- $\theta_{calc}-\theta_{exct}$ -->
     <g transform="translate(381.508438 41.846438)scale(0.1 -0.1)">
      <defs>
       <path d="M 65.90625 23 
C 67.59375 23 69.40625 23 69.40625 25 
C 69.40625 27 67.59375 27 65.90625 27 
L 11.796875 27 
C 10.09375 27 8.296875 27 8.296875 25 
C 8.296875 23 10.09375 23 11.796875 23 
z
" id="CMSY10-0"/>
       <path d="M 17.90625 23 
C 20.59375 23 27.40625 23.1875 32.203125 25 
C 39.796875 27.90625 40.5 33.75 40.5 35.546875 
C 40.5 39.984375 36.703125 44 30.09375 44 
C 19.59375 44 4.5 34.453125 4.5 16.65625 
C 4.5 6.25 10.5 -1 19.59375 -1 
C 33.203125 -1 41.796875 9.515625 41.796875 10.796875 
C 41.796875 11.390625 41.203125 11.890625 40.796875 11.890625 
C 40.5 11.890625 40.40625 11.796875 39.5 10.90625 
C 33.09375 2.484375 23.59375 1 19.796875 1 
C 14.09375 1 11.09375 5.453125 11.09375 12.78125 
C 11.09375 14.171875 11.09375 16.65625 12.59375 23 
z
M 13.09375 25 
C 17.40625 40.484375 26.90625 41.984375 30.09375 41.984375 
C 34.5 41.984375 37.5 39.375 37.5 35.546875 
C 37.5 25 21.5 25 17.296875 25 
z
" id="CMMI12-101"/>
       <path d="M 47.40625 41 
C 44.203125 40.390625 43 37.984375 43 36.09375 
C 43 33.6875 44.90625 32.890625 46.296875 32.890625 
C 49.296875 32.890625 51.40625 35.484375 51.40625 38.1875 
C 51.40625 42.09375 46.59375 44 42.40625 44 
C 36.296875 44 32.90625 38.296875 32 36.390625 
C 29.703125 43.59375 23.5 44 21.703125 44 
C 11.5 44 6.09375 31.140625 6.09375 28.890625 
C 6.09375 28.484375 6.5 27.96875 7.203125 27.96875 
C 8 27.96875 8.203125 28.578125 8.40625 28.984375 
C 11.796875 40.1875 18.5 41.984375 21.40625 41.984375 
C 25.90625 41.984375 26.796875 38.09375 26.796875 35.6875 
C 26.796875 33.484375 26.203125 31.140625 25 26.21875 
L 21.59375 12.15625 
C 20.09375 6.09375 17.203125 1 11.90625 1 
C 11.40625 1 8.90625 1 6.796875 1.96875 
C 10.40625 2.59375 11.203125 5.59375 11.203125 6.796875 
C 11.203125 8.796875 9.703125 10 7.796875 10 
C 5.40625 10 2.796875 7.890625 2.796875 4.6875 
C 2.796875 0.890625 7.5 -1 11.796875 -1 
C 16.59375 -1 20 2.390625 22.09375 6.484375 
C 23.703125 1 28.703125 -1 32.40625 -1 
C 42.59375 -1 48 11.734375 48 14 
C 48 14.515625 47.59375 14.921875 47 14.921875 
C 46.09375 14.921875 46 14.40625 45.703125 13.59375 
C 43 4.6875 37.203125 1 32.703125 1 
C 29.203125 1 27.296875 3.1875 27.296875 7.296875 
C 27.296875 9.484375 27.703125 11.125 29.296875 17.90625 
L 32.796875 31.859375 
C 34.296875 37.890625 37.703125 41.984375 42.296875 41.984375 
C 42.5 41.984375 45.296875 41.984375 47.40625 41 
z
" id="CMMI12-120"/>
       <path d="M 20.09375 40.09375 
L 29.296875 40.09375 
C 31.203125 40.09375 32.203125 40.09375 32.203125 41.890625 
C 32.203125 43 31.59375 43 29.59375 43 
L 20.796875 43 
L 24.5 57.25 
C 24.90625 58.625 24.90625 58.8125 24.90625 59.5 
C 24.90625 61.09375 23.59375 62 22.296875 62 
C 21.5 62 19.203125 61.6875 18.40625 58.53125 
L 14.5 43 
L 5.09375 43 
C 3.09375 43 2.203125 43 2.203125 41.09375 
C 2.203125 40.09375 2.90625 40.09375 4.796875 40.09375 
L 13.703125 40.09375 
L 7.09375 13.765625 
C 6.296875 10.265625 6 9.265625 6 7.96875 
C 6 3.28125 9.296875 -1 14.90625 -1 
C 25 -1 30.40625 13.5625 30.40625 14.265625 
C 30.40625 14.859375 30 15.15625 29.40625 15.15625 
C 29.203125 15.15625 28.796875 15.15625 28.59375 14.75 
C 28.5 14.65625 28.40625 14.5625 27.703125 12.96875 
C 25.59375 7.96875 21 1 15.203125 1 
C 12.203125 1 12 3.484375 12 5.6875 
C 12 5.78125 12 7.671875 12.296875 8.875 
z
" id="CMMI12-116"/>
      </defs>
      <use transform="scale(0.996264)" xlink:href="#CMMI12-18"/>
      <use transform="translate(45.45979 -14.943915)scale(0.697382)" xlink:href="#CMMI12-99"/>
      <use transform="translate(74.847921 -14.943915)scale(0.697382)" xlink:href="#CMMI12-97"/>
      <use transform="translate(110.693268 -14.943915)scale(0.697382)" xlink:href="#CMMI12-108"/>
      <use transform="translate(132.567052 -14.943915)scale(0.697382)" xlink:href="#CMMI12-99"/>
      <use transform="translate(184.592522 0)scale(0.996264)" xlink:href="#CMSY10-0"/>
      <use transform="translate(284.219197 0)scale(0.996264)" xlink:href="#CMMI12-18"/>
      <use transform="translate(329.678987 -14.943915)scale(0.697382)" xlink:href="#CMMI12-101"/>
      <use transform="translate(361.327243 -14.943915)scale(0.697382)" xlink:href="#CMMI12-120"/>
      <use transform="translate(400.130903 -14.943915)scale(0.697382)" xlink:href="#CMMI12-99"/>
      <use transform="translate(429.519034 -14.943915)scale(0.697382)" xlink:href="#CMMI12-116"/>
     </g>
    </g>
    <g id="line2d_34">
     <path d="M 353.508438 53.024563 
L 373.508438 53.024563 
" style="fill:none;stroke:#000000;stroke-dasharray:1.5,2.475;stroke-dashoffset:0;stroke-width:1.5;"/>
    </g>
    <g id="line2d_35"/>
    <g id="text_26">
     <!-- $\theta_{calc}-\theta_{exct}$ -->
     <g transform="translate(381.508438 56.524563)scale(0.1 -0.1)">
      <use transform="scale(0.996264)" xlink:href="#CMMI12-18"/>
      <use transform="translate(45.45979 -14.943915)scale(0.697382)" xlink:href="#CMMI12-99"/>
      <use transform="translate(74.847921 -14.943915)scale(0.697382)" xlink:href="#CMMI12-97"/>
      <use transform="translate(110.693268 -14.943915)scale(0.697382)" xlink:href="#CMMI12-108"/>
      <use transform="translate(132.567052 -14.943915)scale(0.697382)" xlink:href="#CMMI12-99"/>
      <use transform="translate(184.592522 0)scale(0.996264)" xlink:href="#CMSY10-0"/>
      <use transform="translate(284.219197 0)scale(0.996264)" xlink:href="#CMMI12-18"/>
      <use transform="translate(329.678987 -14.943915)scale(0.697382)" xlink:href="#CMMI12-101"/>
      <use transform="translate(361.327243 -14.943915)scale(0.697382)" xlink:href="#CMMI12-120"/>
      <use transform="translate(400.130903 -14.943915)scale(0.697382)" xlink:href="#CMMI12-99"/>
      <use transform="translate(429.519034 -14.943915)scale(0.697382)" xlink:href="#CMMI12-116"/>
     </g>
    </g>
    <g id="line2d_36">
     <path d="M 353.508438 67.702688 
L 373.508438 67.702688 
" style="fill:none;stroke:#000000;stroke-dasharray:9.6,2.4,1.5,2.4;stroke-dashoffset:0;stroke-width:1.5;"/>
    </g>
    <g id="line2d_37"/>
    <g id="text_27">
     <!-- $\theta_{calc}-\theta_{exct}$ -->
     <g transform="translate(381.508438 71.202688)scale(0.1 -0.1)">
      <use transform="scale(0.996264)" xlink:href="#CMMI12-18"/>
      <use transform="translate(45.45979 -14.943915)scale(0.697382)" xlink:href="#CMMI12-99"/>
      <use transform="translate(74.847921 -14.943915)scale(0.697382)" xlink:href="#CMMI12-97"/>
      <use transform="translate(110.693268 -14.943915)scale(0.697382)" xlink:href="#CMMI12-108"/>
      <use transform="translate(132.567052 -14.943915)scale(0.697382)" xlink:href="#CMMI12-99"/>
      <use transform="translate(184.592522 0)scale(0.996264)" xlink:href="#CMSY10-0"/>
      <use transform="translate(284.219197 0)scale(0.996264)" xlink:href="#CMMI12-18"/>
      <use transform="translate(329.678987 -14.943915)scale(0.697382)" xlink:href="#CMMI12-101"/>
      <use transform="translate(361.327243 -14.943915)scale(0.697382)" xlink:href="#CMMI12-120"/>
      <use transform="translate(400.130903 -14.943915)scale(0.697382)" xlink:href="#CMMI12-99"/>
      <use transform="translate(429.519034 -14.943915)scale(0.697382)" xlink:href="#CMMI12-116"/>
     </g>
    </g>
   </g>
  </g>
 </g>
 <defs>
  <clipPath id="p8e3bbc7e26">
   <rect height="118.15075" width="179.457117" x="30.57782" y="25.248"/>
  </clipPath>
  <clipPath id="p7897757ca3">
   <rect height="118.15075" width="179.457117" x="261.949504" y="25.248"/>
  </clipPath>
 </defs>
</svg>
