<?xml version="1.0" encoding="utf-8" standalone="no"?>
<!DOCTYPE svg PUBLIC "-//W3C//DTD SVG 1.1//EN"
  "http://www.w3.org/Graphics/SVG/1.1/DTD/svg11.dtd">
<svg height="255.11811pt" version="1.1" viewBox="0 0 453.543307 255.11811" width="453.543307pt" xmlns="http://www.w3.org/2000/svg" xmlns:xlink="http://www.w3.org/1999/xlink">
 <metadata>
  <rdf:RDF xmlns:cc="http://creativecommons.org/ns#" xmlns:dc="http://purl.org/dc/elements/1.1/" xmlns:rdf="http://www.w3.org/1999/02/22-rdf-syntax-ns#">
   <cc:Work>
    <dc:type rdf:resource="http://purl.org/dc/dcmitype/StillImage"/>
    <dc:date>2021-07-07T08:59:56.294891</dc:date>
    <dc:format>image/svg+xml</dc:format>
    <dc:creator>
     <cc:Agent>
      <dc:title>Matplotlib v3.4.2, https://matplotlib.org/</dc:title>
     </cc:Agent>
    </dc:creator>
   </cc:Work>
  </rdf:RDF>
 </metadata>
 <defs>
  <style type="text/css">*{stroke-linecap:butt;stroke-linejoin:round;}</style>
 </defs>
 <g id="figure_1">
  <g id="patch_1">
   <path d="M 0 255.11811 
L 453.543307 255.11811 
L 453.543307 0 
L 0 0 
z
" style="fill:#ffffff;"/>
  </g>
  <g id="axes_1">
   <g id="patch_2">
    <path d="M 45.57786 82.088367 
L 219.878425 82.088367 
L 219.878425 25.8 
L 45.57786 25.8 
z
" style="fill:#ffffff;"/>
   </g>
   <g id="matplotlib.axis_1">
    <g id="xtick_1">
     <g id="line2d_1">
      <defs>
       <path d="M 0 0 
L 0 3.5 
" id="mbb736ac3ce" style="stroke:#000000;stroke-width:0.8;"/>
      </defs>
      <g>
       <use style="stroke:#000000;stroke-width:0.8;" x="53.500613" xlink:href="#mbb736ac3ce" y="82.088367"/>
      </g>
     </g>
     <g id="text_1">
      <!-- $\mathdefault{0}$ -->
      <g transform="translate(51.009945 96.006865)scale(0.1 -0.1)">
       <defs>
        <path d="M 2688 2038 
C 2688 2430 2682 3099 2413 3613 
C 2176 4063 1798 4224 1466 4224 
C 1158 4224 768 4082 525 3620 
C 269 3137 243 2539 243 2038 
C 243 1671 250 1112 448 623 
C 723 -39 1216 -128 1466 -128 
C 1760 -128 2208 -7 2470 604 
C 2662 1048 2688 1568 2688 2038 
z
M 1466 -26 
C 1056 -26 813 328 723 816 
C 653 1196 653 1749 653 2109 
C 653 2604 653 3015 736 3407 
C 858 3954 1216 4121 1466 4121 
C 1728 4121 2067 3947 2189 3420 
C 2272 3054 2278 2623 2278 2109 
C 2278 1691 2278 1176 2202 797 
C 2067 96 1690 -26 1466 -26 
z
" id="CMR17-30" transform="scale(0.015625)"/>
       </defs>
       <use transform="scale(0.996264)" xlink:href="#CMR17-30"/>
      </g>
     </g>
    </g>
    <g id="xtick_2">
     <g id="line2d_2">
      <g>
       <use style="stroke:#000000;stroke-width:0.8;" x="118.708456" xlink:href="#mbb736ac3ce" y="82.088367"/>
      </g>
     </g>
     <g id="text_2">
      <!-- $\mathdefault{1}$ -->
      <g transform="translate(116.217789 96.006865)scale(0.1 -0.1)">
       <defs>
        <path d="M 1702 4083 
C 1702 4217 1696 4224 1606 4224 
C 1357 3927 979 3833 621 3820 
C 602 3820 570 3820 563 3808 
C 557 3795 557 3782 557 3648 
C 755 3648 1088 3686 1344 3839 
L 1344 467 
C 1344 243 1331 166 781 166 
L 589 166 
L 589 0 
C 896 6 1216 12 1523 12 
C 1830 12 2150 6 2458 0 
L 2458 166 
L 2266 166 
C 1715 166 1702 236 1702 467 
L 1702 4083 
z
" id="CMR17-31" transform="scale(0.015625)"/>
       </defs>
       <use transform="scale(0.996264)" xlink:href="#CMR17-31"/>
      </g>
     </g>
    </g>
    <g id="xtick_3">
     <g id="line2d_3">
      <g>
       <use style="stroke:#000000;stroke-width:0.8;" x="183.9163" xlink:href="#mbb736ac3ce" y="82.088367"/>
      </g>
     </g>
     <g id="text_3">
      <!-- $\mathdefault{2}$ -->
      <g transform="translate(181.425632 96.006865)scale(0.1 -0.1)">
       <defs>
        <path d="M 2669 990 
L 2554 990 
C 2490 537 2438 460 2413 422 
C 2381 371 1920 371 1830 371 
L 602 371 
C 832 620 1280 1073 1824 1596 
C 2214 1966 2669 2400 2669 3033 
C 2669 3788 2067 4224 1395 4224 
C 691 4224 262 3603 262 3027 
C 262 2777 448 2745 525 2745 
C 589 2745 781 2783 781 3007 
C 781 3206 614 3264 525 3264 
C 486 3264 448 3257 422 3244 
C 544 3788 915 4057 1306 4057 
C 1862 4057 2227 3616 2227 3033 
C 2227 2477 1901 1998 1536 1583 
L 262 147 
L 262 0 
L 2515 0 
L 2669 990 
z
" id="CMR17-32" transform="scale(0.015625)"/>
       </defs>
       <use transform="scale(0.996264)" xlink:href="#CMR17-32"/>
      </g>
     </g>
    </g>
   </g>
   <g id="matplotlib.axis_2">
    <g id="ytick_1">
     <g id="line2d_4">
      <defs>
       <path d="M 0 0 
L -3.5 0 
" id="m7002652681" style="stroke:#000000;stroke-width:0.8;"/>
      </defs>
      <g>
       <use style="stroke:#000000;stroke-width:0.8;" x="45.57786" xlink:href="#m7002652681" y="79.529805"/>
      </g>
     </g>
     <g id="text_4">
      <!-- $\mathdefault{0.0000}$ -->
      <g transform="translate(10.903775 82.989054)scale(0.1 -0.1)">
       <defs>
        <path d="M 1178 307 
C 1178 492 1024 620 870 620 
C 685 620 557 467 557 313 
C 557 128 710 0 864 0 
C 1050 0 1178 153 1178 307 
z
" id="CMMI12-3a" transform="scale(0.015625)"/>
       </defs>
       <use transform="scale(0.996264)" xlink:href="#CMR17-30"/>
       <use transform="translate(45.690477 0)scale(0.996264)" xlink:href="#CMMI12-3a"/>
       <use transform="translate(72.787654 0)scale(0.996264)" xlink:href="#CMR17-30"/>
       <use transform="translate(118.478131 0)scale(0.996264)" xlink:href="#CMR17-30"/>
       <use transform="translate(164.168608 0)scale(0.996264)" xlink:href="#CMR17-30"/>
       <use transform="translate(209.859086 0)scale(0.996264)" xlink:href="#CMR17-30"/>
      </g>
     </g>
    </g>
    <g id="ytick_2">
     <g id="line2d_5">
      <g>
       <use style="stroke:#000000;stroke-width:0.8;" x="45.57786" xlink:href="#m7002652681" y="45.415643"/>
      </g>
     </g>
     <g id="text_5">
      <!-- $\mathdefault{0.0001}$ -->
      <g transform="translate(10.903775 48.874892)scale(0.1 -0.1)">
       <use transform="scale(0.996264)" xlink:href="#CMR17-30"/>
       <use transform="translate(45.690477 0)scale(0.996264)" xlink:href="#CMMI12-3a"/>
       <use transform="translate(72.787654 0)scale(0.996264)" xlink:href="#CMR17-30"/>
       <use transform="translate(118.478131 0)scale(0.996264)" xlink:href="#CMR17-30"/>
       <use transform="translate(164.168608 0)scale(0.996264)" xlink:href="#CMR17-30"/>
       <use transform="translate(209.859086 0)scale(0.996264)" xlink:href="#CMR17-31"/>
      </g>
     </g>
    </g>
   </g>
   <g id="line2d_6">
    <path clip-path="url(#pca7470d907)" d="M 53.500613 79.529805 
L 55.456848 28.358562 
L 57.413084 51.101337 
L 59.369319 60.482731 
L 61.325554 65.233702 
L 63.281789 68.090716 
L 65.238025 69.996601 
L 67.19426 71.358263 
L 69.150495 72.379613 
L 71.106731 73.174036 
L 73.062966 73.809591 
L 75.019201 74.329599 
L 76.975437 74.762942 
L 78.931672 75.12962 
L 80.887907 75.443916 
L 82.844143 75.716307 
L 84.800378 75.95465 
L 86.756613 76.164952 
L 88.712848 76.351888 
L 90.669084 76.519146 
L 92.625319 76.669679 
L 94.581554 76.805875 
L 96.53779 76.92969 
L 98.494025 77.042738 
L 100.45026 77.146366 
L 102.406496 77.241704 
L 104.362731 77.329707 
L 106.318966 77.411192 
L 108.275201 77.486857 
L 110.231437 77.557304 
L 112.187672 77.623054 
L 114.143907 77.684562 
L 116.100143 77.742225 
L 118.056378 77.796395 
L 120.012613 77.847377 
L 121.968849 77.895446 
L 123.925084 77.940845 
L 125.881319 77.98379 
L 127.837554 78.024475 
L 129.79379 78.063073 
L 131.750025 78.099741 
L 133.70626 78.134621 
L 135.662496 78.167839 
L 137.618731 78.199513 
L 139.574966 78.229747 
L 141.531202 78.258637 
L 143.487437 78.286271 
L 145.443672 78.312729 
L 147.399907 78.338085 
L 149.356143 78.362406 
L 151.312378 78.385754 
L 153.268613 78.408186 
L 155.224849 78.429756 
L 157.181084 78.450511 
L 159.137319 78.470498 
L 161.093555 78.489758 
L 163.04979 78.508331 
L 165.006025 78.526251 
L 166.962261 78.543554 
L 168.918496 78.56027 
L 170.874731 78.576429 
L 172.830966 78.592058 
L 174.787202 78.607183 
L 176.743437 78.621828 
L 178.699672 78.636015 
L 180.655908 78.649766 
L 182.612143 78.6631 
L 184.568378 78.676035 
L 186.524614 78.688591 
L 188.480849 78.700782 
L 190.437084 78.712626 
L 192.393319 78.724135 
L 194.349555 78.735325 
L 196.30579 78.746208 
L 198.262025 78.756797 
L 200.218261 78.767104 
L 202.174496 78.77714 
L 204.130731 78.786915 
L 206.086967 78.796439 
L 208.043202 78.805722 
L 209.999437 78.814773 
L 211.955672 78.8236 
" style="fill:none;stroke:#000000;stroke-dasharray:5.55,2.4;stroke-dashoffset:0;stroke-width:1.5;"/>
   </g>
   <g id="patch_3">
    <path d="M 45.57786 82.088367 
L 45.57786 25.8 
" style="fill:none;stroke:#000000;stroke-linecap:square;stroke-linejoin:miter;stroke-width:0.8;"/>
   </g>
   <g id="patch_4">
    <path d="M 219.878425 82.088367 
L 219.878425 25.8 
" style="fill:none;stroke:#000000;stroke-linecap:square;stroke-linejoin:miter;stroke-width:0.8;"/>
   </g>
   <g id="patch_5">
    <path d="M 45.57786 82.088367 
L 219.878425 82.088367 
" style="fill:none;stroke:#000000;stroke-linecap:square;stroke-linejoin:miter;stroke-width:0.8;"/>
   </g>
   <g id="patch_6">
    <path d="M 45.57786 25.8 
L 219.878425 25.8 
" style="fill:none;stroke:#000000;stroke-linecap:square;stroke-linejoin:miter;stroke-width:0.8;"/>
   </g>
   <g id="text_6">
    <!-- Difference $\Delta=\theta_{calc}-\theta_{exct}$ -->
    <g transform="translate(64.634746 19.8)scale(0.12 -0.12)">
     <defs>
      <path d="M 333 4352 
L 333 4185 
C 774 4185 845 4185 845 3898 
L 845 453 
C 845 166 774 166 333 166 
L 333 0 
L 2368 0 
C 3398 0 4224 943 4224 2140 
C 4224 3344 3411 4352 2368 4352 
L 333 4352 
z
M 1523 166 
C 1267 166 1254 198 1254 414 
L 1254 3936 
C 1254 4153 1267 4185 1523 4185 
L 2240 4185 
C 2771 4185 3750 3873 3750 2140 
C 3750 1242 3488 879 3366 707 
C 3213 510 2848 166 2240 166 
L 1523 166 
z
" id="CMR17-44" transform="scale(0.015625)"/>
      <path d="M 992 3961 
C 992 4102 877 4224 730 4224 
C 589 4224 467 4108 467 3961 
C 467 3820 582 3699 730 3699 
C 870 3699 992 3814 992 3961 
z
M 243 2745 
L 243 2579 
C 602 2579 653 2540 653 2231 
L 653 443 
C 653 198 627 166 218 166 
L 218 0 
C 371 12 646 12 806 12 
C 960 12 1222 12 1370 0 
L 1370 166 
C 992 166 979 205 979 436 
L 979 2816 
L 243 2745 
z
" id="CMR17-69" transform="scale(0.015625)"/>
      <path d="M 2554 2585 
L 3283 2585 
L 3283 2752 
L 2541 2752 
L 2541 3520 
C 2541 4047 2810 4377 3085 4377 
C 3168 4377 3264 4352 3328 4307 
C 3277 4294 3142 4250 3142 4091 
C 3142 3926 3270 3875 3360 3875 
C 3450 3875 3578 3926 3578 4091 
C 3578 4333 3347 4480 3091 4480 
C 2842 4480 2637 4358 2477 4206 
C 2330 4415 2086 4480 1837 4480 
C 1338 4480 634 4193 634 3494 
L 634 2752 
L 122 2752 
L 122 2585 
L 634 2585 
L 634 441 
C 634 198 608 166 198 166 
L 198 0 
C 352 12 634 12 794 12 
C 960 12 1242 12 1395 0 
L 1395 166 
C 986 166 960 192 960 441 
L 960 2585 
L 2227 2585 
L 2227 441 
C 2227 198 2202 166 1792 166 
L 1792 0 
C 1946 12 2240 12 2406 12 
C 2592 12 2918 12 3091 0 
L 3091 166 
C 2630 166 2554 166 2554 454 
L 2554 2585 
z
M 947 2752 
L 947 3494 
C 947 4072 1395 4377 1824 4377 
C 1920 4377 2170 4358 2323 4218 
C 2208 4212 2099 4161 2099 4002 
C 2099 3837 2246 3793 2259 3793 
C 2227 3679 2227 3552 2227 3507 
L 2227 2752 
L 947 2752 
z
" id="CMR17-b" transform="scale(0.015625)"/>
      <path d="M 2438 1503 
C 2464 1529 2464 1542 2464 1606 
C 2464 2251 2118 2816 1389 2816 
C 710 2816 173 2175 173 1394 
C 173 554 781 -64 1459 -64 
C 2176 -64 2458 619 2458 755 
C 2458 800 2419 800 2406 800 
C 2362 800 2355 787 2330 709 
C 2189 270 1837 51 1504 51 
C 1229 51 954 206 781 490 
C 582 819 582 1200 582 1503 
L 2438 1503 
z
M 589 1600 
C 634 2511 1126 2713 1382 2713 
C 1818 2713 2112 2308 2118 1600 
L 589 1600 
z
" id="CMR17-65" transform="scale(0.015625)"/>
      <path d="M 960 1517 
C 960 2134 1222 2713 1702 2713 
C 1747 2713 1792 2707 1837 2687 
C 1837 2687 1696 2642 1696 2475 
C 1696 2321 1818 2257 1914 2257 
C 1990 2257 2131 2302 2131 2482 
C 2131 2687 1926 2816 1709 2816 
C 1222 2816 1011 2340 947 2115 
L 941 2115 
L 941 2816 
L 198 2745 
L 198 2578 
C 576 2578 634 2540 634 2231 
L 634 443 
C 634 198 608 166 198 166 
L 198 0 
C 352 12 646 12 813 12 
C 998 12 1325 12 1498 0 
L 1498 166 
C 1037 166 960 166 960 455 
L 960 1517 
z
" id="CMR17-72" transform="scale(0.015625)"/>
      <path d="M 2656 1954 
C 2656 2282 2592 2816 1837 2816 
C 1331 2816 1069 2424 973 2166 
L 966 2166 
L 966 2816 
L 211 2745 
L 211 2578 
C 589 2578 646 2540 646 2231 
L 646 443 
C 646 198 621 166 211 166 
L 211 0 
C 365 12 646 12 813 12 
C 979 12 1267 12 1421 0 
L 1421 166 
C 1011 166 986 192 986 443 
L 986 1678 
C 986 2269 1344 2713 1792 2713 
C 2266 2713 2317 2289 2317 1980 
L 2317 443 
C 2317 198 2291 166 1882 166 
L 1882 0 
C 2035 12 2317 12 2483 12 
C 2650 12 2938 12 3091 0 
L 3091 166 
C 2682 166 2656 192 2656 443 
L 2656 1954 
z
" id="CMR17-6e" transform="scale(0.015625)"/>
      <path d="M 2234 2240 
C 2112 2240 1933 2240 1933 2015 
C 1933 1836 2080 1785 2163 1785 
C 2208 1785 2394 1804 2394 2028 
C 2394 2476 1958 2816 1466 2816 
C 787 2816 211 2201 211 1379 
C 211 521 813 -64 1466 -64 
C 2259 -64 2458 676 2458 747 
C 2458 773 2451 792 2406 792 
C 2362 792 2355 786 2330 702 
C 2163 180 1798 51 1523 51 
C 1114 51 621 431 621 1385 
C 621 2358 1094 2700 1472 2700 
C 1722 2700 2093 2582 2234 2240 
z
" id="CMR17-63" transform="scale(0.015625)"/>
      <path d="M 2598 4435 
C 2547 4544 2522 4544 2470 4544 
C 2394 4544 2387 4531 2342 4441 
L 269 108 
C 262 96 237 38 237 32 
C 237 6 243 0 358 0 
L 4576 0 
C 4691 0 4698 6 4698 32 
C 4698 38 4672 96 4666 108 
L 2598 4435 
z
M 2310 4056 
L 4083 358 
L 531 358 
L 2310 4056 
z
" id="CMR17-1" transform="scale(0.015625)"/>
      <path d="M 4115 2048 
C 4211 2048 4307 2048 4307 2156 
C 4307 2272 4198 2272 4090 2272 
L 512 2272 
C 403 2272 294 2272 294 2156 
C 294 2048 390 2048 486 2048 
L 4115 2048 
z
M 4090 927 
C 4198 927 4307 927 4307 1043 
C 4307 1152 4211 1152 4115 1152 
L 486 1152 
C 390 1152 294 1152 294 1043 
C 294 927 403 927 512 927 
L 4090 927 
z
" id="CMR17-3d" transform="scale(0.015625)"/>
      <path d="M 2835 3200 
C 2835 3849 2630 4480 2106 4480 
C 1210 4480 256 2615 256 1215 
C 256 922 320 -64 992 -64 
C 1862 -64 2835 1755 2835 3200 
z
M 896 2304 
C 992 2679 1126 3213 1382 3665 
C 1594 4046 1818 4351 2099 4351 
C 2310 4351 2451 4173 2451 3563 
C 2451 3334 2432 3016 2246 2304 
L 896 2304 
z
M 2202 2112 
C 2042 1488 1907 1088 1677 687 
C 1491 362 1267 64 998 64 
C 800 64 640 216 640 846 
C 640 1259 742 1692 845 2112 
L 2202 2112 
z
" id="CMMI12-12" transform="scale(0.015625)"/>
      <path d="M 2502 2432 
C 2381 2432 2323 2432 2234 2355 
C 2195 2323 2125 2227 2125 2124 
C 2125 1996 2221 1919 2342 1919 
C 2496 1919 2669 2047 2669 2303 
C 2669 2591 2374 2816 1933 2816 
C 1094 2816 256 1932 256 1011 
C 256 446 602 -64 1254 -64 
C 2125 -64 2675 622 2675 706 
C 2675 745 2637 777 2611 777 
C 2592 777 2586 771 2528 712 
C 2118 161 1510 64 1267 64 
C 826 64 685 453 685 777 
C 685 1004 794 1634 1024 2073 
C 1190 2374 1536 2687 1939 2687 
C 2022 2687 2374 2676 2502 2432 
z
" id="CMMI12-63" transform="scale(0.015625)"/>
      <path d="M 1926 759 
C 1894 651 1894 638 1805 517 
C 1664 338 1382 64 1082 64 
C 819 64 672 300 672 676 
C 672 1028 870 1743 992 2011 
C 1210 2458 1510 2687 1760 2687 
C 2182 2687 2266 2164 2266 2113 
C 2266 2107 2246 2024 2240 2011 
L 1926 759 
z
M 2336 2394 
C 2266 2560 2093 2816 1760 2816 
C 1037 2816 256 1883 256 938 
C 256 306 627 -64 1062 -64 
C 1414 -64 1715 210 1894 421 
C 1958 44 2259 -64 2451 -64 
C 2643 -64 2797 51 2912 280 
C 3014 496 3104 885 3104 910 
C 3104 942 3078 968 3040 968 
C 2982 968 2976 936 2950 840 
C 2854 465 2733 64 2470 64 
C 2285 64 2272 229 2272 356 
C 2272 503 2291 573 2349 821 
C 2394 980 2426 1120 2477 1305 
C 2714 2260 2771 2489 2771 2528 
C 2771 2617 2701 2688 2605 2688 
C 2400 2688 2349 2464 2336 2388 
L 2336 2394 
z
" id="CMMI12-61" transform="scale(0.015625)"/>
      <path d="M 1626 4255 
C 1632 4281 1645 4319 1645 4351 
C 1645 4416 1581 4416 1568 4416 
C 1562 4416 1331 4396 1216 4383 
C 1107 4377 1011 4364 896 4358 
C 742 4345 698 4339 698 4223 
C 698 4159 762 4159 826 4159 
C 1152 4159 1152 4102 1152 4039 
C 1152 4013 1152 4001 1120 3886 
L 326 731 
C 307 661 294 610 294 509 
C 294 191 531 -64 858 -64 
C 1069 -64 1210 76 1312 273 
C 1421 483 1510 884 1510 909 
C 1510 941 1485 967 1446 967 
C 1389 967 1382 935 1357 839 
C 1242 401 1126 64 870 64 
C 678 64 678 267 678 356 
C 678 382 678 515 723 693 
L 1626 4255 
z
" id="CMMI12-6c" transform="scale(0.015625)"/>
      <path d="M 4218 1472 
C 4326 1472 4442 1472 4442 1600 
C 4442 1728 4326 1728 4218 1728 
L 755 1728 
C 646 1728 531 1728 531 1600 
C 531 1472 646 1472 755 1472 
L 4218 1472 
z
" id="CMSY10-0" transform="scale(0.015625)"/>
      <path d="M 1146 1472 
C 1318 1472 1754 1484 2061 1600 
C 2547 1786 2592 2160 2592 2275 
C 2592 2559 2349 2816 1926 2816 
C 1254 2816 288 2205 288 1066 
C 288 400 672 -64 1254 -64 
C 2125 -64 2675 609 2675 691 
C 2675 729 2637 761 2611 761 
C 2592 761 2586 755 2528 698 
C 2118 159 1510 64 1267 64 
C 902 64 710 349 710 818 
C 710 907 710 1066 806 1472 
L 1146 1472 
z
M 838 1600 
C 1114 2591 1722 2687 1926 2687 
C 2208 2687 2400 2520 2400 2275 
C 2400 1600 1376 1600 1107 1600 
L 838 1600 
z
" id="CMMI12-65" transform="scale(0.015625)"/>
      <path d="M 3034 2624 
C 2829 2585 2752 2431 2752 2310 
C 2752 2156 2874 2105 2963 2105 
C 3155 2105 3290 2271 3290 2444 
C 3290 2694 2982 2816 2714 2816 
C 2323 2816 2106 2451 2048 2329 
C 1901 2790 1504 2816 1389 2816 
C 736 2816 390 1993 390 1849 
C 390 1823 416 1790 461 1790 
C 512 1790 525 1829 538 1855 
C 755 2572 1184 2687 1370 2687 
C 1658 2687 1715 2438 1715 2284 
C 1715 2143 1677 1993 1600 1678 
L 1382 778 
C 1286 390 1101 64 762 64 
C 730 64 570 64 435 126 
C 666 166 717 358 717 435 
C 717 563 621 640 499 640 
C 346 640 179 505 179 300 
C 179 57 480 -64 755 -64 
C 1062 -64 1280 153 1414 415 
C 1517 64 1837 -64 2074 -64 
C 2726 -64 3072 751 3072 896 
C 3072 929 3046 955 3008 955 
C 2950 955 2944 922 2925 870 
C 2752 300 2381 64 2093 64 
C 1869 64 1747 204 1747 467 
C 1747 607 1773 712 1875 1146 
L 2099 2039 
C 2195 2425 2413 2687 2707 2687 
C 2720 2687 2899 2687 3034 2624 
z
" id="CMMI12-78" transform="scale(0.015625)"/>
      <path d="M 1286 2566 
L 1875 2566 
C 1997 2566 2061 2566 2061 2681 
C 2061 2752 2022 2752 1894 2752 
L 1331 2752 
L 1568 3664 
C 1594 3752 1594 3764 1594 3808 
C 1594 3910 1510 3968 1427 3968 
C 1376 3968 1229 3948 1178 3746 
L 928 2752 
L 326 2752 
C 198 2752 141 2752 141 2630 
C 141 2566 186 2566 307 2566 
L 877 2566 
L 454 881 
C 403 657 384 593 384 510 
C 384 210 595 -64 954 -64 
C 1600 -64 1946 868 1946 913 
C 1946 951 1920 970 1882 970 
C 1869 970 1843 970 1830 944 
C 1824 938 1818 932 1773 830 
C 1638 510 1344 64 973 64 
C 781 64 768 223 768 364 
C 768 370 768 491 787 568 
L 1286 2566 
z
" id="CMMI12-74" transform="scale(0.015625)"/>
     </defs>
     <use transform="scale(0.996264)" xlink:href="#CMR17-44"/>
     <use transform="translate(70.393556 0)scale(0.996264)" xlink:href="#CMR17-69"/>
     <use transform="translate(95.264614 0)scale(0.996264)" xlink:href="#CMR17-b"/>
     <use transform="translate(147.609292 0)scale(0.996264)" xlink:href="#CMR17-65"/>
     <use transform="translate(188.094952 0)scale(0.996264)" xlink:href="#CMR17-72"/>
     <use transform="translate(223.37572 0)scale(0.996264)" xlink:href="#CMR17-65"/>
     <use transform="translate(263.86138 0)scale(0.996264)" xlink:href="#CMR17-6e"/>
     <use transform="translate(314.75675 0)scale(0.996264)" xlink:href="#CMR17-63"/>
     <use transform="translate(355.242411 0)scale(0.996264)" xlink:href="#CMR17-65"/>
     <use transform="translate(425.804037 0)scale(0.996264)" xlink:href="#CMR17-1"/>
     <use transform="translate(530.397636 0)scale(0.996264)" xlink:href="#CMR17-3d"/>
     <use transform="translate(629.786433 0)scale(0.996264)" xlink:href="#CMMI12-12"/>
     <use transform="translate(675.246223 -14.943915)scale(0.697382)" xlink:href="#CMMI12-63"/>
     <use transform="translate(704.634355 -14.943915)scale(0.697382)" xlink:href="#CMMI12-61"/>
     <use transform="translate(740.479701 -14.943915)scale(0.697382)" xlink:href="#CMMI12-6c"/>
     <use transform="translate(762.353485 -14.943915)scale(0.697382)" xlink:href="#CMMI12-63"/>
     <use transform="translate(814.378956 0)scale(0.996264)" xlink:href="#CMSY10-0"/>
     <use transform="translate(914.00563 0)scale(0.996264)" xlink:href="#CMMI12-12"/>
     <use transform="translate(959.46542 -14.943915)scale(0.697382)" xlink:href="#CMMI12-65"/>
     <use transform="translate(991.113676 -14.943915)scale(0.697382)" xlink:href="#CMMI12-78"/>
     <use transform="translate(1029.917336 -14.943915)scale(0.697382)" xlink:href="#CMMI12-63"/>
     <use transform="translate(1059.305467 -14.943915)scale(0.697382)" xlink:href="#CMMI12-74"/>
    </g>
   </g>
   <g id="legend_1">
    <g id="patch_7">
     <path d="M 159.401089 47.737178 
L 212.878425 47.737178 
Q 214.878425 47.737178 214.878425 45.737178 
L 214.878425 32.8 
Q 214.878425 30.8 212.878425 30.8 
L 159.401089 30.8 
Q 157.401089 30.8 157.401089 32.8 
L 157.401089 45.737178 
Q 157.401089 47.737178 159.401089 47.737178 
z
" style="fill:#ffffff;opacity:0.8;stroke:#cccccc;stroke-linejoin:miter;"/>
    </g>
    <g id="line2d_7">
     <path d="M 161.401089 38.3 
L 181.401089 38.3 
" style="fill:none;stroke:#000000;stroke-dasharray:5.55,2.4;stroke-dashoffset:0;stroke-width:1.5;"/>
    </g>
    <g id="line2d_8"/>
    <g id="text_7">
     <!-- $n=$0 -->
     <g transform="translate(189.401089 41.8)scale(0.1 -0.1)">
      <defs>
       <path d="M 1318 1870 
C 1331 1909 1491 2228 1728 2432 
C 1894 2585 2112 2687 2362 2687 
C 2618 2687 2707 2496 2707 2241 
C 2707 1877 2445 1149 2317 804 
C 2259 651 2227 568 2227 453 
C 2227 166 2426 -64 2733 -64 
C 3328 -64 3552 874 3552 913 
C 3552 945 3526 970 3488 970 
C 3430 970 3424 951 3392 842 
C 3245 319 3002 64 2752 64 
C 2688 64 2586 70 2586 274 
C 2586 434 2656 625 2694 715 
C 2822 1066 3091 1781 3091 2145 
C 3091 2528 2867 2816 2381 2816 
C 1811 2816 1510 2413 1395 2253 
C 1376 2617 1114 2816 832 2816 
C 627 2816 486 2694 378 2477 
C 262 2247 173 1864 173 1838 
C 173 1813 198 1781 243 1781 
C 294 1781 301 1787 339 1934 
C 442 2324 557 2687 813 2687 
C 960 2687 1011 2585 1011 2394 
C 1011 2253 947 2004 902 1807 
L 723 1117 
C 698 996 627 708 595 593 
C 550 427 480 127 480 95 
C 480 6 550 -64 646 -64 
C 723 -64 813 -26 864 70 
C 877 102 934 325 966 453 
L 1107 1028 
L 1318 1870 
z
" id="CMMI12-6e" transform="scale(0.015625)"/>
      </defs>
      <use transform="scale(0.996264)" xlink:href="#CMMI12-6e"/>
      <use transform="translate(85.904056 0)scale(0.996264)" xlink:href="#CMR17-3d"/>
      <use transform="translate(157.618844 0)scale(0.996264)" xlink:href="#CMR17-30"/>
     </g>
    </g>
   </g>
  </g>
  <g id="axes_2">
   <g id="patch_8">
    <path d="M 268.234075 82.088367 
L 442.534641 82.088367 
L 442.534641 25.8 
L 268.234075 25.8 
z
" style="fill:#ffffff;"/>
   </g>
   <g id="matplotlib.axis_3">
    <g id="xtick_4">
     <g id="line2d_9">
      <g>
       <use style="stroke:#000000;stroke-width:0.8;" x="276.156828" xlink:href="#mbb736ac3ce" y="82.088367"/>
      </g>
     </g>
     <g id="text_8">
      <!-- $\mathdefault{0}$ -->
      <g transform="translate(273.666161 96.006865)scale(0.1 -0.1)">
       <use transform="scale(0.996264)" xlink:href="#CMR17-30"/>
      </g>
     </g>
    </g>
    <g id="xtick_5">
     <g id="line2d_10">
      <g>
       <use style="stroke:#000000;stroke-width:0.8;" x="341.364672" xlink:href="#mbb736ac3ce" y="82.088367"/>
      </g>
     </g>
     <g id="text_9">
      <!-- $\mathdefault{1}$ -->
      <g transform="translate(338.874004 96.006865)scale(0.1 -0.1)">
       <use transform="scale(0.996264)" xlink:href="#CMR17-31"/>
      </g>
     </g>
    </g>
    <g id="xtick_6">
     <g id="line2d_11">
      <g>
       <use style="stroke:#000000;stroke-width:0.8;" x="406.572515" xlink:href="#mbb736ac3ce" y="82.088367"/>
      </g>
     </g>
     <g id="text_10">
      <!-- $\mathdefault{2}$ -->
      <g transform="translate(404.081848 96.006865)scale(0.1 -0.1)">
       <use transform="scale(0.996264)" xlink:href="#CMR17-32"/>
      </g>
     </g>
    </g>
   </g>
   <g id="matplotlib.axis_4">
    <g id="ytick_3">
     <g id="line2d_12">
      <g>
       <use style="stroke:#000000;stroke-width:0.8;" x="268.234075" xlink:href="#m7002652681" y="79.529805"/>
      </g>
     </g>
     <g id="text_11">
      <!-- $\mathdefault{0.00}$ -->
      <g transform="translate(243.522661 82.989054)scale(0.1 -0.1)">
       <use transform="scale(0.996264)" xlink:href="#CMR17-30"/>
       <use transform="translate(45.690477 0)scale(0.996264)" xlink:href="#CMMI12-3a"/>
       <use transform="translate(72.787654 0)scale(0.996264)" xlink:href="#CMR17-30"/>
       <use transform="translate(118.478131 0)scale(0.996264)" xlink:href="#CMR17-30"/>
      </g>
     </g>
    </g>
    <g id="ytick_4">
     <g id="line2d_13">
      <g>
       <use style="stroke:#000000;stroke-width:0.8;" x="268.234075" xlink:href="#m7002652681" y="45.42076"/>
      </g>
     </g>
     <g id="text_12">
      <!-- $\mathdefault{0.01}$ -->
      <g transform="translate(243.522661 48.880009)scale(0.1 -0.1)">
       <use transform="scale(0.996264)" xlink:href="#CMR17-30"/>
       <use transform="translate(45.690477 0)scale(0.996264)" xlink:href="#CMMI12-3a"/>
       <use transform="translate(72.787654 0)scale(0.996264)" xlink:href="#CMR17-30"/>
       <use transform="translate(118.478131 0)scale(0.996264)" xlink:href="#CMR17-31"/>
      </g>
     </g>
    </g>
   </g>
   <g id="line2d_14">
    <path clip-path="url(#p3969144441)" d="M 276.156828 79.529805 
L 278.113064 28.358562 
L 280.069299 51.088536 
L 282.025534 60.459844 
L 283.98177 65.201458 
L 285.938005 68.04938 
L 287.89424 69.94628 
L 289.850476 71.298992 
L 291.806711 72.311389 
L 293.762946 73.096829 
L 295.719181 73.723352 
L 297.675417 74.234265 
L 299.631652 74.658436 
L 301.587887 75.015851 
L 303.544123 75.320784 
L 305.500358 75.583698 
L 307.456593 75.812439 
L 309.412829 76.013004 
L 311.369064 76.190053 
L 313.325299 76.347263 
L 315.281534 76.487574 
L 317.23777 76.613361 
L 319.194005 76.726565 
L 321.15024 76.828786 
L 323.106476 76.921353 
L 325.062711 77.005382 
L 327.018946 77.081811 
L 328.975182 77.151436 
L 330.931417 77.214935 
L 332.887652 77.27289 
L 334.843887 77.325799 
L 336.800123 77.374093 
L 338.756358 77.418142 
L 340.712593 77.458269 
L 342.668829 77.494751 
L 344.625064 77.527829 
L 346.581299 77.557708 
L 348.537535 77.584568 
L 350.49377 77.608559 
L 352.450005 77.629809 
L 354.406241 77.648425 
L 356.362476 77.664491 
L 358.318711 77.678077 
L 360.274946 77.689229 
L 362.231182 77.69798 
L 364.187417 77.704344 
L 366.143652 77.708318 
L 368.099888 77.70988 
L 370.056123 77.708991 
L 372.012358 77.70559 
L 373.968594 77.699598 
L 375.924829 77.69091 
L 377.881064 77.679395 
L 379.837299 77.664893 
L 381.793535 77.647211 
L 383.74977 77.626116 
L 385.706005 77.601329 
L 387.662241 77.572518 
L 389.618476 77.539286 
L 391.574711 77.501157 
L 393.530947 77.45756 
L 395.487182 77.407804 
L 397.443417 77.351054 
L 399.399652 77.286284 
L 401.355888 77.212233 
L 403.312123 77.127328 
L 405.268358 77.029588 
L 407.224594 76.916484 
L 409.180829 76.784741 
L 411.137064 76.630039 
L 413.0933 76.446572 
L 415.049535 76.226345 
L 417.00577 75.95804 
L 418.962005 75.625101 
L 420.918241 75.202306 
L 422.874476 74.649254 
L 424.830711 73.89693 
L 426.786947 72.816938 
L 428.743182 71.14015 
L 430.699417 68.191134 
L 432.655653 61.656693 
L 434.611888 34.981021 
" style="fill:none;stroke:#000000;stroke-dasharray:5.55,2.4;stroke-dashoffset:0;stroke-width:1.5;"/>
   </g>
   <g id="patch_9">
    <path d="M 268.234075 82.088367 
L 268.234075 25.8 
" style="fill:none;stroke:#000000;stroke-linecap:square;stroke-linejoin:miter;stroke-width:0.8;"/>
   </g>
   <g id="patch_10">
    <path d="M 442.534641 82.088367 
L 442.534641 25.8 
" style="fill:none;stroke:#000000;stroke-linecap:square;stroke-linejoin:miter;stroke-width:0.8;"/>
   </g>
   <g id="patch_11">
    <path d="M 268.234075 82.088367 
L 442.534641 82.088367 
" style="fill:none;stroke:#000000;stroke-linecap:square;stroke-linejoin:miter;stroke-width:0.8;"/>
   </g>
   <g id="patch_12">
    <path d="M 268.234075 25.8 
L 442.534641 25.8 
" style="fill:none;stroke:#000000;stroke-linecap:square;stroke-linejoin:miter;stroke-width:0.8;"/>
   </g>
   <g id="text_13">
    <!-- Difference $\Delta/\theta_{exct}$ in [%] -->
    <g transform="translate(299.093648 19.8)scale(0.12 -0.12)">
     <defs>
      <path d="M 2746 4563 
C 2746 4569 2784 4665 2784 4678 
C 2784 4755 2720 4800 2669 4800 
C 2637 4800 2579 4800 2528 4659 
L 384 -1364 
C 384 -1370 346 -1466 346 -1479 
C 346 -1556 410 -1600 461 -1600 
C 499 -1600 557 -1594 602 -1460 
L 2746 4563 
z
" id="CMMI12-3d" transform="scale(0.015625)"/>
      <path d="M 1504 -1600 
L 1504 -1376 
L 902 -1376 
L 902 4575 
L 1504 4575 
L 1504 4800 
L 678 4800 
L 678 -1600 
L 1504 -1600 
z
" id="CMR17-5b" transform="scale(0.015625)"/>
     </defs>
     <use transform="scale(0.996264)" xlink:href="#CMR17-44"/>
     <use transform="translate(70.393556 0)scale(0.996264)" xlink:href="#CMR17-69"/>
     <use transform="translate(95.264614 0)scale(0.996264)" xlink:href="#CMR17-b"/>
     <use transform="translate(147.609292 0)scale(0.996264)" xlink:href="#CMR17-65"/>
     <use transform="translate(188.094952 0)scale(0.996264)" xlink:href="#CMR17-72"/>
     <use transform="translate(223.37572 0)scale(0.996264)" xlink:href="#CMR17-65"/>
     <use transform="translate(263.86138 0)scale(0.996264)" xlink:href="#CMR17-6e"/>
     <use transform="translate(314.75675 0)scale(0.996264)" xlink:href="#CMR17-63"/>
     <use transform="translate(355.242411 0)scale(0.996264)" xlink:href="#CMR17-65"/>
     <use transform="translate(425.804037 0)scale(0.996264)" xlink:href="#CMR17-1"/>
     <use transform="translate(502.723627 0)scale(0.996264)" xlink:href="#CMMI12-3d"/>
     <use transform="translate(551.498546 0)scale(0.996264)" xlink:href="#CMMI12-12"/>
     <use transform="translate(596.958336 -14.943915)scale(0.697382)" xlink:href="#CMMI12-65"/>
     <use transform="translate(628.606592 -14.943915)scale(0.697382)" xlink:href="#CMMI12-78"/>
     <use transform="translate(667.410252 -14.943915)scale(0.697382)" xlink:href="#CMMI12-63"/>
     <use transform="translate(696.798383 -14.943915)scale(0.697382)" xlink:href="#CMMI12-74"/>
     <use transform="translate(752.030791 0)scale(0.996264)" xlink:href="#CMR17-69"/>
     <use transform="translate(776.901849 0)scale(0.996264)" xlink:href="#CMR17-6e"/>
     <use transform="translate(857.873186 0)scale(0.996264)" xlink:href="#CMR17-5b"/>
    </g>
   </g>
   <g id="legend_2">
    <g id="patch_13">
     <path d="M 328.64569 47.737178 
L 382.123026 47.737178 
Q 384.123026 47.737178 384.123026 45.737178 
L 384.123026 32.8 
Q 384.123026 30.8 382.123026 30.8 
L 328.64569 30.8 
Q 326.64569 30.8 326.64569 32.8 
L 326.64569 45.737178 
Q 326.64569 47.737178 328.64569 47.737178 
z
" style="fill:#ffffff;opacity:0.8;stroke:#cccccc;stroke-linejoin:miter;"/>
    </g>
    <g id="line2d_15">
     <path d="M 330.64569 38.3 
L 350.64569 38.3 
" style="fill:none;stroke:#000000;stroke-dasharray:5.55,2.4;stroke-dashoffset:0;stroke-width:1.5;"/>
    </g>
    <g id="line2d_16"/>
    <g id="text_14">
     <!-- $n=$0 -->
     <g transform="translate(358.64569 41.8)scale(0.1 -0.1)">
      <use transform="scale(0.996264)" xlink:href="#CMMI12-6e"/>
      <use transform="translate(85.904056 0)scale(0.996264)" xlink:href="#CMR17-3d"/>
      <use transform="translate(157.618844 0)scale(0.996264)" xlink:href="#CMR17-30"/>
     </g>
    </g>
   </g>
  </g>
  <g id="axes_3">
   <g id="patch_14">
    <path d="M 45.57786 155.263243 
L 219.878425 155.263243 
L 219.878425 98.974877 
L 45.57786 98.974877 
z
" style="fill:#ffffff;"/>
   </g>
   <g id="matplotlib.axis_5">
    <g id="xtick_7">
     <g id="line2d_17">
      <g>
       <use style="stroke:#000000;stroke-width:0.8;" x="53.500613" xlink:href="#mbb736ac3ce" y="155.263243"/>
      </g>
     </g>
     <g id="text_15">
      <!-- $\mathdefault{0}$ -->
      <g transform="translate(51.009945 169.181742)scale(0.1 -0.1)">
       <use transform="scale(0.996264)" xlink:href="#CMR17-30"/>
      </g>
     </g>
    </g>
    <g id="xtick_8">
     <g id="line2d_18">
      <g>
       <use style="stroke:#000000;stroke-width:0.8;" x="104.287491" xlink:href="#mbb736ac3ce" y="155.263243"/>
      </g>
     </g>
     <g id="text_16">
      <!-- $\mathdefault{1}$ -->
      <g transform="translate(101.796823 169.181742)scale(0.1 -0.1)">
       <use transform="scale(0.996264)" xlink:href="#CMR17-31"/>
      </g>
     </g>
    </g>
    <g id="xtick_9">
     <g id="line2d_19">
      <g>
       <use style="stroke:#000000;stroke-width:0.8;" x="155.074369" xlink:href="#mbb736ac3ce" y="155.263243"/>
      </g>
     </g>
     <g id="text_17">
      <!-- $\mathdefault{2}$ -->
      <g transform="translate(152.583701 169.181742)scale(0.1 -0.1)">
       <use transform="scale(0.996264)" xlink:href="#CMR17-32"/>
      </g>
     </g>
    </g>
    <g id="xtick_10">
     <g id="line2d_20">
      <g>
       <use style="stroke:#000000;stroke-width:0.8;" x="205.861247" xlink:href="#mbb736ac3ce" y="155.263243"/>
      </g>
     </g>
     <g id="text_18">
      <!-- $\mathdefault{3}$ -->
      <g transform="translate(203.370579 169.181742)scale(0.1 -0.1)">
       <defs>
        <path d="M 1414 2176 
C 1984 2176 2234 1673 2234 1094 
C 2234 322 1824 25 1453 25 
C 1114 25 563 193 390 691 
C 422 678 454 678 486 678 
C 640 678 755 780 755 947 
C 755 1132 614 1216 486 1216 
C 378 1216 211 1164 211 927 
C 211 335 787 -128 1466 -128 
C 2176 -128 2720 432 2720 1087 
C 2720 1718 2208 2176 1600 2246 
C 2086 2347 2554 2776 2554 3353 
C 2554 3856 2048 4224 1472 4224 
C 890 4224 378 3862 378 3347 
C 378 3123 544 3084 627 3084 
C 762 3084 877 3167 877 3334 
C 877 3500 762 3584 627 3584 
C 602 3584 570 3584 544 3571 
C 730 3999 1235 4076 1459 4076 
C 1683 4076 2106 3966 2106 3347 
C 2106 3167 2080 2851 1862 2574 
C 1670 2329 1453 2316 1242 2297 
C 1210 2297 1062 2284 1037 2284 
C 992 2278 966 2272 966 2227 
C 966 2182 973 2176 1101 2176 
L 1414 2176 
z
" id="CMR17-33" transform="scale(0.015625)"/>
       </defs>
       <use transform="scale(0.996264)" xlink:href="#CMR17-33"/>
      </g>
     </g>
    </g>
   </g>
   <g id="matplotlib.axis_6">
    <g id="ytick_5">
     <g id="line2d_21">
      <g>
       <use style="stroke:#000000;stroke-width:0.8;" x="45.57786" xlink:href="#m7002652681" y="152.141572"/>
      </g>
     </g>
     <g id="text_19">
      <!-- $\mathdefault{0.0000}$ -->
      <g transform="translate(10.903775 155.600822)scale(0.1 -0.1)">
       <use transform="scale(0.996264)" xlink:href="#CMR17-30"/>
       <use transform="translate(45.690477 0)scale(0.996264)" xlink:href="#CMMI12-3a"/>
       <use transform="translate(72.787654 0)scale(0.996264)" xlink:href="#CMR17-30"/>
       <use transform="translate(118.478131 0)scale(0.996264)" xlink:href="#CMR17-30"/>
       <use transform="translate(164.168608 0)scale(0.996264)" xlink:href="#CMR17-30"/>
       <use transform="translate(209.859086 0)scale(0.996264)" xlink:href="#CMR17-30"/>
      </g>
     </g>
    </g>
    <g id="ytick_6">
     <g id="line2d_22">
      <g>
       <use style="stroke:#000000;stroke-width:0.8;" x="45.57786" xlink:href="#m7002652681" y="118.401298"/>
      </g>
     </g>
     <g id="text_20">
      <!-- $\mathdefault{0.0001}$ -->
      <g transform="translate(10.903775 121.860548)scale(0.1 -0.1)">
       <use transform="scale(0.996264)" xlink:href="#CMR17-30"/>
       <use transform="translate(45.690477 0)scale(0.996264)" xlink:href="#CMMI12-3a"/>
       <use transform="translate(72.787654 0)scale(0.996264)" xlink:href="#CMR17-30"/>
       <use transform="translate(118.478131 0)scale(0.996264)" xlink:href="#CMR17-30"/>
       <use transform="translate(164.168608 0)scale(0.996264)" xlink:href="#CMR17-30"/>
       <use transform="translate(209.859086 0)scale(0.996264)" xlink:href="#CMR17-31"/>
      </g>
     </g>
    </g>
   </g>
   <g id="line2d_23">
    <path clip-path="url(#p91f3eb81e0)" d="M 53.500613 152.141572 
L 55.024219 101.533439 
L 56.547826 124.035809 
L 58.071432 133.329702 
L 59.595038 138.048699 
L 61.118645 140.896569 
L 62.642251 142.804768 
L 64.165857 144.175281 
L 65.689464 145.209541 
L 67.21307 146.019549 
L 68.736676 146.672531 
L 70.260283 147.211272 
L 71.783889 147.664294 
L 73.307495 148.051342 
L 74.831102 148.386517 
L 76.354708 148.680157 
L 77.878314 148.940013 
L 79.401921 149.17201 
L 80.925527 149.380754 
L 82.449133 149.56988 
L 83.97274 149.742291 
L 85.496346 149.900339 
L 87.019952 150.045945 
L 88.543559 150.180694 
L 90.067165 150.305905 
L 91.590772 150.422685 
L 93.114378 150.53197 
L 94.637984 150.634555 
L 96.161591 150.73112 
L 97.685197 150.822252 
L 99.208803 150.908456 
L 100.73241 150.990173 
L 102.256016 151.067787 
L 103.779622 151.141634 
L 105.303229 151.212011 
L 106.826835 151.27918 
L 108.350441 151.343372 
L 109.874048 151.404793 
L 111.397654 151.463628 
L 112.92126 151.52004 
L 114.444867 151.574177 
L 115.968473 151.626172 
L 117.492079 151.676145 
L 119.015686 151.724203 
L 120.539292 151.770443 
L 122.062898 151.814956 
L 123.586505 151.857821 
L 125.110111 151.899113 
L 126.633717 151.938898 
L 128.157324 151.977239 
L 129.68093 152.014191 
L 131.204536 152.049807 
L 132.728143 152.084135 
L 134.251749 152.117219 
L 135.775355 152.149099 
L 137.298962 152.179814 
L 138.822568 152.209399 
L 140.346174 152.237887 
L 141.869781 152.265307 
L 143.393387 152.29169 
L 144.916993 152.31706 
L 146.4406 152.341444 
L 147.964206 152.364865 
L 149.487812 152.387346 
L 151.011419 152.408907 
L 152.535025 152.429568 
L 154.058632 152.449349 
L 155.582238 152.468267 
L 157.105844 152.486339 
L 158.629451 152.503583 
L 160.153057 152.520014 
L 161.676663 152.535646 
L 163.20027 152.550496 
L 164.723876 152.564576 
L 166.247482 152.577902 
L 167.771089 152.590485 
L 169.294695 152.602339 
L 170.818301 152.613477 
L 172.341908 152.623911 
L 173.865514 152.633652 
L 175.38912 152.642714 
L 176.912727 152.651108 
L 178.436333 152.658844 
L 179.959939 152.665936 
L 181.483546 152.672392 
L 183.007152 152.678226 
L 184.530758 152.683448 
L 186.054365 152.688068 
L 187.577971 152.692098 
L 189.101577 152.695549 
L 190.625184 152.69843 
L 192.14879 152.700754 
L 193.672396 152.70253 
L 195.196003 152.70377 
L 196.719609 152.704483 
L 198.243215 152.704681 
L 199.766822 152.704375 
L 201.290428 152.703574 
L 202.814034 152.70229 
L 204.337641 152.700534 
L 205.861247 152.698315 
L 207.384853 152.695645 
L 208.90846 152.692535 
L 210.432066 152.688995 
L 211.955672 152.685036 
" style="fill:none;stroke:#000000;stroke-dasharray:1.5,2.475;stroke-dashoffset:0;stroke-width:1.5;"/>
   </g>
   <g id="patch_15">
    <path d="M 45.57786 155.263243 
L 45.57786 98.974877 
" style="fill:none;stroke:#000000;stroke-linecap:square;stroke-linejoin:miter;stroke-width:0.8;"/>
   </g>
   <g id="patch_16">
    <path d="M 219.878425 155.263243 
L 219.878425 98.974877 
" style="fill:none;stroke:#000000;stroke-linecap:square;stroke-linejoin:miter;stroke-width:0.8;"/>
   </g>
   <g id="patch_17">
    <path d="M 45.57786 155.263243 
L 219.878425 155.263243 
" style="fill:none;stroke:#000000;stroke-linecap:square;stroke-linejoin:miter;stroke-width:0.8;"/>
   </g>
   <g id="patch_18">
    <path d="M 45.57786 98.974877 
L 219.878425 98.974877 
" style="fill:none;stroke:#000000;stroke-linecap:square;stroke-linejoin:miter;stroke-width:0.8;"/>
   </g>
   <g id="legend_3">
    <g id="patch_19">
     <path d="M 159.401089 120.912055 
L 212.878425 120.912055 
Q 214.878425 120.912055 214.878425 118.912055 
L 214.878425 105.974877 
Q 214.878425 103.974877 212.878425 103.974877 
L 159.401089 103.974877 
Q 157.401089 103.974877 157.401089 105.974877 
L 157.401089 118.912055 
Q 157.401089 120.912055 159.401089 120.912055 
z
" style="fill:#ffffff;opacity:0.8;stroke:#cccccc;stroke-linejoin:miter;"/>
    </g>
    <g id="line2d_24">
     <path d="M 161.401089 111.474877 
L 181.401089 111.474877 
" style="fill:none;stroke:#000000;stroke-dasharray:1.5,2.475;stroke-dashoffset:0;stroke-width:1.5;"/>
    </g>
    <g id="line2d_25"/>
    <g id="text_21">
     <!-- $n=$1 -->
     <g transform="translate(189.401089 114.974877)scale(0.1 -0.1)">
      <use transform="scale(0.996264)" xlink:href="#CMMI12-6e"/>
      <use transform="translate(85.904056 0)scale(0.996264)" xlink:href="#CMR17-3d"/>
      <use transform="translate(157.618844 0)scale(0.996264)" xlink:href="#CMR17-31"/>
     </g>
    </g>
   </g>
  </g>
  <g id="axes_4">
   <g id="patch_20">
    <path d="M 268.234075 155.263243 
L 442.534641 155.263243 
L 442.534641 98.974877 
L 268.234075 98.974877 
z
" style="fill:#ffffff;"/>
   </g>
   <g id="matplotlib.axis_7">
    <g id="xtick_11">
     <g id="line2d_26">
      <g>
       <use style="stroke:#000000;stroke-width:0.8;" x="276.156828" xlink:href="#mbb736ac3ce" y="155.263243"/>
      </g>
     </g>
     <g id="text_22">
      <!-- $\mathdefault{0}$ -->
      <g transform="translate(273.666161 169.181742)scale(0.1 -0.1)">
       <use transform="scale(0.996264)" xlink:href="#CMR17-30"/>
      </g>
     </g>
    </g>
    <g id="xtick_12">
     <g id="line2d_27">
      <g>
       <use style="stroke:#000000;stroke-width:0.8;" x="326.943706" xlink:href="#mbb736ac3ce" y="155.263243"/>
      </g>
     </g>
     <g id="text_23">
      <!-- $\mathdefault{1}$ -->
      <g transform="translate(324.453039 169.181742)scale(0.1 -0.1)">
       <use transform="scale(0.996264)" xlink:href="#CMR17-31"/>
      </g>
     </g>
    </g>
    <g id="xtick_13">
     <g id="line2d_28">
      <g>
       <use style="stroke:#000000;stroke-width:0.8;" x="377.730585" xlink:href="#mbb736ac3ce" y="155.263243"/>
      </g>
     </g>
     <g id="text_24">
      <!-- $\mathdefault{2}$ -->
      <g transform="translate(375.239917 169.181742)scale(0.1 -0.1)">
       <use transform="scale(0.996264)" xlink:href="#CMR17-32"/>
      </g>
     </g>
    </g>
    <g id="xtick_14">
     <g id="line2d_29">
      <g>
       <use style="stroke:#000000;stroke-width:0.8;" x="428.517463" xlink:href="#mbb736ac3ce" y="155.263243"/>
      </g>
     </g>
     <g id="text_25">
      <!-- $\mathdefault{3}$ -->
      <g transform="translate(426.026795 169.181742)scale(0.1 -0.1)">
       <use transform="scale(0.996264)" xlink:href="#CMR17-33"/>
      </g>
     </g>
    </g>
   </g>
   <g id="matplotlib.axis_8">
    <g id="ytick_7">
     <g id="line2d_30">
      <g>
       <use style="stroke:#000000;stroke-width:0.8;" x="268.234075" xlink:href="#m7002652681" y="155.009705"/>
      </g>
     </g>
     <g id="text_26">
      <!-- $\mathdefault{−0.025}$ -->
      <g transform="translate(230.792582 158.468954)scale(0.1 -0.1)">
       <defs>
        <path d="M 730 3750 
C 794 3724 1056 3641 1325 3641 
C 1920 3641 2246 3961 2432 4140 
C 2432 4191 2432 4224 2394 4224 
C 2387 4224 2374 4224 2323 4198 
C 2099 4102 1837 4032 1517 4032 
C 1325 4032 1037 4055 723 4191 
C 653 4224 640 4224 634 4224 
C 602 4224 595 4217 595 4090 
L 595 2231 
C 595 2113 595 2080 659 2080 
C 691 2080 704 2093 736 2139 
C 941 2435 1222 2560 1542 2560 
C 1766 2560 2246 2415 2246 1293 
C 2246 1087 2246 716 2054 422 
C 1894 159 1645 25 1370 25 
C 947 25 518 319 403 812 
C 429 806 480 793 506 793 
C 589 793 749 838 749 1036 
C 749 1209 627 1280 506 1280 
C 358 1280 262 1190 262 1011 
C 262 454 704 -128 1382 -128 
C 2042 -128 2669 441 2669 1267 
C 2669 2054 2170 2662 1549 2662 
C 1222 2662 947 2540 730 2304 
L 730 3750 
z
" id="CMR17-35" transform="scale(0.015625)"/>
       </defs>
       <use transform="scale(0.996264)" xlink:href="#CMSY10-0"/>
       <use transform="translate(77.487468 0)scale(0.996264)" xlink:href="#CMR17-30"/>
       <use transform="translate(123.177945 0)scale(0.996264)" xlink:href="#CMMI12-3a"/>
       <use transform="translate(150.275122 0)scale(0.996264)" xlink:href="#CMR17-30"/>
       <use transform="translate(195.965599 0)scale(0.996264)" xlink:href="#CMR17-32"/>
       <use transform="translate(241.656076 0)scale(0.996264)" xlink:href="#CMR17-35"/>
      </g>
     </g>
    </g>
    <g id="ytick_8">
     <g id="line2d_31">
      <g>
       <use style="stroke:#000000;stroke-width:0.8;" x="268.234075" xlink:href="#m7002652681" y="121.588355"/>
      </g>
     </g>
     <g id="text_27">
      <!-- $\mathdefault{0.000}$ -->
      <g transform="translate(238.541326 125.047604)scale(0.1 -0.1)">
       <use transform="scale(0.996264)" xlink:href="#CMR17-30"/>
       <use transform="translate(45.690477 0)scale(0.996264)" xlink:href="#CMMI12-3a"/>
       <use transform="translate(72.787654 0)scale(0.996264)" xlink:href="#CMR17-30"/>
       <use transform="translate(118.478131 0)scale(0.996264)" xlink:href="#CMR17-30"/>
       <use transform="translate(164.168608 0)scale(0.996264)" xlink:href="#CMR17-30"/>
      </g>
     </g>
    </g>
   </g>
   <g id="line2d_32">
    <path clip-path="url(#p3ae93c77fe)" d="M 276.156828 121.588355 
L 277.680435 101.533439 
L 279.204041 110.445631 
L 280.727647 114.124661 
L 282.251254 115.991066 
L 283.77486 117.116118 
L 285.298466 117.868882 
L 286.822073 118.408639 
L 288.345679 118.815206 
L 289.869285 119.132968 
L 291.392892 119.388567 
L 292.916498 119.598964 
L 294.440105 119.775466 
L 295.963711 119.925903 
L 297.487317 120.055871 
L 299.010924 120.169471 
L 300.53453 120.269783 
L 302.058136 120.359161 
L 303.581743 120.439437 
L 305.105349 120.512059 
L 306.628955 120.578185 
L 308.152562 120.638754 
L 309.676168 120.694534 
L 311.199774 120.746162 
L 312.723381 120.794167 
L 314.246987 120.838996 
L 315.770593 120.881027 
L 317.2942 120.920583 
L 318.817806 120.957942 
L 320.341412 120.993344 
L 321.865019 121.026998 
L 323.388625 121.059086 
L 324.912231 121.08977 
L 326.435838 121.119191 
L 327.959444 121.147476 
L 329.48305 121.174737 
L 331.006657 121.201076 
L 332.530263 121.226583 
L 334.053869 121.251342 
L 335.577476 121.275428 
L 337.101082 121.298908 
L 338.624688 121.321848 
L 340.148295 121.344304 
L 341.671901 121.366332 
L 343.195507 121.387982 
L 344.719114 121.409302 
L 346.24272 121.430337 
L 347.766326 121.45113 
L 349.289933 121.471721 
L 350.813539 121.492151 
L 352.337145 121.512458 
L 353.860752 121.532679 
L 355.384358 121.55285 
L 356.907965 121.573009 
L 358.431571 121.593192 
L 359.955177 121.613434 
L 361.478784 121.633774 
L 363.00239 121.654248 
L 364.525996 121.674896 
L 366.049603 121.695757 
L 367.573209 121.716872 
L 369.096815 121.738286 
L 370.620422 121.760044 
L 372.144028 121.782195 
L 373.667634 121.804789 
L 375.191241 121.827884 
L 376.714847 121.851538 
L 378.238453 121.875817 
L 379.76206 121.90079 
L 381.285666 121.926536 
L 382.809272 121.953139 
L 384.332879 121.980694 
L 385.856485 122.009304 
L 387.380091 122.039086 
L 388.903698 122.07017 
L 390.427304 122.102705 
L 391.95091 122.136856 
L 393.474517 122.172813 
L 394.998123 122.210794 
L 396.521729 122.25105 
L 398.045336 122.293869 
L 399.568942 122.339589 
L 401.092548 122.388608 
L 402.616155 122.441395 
L 404.139761 122.498506 
L 405.663367 122.560613 
L 407.186974 122.62853 
L 408.71058 122.703251 
L 410.234186 122.786011 
L 411.757793 122.878354 
L 413.281399 122.982248 
L 414.805005 123.100228 
L 416.328612 123.235629 
L 417.852218 123.392923 
L 419.375825 123.578248 
L 420.899431 123.800267 
L 422.423037 124.071618 
L 423.946644 124.411482 
L 425.47025 124.85046 
L 426.993856 125.440548 
L 428.517463 126.277811 
L 430.041069 127.561609 
L 431.564675 129.784504 
L 433.088282 134.584706 
L 434.611888 152.704681 
" style="fill:none;stroke:#000000;stroke-dasharray:1.5,2.475;stroke-dashoffset:0;stroke-width:1.5;"/>
   </g>
   <g id="patch_21">
    <path d="M 268.234075 155.263243 
L 268.234075 98.974877 
" style="fill:none;stroke:#000000;stroke-linecap:square;stroke-linejoin:miter;stroke-width:0.8;"/>
   </g>
   <g id="patch_22">
    <path d="M 442.534641 155.263243 
L 442.534641 98.974877 
" style="fill:none;stroke:#000000;stroke-linecap:square;stroke-linejoin:miter;stroke-width:0.8;"/>
   </g>
   <g id="patch_23">
    <path d="M 268.234075 155.263243 
L 442.534641 155.263243 
" style="fill:none;stroke:#000000;stroke-linecap:square;stroke-linejoin:miter;stroke-width:0.8;"/>
   </g>
   <g id="patch_24">
    <path d="M 268.234075 98.974877 
L 442.534641 98.974877 
" style="fill:none;stroke:#000000;stroke-linecap:square;stroke-linejoin:miter;stroke-width:0.8;"/>
   </g>
   <g id="legend_4">
    <g id="patch_25">
     <path d="M 382.057304 120.912055 
L 435.534641 120.912055 
Q 437.534641 120.912055 437.534641 118.912055 
L 437.534641 105.974877 
Q 437.534641 103.974877 435.534641 103.974877 
L 382.057304 103.974877 
Q 380.057304 103.974877 380.057304 105.974877 
L 380.057304 118.912055 
Q 380.057304 120.912055 382.057304 120.912055 
z
" style="fill:#ffffff;opacity:0.8;stroke:#cccccc;stroke-linejoin:miter;"/>
    </g>
    <g id="line2d_33">
     <path d="M 384.057304 111.474877 
L 404.057304 111.474877 
" style="fill:none;stroke:#000000;stroke-dasharray:1.5,2.475;stroke-dashoffset:0;stroke-width:1.5;"/>
    </g>
    <g id="line2d_34"/>
    <g id="text_28">
     <!-- $n=$1 -->
     <g transform="translate(412.057304 114.974877)scale(0.1 -0.1)">
      <use transform="scale(0.996264)" xlink:href="#CMMI12-6e"/>
      <use transform="translate(85.904056 0)scale(0.996264)" xlink:href="#CMR17-3d"/>
      <use transform="translate(157.618844 0)scale(0.996264)" xlink:href="#CMR17-31"/>
     </g>
    </g>
   </g>
  </g>
  <g id="axes_5">
   <g id="patch_26">
    <path d="M 45.57786 228.43812 
L 219.878425 228.43812 
L 219.878425 172.149754 
L 45.57786 172.149754 
z
" style="fill:#ffffff;"/>
   </g>
   <g id="matplotlib.axis_9">
    <g id="xtick_15">
     <g id="line2d_35">
      <g>
       <use style="stroke:#000000;stroke-width:0.8;" x="53.500613" xlink:href="#mbb736ac3ce" y="228.43812"/>
      </g>
     </g>
     <g id="text_29">
      <!-- $\mathdefault{0}$ -->
      <g transform="translate(51.009945 242.356619)scale(0.1 -0.1)">
       <use transform="scale(0.996264)" xlink:href="#CMR17-30"/>
      </g>
     </g>
    </g>
    <g id="xtick_16">
     <g id="line2d_36">
      <g>
       <use style="stroke:#000000;stroke-width:0.8;" x="93.106457" xlink:href="#mbb736ac3ce" y="228.43812"/>
      </g>
     </g>
     <g id="text_30">
      <!-- $\mathdefault{25}$ -->
      <g transform="translate(88.125121 242.356619)scale(0.1 -0.1)">
       <use transform="scale(0.996264)" xlink:href="#CMR17-32"/>
       <use transform="translate(45.690477 0)scale(0.996264)" xlink:href="#CMR17-35"/>
      </g>
     </g>
    </g>
    <g id="xtick_17">
     <g id="line2d_37">
      <g>
       <use style="stroke:#000000;stroke-width:0.8;" x="132.7123" xlink:href="#mbb736ac3ce" y="228.43812"/>
      </g>
     </g>
     <g id="text_31">
      <!-- $\mathdefault{50}$ -->
      <g transform="translate(127.730965 242.356619)scale(0.1 -0.1)">
       <use transform="scale(0.996264)" xlink:href="#CMR17-35"/>
       <use transform="translate(45.690477 0)scale(0.996264)" xlink:href="#CMR17-30"/>
      </g>
     </g>
    </g>
    <g id="xtick_18">
     <g id="line2d_38">
      <g>
       <use style="stroke:#000000;stroke-width:0.8;" x="172.318144" xlink:href="#mbb736ac3ce" y="228.43812"/>
      </g>
     </g>
     <g id="text_32">
      <!-- $\mathdefault{75}$ -->
      <g transform="translate(167.336809 242.356619)scale(0.1 -0.1)">
       <defs>
        <path d="M 2886 3955 
L 2886 4096 
L 1382 4096 
C 634 4096 621 4166 595 4288 
L 480 4288 
L 294 3104 
L 410 3104 
C 429 3226 474 3552 550 3673 
C 589 3724 1062 3724 1171 3724 
L 2579 3724 
L 1869 2670 
C 1395 1961 1069 1003 1069 166 
C 1069 89 1069 -128 1299 -128 
C 1530 -128 1530 89 1530 172 
L 1530 466 
C 1530 1514 1709 2204 2003 2644 
L 2886 3955 
z
" id="CMR17-37" transform="scale(0.015625)"/>
       </defs>
       <use transform="scale(0.996264)" xlink:href="#CMR17-37"/>
       <use transform="translate(45.690477 0)scale(0.996264)" xlink:href="#CMR17-35"/>
      </g>
     </g>
    </g>
    <g id="xtick_19">
     <g id="line2d_39">
      <g>
       <use style="stroke:#000000;stroke-width:0.8;" x="211.923988" xlink:href="#mbb736ac3ce" y="228.43812"/>
      </g>
     </g>
     <g id="text_33">
      <!-- $\mathdefault{100}$ -->
      <g transform="translate(204.451985 242.356619)scale(0.1 -0.1)">
       <use transform="scale(0.996264)" xlink:href="#CMR17-31"/>
       <use transform="translate(45.690477 0)scale(0.996264)" xlink:href="#CMR17-30"/>
       <use transform="translate(91.380954 0)scale(0.996264)" xlink:href="#CMR17-30"/>
      </g>
     </g>
    </g>
   </g>
   <g id="matplotlib.axis_10">
    <g id="ytick_9">
     <g id="line2d_40">
      <g>
       <use style="stroke:#000000;stroke-width:0.8;" x="45.57786" xlink:href="#m7002652681" y="224.503679"/>
      </g>
     </g>
     <g id="text_34">
      <!-- $\mathdefault{0.0000}$ -->
      <g transform="translate(10.903775 227.962929)scale(0.1 -0.1)">
       <use transform="scale(0.996264)" xlink:href="#CMR17-30"/>
       <use transform="translate(45.690477 0)scale(0.996264)" xlink:href="#CMMI12-3a"/>
       <use transform="translate(72.787654 0)scale(0.996264)" xlink:href="#CMR17-30"/>
       <use transform="translate(118.478131 0)scale(0.996264)" xlink:href="#CMR17-30"/>
       <use transform="translate(164.168608 0)scale(0.996264)" xlink:href="#CMR17-30"/>
       <use transform="translate(209.859086 0)scale(0.996264)" xlink:href="#CMR17-30"/>
      </g>
     </g>
    </g>
    <g id="ytick_10">
     <g id="line2d_41">
      <g>
       <use style="stroke:#000000;stroke-width:0.8;" x="45.57786" xlink:href="#m7002652681" y="191.299301"/>
      </g>
     </g>
     <g id="text_35">
      <!-- $\mathdefault{0.0001}$ -->
      <g transform="translate(10.903775 194.75855)scale(0.1 -0.1)">
       <use transform="scale(0.996264)" xlink:href="#CMR17-30"/>
       <use transform="translate(45.690477 0)scale(0.996264)" xlink:href="#CMMI12-3a"/>
       <use transform="translate(72.787654 0)scale(0.996264)" xlink:href="#CMR17-30"/>
       <use transform="translate(118.478131 0)scale(0.996264)" xlink:href="#CMR17-30"/>
       <use transform="translate(164.168608 0)scale(0.996264)" xlink:href="#CMR17-30"/>
       <use transform="translate(209.859086 0)scale(0.996264)" xlink:href="#CMR17-31"/>
      </g>
     </g>
    </g>
   </g>
   <g id="line2d_42">
    <path clip-path="url(#p070caf49dd)" d="M 53.500613 224.503679 
L 53.54814 174.708316 
L 53.595667 196.888065 
L 53.785775 215.671461 
L 54.070937 220.973442 
L 54.403626 223.331946 
L 54.831369 224.820992 
L 55.259112 225.537551 
L 55.686856 225.828144 
L 56.162126 225.871375 
L 56.875031 225.682703 
L 60.106868 224.603023 
L 62.198056 224.246974 
L 65.192258 223.980299 
L 70.182594 223.784978 
L 80.163267 223.654469 
L 107.491299 223.580528 
L 211.955672 223.552496 
L 211.955672 223.552496 
" style="fill:none;stroke:#000000;stroke-dasharray:9.6,2.4,1.5,2.4;stroke-dashoffset:0;stroke-width:1.5;"/>
   </g>
   <g id="patch_27">
    <path d="M 45.57786 228.43812 
L 45.57786 172.149754 
" style="fill:none;stroke:#000000;stroke-linecap:square;stroke-linejoin:miter;stroke-width:0.8;"/>
   </g>
   <g id="patch_28">
    <path d="M 219.878425 228.43812 
L 219.878425 172.149754 
" style="fill:none;stroke:#000000;stroke-linecap:square;stroke-linejoin:miter;stroke-width:0.8;"/>
   </g>
   <g id="patch_29">
    <path d="M 45.57786 228.43812 
L 219.878425 228.43812 
" style="fill:none;stroke:#000000;stroke-linecap:square;stroke-linejoin:miter;stroke-width:0.8;"/>
   </g>
   <g id="patch_30">
    <path d="M 45.57786 172.149754 
L 219.878425 172.149754 
" style="fill:none;stroke:#000000;stroke-linecap:square;stroke-linejoin:miter;stroke-width:0.8;"/>
   </g>
   <g id="legend_5">
    <g id="patch_31">
     <path d="M 159.401089 194.086932 
L 212.878425 194.086932 
Q 214.878425 194.086932 214.878425 192.086932 
L 214.878425 179.149754 
Q 214.878425 177.149754 212.878425 177.149754 
L 159.401089 177.149754 
Q 157.401089 177.149754 157.401089 179.149754 
L 157.401089 192.086932 
Q 157.401089 194.086932 159.401089 194.086932 
z
" style="fill:#ffffff;opacity:0.8;stroke:#cccccc;stroke-linejoin:miter;"/>
    </g>
    <g id="line2d_43">
     <path d="M 161.401089 184.649754 
L 181.401089 184.649754 
" style="fill:none;stroke:#000000;stroke-dasharray:9.6,2.4,1.5,2.4;stroke-dashoffset:0;stroke-width:1.5;"/>
    </g>
    <g id="line2d_44"/>
    <g id="text_36">
     <!-- $n=$5 -->
     <g transform="translate(189.401089 188.149754)scale(0.1 -0.1)">
      <use transform="scale(0.996264)" xlink:href="#CMMI12-6e"/>
      <use transform="translate(85.904056 0)scale(0.996264)" xlink:href="#CMR17-3d"/>
      <use transform="translate(157.618844 0)scale(0.996264)" xlink:href="#CMR17-35"/>
     </g>
    </g>
   </g>
  </g>
  <g id="axes_6">
   <g id="patch_32">
    <path d="M 268.234075 228.43812 
L 442.534641 228.43812 
L 442.534641 172.149754 
L 268.234075 172.149754 
z
" style="fill:#ffffff;"/>
   </g>
   <g id="matplotlib.axis_11">
    <g id="xtick_20">
     <g id="line2d_45">
      <g>
       <use style="stroke:#000000;stroke-width:0.8;" x="276.156828" xlink:href="#mbb736ac3ce" y="228.43812"/>
      </g>
     </g>
     <g id="text_37">
      <!-- $\mathdefault{0}$ -->
      <g transform="translate(273.666161 242.356619)scale(0.1 -0.1)">
       <use transform="scale(0.996264)" xlink:href="#CMR17-30"/>
      </g>
     </g>
    </g>
    <g id="xtick_21">
     <g id="line2d_46">
      <g>
       <use style="stroke:#000000;stroke-width:0.8;" x="315.762672" xlink:href="#mbb736ac3ce" y="228.43812"/>
      </g>
     </g>
     <g id="text_38">
      <!-- $\mathdefault{25}$ -->
      <g transform="translate(310.781337 242.356619)scale(0.1 -0.1)">
       <use transform="scale(0.996264)" xlink:href="#CMR17-32"/>
       <use transform="translate(45.690477 0)scale(0.996264)" xlink:href="#CMR17-35"/>
      </g>
     </g>
    </g>
    <g id="xtick_22">
     <g id="line2d_47">
      <g>
       <use style="stroke:#000000;stroke-width:0.8;" x="355.368516" xlink:href="#mbb736ac3ce" y="228.43812"/>
      </g>
     </g>
     <g id="text_39">
      <!-- $\mathdefault{50}$ -->
      <g transform="translate(350.387181 242.356619)scale(0.1 -0.1)">
       <use transform="scale(0.996264)" xlink:href="#CMR17-35"/>
       <use transform="translate(45.690477 0)scale(0.996264)" xlink:href="#CMR17-30"/>
      </g>
     </g>
    </g>
    <g id="xtick_23">
     <g id="line2d_48">
      <g>
       <use style="stroke:#000000;stroke-width:0.8;" x="394.97436" xlink:href="#mbb736ac3ce" y="228.43812"/>
      </g>
     </g>
     <g id="text_40">
      <!-- $\mathdefault{75}$ -->
      <g transform="translate(389.993024 242.356619)scale(0.1 -0.1)">
       <use transform="scale(0.996264)" xlink:href="#CMR17-37"/>
       <use transform="translate(45.690477 0)scale(0.996264)" xlink:href="#CMR17-35"/>
      </g>
     </g>
    </g>
    <g id="xtick_24">
     <g id="line2d_49">
      <g>
       <use style="stroke:#000000;stroke-width:0.8;" x="434.580203" xlink:href="#mbb736ac3ce" y="228.43812"/>
      </g>
     </g>
     <g id="text_41">
      <!-- $\mathdefault{100}$ -->
      <g transform="translate(427.1082 242.356619)scale(0.1 -0.1)">
       <use transform="scale(0.996264)" xlink:href="#CMR17-31"/>
       <use transform="translate(45.690477 0)scale(0.996264)" xlink:href="#CMR17-30"/>
       <use transform="translate(91.380954 0)scale(0.996264)" xlink:href="#CMR17-30"/>
      </g>
     </g>
    </g>
   </g>
   <g id="matplotlib.axis_12">
    <g id="ytick_11">
     <g id="line2d_50">
      <g>
       <use style="stroke:#000000;stroke-width:0.8;" x="268.234075" xlink:href="#m7002652681" y="224.143319"/>
      </g>
     </g>
     <g id="text_42">
      <!-- $\mathdefault{0.00}$ -->
      <g transform="translate(243.522661 227.602568)scale(0.1 -0.1)">
       <use transform="scale(0.996264)" xlink:href="#CMR17-30"/>
       <use transform="translate(45.690477 0)scale(0.996264)" xlink:href="#CMMI12-3a"/>
       <use transform="translate(72.787654 0)scale(0.996264)" xlink:href="#CMR17-30"/>
       <use transform="translate(118.478131 0)scale(0.996264)" xlink:href="#CMR17-30"/>
      </g>
     </g>
    </g>
    <g id="ytick_12">
     <g id="line2d_51">
      <g>
       <use style="stroke:#000000;stroke-width:0.8;" x="268.234075" xlink:href="#m7002652681" y="194.263746"/>
      </g>
     </g>
     <g id="text_43">
      <!-- $\mathdefault{0.01}$ -->
      <g transform="translate(243.522661 197.722995)scale(0.1 -0.1)">
       <use transform="scale(0.996264)" xlink:href="#CMR17-30"/>
       <use transform="translate(45.690477 0)scale(0.996264)" xlink:href="#CMMI12-3a"/>
       <use transform="translate(72.787654 0)scale(0.996264)" xlink:href="#CMR17-30"/>
       <use transform="translate(118.478131 0)scale(0.996264)" xlink:href="#CMR17-31"/>
      </g>
     </g>
    </g>
   </g>
   <g id="line2d_52">
    <path clip-path="url(#p171706f825)" d="M 276.156828 224.143319 
L 276.204355 179.32732 
L 276.251882 199.277992 
L 276.44199 216.152681 
L 276.727153 220.898677 
L 277.107369 223.240717 
L 277.535112 224.572531 
L 278.010382 225.367555 
L 278.485652 225.749247 
L 279.008449 225.87833 
L 279.673827 225.789887 
L 280.719422 225.387504 
L 289.892135 221.268413 
L 295.880539 219.064637 
L 305.623576 215.740379 
L 323.256098 209.989276 
L 360.089532 198.248124 
L 434.611888 174.708316 
L 434.611888 174.708316 
" style="fill:none;stroke:#000000;stroke-dasharray:9.6,2.4,1.5,2.4;stroke-dashoffset:0;stroke-width:1.5;"/>
   </g>
   <g id="patch_33">
    <path d="M 268.234075 228.43812 
L 268.234075 172.149754 
" style="fill:none;stroke:#000000;stroke-linecap:square;stroke-linejoin:miter;stroke-width:0.8;"/>
   </g>
   <g id="patch_34">
    <path d="M 442.534641 228.43812 
L 442.534641 172.149754 
" style="fill:none;stroke:#000000;stroke-linecap:square;stroke-linejoin:miter;stroke-width:0.8;"/>
   </g>
   <g id="patch_35">
    <path d="M 268.234075 228.43812 
L 442.534641 228.43812 
" style="fill:none;stroke:#000000;stroke-linecap:square;stroke-linejoin:miter;stroke-width:0.8;"/>
   </g>
   <g id="patch_36">
    <path d="M 268.234075 172.149754 
L 442.534641 172.149754 
" style="fill:none;stroke:#000000;stroke-linecap:square;stroke-linejoin:miter;stroke-width:0.8;"/>
   </g>
   <g id="legend_6">
    <g id="patch_37">
     <path d="M 382.057304 223.43812 
L 435.534641 223.43812 
Q 437.534641 223.43812 437.534641 221.43812 
L 437.534641 208.500942 
Q 437.534641 206.500942 435.534641 206.500942 
L 382.057304 206.500942 
Q 380.057304 206.500942 380.057304 208.500942 
L 380.057304 221.43812 
Q 380.057304 223.43812 382.057304 223.43812 
z
" style="fill:#ffffff;opacity:0.8;stroke:#cccccc;stroke-linejoin:miter;"/>
    </g>
    <g id="line2d_53">
     <path d="M 384.057304 214.000942 
L 404.057304 214.000942 
" style="fill:none;stroke:#000000;stroke-dasharray:9.6,2.4,1.5,2.4;stroke-dashoffset:0;stroke-width:1.5;"/>
    </g>
    <g id="line2d_54"/>
    <g id="text_44">
     <!-- $n=$5 -->
     <g transform="translate(412.057304 217.500942)scale(0.1 -0.1)">
      <use transform="scale(0.996264)" xlink:href="#CMMI12-6e"/>
      <use transform="translate(85.904056 0)scale(0.996264)" xlink:href="#CMR17-3d"/>
      <use transform="translate(157.618844 0)scale(0.996264)" xlink:href="#CMR17-35"/>
     </g>
    </g>
   </g>
  </g>
 </g>
 <defs>
  <clipPath id="pca7470d907">
   <rect height="56.288367" width="174.300565" x="45.57786" y="25.8"/>
  </clipPath>
  <clipPath id="p3969144441">
   <rect height="56.288367" width="174.300565" x="268.234075" y="25.8"/>
  </clipPath>
  <clipPath id="p91f3eb81e0">
   <rect height="56.288367" width="174.300565" x="45.57786" y="98.974877"/>
  </clipPath>
  <clipPath id="p3ae93c77fe">
   <rect height="56.288367" width="174.300565" x="268.234075" y="98.974877"/>
  </clipPath>
  <clipPath id="p070caf49dd">
   <rect height="56.288367" width="174.300565" x="45.57786" y="172.149754"/>
  </clipPath>
  <clipPath id="p171706f825">
   <rect height="56.288367" width="174.300565" x="268.234075" y="172.149754"/>
  </clipPath>
 </defs>
</svg>
