<?xml version="1.0" encoding="utf-8" standalone="no"?>
<!DOCTYPE svg PUBLIC "-//W3C//DTD SVG 1.1//EN"
  "http://www.w3.org/Graphics/SVG/1.1/DTD/svg11.dtd">
<svg height="255.11811pt" version="1.1" viewBox="0 0 453.543307 255.11811" width="453.543307pt" xmlns="http://www.w3.org/2000/svg" xmlns:xlink="http://www.w3.org/1999/xlink">
 <metadata>
  <rdf:RDF xmlns:cc="http://creativecommons.org/ns#" xmlns:dc="http://purl.org/dc/elements/1.1/" xmlns:rdf="http://www.w3.org/1999/02/22-rdf-syntax-ns#">
   <cc:Work>
    <dc:type rdf:resource="http://purl.org/dc/dcmitype/StillImage"/>
    <dc:date>2021-04-14T13:57:06.816368</dc:date>
    <dc:format>image/svg+xml</dc:format>
    <dc:creator>
     <cc:Agent>
      <dc:title>Matplotlib v3.4.1, https://matplotlib.org/</dc:title>
     </cc:Agent>
    </dc:creator>
   </cc:Work>
  </rdf:RDF>
 </metadata>
 <defs>
  <style type="text/css">*{stroke-linecap:butt;stroke-linejoin:round;}</style>
 </defs>
 <g id="figure_1">
  <g id="patch_1">
   <path d="M 0 255.11811 
L 453.543307 255.11811 
L 453.543307 0 
L 0 0 
z
" style="fill:#ffffff;"/>
  </g>
  <g id="axes_1">
   <g id="patch_2">
    <path d="M 50.57788 77.083578 
L 151.832681 77.083578 
L 151.832681 25.8 
L 50.57788 25.8 
z
" style="fill:#ffffff;"/>
   </g>
   <g id="matplotlib.axis_1">
    <g id="xtick_1">
     <g id="line2d_1">
      <defs>
       <path d="M 0 0 
L 0 3.5 
" id="m77db253dff" style="stroke:#000000;stroke-width:0.8;"/>
      </defs>
      <g>
       <use style="stroke:#000000;stroke-width:0.8;" x="55.180371" xlink:href="#m77db253dff" y="77.083578"/>
      </g>
     </g>
     <g id="text_1">
      <!-- $\mathdefault{0}$ -->
      <g transform="translate(52.689703 91.002077)scale(0.1 -0.1)">
       <defs>
        <path d="M 2688 2038 
C 2688 2430 2682 3099 2413 3613 
C 2176 4063 1798 4224 1466 4224 
C 1158 4224 768 4082 525 3620 
C 269 3137 243 2539 243 2038 
C 243 1671 250 1112 448 623 
C 723 -39 1216 -128 1466 -128 
C 1760 -128 2208 -7 2470 604 
C 2662 1048 2688 1568 2688 2038 
z
M 1466 -26 
C 1056 -26 813 328 723 816 
C 653 1196 653 1749 653 2109 
C 653 2604 653 3015 736 3407 
C 858 3954 1216 4121 1466 4121 
C 1728 4121 2067 3947 2189 3420 
C 2272 3054 2278 2623 2278 2109 
C 2278 1691 2278 1176 2202 797 
C 2067 96 1690 -26 1466 -26 
z
" id="CMR17-30" transform="scale(0.015625)"/>
       </defs>
       <use transform="scale(0.996264)" xlink:href="#CMR17-30"/>
      </g>
     </g>
    </g>
    <g id="xtick_2">
     <g id="line2d_2">
      <g>
       <use style="stroke:#000000;stroke-width:0.8;" x="93.534462" xlink:href="#m77db253dff" y="77.083578"/>
      </g>
     </g>
     <g id="text_2">
      <!-- $\mathdefault{1}$ -->
      <g transform="translate(91.043795 91.002077)scale(0.1 -0.1)">
       <defs>
        <path d="M 1702 4083 
C 1702 4217 1696 4224 1606 4224 
C 1357 3927 979 3833 621 3820 
C 602 3820 570 3820 563 3808 
C 557 3795 557 3782 557 3648 
C 755 3648 1088 3686 1344 3839 
L 1344 467 
C 1344 243 1331 166 781 166 
L 589 166 
L 589 0 
C 896 6 1216 12 1523 12 
C 1830 12 2150 6 2458 0 
L 2458 166 
L 2266 166 
C 1715 166 1702 236 1702 467 
L 1702 4083 
z
" id="CMR17-31" transform="scale(0.015625)"/>
       </defs>
       <use transform="scale(0.996264)" xlink:href="#CMR17-31"/>
      </g>
     </g>
    </g>
    <g id="xtick_3">
     <g id="line2d_3">
      <g>
       <use style="stroke:#000000;stroke-width:0.8;" x="131.888553" xlink:href="#m77db253dff" y="77.083578"/>
      </g>
     </g>
     <g id="text_3">
      <!-- $\mathdefault{2}$ -->
      <g transform="translate(129.397886 91.002077)scale(0.1 -0.1)">
       <defs>
        <path d="M 2669 990 
L 2554 990 
C 2490 537 2438 460 2413 422 
C 2381 371 1920 371 1830 371 
L 602 371 
C 832 620 1280 1073 1824 1596 
C 2214 1966 2669 2400 2669 3033 
C 2669 3788 2067 4224 1395 4224 
C 691 4224 262 3603 262 3027 
C 262 2777 448 2745 525 2745 
C 589 2745 781 2783 781 3007 
C 781 3206 614 3264 525 3264 
C 486 3264 448 3257 422 3244 
C 544 3788 915 4057 1306 4057 
C 1862 4057 2227 3616 2227 3033 
C 2227 2477 1901 1998 1536 1583 
L 262 147 
L 262 0 
L 2515 0 
L 2669 990 
z
" id="CMR17-32" transform="scale(0.015625)"/>
       </defs>
       <use transform="scale(0.996264)" xlink:href="#CMR17-32"/>
      </g>
     </g>
    </g>
   </g>
   <g id="matplotlib.axis_2">
    <g id="ytick_1">
     <g id="line2d_4">
      <defs>
       <path d="M 0 0 
L -3.5 0 
" id="m640b77085e" style="stroke:#000000;stroke-width:0.8;"/>
      </defs>
      <g>
       <use style="stroke:#000000;stroke-width:0.8;" x="50.57788" xlink:href="#m640b77085e" y="74.752507"/>
      </g>
     </g>
     <g id="text_4">
      <!-- $\mathdefault{0.00000}$ -->
      <g transform="translate(10.92246 78.211756)scale(0.1 -0.1)">
       <defs>
        <path d="M 1178 307 
C 1178 492 1024 620 870 620 
C 685 620 557 467 557 313 
C 557 128 710 0 864 0 
C 1050 0 1178 153 1178 307 
z
" id="CMMI12-3a" transform="scale(0.015625)"/>
       </defs>
       <use transform="scale(0.996264)" xlink:href="#CMR17-30"/>
       <use transform="translate(45.690477 0)scale(0.996264)" xlink:href="#CMMI12-3a"/>
       <use transform="translate(72.787654 0)scale(0.996264)" xlink:href="#CMR17-30"/>
       <use transform="translate(118.478131 0)scale(0.996264)" xlink:href="#CMR17-30"/>
       <use transform="translate(164.168608 0)scale(0.996264)" xlink:href="#CMR17-30"/>
       <use transform="translate(209.859086 0)scale(0.996264)" xlink:href="#CMR17-30"/>
       <use transform="translate(255.549563 0)scale(0.996264)" xlink:href="#CMR17-30"/>
      </g>
     </g>
    </g>
    <g id="ytick_2">
     <g id="line2d_5">
      <g>
       <use style="stroke:#000000;stroke-width:0.8;" x="50.57788" xlink:href="#m640b77085e" y="46.779646"/>
      </g>
     </g>
     <g id="text_5">
      <!-- $\mathdefault{0.00025}$ -->
      <g transform="translate(10.92246 50.238895)scale(0.1 -0.1)">
       <defs>
        <path d="M 730 3750 
C 794 3724 1056 3641 1325 3641 
C 1920 3641 2246 3961 2432 4140 
C 2432 4191 2432 4224 2394 4224 
C 2387 4224 2374 4224 2323 4198 
C 2099 4102 1837 4032 1517 4032 
C 1325 4032 1037 4055 723 4191 
C 653 4224 640 4224 634 4224 
C 602 4224 595 4217 595 4090 
L 595 2231 
C 595 2113 595 2080 659 2080 
C 691 2080 704 2093 736 2139 
C 941 2435 1222 2560 1542 2560 
C 1766 2560 2246 2415 2246 1293 
C 2246 1087 2246 716 2054 422 
C 1894 159 1645 25 1370 25 
C 947 25 518 319 403 812 
C 429 806 480 793 506 793 
C 589 793 749 838 749 1036 
C 749 1209 627 1280 506 1280 
C 358 1280 262 1190 262 1011 
C 262 454 704 -128 1382 -128 
C 2042 -128 2669 441 2669 1267 
C 2669 2054 2170 2662 1549 2662 
C 1222 2662 947 2540 730 2304 
L 730 3750 
z
" id="CMR17-35" transform="scale(0.015625)"/>
       </defs>
       <use transform="scale(0.996264)" xlink:href="#CMR17-30"/>
       <use transform="translate(45.690477 0)scale(0.996264)" xlink:href="#CMMI12-3a"/>
       <use transform="translate(72.787654 0)scale(0.996264)" xlink:href="#CMR17-30"/>
       <use transform="translate(118.478131 0)scale(0.996264)" xlink:href="#CMR17-30"/>
       <use transform="translate(164.168608 0)scale(0.996264)" xlink:href="#CMR17-30"/>
       <use transform="translate(209.859086 0)scale(0.996264)" xlink:href="#CMR17-32"/>
       <use transform="translate(255.549563 0)scale(0.996264)" xlink:href="#CMR17-35"/>
      </g>
     </g>
    </g>
   </g>
   <g id="line2d_6">
    <path clip-path="url(#pdd67d29dc9)" d="M 55.180371 74.752507 
L 57.098076 28.131072 
L 59.01578 48.85171 
L 60.933485 57.398973 
L 62.851189 61.727519 
L 64.768894 64.330506 
L 66.686598 66.066932 
L 68.604303 67.307524 
L 70.522007 68.238063 
L 72.439712 68.961851 
L 74.357417 69.540897 
L 76.275121 70.014669 
L 78.192826 70.409482 
L 80.11053 70.743557 
L 82.028235 71.029909 
L 83.945939 71.27808 
L 85.863644 71.495231 
L 87.781348 71.686835 
L 89.699053 71.857149 
L 91.616758 72.009536 
L 93.534462 72.146684 
L 95.452167 72.270771 
L 97.369871 72.383577 
L 99.287576 72.486574 
L 101.20528 72.580988 
L 103.122985 72.667848 
L 105.04069 72.748028 
L 106.958394 72.822267 
L 108.876099 72.891205 
L 110.793803 72.955387 
L 112.711508 73.015291 
L 114.629212 73.07133 
L 116.546917 73.123867 
L 118.464621 73.17322 
L 120.382326 73.21967 
L 122.300031 73.263465 
L 124.217735 73.304827 
L 126.13544 73.343954 
L 128.053144 73.381021 
L 129.970849 73.416187 
L 131.888553 73.449595 
L 133.806258 73.481373 
L 135.723962 73.511638 
L 137.641667 73.540496 
L 139.559372 73.568042 
L 141.477076 73.594363 
L 143.394781 73.61954 
L 145.312485 73.643646 
L 147.23019 73.666747 
" style="fill:none;stroke:#000000;stroke-dasharray:5.55,2.4;stroke-dashoffset:0;stroke-width:1.5;"/>
   </g>
   <g id="patch_3">
    <path d="M 50.57788 77.083578 
L 50.57788 25.8 
" style="fill:none;stroke:#000000;stroke-linecap:square;stroke-linejoin:miter;stroke-width:0.8;"/>
   </g>
   <g id="patch_4">
    <path d="M 151.832681 77.083578 
L 151.832681 25.8 
" style="fill:none;stroke:#000000;stroke-linecap:square;stroke-linejoin:miter;stroke-width:0.8;"/>
   </g>
   <g id="patch_5">
    <path d="M 50.57788 77.083578 
L 151.832681 77.083578 
" style="fill:none;stroke:#000000;stroke-linecap:square;stroke-linejoin:miter;stroke-width:0.8;"/>
   </g>
   <g id="patch_6">
    <path d="M 50.57788 25.8 
L 151.832681 25.8 
" style="fill:none;stroke:#000000;stroke-linecap:square;stroke-linejoin:miter;stroke-width:0.8;"/>
   </g>
   <g id="text_6">
    <!-- $\Delta=\theta_{calc}-\theta_{exct}$ -->
    <g transform="translate(60.506096 19.8)scale(0.12 -0.12)">
     <defs>
      <path d="M 2598 4435 
C 2547 4544 2522 4544 2470 4544 
C 2394 4544 2387 4531 2342 4441 
L 269 108 
C 262 96 237 38 237 32 
C 237 6 243 0 358 0 
L 4576 0 
C 4691 0 4698 6 4698 32 
C 4698 38 4672 96 4666 108 
L 2598 4435 
z
M 2310 4056 
L 4083 358 
L 531 358 
L 2310 4056 
z
" id="CMR17-1" transform="scale(0.015625)"/>
      <path d="M 4115 2048 
C 4211 2048 4307 2048 4307 2156 
C 4307 2272 4198 2272 4090 2272 
L 512 2272 
C 403 2272 294 2272 294 2156 
C 294 2048 390 2048 486 2048 
L 4115 2048 
z
M 4090 927 
C 4198 927 4307 927 4307 1043 
C 4307 1152 4211 1152 4115 1152 
L 486 1152 
C 390 1152 294 1152 294 1043 
C 294 927 403 927 512 927 
L 4090 927 
z
" id="CMR17-3d" transform="scale(0.015625)"/>
      <path d="M 2835 3200 
C 2835 3849 2630 4480 2106 4480 
C 1210 4480 256 2615 256 1215 
C 256 922 320 -64 992 -64 
C 1862 -64 2835 1755 2835 3200 
z
M 896 2304 
C 992 2679 1126 3213 1382 3665 
C 1594 4046 1818 4351 2099 4351 
C 2310 4351 2451 4173 2451 3563 
C 2451 3334 2432 3016 2246 2304 
L 896 2304 
z
M 2202 2112 
C 2042 1488 1907 1088 1677 687 
C 1491 362 1267 64 998 64 
C 800 64 640 216 640 846 
C 640 1259 742 1692 845 2112 
L 2202 2112 
z
" id="CMMI12-12" transform="scale(0.015625)"/>
      <path d="M 2502 2432 
C 2381 2432 2323 2432 2234 2355 
C 2195 2323 2125 2227 2125 2124 
C 2125 1996 2221 1919 2342 1919 
C 2496 1919 2669 2047 2669 2303 
C 2669 2591 2374 2816 1933 2816 
C 1094 2816 256 1932 256 1011 
C 256 446 602 -64 1254 -64 
C 2125 -64 2675 622 2675 706 
C 2675 745 2637 777 2611 777 
C 2592 777 2586 771 2528 712 
C 2118 161 1510 64 1267 64 
C 826 64 685 453 685 777 
C 685 1004 794 1634 1024 2073 
C 1190 2374 1536 2687 1939 2687 
C 2022 2687 2374 2676 2502 2432 
z
" id="CMMI12-63" transform="scale(0.015625)"/>
      <path d="M 1926 759 
C 1894 651 1894 638 1805 517 
C 1664 338 1382 64 1082 64 
C 819 64 672 300 672 676 
C 672 1028 870 1743 992 2011 
C 1210 2458 1510 2687 1760 2687 
C 2182 2687 2266 2164 2266 2113 
C 2266 2107 2246 2024 2240 2011 
L 1926 759 
z
M 2336 2394 
C 2266 2560 2093 2816 1760 2816 
C 1037 2816 256 1883 256 938 
C 256 306 627 -64 1062 -64 
C 1414 -64 1715 210 1894 421 
C 1958 44 2259 -64 2451 -64 
C 2643 -64 2797 51 2912 280 
C 3014 496 3104 885 3104 910 
C 3104 942 3078 968 3040 968 
C 2982 968 2976 936 2950 840 
C 2854 465 2733 64 2470 64 
C 2285 64 2272 229 2272 356 
C 2272 503 2291 573 2349 821 
C 2394 980 2426 1120 2477 1305 
C 2714 2260 2771 2489 2771 2528 
C 2771 2617 2701 2688 2605 2688 
C 2400 2688 2349 2464 2336 2388 
L 2336 2394 
z
" id="CMMI12-61" transform="scale(0.015625)"/>
      <path d="M 1626 4255 
C 1632 4281 1645 4319 1645 4351 
C 1645 4416 1581 4416 1568 4416 
C 1562 4416 1331 4396 1216 4383 
C 1107 4377 1011 4364 896 4358 
C 742 4345 698 4339 698 4223 
C 698 4159 762 4159 826 4159 
C 1152 4159 1152 4102 1152 4039 
C 1152 4013 1152 4001 1120 3886 
L 326 731 
C 307 661 294 610 294 509 
C 294 191 531 -64 858 -64 
C 1069 -64 1210 76 1312 273 
C 1421 483 1510 884 1510 909 
C 1510 941 1485 967 1446 967 
C 1389 967 1382 935 1357 839 
C 1242 401 1126 64 870 64 
C 678 64 678 267 678 356 
C 678 382 678 515 723 693 
L 1626 4255 
z
" id="CMMI12-6c" transform="scale(0.015625)"/>
      <path d="M 4218 1472 
C 4326 1472 4442 1472 4442 1600 
C 4442 1728 4326 1728 4218 1728 
L 755 1728 
C 646 1728 531 1728 531 1600 
C 531 1472 646 1472 755 1472 
L 4218 1472 
z
" id="CMSY10-0" transform="scale(0.015625)"/>
      <path d="M 1146 1472 
C 1318 1472 1754 1484 2061 1600 
C 2547 1786 2592 2160 2592 2275 
C 2592 2559 2349 2816 1926 2816 
C 1254 2816 288 2205 288 1066 
C 288 400 672 -64 1254 -64 
C 2125 -64 2675 609 2675 691 
C 2675 729 2637 761 2611 761 
C 2592 761 2586 755 2528 698 
C 2118 159 1510 64 1267 64 
C 902 64 710 349 710 818 
C 710 907 710 1066 806 1472 
L 1146 1472 
z
M 838 1600 
C 1114 2591 1722 2687 1926 2687 
C 2208 2687 2400 2520 2400 2275 
C 2400 1600 1376 1600 1107 1600 
L 838 1600 
z
" id="CMMI12-65" transform="scale(0.015625)"/>
      <path d="M 3034 2624 
C 2829 2585 2752 2431 2752 2310 
C 2752 2156 2874 2105 2963 2105 
C 3155 2105 3290 2271 3290 2444 
C 3290 2694 2982 2816 2714 2816 
C 2323 2816 2106 2451 2048 2329 
C 1901 2790 1504 2816 1389 2816 
C 736 2816 390 1993 390 1849 
C 390 1823 416 1790 461 1790 
C 512 1790 525 1829 538 1855 
C 755 2572 1184 2687 1370 2687 
C 1658 2687 1715 2438 1715 2284 
C 1715 2143 1677 1993 1600 1678 
L 1382 778 
C 1286 390 1101 64 762 64 
C 730 64 570 64 435 126 
C 666 166 717 358 717 435 
C 717 563 621 640 499 640 
C 346 640 179 505 179 300 
C 179 57 480 -64 755 -64 
C 1062 -64 1280 153 1414 415 
C 1517 64 1837 -64 2074 -64 
C 2726 -64 3072 751 3072 896 
C 3072 929 3046 955 3008 955 
C 2950 955 2944 922 2925 870 
C 2752 300 2381 64 2093 64 
C 1869 64 1747 204 1747 467 
C 1747 607 1773 712 1875 1146 
L 2099 2039 
C 2195 2425 2413 2687 2707 2687 
C 2720 2687 2899 2687 3034 2624 
z
" id="CMMI12-78" transform="scale(0.015625)"/>
      <path d="M 1286 2566 
L 1875 2566 
C 1997 2566 2061 2566 2061 2681 
C 2061 2752 2022 2752 1894 2752 
L 1331 2752 
L 1568 3664 
C 1594 3752 1594 3764 1594 3808 
C 1594 3910 1510 3968 1427 3968 
C 1376 3968 1229 3948 1178 3746 
L 928 2752 
L 326 2752 
C 198 2752 141 2752 141 2630 
C 141 2566 186 2566 307 2566 
L 877 2566 
L 454 881 
C 403 657 384 593 384 510 
C 384 210 595 -64 954 -64 
C 1600 -64 1946 868 1946 913 
C 1946 951 1920 970 1882 970 
C 1869 970 1843 970 1830 944 
C 1824 938 1818 932 1773 830 
C 1638 510 1344 64 973 64 
C 781 64 768 223 768 364 
C 768 370 768 491 787 568 
L 1286 2566 
z
" id="CMMI12-74" transform="scale(0.015625)"/>
     </defs>
     <use transform="scale(0.996264)" xlink:href="#CMR17-1"/>
     <use transform="translate(104.593599 0)scale(0.996264)" xlink:href="#CMR17-3d"/>
     <use transform="translate(203.982396 0)scale(0.996264)" xlink:href="#CMMI12-12"/>
     <use transform="translate(249.442186 -14.943915)scale(0.697382)" xlink:href="#CMMI12-63"/>
     <use transform="translate(278.830317 -14.943915)scale(0.697382)" xlink:href="#CMMI12-61"/>
     <use transform="translate(314.675664 -14.943915)scale(0.697382)" xlink:href="#CMMI12-6c"/>
     <use transform="translate(336.549448 -14.943915)scale(0.697382)" xlink:href="#CMMI12-63"/>
     <use transform="translate(388.574918 0)scale(0.996264)" xlink:href="#CMSY10-0"/>
     <use transform="translate(488.201593 0)scale(0.996264)" xlink:href="#CMMI12-12"/>
     <use transform="translate(533.661383 -14.943915)scale(0.697382)" xlink:href="#CMMI12-65"/>
     <use transform="translate(565.309639 -14.943915)scale(0.697382)" xlink:href="#CMMI12-78"/>
     <use transform="translate(604.113298 -14.943915)scale(0.697382)" xlink:href="#CMMI12-63"/>
     <use transform="translate(633.50143 -14.943915)scale(0.697382)" xlink:href="#CMMI12-74"/>
    </g>
   </g>
   <g id="legend_1">
    <g id="patch_7">
     <path d="M 91.355344 47.737178 
L 144.832681 47.737178 
Q 146.832681 47.737178 146.832681 45.737178 
L 146.832681 32.8 
Q 146.832681 30.8 144.832681 30.8 
L 91.355344 30.8 
Q 89.355344 30.8 89.355344 32.8 
L 89.355344 45.737178 
Q 89.355344 47.737178 91.355344 47.737178 
z
" style="fill:#ffffff;opacity:0.8;stroke:#cccccc;stroke-linejoin:miter;"/>
    </g>
    <g id="line2d_7">
     <path d="M 93.355344 38.3 
L 113.355344 38.3 
" style="fill:none;stroke:#000000;stroke-dasharray:5.55,2.4;stroke-dashoffset:0;stroke-width:1.5;"/>
    </g>
    <g id="line2d_8"/>
    <g id="text_7">
     <!-- $n=$0 -->
     <g transform="translate(121.355344 41.8)scale(0.1 -0.1)">
      <defs>
       <path d="M 1318 1870 
C 1331 1909 1491 2228 1728 2432 
C 1894 2585 2112 2687 2362 2687 
C 2618 2687 2707 2496 2707 2241 
C 2707 1877 2445 1149 2317 804 
C 2259 651 2227 568 2227 453 
C 2227 166 2426 -64 2733 -64 
C 3328 -64 3552 874 3552 913 
C 3552 945 3526 970 3488 970 
C 3430 970 3424 951 3392 842 
C 3245 319 3002 64 2752 64 
C 2688 64 2586 70 2586 274 
C 2586 434 2656 625 2694 715 
C 2822 1066 3091 1781 3091 2145 
C 3091 2528 2867 2816 2381 2816 
C 1811 2816 1510 2413 1395 2253 
C 1376 2617 1114 2816 832 2816 
C 627 2816 486 2694 378 2477 
C 262 2247 173 1864 173 1838 
C 173 1813 198 1781 243 1781 
C 294 1781 301 1787 339 1934 
C 442 2324 557 2687 813 2687 
C 960 2687 1011 2585 1011 2394 
C 1011 2253 947 2004 902 1807 
L 723 1117 
C 698 996 627 708 595 593 
C 550 427 480 127 480 95 
C 480 6 550 -64 646 -64 
C 723 -64 813 -26 864 70 
C 877 102 934 325 966 453 
L 1107 1028 
L 1318 1870 
z
" id="CMMI12-6e" transform="scale(0.015625)"/>
      </defs>
      <use transform="scale(0.996264)" xlink:href="#CMMI12-6e"/>
      <use transform="translate(85.904056 0)scale(0.996264)" xlink:href="#CMR17-3d"/>
      <use transform="translate(157.618844 0)scale(0.996264)" xlink:href="#CMR17-30"/>
     </g>
    </g>
   </g>
  </g>
  <g id="axes_2">
   <g id="patch_8">
    <path d="M 195.188311 77.083578 
L 296.443112 77.083578 
L 296.443112 25.8 
L 195.188311 25.8 
z
" style="fill:#ffffff;"/>
   </g>
   <g id="matplotlib.axis_3">
    <g id="xtick_4">
     <g id="line2d_9">
      <g>
       <use style="stroke:#000000;stroke-width:0.8;" x="199.790802" xlink:href="#m77db253dff" y="77.083578"/>
      </g>
     </g>
     <g id="text_8">
      <!-- $\mathdefault{0}$ -->
      <g transform="translate(197.300134 91.002077)scale(0.1 -0.1)">
       <use transform="scale(0.996264)" xlink:href="#CMR17-30"/>
      </g>
     </g>
    </g>
    <g id="xtick_5">
     <g id="line2d_10">
      <g>
       <use style="stroke:#000000;stroke-width:0.8;" x="238.144893" xlink:href="#m77db253dff" y="77.083578"/>
      </g>
     </g>
     <g id="text_9">
      <!-- $\mathdefault{1}$ -->
      <g transform="translate(235.654225 91.002077)scale(0.1 -0.1)">
       <use transform="scale(0.996264)" xlink:href="#CMR17-31"/>
      </g>
     </g>
    </g>
    <g id="xtick_6">
     <g id="line2d_11">
      <g>
       <use style="stroke:#000000;stroke-width:0.8;" x="276.498984" xlink:href="#m77db253dff" y="77.083578"/>
      </g>
     </g>
     <g id="text_10">
      <!-- $\mathdefault{2}$ -->
      <g transform="translate(274.008316 91.002077)scale(0.1 -0.1)">
       <use transform="scale(0.996264)" xlink:href="#CMR17-32"/>
      </g>
     </g>
    </g>
   </g>
   <g id="matplotlib.axis_4">
    <g id="ytick_3">
     <g id="line2d_12">
      <g>
       <use style="stroke:#000000;stroke-width:0.8;" x="195.188311" xlink:href="#m640b77085e" y="74.752507"/>
      </g>
     </g>
     <g id="text_11">
      <!-- $\mathdefault{0.000}$ -->
      <g transform="translate(165.495561 78.211756)scale(0.1 -0.1)">
       <use transform="scale(0.996264)" xlink:href="#CMR17-30"/>
       <use transform="translate(45.690477 0)scale(0.996264)" xlink:href="#CMMI12-3a"/>
       <use transform="translate(72.787654 0)scale(0.996264)" xlink:href="#CMR17-30"/>
       <use transform="translate(118.478131 0)scale(0.996264)" xlink:href="#CMR17-30"/>
       <use transform="translate(164.168608 0)scale(0.996264)" xlink:href="#CMR17-30"/>
      </g>
     </g>
    </g>
    <g id="ytick_4">
     <g id="line2d_13">
      <g>
       <use style="stroke:#000000;stroke-width:0.8;" x="195.188311" xlink:href="#m640b77085e" y="46.791301"/>
      </g>
     </g>
     <g id="text_12">
      <!-- $\mathdefault{0.025}$ -->
      <g transform="translate(165.495561 50.25055)scale(0.1 -0.1)">
       <use transform="scale(0.996264)" xlink:href="#CMR17-30"/>
       <use transform="translate(45.690477 0)scale(0.996264)" xlink:href="#CMMI12-3a"/>
       <use transform="translate(72.787654 0)scale(0.996264)" xlink:href="#CMR17-30"/>
       <use transform="translate(118.478131 0)scale(0.996264)" xlink:href="#CMR17-32"/>
       <use transform="translate(164.168608 0)scale(0.996264)" xlink:href="#CMR17-35"/>
      </g>
     </g>
    </g>
   </g>
   <g id="line2d_14">
    <path clip-path="url(#p22a0c65a1a)" d="M 199.790802 74.752507 
L 201.708506 28.131072 
L 203.626211 48.819279 
L 205.543915 57.34091 
L 207.46162 61.645566 
L 209.379325 64.225189 
L 211.297029 65.938338 
L 213.214734 67.155521 
L 215.132438 68.062374 
L 217.050143 68.762087 
L 218.967847 69.316571 
L 220.885552 69.765199 
L 222.803256 70.134193 
L 224.720961 70.441673 
L 226.638666 70.70055 
L 228.55637 70.920254 
L 230.474075 71.107822 
L 232.391779 71.26859 
L 234.309484 71.406667 
L 236.227188 71.525245 
L 238.144893 71.626823 
L 240.062597 71.713362 
L 241.980302 71.786399 
L 243.898007 71.847123 
L 245.815711 71.896435 
L 247.733416 71.934988 
L 249.65112 71.963211 
L 251.568825 71.981325 
L 253.486529 71.989348 
L 255.404234 71.987087 
L 257.321939 71.97412 
L 259.239643 71.949767 
L 261.157348 71.91304 
L 263.075052 71.862568 
L 264.992757 71.796497 
L 266.910461 71.712327 
L 268.828166 71.606689 
L 270.74587 71.474991 
L 272.663575 71.31088 
L 274.58128 71.105373 
L 276.498984 70.8454 
L 278.416689 70.511271 
L 280.334393 70.071936 
L 282.252098 69.47553 
L 284.169802 68.628516 
L 286.087507 67.343476 
L 288.005211 65.18213 
L 289.922916 60.824981 
L 291.840621 47.619824 
" style="fill:none;stroke:#000000;stroke-dasharray:5.55,2.4;stroke-dashoffset:0;stroke-width:1.5;"/>
   </g>
   <g id="patch_9">
    <path d="M 195.188311 77.083578 
L 195.188311 25.8 
" style="fill:none;stroke:#000000;stroke-linecap:square;stroke-linejoin:miter;stroke-width:0.8;"/>
   </g>
   <g id="patch_10">
    <path d="M 296.443112 77.083578 
L 296.443112 25.8 
" style="fill:none;stroke:#000000;stroke-linecap:square;stroke-linejoin:miter;stroke-width:0.8;"/>
   </g>
   <g id="patch_11">
    <path d="M 195.188311 77.083578 
L 296.443112 77.083578 
" style="fill:none;stroke:#000000;stroke-linecap:square;stroke-linejoin:miter;stroke-width:0.8;"/>
   </g>
   <g id="patch_12">
    <path d="M 195.188311 25.8 
L 296.443112 25.8 
" style="fill:none;stroke:#000000;stroke-linecap:square;stroke-linejoin:miter;stroke-width:0.8;"/>
   </g>
   <g id="text_13">
    <!-- $\Delta/\theta_{exct}$ in [%] -->
    <g transform="translate(216.919213 19.8)scale(0.12 -0.12)">
     <defs>
      <path d="M 2746 4563 
C 2746 4569 2784 4665 2784 4678 
C 2784 4755 2720 4800 2669 4800 
C 2637 4800 2579 4800 2528 4659 
L 384 -1364 
C 384 -1370 346 -1466 346 -1479 
C 346 -1556 410 -1600 461 -1600 
C 499 -1600 557 -1594 602 -1460 
L 2746 4563 
z
" id="CMMI12-3d" transform="scale(0.015625)"/>
      <path d="M 992 3961 
C 992 4102 877 4224 730 4224 
C 589 4224 467 4108 467 3961 
C 467 3820 582 3699 730 3699 
C 870 3699 992 3814 992 3961 
z
M 243 2745 
L 243 2579 
C 602 2579 653 2540 653 2231 
L 653 443 
C 653 198 627 166 218 166 
L 218 0 
C 371 12 646 12 806 12 
C 960 12 1222 12 1370 0 
L 1370 166 
C 992 166 979 205 979 436 
L 979 2816 
L 243 2745 
z
" id="CMR17-69" transform="scale(0.015625)"/>
      <path d="M 2656 1954 
C 2656 2282 2592 2816 1837 2816 
C 1331 2816 1069 2424 973 2166 
L 966 2166 
L 966 2816 
L 211 2745 
L 211 2578 
C 589 2578 646 2540 646 2231 
L 646 443 
C 646 198 621 166 211 166 
L 211 0 
C 365 12 646 12 813 12 
C 979 12 1267 12 1421 0 
L 1421 166 
C 1011 166 986 192 986 443 
L 986 1678 
C 986 2269 1344 2713 1792 2713 
C 2266 2713 2317 2289 2317 1980 
L 2317 443 
C 2317 198 2291 166 1882 166 
L 1882 0 
C 2035 12 2317 12 2483 12 
C 2650 12 2938 12 3091 0 
L 3091 166 
C 2682 166 2656 192 2656 443 
L 2656 1954 
z
" id="CMR17-6e" transform="scale(0.015625)"/>
      <path d="M 1504 -1600 
L 1504 -1376 
L 902 -1376 
L 902 4575 
L 1504 4575 
L 1504 4800 
L 678 4800 
L 678 -1600 
L 1504 -1600 
z
" id="CMR17-5b" transform="scale(0.015625)"/>
     </defs>
     <use transform="scale(0.996264)" xlink:href="#CMR17-1"/>
     <use transform="translate(76.91959 0)scale(0.996264)" xlink:href="#CMMI12-3d"/>
     <use transform="translate(125.694509 0)scale(0.996264)" xlink:href="#CMMI12-12"/>
     <use transform="translate(171.154299 -14.943915)scale(0.697382)" xlink:href="#CMMI12-65"/>
     <use transform="translate(202.802555 -14.943915)scale(0.697382)" xlink:href="#CMMI12-78"/>
     <use transform="translate(241.606214 -14.943915)scale(0.697382)" xlink:href="#CMMI12-63"/>
     <use transform="translate(270.994346 -14.943915)scale(0.697382)" xlink:href="#CMMI12-74"/>
     <use transform="translate(326.226753 0)scale(0.996264)" xlink:href="#CMR17-69"/>
     <use transform="translate(351.097812 0)scale(0.996264)" xlink:href="#CMR17-6e"/>
     <use transform="translate(432.069148 0)scale(0.996264)" xlink:href="#CMR17-5b"/>
    </g>
   </g>
   <g id="legend_2">
    <g id="patch_13">
     <path d="M 235.965775 47.737178 
L 289.443112 47.737178 
Q 291.443112 47.737178 291.443112 45.737178 
L 291.443112 32.8 
Q 291.443112 30.8 289.443112 30.8 
L 235.965775 30.8 
Q 233.965775 30.8 233.965775 32.8 
L 233.965775 45.737178 
Q 233.965775 47.737178 235.965775 47.737178 
z
" style="fill:#ffffff;opacity:0.8;stroke:#cccccc;stroke-linejoin:miter;"/>
    </g>
    <g id="line2d_15">
     <path d="M 237.965775 38.3 
L 257.965775 38.3 
" style="fill:none;stroke:#000000;stroke-dasharray:5.55,2.4;stroke-dashoffset:0;stroke-width:1.5;"/>
    </g>
    <g id="line2d_16"/>
    <g id="text_14">
     <!-- $n=$0 -->
     <g transform="translate(265.965775 41.8)scale(0.1 -0.1)">
      <use transform="scale(0.996264)" xlink:href="#CMMI12-6e"/>
      <use transform="translate(85.904056 0)scale(0.996264)" xlink:href="#CMR17-3d"/>
      <use transform="translate(157.618844 0)scale(0.996264)" xlink:href="#CMR17-30"/>
     </g>
    </g>
   </g>
  </g>
  <g id="axes_3">
   <g id="patch_14">
    <path d="M 50.57788 146.316409 
L 151.832681 146.316409 
L 151.832681 95.032831 
L 50.57788 95.032831 
z
" style="fill:#ffffff;"/>
   </g>
   <g id="matplotlib.axis_5">
    <g id="xtick_7">
     <g id="line2d_17">
      <g>
       <use style="stroke:#000000;stroke-width:0.8;" x="55.180371" xlink:href="#m77db253dff" y="146.316409"/>
      </g>
     </g>
     <g id="text_15">
      <!-- $\mathdefault{0}$ -->
      <g transform="translate(52.689703 160.234908)scale(0.1 -0.1)">
       <use transform="scale(0.996264)" xlink:href="#CMR17-30"/>
      </g>
     </g>
    </g>
    <g id="xtick_8">
     <g id="line2d_18">
      <g>
       <use style="stroke:#000000;stroke-width:0.8;" x="114.567351" xlink:href="#m77db253dff" y="146.316409"/>
      </g>
     </g>
     <g id="text_16">
      <!-- $\mathdefault{2}$ -->
      <g transform="translate(112.076683 160.234908)scale(0.1 -0.1)">
       <use transform="scale(0.996264)" xlink:href="#CMR17-32"/>
      </g>
     </g>
    </g>
   </g>
   <g id="matplotlib.axis_6">
    <g id="ytick_5">
     <g id="line2d_19">
      <g>
       <use style="stroke:#000000;stroke-width:0.8;" x="50.57788" xlink:href="#m640b77085e" y="143.144534"/>
      </g>
     </g>
     <g id="text_17">
      <!-- $\mathdefault{0.00000}$ -->
      <g transform="translate(10.92246 146.603784)scale(0.1 -0.1)">
       <use transform="scale(0.996264)" xlink:href="#CMR17-30"/>
       <use transform="translate(45.690477 0)scale(0.996264)" xlink:href="#CMMI12-3a"/>
       <use transform="translate(72.787654 0)scale(0.996264)" xlink:href="#CMR17-30"/>
       <use transform="translate(118.478131 0)scale(0.996264)" xlink:href="#CMR17-30"/>
       <use transform="translate(164.168608 0)scale(0.996264)" xlink:href="#CMR17-30"/>
       <use transform="translate(209.859086 0)scale(0.996264)" xlink:href="#CMR17-30"/>
       <use transform="translate(255.549563 0)scale(0.996264)" xlink:href="#CMR17-30"/>
      </g>
     </g>
    </g>
    <g id="ytick_6">
     <g id="line2d_20">
      <g>
       <use style="stroke:#000000;stroke-width:0.8;" x="50.57788" xlink:href="#m640b77085e" y="115.672722"/>
      </g>
     </g>
     <g id="text_18">
      <!-- $\mathdefault{0.00025}$ -->
      <g transform="translate(10.92246 119.131971)scale(0.1 -0.1)">
       <use transform="scale(0.996264)" xlink:href="#CMR17-30"/>
       <use transform="translate(45.690477 0)scale(0.996264)" xlink:href="#CMMI12-3a"/>
       <use transform="translate(72.787654 0)scale(0.996264)" xlink:href="#CMR17-30"/>
       <use transform="translate(118.478131 0)scale(0.996264)" xlink:href="#CMR17-30"/>
       <use transform="translate(164.168608 0)scale(0.996264)" xlink:href="#CMR17-30"/>
       <use transform="translate(209.859086 0)scale(0.996264)" xlink:href="#CMR17-32"/>
       <use transform="translate(255.549563 0)scale(0.996264)" xlink:href="#CMR17-35"/>
      </g>
     </g>
    </g>
   </g>
   <g id="line2d_21">
    <path clip-path="url(#p4bdc0454bc)" d="M 55.180371 143.144534 
L 56.665045 97.363903 
L 58.14972 117.735633 
L 59.634394 126.168267 
L 61.119069 130.46969 
L 62.603743 133.081552 
L 64.088418 134.844815 
L 65.573092 136.122349 
L 67.057767 137.09595 
L 68.542441 137.866669 
L 70.027116 138.495134 
L 71.51179 139.019906 
L 72.996465 139.466672 
L 74.481139 139.853194 
L 75.965814 140.19214 
L 77.450488 140.492784 
L 78.935163 140.762063 
L 80.419837 141.005269 
L 81.904512 141.226505 
L 83.389186 141.428997 
L 84.873861 141.615315 
L 86.358535 141.787531 
L 87.84321 141.947332 
L 89.327884 142.096102 
L 90.812559 142.234988 
L 92.297233 142.364949 
L 93.781908 142.486789 
L 95.266582 142.60119 
L 96.751257 142.708733 
L 98.235931 142.809913 
L 99.720606 142.905161 
L 101.20528 142.994845 
L 102.689955 143.079291 
L 104.174629 143.158781 
L 105.659304 143.233564 
L 107.143978 143.303862 
L 108.628653 143.369871 
L 110.113327 143.431769 
L 111.598002 143.489714 
L 113.082676 143.543852 
L 114.567351 143.594314 
L 116.052025 143.641223 
L 117.5367 143.684691 
L 119.021374 143.724824 
L 120.506049 143.76172 
L 121.990723 143.795474 
L 123.475398 143.826173 
L 124.960072 143.853904 
L 126.444747 143.87875 
L 127.929421 143.900789 
L 129.414096 143.9201 
L 130.89877 143.936759 
L 132.383445 143.950841 
L 133.868119 143.96242 
L 135.352794 143.971571 
L 136.837468 143.978365 
L 138.322143 143.982875 
L 139.806817 143.985175 
L 141.291492 143.985338 
L 142.776166 143.983435 
L 144.260841 143.97954 
L 145.745515 143.973726 
L 147.23019 143.966067 
" style="fill:none;stroke:#000000;stroke-dasharray:1.5,2.475;stroke-dashoffset:0;stroke-width:1.5;"/>
   </g>
   <g id="patch_15">
    <path d="M 50.57788 146.316409 
L 50.57788 95.032831 
" style="fill:none;stroke:#000000;stroke-linecap:square;stroke-linejoin:miter;stroke-width:0.8;"/>
   </g>
   <g id="patch_16">
    <path d="M 151.832681 146.316409 
L 151.832681 95.032831 
" style="fill:none;stroke:#000000;stroke-linecap:square;stroke-linejoin:miter;stroke-width:0.8;"/>
   </g>
   <g id="patch_17">
    <path d="M 50.57788 146.316409 
L 151.832681 146.316409 
" style="fill:none;stroke:#000000;stroke-linecap:square;stroke-linejoin:miter;stroke-width:0.8;"/>
   </g>
   <g id="patch_18">
    <path d="M 50.57788 95.032831 
L 151.832681 95.032831 
" style="fill:none;stroke:#000000;stroke-linecap:square;stroke-linejoin:miter;stroke-width:0.8;"/>
   </g>
   <g id="legend_3">
    <g id="patch_19">
     <path d="M 91.355344 116.970009 
L 144.832681 116.970009 
Q 146.832681 116.970009 146.832681 114.970009 
L 146.832681 102.032831 
Q 146.832681 100.032831 144.832681 100.032831 
L 91.355344 100.032831 
Q 89.355344 100.032831 89.355344 102.032831 
L 89.355344 114.970009 
Q 89.355344 116.970009 91.355344 116.970009 
z
" style="fill:#ffffff;opacity:0.8;stroke:#cccccc;stroke-linejoin:miter;"/>
    </g>
    <g id="line2d_22">
     <path d="M 93.355344 107.532831 
L 113.355344 107.532831 
" style="fill:none;stroke:#000000;stroke-dasharray:1.5,2.475;stroke-dashoffset:0;stroke-width:1.5;"/>
    </g>
    <g id="line2d_23"/>
    <g id="text_19">
     <!-- $n=$1 -->
     <g transform="translate(121.355344 111.032831)scale(0.1 -0.1)">
      <use transform="scale(0.996264)" xlink:href="#CMMI12-6e"/>
      <use transform="translate(85.904056 0)scale(0.996264)" xlink:href="#CMR17-3d"/>
      <use transform="translate(157.618844 0)scale(0.996264)" xlink:href="#CMR17-31"/>
     </g>
    </g>
   </g>
  </g>
  <g id="axes_4">
   <g id="patch_20">
    <path d="M 195.188311 146.316409 
L 296.443112 146.316409 
L 296.443112 95.032831 
L 195.188311 95.032831 
z
" style="fill:#ffffff;"/>
   </g>
   <g id="matplotlib.axis_7">
    <g id="xtick_9">
     <g id="line2d_24">
      <g>
       <use style="stroke:#000000;stroke-width:0.8;" x="199.790802" xlink:href="#m77db253dff" y="146.316409"/>
      </g>
     </g>
     <g id="text_20">
      <!-- $\mathdefault{0}$ -->
      <g transform="translate(197.300134 160.234908)scale(0.1 -0.1)">
       <use transform="scale(0.996264)" xlink:href="#CMR17-30"/>
      </g>
     </g>
    </g>
    <g id="xtick_10">
     <g id="line2d_25">
      <g>
       <use style="stroke:#000000;stroke-width:0.8;" x="259.177782" xlink:href="#m77db253dff" y="146.316409"/>
      </g>
     </g>
     <g id="text_21">
      <!-- $\mathdefault{2}$ -->
      <g transform="translate(256.687114 160.234908)scale(0.1 -0.1)">
       <use transform="scale(0.996264)" xlink:href="#CMR17-32"/>
      </g>
     </g>
    </g>
   </g>
   <g id="matplotlib.axis_8">
    <g id="ytick_7">
     <g id="line2d_26">
      <g>
       <use style="stroke:#000000;stroke-width:0.8;" x="195.188311" xlink:href="#m640b77085e" y="141.239478"/>
      </g>
     </g>
     <g id="text_22">
      <!-- $\mathdefault{−0.05}$ -->
      <g transform="translate(162.728153 144.698727)scale(0.1 -0.1)">
       <use transform="scale(0.996264)" xlink:href="#CMSY10-0"/>
       <use transform="translate(77.487468 0)scale(0.996264)" xlink:href="#CMR17-30"/>
       <use transform="translate(123.177945 0)scale(0.996264)" xlink:href="#CMMI12-3a"/>
       <use transform="translate(150.275122 0)scale(0.996264)" xlink:href="#CMR17-30"/>
       <use transform="translate(195.965599 0)scale(0.996264)" xlink:href="#CMR17-35"/>
      </g>
     </g>
    </g>
    <g id="ytick_8">
     <g id="line2d_27">
      <g>
       <use style="stroke:#000000;stroke-width:0.8;" x="195.188311" xlink:href="#m640b77085e" y="117.310519"/>
      </g>
     </g>
     <g id="text_23">
      <!-- $\mathdefault{0.00}$ -->
      <g transform="translate(170.476897 120.769768)scale(0.1 -0.1)">
       <use transform="scale(0.996264)" xlink:href="#CMR17-30"/>
       <use transform="translate(45.690477 0)scale(0.996264)" xlink:href="#CMMI12-3a"/>
       <use transform="translate(72.787654 0)scale(0.996264)" xlink:href="#CMR17-30"/>
       <use transform="translate(118.478131 0)scale(0.996264)" xlink:href="#CMR17-30"/>
      </g>
     </g>
    </g>
   </g>
   <g id="line2d_28">
    <path clip-path="url(#p0173f80e76)" d="M 199.790802 117.310519 
L 201.275476 97.363903 
L 202.760151 106.226011 
L 204.244825 109.889244 
L 205.7295 111.753418 
L 207.214174 112.881918 
L 208.698849 113.641044 
L 210.183523 114.188884 
L 211.668198 114.604668 
L 213.152872 114.932461 
L 214.637547 115.198722 
L 216.122221 115.4203 
L 217.606896 115.60844 
L 219.09157 115.770935 
L 220.576245 115.913359 
L 222.060919 116.03981 
L 223.545594 116.15337 
L 225.030268 116.256404 
L 226.514943 116.350762 
L 227.999617 116.437914 
L 229.484292 116.519044 
L 230.968966 116.595125 
L 232.453641 116.666961 
L 233.938315 116.73523 
L 235.42299 116.800509 
L 236.907664 116.863299 
L 238.392339 116.924037 
L 239.877013 116.983112 
L 241.361688 117.040876 
L 242.846362 117.097654 
L 244.331037 117.153749 
L 245.815711 117.209449 
L 247.300386 117.265036 
L 248.78506 117.320789 
L 250.269735 117.376989 
L 251.754409 117.433928 
L 253.239084 117.491912 
L 254.723758 117.55127 
L 256.208433 117.612359 
L 257.693107 117.675578 
L 259.177782 117.741374 
L 260.662456 117.810259 
L 262.147131 117.882827 
L 263.631805 117.959776 
L 265.11648 118.041939 
L 266.601154 118.130321 
L 268.085829 118.226152 
L 269.570503 118.330962 
L 271.055178 118.446679 
L 272.539852 118.57578 
L 274.024527 118.721499 
L 275.509201 118.888155 
L 276.993876 119.081648 
L 278.47855 119.310266 
L 279.963225 119.586039 
L 281.447899 119.92713 
L 282.932574 120.362317 
L 284.417248 120.940107 
L 285.901923 121.749141 
L 287.386597 122.970569 
L 288.871272 125.041389 
L 290.355946 129.352776 
L 291.840621 143.985338 
" style="fill:none;stroke:#000000;stroke-dasharray:1.5,2.475;stroke-dashoffset:0;stroke-width:1.5;"/>
   </g>
   <g id="patch_21">
    <path d="M 195.188311 146.316409 
L 195.188311 95.032831 
" style="fill:none;stroke:#000000;stroke-linecap:square;stroke-linejoin:miter;stroke-width:0.8;"/>
   </g>
   <g id="patch_22">
    <path d="M 296.443112 146.316409 
L 296.443112 95.032831 
" style="fill:none;stroke:#000000;stroke-linecap:square;stroke-linejoin:miter;stroke-width:0.8;"/>
   </g>
   <g id="patch_23">
    <path d="M 195.188311 146.316409 
L 296.443112 146.316409 
" style="fill:none;stroke:#000000;stroke-linecap:square;stroke-linejoin:miter;stroke-width:0.8;"/>
   </g>
   <g id="patch_24">
    <path d="M 195.188311 95.032831 
L 296.443112 95.032831 
" style="fill:none;stroke:#000000;stroke-linecap:square;stroke-linejoin:miter;stroke-width:0.8;"/>
   </g>
   <g id="legend_4">
    <g id="patch_25">
     <path d="M 202.188311 141.316409 
L 255.665647 141.316409 
Q 257.665647 141.316409 257.665647 139.316409 
L 257.665647 126.379231 
Q 257.665647 124.379231 255.665647 124.379231 
L 202.188311 124.379231 
Q 200.188311 124.379231 200.188311 126.379231 
L 200.188311 139.316409 
Q 200.188311 141.316409 202.188311 141.316409 
z
" style="fill:#ffffff;opacity:0.8;stroke:#cccccc;stroke-linejoin:miter;"/>
    </g>
    <g id="line2d_29">
     <path d="M 204.188311 131.879231 
L 224.188311 131.879231 
" style="fill:none;stroke:#000000;stroke-dasharray:1.5,2.475;stroke-dashoffset:0;stroke-width:1.5;"/>
    </g>
    <g id="line2d_30"/>
    <g id="text_24">
     <!-- $n=$1 -->
     <g transform="translate(232.188311 135.379231)scale(0.1 -0.1)">
      <use transform="scale(0.996264)" xlink:href="#CMMI12-6e"/>
      <use transform="translate(85.904056 0)scale(0.996264)" xlink:href="#CMR17-3d"/>
      <use transform="translate(157.618844 0)scale(0.996264)" xlink:href="#CMR17-31"/>
     </g>
    </g>
   </g>
  </g>
  <g id="axes_5">
   <g id="patch_26">
    <path d="M 50.57788 215.54924 
L 151.832681 215.54924 
L 151.832681 164.265662 
L 50.57788 164.265662 
z
" style="fill:#ffffff;"/>
   </g>
   <g id="matplotlib.axis_9">
    <g id="xtick_11">
     <g id="line2d_31">
      <g>
       <use style="stroke:#000000;stroke-width:0.8;" x="55.180371" xlink:href="#m77db253dff" y="215.54924"/>
      </g>
     </g>
     <g id="text_25">
      <!-- $\mathdefault{0}$ -->
      <g transform="translate(52.689703 229.467739)scale(0.1 -0.1)">
       <use transform="scale(0.996264)" xlink:href="#CMR17-30"/>
      </g>
     </g>
    </g>
    <g id="xtick_12">
     <g id="line2d_32">
      <g>
       <use style="stroke:#000000;stroke-width:0.8;" x="101.182279" xlink:href="#m77db253dff" y="215.54924"/>
      </g>
     </g>
     <g id="text_26">
      <!-- $\mathdefault{50}$ -->
      <g transform="translate(96.200944 229.467739)scale(0.1 -0.1)">
       <use transform="scale(0.996264)" xlink:href="#CMR17-35"/>
       <use transform="translate(45.690477 0)scale(0.996264)" xlink:href="#CMR17-30"/>
      </g>
     </g>
    </g>
    <g id="xtick_13">
     <g id="line2d_33">
      <g>
       <use style="stroke:#000000;stroke-width:0.8;" x="147.184188" xlink:href="#m77db253dff" y="215.54924"/>
      </g>
     </g>
     <g id="text_27">
      <!-- $\mathdefault{100}$ -->
      <g transform="translate(139.712185 229.467739)scale(0.1 -0.1)">
       <use transform="scale(0.996264)" xlink:href="#CMR17-31"/>
       <use transform="translate(45.690477 0)scale(0.996264)" xlink:href="#CMR17-30"/>
       <use transform="translate(91.380954 0)scale(0.996264)" xlink:href="#CMR17-30"/>
      </g>
     </g>
    </g>
    <g id="text_28">
     <!-- $\xi$ -->
     <g transform="translate(99.025945 242.323415)scale(0.1 -0.1)">
      <defs>
       <path d="M 1670 0 
L 998 271 
C 832 335 448 490 448 876 
C 448 1430 1120 1990 1254 1990 
C 1267 1990 1325 1977 1344 1971 
C 1517 1919 1683 1919 1798 1919 
C 1997 1919 2374 1919 2374 2089 
C 2374 2220 2144 2240 1869 2240 
C 1741 2240 1568 2240 1338 2163 
C 1184 2291 1120 2497 1120 2690 
C 1120 3043 1350 3545 1856 3780 
C 1971 3648 2125 3648 2259 3648 
C 2419 3648 2810 3648 2810 3817 
C 2810 3968 2502 3968 2298 3968 
C 2170 3968 2074 3968 1894 3936 
C 1862 4016 1856 4029 1856 4180 
C 1856 4303 1882 4396 1882 4415 
C 1882 4454 1850 4480 1818 4480 
C 1715 4480 1715 4235 1715 4180 
C 1715 4084 1722 3988 1760 3904 
C 992 3705 653 3159 653 2741 
C 653 2355 909 2144 1082 2066 
C 422 1713 141 1057 141 709 
C 141 148 646 -51 877 -148 
L 1453 -380 
C 1613 -438 1875 -547 1920 -573 
C 1984 -618 2035 -695 2035 -798 
C 2035 -934 1933 -1152 1709 -1152 
C 1613 -1152 1402 -1127 1171 -953 
C 1126 -914 1120 -908 1094 -908 
C 1062 -908 1030 -934 1030 -972 
C 1030 -1043 1363 -1280 1709 -1280 
C 2118 -1280 2368 -882 2368 -605 
C 2368 -405 2259 -244 2054 -154 
L 1670 0 
z
M 1997 3817 
C 2106 3840 2221 3840 2304 3840 
C 2515 3840 2534 3835 2662 3812 
C 2586 3789 2534 3776 2266 3776 
C 2144 3776 2067 3776 1997 3817 
z
M 1491 2084 
C 1645 2112 1786 2112 1862 2112 
C 2074 2112 2086 2107 2227 2084 
C 2157 2061 2099 2048 1824 2048 
C 1670 2048 1606 2048 1491 2084 
z
" id="CMMI12-18" transform="scale(0.015625)"/>
      </defs>
      <use transform="scale(0.996264)" xlink:href="#CMMI12-18"/>
     </g>
    </g>
   </g>
   <g id="matplotlib.axis_10">
    <g id="ytick_9">
     <g id="line2d_34">
      <g>
       <use style="stroke:#000000;stroke-width:0.8;" x="50.57788" xlink:href="#m640b77085e" y="211.20105"/>
      </g>
     </g>
     <g id="text_29">
      <!-- $\mathdefault{0.00000}$ -->
      <g transform="translate(10.92246 214.660299)scale(0.1 -0.1)">
       <use transform="scale(0.996264)" xlink:href="#CMR17-30"/>
       <use transform="translate(45.690477 0)scale(0.996264)" xlink:href="#CMMI12-3a"/>
       <use transform="translate(72.787654 0)scale(0.996264)" xlink:href="#CMR17-30"/>
       <use transform="translate(118.478131 0)scale(0.996264)" xlink:href="#CMR17-30"/>
       <use transform="translate(164.168608 0)scale(0.996264)" xlink:href="#CMR17-30"/>
       <use transform="translate(209.859086 0)scale(0.996264)" xlink:href="#CMR17-30"/>
       <use transform="translate(255.549563 0)scale(0.996264)" xlink:href="#CMR17-30"/>
      </g>
     </g>
    </g>
    <g id="ytick_10">
     <g id="line2d_35">
      <g>
       <use style="stroke:#000000;stroke-width:0.8;" x="50.57788" xlink:href="#m640b77085e" y="184.421735"/>
      </g>
     </g>
     <g id="text_30">
      <!-- $\mathdefault{0.00025}$ -->
      <g transform="translate(10.92246 187.880984)scale(0.1 -0.1)">
       <use transform="scale(0.996264)" xlink:href="#CMR17-30"/>
       <use transform="translate(45.690477 0)scale(0.996264)" xlink:href="#CMMI12-3a"/>
       <use transform="translate(72.787654 0)scale(0.996264)" xlink:href="#CMR17-30"/>
       <use transform="translate(118.478131 0)scale(0.996264)" xlink:href="#CMR17-30"/>
       <use transform="translate(164.168608 0)scale(0.996264)" xlink:href="#CMR17-30"/>
       <use transform="translate(209.859086 0)scale(0.996264)" xlink:href="#CMR17-32"/>
       <use transform="translate(255.549563 0)scale(0.996264)" xlink:href="#CMR17-35"/>
      </g>
     </g>
    </g>
   </g>
   <g id="line2d_36">
    <path clip-path="url(#p022d4d93e7)" d="M 55.180371 211.20105 
L 55.226373 166.596734 
L 55.272375 186.541166 
L 55.456382 203.971145 
L 55.732394 209.541902 
L 56.054407 212.038239 
L 56.376421 213.002021 
L 56.652432 213.215589 
L 56.928443 213.142594 
L 57.480466 212.6752 
L 58.676516 211.655056 
L 59.688558 211.110168 
L 60.93061 210.707832 
L 62.678682 210.39524 
L 65.392795 210.159065 
L 70.268997 209.987891 
L 81.079445 209.875 
L 115.304865 209.812448 
L 147.23019 209.800214 
L 147.23019 209.800214 
" style="fill:none;stroke:#000000;stroke-dasharray:9.6,2.4,1.5,2.4;stroke-dashoffset:0;stroke-width:1.5;"/>
   </g>
   <g id="patch_27">
    <path d="M 50.57788 215.54924 
L 50.57788 164.265662 
" style="fill:none;stroke:#000000;stroke-linecap:square;stroke-linejoin:miter;stroke-width:0.8;"/>
   </g>
   <g id="patch_28">
    <path d="M 151.832681 215.54924 
L 151.832681 164.265662 
" style="fill:none;stroke:#000000;stroke-linecap:square;stroke-linejoin:miter;stroke-width:0.8;"/>
   </g>
   <g id="patch_29">
    <path d="M 50.57788 215.54924 
L 151.832681 215.54924 
" style="fill:none;stroke:#000000;stroke-linecap:square;stroke-linejoin:miter;stroke-width:0.8;"/>
   </g>
   <g id="patch_30">
    <path d="M 50.57788 164.265662 
L 151.832681 164.265662 
" style="fill:none;stroke:#000000;stroke-linecap:square;stroke-linejoin:miter;stroke-width:0.8;"/>
   </g>
   <g id="legend_5">
    <g id="patch_31">
     <path d="M 91.355344 186.20284 
L 144.832681 186.20284 
Q 146.832681 186.20284 146.832681 184.20284 
L 146.832681 171.265662 
Q 146.832681 169.265662 144.832681 169.265662 
L 91.355344 169.265662 
Q 89.355344 169.265662 89.355344 171.265662 
L 89.355344 184.20284 
Q 89.355344 186.20284 91.355344 186.20284 
z
" style="fill:#ffffff;opacity:0.8;stroke:#cccccc;stroke-linejoin:miter;"/>
    </g>
    <g id="line2d_37">
     <path d="M 93.355344 176.765662 
L 113.355344 176.765662 
" style="fill:none;stroke:#000000;stroke-dasharray:9.6,2.4,1.5,2.4;stroke-dashoffset:0;stroke-width:1.5;"/>
    </g>
    <g id="line2d_38"/>
    <g id="text_31">
     <!-- $n=$5 -->
     <g transform="translate(121.355344 180.265662)scale(0.1 -0.1)">
      <use transform="scale(0.996264)" xlink:href="#CMMI12-6e"/>
      <use transform="translate(85.904056 0)scale(0.996264)" xlink:href="#CMR17-3d"/>
      <use transform="translate(157.618844 0)scale(0.996264)" xlink:href="#CMR17-35"/>
     </g>
    </g>
   </g>
  </g>
  <g id="axes_6">
   <g id="patch_32">
    <path d="M 195.188311 215.54924 
L 296.443112 215.54924 
L 296.443112 164.265662 
L 195.188311 164.265662 
z
" style="fill:#ffffff;"/>
   </g>
   <g id="matplotlib.axis_11">
    <g id="xtick_14">
     <g id="line2d_39">
      <g>
       <use style="stroke:#000000;stroke-width:0.8;" x="199.790802" xlink:href="#m77db253dff" y="215.54924"/>
      </g>
     </g>
     <g id="text_32">
      <!-- $\mathdefault{0}$ -->
      <g transform="translate(197.300134 229.467739)scale(0.1 -0.1)">
       <use transform="scale(0.996264)" xlink:href="#CMR17-30"/>
      </g>
     </g>
    </g>
    <g id="xtick_15">
     <g id="line2d_40">
      <g>
       <use style="stroke:#000000;stroke-width:0.8;" x="245.79271" xlink:href="#m77db253dff" y="215.54924"/>
      </g>
     </g>
     <g id="text_33">
      <!-- $\mathdefault{50}$ -->
      <g transform="translate(240.811375 229.467739)scale(0.1 -0.1)">
       <use transform="scale(0.996264)" xlink:href="#CMR17-35"/>
       <use transform="translate(45.690477 0)scale(0.996264)" xlink:href="#CMR17-30"/>
      </g>
     </g>
    </g>
    <g id="xtick_16">
     <g id="line2d_41">
      <g>
       <use style="stroke:#000000;stroke-width:0.8;" x="291.794619" xlink:href="#m77db253dff" y="215.54924"/>
      </g>
     </g>
     <g id="text_34">
      <!-- $\mathdefault{100}$ -->
      <g transform="translate(284.322616 229.467739)scale(0.1 -0.1)">
       <use transform="scale(0.996264)" xlink:href="#CMR17-31"/>
       <use transform="translate(45.690477 0)scale(0.996264)" xlink:href="#CMR17-30"/>
       <use transform="translate(91.380954 0)scale(0.996264)" xlink:href="#CMR17-30"/>
      </g>
     </g>
    </g>
    <g id="text_35">
     <!-- $\xi$ -->
     <g transform="translate(243.636376 242.323415)scale(0.1 -0.1)">
      <use transform="scale(0.996264)" xlink:href="#CMMI12-18"/>
     </g>
    </g>
   </g>
   <g id="matplotlib.axis_12">
    <g id="ytick_11">
     <g id="line2d_42">
      <g>
       <use style="stroke:#000000;stroke-width:0.8;" x="195.188311" xlink:href="#m640b77085e" y="211.615042"/>
      </g>
     </g>
     <g id="text_36">
      <!-- $\mathdefault{0.00}$ -->
      <g transform="translate(170.476897 215.074292)scale(0.1 -0.1)">
       <use transform="scale(0.996264)" xlink:href="#CMR17-30"/>
       <use transform="translate(45.690477 0)scale(0.996264)" xlink:href="#CMMI12-3a"/>
       <use transform="translate(72.787654 0)scale(0.996264)" xlink:href="#CMR17-30"/>
       <use transform="translate(118.478131 0)scale(0.996264)" xlink:href="#CMR17-30"/>
      </g>
     </g>
    </g>
    <g id="ytick_12">
     <g id="line2d_43">
      <g>
       <use style="stroke:#000000;stroke-width:0.8;" x="195.188311" xlink:href="#m640b77085e" y="181.822347"/>
      </g>
     </g>
     <g id="text_37">
      <!-- $\mathdefault{0.05}$ -->
      <g transform="translate(170.476897 185.281596)scale(0.1 -0.1)">
       <use transform="scale(0.996264)" xlink:href="#CMR17-30"/>
       <use transform="translate(45.690477 0)scale(0.996264)" xlink:href="#CMMI12-3a"/>
       <use transform="translate(72.787654 0)scale(0.996264)" xlink:href="#CMR17-30"/>
       <use transform="translate(118.478131 0)scale(0.996264)" xlink:href="#CMR17-35"/>
      </g>
     </g>
    </g>
   </g>
   <g id="line2d_44">
    <path clip-path="url(#pcedec4a007)" d="M 199.790802 211.615042 
L 199.836804 186.792966 
L 199.882806 197.874813 
L 200.066813 207.533432 
L 200.342825 210.638313 
L 200.71084 212.285183 
L 201.078855 212.986305 
L 201.400869 213.198496 
L 201.768884 213.187364 
L 202.320907 212.921264 
L 203.654962 211.944183 
L 206.231069 210.129679 
L 209.405201 208.198004 
L 214.419409 205.434638 
L 223.435783 200.751871 
L 242.296565 191.248475 
L 291.10459 166.96209 
L 291.840621 166.596734 
L 291.840621 166.596734 
" style="fill:none;stroke:#000000;stroke-dasharray:9.6,2.4,1.5,2.4;stroke-dashoffset:0;stroke-width:1.5;"/>
   </g>
   <g id="patch_33">
    <path d="M 195.188311 215.54924 
L 195.188311 164.265662 
" style="fill:none;stroke:#000000;stroke-linecap:square;stroke-linejoin:miter;stroke-width:0.8;"/>
   </g>
   <g id="patch_34">
    <path d="M 296.443112 215.54924 
L 296.443112 164.265662 
" style="fill:none;stroke:#000000;stroke-linecap:square;stroke-linejoin:miter;stroke-width:0.8;"/>
   </g>
   <g id="patch_35">
    <path d="M 195.188311 215.54924 
L 296.443112 215.54924 
" style="fill:none;stroke:#000000;stroke-linecap:square;stroke-linejoin:miter;stroke-width:0.8;"/>
   </g>
   <g id="patch_36">
    <path d="M 195.188311 164.265662 
L 296.443112 164.265662 
" style="fill:none;stroke:#000000;stroke-linecap:square;stroke-linejoin:miter;stroke-width:0.8;"/>
   </g>
   <g id="legend_6">
    <g id="patch_37">
     <path d="M 235.965775 210.54924 
L 289.443112 210.54924 
Q 291.443112 210.54924 291.443112 208.54924 
L 291.443112 195.612062 
Q 291.443112 193.612062 289.443112 193.612062 
L 235.965775 193.612062 
Q 233.965775 193.612062 233.965775 195.612062 
L 233.965775 208.54924 
Q 233.965775 210.54924 235.965775 210.54924 
z
" style="fill:#ffffff;opacity:0.8;stroke:#cccccc;stroke-linejoin:miter;"/>
    </g>
    <g id="line2d_45">
     <path d="M 237.965775 201.112062 
L 257.965775 201.112062 
" style="fill:none;stroke:#000000;stroke-dasharray:9.6,2.4,1.5,2.4;stroke-dashoffset:0;stroke-width:1.5;"/>
    </g>
    <g id="line2d_46"/>
    <g id="text_38">
     <!-- $n=$5 -->
     <g transform="translate(265.965775 204.612062)scale(0.1 -0.1)">
      <use transform="scale(0.996264)" xlink:href="#CMMI12-6e"/>
      <use transform="translate(85.904056 0)scale(0.996264)" xlink:href="#CMR17-3d"/>
      <use transform="translate(157.618844 0)scale(0.996264)" xlink:href="#CMR17-35"/>
     </g>
    </g>
   </g>
  </g>
  <g id="axes_7">
   <g id="patch_38">
    <path d="M 339.798742 77.083578 
L 441.053542 77.083578 
L 441.053542 25.8 
L 339.798742 25.8 
z
" style="fill:#ffffff;"/>
   </g>
   <g id="matplotlib.axis_13">
    <g id="xtick_17">
     <g id="line2d_47">
      <g>
       <use style="stroke:#000000;stroke-width:0.8;" x="344.332143" xlink:href="#m77db253dff" y="77.083578"/>
      </g>
     </g>
     <g id="text_39">
      <!-- $\mathdefault{0.0}$ -->
      <g transform="translate(337.967104 91.002077)scale(0.1 -0.1)">
       <use transform="scale(0.996264)" xlink:href="#CMR17-30"/>
       <use transform="translate(45.690477 0)scale(0.996264)" xlink:href="#CMMI12-3a"/>
       <use transform="translate(72.787654 0)scale(0.996264)" xlink:href="#CMR17-30"/>
      </g>
     </g>
    </g>
    <g id="xtick_18">
     <g id="line2d_48">
      <g>
       <use style="stroke:#000000;stroke-width:0.8;" x="390.391597" xlink:href="#m77db253dff" y="77.083578"/>
      </g>
     </g>
     <g id="text_40">
      <!-- $\mathdefault{0.5}$ -->
      <g transform="translate(384.026558 91.002077)scale(0.1 -0.1)">
       <use transform="scale(0.996264)" xlink:href="#CMR17-30"/>
       <use transform="translate(45.690477 0)scale(0.996264)" xlink:href="#CMMI12-3a"/>
       <use transform="translate(72.787654 0)scale(0.996264)" xlink:href="#CMR17-35"/>
      </g>
     </g>
    </g>
    <g id="xtick_19">
     <g id="line2d_49">
      <g>
       <use style="stroke:#000000;stroke-width:0.8;" x="436.451051" xlink:href="#m77db253dff" y="77.083578"/>
      </g>
     </g>
     <g id="text_41">
      <!-- $\mathdefault{1.0}$ -->
      <g transform="translate(430.086012 91.002077)scale(0.1 -0.1)">
       <use transform="scale(0.996264)" xlink:href="#CMR17-31"/>
       <use transform="translate(45.690477 0)scale(0.996264)" xlink:href="#CMMI12-3a"/>
       <use transform="translate(72.787654 0)scale(0.996264)" xlink:href="#CMR17-30"/>
      </g>
     </g>
    </g>
   </g>
   <g id="matplotlib.axis_14">
    <g id="ytick_13">
     <g id="line2d_50">
      <g>
       <use style="stroke:#000000;stroke-width:0.8;" x="339.798742" xlink:href="#m640b77085e" y="74.752539"/>
      </g>
     </g>
     <g id="text_42">
      <!-- $\mathdefault{0.0}$ -->
      <g transform="translate(320.068663 78.211789)scale(0.1 -0.1)">
       <use transform="scale(0.996264)" xlink:href="#CMR17-30"/>
       <use transform="translate(45.690477 0)scale(0.996264)" xlink:href="#CMMI12-3a"/>
       <use transform="translate(72.787654 0)scale(0.996264)" xlink:href="#CMR17-30"/>
      </g>
     </g>
    </g>
    <g id="ytick_14">
     <g id="line2d_51">
      <g>
       <use style="stroke:#000000;stroke-width:0.8;" x="339.798742" xlink:href="#m640b77085e" y="39.953802"/>
      </g>
     </g>
     <g id="text_43">
      <!-- $\mathdefault{0.1}$ -->
      <g transform="translate(320.068663 43.413051)scale(0.1 -0.1)">
       <use transform="scale(0.996264)" xlink:href="#CMR17-30"/>
       <use transform="translate(45.690477 0)scale(0.996264)" xlink:href="#CMMI12-3a"/>
       <use transform="translate(72.787654 0)scale(0.996264)" xlink:href="#CMR17-31"/>
      </g>
     </g>
    </g>
   </g>
   <g id="line2d_52">
    <path clip-path="url(#p205898801a)" d="M 436.451051 28.131072 
L 413.421324 46.100281 
L 390.391597 61.10062 
L 367.36187 71.183344 
L 353.544034 74.174006 
L 351.241061 74.426759 
L 348.938089 74.607635 
L 346.635116 74.716296 
L 345.253332 74.74674 
L 345.023035 74.749277 
L 344.792738 74.751089 
L 344.562441 74.752177 
L 344.424262 74.752481 
L 344.401232 74.752507 
" style="fill:none;stroke:#000000;stroke-linecap:square;stroke-width:1.5;"/>
   </g>
   <g id="patch_39">
    <path d="M 339.798742 77.083578 
L 339.798742 25.8 
" style="fill:none;stroke:#000000;stroke-linecap:square;stroke-linejoin:miter;stroke-width:0.8;"/>
   </g>
   <g id="patch_40">
    <path d="M 441.053542 77.083578 
L 441.053542 25.8 
" style="fill:none;stroke:#000000;stroke-linecap:square;stroke-linejoin:miter;stroke-width:0.8;"/>
   </g>
   <g id="patch_41">
    <path d="M 339.798742 77.083578 
L 441.053542 77.083578 
" style="fill:none;stroke:#000000;stroke-linecap:square;stroke-linejoin:miter;stroke-width:0.8;"/>
   </g>
   <g id="patch_42">
    <path d="M 339.798742 25.8 
L 441.053542 25.8 
" style="fill:none;stroke:#000000;stroke-linecap:square;stroke-linejoin:miter;stroke-width:0.8;"/>
   </g>
   <g id="text_44">
    <!-- $\Delta_{max}(d\xi)$ -->
    <g transform="translate(366.482977 19.8)scale(0.12 -0.12)">
     <defs>
      <path d="M 1318 1870 
C 1331 1909 1491 2228 1728 2432 
C 1894 2585 2112 2687 2362 2687 
C 2618 2687 2707 2496 2707 2241 
C 2707 2202 2707 2075 2630 1775 
L 2470 1117 
C 2419 925 2298 453 2285 383 
C 2259 287 2221 121 2221 95 
C 2221 6 2291 -64 2387 -64 
C 2579 -64 2611 83 2669 313 
L 3053 1838 
C 3066 1890 3398 2687 4102 2687 
C 4358 2687 4448 2496 4448 2241 
C 4448 1883 4198 1187 4058 804 
C 4000 651 3968 568 3968 453 
C 3968 166 4166 -64 4474 -64 
C 5069 -64 5293 874 5293 913 
C 5293 945 5267 970 5229 970 
C 5171 970 5165 951 5133 842 
C 4986 332 4749 64 4493 64 
C 4429 64 4326 70 4326 274 
C 4326 440 4403 645 4429 715 
C 4544 1021 4832 1775 4832 2145 
C 4832 2528 4608 2816 4122 2816 
C 3693 2816 3347 2573 3091 2196 
C 3072 2541 2861 2816 2381 2816 
C 1811 2816 1510 2413 1395 2253 
C 1376 2617 1114 2816 832 2816 
C 646 2816 499 2726 378 2483 
C 262 2253 173 1864 173 1838 
C 173 1813 198 1781 243 1781 
C 294 1781 301 1787 339 1934 
C 435 2311 557 2687 813 2687 
C 960 2687 1011 2585 1011 2394 
C 1011 2253 947 2004 902 1807 
L 723 1117 
C 698 996 627 708 595 593 
C 550 427 480 127 480 95 
C 480 6 550 -64 646 -64 
C 723 -64 813 -26 864 70 
C 877 102 934 325 966 453 
L 1107 1028 
L 1318 1870 
z
" id="CMMI12-6d" transform="scale(0.015625)"/>
      <path d="M 1958 -1562 
C 1958 -1556 1958 -1543 1939 -1524 
C 1645 -1223 858 -403 858 1596 
C 858 3595 1632 4408 1946 4729 
C 1946 4735 1958 4748 1958 4767 
C 1958 4787 1939 4800 1914 4800 
C 1843 4800 1299 4325 986 3620 
C 666 2909 576 2218 576 1603 
C 576 1141 621 360 1005 -467 
C 1312 -1133 1837 -1600 1914 -1600 
C 1946 -1600 1958 -1588 1958 -1562 
z
" id="CMR17-28" transform="scale(0.015625)"/>
      <path d="M 3219 4255 
C 3226 4281 3238 4319 3238 4351 
C 3238 4416 3174 4416 3162 4416 
C 3155 4416 2842 4390 2810 4383 
C 2701 4377 2605 4364 2490 4358 
C 2330 4345 2285 4339 2285 4223 
C 2285 4159 2336 4159 2426 4159 
C 2739 4159 2746 4103 2746 4040 
C 2746 4002 2733 3951 2726 3932 
L 2336 2394 
C 2266 2560 2093 2816 1760 2816 
C 1037 2816 256 1883 256 938 
C 256 306 627 -64 1062 -64 
C 1414 -64 1715 210 1894 421 
C 1958 44 2259 -64 2451 -64 
C 2643 -64 2797 51 2912 281 
C 3014 498 3104 887 3104 913 
C 3104 945 3078 970 3040 970 
C 2982 970 2976 938 2950 842 
C 2854 466 2733 64 2470 64 
C 2285 64 2272 230 2272 357 
C 2272 383 2272 517 2317 696 
L 3219 4255 
z
M 1926 759 
C 1894 651 1894 638 1805 517 
C 1664 338 1382 64 1082 64 
C 819 64 672 300 672 676 
C 672 1028 870 1743 992 2011 
C 1210 2458 1510 2687 1760 2687 
C 2182 2687 2266 2164 2266 2113 
C 2266 2107 2246 2024 2240 2011 
L 1926 759 
z
" id="CMMI12-64" transform="scale(0.015625)"/>
      <path d="M 1683 1596 
C 1683 2057 1638 2839 1254 3665 
C 947 4332 422 4800 346 4800 
C 326 4800 301 4793 301 4761 
C 301 4748 307 4742 314 4729 
C 621 4408 1402 3595 1402 1603 
C 1402 -396 627 -1210 314 -1530 
C 307 -1543 301 -1549 301 -1562 
C 301 -1594 326 -1600 346 -1600 
C 416 -1600 960 -1127 1274 -422 
C 1594 289 1683 981 1683 1596 
z
" id="CMR17-29" transform="scale(0.015625)"/>
     </defs>
     <use transform="scale(0.996264)" xlink:href="#CMR17-1"/>
     <use transform="translate(76.91959 -14.943915)scale(0.697382)" xlink:href="#CMMI12-6d"/>
     <use transform="translate(136.648381 -14.943915)scale(0.697382)" xlink:href="#CMMI12-61"/>
     <use transform="translate(172.493728 -14.943915)scale(0.697382)" xlink:href="#CMMI12-78"/>
     <use transform="translate(211.795519 0)scale(0.996264)" xlink:href="#CMR17-28"/>
     <use transform="translate(247.076287 0)scale(0.996264)" xlink:href="#CMMI12-64"/>
     <use transform="translate(297.765384 0)scale(0.996264)" xlink:href="#CMMI12-18"/>
     <use transform="translate(345.185717 0)scale(0.996264)" xlink:href="#CMR17-29"/>
    </g>
   </g>
   <g id="legend_7">
    <g id="patch_43">
     <path d="M 346.798742 47.737178 
L 400.276078 47.737178 
Q 402.276078 47.737178 402.276078 45.737178 
L 402.276078 32.8 
Q 402.276078 30.8 400.276078 30.8 
L 346.798742 30.8 
Q 344.798742 30.8 344.798742 32.8 
L 344.798742 45.737178 
Q 344.798742 47.737178 346.798742 47.737178 
z
" style="fill:#ffffff;opacity:0.8;stroke:#cccccc;stroke-linejoin:miter;"/>
    </g>
    <g id="line2d_53">
     <path d="M 348.798742 38.3 
L 368.798742 38.3 
" style="fill:none;stroke:#000000;stroke-linecap:square;stroke-width:1.5;"/>
    </g>
    <g id="line2d_54"/>
    <g id="text_45">
     <!-- $n=$0 -->
     <g transform="translate(376.798742 41.8)scale(0.1 -0.1)">
      <use transform="scale(0.996264)" xlink:href="#CMMI12-6e"/>
      <use transform="translate(85.904056 0)scale(0.996264)" xlink:href="#CMR17-3d"/>
      <use transform="translate(157.618844 0)scale(0.996264)" xlink:href="#CMR17-30"/>
     </g>
    </g>
   </g>
  </g>
  <g id="axes_8">
   <g id="patch_44">
    <path d="M 339.798742 146.316409 
L 441.053542 146.316409 
L 441.053542 95.032831 
L 339.798742 95.032831 
z
" style="fill:#ffffff;"/>
   </g>
   <g id="matplotlib.axis_15">
    <g id="xtick_20">
     <g id="line2d_55">
      <g>
       <use style="stroke:#000000;stroke-width:0.8;" x="344.332143" xlink:href="#m77db253dff" y="146.316409"/>
      </g>
     </g>
     <g id="text_46">
      <!-- $\mathdefault{0.0}$ -->
      <g transform="translate(337.967104 160.234908)scale(0.1 -0.1)">
       <use transform="scale(0.996264)" xlink:href="#CMR17-30"/>
       <use transform="translate(45.690477 0)scale(0.996264)" xlink:href="#CMMI12-3a"/>
       <use transform="translate(72.787654 0)scale(0.996264)" xlink:href="#CMR17-30"/>
      </g>
     </g>
    </g>
    <g id="xtick_21">
     <g id="line2d_56">
      <g>
       <use style="stroke:#000000;stroke-width:0.8;" x="390.391597" xlink:href="#m77db253dff" y="146.316409"/>
      </g>
     </g>
     <g id="text_47">
      <!-- $\mathdefault{0.5}$ -->
      <g transform="translate(384.026558 160.234908)scale(0.1 -0.1)">
       <use transform="scale(0.996264)" xlink:href="#CMR17-30"/>
       <use transform="translate(45.690477 0)scale(0.996264)" xlink:href="#CMMI12-3a"/>
       <use transform="translate(72.787654 0)scale(0.996264)" xlink:href="#CMR17-35"/>
      </g>
     </g>
    </g>
    <g id="xtick_22">
     <g id="line2d_57">
      <g>
       <use style="stroke:#000000;stroke-width:0.8;" x="436.451051" xlink:href="#m77db253dff" y="146.316409"/>
      </g>
     </g>
     <g id="text_48">
      <!-- $\mathdefault{1.0}$ -->
      <g transform="translate(430.086012 160.234908)scale(0.1 -0.1)">
       <use transform="scale(0.996264)" xlink:href="#CMR17-31"/>
       <use transform="translate(45.690477 0)scale(0.996264)" xlink:href="#CMMI12-3a"/>
       <use transform="translate(72.787654 0)scale(0.996264)" xlink:href="#CMR17-30"/>
      </g>
     </g>
    </g>
   </g>
   <g id="matplotlib.axis_16">
    <g id="ytick_15">
     <g id="line2d_58">
      <g>
       <use style="stroke:#000000;stroke-width:0.8;" x="339.798742" xlink:href="#m640b77085e" y="143.98537"/>
      </g>
     </g>
     <g id="text_49">
      <!-- $\mathdefault{0.0}$ -->
      <g transform="translate(320.068663 147.444619)scale(0.1 -0.1)">
       <use transform="scale(0.996264)" xlink:href="#CMR17-30"/>
       <use transform="translate(45.690477 0)scale(0.996264)" xlink:href="#CMMI12-3a"/>
       <use transform="translate(72.787654 0)scale(0.996264)" xlink:href="#CMR17-30"/>
      </g>
     </g>
    </g>
    <g id="ytick_16">
     <g id="line2d_59">
      <g>
       <use style="stroke:#000000;stroke-width:0.8;" x="339.798742" xlink:href="#m640b77085e" y="109.186633"/>
      </g>
     </g>
     <g id="text_50">
      <!-- $\mathdefault{0.1}$ -->
      <g transform="translate(320.068663 112.645882)scale(0.1 -0.1)">
       <use transform="scale(0.996264)" xlink:href="#CMR17-30"/>
       <use transform="translate(45.690477 0)scale(0.996264)" xlink:href="#CMMI12-3a"/>
       <use transform="translate(72.787654 0)scale(0.996264)" xlink:href="#CMR17-31"/>
      </g>
     </g>
    </g>
   </g>
   <g id="line2d_60">
    <path clip-path="url(#p4809b192be)" d="M 436.451051 97.363903 
L 413.421324 115.333112 
L 390.391597 130.333451 
L 367.36187 140.416175 
L 353.544034 143.406837 
L 351.241061 143.65959 
L 348.938089 143.840466 
L 346.635116 143.949127 
L 345.253332 143.979571 
L 345.023035 143.982108 
L 344.792738 143.98392 
L 344.562441 143.985008 
L 344.424262 143.985312 
L 344.401232 143.985338 
" style="fill:none;stroke:#000000;stroke-dasharray:5.55,2.4;stroke-dashoffset:0;stroke-width:1.5;"/>
   </g>
   <g id="patch_45">
    <path d="M 339.798742 146.316409 
L 339.798742 95.032831 
" style="fill:none;stroke:#000000;stroke-linecap:square;stroke-linejoin:miter;stroke-width:0.8;"/>
   </g>
   <g id="patch_46">
    <path d="M 441.053542 146.316409 
L 441.053542 95.032831 
" style="fill:none;stroke:#000000;stroke-linecap:square;stroke-linejoin:miter;stroke-width:0.8;"/>
   </g>
   <g id="patch_47">
    <path d="M 339.798742 146.316409 
L 441.053542 146.316409 
" style="fill:none;stroke:#000000;stroke-linecap:square;stroke-linejoin:miter;stroke-width:0.8;"/>
   </g>
   <g id="patch_48">
    <path d="M 339.798742 95.032831 
L 441.053542 95.032831 
" style="fill:none;stroke:#000000;stroke-linecap:square;stroke-linejoin:miter;stroke-width:0.8;"/>
   </g>
   <g id="legend_8">
    <g id="patch_49">
     <path d="M 346.798742 116.970009 
L 400.276078 116.970009 
Q 402.276078 116.970009 402.276078 114.970009 
L 402.276078 102.032831 
Q 402.276078 100.032831 400.276078 100.032831 
L 346.798742 100.032831 
Q 344.798742 100.032831 344.798742 102.032831 
L 344.798742 114.970009 
Q 344.798742 116.970009 346.798742 116.970009 
z
" style="fill:#ffffff;opacity:0.8;stroke:#cccccc;stroke-linejoin:miter;"/>
    </g>
    <g id="line2d_61">
     <path d="M 348.798742 107.532831 
L 368.798742 107.532831 
" style="fill:none;stroke:#000000;stroke-dasharray:5.55,2.4;stroke-dashoffset:0;stroke-width:1.5;"/>
    </g>
    <g id="line2d_62"/>
    <g id="text_51">
     <!-- $n=$1 -->
     <g transform="translate(376.798742 111.032831)scale(0.1 -0.1)">
      <use transform="scale(0.996264)" xlink:href="#CMMI12-6e"/>
      <use transform="translate(85.904056 0)scale(0.996264)" xlink:href="#CMR17-3d"/>
      <use transform="translate(157.618844 0)scale(0.996264)" xlink:href="#CMR17-31"/>
     </g>
    </g>
   </g>
  </g>
  <g id="axes_9">
   <g id="patch_50">
    <path d="M 339.798742 215.54924 
L 441.053542 215.54924 
L 441.053542 164.265662 
L 339.798742 164.265662 
z
" style="fill:#ffffff;"/>
   </g>
   <g id="matplotlib.axis_17">
    <g id="xtick_23">
     <g id="line2d_63">
      <g>
       <use style="stroke:#000000;stroke-width:0.8;" x="344.332143" xlink:href="#m77db253dff" y="215.54924"/>
      </g>
     </g>
     <g id="text_52">
      <!-- $\mathdefault{0.0}$ -->
      <g transform="translate(337.967104 229.467739)scale(0.1 -0.1)">
       <use transform="scale(0.996264)" xlink:href="#CMR17-30"/>
       <use transform="translate(45.690477 0)scale(0.996264)" xlink:href="#CMMI12-3a"/>
       <use transform="translate(72.787654 0)scale(0.996264)" xlink:href="#CMR17-30"/>
      </g>
     </g>
    </g>
    <g id="xtick_24">
     <g id="line2d_64">
      <g>
       <use style="stroke:#000000;stroke-width:0.8;" x="390.391597" xlink:href="#m77db253dff" y="215.54924"/>
      </g>
     </g>
     <g id="text_53">
      <!-- $\mathdefault{0.5}$ -->
      <g transform="translate(384.026558 229.467739)scale(0.1 -0.1)">
       <use transform="scale(0.996264)" xlink:href="#CMR17-30"/>
       <use transform="translate(45.690477 0)scale(0.996264)" xlink:href="#CMMI12-3a"/>
       <use transform="translate(72.787654 0)scale(0.996264)" xlink:href="#CMR17-35"/>
      </g>
     </g>
    </g>
    <g id="xtick_25">
     <g id="line2d_65">
      <g>
       <use style="stroke:#000000;stroke-width:0.8;" x="436.451051" xlink:href="#m77db253dff" y="215.54924"/>
      </g>
     </g>
     <g id="text_54">
      <!-- $\mathdefault{1.0}$ -->
      <g transform="translate(430.086012 229.467739)scale(0.1 -0.1)">
       <use transform="scale(0.996264)" xlink:href="#CMR17-31"/>
       <use transform="translate(45.690477 0)scale(0.996264)" xlink:href="#CMMI12-3a"/>
       <use transform="translate(72.787654 0)scale(0.996264)" xlink:href="#CMR17-30"/>
      </g>
     </g>
    </g>
    <g id="text_55">
     <!-- $d\xi$ -->
     <g transform="translate(385.654097 242.323415)scale(0.1 -0.1)">
      <use transform="scale(0.996264)" xlink:href="#CMMI12-64"/>
      <use transform="translate(50.689097 0)scale(0.996264)" xlink:href="#CMMI12-18"/>
     </g>
    </g>
   </g>
   <g id="matplotlib.axis_18">
    <g id="ytick_17">
     <g id="line2d_66">
      <g>
       <use style="stroke:#000000;stroke-width:0.8;" x="339.798742" xlink:href="#m640b77085e" y="213.218201"/>
      </g>
     </g>
     <g id="text_56">
      <!-- $\mathdefault{0.0}$ -->
      <g transform="translate(320.068663 216.67745)scale(0.1 -0.1)">
       <use transform="scale(0.996264)" xlink:href="#CMR17-30"/>
       <use transform="translate(45.690477 0)scale(0.996264)" xlink:href="#CMMI12-3a"/>
       <use transform="translate(72.787654 0)scale(0.996264)" xlink:href="#CMR17-30"/>
      </g>
     </g>
    </g>
    <g id="ytick_18">
     <g id="line2d_67">
      <g>
       <use style="stroke:#000000;stroke-width:0.8;" x="339.798742" xlink:href="#m640b77085e" y="178.419464"/>
      </g>
     </g>
     <g id="text_57">
      <!-- $\mathdefault{0.1}$ -->
      <g transform="translate(320.068663 181.878713)scale(0.1 -0.1)">
       <use transform="scale(0.996264)" xlink:href="#CMR17-30"/>
       <use transform="translate(45.690477 0)scale(0.996264)" xlink:href="#CMMI12-3a"/>
       <use transform="translate(72.787654 0)scale(0.996264)" xlink:href="#CMR17-31"/>
      </g>
     </g>
    </g>
   </g>
   <g id="line2d_68">
    <path clip-path="url(#pdab6318125)" d="M 436.451051 166.596734 
L 413.421324 184.565942 
L 390.391597 199.566282 
L 367.36187 209.649006 
L 353.544034 212.639668 
L 351.241061 212.892421 
L 348.938089 213.073297 
L 346.635116 213.181958 
L 345.253332 213.212401 
L 345.023035 213.214939 
L 344.792738 213.216751 
L 344.562441 213.217839 
L 344.424262 213.218143 
L 344.401232 213.218168 
" style="fill:none;stroke:#000000;stroke-dasharray:1.5,2.475;stroke-dashoffset:0;stroke-width:1.5;"/>
   </g>
   <g id="patch_51">
    <path d="M 339.798742 215.54924 
L 339.798742 164.265662 
" style="fill:none;stroke:#000000;stroke-linecap:square;stroke-linejoin:miter;stroke-width:0.8;"/>
   </g>
   <g id="patch_52">
    <path d="M 441.053542 215.54924 
L 441.053542 164.265662 
" style="fill:none;stroke:#000000;stroke-linecap:square;stroke-linejoin:miter;stroke-width:0.8;"/>
   </g>
   <g id="patch_53">
    <path d="M 339.798742 215.54924 
L 441.053542 215.54924 
" style="fill:none;stroke:#000000;stroke-linecap:square;stroke-linejoin:miter;stroke-width:0.8;"/>
   </g>
   <g id="patch_54">
    <path d="M 339.798742 164.265662 
L 441.053542 164.265662 
" style="fill:none;stroke:#000000;stroke-linecap:square;stroke-linejoin:miter;stroke-width:0.8;"/>
   </g>
   <g id="legend_9">
    <g id="patch_55">
     <path d="M 346.798742 186.20284 
L 400.276078 186.20284 
Q 402.276078 186.20284 402.276078 184.20284 
L 402.276078 171.265662 
Q 402.276078 169.265662 400.276078 169.265662 
L 346.798742 169.265662 
Q 344.798742 169.265662 344.798742 171.265662 
L 344.798742 184.20284 
Q 344.798742 186.20284 346.798742 186.20284 
z
" style="fill:#ffffff;opacity:0.8;stroke:#cccccc;stroke-linejoin:miter;"/>
    </g>
    <g id="line2d_69">
     <path d="M 348.798742 176.765662 
L 368.798742 176.765662 
" style="fill:none;stroke:#000000;stroke-dasharray:1.5,2.475;stroke-dashoffset:0;stroke-width:1.5;"/>
    </g>
    <g id="line2d_70"/>
    <g id="text_58">
     <!-- $n=$2 -->
     <g transform="translate(376.798742 180.265662)scale(0.1 -0.1)">
      <use transform="scale(0.996264)" xlink:href="#CMMI12-6e"/>
      <use transform="translate(85.904056 0)scale(0.996264)" xlink:href="#CMR17-3d"/>
      <use transform="translate(157.618844 0)scale(0.996264)" xlink:href="#CMR17-32"/>
     </g>
    </g>
   </g>
  </g>
 </g>
 <defs>
  <clipPath id="pdd67d29dc9">
   <rect height="51.283578" width="101.254801" x="50.57788" y="25.8"/>
  </clipPath>
  <clipPath id="p22a0c65a1a">
   <rect height="51.283578" width="101.254801" x="195.188311" y="25.8"/>
  </clipPath>
  <clipPath id="p4bdc0454bc">
   <rect height="51.283578" width="101.254801" x="50.57788" y="95.032831"/>
  </clipPath>
  <clipPath id="p0173f80e76">
   <rect height="51.283578" width="101.254801" x="195.188311" y="95.032831"/>
  </clipPath>
  <clipPath id="p022d4d93e7">
   <rect height="51.283578" width="101.254801" x="50.57788" y="164.265662"/>
  </clipPath>
  <clipPath id="pcedec4a007">
   <rect height="51.283578" width="101.254801" x="195.188311" y="164.265662"/>
  </clipPath>
  <clipPath id="p205898801a">
   <rect height="51.283578" width="101.254801" x="339.798742" y="25.8"/>
  </clipPath>
  <clipPath id="p4809b192be">
   <rect height="51.283578" width="101.254801" x="339.798742" y="95.032831"/>
  </clipPath>
  <clipPath id="pdab6318125">
   <rect height="51.283578" width="101.254801" x="339.798742" y="164.265662"/>
  </clipPath>
 </defs>
</svg>
