<?xml version="1.0" encoding="utf-8" standalone="no"?>
<!DOCTYPE svg PUBLIC "-//W3C//DTD SVG 1.1//EN"
  "http://www.w3.org/Graphics/SVG/1.1/DTD/svg11.dtd">
<svg height="255.11811pt" version="1.1" viewBox="0 0 453.543307 255.11811" width="453.543307pt" xmlns="http://www.w3.org/2000/svg" xmlns:xlink="http://www.w3.org/1999/xlink">
 <metadata>
  <rdf:RDF xmlns:cc="http://creativecommons.org/ns#" xmlns:dc="http://purl.org/dc/elements/1.1/" xmlns:rdf="http://www.w3.org/1999/02/22-rdf-syntax-ns#">
   <cc:Work>
    <dc:type rdf:resource="http://purl.org/dc/dcmitype/StillImage"/>
    <dc:date>2021-04-16T14:29:04.419328</dc:date>
    <dc:format>image/svg+xml</dc:format>
    <dc:creator>
     <cc:Agent>
      <dc:title>Matplotlib v3.4.1, https://matplotlib.org/</dc:title>
     </cc:Agent>
    </dc:creator>
   </cc:Work>
  </rdf:RDF>
 </metadata>
 <defs>
  <style type="text/css">*{stroke-linecap:butt;stroke-linejoin:round;}</style>
 </defs>
 <g id="figure_1">
  <g id="patch_1">
   <path d="M 0 255.11811 
L 453.543307 255.11811 
L 453.543307 0 
L 0 0 
z
" style="fill:#ffffff;"/>
  </g>
  <g id="axes_1">
   <g id="patch_2">
    <path d="M 65.02234 78.67641 
L 230.522874 78.67641 
L 230.522874 10.8 
L 65.02234 10.8 
z
" style="fill:#ffffff;"/>
   </g>
   <g id="matplotlib.axis_1">
    <g id="xtick_1">
     <g id="line2d_1">
      <defs>
       <path d="M 0 0 
L 0 3.5 
" id="m315e63c095" style="stroke:#000000;stroke-width:0.8;"/>
      </defs>
      <g>
       <use style="stroke:#000000;stroke-width:0.8;" x="72.545092" xlink:href="#m315e63c095" y="78.67641"/>
      </g>
     </g>
     <g id="text_1">
      <!-- $\mathdefault{0.00}$ -->
      <g transform="translate(63.689384 92.594908)scale(0.1 -0.1)">
       <defs>
        <path d="M 2688 2038 
C 2688 2430 2682 3099 2413 3613 
C 2176 4063 1798 4224 1466 4224 
C 1158 4224 768 4082 525 3620 
C 269 3137 243 2539 243 2038 
C 243 1671 250 1112 448 623 
C 723 -39 1216 -128 1466 -128 
C 1760 -128 2208 -7 2470 604 
C 2662 1048 2688 1568 2688 2038 
z
M 1466 -26 
C 1056 -26 813 328 723 816 
C 653 1196 653 1749 653 2109 
C 653 2604 653 3015 736 3407 
C 858 3954 1216 4121 1466 4121 
C 1728 4121 2067 3947 2189 3420 
C 2272 3054 2278 2623 2278 2109 
C 2278 1691 2278 1176 2202 797 
C 2067 96 1690 -26 1466 -26 
z
" id="CMR17-30" transform="scale(0.015625)"/>
        <path d="M 1178 307 
C 1178 492 1024 620 870 620 
C 685 620 557 467 557 313 
C 557 128 710 0 864 0 
C 1050 0 1178 153 1178 307 
z
" id="CMMI12-3a" transform="scale(0.015625)"/>
       </defs>
       <use transform="scale(0.996264)" xlink:href="#CMR17-30"/>
       <use transform="translate(45.690477 0)scale(0.996264)" xlink:href="#CMMI12-3a"/>
       <use transform="translate(72.787654 0)scale(0.996264)" xlink:href="#CMR17-30"/>
       <use transform="translate(118.478131 0)scale(0.996264)" xlink:href="#CMR17-30"/>
      </g>
     </g>
    </g>
    <g id="xtick_2">
     <g id="line2d_2">
      <g>
       <use style="stroke:#000000;stroke-width:0.8;" x="110.158849" xlink:href="#m315e63c095" y="78.67641"/>
      </g>
     </g>
     <g id="text_2">
      <!-- $\mathdefault{0.25}$ -->
      <g transform="translate(101.303142 92.594908)scale(0.1 -0.1)">
       <defs>
        <path d="M 2669 990 
L 2554 990 
C 2490 537 2438 460 2413 422 
C 2381 371 1920 371 1830 371 
L 602 371 
C 832 620 1280 1073 1824 1596 
C 2214 1966 2669 2400 2669 3033 
C 2669 3788 2067 4224 1395 4224 
C 691 4224 262 3603 262 3027 
C 262 2777 448 2745 525 2745 
C 589 2745 781 2783 781 3007 
C 781 3206 614 3264 525 3264 
C 486 3264 448 3257 422 3244 
C 544 3788 915 4057 1306 4057 
C 1862 4057 2227 3616 2227 3033 
C 2227 2477 1901 1998 1536 1583 
L 262 147 
L 262 0 
L 2515 0 
L 2669 990 
z
" id="CMR17-32" transform="scale(0.015625)"/>
        <path d="M 730 3750 
C 794 3724 1056 3641 1325 3641 
C 1920 3641 2246 3961 2432 4140 
C 2432 4191 2432 4224 2394 4224 
C 2387 4224 2374 4224 2323 4198 
C 2099 4102 1837 4032 1517 4032 
C 1325 4032 1037 4055 723 4191 
C 653 4224 640 4224 634 4224 
C 602 4224 595 4217 595 4090 
L 595 2231 
C 595 2113 595 2080 659 2080 
C 691 2080 704 2093 736 2139 
C 941 2435 1222 2560 1542 2560 
C 1766 2560 2246 2415 2246 1293 
C 2246 1087 2246 716 2054 422 
C 1894 159 1645 25 1370 25 
C 947 25 518 319 403 812 
C 429 806 480 793 506 793 
C 589 793 749 838 749 1036 
C 749 1209 627 1280 506 1280 
C 358 1280 262 1190 262 1011 
C 262 454 704 -128 1382 -128 
C 2042 -128 2669 441 2669 1267 
C 2669 2054 2170 2662 1549 2662 
C 1222 2662 947 2540 730 2304 
L 730 3750 
z
" id="CMR17-35" transform="scale(0.015625)"/>
       </defs>
       <use transform="scale(0.996264)" xlink:href="#CMR17-30"/>
       <use transform="translate(45.690477 0)scale(0.996264)" xlink:href="#CMMI12-3a"/>
       <use transform="translate(72.787654 0)scale(0.996264)" xlink:href="#CMR17-32"/>
       <use transform="translate(118.478131 0)scale(0.996264)" xlink:href="#CMR17-35"/>
      </g>
     </g>
    </g>
    <g id="xtick_3">
     <g id="line2d_3">
      <g>
       <use style="stroke:#000000;stroke-width:0.8;" x="147.772607" xlink:href="#m315e63c095" y="78.67641"/>
      </g>
     </g>
     <g id="text_3">
      <!-- $\mathdefault{0.50}$ -->
      <g transform="translate(138.9169 92.594908)scale(0.1 -0.1)">
       <use transform="scale(0.996264)" xlink:href="#CMR17-30"/>
       <use transform="translate(45.690477 0)scale(0.996264)" xlink:href="#CMMI12-3a"/>
       <use transform="translate(72.787654 0)scale(0.996264)" xlink:href="#CMR17-35"/>
       <use transform="translate(118.478131 0)scale(0.996264)" xlink:href="#CMR17-30"/>
      </g>
     </g>
    </g>
    <g id="xtick_4">
     <g id="line2d_4">
      <g>
       <use style="stroke:#000000;stroke-width:0.8;" x="185.386365" xlink:href="#m315e63c095" y="78.67641"/>
      </g>
     </g>
     <g id="text_4">
      <!-- $\mathdefault{0.75}$ -->
      <g transform="translate(176.530658 92.594908)scale(0.1 -0.1)">
       <defs>
        <path d="M 2886 3955 
L 2886 4096 
L 1382 4096 
C 634 4096 621 4166 595 4288 
L 480 4288 
L 294 3104 
L 410 3104 
C 429 3226 474 3552 550 3673 
C 589 3724 1062 3724 1171 3724 
L 2579 3724 
L 1869 2670 
C 1395 1961 1069 1003 1069 166 
C 1069 89 1069 -128 1299 -128 
C 1530 -128 1530 89 1530 172 
L 1530 466 
C 1530 1514 1709 2204 2003 2644 
L 2886 3955 
z
" id="CMR17-37" transform="scale(0.015625)"/>
       </defs>
       <use transform="scale(0.996264)" xlink:href="#CMR17-30"/>
       <use transform="translate(45.690477 0)scale(0.996264)" xlink:href="#CMMI12-3a"/>
       <use transform="translate(72.787654 0)scale(0.996264)" xlink:href="#CMR17-37"/>
       <use transform="translate(118.478131 0)scale(0.996264)" xlink:href="#CMR17-35"/>
      </g>
     </g>
    </g>
    <g id="xtick_5">
     <g id="line2d_5">
      <g>
       <use style="stroke:#000000;stroke-width:0.8;" x="223.000122" xlink:href="#m315e63c095" y="78.67641"/>
      </g>
     </g>
     <g id="text_5">
      <!-- $\mathdefault{1.00}$ -->
      <g transform="translate(214.144415 92.594908)scale(0.1 -0.1)">
       <defs>
        <path d="M 1702 4083 
C 1702 4217 1696 4224 1606 4224 
C 1357 3927 979 3833 621 3820 
C 602 3820 570 3820 563 3808 
C 557 3795 557 3782 557 3648 
C 755 3648 1088 3686 1344 3839 
L 1344 467 
C 1344 243 1331 166 781 166 
L 589 166 
L 589 0 
C 896 6 1216 12 1523 12 
C 1830 12 2150 6 2458 0 
L 2458 166 
L 2266 166 
C 1715 166 1702 236 1702 467 
L 1702 4083 
z
" id="CMR17-31" transform="scale(0.015625)"/>
       </defs>
       <use transform="scale(0.996264)" xlink:href="#CMR17-31"/>
       <use transform="translate(45.690477 0)scale(0.996264)" xlink:href="#CMMI12-3a"/>
       <use transform="translate(72.787654 0)scale(0.996264)" xlink:href="#CMR17-30"/>
       <use transform="translate(118.478131 0)scale(0.996264)" xlink:href="#CMR17-30"/>
      </g>
     </g>
    </g>
   </g>
   <g id="matplotlib.axis_2">
    <g id="ytick_1">
     <g id="line2d_6">
      <defs>
       <path d="M 0 0 
L -3.5 0 
" id="m6cfa754bf2" style="stroke:#000000;stroke-width:0.8;"/>
      </defs>
      <g>
       <use style="stroke:#000000;stroke-width:0.8;" x="65.02234" xlink:href="#m6cfa754bf2" y="75.591119"/>
      </g>
     </g>
     <g id="text_6">
      <!-- $\mathdefault{0.0000}$ -->
      <g transform="translate(30.348255 79.050368)scale(0.1 -0.1)">
       <use transform="scale(0.996264)" xlink:href="#CMR17-30"/>
       <use transform="translate(45.690477 0)scale(0.996264)" xlink:href="#CMMI12-3a"/>
       <use transform="translate(72.787654 0)scale(0.996264)" xlink:href="#CMR17-30"/>
       <use transform="translate(118.478131 0)scale(0.996264)" xlink:href="#CMR17-30"/>
       <use transform="translate(164.168608 0)scale(0.996264)" xlink:href="#CMR17-30"/>
       <use transform="translate(209.859086 0)scale(0.996264)" xlink:href="#CMR17-30"/>
      </g>
     </g>
    </g>
    <g id="ytick_2">
     <g id="line2d_7">
      <g>
       <use style="stroke:#000000;stroke-width:0.8;" x="65.02234" xlink:href="#m6cfa754bf2" y="45.972322"/>
      </g>
     </g>
     <g id="text_7">
      <!-- $\mathdefault{0.0002}$ -->
      <g transform="translate(30.348255 49.431571)scale(0.1 -0.1)">
       <use transform="scale(0.996264)" xlink:href="#CMR17-30"/>
       <use transform="translate(45.690477 0)scale(0.996264)" xlink:href="#CMMI12-3a"/>
       <use transform="translate(72.787654 0)scale(0.996264)" xlink:href="#CMR17-30"/>
       <use transform="translate(118.478131 0)scale(0.996264)" xlink:href="#CMR17-30"/>
       <use transform="translate(164.168608 0)scale(0.996264)" xlink:href="#CMR17-30"/>
       <use transform="translate(209.859086 0)scale(0.996264)" xlink:href="#CMR17-32"/>
      </g>
     </g>
    </g>
    <g id="ytick_3">
     <g id="line2d_8">
      <g>
       <use style="stroke:#000000;stroke-width:0.8;" x="65.02234" xlink:href="#m6cfa754bf2" y="16.353524"/>
      </g>
     </g>
     <g id="text_8">
      <!-- $\mathdefault{0.0004}$ -->
      <g transform="translate(30.348255 19.812774)scale(0.1 -0.1)">
       <defs>
        <path d="M 2150 4147 
C 2150 4281 2144 4288 2029 4288 
L 128 1254 
L 128 1088 
L 1779 1088 
L 1779 460 
C 1779 230 1766 166 1318 166 
L 1197 166 
L 1197 0 
C 1402 12 1747 12 1965 12 
C 2182 12 2528 12 2733 0 
L 2733 166 
L 2611 166 
C 2163 166 2150 230 2150 460 
L 2150 1088 
L 2803 1088 
L 2803 1254 
L 2150 1254 
L 2150 4147 
z
M 1798 3723 
L 1798 1254 
L 256 1254 
L 1798 3723 
z
" id="CMR17-34" transform="scale(0.015625)"/>
       </defs>
       <use transform="scale(0.996264)" xlink:href="#CMR17-30"/>
       <use transform="translate(45.690477 0)scale(0.996264)" xlink:href="#CMMI12-3a"/>
       <use transform="translate(72.787654 0)scale(0.996264)" xlink:href="#CMR17-30"/>
       <use transform="translate(118.478131 0)scale(0.996264)" xlink:href="#CMR17-30"/>
       <use transform="translate(164.168608 0)scale(0.996264)" xlink:href="#CMR17-30"/>
       <use transform="translate(209.859086 0)scale(0.996264)" xlink:href="#CMR17-34"/>
      </g>
     </g>
    </g>
   </g>
   <g id="line2d_9">
    <path clip-path="url(#p8798397048)" d="M 72.545092 75.591119 
L 75.679571 13.885291 
L 78.814051 41.310104 
L 81.948531 52.622839 
L 85.083011 58.351888 
L 88.217491 61.797074 
L 91.35197 64.095321 
L 94.48645 65.737308 
L 97.62093 66.968923 
L 100.75541 67.926893 
L 103.88989 68.693289 
L 107.024369 69.32035 
L 110.158849 69.842906 
L 113.293329 70.285071 
L 116.427809 70.664072 
L 119.562289 70.99254 
L 122.696768 71.279949 
L 125.831248 71.533547 
L 128.965728 71.758967 
L 132.100208 71.960658 
L 135.234688 72.142181 
L 138.369168 72.306416 
L 141.503647 72.455721 
L 144.638127 72.592042 
L 147.772607 72.717003 
L 150.907087 72.831968 
L 154.041567 72.938089 
L 157.176046 73.036349 
L 160.310526 73.127591 
L 163.445006 73.21254 
L 166.579486 73.291826 
L 169.713966 73.365997 
L 172.848445 73.435532 
L 175.982925 73.500853 
L 179.117405 73.562331 
L 182.251885 73.620297 
L 185.386365 73.675042 
L 188.520844 73.726827 
L 191.655324 73.775888 
L 194.789804 73.822432 
L 197.924284 73.866649 
L 201.058764 73.908709 
L 204.193244 73.948767 
L 207.327723 73.986961 
L 210.462203 74.023419 
L 213.596683 74.058257 
L 216.731163 74.09158 
L 219.865643 74.123485 
L 223.000122 74.154061 
" style="fill:none;stroke:#000000;stroke-dasharray:5.55,2.4;stroke-dashoffset:0;stroke-width:1.5;"/>
   </g>
   <g id="patch_3">
    <path d="M 65.02234 78.67641 
L 65.02234 10.8 
" style="fill:none;stroke:#000000;stroke-linecap:square;stroke-linejoin:miter;stroke-width:0.8;"/>
   </g>
   <g id="patch_4">
    <path d="M 230.522874 78.67641 
L 230.522874 10.8 
" style="fill:none;stroke:#000000;stroke-linecap:square;stroke-linejoin:miter;stroke-width:0.8;"/>
   </g>
   <g id="patch_5">
    <path d="M 65.02234 78.67641 
L 230.522874 78.67641 
" style="fill:none;stroke:#000000;stroke-linecap:square;stroke-linejoin:miter;stroke-width:0.8;"/>
   </g>
   <g id="patch_6">
    <path d="M 65.02234 10.8 
L 230.522874 10.8 
" style="fill:none;stroke:#000000;stroke-linecap:square;stroke-linejoin:miter;stroke-width:0.8;"/>
   </g>
   <g id="legend_1">
    <g id="patch_7">
     <path d="M 170.045537 32.737178 
L 223.522874 32.737178 
Q 225.522874 32.737178 225.522874 30.737178 
L 225.522874 17.8 
Q 225.522874 15.8 223.522874 15.8 
L 170.045537 15.8 
Q 168.045537 15.8 168.045537 17.8 
L 168.045537 30.737178 
Q 168.045537 32.737178 170.045537 32.737178 
z
" style="fill:#ffffff;opacity:0.8;stroke:#cccccc;stroke-linejoin:miter;"/>
    </g>
    <g id="line2d_10">
     <path d="M 172.045537 23.3 
L 192.045537 23.3 
" style="fill:none;stroke:#000000;stroke-dasharray:5.55,2.4;stroke-dashoffset:0;stroke-width:1.5;"/>
    </g>
    <g id="line2d_11"/>
    <g id="text_9">
     <!-- $n=$0 -->
     <g transform="translate(200.045537 26.8)scale(0.1 -0.1)">
      <defs>
       <path d="M 1318 1870 
C 1331 1909 1491 2228 1728 2432 
C 1894 2585 2112 2687 2362 2687 
C 2618 2687 2707 2496 2707 2241 
C 2707 1877 2445 1149 2317 804 
C 2259 651 2227 568 2227 453 
C 2227 166 2426 -64 2733 -64 
C 3328 -64 3552 874 3552 913 
C 3552 945 3526 970 3488 970 
C 3430 970 3424 951 3392 842 
C 3245 319 3002 64 2752 64 
C 2688 64 2586 70 2586 274 
C 2586 434 2656 625 2694 715 
C 2822 1066 3091 1781 3091 2145 
C 3091 2528 2867 2816 2381 2816 
C 1811 2816 1510 2413 1395 2253 
C 1376 2617 1114 2816 832 2816 
C 627 2816 486 2694 378 2477 
C 262 2247 173 1864 173 1838 
C 173 1813 198 1781 243 1781 
C 294 1781 301 1787 339 1934 
C 442 2324 557 2687 813 2687 
C 960 2687 1011 2585 1011 2394 
C 1011 2253 947 2004 902 1807 
L 723 1117 
C 698 996 627 708 595 593 
C 550 427 480 127 480 95 
C 480 6 550 -64 646 -64 
C 723 -64 813 -26 864 70 
C 877 102 934 325 966 453 
L 1107 1028 
L 1318 1870 
z
" id="CMMI12-6e" transform="scale(0.015625)"/>
       <path d="M 4115 2048 
C 4211 2048 4307 2048 4307 2156 
C 4307 2272 4198 2272 4090 2272 
L 512 2272 
C 403 2272 294 2272 294 2156 
C 294 2048 390 2048 486 2048 
L 4115 2048 
z
M 4090 927 
C 4198 927 4307 927 4307 1043 
C 4307 1152 4211 1152 4115 1152 
L 486 1152 
C 390 1152 294 1152 294 1043 
C 294 927 403 927 512 927 
L 4090 927 
z
" id="CMR17-3d" transform="scale(0.015625)"/>
      </defs>
      <use transform="scale(0.996264)" xlink:href="#CMMI12-6e"/>
      <use transform="translate(85.904056 0)scale(0.996264)" xlink:href="#CMR17-3d"/>
      <use transform="translate(157.618844 0)scale(0.996264)" xlink:href="#CMR17-30"/>
     </g>
    </g>
   </g>
  </g>
  <g id="axes_2">
   <g id="patch_8">
    <path d="M 65.02234 146.55282 
L 230.522874 146.55282 
L 230.522874 78.67641 
L 65.02234 78.67641 
z
" style="fill:#ffffff;"/>
   </g>
   <g id="matplotlib.axis_3">
    <g id="xtick_6">
     <g id="line2d_12">
      <g>
       <use style="stroke:#000000;stroke-width:0.8;" x="72.545092" xlink:href="#m315e63c095" y="146.55282"/>
      </g>
     </g>
     <g id="text_10">
      <!-- $\mathdefault{0.00}$ -->
      <g transform="translate(63.689384 160.471319)scale(0.1 -0.1)">
       <use transform="scale(0.996264)" xlink:href="#CMR17-30"/>
       <use transform="translate(45.690477 0)scale(0.996264)" xlink:href="#CMMI12-3a"/>
       <use transform="translate(72.787654 0)scale(0.996264)" xlink:href="#CMR17-30"/>
       <use transform="translate(118.478131 0)scale(0.996264)" xlink:href="#CMR17-30"/>
      </g>
     </g>
    </g>
    <g id="xtick_7">
     <g id="line2d_13">
      <g>
       <use style="stroke:#000000;stroke-width:0.8;" x="110.158849" xlink:href="#m315e63c095" y="146.55282"/>
      </g>
     </g>
     <g id="text_11">
      <!-- $\mathdefault{0.25}$ -->
      <g transform="translate(101.303142 160.471319)scale(0.1 -0.1)">
       <use transform="scale(0.996264)" xlink:href="#CMR17-30"/>
       <use transform="translate(45.690477 0)scale(0.996264)" xlink:href="#CMMI12-3a"/>
       <use transform="translate(72.787654 0)scale(0.996264)" xlink:href="#CMR17-32"/>
       <use transform="translate(118.478131 0)scale(0.996264)" xlink:href="#CMR17-35"/>
      </g>
     </g>
    </g>
    <g id="xtick_8">
     <g id="line2d_14">
      <g>
       <use style="stroke:#000000;stroke-width:0.8;" x="147.772607" xlink:href="#m315e63c095" y="146.55282"/>
      </g>
     </g>
     <g id="text_12">
      <!-- $\mathdefault{0.50}$ -->
      <g transform="translate(138.9169 160.471319)scale(0.1 -0.1)">
       <use transform="scale(0.996264)" xlink:href="#CMR17-30"/>
       <use transform="translate(45.690477 0)scale(0.996264)" xlink:href="#CMMI12-3a"/>
       <use transform="translate(72.787654 0)scale(0.996264)" xlink:href="#CMR17-35"/>
       <use transform="translate(118.478131 0)scale(0.996264)" xlink:href="#CMR17-30"/>
      </g>
     </g>
    </g>
    <g id="xtick_9">
     <g id="line2d_15">
      <g>
       <use style="stroke:#000000;stroke-width:0.8;" x="185.386365" xlink:href="#m315e63c095" y="146.55282"/>
      </g>
     </g>
     <g id="text_13">
      <!-- $\mathdefault{0.75}$ -->
      <g transform="translate(176.530658 160.471319)scale(0.1 -0.1)">
       <use transform="scale(0.996264)" xlink:href="#CMR17-30"/>
       <use transform="translate(45.690477 0)scale(0.996264)" xlink:href="#CMMI12-3a"/>
       <use transform="translate(72.787654 0)scale(0.996264)" xlink:href="#CMR17-37"/>
       <use transform="translate(118.478131 0)scale(0.996264)" xlink:href="#CMR17-35"/>
      </g>
     </g>
    </g>
    <g id="xtick_10">
     <g id="line2d_16">
      <g>
       <use style="stroke:#000000;stroke-width:0.8;" x="223.000122" xlink:href="#m315e63c095" y="146.55282"/>
      </g>
     </g>
     <g id="text_14">
      <!-- $\mathdefault{1.00}$ -->
      <g transform="translate(214.144415 160.471319)scale(0.1 -0.1)">
       <use transform="scale(0.996264)" xlink:href="#CMR17-31"/>
       <use transform="translate(45.690477 0)scale(0.996264)" xlink:href="#CMMI12-3a"/>
       <use transform="translate(72.787654 0)scale(0.996264)" xlink:href="#CMR17-30"/>
       <use transform="translate(118.478131 0)scale(0.996264)" xlink:href="#CMR17-30"/>
      </g>
     </g>
    </g>
   </g>
   <g id="matplotlib.axis_4">
    <g id="ytick_4">
     <g id="line2d_17">
      <g>
       <use style="stroke:#000000;stroke-width:0.8;" x="65.02234" xlink:href="#m6cfa754bf2" y="142.354683"/>
      </g>
     </g>
     <g id="text_15">
      <!-- $\mathdefault{0.0000}$ -->
      <g transform="translate(30.348255 145.813932)scale(0.1 -0.1)">
       <use transform="scale(0.996264)" xlink:href="#CMR17-30"/>
       <use transform="translate(45.690477 0)scale(0.996264)" xlink:href="#CMMI12-3a"/>
       <use transform="translate(72.787654 0)scale(0.996264)" xlink:href="#CMR17-30"/>
       <use transform="translate(118.478131 0)scale(0.996264)" xlink:href="#CMR17-30"/>
       <use transform="translate(164.168608 0)scale(0.996264)" xlink:href="#CMR17-30"/>
       <use transform="translate(209.859086 0)scale(0.996264)" xlink:href="#CMR17-30"/>
      </g>
     </g>
    </g>
    <g id="ytick_5">
     <g id="line2d_18">
      <g>
       <use style="stroke:#000000;stroke-width:0.8;" x="65.02234" xlink:href="#m6cfa754bf2" y="113.266416"/>
      </g>
     </g>
     <g id="text_16">
      <!-- $\mathdefault{0.0002}$ -->
      <g transform="translate(30.348255 116.725665)scale(0.1 -0.1)">
       <use transform="scale(0.996264)" xlink:href="#CMR17-30"/>
       <use transform="translate(45.690477 0)scale(0.996264)" xlink:href="#CMMI12-3a"/>
       <use transform="translate(72.787654 0)scale(0.996264)" xlink:href="#CMR17-30"/>
       <use transform="translate(118.478131 0)scale(0.996264)" xlink:href="#CMR17-30"/>
       <use transform="translate(164.168608 0)scale(0.996264)" xlink:href="#CMR17-30"/>
       <use transform="translate(209.859086 0)scale(0.996264)" xlink:href="#CMR17-32"/>
      </g>
     </g>
    </g>
    <g id="ytick_6">
     <g id="line2d_19">
      <g>
       <use style="stroke:#000000;stroke-width:0.8;" x="65.02234" xlink:href="#m6cfa754bf2" y="84.178149"/>
      </g>
     </g>
     <g id="text_17">
      <!-- $\mathdefault{0.0004}$ -->
      <g transform="translate(30.348255 87.637398)scale(0.1 -0.1)">
       <use transform="scale(0.996264)" xlink:href="#CMR17-30"/>
       <use transform="translate(45.690477 0)scale(0.996264)" xlink:href="#CMMI12-3a"/>
       <use transform="translate(72.787654 0)scale(0.996264)" xlink:href="#CMR17-30"/>
       <use transform="translate(118.478131 0)scale(0.996264)" xlink:href="#CMR17-30"/>
       <use transform="translate(164.168608 0)scale(0.996264)" xlink:href="#CMR17-30"/>
       <use transform="translate(209.859086 0)scale(0.996264)" xlink:href="#CMR17-34"/>
      </g>
     </g>
    </g>
    <g id="text_18">
     <!-- Difference $\Delta=\theta_{\textrm{calc}}-\theta_{\textrm{exct}}$ -->
     <g transform="translate(22.861316 175.047127)rotate(-90)scale(0.1 -0.1)">
      <defs>
       <path d="M 333 4352 
L 333 4185 
C 774 4185 845 4185 845 3898 
L 845 453 
C 845 166 774 166 333 166 
L 333 0 
L 2368 0 
C 3398 0 4224 943 4224 2140 
C 4224 3344 3411 4352 2368 4352 
L 333 4352 
z
M 1523 166 
C 1267 166 1254 198 1254 414 
L 1254 3936 
C 1254 4153 1267 4185 1523 4185 
L 2240 4185 
C 2771 4185 3750 3873 3750 2140 
C 3750 1242 3488 879 3366 707 
C 3213 510 2848 166 2240 166 
L 1523 166 
z
" id="CMR17-44" transform="scale(0.015625)"/>
       <path d="M 992 3961 
C 992 4102 877 4224 730 4224 
C 589 4224 467 4108 467 3961 
C 467 3820 582 3699 730 3699 
C 870 3699 992 3814 992 3961 
z
M 243 2745 
L 243 2579 
C 602 2579 653 2540 653 2231 
L 653 443 
C 653 198 627 166 218 166 
L 218 0 
C 371 12 646 12 806 12 
C 960 12 1222 12 1370 0 
L 1370 166 
C 992 166 979 205 979 436 
L 979 2816 
L 243 2745 
z
" id="CMR17-69" transform="scale(0.015625)"/>
       <path d="M 2554 2585 
L 3283 2585 
L 3283 2752 
L 2541 2752 
L 2541 3520 
C 2541 4047 2810 4377 3085 4377 
C 3168 4377 3264 4352 3328 4307 
C 3277 4294 3142 4250 3142 4091 
C 3142 3926 3270 3875 3360 3875 
C 3450 3875 3578 3926 3578 4091 
C 3578 4333 3347 4480 3091 4480 
C 2842 4480 2637 4358 2477 4206 
C 2330 4415 2086 4480 1837 4480 
C 1338 4480 634 4193 634 3494 
L 634 2752 
L 122 2752 
L 122 2585 
L 634 2585 
L 634 441 
C 634 198 608 166 198 166 
L 198 0 
C 352 12 634 12 794 12 
C 960 12 1242 12 1395 0 
L 1395 166 
C 986 166 960 192 960 441 
L 960 2585 
L 2227 2585 
L 2227 441 
C 2227 198 2202 166 1792 166 
L 1792 0 
C 1946 12 2240 12 2406 12 
C 2592 12 2918 12 3091 0 
L 3091 166 
C 2630 166 2554 166 2554 454 
L 2554 2585 
z
M 947 2752 
L 947 3494 
C 947 4072 1395 4377 1824 4377 
C 1920 4377 2170 4358 2323 4218 
C 2208 4212 2099 4161 2099 4002 
C 2099 3837 2246 3793 2259 3793 
C 2227 3679 2227 3552 2227 3507 
L 2227 2752 
L 947 2752 
z
" id="CMR17-b" transform="scale(0.015625)"/>
       <path d="M 2438 1503 
C 2464 1529 2464 1542 2464 1606 
C 2464 2251 2118 2816 1389 2816 
C 710 2816 173 2175 173 1394 
C 173 554 781 -64 1459 -64 
C 2176 -64 2458 619 2458 755 
C 2458 800 2419 800 2406 800 
C 2362 800 2355 787 2330 709 
C 2189 270 1837 51 1504 51 
C 1229 51 954 206 781 490 
C 582 819 582 1200 582 1503 
L 2438 1503 
z
M 589 1600 
C 634 2511 1126 2713 1382 2713 
C 1818 2713 2112 2308 2118 1600 
L 589 1600 
z
" id="CMR17-65" transform="scale(0.015625)"/>
       <path d="M 960 1517 
C 960 2134 1222 2713 1702 2713 
C 1747 2713 1792 2707 1837 2687 
C 1837 2687 1696 2642 1696 2475 
C 1696 2321 1818 2257 1914 2257 
C 1990 2257 2131 2302 2131 2482 
C 2131 2687 1926 2816 1709 2816 
C 1222 2816 1011 2340 947 2115 
L 941 2115 
L 941 2816 
L 198 2745 
L 198 2578 
C 576 2578 634 2540 634 2231 
L 634 443 
C 634 198 608 166 198 166 
L 198 0 
C 352 12 646 12 813 12 
C 998 12 1325 12 1498 0 
L 1498 166 
C 1037 166 960 166 960 455 
L 960 1517 
z
" id="CMR17-72" transform="scale(0.015625)"/>
       <path d="M 2656 1954 
C 2656 2282 2592 2816 1837 2816 
C 1331 2816 1069 2424 973 2166 
L 966 2166 
L 966 2816 
L 211 2745 
L 211 2578 
C 589 2578 646 2540 646 2231 
L 646 443 
C 646 198 621 166 211 166 
L 211 0 
C 365 12 646 12 813 12 
C 979 12 1267 12 1421 0 
L 1421 166 
C 1011 166 986 192 986 443 
L 986 1678 
C 986 2269 1344 2713 1792 2713 
C 2266 2713 2317 2289 2317 1980 
L 2317 443 
C 2317 198 2291 166 1882 166 
L 1882 0 
C 2035 12 2317 12 2483 12 
C 2650 12 2938 12 3091 0 
L 3091 166 
C 2682 166 2656 192 2656 443 
L 2656 1954 
z
" id="CMR17-6e" transform="scale(0.015625)"/>
       <path d="M 2234 2240 
C 2112 2240 1933 2240 1933 2015 
C 1933 1836 2080 1785 2163 1785 
C 2208 1785 2394 1804 2394 2028 
C 2394 2476 1958 2816 1466 2816 
C 787 2816 211 2201 211 1379 
C 211 521 813 -64 1466 -64 
C 2259 -64 2458 676 2458 747 
C 2458 773 2451 792 2406 792 
C 2362 792 2355 786 2330 702 
C 2163 180 1798 51 1523 51 
C 1114 51 621 431 621 1385 
C 621 2358 1094 2700 1472 2700 
C 1722 2700 2093 2582 2234 2240 
z
" id="CMR17-63" transform="scale(0.015625)"/>
       <path d="M 2598 4435 
C 2547 4544 2522 4544 2470 4544 
C 2394 4544 2387 4531 2342 4441 
L 269 108 
C 262 96 237 38 237 32 
C 237 6 243 0 358 0 
L 4576 0 
C 4691 0 4698 6 4698 32 
C 4698 38 4672 96 4666 108 
L 2598 4435 
z
M 2310 4056 
L 4083 358 
L 531 358 
L 2310 4056 
z
" id="CMR17-1" transform="scale(0.015625)"/>
       <path d="M 2835 3200 
C 2835 3849 2630 4480 2106 4480 
C 1210 4480 256 2615 256 1215 
C 256 922 320 -64 992 -64 
C 1862 -64 2835 1755 2835 3200 
z
M 896 2304 
C 992 2679 1126 3213 1382 3665 
C 1594 4046 1818 4351 2099 4351 
C 2310 4351 2451 4173 2451 3563 
C 2451 3334 2432 3016 2246 2304 
L 896 2304 
z
M 2202 2112 
C 2042 1488 1907 1088 1677 687 
C 1491 362 1267 64 998 64 
C 800 64 640 216 640 846 
C 640 1259 742 1692 845 2112 
L 2202 2112 
z
" id="CMMI12-12" transform="scale(0.015625)"/>
       <path d="M 2304 1656 
C 2304 2048 2304 2275 2035 2534 
C 1798 2751 1523 2816 1306 2816 
C 800 2816 435 2408 435 1977 
C 435 1740 627 1728 666 1728 
C 749 1728 896 1779 896 1958 
C 896 2118 774 2188 666 2188 
C 640 2188 608 2182 589 2176 
C 723 2594 1069 2713 1293 2713 
C 1613 2713 1965 2421 1965 1875 
L 1965 1632 
C 1587 1619 1133 1568 774 1373 
C 371 1147 256 822 256 576 
C 256 77 832 -64 1171 -64 
C 1523 -64 1850 135 1990 505 
C 2003 219 2182 -39 2464 -39 
C 2598 -39 2938 51 2938 563 
L 2938 926 
L 2822 926 
L 2822 557 
C 2822 161 2650 109 2566 109 
C 2304 109 2304 446 2304 732 
L 2304 1656 
z
M 1965 887 
C 1965 323 1568 38 1216 38 
C 896 38 646 278 646 576 
C 646 771 730 1114 1101 1322 
C 1408 1497 1760 1523 1965 1536 
L 1965 887 
z
" id="CMR17-61" transform="scale(0.015625)"/>
       <path d="M 979 4416 
L 218 4345 
L 218 4179 
C 595 4179 653 4141 653 3835 
L 653 439 
C 653 198 627 166 218 166 
L 218 0 
C 371 12 653 12 813 12 
C 979 12 1261 12 1414 0 
L 1414 166 
C 1005 166 979 191 979 439 
L 979 4416 
z
" id="CMR17-6c" transform="scale(0.015625)"/>
       <path d="M 4218 1472 
C 4326 1472 4442 1472 4442 1600 
C 4442 1728 4326 1728 4218 1728 
L 755 1728 
C 646 1728 531 1728 531 1600 
C 531 1472 646 1472 755 1472 
L 4218 1472 
z
" id="CMSY10-0" transform="scale(0.015625)"/>
       <path d="M 1664 1491 
C 1856 1740 2074 2022 2253 2233 
C 2464 2476 2707 2579 2989 2585 
L 2989 2752 
C 2880 2745 2656 2739 2541 2739 
C 2368 2739 2170 2739 2022 2752 
L 2022 2585 
C 2112 2572 2163 2508 2163 2419 
C 2163 2304 2099 2233 2067 2188 
L 1594 1587 
L 1030 2323 
C 973 2393 973 2406 973 2438 
C 973 2515 1037 2579 1146 2585 
L 1146 2752 
C 992 2739 717 2739 557 2739 
C 384 2739 179 2739 38 2752 
L 38 2585 
C 384 2585 461 2560 614 2368 
L 1350 1414 
C 1363 1401 1395 1363 1395 1344 
C 1395 1318 838 633 768 544 
C 480 198 179 172 6 166 
L 6 0 
C 115 6 339 12 454 12 
C 582 12 864 12 979 0 
L 979 166 
C 941 172 838 185 838 332 
C 838 448 890 518 947 595 
L 1478 1248 
L 2035 524 
C 2086 454 2163 358 2163 313 
C 2163 224 2086 172 1984 166 
L 1984 0 
C 2138 12 2413 12 2573 12 
C 2746 12 2950 12 3091 0 
L 3091 166 
C 2771 166 2675 179 2522 377 
L 1664 1491 
z
" id="CMR17-78" transform="scale(0.015625)"/>
       <path d="M 966 2585 
L 1862 2585 
L 1862 2752 
L 966 2752 
L 966 3968 
L 851 3968 
C 838 3292 614 2700 70 2687 
L 70 2585 
L 627 2585 
L 627 778 
C 627 655 627 -64 1370 -64 
C 1747 -64 1965 308 1965 784 
L 1965 1151 
L 1850 1151 
L 1850 790 
C 1850 347 1677 51 1408 51 
C 1222 51 966 179 966 765 
L 966 2585 
z
" id="CMR17-74" transform="scale(0.015625)"/>
      </defs>
      <use transform="scale(0.996264)" xlink:href="#CMR17-44"/>
      <use transform="translate(70.393556 0)scale(0.996264)" xlink:href="#CMR17-69"/>
      <use transform="translate(95.264614 0)scale(0.996264)" xlink:href="#CMR17-b"/>
      <use transform="translate(147.609292 0)scale(0.996264)" xlink:href="#CMR17-65"/>
      <use transform="translate(188.094952 0)scale(0.996264)" xlink:href="#CMR17-72"/>
      <use transform="translate(223.37572 0)scale(0.996264)" xlink:href="#CMR17-65"/>
      <use transform="translate(263.86138 0)scale(0.996264)" xlink:href="#CMR17-6e"/>
      <use transform="translate(314.75675 0)scale(0.996264)" xlink:href="#CMR17-63"/>
      <use transform="translate(355.242411 0)scale(0.996264)" xlink:href="#CMR17-65"/>
      <use transform="translate(425.804037 0)scale(0.996264)" xlink:href="#CMR17-1"/>
      <use transform="translate(530.397636 0)scale(0.996264)" xlink:href="#CMR17-3d"/>
      <use transform="translate(629.786433 0)scale(0.996264)" xlink:href="#CMMI12-12"/>
      <use transform="translate(675.246223 -34.869286)scale(0.996264)" xlink:href="#CMR17-63"/>
      <use transform="translate(715.731884 -34.869286)scale(0.996264)" xlink:href="#CMR17-61"/>
      <use transform="translate(761.422361 -34.869286)scale(0.996264)" xlink:href="#CMR17-6c"/>
      <use transform="translate(786.293419 -34.869286)scale(0.996264)" xlink:href="#CMR17-63"/>
      <use transform="translate(849.416419 0)scale(0.996264)" xlink:href="#CMSY10-0"/>
      <use transform="translate(949.043093 0)scale(0.996264)" xlink:href="#CMMI12-12"/>
      <use transform="translate(994.502883 -26.953338)scale(0.996264)" xlink:href="#CMR17-65"/>
      <use transform="translate(1034.988544 -26.953338)scale(0.996264)" xlink:href="#CMR17-78"/>
      <use transform="translate(1083.28146 -26.953338)scale(0.996264)" xlink:href="#CMR17-63"/>
      <use transform="translate(1123.76712 -26.953338)scale(0.996264)" xlink:href="#CMR17-74"/>
     </g>
    </g>
   </g>
   <g id="line2d_20">
    <path clip-path="url(#p0ff9cbf22b)" d="M 72.545092 142.354683 
L 74.971786 81.761701 
L 77.39848 108.724717 
L 79.825174 119.885734 
L 82.251868 125.578886 
L 84.678562 129.035817 
L 87.105256 131.369585 
L 89.53195 133.060466 
L 91.958644 134.349075 
L 94.385338 135.369162 
L 96.812032 136.200967 
L 99.238726 136.895529 
L 101.66542 137.486846 
L 104.092114 137.998428 
L 106.518808 138.44704 
L 108.945502 138.844957 
L 111.372196 139.201362 
L 113.79889 139.523258 
L 116.225584 139.816074 
L 118.652278 140.084082 
L 121.078972 140.330684 
L 123.505666 140.558621 
L 125.932361 140.770125 
L 128.359055 140.96703 
L 130.785749 141.150853 
L 133.212443 141.322862 
L 135.639137 141.484124 
L 138.065831 141.63554 
L 140.492525 141.777877 
L 142.919219 141.911795 
L 145.345913 142.03786 
L 147.772607 142.156562 
L 150.199301 142.26833 
L 152.625995 142.373539 
L 155.052689 142.472519 
L 157.479383 142.565561 
L 159.906077 142.652928 
L 162.332771 142.734853 
L 164.759465 142.811546 
L 167.186159 142.8832 
L 169.612853 142.94999 
L 172.039547 143.012076 
L 174.466241 143.069608 
L 176.892935 143.122726 
L 179.31963 143.17156 
L 181.746324 143.216234 
L 184.173018 143.256867 
L 186.599712 143.29357 
L 189.026406 143.326454 
L 191.4531 143.355624 
L 193.879794 143.381183 
L 196.306488 143.403232 
L 198.733182 143.421871 
L 201.159876 143.437197 
L 203.58657 143.449307 
L 206.013264 143.4583 
L 208.439958 143.46427 
L 210.866652 143.467314 
L 213.293346 143.467529 
L 215.72004 143.46501 
L 218.146734 143.459855 
L 220.573428 143.45216 
L 223.000122 143.442023 
" style="fill:none;stroke:#000000;stroke-dasharray:1.5,2.475;stroke-dashoffset:0;stroke-width:1.5;"/>
   </g>
   <g id="patch_9">
    <path d="M 65.02234 146.55282 
L 65.02234 78.67641 
" style="fill:none;stroke:#000000;stroke-linecap:square;stroke-linejoin:miter;stroke-width:0.8;"/>
   </g>
   <g id="patch_10">
    <path d="M 230.522874 146.55282 
L 230.522874 78.67641 
" style="fill:none;stroke:#000000;stroke-linecap:square;stroke-linejoin:miter;stroke-width:0.8;"/>
   </g>
   <g id="patch_11">
    <path d="M 65.02234 146.55282 
L 230.522874 146.55282 
" style="fill:none;stroke:#000000;stroke-linecap:square;stroke-linejoin:miter;stroke-width:0.8;"/>
   </g>
   <g id="patch_12">
    <path d="M 65.02234 78.67641 
L 230.522874 78.67641 
" style="fill:none;stroke:#000000;stroke-linecap:square;stroke-linejoin:miter;stroke-width:0.8;"/>
   </g>
   <g id="legend_2">
    <g id="patch_13">
     <path d="M 170.045537 100.613588 
L 223.522874 100.613588 
Q 225.522874 100.613588 225.522874 98.613588 
L 225.522874 85.67641 
Q 225.522874 83.67641 223.522874 83.67641 
L 170.045537 83.67641 
Q 168.045537 83.67641 168.045537 85.67641 
L 168.045537 98.613588 
Q 168.045537 100.613588 170.045537 100.613588 
z
" style="fill:#ffffff;opacity:0.8;stroke:#cccccc;stroke-linejoin:miter;"/>
    </g>
    <g id="line2d_21">
     <path d="M 172.045537 91.17641 
L 192.045537 91.17641 
" style="fill:none;stroke:#000000;stroke-dasharray:1.5,2.475;stroke-dashoffset:0;stroke-width:1.5;"/>
    </g>
    <g id="line2d_22"/>
    <g id="text_19">
     <!-- $n=$1 -->
     <g transform="translate(200.045537 94.67641)scale(0.1 -0.1)">
      <use transform="scale(0.996264)" xlink:href="#CMMI12-6e"/>
      <use transform="translate(85.904056 0)scale(0.996264)" xlink:href="#CMR17-3d"/>
      <use transform="translate(157.618844 0)scale(0.996264)" xlink:href="#CMR17-31"/>
     </g>
    </g>
   </g>
  </g>
  <g id="axes_3">
   <g id="patch_14">
    <path d="M 65.02234 214.42923 
L 230.522874 214.42923 
L 230.522874 146.55282 
L 65.02234 146.55282 
z
" style="fill:#ffffff;"/>
   </g>
   <g id="matplotlib.axis_5">
    <g id="xtick_11">
     <g id="line2d_23">
      <g>
       <use style="stroke:#000000;stroke-width:0.8;" x="72.545092" xlink:href="#m315e63c095" y="214.42923"/>
      </g>
     </g>
     <g id="text_20">
      <!-- $\mathdefault{0.00}$ -->
      <g transform="translate(63.689384 228.347729)scale(0.1 -0.1)">
       <use transform="scale(0.996264)" xlink:href="#CMR17-30"/>
       <use transform="translate(45.690477 0)scale(0.996264)" xlink:href="#CMMI12-3a"/>
       <use transform="translate(72.787654 0)scale(0.996264)" xlink:href="#CMR17-30"/>
       <use transform="translate(118.478131 0)scale(0.996264)" xlink:href="#CMR17-30"/>
      </g>
     </g>
    </g>
    <g id="xtick_12">
     <g id="line2d_24">
      <g>
       <use style="stroke:#000000;stroke-width:0.8;" x="110.158849" xlink:href="#m315e63c095" y="214.42923"/>
      </g>
     </g>
     <g id="text_21">
      <!-- $\mathdefault{0.25}$ -->
      <g transform="translate(101.303142 228.347729)scale(0.1 -0.1)">
       <use transform="scale(0.996264)" xlink:href="#CMR17-30"/>
       <use transform="translate(45.690477 0)scale(0.996264)" xlink:href="#CMMI12-3a"/>
       <use transform="translate(72.787654 0)scale(0.996264)" xlink:href="#CMR17-32"/>
       <use transform="translate(118.478131 0)scale(0.996264)" xlink:href="#CMR17-35"/>
      </g>
     </g>
    </g>
    <g id="xtick_13">
     <g id="line2d_25">
      <g>
       <use style="stroke:#000000;stroke-width:0.8;" x="147.772607" xlink:href="#m315e63c095" y="214.42923"/>
      </g>
     </g>
     <g id="text_22">
      <!-- $\mathdefault{0.50}$ -->
      <g transform="translate(138.9169 228.347729)scale(0.1 -0.1)">
       <use transform="scale(0.996264)" xlink:href="#CMR17-30"/>
       <use transform="translate(45.690477 0)scale(0.996264)" xlink:href="#CMMI12-3a"/>
       <use transform="translate(72.787654 0)scale(0.996264)" xlink:href="#CMR17-35"/>
       <use transform="translate(118.478131 0)scale(0.996264)" xlink:href="#CMR17-30"/>
      </g>
     </g>
    </g>
    <g id="xtick_14">
     <g id="line2d_26">
      <g>
       <use style="stroke:#000000;stroke-width:0.8;" x="185.386365" xlink:href="#m315e63c095" y="214.42923"/>
      </g>
     </g>
     <g id="text_23">
      <!-- $\mathdefault{0.75}$ -->
      <g transform="translate(176.530658 228.347729)scale(0.1 -0.1)">
       <use transform="scale(0.996264)" xlink:href="#CMR17-30"/>
       <use transform="translate(45.690477 0)scale(0.996264)" xlink:href="#CMMI12-3a"/>
       <use transform="translate(72.787654 0)scale(0.996264)" xlink:href="#CMR17-37"/>
       <use transform="translate(118.478131 0)scale(0.996264)" xlink:href="#CMR17-35"/>
      </g>
     </g>
    </g>
    <g id="xtick_15">
     <g id="line2d_27">
      <g>
       <use style="stroke:#000000;stroke-width:0.8;" x="223.000122" xlink:href="#m315e63c095" y="214.42923"/>
      </g>
     </g>
     <g id="text_24">
      <!-- $\mathdefault{1.00}$ -->
      <g transform="translate(214.144415 228.347729)scale(0.1 -0.1)">
       <use transform="scale(0.996264)" xlink:href="#CMR17-31"/>
       <use transform="translate(45.690477 0)scale(0.996264)" xlink:href="#CMMI12-3a"/>
       <use transform="translate(72.787654 0)scale(0.996264)" xlink:href="#CMR17-30"/>
       <use transform="translate(118.478131 0)scale(0.996264)" xlink:href="#CMR17-30"/>
      </g>
     </g>
    </g>
    <g id="text_25">
     <!-- Radial Coordinate $\xi/\xi_0$ -->
     <g transform="translate(96.975996 241.756887)scale(0.1 -0.1)">
      <defs>
       <path d="M 2509 2156 
C 3117 2278 3629 2689 3629 3203 
C 3629 3806 2950 4352 2054 4352 
L 333 4352 
L 333 4185 
C 774 4185 845 4185 845 3896 
L 845 428 
C 845 140 774 140 333 140 
L 333 -26 
C 518 -13 851 -13 1050 -13 
C 1248 -13 1581 -13 1766 -26 
L 1766 140 
C 1325 140 1254 140 1254 428 
L 1254 2112 
L 2003 2112 
C 2368 2112 2573 1964 2662 1881 
C 2918 1632 2918 1459 2918 1024 
C 2918 595 2918 377 3110 160 
C 3354 -103 3680 -128 3821 -128 
C 4294 -128 4365 403 4365 512 
C 4365 550 4365 595 4307 595 
C 4256 595 4250 556 4250 531 
C 4218 115 4032 -26 3834 -26 
C 3482 -26 3443 377 3405 768 
C 3386 902 3373 998 3360 1139 
C 3322 1459 3270 1926 2509 2156 
z
M 1984 2214 
L 1254 2214 
L 1254 3935 
C 1254 4153 1267 4185 1523 4185 
L 1990 4185 
C 2522 4185 3142 3999 3142 3203 
C 3142 2374 2464 2214 1984 2214 
z
" id="CMR17-52" transform="scale(0.015625)"/>
       <path d="M 1869 4345 
L 1869 4179 
C 2246 4179 2304 4141 2304 3843 
L 2304 2371 
C 2278 2403 2016 2816 1498 2816 
C 845 2816 211 2228 211 1376 
C 211 529 806 -64 1434 -64 
C 1978 -64 2259 361 2291 406 
L 2291 -64 
L 3066 -13 
L 3066 154 
C 2688 154 2630 193 2630 503 
L 2630 4416 
L 1869 4345 
z
M 2291 762 
C 2291 568 2176 393 2029 264 
C 1811 70 1594 38 1472 38 
C 1286 38 621 135 621 1369 
C 621 2636 1363 2713 1530 2713 
C 1824 2713 2061 2545 2208 2313 
C 2291 2177 2291 2157 2291 2041 
L 2291 762 
z
" id="CMR17-64" transform="scale(0.015625)"/>
       <path d="M 3974 4351 
C 3974 4467 3968 4473 3930 4473 
C 3904 4473 3898 4467 3853 4390 
L 3571 3849 
C 3258 4249 2874 4480 2381 4480 
C 1286 4480 294 3507 294 2179 
C 294 837 1286 -128 2387 -128 
C 3366 -128 3974 741 3974 1482 
C 3974 1547 3974 1573 3917 1573 
C 3866 1573 3866 1553 3859 1495 
C 3808 592 3168 38 2477 38 
C 1824 38 781 502 781 2179 
C 781 3862 1843 4313 2464 4313 
C 3187 4313 3712 3681 3834 2785 
C 3846 2707 3846 2695 3904 2695 
C 3974 2695 3974 2707 3974 2824 
L 3974 4351 
z
" id="CMR17-43" transform="scale(0.015625)"/>
       <path d="M 2758 1356 
C 2758 2176 2163 2816 1466 2816 
C 768 2816 173 2176 173 1356 
C 173 550 768 -64 1466 -64 
C 2163 -64 2758 550 2758 1356 
z
M 1466 51 
C 1165 51 909 230 762 480 
C 602 768 582 1126 582 1408 
C 582 1676 595 2009 762 2297 
C 890 2508 1139 2713 1466 2713 
C 1754 2713 1997 2553 2150 2329 
C 2349 2028 2349 1606 2349 1408 
C 2349 1158 2336 774 2163 467 
C 1984 172 1709 51 1466 51 
z
" id="CMR17-6f" transform="scale(0.015625)"/>
       <path d="M 1670 0 
L 998 271 
C 832 335 448 490 448 876 
C 448 1430 1120 1990 1254 1990 
C 1267 1990 1325 1977 1344 1971 
C 1517 1919 1683 1919 1798 1919 
C 1997 1919 2374 1919 2374 2089 
C 2374 2220 2144 2240 1869 2240 
C 1741 2240 1568 2240 1338 2163 
C 1184 2291 1120 2497 1120 2690 
C 1120 3043 1350 3545 1856 3780 
C 1971 3648 2125 3648 2259 3648 
C 2419 3648 2810 3648 2810 3817 
C 2810 3968 2502 3968 2298 3968 
C 2170 3968 2074 3968 1894 3936 
C 1862 4016 1856 4029 1856 4180 
C 1856 4303 1882 4396 1882 4415 
C 1882 4454 1850 4480 1818 4480 
C 1715 4480 1715 4235 1715 4180 
C 1715 4084 1722 3988 1760 3904 
C 992 3705 653 3159 653 2741 
C 653 2355 909 2144 1082 2066 
C 422 1713 141 1057 141 709 
C 141 148 646 -51 877 -148 
L 1453 -380 
C 1613 -438 1875 -547 1920 -573 
C 1984 -618 2035 -695 2035 -798 
C 2035 -934 1933 -1152 1709 -1152 
C 1613 -1152 1402 -1127 1171 -953 
C 1126 -914 1120 -908 1094 -908 
C 1062 -908 1030 -934 1030 -972 
C 1030 -1043 1363 -1280 1709 -1280 
C 2118 -1280 2368 -882 2368 -605 
C 2368 -405 2259 -244 2054 -154 
L 1670 0 
z
M 1997 3817 
C 2106 3840 2221 3840 2304 3840 
C 2515 3840 2534 3835 2662 3812 
C 2586 3789 2534 3776 2266 3776 
C 2144 3776 2067 3776 1997 3817 
z
M 1491 2084 
C 1645 2112 1786 2112 1862 2112 
C 2074 2112 2086 2107 2227 2084 
C 2157 2061 2099 2048 1824 2048 
C 1670 2048 1606 2048 1491 2084 
z
" id="CMMI12-18" transform="scale(0.015625)"/>
       <path d="M 2746 4563 
C 2746 4569 2784 4665 2784 4678 
C 2784 4755 2720 4800 2669 4800 
C 2637 4800 2579 4800 2528 4659 
L 384 -1364 
C 384 -1370 346 -1466 346 -1479 
C 346 -1556 410 -1600 461 -1600 
C 499 -1600 557 -1594 602 -1460 
L 2746 4563 
z
" id="CMMI12-3d" transform="scale(0.015625)"/>
      </defs>
      <use transform="scale(0.996264)" xlink:href="#CMR17-52"/>
      <use transform="translate(67.791102 0)scale(0.996264)" xlink:href="#CMR17-61"/>
      <use transform="translate(113.481579 0)scale(0.996264)" xlink:href="#CMR17-64"/>
      <use transform="translate(164.376949 0)scale(0.996264)" xlink:href="#CMR17-69"/>
      <use transform="translate(189.248007 0)scale(0.996264)" xlink:href="#CMR17-61"/>
      <use transform="translate(234.938484 0)scale(0.996264)" xlink:href="#CMR17-6c"/>
      <use transform="translate(289.885509 0)scale(0.996264)" xlink:href="#CMR17-43"/>
      <use transform="translate(356.39539 0)scale(0.996264)" xlink:href="#CMR17-6f"/>
      <use transform="translate(404.688306 0)scale(0.996264)" xlink:href="#CMR17-6f"/>
      <use transform="translate(450.378783 0)scale(0.996264)" xlink:href="#CMR17-72"/>
      <use transform="translate(485.659551 0)scale(0.996264)" xlink:href="#CMR17-64"/>
      <use transform="translate(536.55492 0)scale(0.996264)" xlink:href="#CMR17-69"/>
      <use transform="translate(561.425979 0)scale(0.996264)" xlink:href="#CMR17-6e"/>
      <use transform="translate(612.321349 0)scale(0.996264)" xlink:href="#CMR17-61"/>
      <use transform="translate(658.011826 0)scale(0.996264)" xlink:href="#CMR17-74"/>
      <use transform="translate(693.292594 0)scale(0.996264)" xlink:href="#CMR17-65"/>
      <use transform="translate(763.85422 0)scale(0.996264)" xlink:href="#CMMI12-18"/>
      <use transform="translate(811.274554 0)scale(0.996264)" xlink:href="#CMMI12-3d"/>
      <use transform="translate(860.049473 0)scale(0.996264)" xlink:href="#CMMI12-18"/>
      <use transform="translate(902.655508 -14.943915)scale(0.697382)" xlink:href="#CMR17-30"/>
     </g>
    </g>
   </g>
   <g id="matplotlib.axis_6">
    <g id="ytick_7">
     <g id="line2d_28">
      <g>
       <use style="stroke:#000000;stroke-width:0.8;" x="65.02234" xlink:href="#m6cfa754bf2" y="208.67418"/>
      </g>
     </g>
     <g id="text_26">
      <!-- $\mathdefault{0.0000}$ -->
      <g transform="translate(30.348255 212.133429)scale(0.1 -0.1)">
       <use transform="scale(0.996264)" xlink:href="#CMR17-30"/>
       <use transform="translate(45.690477 0)scale(0.996264)" xlink:href="#CMMI12-3a"/>
       <use transform="translate(72.787654 0)scale(0.996264)" xlink:href="#CMR17-30"/>
       <use transform="translate(118.478131 0)scale(0.996264)" xlink:href="#CMR17-30"/>
       <use transform="translate(164.168608 0)scale(0.996264)" xlink:href="#CMR17-30"/>
       <use transform="translate(209.859086 0)scale(0.996264)" xlink:href="#CMR17-30"/>
      </g>
     </g>
    </g>
    <g id="ytick_8">
     <g id="line2d_29">
      <g>
       <use style="stroke:#000000;stroke-width:0.8;" x="65.02234" xlink:href="#m6cfa754bf2" y="180.319158"/>
      </g>
     </g>
     <g id="text_27">
      <!-- $\mathdefault{0.0002}$ -->
      <g transform="translate(30.348255 183.778407)scale(0.1 -0.1)">
       <use transform="scale(0.996264)" xlink:href="#CMR17-30"/>
       <use transform="translate(45.690477 0)scale(0.996264)" xlink:href="#CMMI12-3a"/>
       <use transform="translate(72.787654 0)scale(0.996264)" xlink:href="#CMR17-30"/>
       <use transform="translate(118.478131 0)scale(0.996264)" xlink:href="#CMR17-30"/>
       <use transform="translate(164.168608 0)scale(0.996264)" xlink:href="#CMR17-30"/>
       <use transform="translate(209.859086 0)scale(0.996264)" xlink:href="#CMR17-32"/>
      </g>
     </g>
    </g>
    <g id="ytick_9">
     <g id="line2d_30">
      <g>
       <use style="stroke:#000000;stroke-width:0.8;" x="65.02234" xlink:href="#m6cfa754bf2" y="151.964135"/>
      </g>
     </g>
     <g id="text_28">
      <!-- $\mathdefault{0.0004}$ -->
      <g transform="translate(30.348255 155.423384)scale(0.1 -0.1)">
       <use transform="scale(0.996264)" xlink:href="#CMR17-30"/>
       <use transform="translate(45.690477 0)scale(0.996264)" xlink:href="#CMMI12-3a"/>
       <use transform="translate(72.787654 0)scale(0.996264)" xlink:href="#CMR17-30"/>
       <use transform="translate(118.478131 0)scale(0.996264)" xlink:href="#CMR17-30"/>
       <use transform="translate(164.168608 0)scale(0.996264)" xlink:href="#CMR17-30"/>
       <use transform="translate(209.859086 0)scale(0.996264)" xlink:href="#CMR17-34"/>
      </g>
     </g>
    </g>
   </g>
   <g id="line2d_31">
    <path clip-path="url(#p0bde692474)" d="M 72.545092 208.67418 
L 72.620281 149.638112 
L 72.695471 176.035576 
L 72.921041 196.55508 
L 73.221801 203.779832 
L 73.59775 207.737517 
L 73.9737 209.782242 
L 74.34965 210.825863 
L 74.725599 211.263852 
L 75.101549 211.338257 
L 75.552688 211.165015 
L 76.454967 210.506953 
L 78.033956 209.402252 
L 79.387374 208.74762 
L 80.966363 208.242144 
L 82.99649 207.836789 
L 85.853707 207.508984 
L 90.214723 207.252438 
L 97.733715 207.059889 
L 113.147649 206.926594 
L 155.028434 206.846232 
L 223.000122 206.820103 
L 223.000122 206.820103 
" style="fill:none;stroke:#000000;stroke-dasharray:9.6,2.4,1.5,2.4;stroke-dashoffset:0;stroke-width:1.5;"/>
   </g>
   <g id="patch_15">
    <path d="M 65.02234 214.42923 
L 65.02234 146.55282 
" style="fill:none;stroke:#000000;stroke-linecap:square;stroke-linejoin:miter;stroke-width:0.8;"/>
   </g>
   <g id="patch_16">
    <path d="M 230.522874 214.42923 
L 230.522874 146.55282 
" style="fill:none;stroke:#000000;stroke-linecap:square;stroke-linejoin:miter;stroke-width:0.8;"/>
   </g>
   <g id="patch_17">
    <path d="M 65.02234 214.42923 
L 230.522874 214.42923 
" style="fill:none;stroke:#000000;stroke-linecap:square;stroke-linejoin:miter;stroke-width:0.8;"/>
   </g>
   <g id="patch_18">
    <path d="M 65.02234 146.55282 
L 230.522874 146.55282 
" style="fill:none;stroke:#000000;stroke-linecap:square;stroke-linejoin:miter;stroke-width:0.8;"/>
   </g>
   <g id="legend_3">
    <g id="patch_19">
     <path d="M 170.045537 168.489998 
L 223.522874 168.489998 
Q 225.522874 168.489998 225.522874 166.489998 
L 225.522874 153.55282 
Q 225.522874 151.55282 223.522874 151.55282 
L 170.045537 151.55282 
Q 168.045537 151.55282 168.045537 153.55282 
L 168.045537 166.489998 
Q 168.045537 168.489998 170.045537 168.489998 
z
" style="fill:#ffffff;opacity:0.8;stroke:#cccccc;stroke-linejoin:miter;"/>
    </g>
    <g id="line2d_32">
     <path d="M 172.045537 159.05282 
L 192.045537 159.05282 
" style="fill:none;stroke:#000000;stroke-dasharray:9.6,2.4,1.5,2.4;stroke-dashoffset:0;stroke-width:1.5;"/>
    </g>
    <g id="line2d_33"/>
    <g id="text_29">
     <!-- $n=$5 -->
     <g transform="translate(200.045537 162.55282)scale(0.1 -0.1)">
      <use transform="scale(0.996264)" xlink:href="#CMMI12-6e"/>
      <use transform="translate(85.904056 0)scale(0.996264)" xlink:href="#CMR17-3d"/>
      <use transform="translate(157.618844 0)scale(0.996264)" xlink:href="#CMR17-35"/>
     </g>
    </g>
   </g>
  </g>
  <g id="axes_4">
   <g id="patch_20">
    <path d="M 275.616174 78.67641 
L 441.116707 78.67641 
L 441.116707 10.8 
L 275.616174 10.8 
z
" style="fill:#ffffff;"/>
   </g>
   <g id="matplotlib.axis_7"/>
   <g id="matplotlib.axis_8">
    <g id="ytick_10">
     <g id="line2d_34">
      <g>
       <use style="stroke:#000000;stroke-width:0.8;" x="275.616174" xlink:href="#m6cfa754bf2" y="75.593038"/>
      </g>
     </g>
     <g id="text_30">
      <!-- $\mathdefault{0.00}$ -->
      <g transform="translate(250.904759 79.052287)scale(0.1 -0.1)">
       <use transform="scale(0.996264)" xlink:href="#CMR17-30"/>
       <use transform="translate(45.690477 0)scale(0.996264)" xlink:href="#CMMI12-3a"/>
       <use transform="translate(72.787654 0)scale(0.996264)" xlink:href="#CMR17-30"/>
       <use transform="translate(118.478131 0)scale(0.996264)" xlink:href="#CMR17-30"/>
      </g>
     </g>
    </g>
    <g id="ytick_11">
     <g id="line2d_35">
      <g>
       <use style="stroke:#000000;stroke-width:0.8;" x="275.616174" xlink:href="#m6cfa754bf2" y="52.563393"/>
      </g>
     </g>
     <g id="text_31">
      <!-- $\mathdefault{0.05}$ -->
      <g transform="translate(250.904759 56.022643)scale(0.1 -0.1)">
       <use transform="scale(0.996264)" xlink:href="#CMR17-30"/>
       <use transform="translate(45.690477 0)scale(0.996264)" xlink:href="#CMMI12-3a"/>
       <use transform="translate(72.787654 0)scale(0.996264)" xlink:href="#CMR17-30"/>
       <use transform="translate(118.478131 0)scale(0.996264)" xlink:href="#CMR17-35"/>
      </g>
     </g>
    </g>
    <g id="ytick_12">
     <g id="line2d_36">
      <g>
       <use style="stroke:#000000;stroke-width:0.8;" x="275.616174" xlink:href="#m6cfa754bf2" y="29.533749"/>
      </g>
     </g>
     <g id="text_32">
      <!-- $\mathdefault{0.10}$ -->
      <g transform="translate(250.904759 32.992998)scale(0.1 -0.1)">
       <use transform="scale(0.996264)" xlink:href="#CMR17-30"/>
       <use transform="translate(45.690477 0)scale(0.996264)" xlink:href="#CMMI12-3a"/>
       <use transform="translate(72.787654 0)scale(0.996264)" xlink:href="#CMR17-31"/>
       <use transform="translate(118.478131 0)scale(0.996264)" xlink:href="#CMR17-30"/>
      </g>
     </g>
    </g>
   </g>
   <g id="line2d_37">
    <path clip-path="url(#pc6d6b41bf9)" d="M 433.593956 13.885291 
L 430.523445 15.90492 
L 427.452934 17.913157 
L 424.382423 19.908861 
L 421.311913 21.890865 
L 418.241402 23.857975 
L 415.170891 25.808969 
L 412.10038 27.742598 
L 409.029869 29.657592 
L 405.959358 31.552654 
L 402.888848 33.426467 
L 399.818337 35.277693 
L 396.747826 37.104975 
L 393.677315 38.906939 
L 390.606804 40.682196 
L 387.536293 42.429343 
L 384.465783 44.146966 
L 381.395272 45.833642 
L 378.324761 47.487944 
L 375.25425 49.108437 
L 372.183739 50.693689 
L 369.113228 52.242268 
L 366.042718 53.752745 
L 362.972207 55.223701 
L 359.901696 56.653727 
L 356.831185 58.041427 
L 353.760674 59.385424 
L 350.690163 60.68436 
L 347.619653 61.936901 
L 344.549142 63.14174 
L 341.478631 64.297602 
L 338.40812 65.403245 
L 335.337609 66.457465 
L 332.267098 67.459098 
L 329.196588 68.407027 
L 326.126077 69.300179 
L 323.055566 70.137534 
L 319.985055 70.918126 
L 316.914544 71.641043 
L 313.844033 72.305438 
L 310.773523 72.910521 
L 307.703012 73.45557 
L 304.632501 73.939929 
L 301.56199 74.363014 
L 298.491479 74.724308 
L 295.420968 75.023371 
L 292.350458 75.259836 
L 289.279947 75.433412 
L 286.209436 75.543885 
L 283.138925 75.591119 
" style="fill:none;stroke:#000000;stroke-dasharray:5.55,2.4;stroke-dashoffset:0;stroke-width:1.5;"/>
   </g>
   <g id="patch_21">
    <path d="M 275.616174 78.67641 
L 275.616174 10.8 
" style="fill:none;stroke:#000000;stroke-linecap:square;stroke-linejoin:miter;stroke-width:0.8;"/>
   </g>
   <g id="patch_22">
    <path d="M 441.116707 78.67641 
L 441.116707 10.8 
" style="fill:none;stroke:#000000;stroke-linecap:square;stroke-linejoin:miter;stroke-width:0.8;"/>
   </g>
   <g id="patch_23">
    <path d="M 275.616174 78.67641 
L 441.116707 78.67641 
" style="fill:none;stroke:#000000;stroke-linecap:square;stroke-linejoin:miter;stroke-width:0.8;"/>
   </g>
   <g id="patch_24">
    <path d="M 275.616174 10.8 
L 441.116707 10.8 
" style="fill:none;stroke:#000000;stroke-linecap:square;stroke-linejoin:miter;stroke-width:0.8;"/>
   </g>
   <g id="legend_4">
    <g id="patch_25">
     <path d="M 282.616174 32.737178 
L 336.09351 32.737178 
Q 338.09351 32.737178 338.09351 30.737178 
L 338.09351 17.8 
Q 338.09351 15.8 336.09351 15.8 
L 282.616174 15.8 
Q 280.616174 15.8 280.616174 17.8 
L 280.616174 30.737178 
Q 280.616174 32.737178 282.616174 32.737178 
z
" style="fill:#ffffff;opacity:0.8;stroke:#cccccc;stroke-linejoin:miter;"/>
    </g>
    <g id="line2d_38">
     <path d="M 284.616174 23.3 
L 304.616174 23.3 
" style="fill:none;stroke:#000000;stroke-dasharray:5.55,2.4;stroke-dashoffset:0;stroke-width:1.5;"/>
    </g>
    <g id="line2d_39"/>
    <g id="text_33">
     <!-- $n=$0 -->
     <g transform="translate(312.616174 26.8)scale(0.1 -0.1)">
      <use transform="scale(0.996264)" xlink:href="#CMMI12-6e"/>
      <use transform="translate(85.904056 0)scale(0.996264)" xlink:href="#CMR17-3d"/>
      <use transform="translate(157.618844 0)scale(0.996264)" xlink:href="#CMR17-30"/>
     </g>
    </g>
   </g>
  </g>
  <g id="axes_5">
   <g id="patch_26">
    <path d="M 275.616174 146.55282 
L 441.116707 146.55282 
L 441.116707 78.67641 
L 275.616174 78.67641 
z
" style="fill:#ffffff;"/>
   </g>
   <g id="matplotlib.axis_9"/>
   <g id="matplotlib.axis_10">
    <g id="ytick_13">
     <g id="line2d_40">
      <g>
       <use style="stroke:#000000;stroke-width:0.8;" x="275.616174" xlink:href="#m6cfa754bf2" y="143.469448"/>
      </g>
     </g>
     <g id="text_34">
      <!-- $\mathdefault{0.00}$ -->
      <g transform="translate(250.904759 146.928697)scale(0.1 -0.1)">
       <use transform="scale(0.996264)" xlink:href="#CMR17-30"/>
       <use transform="translate(45.690477 0)scale(0.996264)" xlink:href="#CMMI12-3a"/>
       <use transform="translate(72.787654 0)scale(0.996264)" xlink:href="#CMR17-30"/>
       <use transform="translate(118.478131 0)scale(0.996264)" xlink:href="#CMR17-30"/>
      </g>
     </g>
    </g>
    <g id="ytick_14">
     <g id="line2d_41">
      <g>
       <use style="stroke:#000000;stroke-width:0.8;" x="275.616174" xlink:href="#m6cfa754bf2" y="120.439803"/>
      </g>
     </g>
     <g id="text_35">
      <!-- $\mathdefault{0.05}$ -->
      <g transform="translate(250.904759 123.899053)scale(0.1 -0.1)">
       <use transform="scale(0.996264)" xlink:href="#CMR17-30"/>
       <use transform="translate(45.690477 0)scale(0.996264)" xlink:href="#CMMI12-3a"/>
       <use transform="translate(72.787654 0)scale(0.996264)" xlink:href="#CMR17-30"/>
       <use transform="translate(118.478131 0)scale(0.996264)" xlink:href="#CMR17-35"/>
      </g>
     </g>
    </g>
    <g id="ytick_15">
     <g id="line2d_42">
      <g>
       <use style="stroke:#000000;stroke-width:0.8;" x="275.616174" xlink:href="#m6cfa754bf2" y="97.410159"/>
      </g>
     </g>
     <g id="text_36">
      <!-- $\mathdefault{0.10}$ -->
      <g transform="translate(250.904759 100.869408)scale(0.1 -0.1)">
       <use transform="scale(0.996264)" xlink:href="#CMR17-30"/>
       <use transform="translate(45.690477 0)scale(0.996264)" xlink:href="#CMMI12-3a"/>
       <use transform="translate(72.787654 0)scale(0.996264)" xlink:href="#CMR17-31"/>
       <use transform="translate(118.478131 0)scale(0.996264)" xlink:href="#CMR17-30"/>
      </g>
     </g>
    </g>
    <g id="text_37">
     <!-- Maximum Difference $\Delta_{\textrm{max}}$ -->
     <g transform="translate(244.967581 173.027091)rotate(-90)scale(0.1 -0.1)">
      <defs>
       <path d="M 1338 4249 
C 1299 4345 1293 4352 1158 4352 
L 339 4352 
L 339 4185 
C 781 4185 851 4185 851 3898 
L 851 624 
C 851 465 851 166 339 166 
L 339 0 
C 486 12 755 12 915 12 
C 1075 12 1344 12 1491 0 
L 1491 166 
C 979 166 979 465 979 624 
L 979 4159 
L 986 4159 
L 2490 102 
C 2515 38 2528 0 2579 0 
C 2630 0 2643 38 2669 102 
L 4186 4191 
L 4192 4191 
L 4192 453 
C 4192 166 4122 166 3680 166 
L 3680 0 
C 3853 12 4198 12 4384 12 
C 4570 12 4922 12 5094 0 
L 5094 166 
C 4653 166 4582 166 4582 453 
L 4582 3898 
C 4582 4185 4653 4185 5094 4185 
L 5094 4352 
L 4282 4352 
C 4147 4352 4141 4345 4102 4249 
L 2720 516 
L 1338 4249 
z
" id="CMR17-4d" transform="scale(0.015625)"/>
       <path d="M 4326 1954 
C 4326 2276 4269 2816 3507 2816 
C 3072 2816 2771 2520 2656 2173 
L 2650 2173 
C 2573 2700 2195 2816 1837 2816 
C 1331 2816 1069 2424 973 2166 
L 966 2166 
L 966 2816 
L 211 2745 
L 211 2578 
C 589 2578 646 2540 646 2231 
L 646 443 
C 646 198 621 166 211 166 
L 211 0 
C 365 12 646 12 813 12 
C 979 12 1267 12 1421 0 
L 1421 166 
C 1011 166 986 192 986 443 
L 986 1678 
C 986 2269 1344 2713 1792 2713 
C 2266 2713 2317 2289 2317 1980 
L 2317 443 
C 2317 198 2291 166 1882 166 
L 1882 0 
C 2035 12 2317 12 2483 12 
C 2650 12 2938 12 3091 0 
L 3091 166 
C 2682 166 2656 192 2656 443 
L 2656 1678 
C 2656 2269 3014 2713 3462 2713 
C 3936 2713 3987 2289 3987 1980 
L 3987 443 
C 3987 198 3962 166 3552 166 
L 3552 0 
C 3706 12 3987 12 4154 12 
C 4320 12 4608 12 4762 0 
L 4762 166 
C 4352 166 4326 192 4326 443 
L 4326 1954 
z
" id="CMR17-6d" transform="scale(0.015625)"/>
       <path d="M 1882 2745 
L 1882 2579 
C 2259 2579 2317 2540 2317 2229 
L 2317 1053 
C 2317 510 2029 38 1555 38 
C 1030 38 986 355 986 691 
L 986 2816 
L 211 2745 
L 211 2579 
C 467 2579 640 2579 646 2320 
L 646 1079 
C 646 646 646 368 813 187 
C 896 103 1056 -64 1517 -64 
C 2061 -64 2272 400 2323 536 
L 2330 536 
L 2330 -64 
L 3091 -13 
L 3091 154 
C 2714 154 2656 193 2656 503 
L 2656 2816 
L 1882 2745 
z
" id="CMR17-75" transform="scale(0.015625)"/>
      </defs>
      <use transform="scale(0.996264)" xlink:href="#CMR17-4d"/>
      <use transform="translate(84.686941 0)scale(0.996264)" xlink:href="#CMR17-61"/>
      <use transform="translate(130.377418 0)scale(0.996264)" xlink:href="#CMR17-78"/>
      <use transform="translate(178.670334 0)scale(0.996264)" xlink:href="#CMR17-69"/>
      <use transform="translate(203.541392 0)scale(0.996264)" xlink:href="#CMR17-6d"/>
      <use transform="translate(277.858528 0)scale(0.996264)" xlink:href="#CMR17-75"/>
      <use transform="translate(328.753898 0)scale(0.996264)" xlink:href="#CMR17-6d"/>
      <use transform="translate(435.749454 0)scale(0.996264)" xlink:href="#CMR17-44"/>
      <use transform="translate(506.14301 0)scale(0.996264)" xlink:href="#CMR17-69"/>
      <use transform="translate(531.014068 0)scale(0.996264)" xlink:href="#CMR17-b"/>
      <use transform="translate(583.358746 0)scale(0.996264)" xlink:href="#CMR17-65"/>
      <use transform="translate(623.844406 0)scale(0.996264)" xlink:href="#CMR17-72"/>
      <use transform="translate(659.125174 0)scale(0.996264)" xlink:href="#CMR17-65"/>
      <use transform="translate(699.610834 0)scale(0.996264)" xlink:href="#CMR17-6e"/>
      <use transform="translate(750.506204 0)scale(0.996264)" xlink:href="#CMR17-63"/>
      <use transform="translate(790.991865 0)scale(0.996264)" xlink:href="#CMR17-65"/>
      <use transform="translate(861.553491 0)scale(0.996264)" xlink:href="#CMR17-1"/>
      <use transform="translate(938.473081 -14.943915)scale(0.996264)" xlink:href="#CMR17-6d"/>
      <use transform="translate(1015.392671 -14.943915)scale(0.996264)" xlink:href="#CMR17-61"/>
      <use transform="translate(1061.083148 -14.943915)scale(0.996264)" xlink:href="#CMR17-78"/>
     </g>
    </g>
   </g>
   <g id="line2d_43">
    <path clip-path="url(#pe2c8f4044a)" d="M 433.593956 81.761701 
L 430.523445 83.78133 
L 427.452934 85.789567 
L 424.382423 87.785271 
L 421.311913 89.767276 
L 418.241402 91.734385 
L 415.170891 93.685379 
L 412.10038 95.619008 
L 409.029869 97.534002 
L 405.959358 99.429064 
L 402.888848 101.302877 
L 399.818337 103.154103 
L 396.747826 104.981385 
L 393.677315 106.78335 
L 390.606804 108.558606 
L 387.536293 110.305753 
L 384.465783 112.023376 
L 381.395272 113.710052 
L 378.324761 115.364354 
L 375.25425 116.984847 
L 372.183739 118.570099 
L 369.113228 120.118678 
L 366.042718 121.629155 
L 362.972207 123.100111 
L 359.901696 124.530137 
L 356.831185 125.917838 
L 353.760674 127.261834 
L 350.690163 128.56077 
L 347.619653 129.813311 
L 344.549142 131.01815 
L 341.478631 132.174012 
L 338.40812 133.279655 
L 335.337609 134.333875 
L 332.267098 135.335508 
L 329.196588 136.283437 
L 326.126077 137.176589 
L 323.055566 138.013944 
L 319.985055 138.794536 
L 316.914544 139.517454 
L 313.844033 140.181848 
L 310.773523 140.786931 
L 307.703012 141.33198 
L 304.632501 141.816339 
L 301.56199 142.239424 
L 298.491479 142.600718 
L 295.420968 142.899781 
L 292.350458 143.136246 
L 289.279947 143.309822 
L 286.209436 143.420295 
L 283.138925 143.467529 
" style="fill:none;stroke:#000000;stroke-dasharray:1.5,2.475;stroke-dashoffset:0;stroke-width:1.5;"/>
   </g>
   <g id="patch_27">
    <path d="M 275.616174 146.55282 
L 275.616174 78.67641 
" style="fill:none;stroke:#000000;stroke-linecap:square;stroke-linejoin:miter;stroke-width:0.8;"/>
   </g>
   <g id="patch_28">
    <path d="M 441.116707 146.55282 
L 441.116707 78.67641 
" style="fill:none;stroke:#000000;stroke-linecap:square;stroke-linejoin:miter;stroke-width:0.8;"/>
   </g>
   <g id="patch_29">
    <path d="M 275.616174 146.55282 
L 441.116707 146.55282 
" style="fill:none;stroke:#000000;stroke-linecap:square;stroke-linejoin:miter;stroke-width:0.8;"/>
   </g>
   <g id="patch_30">
    <path d="M 275.616174 78.67641 
L 441.116707 78.67641 
" style="fill:none;stroke:#000000;stroke-linecap:square;stroke-linejoin:miter;stroke-width:0.8;"/>
   </g>
   <g id="legend_5">
    <g id="patch_31">
     <path d="M 282.616174 100.613588 
L 336.09351 100.613588 
Q 338.09351 100.613588 338.09351 98.613588 
L 338.09351 85.67641 
Q 338.09351 83.67641 336.09351 83.67641 
L 282.616174 83.67641 
Q 280.616174 83.67641 280.616174 85.67641 
L 280.616174 98.613588 
Q 280.616174 100.613588 282.616174 100.613588 
z
" style="fill:#ffffff;opacity:0.8;stroke:#cccccc;stroke-linejoin:miter;"/>
    </g>
    <g id="line2d_44">
     <path d="M 284.616174 91.17641 
L 304.616174 91.17641 
" style="fill:none;stroke:#000000;stroke-dasharray:1.5,2.475;stroke-dashoffset:0;stroke-width:1.5;"/>
    </g>
    <g id="line2d_45"/>
    <g id="text_38">
     <!-- $n=$1 -->
     <g transform="translate(312.616174 94.67641)scale(0.1 -0.1)">
      <use transform="scale(0.996264)" xlink:href="#CMMI12-6e"/>
      <use transform="translate(85.904056 0)scale(0.996264)" xlink:href="#CMR17-3d"/>
      <use transform="translate(157.618844 0)scale(0.996264)" xlink:href="#CMR17-31"/>
     </g>
    </g>
   </g>
  </g>
  <g id="axes_6">
   <g id="patch_32">
    <path d="M 275.616174 214.42923 
L 441.116707 214.42923 
L 441.116707 146.55282 
L 275.616174 146.55282 
z
" style="fill:#ffffff;"/>
   </g>
   <g id="matplotlib.axis_11">
    <g id="xtick_16">
     <g id="line2d_46">
      <g>
       <use style="stroke:#000000;stroke-width:0.8;" x="282.38287" xlink:href="#m315e63c095" y="214.42923"/>
      </g>
     </g>
     <g id="text_39">
      <!-- $\mathdefault{0.00}$ -->
      <g transform="translate(273.527163 228.347729)scale(0.1 -0.1)">
       <use transform="scale(0.996264)" xlink:href="#CMR17-30"/>
       <use transform="translate(45.690477 0)scale(0.996264)" xlink:href="#CMMI12-3a"/>
       <use transform="translate(72.787654 0)scale(0.996264)" xlink:href="#CMR17-30"/>
       <use transform="translate(118.478131 0)scale(0.996264)" xlink:href="#CMR17-30"/>
      </g>
     </g>
    </g>
    <g id="xtick_17">
     <g id="line2d_47">
      <g>
       <use style="stroke:#000000;stroke-width:0.8;" x="320.185641" xlink:href="#m315e63c095" y="214.42923"/>
      </g>
     </g>
     <g id="text_40">
      <!-- $\mathdefault{0.25}$ -->
      <g transform="translate(311.329934 228.347729)scale(0.1 -0.1)">
       <use transform="scale(0.996264)" xlink:href="#CMR17-30"/>
       <use transform="translate(45.690477 0)scale(0.996264)" xlink:href="#CMMI12-3a"/>
       <use transform="translate(72.787654 0)scale(0.996264)" xlink:href="#CMR17-32"/>
       <use transform="translate(118.478131 0)scale(0.996264)" xlink:href="#CMR17-35"/>
      </g>
     </g>
    </g>
    <g id="xtick_18">
     <g id="line2d_48">
      <g>
       <use style="stroke:#000000;stroke-width:0.8;" x="357.988413" xlink:href="#m315e63c095" y="214.42923"/>
      </g>
     </g>
     <g id="text_41">
      <!-- $\mathdefault{0.50}$ -->
      <g transform="translate(349.132706 228.347729)scale(0.1 -0.1)">
       <use transform="scale(0.996264)" xlink:href="#CMR17-30"/>
       <use transform="translate(45.690477 0)scale(0.996264)" xlink:href="#CMMI12-3a"/>
       <use transform="translate(72.787654 0)scale(0.996264)" xlink:href="#CMR17-35"/>
       <use transform="translate(118.478131 0)scale(0.996264)" xlink:href="#CMR17-30"/>
      </g>
     </g>
    </g>
    <g id="xtick_19">
     <g id="line2d_49">
      <g>
       <use style="stroke:#000000;stroke-width:0.8;" x="395.791184" xlink:href="#m315e63c095" y="214.42923"/>
      </g>
     </g>
     <g id="text_42">
      <!-- $\mathdefault{0.75}$ -->
      <g transform="translate(386.935477 228.347729)scale(0.1 -0.1)">
       <use transform="scale(0.996264)" xlink:href="#CMR17-30"/>
       <use transform="translate(45.690477 0)scale(0.996264)" xlink:href="#CMMI12-3a"/>
       <use transform="translate(72.787654 0)scale(0.996264)" xlink:href="#CMR17-37"/>
       <use transform="translate(118.478131 0)scale(0.996264)" xlink:href="#CMR17-35"/>
      </g>
     </g>
    </g>
    <g id="xtick_20">
     <g id="line2d_50">
      <g>
       <use style="stroke:#000000;stroke-width:0.8;" x="433.593956" xlink:href="#m315e63c095" y="214.42923"/>
      </g>
     </g>
     <g id="text_43">
      <!-- $\mathdefault{1.00}$ -->
      <g transform="translate(424.738249 228.347729)scale(0.1 -0.1)">
       <use transform="scale(0.996264)" xlink:href="#CMR17-31"/>
       <use transform="translate(45.690477 0)scale(0.996264)" xlink:href="#CMMI12-3a"/>
       <use transform="translate(72.787654 0)scale(0.996264)" xlink:href="#CMR17-30"/>
       <use transform="translate(118.478131 0)scale(0.996264)" xlink:href="#CMR17-30"/>
      </g>
     </g>
    </g>
    <g id="text_44">
     <!-- Stepsize $d\xi$ -->
     <g transform="translate(334.47164 241.203405)scale(0.1 -0.1)">
      <defs>
       <path d="M 2803 4351 
C 2803 4467 2797 4473 2758 4473 
C 2720 4473 2707 4447 2682 4390 
L 2490 3965 
C 2246 4320 1875 4480 1472 4480 
C 819 4480 294 3958 294 3301 
C 294 3101 339 2817 557 2546 
C 794 2250 1018 2198 1530 2063 
C 1722 2011 2042 1927 2106 1901 
C 2470 1747 2662 1360 2662 999 
C 2662 534 2336 38 1779 38 
C 1094 38 454 425 410 1328 
C 403 1431 397 1437 352 1437 
C 301 1437 294 1431 294 1302 
L 294 0 
C 294 -116 301 -122 339 -122 
C 384 -122 397 -90 486 109 
C 493 128 493 141 614 386 
C 934 -39 1472 -128 1779 -128 
C 2477 -128 2970 457 2970 1141 
C 2970 1476 2848 1734 2778 1850 
C 2509 2263 2221 2340 1914 2417 
C 1869 2437 1856 2437 1498 2527 
C 1152 2617 1005 2662 845 2836 
C 666 3036 602 3243 602 3449 
C 602 3868 934 4326 1478 4326 
C 2157 4326 2579 3842 2675 3036 
C 2694 2920 2701 2914 2746 2914 
C 2803 2914 2803 2933 2803 3043 
L 2803 4351 
z
" id="CMR17-53" transform="scale(0.015625)"/>
       <path d="M 1408 -1114 
C 998 -1114 973 -1088 973 -834 
L 973 380 
C 1158 109 1427 -64 1766 -64 
C 2406 -64 3053 503 3053 1382 
C 3053 2196 2496 2816 1837 2816 
C 1453 2816 1139 2603 960 2345 
L 960 2816 
L 198 2745 
L 198 2577 
C 576 2577 634 2539 634 2228 
L 634 -834 
C 634 -1081 608 -1114 198 -1114 
L 198 -1280 
C 352 -1268 634 -1268 800 -1268 
C 966 -1268 1254 -1268 1408 -1280 
L 1408 -1114 
z
M 973 2015 
C 973 2106 973 2241 1222 2481 
C 1254 2506 1472 2700 1792 2700 
C 2259 2700 2643 2112 2643 1376 
C 2643 639 2234 38 1728 38 
C 1498 38 1248 148 1056 451 
C 973 594 973 632 973 736 
L 973 2015 
z
" id="CMR17-70" transform="scale(0.015625)"/>
       <path d="M 1978 2688 
C 1978 2803 1971 2809 1933 2809 
C 1907 2809 1901 2803 1824 2707 
C 1805 2681 1747 2617 1728 2592 
C 1523 2809 1235 2816 1126 2816 
C 416 2816 160 2444 160 2073 
C 160 1497 813 1363 998 1324 
C 1402 1241 1542 1216 1677 1100 
C 1760 1024 1901 883 1901 652 
C 1901 384 1747 38 1158 38 
C 602 38 403 460 288 1024 
C 269 1113 269 1120 218 1120 
C 166 1120 160 1113 160 985 
L 160 64 
C 160 -52 166 -58 205 -58 
C 237 -58 243 -52 275 0 
C 314 57 410 211 448 275 
C 576 102 800 -64 1158 -64 
C 1792 -64 2131 281 2131 780 
C 2131 1107 1958 1280 1875 1356 
C 1683 1555 1459 1600 1190 1651 
C 838 1728 390 1817 390 2208 
C 390 2374 480 2726 1126 2726 
C 1811 2726 1850 2086 1862 1881 
C 1869 1849 1901 1843 1920 1843 
C 1978 1843 1978 1862 1978 1971 
L 1978 2688 
z
" id="CMR17-73" transform="scale(0.015625)"/>
       <path d="M 2310 2604 
C 2362 2668 2362 2681 2362 2694 
C 2362 2752 2336 2752 2221 2752 
L 275 2752 
L 211 1760 
L 326 1760 
C 371 2380 442 2649 1178 2649 
L 1958 2649 
L 128 96 
C 128 6 134 0 269 0 
L 2291 0 
L 2381 1152 
L 2266 1152 
C 2214 441 2131 115 1350 115 
L 531 115 
L 2310 2604 
z
" id="CMR17-7a" transform="scale(0.015625)"/>
       <path d="M 3219 4255 
C 3226 4281 3238 4319 3238 4351 
C 3238 4416 3174 4416 3162 4416 
C 3155 4416 2842 4390 2810 4383 
C 2701 4377 2605 4364 2490 4358 
C 2330 4345 2285 4339 2285 4223 
C 2285 4159 2336 4159 2426 4159 
C 2739 4159 2746 4103 2746 4040 
C 2746 4002 2733 3951 2726 3932 
L 2336 2394 
C 2266 2560 2093 2816 1760 2816 
C 1037 2816 256 1883 256 938 
C 256 306 627 -64 1062 -64 
C 1414 -64 1715 210 1894 421 
C 1958 44 2259 -64 2451 -64 
C 2643 -64 2797 51 2912 281 
C 3014 498 3104 887 3104 913 
C 3104 945 3078 970 3040 970 
C 2982 970 2976 938 2950 842 
C 2854 466 2733 64 2470 64 
C 2285 64 2272 230 2272 357 
C 2272 383 2272 517 2317 696 
L 3219 4255 
z
M 1926 759 
C 1894 651 1894 638 1805 517 
C 1664 338 1382 64 1082 64 
C 819 64 672 300 672 676 
C 672 1028 870 1743 992 2011 
C 1210 2458 1510 2687 1760 2687 
C 2182 2687 2266 2164 2266 2113 
C 2266 2107 2246 2024 2240 2011 
L 1926 759 
z
" id="CMMI12-64" transform="scale(0.015625)"/>
      </defs>
      <use transform="scale(0.996264)" xlink:href="#CMR17-53"/>
      <use transform="translate(50.89537 0)scale(0.996264)" xlink:href="#CMR17-74"/>
      <use transform="translate(86.176138 0)scale(0.996264)" xlink:href="#CMR17-65"/>
      <use transform="translate(126.661798 0)scale(0.996264)" xlink:href="#CMR17-70"/>
      <use transform="translate(177.557168 0)scale(0.996264)" xlink:href="#CMR17-73"/>
      <use transform="translate(213.358505 0)scale(0.996264)" xlink:href="#CMR17-69"/>
      <use transform="translate(238.229564 0)scale(0.996264)" xlink:href="#CMR17-7a"/>
      <use transform="translate(278.715224 0)scale(0.996264)" xlink:href="#CMR17-65"/>
      <use transform="translate(349.276851 0)scale(0.996264)" xlink:href="#CMMI12-64"/>
      <use transform="translate(399.965948 0)scale(0.996264)" xlink:href="#CMMI12-18"/>
     </g>
    </g>
   </g>
   <g id="matplotlib.axis_12">
    <g id="ytick_16">
     <g id="line2d_51">
      <g>
       <use style="stroke:#000000;stroke-width:0.8;" x="275.616174" xlink:href="#m6cfa754bf2" y="211.345858"/>
      </g>
     </g>
     <g id="text_45">
      <!-- $\mathdefault{0.00}$ -->
      <g transform="translate(250.904759 214.805107)scale(0.1 -0.1)">
       <use transform="scale(0.996264)" xlink:href="#CMR17-30"/>
       <use transform="translate(45.690477 0)scale(0.996264)" xlink:href="#CMMI12-3a"/>
       <use transform="translate(72.787654 0)scale(0.996264)" xlink:href="#CMR17-30"/>
       <use transform="translate(118.478131 0)scale(0.996264)" xlink:href="#CMR17-30"/>
      </g>
     </g>
    </g>
    <g id="ytick_17">
     <g id="line2d_52">
      <g>
       <use style="stroke:#000000;stroke-width:0.8;" x="275.616174" xlink:href="#m6cfa754bf2" y="188.316213"/>
      </g>
     </g>
     <g id="text_46">
      <!-- $\mathdefault{0.05}$ -->
      <g transform="translate(250.904759 191.775463)scale(0.1 -0.1)">
       <use transform="scale(0.996264)" xlink:href="#CMR17-30"/>
       <use transform="translate(45.690477 0)scale(0.996264)" xlink:href="#CMMI12-3a"/>
       <use transform="translate(72.787654 0)scale(0.996264)" xlink:href="#CMR17-30"/>
       <use transform="translate(118.478131 0)scale(0.996264)" xlink:href="#CMR17-35"/>
      </g>
     </g>
    </g>
    <g id="ytick_18">
     <g id="line2d_53">
      <g>
       <use style="stroke:#000000;stroke-width:0.8;" x="275.616174" xlink:href="#m6cfa754bf2" y="165.286569"/>
      </g>
     </g>
     <g id="text_47">
      <!-- $\mathdefault{0.10}$ -->
      <g transform="translate(250.904759 168.745818)scale(0.1 -0.1)">
       <use transform="scale(0.996264)" xlink:href="#CMR17-30"/>
       <use transform="translate(45.690477 0)scale(0.996264)" xlink:href="#CMMI12-3a"/>
       <use transform="translate(72.787654 0)scale(0.996264)" xlink:href="#CMR17-31"/>
       <use transform="translate(118.478131 0)scale(0.996264)" xlink:href="#CMR17-30"/>
      </g>
     </g>
    </g>
   </g>
   <g id="line2d_54">
    <path clip-path="url(#peeba3d6a26)" d="M 433.593956 149.638112 
L 430.523445 151.65774 
L 427.452934 153.665977 
L 424.382423 155.661681 
L 421.311913 157.643686 
L 418.241402 159.610796 
L 415.170891 161.561789 
L 412.10038 163.495419 
L 409.029869 165.410412 
L 405.959358 167.305474 
L 402.888848 169.179287 
L 399.818337 171.030513 
L 396.747826 172.857795 
L 393.677315 174.65976 
L 390.606804 176.435016 
L 387.536293 178.182163 
L 384.465783 179.899786 
L 381.395272 181.586462 
L 378.324761 183.240764 
L 375.25425 184.861257 
L 372.183739 186.446509 
L 369.113228 187.995088 
L 366.042718 189.505565 
L 362.972207 190.976521 
L 359.901696 192.406547 
L 356.831185 193.794248 
L 353.760674 195.138244 
L 350.690163 196.43718 
L 347.619653 197.689721 
L 344.549142 198.89456 
L 341.478631 200.050422 
L 338.40812 201.156065 
L 335.337609 202.210285 
L 332.267098 203.211919 
L 329.196588 204.159847 
L 326.126077 205.052999 
L 323.055566 205.890354 
L 319.985055 206.670946 
L 316.914544 207.393864 
L 313.844033 208.058258 
L 310.773523 208.663341 
L 307.703012 209.20839 
L 304.632501 209.692749 
L 301.56199 210.115834 
L 298.491479 210.477128 
L 295.420968 210.776191 
L 292.350458 211.012656 
L 289.279947 211.186232 
L 286.209436 211.296705 
L 283.138925 211.343939 
" style="fill:none;stroke:#000000;stroke-dasharray:9.6,2.4,1.5,2.4;stroke-dashoffset:0;stroke-width:1.5;"/>
   </g>
   <g id="patch_33">
    <path d="M 275.616174 214.42923 
L 275.616174 146.55282 
" style="fill:none;stroke:#000000;stroke-linecap:square;stroke-linejoin:miter;stroke-width:0.8;"/>
   </g>
   <g id="patch_34">
    <path d="M 441.116707 214.42923 
L 441.116707 146.55282 
" style="fill:none;stroke:#000000;stroke-linecap:square;stroke-linejoin:miter;stroke-width:0.8;"/>
   </g>
   <g id="patch_35">
    <path d="M 275.616174 214.42923 
L 441.116707 214.42923 
" style="fill:none;stroke:#000000;stroke-linecap:square;stroke-linejoin:miter;stroke-width:0.8;"/>
   </g>
   <g id="patch_36">
    <path d="M 275.616174 146.55282 
L 441.116707 146.55282 
" style="fill:none;stroke:#000000;stroke-linecap:square;stroke-linejoin:miter;stroke-width:0.8;"/>
   </g>
   <g id="legend_6">
    <g id="patch_37">
     <path d="M 282.616174 168.489998 
L 336.09351 168.489998 
Q 338.09351 168.489998 338.09351 166.489998 
L 338.09351 153.55282 
Q 338.09351 151.55282 336.09351 151.55282 
L 282.616174 151.55282 
Q 280.616174 151.55282 280.616174 153.55282 
L 280.616174 166.489998 
Q 280.616174 168.489998 282.616174 168.489998 
z
" style="fill:#ffffff;opacity:0.8;stroke:#cccccc;stroke-linejoin:miter;"/>
    </g>
    <g id="line2d_55">
     <path d="M 284.616174 159.05282 
L 304.616174 159.05282 
" style="fill:none;stroke:#000000;stroke-dasharray:9.6,2.4,1.5,2.4;stroke-dashoffset:0;stroke-width:1.5;"/>
    </g>
    <g id="line2d_56"/>
    <g id="text_48">
     <!-- $n=$2 -->
     <g transform="translate(312.616174 162.55282)scale(0.1 -0.1)">
      <use transform="scale(0.996264)" xlink:href="#CMMI12-6e"/>
      <use transform="translate(85.904056 0)scale(0.996264)" xlink:href="#CMR17-3d"/>
      <use transform="translate(157.618844 0)scale(0.996264)" xlink:href="#CMR17-32"/>
     </g>
    </g>
   </g>
  </g>
 </g>
 <defs>
  <clipPath id="p8798397048">
   <rect height="67.87641" width="165.500534" x="65.02234" y="10.8"/>
  </clipPath>
  <clipPath id="p0ff9cbf22b">
   <rect height="67.87641" width="165.500534" x="65.02234" y="78.67641"/>
  </clipPath>
  <clipPath id="p0bde692474">
   <rect height="67.87641" width="165.500534" x="65.02234" y="146.55282"/>
  </clipPath>
  <clipPath id="pc6d6b41bf9">
   <rect height="67.87641" width="165.500534" x="275.616174" y="10.8"/>
  </clipPath>
  <clipPath id="pe2c8f4044a">
   <rect height="67.87641" width="165.500534" x="275.616174" y="78.67641"/>
  </clipPath>
  <clipPath id="peeba3d6a26">
   <rect height="67.87641" width="165.500534" x="275.616174" y="146.55282"/>
  </clipPath>
 </defs>
</svg>
