<?xml version="1.0" encoding="utf-8" standalone="no"?>
<!DOCTYPE svg PUBLIC "-//W3C//DTD SVG 1.1//EN"
  "http://www.w3.org/Graphics/SVG/1.1/DTD/svg11.dtd">
<!-- Created with matplotlib (https://matplotlib.org/) -->
<svg height="340.15748pt" version="1.1" viewBox="0 0 453.543307 340.15748" width="453.543307pt" xmlns="http://www.w3.org/2000/svg" xmlns:xlink="http://www.w3.org/1999/xlink">
 <metadata>
  <rdf:RDF xmlns:cc="http://creativecommons.org/ns#" xmlns:dc="http://purl.org/dc/elements/1.1/" xmlns:rdf="http://www.w3.org/1999/02/22-rdf-syntax-ns#">
   <cc:Work>
    <dc:type rdf:resource="http://purl.org/dc/dcmitype/StillImage"/>
    <dc:date>2021-02-27T15:05:01.065765</dc:date>
    <dc:format>image/svg+xml</dc:format>
    <dc:creator>
     <cc:Agent>
      <dc:title>Matplotlib v3.3.4, https://matplotlib.org/</dc:title>
     </cc:Agent>
    </dc:creator>
   </cc:Work>
  </rdf:RDF>
 </metadata>
 <defs>
  <style type="text/css">*{stroke-linecap:butt;stroke-linejoin:round;}</style>
 </defs>
 <g id="figure_1">
  <g id="patch_1">
   <path d="M 0 340.15748 
L 453.543307 340.15748 
L 453.543307 0 
L 0 0 
z
" style="fill:#ffffff;"/>
  </g>
  <g id="axes_1">
   <g id="patch_2">
    <path d="M 30.57782 150.87717 
L 219.745054 150.87717 
L 219.745054 25.8 
L 30.57782 25.8 
z
" style="fill:#ffffff;"/>
   </g>
   <g id="matplotlib.axis_1">
    <g id="xtick_1">
     <g id="line2d_1">
      <defs>
       <path d="M 0 0 
L 0 3.5 
" id="m8f04e03e79" style="stroke:#000000;stroke-width:0.8;"/>
      </defs>
      <g>
       <use style="stroke:#000000;stroke-width:0.8;" x="39.176331" xlink:href="#m8f04e03e79" y="150.87717"/>
      </g>
     </g>
     <g id="text_1">
      <!-- $\mathdefault{0.0}$ -->
      <g transform="translate(32.811291 164.795668)scale(0.1 -0.1)">
       <defs>
        <path d="M 42 31.84375 
C 42 37.96875 41.90625 48.421875 37.703125 56.453125 
C 34 63.484375 28.09375 66 22.90625 66 
C 18.09375 66 12 63.78125 8.203125 56.5625 
C 4.203125 49.015625 3.796875 39.671875 3.796875 31.84375 
C 3.796875 26.109375 3.90625 17.375 7 9.734375 
C 11.296875 -0.609375 19 -2 22.90625 -2 
C 27.5 -2 34.5 -0.109375 38.59375 9.4375 
C 41.59375 16.375 42 24.5 42 31.84375 
z
M 22.90625 -0.40625 
C 16.5 -0.40625 12.703125 5.125 11.296875 12.75 
C 10.203125 18.6875 10.203125 27.328125 10.203125 32.953125 
C 10.203125 40.6875 10.203125 47.109375 11.5 53.234375 
C 13.40625 61.78125 19 64.390625 22.90625 64.390625 
C 27 64.390625 32.296875 61.671875 34.203125 53.4375 
C 35.5 47.71875 35.59375 40.984375 35.59375 32.953125 
C 35.59375 26.421875 35.59375 18.375 34.40625 12.453125 
C 32.296875 1.5 26.40625 -0.40625 22.90625 -0.40625 
z
" id="CMR17-48"/>
        <path d="M 18.40625 4.796875 
C 18.40625 7.6875 16 9.6875 13.59375 9.6875 
C 10.703125 9.6875 8.703125 7.296875 8.703125 4.890625 
C 8.703125 2 11.09375 0 13.5 0 
C 16.40625 0 18.40625 2.390625 18.40625 4.796875 
z
" id="CMMI12-58"/>
       </defs>
       <use transform="scale(0.996264)" xlink:href="#CMR17-48"/>
       <use transform="translate(45.690477 0)scale(0.996264)" xlink:href="#CMMI12-58"/>
       <use transform="translate(72.787654 0)scale(0.996264)" xlink:href="#CMR17-48"/>
      </g>
     </g>
    </g>
    <g id="xtick_2">
     <g id="line2d_2">
      <g>
       <use style="stroke:#000000;stroke-width:0.8;" x="73.570373" xlink:href="#m8f04e03e79" y="150.87717"/>
      </g>
     </g>
     <g id="text_2">
      <!-- $\mathdefault{0.2}$ -->
      <g transform="translate(67.205334 164.795668)scale(0.1 -0.1)">
       <defs>
        <path d="M 41.703125 15.46875 
L 39.90625 15.46875 
C 38.90625 8.390625 38.09375 7.1875 37.703125 6.59375 
C 37.203125 5.796875 30 5.796875 28.59375 5.796875 
L 9.40625 5.796875 
C 13 9.6875 20 16.765625 28.5 24.9375 
C 34.59375 30.71875 41.703125 37.5 41.703125 47.390625 
C 41.703125 59.1875 32.296875 66 21.796875 66 
C 10.796875 66 4.09375 56.296875 4.09375 47.296875 
C 4.09375 43.390625 7 42.890625 8.203125 42.890625 
C 9.203125 42.890625 12.203125 43.484375 12.203125 46.984375 
C 12.203125 50.09375 9.59375 51 8.203125 51 
C 7.59375 51 7 50.890625 6.59375 50.6875 
C 8.5 59.1875 14.296875 63.390625 20.40625 63.390625 
C 29.09375 63.390625 34.796875 56.5 34.796875 47.390625 
C 34.796875 38.703125 29.703125 31.21875 24 24.734375 
L 4.09375 2.296875 
L 4.09375 0 
L 39.296875 0 
z
" id="CMR17-50"/>
       </defs>
       <use transform="scale(0.996264)" xlink:href="#CMR17-48"/>
       <use transform="translate(45.690477 0)scale(0.996264)" xlink:href="#CMMI12-58"/>
       <use transform="translate(72.787654 0)scale(0.996264)" xlink:href="#CMR17-50"/>
      </g>
     </g>
    </g>
    <g id="xtick_3">
     <g id="line2d_3">
      <g>
       <use style="stroke:#000000;stroke-width:0.8;" x="107.964416" xlink:href="#m8f04e03e79" y="150.87717"/>
      </g>
     </g>
     <g id="text_3">
      <!-- $\mathdefault{0.4}$ -->
      <g transform="translate(101.599376 164.795668)scale(0.1 -0.1)">
       <defs>
        <path d="M 33.59375 64.796875 
C 33.59375 66.890625 33.5 67 31.703125 67 
L 2 19.59375 
L 2 17 
L 27.796875 17 
L 27.796875 7.1875 
C 27.796875 3.59375 27.59375 2.59375 20.59375 2.59375 
L 18.703125 2.59375 
L 18.703125 0 
C 21.90625 0.1875 27.296875 0.1875 30.703125 0.1875 
C 34.09375 0.1875 39.5 0.1875 42.703125 0 
L 42.703125 2.59375 
L 40.796875 2.59375 
C 33.796875 2.59375 33.59375 3.59375 33.59375 7.1875 
L 33.59375 17 
L 43.796875 17 
L 43.796875 19.59375 
L 33.59375 19.59375 
z
M 28.09375 58.171875 
L 28.09375 19.59375 
L 4 19.59375 
z
" id="CMR17-52"/>
       </defs>
       <use transform="scale(0.996264)" xlink:href="#CMR17-48"/>
       <use transform="translate(45.690477 0)scale(0.996264)" xlink:href="#CMMI12-58"/>
       <use transform="translate(72.787654 0)scale(0.996264)" xlink:href="#CMR17-52"/>
      </g>
     </g>
    </g>
    <g id="xtick_4">
     <g id="line2d_4">
      <g>
       <use style="stroke:#000000;stroke-width:0.8;" x="142.358458" xlink:href="#m8f04e03e79" y="150.87717"/>
      </g>
     </g>
     <g id="text_4">
      <!-- $\mathdefault{0.6}$ -->
      <g transform="translate(135.993419 164.795668)scale(0.1 -0.1)">
       <defs>
        <path d="M 10.59375 34.34375 
C 10.59375 58 21.796875 63.6875 28.296875 63.6875 
C 30.40625 63.6875 35.5 63.265625 37.5 59.09375 
C 35.90625 59.09375 32.90625 59.09375 32.90625 55.59375 
C 32.90625 52.890625 35.09375 52 36.5 52 
C 37.40625 52 40.09375 52.390625 40.09375 55.796875 
C 40.09375 62.296875 35.09375 66 28.203125 66 
C 16.296875 66 3.796875 53.296875 3.796875 31.421875 
C 3.796875 4.015625 15.09375 -2 23.09375 -2 
C 32.796875 -2 42 6.734375 42 20.234375 
C 42 32.828125 33.90625 42 23.703125 42 
C 17.59375 42 13.09375 37.96875 10.59375 30.921875 
z
M 23.09375 0.390625 
C 10.796875 0.390625 10.796875 18.9375 10.796875 22.65625 
C 10.796875 29.90625 14.203125 40.390625 23.5 40.390625 
C 25.203125 40.390625 30.09375 40.390625 33.40625 33.4375 
C 35.203125 29.515625 35.203125 25.375 35.203125 20.34375 
C 35.203125 14.90625 35.203125 10.875 33.09375 6.84375 
C 30.90625 2.703125 27.703125 0.390625 23.09375 0.390625 
z
" id="CMR17-54"/>
       </defs>
       <use transform="scale(0.996264)" xlink:href="#CMR17-48"/>
       <use transform="translate(45.690477 0)scale(0.996264)" xlink:href="#CMMI12-58"/>
       <use transform="translate(72.787654 0)scale(0.996264)" xlink:href="#CMR17-54"/>
      </g>
     </g>
    </g>
    <g id="xtick_5">
     <g id="line2d_5">
      <g>
       <use style="stroke:#000000;stroke-width:0.8;" x="176.752501" xlink:href="#m8f04e03e79" y="150.87717"/>
      </g>
     </g>
     <g id="text_5">
      <!-- $\mathdefault{0.8}$ -->
      <g transform="translate(170.387461 164.795668)scale(0.1 -0.1)">
       <defs>
        <path d="M 27.203125 35.765625 
C 33.5 38.96875 39.90625 43.796875 39.90625 51.53125 
C 39.90625 60.6875 31.09375 66 23 66 
C 13.90625 66 5.90625 59.375 5.90625 50.234375 
C 5.90625 47.71875 6.5 43.390625 10.40625 39.578125 
C 11.40625 38.578125 15.59375 35.5625 18.296875 33.65625 
C 13.796875 31.34375 3.296875 25.8125 3.296875 14.765625 
C 3.296875 4.40625 13.09375 -2 22.796875 -2 
C 33.5 -2 42.5 5.71875 42.5 15.96875 
C 42.5 25.109375 36.40625 29.328125 32.40625 32.046875 
z
M 14.09375 44.609375 
C 13.296875 45.109375 9.296875 48.21875 9.296875 52.9375 
C 9.296875 59.078125 15.59375 63.6875 22.796875 63.6875 
C 30.703125 63.6875 36.5 58.0625 36.5 51.53125 
C 36.5 42.1875 26.09375 36.859375 25.59375 36.859375 
C 25.5 36.859375 25.40625 36.859375 24.59375 37.46875 
z
M 32.5 24 
C 34 22.90625 38.796875 19.578125 38.796875 13.453125 
C 38.796875 6.015625 31.40625 0.390625 23 0.390625 
C 13.90625 0.390625 7 6.921875 7 14.859375 
C 7 22.796875 13.09375 29.4375 20 32.546875 
z
" id="CMR17-56"/>
       </defs>
       <use transform="scale(0.996264)" xlink:href="#CMR17-48"/>
       <use transform="translate(45.690477 0)scale(0.996264)" xlink:href="#CMMI12-58"/>
       <use transform="translate(72.787654 0)scale(0.996264)" xlink:href="#CMR17-56"/>
      </g>
     </g>
    </g>
    <g id="xtick_6">
     <g id="line2d_6">
      <g>
       <use style="stroke:#000000;stroke-width:0.8;" x="211.146543" xlink:href="#m8f04e03e79" y="150.87717"/>
      </g>
     </g>
     <g id="text_6">
      <!-- $\mathdefault{1.0}$ -->
      <g transform="translate(204.781504 164.795668)scale(0.1 -0.1)">
       <defs>
        <path d="M 26.59375 63.796875 
C 26.59375 65.890625 26.5 66 25.09375 66 
C 21.203125 61.359375 15.296875 59.890625 9.703125 59.6875 
C 9.40625 59.6875 8.90625 59.6875 8.796875 59.5 
C 8.703125 59.296875 8.703125 59.09375 8.703125 57 
C 11.796875 57 17 57.59375 21 59.984375 
L 21 7.296875 
C 21 3.796875 20.796875 2.59375 12.203125 2.59375 
L 9.203125 2.59375 
L 9.203125 0 
C 14 0.09375 19 0.1875 23.796875 0.1875 
C 28.59375 0.1875 33.59375 0.09375 38.40625 0 
L 38.40625 2.59375 
L 35.40625 2.59375 
C 26.796875 2.59375 26.59375 3.6875 26.59375 7.296875 
z
" id="CMR17-49"/>
       </defs>
       <use transform="scale(0.996264)" xlink:href="#CMR17-49"/>
       <use transform="translate(45.690477 0)scale(0.996264)" xlink:href="#CMMI12-58"/>
       <use transform="translate(72.787654 0)scale(0.996264)" xlink:href="#CMR17-48"/>
      </g>
     </g>
    </g>
   </g>
   <g id="matplotlib.axis_2">
    <g id="ytick_1">
     <g id="line2d_7">
      <defs>
       <path d="M 0 0 
L -3.5 0 
" id="m6e228fa959" style="stroke:#000000;stroke-width:0.8;"/>
      </defs>
      <g>
       <use style="stroke:#000000;stroke-width:0.8;" x="30.57782" xlink:href="#m6e228fa959" y="145.191844"/>
      </g>
     </g>
     <g id="text_7">
      <!-- $\mathdefault{0.0}$ -->
      <g transform="translate(10.847741 148.651093)scale(0.1 -0.1)">
       <use transform="scale(0.996264)" xlink:href="#CMR17-48"/>
       <use transform="translate(45.690477 0)scale(0.996264)" xlink:href="#CMMI12-58"/>
       <use transform="translate(72.787654 0)scale(0.996264)" xlink:href="#CMR17-48"/>
      </g>
     </g>
    </g>
    <g id="ytick_2">
     <g id="line2d_8">
      <g>
       <use style="stroke:#000000;stroke-width:0.8;" x="30.57782" xlink:href="#m6e228fa959" y="116.765214"/>
      </g>
     </g>
     <g id="text_8">
      <!-- $\mathdefault{0.5}$ -->
      <g transform="translate(10.847741 120.224464)scale(0.1 -0.1)">
       <defs>
        <path d="M 11.40625 58.59375 
C 12.40625 58.1875 16.5 56.890625 20.703125 56.890625 
C 30 56.890625 35.09375 61.890625 38 64.6875 
C 38 65.484375 38 66 37.40625 66 
C 37.296875 66 37.09375 66 36.296875 65.59375 
C 32.796875 64.09375 28.703125 63 23.703125 63 
C 20.703125 63 16.203125 63.359375 11.296875 65.484375 
C 10.203125 66 10 66 9.90625 66 
C 9.40625 66 9.296875 65.890625 9.296875 63.90625 
L 9.296875 34.859375 
C 9.296875 33.015625 9.296875 32.5 10.296875 32.5 
C 10.796875 32.5 11 32.703125 11.5 33.421875 
C 14.703125 38.046875 19.09375 40 24.09375 40 
C 27.59375 40 35.09375 37.734375 35.09375 20.203125 
C 35.09375 16.984375 35.09375 11.1875 32.09375 6.59375 
C 29.59375 2.484375 25.703125 0.390625 21.40625 0.390625 
C 14.796875 0.390625 8.09375 4.984375 6.296875 12.6875 
C 6.703125 12.59375 7.5 12.390625 7.90625 12.390625 
C 9.203125 12.390625 11.703125 13.09375 11.703125 16.1875 
C 11.703125 18.890625 9.796875 20 7.90625 20 
C 5.59375 20 4.09375 18.59375 4.09375 15.796875 
C 4.09375 7.09375 11 -2 21.59375 -2 
C 31.90625 -2 41.703125 6.890625 41.703125 19.796875 
C 41.703125 32.09375 33.90625 41.59375 24.203125 41.59375 
C 19.09375 41.59375 14.796875 39.6875 11.40625 36 
z
" id="CMR17-53"/>
       </defs>
       <use transform="scale(0.996264)" xlink:href="#CMR17-48"/>
       <use transform="translate(45.690477 0)scale(0.996264)" xlink:href="#CMMI12-58"/>
       <use transform="translate(72.787654 0)scale(0.996264)" xlink:href="#CMR17-53"/>
      </g>
     </g>
    </g>
    <g id="ytick_3">
     <g id="line2d_9">
      <g>
       <use style="stroke:#000000;stroke-width:0.8;" x="30.57782" xlink:href="#m6e228fa959" y="88.338585"/>
      </g>
     </g>
     <g id="text_9">
      <!-- $\mathdefault{1.0}$ -->
      <g transform="translate(10.847741 91.797834)scale(0.1 -0.1)">
       <use transform="scale(0.996264)" xlink:href="#CMR17-49"/>
       <use transform="translate(45.690477 0)scale(0.996264)" xlink:href="#CMMI12-58"/>
       <use transform="translate(72.787654 0)scale(0.996264)" xlink:href="#CMR17-48"/>
      </g>
     </g>
    </g>
    <g id="ytick_4">
     <g id="line2d_10">
      <g>
       <use style="stroke:#000000;stroke-width:0.8;" x="30.57782" xlink:href="#m6e228fa959" y="59.911955"/>
      </g>
     </g>
     <g id="text_10">
      <!-- $\mathdefault{1.5}$ -->
      <g transform="translate(10.847741 63.371205)scale(0.1 -0.1)">
       <use transform="scale(0.996264)" xlink:href="#CMR17-49"/>
       <use transform="translate(45.690477 0)scale(0.996264)" xlink:href="#CMMI12-58"/>
       <use transform="translate(72.787654 0)scale(0.996264)" xlink:href="#CMR17-53"/>
      </g>
     </g>
    </g>
    <g id="ytick_5">
     <g id="line2d_11">
      <g>
       <use style="stroke:#000000;stroke-width:0.8;" x="30.57782" xlink:href="#m6e228fa959" y="31.485326"/>
      </g>
     </g>
     <g id="text_11">
      <!-- $\mathdefault{2.0}$ -->
      <g transform="translate(10.847741 34.944575)scale(0.1 -0.1)">
       <use transform="scale(0.996264)" xlink:href="#CMR17-50"/>
       <use transform="translate(45.690477 0)scale(0.996264)" xlink:href="#CMMI12-58"/>
       <use transform="translate(72.787654 0)scale(0.996264)" xlink:href="#CMR17-48"/>
      </g>
     </g>
    </g>
   </g>
   <g id="line2d_12">
    <path clip-path="url(#p5f1cf4ab68)" d="M 39.176331 31.485326 
L 40.896033 32.972842 
L 42.615735 36.822328 
L 44.335437 42.923683 
L 46.055139 50.869219 
L 47.774841 60.145314 
L 49.494543 70.191618 
L 51.214246 80.457695 
L 52.933948 90.453184 
L 54.65365 99.785441 
L 56.373352 108.180531 
L 58.093054 115.486459 
L 59.812756 121.660775 
L 61.532458 126.747303 
L 63.25216 130.848088 
L 64.971863 134.096255 
L 66.691565 136.633825 
L 68.411267 138.596267 
L 70.130969 140.103635 
L 71.850671 141.256946 
L 73.570373 142.13807 
L 75.290075 142.811587 
L 77.009777 143.327473 
L 78.72948 143.723897 
L 80.449182 144.029767 
L 82.168884 144.266871 
L 83.888586 144.451599 
L 85.608288 144.596281 
L 87.32799 144.710208 
L 89.047692 144.8004 
L 90.767394 144.872182 
L 92.487097 144.929609 
L 94.206799 144.975784 
L 95.926501 145.013094 
L 97.646203 145.043383 
L 99.365905 145.068083 
L 101.085607 145.088312 
L 102.805309 145.104949 
L 104.525011 145.118684 
L 106.244714 145.130068 
L 107.964416 145.139536 
L 109.684118 145.147437 
L 111.40382 145.154052 
L 113.123522 145.159607 
L 114.843224 145.164286 
L 116.562926 145.168238 
L 118.282628 145.171585 
L 120.002331 145.174426 
L 121.722033 145.176843 
L 123.441735 145.178905 
L 125.161437 145.180667 
L 126.881139 145.182176 
L 128.600841 145.183471 
L 130.320543 145.184584 
L 132.040245 145.185542 
L 133.759948 145.186368 
L 135.47965 145.187082 
L 137.199352 145.187699 
L 138.919054 145.188233 
L 140.638756 145.188697 
L 142.358458 145.189099 
L 144.07816 145.189449 
L 145.797862 145.189753 
L 147.517565 145.190018 
L 149.237267 145.190249 
L 150.956969 145.190451 
L 152.676671 145.190626 
L 154.396373 145.19078 
L 156.116075 145.190914 
L 157.835777 145.191031 
L 159.555479 145.191134 
L 161.275182 145.191224 
L 162.994884 145.191302 
L 164.714586 145.191371 
L 166.434288 145.191431 
L 168.15399 145.191484 
L 169.873692 145.19153 
L 171.593394 145.191571 
L 173.313096 145.191606 
L 175.032799 145.191637 
L 176.752501 145.191664 
L 178.472203 145.191688 
L 180.191905 145.191709 
L 181.911607 145.191727 
L 183.631309 145.191743 
L 185.351011 145.191756 
L 187.070713 145.191768 
L 188.790416 145.191779 
L 190.510118 145.191788 
L 192.22982 145.191796 
L 193.949522 145.191803 
L 195.669224 145.191809 
L 197.388926 145.191814 
L 199.108628 145.191819 
L 200.828331 145.191822 
L 202.548033 145.191826 
L 204.267735 145.191829 
L 205.987437 145.191831 
L 207.707139 145.191833 
L 209.426841 145.191835 
L 211.146543 145.191837 
" style="fill:none;stroke:#000000;stroke-linecap:square;stroke-width:1.5;"/>
   </g>
   <g id="line2d_13">
    <path clip-path="url(#p5f1cf4ab68)" d="M 39.176331 31.485326 
L 40.896033 31.485326 
L 42.615735 33.323794 
L 44.335437 36.025408 
L 46.055139 39.596946 
L 47.774841 43.955053 
L 49.494543 48.978292 
L 51.214246 54.527638 
L 52.933948 60.457457 
L 54.65365 66.623687 
L 56.373352 72.890331 
L 58.093054 79.134403 
L 59.812756 85.249312 
L 61.532458 91.146777 
L 63.25216 96.757408 
L 64.971863 102.030191 
L 66.691565 106.93114 
L 68.411267 111.441374 
L 70.130969 115.554879 
L 71.850671 119.276152 
L 73.570373 122.617898 
L 75.290075 125.598895 
L 77.009777 128.242106 
L 78.72948 130.573062 
L 80.449182 132.618544 
L 82.168884 134.405533 
L 83.888586 135.960421 
L 85.608288 137.308438 
L 87.32799 138.473267 
L 89.047692 139.47681 
L 90.767394 140.339067 
L 92.487097 141.078117 
L 94.206799 141.710154 
L 95.926501 142.249571 
L 97.646203 142.709082 
L 99.365905 143.099847 
L 101.085607 143.431618 
L 102.805309 143.712879 
L 104.525011 143.950979 
L 106.244714 144.152268 
L 107.964416 144.322212 
L 109.684118 144.465508 
L 111.40382 144.58618 
L 113.123522 144.687668 
L 114.843224 144.77291 
L 116.562926 144.844412 
L 118.282628 144.904303 
L 120.002331 144.954395 
L 121.722033 144.996227 
L 123.441735 145.031102 
L 125.161437 145.060125 
L 126.881139 145.084231 
L 128.600841 145.104213 
L 130.320543 145.120737 
L 132.040245 145.134368 
L 133.759948 145.145582 
L 135.47965 145.15478 
L 137.199352 145.162299 
L 138.919054 145.168424 
L 140.638756 145.173393 
L 142.358458 145.177406 
L 144.07816 145.18063 
L 145.797862 145.183207 
L 147.517565 145.185254 
L 149.237267 145.186868 
L 150.956969 145.18813 
L 152.676671 145.189109 
L 154.396373 145.189861 
L 156.116075 145.190431 
L 157.835777 145.190857 
L 159.555479 145.191171 
L 161.275182 145.191397 
L 162.994884 145.191558 
L 164.714586 145.191668 
L 166.434288 145.191741 
L 168.15399 145.191787 
L 169.873692 145.191815 
L 171.593394 145.191831 
L 173.313096 145.191839 
L 175.032799 145.191842 
L 176.752501 145.191844 
L 178.472203 145.191844 
" style="fill:none;stroke:#000000;stroke-dasharray:1.5,2.475;stroke-dashoffset:0;stroke-width:1.5;"/>
   </g>
   <g id="patch_3">
    <path d="M 30.57782 150.87717 
L 30.57782 25.8 
" style="fill:none;stroke:#000000;stroke-linecap:square;stroke-linejoin:miter;stroke-width:0.8;"/>
   </g>
   <g id="patch_4">
    <path d="M 219.745054 150.87717 
L 219.745054 25.8 
" style="fill:none;stroke:#000000;stroke-linecap:square;stroke-linejoin:miter;stroke-width:0.8;"/>
   </g>
   <g id="patch_5">
    <path d="M 30.57782 150.87717 
L 219.745054 150.87717 
" style="fill:none;stroke:#000000;stroke-linecap:square;stroke-linejoin:miter;stroke-width:0.8;"/>
   </g>
   <g id="patch_6">
    <path d="M 30.57782 25.8 
L 219.745054 25.8 
" style="fill:none;stroke:#000000;stroke-linecap:square;stroke-linejoin:miter;stroke-width:0.8;"/>
   </g>
   <g id="text_12">
    <!-- Pressure $p(r)$ -->
    <g transform="translate(91.314053 19.8)scale(0.12 -0.12)">
     <defs>
      <path d="M 19.796875 32 
L 35.796875 32 
C 48.703125 32 58.09375 40.359375 58.09375 49.796875 
C 58.09375 59.234375 48.90625 68 35.796875 68 
L 5.203125 68 
L 5.203125 65.390625 
C 12.09375 65.390625 13.203125 65.390625 13.203125 60.921875 
L 13.203125 7.078125 
C 13.203125 2.59375 12.09375 2.59375 5.203125 2.59375 
L 5.203125 0 
C 8.09375 0.1875 13.40625 0.1875 16.5 0.1875 
C 19.59375 0.1875 24.90625 0.1875 27.796875 0 
L 27.796875 2.59375 
C 20.90625 2.59375 19.796875 2.59375 19.796875 7.078125 
z
M 19.59375 34.09375 
L 19.59375 61.515625 
C 19.59375 64.890625 19.796875 65.390625 23.796875 65.390625 
L 33.90625 65.390625 
C 46.796875 65.390625 50.5 58.046875 50.5 49.796875 
C 50.5 40.75 46.09375 34.09375 33.90625 34.09375 
z
" id="CMR17-80"/>
      <path d="M 15 23.703125 
C 15 33.34375 19.09375 42.390625 26.59375 42.390625 
C 27.296875 42.390625 28 42.296875 28.703125 41.984375 
C 28.703125 41.984375 26.5 41.28125 26.5 38.671875 
C 26.5 36.265625 28.40625 35.265625 29.90625 35.265625 
C 31.09375 35.265625 33.296875 35.96875 33.296875 38.78125 
C 33.296875 41.984375 30.09375 44 26.703125 44 
C 19.09375 44 15.796875 36.5625 14.796875 33.046875 
L 14.703125 33.046875 
L 14.703125 44 
L 3.09375 42.890625 
L 3.09375 40.28125 
C 9 40.28125 9.90625 39.6875 9.90625 34.859375 
L 9.90625 6.921875 
C 9.90625 3.09375 9.5 2.59375 3.09375 2.59375 
L 3.09375 0 
C 5.5 0.1875 10.09375 0.1875 12.703125 0.1875 
C 15.59375 0.1875 20.703125 0.1875 23.40625 0 
L 23.40625 2.59375 
C 16.203125 2.59375 15 2.59375 15 7.109375 
z
" id="CMR17-114"/>
      <path d="M 38.09375 23.484375 
C 38.5 23.890625 38.5 24.09375 38.5 25.09375 
C 38.5 35.171875 33.09375 44 21.703125 44 
C 11.09375 44 2.703125 33.984375 2.703125 21.78125 
C 2.703125 8.65625 12.203125 -1 22.796875 -1 
C 34 -1 38.40625 9.671875 38.40625 11.796875 
C 38.40625 12.5 37.796875 12.5 37.59375 12.5 
C 36.90625 12.5 36.796875 12.296875 36.40625 11.078125 
C 34.203125 4.21875 28.703125 0.796875 23.5 0.796875 
C 19.203125 0.796875 14.90625 3.21875 12.203125 7.65625 
C 9.09375 12.796875 9.09375 18.75 9.09375 23.484375 
z
M 9.203125 25 
C 9.90625 39.234375 17.59375 42.390625 21.59375 42.390625 
C 28.40625 42.390625 33 36.0625 33.09375 25 
z
" id="CMR17-101"/>
      <path d="M 30.90625 42 
C 30.90625 43.796875 30.796875 43.890625 30.203125 43.890625 
C 29.796875 43.890625 29.703125 43.796875 28.5 42.296875 
C 28.203125 41.890625 27.296875 40.890625 27 40.5 
C 23.796875 43.890625 19.296875 44 17.59375 44 
C 6.5 44 2.5 38.1875 2.5 32.390625 
C 2.5 23.390625 12.703125 21.296875 15.59375 20.6875 
C 21.90625 19.390625 24.09375 19 26.203125 17.1875 
C 27.5 16 29.703125 13.796875 29.703125 10.1875 
C 29.703125 6 27.296875 0.59375 18.09375 0.59375 
C 9.40625 0.59375 6.296875 7.1875 4.5 16 
C 4.203125 17.390625 4.203125 17.5 3.40625 17.5 
C 2.59375 17.5 2.5 17.390625 2.5 15.390625 
L 2.5 1 
C 2.5 -0.8125 2.59375 -0.90625 3.203125 -0.90625 
C 3.703125 -0.90625 3.796875 -0.8125 4.296875 0 
C 4.90625 0.890625 6.40625 3.296875 7 4.296875 
C 9 1.59375 12.5 -1 18.09375 -1 
C 28 -1 33.296875 4.390625 33.296875 12.1875 
C 33.296875 17.296875 30.59375 20 29.296875 21.1875 
C 26.296875 24.296875 22.796875 25 18.59375 25.796875 
C 13.09375 27 6.09375 28.390625 6.09375 34.5 
C 6.09375 37.09375 7.5 42.59375 17.59375 42.59375 
C 28.296875 42.59375 28.90625 32.59375 29.09375 29.390625 
C 29.203125 28.890625 29.703125 28.796875 30 28.796875 
C 30.90625 28.796875 30.90625 29.09375 30.90625 30.796875 
z
" id="CMR17-115"/>
      <path d="M 29.40625 42.890625 
L 29.40625 40.296875 
C 35.296875 40.296875 36.203125 39.6875 36.203125 34.828125 
L 36.203125 16.453125 
C 36.203125 7.96875 31.703125 0.59375 24.296875 0.59375 
C 16.09375 0.59375 15.40625 5.546875 15.40625 10.796875 
L 15.40625 44 
L 3.296875 42.890625 
L 3.296875 40.296875 
C 7.296875 40.296875 10 40.296875 10.09375 36.25 
L 10.09375 16.859375 
C 10.09375 10.09375 10.09375 5.75 12.703125 2.921875 
C 14 1.609375 16.5 -1 23.703125 -1 
C 32.203125 -1 35.5 6.25 36.296875 8.375 
L 36.40625 8.375 
L 36.40625 -1 
L 48.296875 -0.203125 
L 48.296875 2.40625 
C 42.40625 2.40625 41.5 3.015625 41.5 7.859375 
L 41.5 44 
z
" id="CMR17-117"/>
      <path d="M 4.296875 -12.40625 
C 3.59375 -15.328125 3.203125 -16.109375 -0.90625 -16.109375 
C -2.109375 -16.109375 -3.109375 -16.109375 -3.109375 -18 
C -3.109375 -18.203125 -3 -19 -1.90625 -19 
C -0.609375 -19 0.796875 -18.8125 2.09375 -18.8125 
L 6.40625 -18.8125 
C 8.5 -18.8125 13.59375 -19 15.703125 -19 
C 16.296875 -19 17.5 -19 17.5 -17.203125 
C 17.5 -16.109375 16.796875 -16.109375 15.09375 -16.109375 
C 10.5 -16.109375 10.203125 -15.421875 10.203125 -14.640625 
C 10.203125 -13.484375 14.703125 3.390625 15.296875 5.6875 
C 16.40625 2.890625 19.09375 -1 24.296875 -1 
C 35.59375 -1 47.796875 13.65625 47.796875 28.328125 
C 47.796875 37.5 42.59375 44 35.09375 44 
C 28.703125 44 23.296875 37.796875 22.203125 36.40625 
C 21.40625 41.390625 17.5 44 13.5 44 
C 10.59375 44 8.296875 42.59375 6.40625 38.796875 
C 4.59375 35.203125 3.203125 29.125 3.203125 28.71875 
C 3.203125 28.328125 3.59375 27.828125 4.296875 27.828125 
C 5.09375 27.828125 5.203125 27.921875 5.796875 30.21875 
C 7.296875 36.109375 9.203125 41.984375 13.203125 41.984375 
C 15.5 41.984375 16.296875 40.390625 16.296875 37.40625 
C 16.296875 35.015625 16 34.015625 15.59375 32.21875 
z
M 21.59375 31.125 
C 22.296875 33.90625 25.09375 36.8125 26.703125 38.203125 
C 27.796875 39.203125 31.09375 41.984375 34.90625 41.984375 
C 39.296875 41.984375 41.296875 37.609375 41.296875 32.421875 
C 41.296875 27.625 38.5 16.359375 36 11.171875 
C 33.5 5.78125 28.90625 1 24.296875 1 
C 17.5 1 16.40625 9.578125 16.40625 9.96875 
C 16.40625 10.265625 16.59375 11.0625 16.703125 11.5625 
z
" id="CMMI12-112"/>
      <path d="M 30.59375 -24.40625 
C 30.59375 -24.3125 30.59375 -24.109375 30.296875 -23.8125 
C 25.703125 -19.109375 13.40625 -6.296875 13.40625 24.9375 
C 13.40625 56.171875 25.5 68.875 30.40625 73.890625 
C 30.40625 73.984375 30.59375 74.1875 30.59375 74.484375 
C 30.59375 74.796875 30.296875 75 29.90625 75 
C 28.796875 75 20.296875 67.578125 15.40625 56.5625 
C 10.40625 45.453125 9 34.65625 9 25.046875 
C 9 17.828125 9.703125 5.625 15.703125 -7.296875 
C 20.5 -17.703125 28.703125 -25 29.90625 -25 
C 30.40625 -25 30.59375 -24.8125 30.59375 -24.40625 
z
" id="CMR17-40"/>
      <path d="M 38.90625 41.140625 
C 35.796875 40.59375 34.203125 38.390625 34.203125 36.1875 
C 34.203125 33.796875 36.09375 32.984375 37.5 32.984375 
C 40.296875 32.984375 42.59375 35.390625 42.59375 38.390625 
C 42.59375 41.421875 39.5 44 34.5 44 
C 30.5 44 25.90625 42.1875 21.703125 36.484375 
C 21 41.5625 17 44 13 44 
C 9.09375 44 7.09375 41.28125 5.90625 39.1875 
C 4.203125 35.59375 2.703125 29.5625 2.703125 29.0625 
C 2.703125 28.65625 3.09375 28.140625 3.796875 28.140625 
C 4.59375 28.140625 4.703125 28.25 5.296875 30.578125 
C 6.796875 36.59375 8.703125 41.984375 12.703125 41.984375 
C 15.09375 41.984375 15.796875 40.6875 15.796875 37.796875 
C 15.796875 35.59375 14.796875 31.6875 14.09375 28.546875 
L 11.296875 17.65625 
C 10.90625 15.734375 9.796875 11.1875 9.296875 9.375 
C 8.59375 6.75 7.5 2 7.5 1.5 
C 7.5 0.09375 8.59375 -1 10.09375 -1 
C 11.203125 -1 13.09375 -0.3125 13.703125 1.703125 
C 14 2.5 17.703125 17.75 18.296875 20.078125 
C 18.796875 22.296875 19.40625 24.40625 19.90625 26.640625 
C 20.296875 28.046875 20.703125 29.65625 21 30.96875 
C 21.296875 31.875 24 36.796875 26.5 38.984375 
C 27.703125 40.09375 30.296875 41.984375 34.40625 41.984375 
C 36 41.984375 37.59375 41.78125 38.90625 41.140625 
z
" id="CMMI12-114"/>
      <path d="M 26.296875 24.9375 
C 26.296875 32.140625 25.59375 44.359375 19.59375 57.265625 
C 14.796875 67.6875 6.59375 75 5.40625 75 
C 5.09375 75 4.703125 74.890625 4.703125 74.390625 
C 4.703125 74.1875 4.796875 74.09375 4.90625 73.890625 
C 9.703125 68.875 21.90625 56.171875 21.90625 25.046875 
C 21.90625 -6.1875 9.796875 -18.90625 4.90625 -23.90625 
C 4.796875 -24.109375 4.703125 -24.203125 4.703125 -24.40625 
C 4.703125 -24.90625 5.09375 -25 5.40625 -25 
C 6.5 -25 15 -17.609375 19.90625 -6.59375 
C 24.90625 4.515625 26.296875 15.328125 26.296875 24.9375 
z
" id="CMR17-41"/>
     </defs>
     <use transform="scale(0.996264)" xlink:href="#CMR17-80"/>
     <use transform="translate(62.586301 0)scale(0.996264)" xlink:href="#CMR17-114"/>
     <use transform="translate(97.867068 0)scale(0.996264)" xlink:href="#CMR17-101"/>
     <use transform="translate(138.352729 0)scale(0.996264)" xlink:href="#CMR17-115"/>
     <use transform="translate(174.154066 0)scale(0.996264)" xlink:href="#CMR17-115"/>
     <use transform="translate(209.955404 0)scale(0.996264)" xlink:href="#CMR17-117"/>
     <use transform="translate(260.850774 0)scale(0.996264)" xlink:href="#CMR17-114"/>
     <use transform="translate(296.131542 0)scale(0.996264)" xlink:href="#CMR17-101"/>
     <use transform="translate(366.693168 0)scale(0.996264)" xlink:href="#CMMI12-112"/>
     <use transform="translate(415.652682 0)scale(0.996264)" xlink:href="#CMR17-40"/>
     <use transform="translate(450.93345 0)scale(0.996264)" xlink:href="#CMMI12-114"/>
     <use transform="translate(497.604062 0)scale(0.996264)" xlink:href="#CMR17-41"/>
    </g>
   </g>
   <g id="legend_1">
    <g id="patch_7">
     <path d="M 158.975782 63.013741 
L 212.745054 63.013741 
Q 214.745054 63.013741 214.745054 61.013741 
L 214.745054 32.8 
Q 214.745054 30.8 212.745054 30.8 
L 158.975782 30.8 
Q 156.975782 30.8 156.975782 32.8 
L 156.975782 61.013741 
Q 156.975782 63.013741 158.975782 63.013741 
z
" style="fill:#ffffff;opacity:0.8;stroke:#cccccc;stroke-linejoin:miter;"/>
    </g>
    <g id="line2d_14">
     <path d="M 160.975782 38.898438 
L 180.975782 38.898438 
" style="fill:none;stroke:#000000;stroke-linecap:square;stroke-width:1.5;"/>
    </g>
    <g id="line2d_15"/>
    <g id="text_13">
     <!-- $p_{TOV}$ -->
     <g transform="translate(188.975782 42.398438)scale(0.1 -0.1)">
      <defs>
       <path d="M 41.703125 60.71875 
C 42.296875 63.09375 42.5 64 44 64.390625 
C 44.796875 64.59375 48.09375 64.59375 50.203125 64.59375 
C 60.203125 64.59375 64.90625 64.203125 64.90625 56.4375 
C 64.90625 54.9375 64.5 51.15625 63.90625 47.46875 
L 63.796875 46.28125 
C 63.796875 45.890625 64.203125 45.28125 64.796875 45.28125 
C 65.796875 45.28125 65.796875 45.78125 66.09375 47.375 
L 69 64.984375 
C 69.203125 65.890625 69.203125 66.09375 69.203125 66.390625 
C 69.203125 67.484375 68.59375 67.484375 66.59375 67.484375 
L 11.90625 67.484375 
C 9.59375 67.484375 9.5 67.390625 8.90625 65.59375 
L 2.796875 47.671875 
C 2.703125 47.46875 2.40625 46.375 2.40625 46.28125 
C 2.40625 45.78125 2.796875 45.28125 3.40625 45.28125 
C 4.203125 45.28125 4.40625 45.6875 4.796875 46.984375 
C 9 59.015625 11.09375 64.59375 24.40625 64.59375 
L 31.09375 64.59375 
C 33.5 64.59375 34.5 64.59375 34.5 63.5 
C 34.5 63.203125 34.5 63 34 61.203125 
L 20.59375 7.765625 
C 19.59375 3.890625 19.40625 2.890625 8.796875 2.890625 
C 6.296875 2.890625 5.59375 2.890625 5.59375 1 
C 5.59375 0 6.703125 0 7.203125 0 
C 9.703125 0 12.296875 0.1875 14.796875 0.1875 
L 30.40625 0.1875 
C 32.90625 0.1875 35.59375 0 38.09375 0 
C 39.203125 0 40.203125 0 40.203125 1.890625 
C 40.203125 2.890625 39.5 2.890625 36.90625 2.890625 
C 27.90625 2.890625 27.90625 3.78125 27.90625 5.28125 
C 27.90625 5.375 27.90625 6.078125 28.296875 7.671875 
z
" id="CMMI12-84"/>
       <path d="M 72.59375 43.5625 
C 72.59375 59.953125 61.796875 70 47.796875 70 
C 26.40625 70 4.796875 47.140625 4.796875 24.21875 
C 4.796875 8.625 15.203125 -2 29.703125 -2 
C 50.703125 -2 72.59375 19.75 72.59375 43.5625 
z
M 30.296875 0.296875 
C 22.09375 0.296875 13.40625 6.25 13.40625 21.734375 
C 13.40625 30.765625 16.703125 45.546875 24.90625 55.484375 
C 32.203125 64.21875 40.59375 67.796875 47.296875 67.796875 
C 56.09375 67.796875 64.59375 61.4375 64.59375 47.140625 
C 64.59375 38.3125 60.796875 24.515625 54.09375 15.078125 
C 46.796875 4.953125 37.703125 0.296875 30.296875 0.296875 
z
" id="CMMI12-79"/>
       <path d="M 61.90625 56.9375 
C 65.296875 62.296875 68.40625 64.6875 73.5 65.09375 
C 74.5 65.1875 75.296875 65.1875 75.296875 66.984375 
C 75.296875 67.390625 75.09375 68 74.203125 68 
C 72.40625 68 68.09375 67.796875 66.296875 67.796875 
C 63.40625 67.796875 60.40625 68 57.59375 68 
C 56.796875 68 55.796875 68 55.796875 66.09375 
C 55.796875 65.1875 56.703125 65.09375 57.09375 65.09375 
C 60.796875 64.78125 61.203125 63 61.203125 61.8125 
C 61.203125 60.3125 59.796875 58.03125 59.703125 57.9375 
L 28.296875 8.4375 
L 21.296875 62 
C 21.296875 64.890625 26.5 65.09375 27.59375 65.09375 
C 29.09375 65.09375 30 65.09375 30 66.984375 
C 30 68 28.90625 68 28.59375 68 
C 26.90625 68 24.90625 67.796875 23.203125 67.796875 
L 17.59375 67.796875 
C 10.296875 67.796875 7.296875 68 7.203125 68 
C 6.59375 68 5.40625 68 5.40625 66.1875 
C 5.40625 65.09375 6.09375 65.09375 7.703125 65.09375 
C 12.796875 65.09375 13.09375 64.1875 13.40625 61.703125 
L 21.40625 0.390625 
C 21.703125 -1.703125 21.703125 -2 23.09375 -2 
C 24.296875 -2 24.796875 -1.703125 25.796875 -0.109375 
z
" id="CMMI12-86"/>
      </defs>
      <use transform="scale(0.996264)" xlink:href="#CMMI12-112"/>
      <use transform="translate(48.959514 -14.943915)scale(0.697382)" xlink:href="#CMMI12-84"/>
      <use transform="translate(98.465836 -14.943915)scale(0.697382)" xlink:href="#CMMI12-79"/>
      <use transform="translate(152.547864 -14.943915)scale(0.697382)" xlink:href="#CMMI12-86"/>
     </g>
    </g>
    <g id="line2d_16">
     <path d="M 160.975782 53.576563 
L 180.975782 53.576563 
" style="fill:none;stroke:#000000;stroke-dasharray:1.5,2.475;stroke-dashoffset:0;stroke-width:1.5;"/>
    </g>
    <g id="line2d_17"/>
    <g id="text_14">
     <!-- $p_{LE}$ -->
     <g transform="translate(188.975782 57.076563)scale(0.1 -0.1)">
      <defs>
       <path d="M 36.703125 60.3125 
C 37.59375 64.09375 37.90625 65.09375 46.703125 65.09375 
C 49.40625 65.09375 50.09375 65.09375 50.09375 66.984375 
C 50.09375 68 49 68 48.59375 68 
C 46.59375 68 44.296875 67.796875 42.296875 67.796875 
L 28.90625 67.796875 
C 27 67.796875 24.796875 68 22.90625 68 
C 22.09375 68 21 68 21 66.09375 
C 21 65.09375 21.90625 65.09375 23.40625 65.09375 
C 29.5 65.09375 29.5 64.296875 29.5 63.203125 
C 29.5 63 29.5 62.40625 29.09375 60.90625 
L 15.59375 7.375 
C 14.703125 3.890625 14.5 2.890625 7.5 2.890625 
C 5.59375 2.890625 4.59375 2.890625 4.59375 1.09375 
C 4.59375 0 5.203125 0 7.203125 0 
L 52 0 
C 54.203125 0 54.296875 0.09375 55 1.890625 
L 62.703125 23.09375 
C 62.90625 23.59375 63.09375 24.1875 63.09375 24.484375 
C 63.09375 25.078125 62.59375 25.484375 62.09375 25.484375 
C 62 25.484375 61.5 25.484375 61.296875 25.078125 
C 61.09375 24.984375 61.09375 24.78125 60.296875 22.890625 
C 57.09375 14.140625 52.59375 2.890625 35.703125 2.890625 
L 26.09375 2.890625 
C 24.703125 2.890625 24.5 2.890625 23.90625 2.984375 
C 22.796875 3.09375 22.703125 3.296875 22.703125 4.09375 
C 22.703125 4.78125 22.90625 5.375 23.09375 6.28125 
z
" id="CMMI12-76"/>
       <path d="M 69.5 23.265625 
C 69.59375 23.5625 69.90625 24.265625 69.90625 24.65625 
C 69.90625 25.171875 69.5 25.671875 68.90625 25.671875 
C 68.5 25.671875 68.296875 25.5625 68 25.265625 
C 67.796875 25.171875 67.796875 24.96875 66.90625 22.953125 
C 61 8.90625 56.703125 2.890625 40.703125 2.890625 
L 26.09375 2.890625 
C 24.703125 2.890625 24.5 2.890625 23.90625 3 
C 22.796875 3.09375 22.703125 3.296875 22.703125 4.09375 
C 22.703125 4.796875 22.90625 5.40625 23.09375 6.296875 
L 30 34 
L 39.90625 34 
C 47.703125 34 48.296875 32.28125 48.296875 29.28125 
C 48.296875 28.28125 48.296875 27.375 47.59375 24.359375 
C 47.40625 23.96875 47.296875 23.5625 47.296875 23.265625 
C 47.296875 22.5625 47.796875 22.25 48.40625 22.25 
C 49.296875 22.25 49.40625 22.953125 49.796875 24.359375 
L 55.5 47.4375 
C 55.5 47.9375 55.09375 48.421875 54.5 48.421875 
C 53.59375 48.421875 53.5 48.03125 53.09375 46.65625 
C 51.09375 39.0625 49.09375 36.890625 40.203125 36.890625 
L 30.703125 36.890625 
L 36.90625 61.140625 
C 37.796875 64.59375 38 64.890625 42.09375 64.890625 
L 56.40625 64.890625 
C 68.703125 64.890625 71.203125 61.640625 71.203125 54.140625 
C 71.203125 54.046875 71.203125 51.28125 70.796875 48.03125 
C 70.703125 47.640625 70.59375 47.046875 70.59375 46.84375 
C 70.59375 46.0625 71.09375 45.765625 71.703125 45.765625 
C 72.40625 45.765625 72.796875 46.15625 73 47.9375 
L 75.09375 65.1875 
C 75.09375 65.484375 75.296875 66.484375 75.296875 66.6875 
C 75.296875 67.796875 74.40625 67.796875 72.59375 67.796875 
L 23.796875 67.796875 
C 21.90625 67.796875 20.90625 67.796875 20.90625 65.984375 
C 20.90625 64.890625 21.59375 64.890625 23.296875 64.890625 
C 29.5 64.890625 29.5 64.203125 29.5 63.109375 
C 29.5 62.625 29.40625 62.234375 29.09375 61.140625 
L 15.59375 7.40625 
C 14.703125 3.890625 14.5 2.890625 7.5 2.890625 
C 5.59375 2.890625 4.59375 2.890625 4.59375 1.09375 
C 4.59375 0 5.203125 0 7.203125 0 
L 57.40625 0 
C 59.59375 0 59.703125 0.09375 60.40625 1.6875 
z
" id="CMMI12-69"/>
      </defs>
      <use transform="scale(0.996264)" xlink:href="#CMMI12-112"/>
      <use transform="translate(48.959514 -14.943915)scale(0.697382)" xlink:href="#CMMI12-76"/>
      <use transform="translate(95.418928 -14.943915)scale(0.697382)" xlink:href="#CMMI12-69"/>
     </g>
    </g>
   </g>
  </g>
  <g id="axes_2">
   <g id="patch_8">
    <path d="M 251.949474 150.87717 
L 441.116707 150.87717 
L 441.116707 25.8 
L 251.949474 25.8 
z
" style="fill:#ffffff;"/>
   </g>
   <g id="matplotlib.axis_3">
    <g id="xtick_7">
     <g id="line2d_18">
      <g>
       <use style="stroke:#000000;stroke-width:0.8;" x="260.547984" xlink:href="#m8f04e03e79" y="150.87717"/>
      </g>
     </g>
     <g id="text_15">
      <!-- $\mathdefault{0.0}$ -->
      <g transform="translate(254.182945 164.795668)scale(0.1 -0.1)">
       <use transform="scale(0.996264)" xlink:href="#CMR17-48"/>
       <use transform="translate(45.690477 0)scale(0.996264)" xlink:href="#CMMI12-58"/>
       <use transform="translate(72.787654 0)scale(0.996264)" xlink:href="#CMR17-48"/>
      </g>
     </g>
    </g>
    <g id="xtick_8">
     <g id="line2d_19">
      <g>
       <use style="stroke:#000000;stroke-width:0.8;" x="294.942027" xlink:href="#m8f04e03e79" y="150.87717"/>
      </g>
     </g>
     <g id="text_16">
      <!-- $\mathdefault{0.2}$ -->
      <g transform="translate(288.576987 164.795668)scale(0.1 -0.1)">
       <use transform="scale(0.996264)" xlink:href="#CMR17-48"/>
       <use transform="translate(45.690477 0)scale(0.996264)" xlink:href="#CMMI12-58"/>
       <use transform="translate(72.787654 0)scale(0.996264)" xlink:href="#CMR17-50"/>
      </g>
     </g>
    </g>
    <g id="xtick_9">
     <g id="line2d_20">
      <g>
       <use style="stroke:#000000;stroke-width:0.8;" x="329.336069" xlink:href="#m8f04e03e79" y="150.87717"/>
      </g>
     </g>
     <g id="text_17">
      <!-- $\mathdefault{0.4}$ -->
      <g transform="translate(322.97103 164.795668)scale(0.1 -0.1)">
       <use transform="scale(0.996264)" xlink:href="#CMR17-48"/>
       <use transform="translate(45.690477 0)scale(0.996264)" xlink:href="#CMMI12-58"/>
       <use transform="translate(72.787654 0)scale(0.996264)" xlink:href="#CMR17-52"/>
      </g>
     </g>
    </g>
    <g id="xtick_10">
     <g id="line2d_21">
      <g>
       <use style="stroke:#000000;stroke-width:0.8;" x="363.730112" xlink:href="#m8f04e03e79" y="150.87717"/>
      </g>
     </g>
     <g id="text_18">
      <!-- $\mathdefault{0.6}$ -->
      <g transform="translate(357.365072 164.795668)scale(0.1 -0.1)">
       <use transform="scale(0.996264)" xlink:href="#CMR17-48"/>
       <use transform="translate(45.690477 0)scale(0.996264)" xlink:href="#CMMI12-58"/>
       <use transform="translate(72.787654 0)scale(0.996264)" xlink:href="#CMR17-54"/>
      </g>
     </g>
    </g>
    <g id="xtick_11">
     <g id="line2d_22">
      <g>
       <use style="stroke:#000000;stroke-width:0.8;" x="398.124154" xlink:href="#m8f04e03e79" y="150.87717"/>
      </g>
     </g>
     <g id="text_19">
      <!-- $\mathdefault{0.8}$ -->
      <g transform="translate(391.759115 164.795668)scale(0.1 -0.1)">
       <use transform="scale(0.996264)" xlink:href="#CMR17-48"/>
       <use transform="translate(45.690477 0)scale(0.996264)" xlink:href="#CMMI12-58"/>
       <use transform="translate(72.787654 0)scale(0.996264)" xlink:href="#CMR17-56"/>
      </g>
     </g>
    </g>
    <g id="xtick_12">
     <g id="line2d_23">
      <g>
       <use style="stroke:#000000;stroke-width:0.8;" x="432.518197" xlink:href="#m8f04e03e79" y="150.87717"/>
      </g>
     </g>
     <g id="text_20">
      <!-- $\mathdefault{1.0}$ -->
      <g transform="translate(426.153157 164.795668)scale(0.1 -0.1)">
       <use transform="scale(0.996264)" xlink:href="#CMR17-49"/>
       <use transform="translate(45.690477 0)scale(0.996264)" xlink:href="#CMMI12-58"/>
       <use transform="translate(72.787654 0)scale(0.996264)" xlink:href="#CMR17-48"/>
      </g>
     </g>
    </g>
   </g>
   <g id="matplotlib.axis_4">
    <g id="ytick_6">
     <g id="line2d_24">
      <g>
       <use style="stroke:#000000;stroke-width:0.8;" x="251.949474" xlink:href="#m6e228fa959" y="145.191847"/>
      </g>
     </g>
     <g id="text_21">
      <!-- $\mathdefault{0}$ -->
      <g transform="translate(239.968138 148.651096)scale(0.1 -0.1)">
       <use transform="scale(0.996264)" xlink:href="#CMR17-48"/>
      </g>
     </g>
    </g>
    <g id="ytick_7">
     <g id="line2d_25">
      <g>
       <use style="stroke:#000000;stroke-width:0.8;" x="251.949474" xlink:href="#m6e228fa959" y="111.426624"/>
      </g>
     </g>
     <g id="text_22">
      <!-- $\mathdefault{2}$ -->
      <g transform="translate(239.968138 114.885873)scale(0.1 -0.1)">
       <use transform="scale(0.996264)" xlink:href="#CMR17-50"/>
      </g>
     </g>
    </g>
    <g id="ytick_8">
     <g id="line2d_26">
      <g>
       <use style="stroke:#000000;stroke-width:0.8;" x="251.949474" xlink:href="#m6e228fa959" y="77.661402"/>
      </g>
     </g>
     <g id="text_23">
      <!-- $\mathdefault{4}$ -->
      <g transform="translate(239.968138 81.120651)scale(0.1 -0.1)">
       <use transform="scale(0.996264)" xlink:href="#CMR17-52"/>
      </g>
     </g>
    </g>
    <g id="ytick_9">
     <g id="line2d_27">
      <g>
       <use style="stroke:#000000;stroke-width:0.8;" x="251.949474" xlink:href="#m6e228fa959" y="43.896179"/>
      </g>
     </g>
     <g id="text_24">
      <!-- $\mathdefault{6}$ -->
      <g transform="translate(239.968138 47.355429)scale(0.1 -0.1)">
       <use transform="scale(0.996264)" xlink:href="#CMR17-54"/>
      </g>
     </g>
    </g>
   </g>
   <g id="line2d_28">
    <path clip-path="url(#pca563e9bc5)" d="M 260.547984 31.619629 
L 262.267686 32.73578 
L 263.987388 35.64158 
L 265.707091 40.300799 
L 267.426793 46.474154 
L 269.146495 53.848791 
L 270.866197 62.067161 
L 272.585899 70.755822 
L 274.305601 79.554093 
L 276.025303 88.139842 
L 277.745005 96.249594 
L 279.464708 103.69076 
L 281.18441 110.344932 
L 282.904112 116.16272 
L 284.623814 121.15208 
L 286.343516 125.363073 
L 288.063218 128.872115 
L 289.78292 131.768132 
L 291.502622 134.141986 
L 293.222325 136.079438 
L 294.942027 137.657237 
L 296.661729 138.941545 
L 298.381431 139.987906 
L 300.101133 140.842081 
L 301.820835 141.541288 
L 303.540537 142.115538 
L 305.260239 142.588903 
L 306.979942 142.980643 
L 308.699644 143.306148 
L 310.419346 143.577728 
L 312.139048 143.805246 
L 313.85875 143.996617 
L 315.578452 144.158221 
L 317.298154 144.295209 
L 319.017856 144.411761 
L 320.737559 144.511279 
L 322.457261 144.596543 
L 324.176963 144.669835 
L 325.896665 144.733034 
L 327.616367 144.787692 
L 329.336069 144.835099 
L 331.055771 144.87633 
L 332.775473 144.912281 
L 334.495176 144.943707 
L 336.214878 144.971242 
L 337.93458 144.995422 
L 339.654282 145.016702 
L 341.373984 145.035466 
L 343.093686 145.052044 
L 344.813388 145.066718 
L 346.53309 145.07973 
L 348.252793 145.091286 
L 349.972495 145.101565 
L 351.692197 145.110723 
L 353.411899 145.118893 
L 355.131601 145.126192 
L 356.851303 145.13272 
L 358.571005 145.138566 
L 360.290708 145.143808 
L 362.01041 145.148512 
L 363.730112 145.152738 
L 365.449814 145.156539 
L 367.169516 145.15996 
L 368.889218 145.163041 
L 370.60892 145.165819 
L 372.328622 145.168325 
L 374.048325 145.170588 
L 375.768027 145.172631 
L 377.487729 145.174479 
L 379.207431 145.176149 
L 380.927133 145.17766 
L 382.646835 145.179028 
L 384.366537 145.180266 
L 386.086239 145.181388 
L 387.805942 145.182404 
L 389.525644 145.183324 
L 391.245346 145.184158 
L 392.965048 145.184914 
L 394.68475 145.1856 
L 396.404452 145.186221 
L 398.124154 145.186784 
L 399.843856 145.187294 
L 401.563559 145.187756 
L 403.283261 145.188175 
L 405.002963 145.188554 
L 406.722665 145.188897 
L 408.442367 145.189208 
L 410.162069 145.189489 
L 411.881771 145.189742 
L 413.601473 145.189972 
L 415.321176 145.190179 
L 417.040878 145.190366 
L 418.76058 145.190534 
L 420.480282 145.190685 
L 422.199984 145.190822 
L 423.919686 145.190944 
L 425.639388 145.191054 
L 427.35909 145.191152 
L 429.078793 145.19124 
L 430.798495 145.191318 
L 432.518197 145.191388 
" style="fill:none;stroke:#000000;stroke-linecap:square;stroke-width:1.5;"/>
   </g>
   <g id="line2d_29">
    <path clip-path="url(#pca563e9bc5)" d="M 262.267686 32.7016 
L 263.987388 34.202299 
L 265.707091 36.992668 
L 267.426793 40.800927 
L 269.146495 45.464148 
L 270.866197 50.811785 
L 272.585899 56.662793 
L 274.305601 62.833694 
L 276.025303 69.148171 
L 277.745005 75.44594 
L 279.464708 81.589747 
L 281.18441 87.469852 
L 282.904112 93.005717 
L 284.623814 98.145082 
L 286.343516 102.860929 
L 288.063218 107.147109 
L 289.78292 111.013426 
L 291.502622 114.480858 
L 293.222325 117.577372 
L 294.942027 120.334561 
L 296.661729 122.785136 
L 298.381431 124.961198 
L 300.101133 126.893136 
L 301.820835 128.609009 
L 303.540537 130.134263 
L 305.260239 131.491687 
L 306.979942 132.701497 
L 308.699644 133.781512 
L 310.419346 134.747367 
L 312.139048 135.612744 
L 313.85875 136.389586 
L 315.578452 137.088315 
L 317.298154 137.718021 
L 319.017856 138.286635 
L 320.737559 138.801081 
L 322.457261 139.267411 
L 324.176963 139.690921 
L 325.896665 140.07625 
L 327.616367 140.427474 
L 329.336069 140.748172 
L 331.055771 141.041499 
L 332.775473 141.310238 
L 334.495176 141.556847 
L 336.214878 141.783506 
L 337.93458 141.992145 
L 339.654282 142.184482 
L 341.373984 142.362046 
L 343.093686 142.526199 
L 344.813388 142.67816 
L 346.53309 142.819019 
L 348.252793 142.949754 
L 349.972495 143.071241 
L 351.692197 143.184271 
L 353.411899 143.289555 
L 355.131601 143.387734 
L 356.851303 143.479389 
L 358.571005 143.565043 
L 360.290708 143.645174 
L 362.01041 143.720211 
L 363.730112 143.790549 
L 365.449814 143.856544 
L 367.169516 143.918521 
L 368.889218 143.976778 
L 370.60892 144.031585 
L 372.328622 144.083191 
L 374.048325 144.131824 
L 375.768027 144.177691 
L 377.487729 144.220984 
L 379.207431 144.261879 
L 380.927133 144.300537 
L 382.646835 144.337108 
L 384.366537 144.371729 
L 386.086239 144.404527 
L 387.805942 144.435619 
L 389.525644 144.465112 
L 391.245346 144.493108 
L 392.965048 144.519698 
L 394.68475 144.54497 
L 396.404452 144.569003 
L 398.124154 144.591871 
L 399.843856 144.613644 
L 401.563559 144.634385 
L 403.283261 144.654154 
L 405.002963 144.673007 
L 406.722665 144.690995 
L 408.442367 144.708168 
L 410.162069 144.724571 
L 411.881771 144.740245 
L 413.601473 144.755231 
L 415.321176 144.769565 
L 417.040878 144.783283 
L 418.76058 144.796417 
L 420.480282 144.808996 
L 422.199984 144.821051 
L 423.919686 144.832607 
L 425.639388 144.843691 
L 427.35909 144.854325 
L 429.078793 144.864533 
L 430.798495 144.874334 
L 432.518197 144.88375 
" style="fill:none;stroke:#000000;stroke-dasharray:5.55,2.4;stroke-dashoffset:0;stroke-width:1.5;"/>
   </g>
   <g id="line2d_30">
    <path clip-path="url(#pca563e9bc5)" d="M 260.547984 31.619629 
L 262.267686 31.619629 
L 263.987388 32.999653 
L 265.707091 35.037932 
L 267.426793 37.752022 
L 269.146495 41.09517 
L 270.866197 44.993565 
L 272.585899 49.359972 
L 274.305601 54.100346 
L 276.025303 59.118634 
L 277.745005 64.320695 
L 279.464708 69.617501 
L 281.18441 74.927599 
L 282.904112 80.178858 
L 284.623814 85.309505 
L 286.343516 90.268545 
L 288.063218 95.015642 
L 289.78292 99.520591 
L 291.502622 103.762472 
L 293.222325 107.728619 
L 294.942027 111.413476 
L 296.661729 114.81743 
L 298.381431 117.945685 
L 300.101133 120.8072 
L 301.820835 123.413744 
L 303.540537 125.779064 
L 305.260239 127.918178 
L 306.979942 129.84679 
L 308.699644 131.580815 
L 310.419346 133.136014 
L 312.139048 134.527708 
L 313.85875 135.770573 
L 315.578452 136.878504 
L 317.298154 137.864525 
L 319.017856 138.740737 
L 320.737559 139.51831 
L 322.457261 140.207487 
L 324.176963 140.817617 
L 325.896665 141.35719 
L 327.616367 141.833889 
L 329.336069 142.25464 
L 331.055771 142.625673 
L 332.775473 142.952573 
L 334.495176 143.240341 
L 336.214878 143.493439 
L 337.93458 143.71585 
L 339.654282 143.911116 
L 341.373984 144.082391 
L 343.093686 144.232472 
L 344.813388 144.363846 
L 346.53309 144.478715 
L 348.252793 144.579031 
L 349.972495 144.666523 
L 351.692197 144.742721 
L 353.411899 144.80898 
L 355.131601 144.866497 
L 356.851303 144.91633 
L 358.571005 144.959417 
L 360.290708 144.996583 
L 362.01041 145.02856 
L 363.730112 145.055994 
L 365.449814 145.079454 
L 367.169516 145.099444 
L 368.889218 145.116408 
L 370.60892 145.130739 
L 372.328622 145.142783 
L 374.048325 145.152846 
L 375.768027 145.161197 
L 377.487729 145.168073 
L 379.207431 145.173684 
L 380.927133 145.178216 
L 382.646835 145.181829 
L 384.366537 145.184669 
L 386.086239 145.186859 
L 387.805942 145.188512 
L 389.525644 145.189724 
L 391.245346 145.19058 
L 392.965048 145.191156 
L 394.68475 145.191517 
L 396.404452 145.19172 
L 398.124154 145.191814 
L 399.843856 145.191844 
" style="fill:none;stroke:#000000;stroke-dasharray:1.5,2.475;stroke-dashoffset:0;stroke-width:1.5;"/>
   </g>
   <g id="line2d_31">
    <path clip-path="url(#pca563e9bc5)" d="M 262.267686 31.485326 
L 263.987388 32.271441 
L 265.707091 33.560156 
L 267.426793 35.240585 
L 269.146495 37.318163 
L 270.866197 39.762187 
L 272.585899 42.535929 
L 274.305601 45.596513 
L 276.025303 48.898282 
L 277.745005 52.394473 
L 279.464708 56.038776 
L 281.18441 59.786551 
L 282.904112 63.595828 
L 284.623814 67.428015 
L 286.343516 71.248438 
L 288.063218 75.026602 
L 289.78292 78.736306 
L 291.502622 82.355605 
L 293.222325 85.866626 
L 294.942027 89.25531 
L 296.661729 92.511097 
L 298.381431 95.626552 
L 300.101133 98.596992 
L 301.820835 101.420109 
L 303.540537 104.095601 
L 305.260239 106.62484 
L 306.979942 109.010553 
L 308.699644 111.256538 
L 310.419346 113.367412 
L 312.139048 115.348417 
L 313.85875 117.205212 
L 315.578452 118.943721 
L 317.298154 120.570019 
L 319.017856 122.09021 
L 320.737559 123.510351 
L 322.457261 124.836388 
L 324.176963 126.074095 
L 325.896665 127.229051 
L 327.616367 128.306596 
L 329.336069 129.311829 
L 331.055771 130.249587 
L 332.775473 131.124444 
L 334.495176 131.940713 
L 336.214878 132.702445 
L 337.93458 133.413437 
L 339.654282 134.077244 
L 341.373984 134.697184 
L 343.093686 135.276351 
L 344.813388 135.817625 
L 346.53309 136.323688 
L 348.252793 136.797029 
L 349.972495 137.23996 
L 351.692197 137.654628 
L 353.411899 138.043024 
L 355.131601 138.406993 
L 356.851303 138.748246 
L 358.571005 139.068368 
L 360.290708 139.368827 
L 362.01041 139.650986 
L 363.730112 139.916104 
L 365.449814 140.16535 
L 367.169516 140.399806 
L 368.889218 140.620475 
L 370.60892 140.828288 
L 372.328622 141.024107 
L 374.048325 141.20873 
L 375.768027 141.3829 
L 377.487729 141.547306 
L 379.207431 141.702585 
L 380.927133 141.849331 
L 382.646835 141.988095 
L 384.366537 142.119389 
L 386.086239 142.243688 
L 387.805942 142.361435 
L 389.525644 142.473043 
L 391.245346 142.578893 
L 392.965048 142.679343 
L 394.68475 142.774726 
L 396.404452 142.86535 
L 398.124154 142.951505 
L 399.843856 143.03346 
" style="fill:none;stroke:#000000;stroke-dasharray:1.5,7.5;stroke-dashoffset:0;stroke-width:1.5;"/>
   </g>
   <g id="patch_9">
    <path d="M 251.949474 150.87717 
L 251.949474 25.8 
" style="fill:none;stroke:#000000;stroke-linecap:square;stroke-linejoin:miter;stroke-width:0.8;"/>
   </g>
   <g id="patch_10">
    <path d="M 441.116707 150.87717 
L 441.116707 25.8 
" style="fill:none;stroke:#000000;stroke-linecap:square;stroke-linejoin:miter;stroke-width:0.8;"/>
   </g>
   <g id="patch_11">
    <path d="M 251.949474 150.87717 
L 441.116707 150.87717 
" style="fill:none;stroke:#000000;stroke-linecap:square;stroke-linejoin:miter;stroke-width:0.8;"/>
   </g>
   <g id="patch_12">
    <path d="M 251.949474 25.8 
L 441.116707 25.8 
" style="fill:none;stroke:#000000;stroke-linecap:square;stroke-linejoin:miter;stroke-width:0.8;"/>
   </g>
   <g id="text_25">
    <!-- Density $\rho(r)$ -->
    <g transform="translate(314.750511 19.8)scale(0.12 -0.12)">
     <defs>
      <path d="M 5.203125 68 
L 5.203125 65.390625 
C 12.09375 65.390625 13.203125 65.390625 13.203125 60.90625 
L 13.203125 7.078125 
C 13.203125 2.59375 12.09375 2.59375 5.203125 2.59375 
L 5.203125 0 
L 37 0 
C 53.09375 0 66 14.734375 66 33.4375 
C 66 52.25 53.296875 68 37 68 
z
M 23.796875 2.59375 
C 19.796875 2.59375 19.59375 3.09375 19.59375 6.46875 
L 19.59375 61.5 
C 19.59375 64.890625 19.796875 65.390625 23.796875 65.390625 
L 35 65.390625 
C 43.296875 65.390625 58.59375 60.515625 58.59375 33.4375 
C 58.59375 19.40625 54.5 13.734375 52.59375 11.046875 
C 50.203125 7.96875 44.5 2.59375 35 2.59375 
z
" id="CMR17-68"/>
      <path d="M 41.5 30.53125 
C 41.5 35.65625 40.5 44 28.703125 44 
C 20.796875 44 16.703125 37.875 15.203125 33.84375 
L 15.09375 33.84375 
L 15.09375 44 
L 3.296875 42.890625 
L 3.296875 40.28125 
C 9.203125 40.28125 10.09375 39.6875 10.09375 34.859375 
L 10.09375 6.921875 
C 10.09375 3.09375 9.703125 2.59375 3.296875 2.59375 
L 3.296875 0 
C 5.703125 0.1875 10.09375 0.1875 12.703125 0.1875 
C 15.296875 0.1875 19.796875 0.1875 22.203125 0 
L 22.203125 2.59375 
C 15.796875 2.59375 15.40625 3 15.40625 6.921875 
L 15.40625 26.21875 
C 15.40625 35.453125 21 42.390625 28 42.390625 
C 35.40625 42.390625 36.203125 35.765625 36.203125 30.9375 
L 36.203125 6.921875 
C 36.203125 3.09375 35.796875 2.59375 29.40625 2.59375 
L 29.40625 0 
C 31.796875 0.1875 36.203125 0.1875 38.796875 0.1875 
C 41.40625 0.1875 45.90625 0.1875 48.296875 0 
L 48.296875 2.59375 
C 41.90625 2.59375 41.5 3 41.5 6.921875 
z
" id="CMR17-110"/>
      <path d="M 15.5 61.890625 
C 15.5 64.09375 13.703125 66 11.40625 66 
C 9.203125 66 7.296875 64.1875 7.296875 61.890625 
C 7.296875 59.6875 9.09375 57.796875 11.40625 57.796875 
C 13.59375 57.796875 15.5 59.59375 15.5 61.890625 
z
M 3.796875 42.890625 
L 3.796875 40.296875 
C 9.40625 40.296875 10.203125 39.6875 10.203125 34.859375 
L 10.203125 6.921875 
C 10.203125 3.09375 9.796875 2.59375 3.40625 2.59375 
L 3.40625 0 
C 5.796875 0.1875 10.09375 0.1875 12.59375 0.1875 
C 15 0.1875 19.09375 0.1875 21.40625 0 
L 21.40625 2.59375 
C 15.5 2.59375 15.296875 3.203125 15.296875 6.8125 
L 15.296875 44 
z
" id="CMR17-105"/>
      <path d="M 15.09375 40.390625 
L 29.09375 40.390625 
L 29.09375 43 
L 15.09375 43 
L 15.09375 62 
L 13.296875 62 
C 13.09375 51.4375 9.59375 42.1875 1.09375 41.984375 
L 1.09375 40.390625 
L 9.796875 40.390625 
L 9.796875 12.15625 
C 9.796875 10.234375 9.796875 -1 21.40625 -1 
C 27.296875 -1 30.703125 4.8125 30.703125 12.25 
L 30.703125 17.984375 
L 28.90625 17.984375 
L 28.90625 12.34375 
C 28.90625 5.421875 26.203125 0.796875 22 0.796875 
C 19.09375 0.796875 15.09375 2.796875 15.09375 11.953125 
z
" id="CMR17-116"/>
      <path d="M 39 34.109375 
C 41.5 40.296875 46 40.390625 47.40625 40.390625 
L 47.40625 43 
C 45.5 42.890625 43 42.796875 41.09375 42.796875 
C 39 42.796875 35.703125 42.796875 33.703125 43 
L 33.703125 40.390625 
C 37.5 40.09375 37.59375 37.25 37.59375 36.4375 
C 37.59375 35.4375 37.40625 34.921875 36.90625 33.71875 
L 26 6.390625 
L 14.09375 35.9375 
C 13.59375 37.15625 13.59375 37.859375 13.59375 37.96875 
C 13.59375 40.1875 15.90625 40.390625 18.296875 40.390625 
L 18.296875 43 
C 15.90625 42.796875 11.59375 42.796875 9.09375 42.796875 
C 6.40625 42.796875 3.203125 42.796875 1 43 
L 1 40.390625 
C 6.40625 40.390625 7 39.890625 8.296875 36.640625 
L 23.203125 -0.484375 
C 18.703125 -12.421875 16.09375 -19.40625 9.796875 -19.40625 
C 8.703125 -19.40625 6.203125 -19.109375 4.40625 -17.28125 
C 6.703125 -17.078125 7.703125 -15.65625 7.703125 -13.9375 
C 7.703125 -12.21875 6.5 -10.703125 4.5 -10.703125 
C 2.296875 -10.703125 1.203125 -12.21875 1.203125 -14.046875 
C 1.203125 -18.09375 5.296875 -21 9.796875 -21 
C 15.59375 -21 19.203125 -15.359375 21.203125 -10.296875 
z
" id="CMR17-121"/>
      <path d="M 3.09375 -16.953125 
C 3 -17.4375 2.796875 -18.03125 2.796875 -18.609375 
C 2.796875 -20.109375 4 -21.109375 5.5 -21.109375 
C 7 -21.109375 8.40625 -20.109375 9 -18.71875 
C 9.40625 -17.828125 12.203125 -6.09375 15.40625 6.078125 
C 17.40625 1.09375 21.09375 -1 25 -1 
C 36.296875 -1 49.09375 12.96875 49.09375 28.03125 
C 49.09375 38.703125 42.59375 44 35.703125 44 
C 26.90625 44 16.203125 34.90625 12.90625 21.640625 
z
M 24.90625 1 
C 18.09375 1 16.40625 8.875 16.40625 10.078125 
C 16.40625 10.671875 18.90625 20.140625 19.203125 21.640625 
C 24.296875 41.5 34.09375 41.984375 35.59375 41.984375 
C 40.09375 41.984375 42.59375 37.90625 42.59375 32.015625 
C 42.59375 26.9375 39.90625 17.046875 38.203125 12.859375 
C 35.203125 5.984375 30 1 24.90625 1 
z
" id="CMMI12-26"/>
     </defs>
     <use transform="scale(0.996264)" xlink:href="#CMR17-68"/>
     <use transform="translate(70.393556 0)scale(0.996264)" xlink:href="#CMR17-101"/>
     <use transform="translate(110.879216 0)scale(0.996264)" xlink:href="#CMR17-110"/>
     <use transform="translate(161.774586 0)scale(0.996264)" xlink:href="#CMR17-115"/>
     <use transform="translate(197.575924 0)scale(0.996264)" xlink:href="#CMR17-105"/>
     <use transform="translate(222.446982 0)scale(0.996264)" xlink:href="#CMR17-116"/>
     <use transform="translate(255.125296 0)scale(0.996264)" xlink:href="#CMR17-121"/>
     <use transform="translate(333.494178 0)scale(0.996264)" xlink:href="#CMMI12-26"/>
     <use transform="translate(383.808551 0)scale(0.996264)" xlink:href="#CMR17-40"/>
     <use transform="translate(419.089319 0)scale(0.996264)" xlink:href="#CMMI12-114"/>
     <use transform="translate(465.759931 0)scale(0.996264)" xlink:href="#CMR17-41"/>
    </g>
   </g>
   <g id="legend_2">
    <g id="patch_13">
     <path d="M 380.209054 92.369991 
L 434.116707 92.369991 
Q 436.116707 92.369991 436.116707 90.369991 
L 436.116707 32.8 
Q 436.116707 30.8 434.116707 30.8 
L 380.209054 30.8 
Q 378.209054 30.8 378.209054 32.8 
L 378.209054 90.369991 
Q 378.209054 92.369991 380.209054 92.369991 
z
" style="fill:#ffffff;opacity:0.8;stroke:#cccccc;stroke-linejoin:miter;"/>
    </g>
    <g id="line2d_32">
     <path d="M 382.209054 38.898438 
L 402.209054 38.898438 
" style="fill:none;stroke:#000000;stroke-linecap:square;stroke-width:1.5;"/>
    </g>
    <g id="line2d_33"/>
    <g id="text_26">
     <!-- $\rho_{TOV}$ -->
     <g transform="translate(410.209054 42.398438)scale(0.1 -0.1)">
      <use transform="scale(0.996264)" xlink:href="#CMMI12-26"/>
      <use transform="translate(50.314373 -14.943915)scale(0.697382)" xlink:href="#CMMI12-84"/>
      <use transform="translate(99.820695 -14.943915)scale(0.697382)" xlink:href="#CMMI12-79"/>
      <use transform="translate(153.902723 -14.943915)scale(0.697382)" xlink:href="#CMMI12-86"/>
     </g>
    </g>
    <g id="line2d_34">
     <path d="M 382.209054 53.576563 
L 402.209054 53.576563 
" style="fill:none;stroke:#000000;stroke-dasharray:5.55,2.4;stroke-dashoffset:0;stroke-width:1.5;"/>
    </g>
    <g id="line2d_35"/>
    <g id="text_27">
     <!-- $\bar{\rho}_{TOV}$ -->
     <g transform="translate(410.209054 57.076563)scale(0.1 -0.1)">
      <defs>
       <path d="M 39.90625 55 
L 39.90625 57.296875 
L 5.90625 57.296875 
L 5.90625 55 
z
" id="CMR17-22"/>
      </defs>
      <use transform="translate(10.441101 0.006461)scale(0.996264)" xlink:href="#CMR17-22"/>
      <use transform="scale(0.996264)" xlink:href="#CMMI12-26"/>
      <use transform="translate(50.314373 -14.943915)scale(0.697382)" xlink:href="#CMMI12-84"/>
      <use transform="translate(99.820695 -14.943915)scale(0.697382)" xlink:href="#CMMI12-79"/>
      <use transform="translate(153.902723 -14.943915)scale(0.697382)" xlink:href="#CMMI12-86"/>
     </g>
    </g>
    <g id="line2d_36">
     <path d="M 382.209054 68.254688 
L 402.209054 68.254688 
" style="fill:none;stroke:#000000;stroke-dasharray:1.5,2.475;stroke-dashoffset:0;stroke-width:1.5;"/>
    </g>
    <g id="line2d_37"/>
    <g id="text_28">
     <!-- $\rho_{LE}$ -->
     <g transform="translate(410.209054 71.754688)scale(0.1 -0.1)">
      <use transform="scale(0.996264)" xlink:href="#CMMI12-26"/>
      <use transform="translate(50.314373 -14.943915)scale(0.697382)" xlink:href="#CMMI12-76"/>
      <use transform="translate(96.773787 -14.943915)scale(0.697382)" xlink:href="#CMMI12-69"/>
     </g>
    </g>
    <g id="line2d_38">
     <path d="M 382.209054 82.932813 
L 402.209054 82.932813 
" style="fill:none;stroke:#000000;stroke-dasharray:1.5,7.5;stroke-dashoffset:0;stroke-width:1.5;"/>
    </g>
    <g id="line2d_39"/>
    <g id="text_29">
     <!-- $\bar{\rho}_{LE}$ -->
     <g transform="translate(410.209054 86.432813)scale(0.1 -0.1)">
      <use transform="translate(10.441101 0.006461)scale(0.996264)" xlink:href="#CMR17-22"/>
      <use transform="scale(0.996264)" xlink:href="#CMMI12-26"/>
      <use transform="translate(50.314373 -14.943915)scale(0.697382)" xlink:href="#CMMI12-76"/>
      <use transform="translate(96.773787 -14.943915)scale(0.697382)" xlink:href="#CMMI12-69"/>
     </g>
    </g>
   </g>
  </g>
  <g id="axes_3">
   <g id="patch_14">
    <path d="M 30.57782 313.47749 
L 219.745054 313.47749 
L 219.745054 188.400321 
L 30.57782 188.400321 
z
" style="fill:#ffffff;"/>
   </g>
   <g id="matplotlib.axis_5">
    <g id="xtick_13">
     <g id="line2d_40">
      <g>
       <use style="stroke:#000000;stroke-width:0.8;" x="39.176331" xlink:href="#m8f04e03e79" y="313.47749"/>
      </g>
     </g>
     <g id="text_30">
      <!-- $\mathdefault{0.0}$ -->
      <g transform="translate(32.811291 327.395989)scale(0.1 -0.1)">
       <use transform="scale(0.996264)" xlink:href="#CMR17-48"/>
       <use transform="translate(45.690477 0)scale(0.996264)" xlink:href="#CMMI12-58"/>
       <use transform="translate(72.787654 0)scale(0.996264)" xlink:href="#CMR17-48"/>
      </g>
     </g>
    </g>
    <g id="xtick_14">
     <g id="line2d_41">
      <g>
       <use style="stroke:#000000;stroke-width:0.8;" x="73.570373" xlink:href="#m8f04e03e79" y="313.47749"/>
      </g>
     </g>
     <g id="text_31">
      <!-- $\mathdefault{0.2}$ -->
      <g transform="translate(67.205334 327.395989)scale(0.1 -0.1)">
       <use transform="scale(0.996264)" xlink:href="#CMR17-48"/>
       <use transform="translate(45.690477 0)scale(0.996264)" xlink:href="#CMMI12-58"/>
       <use transform="translate(72.787654 0)scale(0.996264)" xlink:href="#CMR17-50"/>
      </g>
     </g>
    </g>
    <g id="xtick_15">
     <g id="line2d_42">
      <g>
       <use style="stroke:#000000;stroke-width:0.8;" x="107.964416" xlink:href="#m8f04e03e79" y="313.47749"/>
      </g>
     </g>
     <g id="text_32">
      <!-- $\mathdefault{0.4}$ -->
      <g transform="translate(101.599376 327.395989)scale(0.1 -0.1)">
       <use transform="scale(0.996264)" xlink:href="#CMR17-48"/>
       <use transform="translate(45.690477 0)scale(0.996264)" xlink:href="#CMMI12-58"/>
       <use transform="translate(72.787654 0)scale(0.996264)" xlink:href="#CMR17-52"/>
      </g>
     </g>
    </g>
    <g id="xtick_16">
     <g id="line2d_43">
      <g>
       <use style="stroke:#000000;stroke-width:0.8;" x="142.358458" xlink:href="#m8f04e03e79" y="313.47749"/>
      </g>
     </g>
     <g id="text_33">
      <!-- $\mathdefault{0.6}$ -->
      <g transform="translate(135.993419 327.395989)scale(0.1 -0.1)">
       <use transform="scale(0.996264)" xlink:href="#CMR17-48"/>
       <use transform="translate(45.690477 0)scale(0.996264)" xlink:href="#CMMI12-58"/>
       <use transform="translate(72.787654 0)scale(0.996264)" xlink:href="#CMR17-54"/>
      </g>
     </g>
    </g>
    <g id="xtick_17">
     <g id="line2d_44">
      <g>
       <use style="stroke:#000000;stroke-width:0.8;" x="176.752501" xlink:href="#m8f04e03e79" y="313.47749"/>
      </g>
     </g>
     <g id="text_34">
      <!-- $\mathdefault{0.8}$ -->
      <g transform="translate(170.387461 327.395989)scale(0.1 -0.1)">
       <use transform="scale(0.996264)" xlink:href="#CMR17-48"/>
       <use transform="translate(45.690477 0)scale(0.996264)" xlink:href="#CMMI12-58"/>
       <use transform="translate(72.787654 0)scale(0.996264)" xlink:href="#CMR17-56"/>
      </g>
     </g>
    </g>
    <g id="xtick_18">
     <g id="line2d_45">
      <g>
       <use style="stroke:#000000;stroke-width:0.8;" x="211.146543" xlink:href="#m8f04e03e79" y="313.47749"/>
      </g>
     </g>
     <g id="text_35">
      <!-- $\mathdefault{1.0}$ -->
      <g transform="translate(204.781504 327.395989)scale(0.1 -0.1)">
       <use transform="scale(0.996264)" xlink:href="#CMR17-49"/>
       <use transform="translate(45.690477 0)scale(0.996264)" xlink:href="#CMMI12-58"/>
       <use transform="translate(72.787654 0)scale(0.996264)" xlink:href="#CMR17-48"/>
      </g>
     </g>
    </g>
   </g>
   <g id="matplotlib.axis_6">
    <g id="ytick_10">
     <g id="line2d_46">
      <g>
       <use style="stroke:#000000;stroke-width:0.8;" x="30.57782" xlink:href="#m6e228fa959" y="307.792164"/>
      </g>
     </g>
     <g id="text_36">
      <!-- $\mathdefault{0.0}$ -->
      <g transform="translate(10.847741 311.251414)scale(0.1 -0.1)">
       <use transform="scale(0.996264)" xlink:href="#CMR17-48"/>
       <use transform="translate(45.690477 0)scale(0.996264)" xlink:href="#CMMI12-58"/>
       <use transform="translate(72.787654 0)scale(0.996264)" xlink:href="#CMR17-48"/>
      </g>
     </g>
    </g>
    <g id="ytick_11">
     <g id="line2d_47">
      <g>
       <use style="stroke:#000000;stroke-width:0.8;" x="30.57782" xlink:href="#m6e228fa959" y="267.838924"/>
      </g>
     </g>
     <g id="text_37">
      <!-- $\mathdefault{0.1}$ -->
      <g transform="translate(10.847741 271.298173)scale(0.1 -0.1)">
       <use transform="scale(0.996264)" xlink:href="#CMR17-48"/>
       <use transform="translate(45.690477 0)scale(0.996264)" xlink:href="#CMMI12-58"/>
       <use transform="translate(72.787654 0)scale(0.996264)" xlink:href="#CMR17-49"/>
      </g>
     </g>
    </g>
    <g id="ytick_12">
     <g id="line2d_48">
      <g>
       <use style="stroke:#000000;stroke-width:0.8;" x="30.57782" xlink:href="#m6e228fa959" y="227.885683"/>
      </g>
     </g>
     <g id="text_38">
      <!-- $\mathdefault{0.2}$ -->
      <g transform="translate(10.847741 231.344932)scale(0.1 -0.1)">
       <use transform="scale(0.996264)" xlink:href="#CMR17-48"/>
       <use transform="translate(45.690477 0)scale(0.996264)" xlink:href="#CMMI12-58"/>
       <use transform="translate(72.787654 0)scale(0.996264)" xlink:href="#CMR17-50"/>
      </g>
     </g>
    </g>
   </g>
   <g id="line2d_49">
    <path clip-path="url(#p41ffda85b5)" d="M 39.176331 307.792164 
L 40.896033 307.781013 
L 42.615735 307.704146 
L 44.335437 307.502571 
L 46.055139 307.129881 
L 47.774841 306.556425 
L 49.494543 305.77131 
L 51.214246 304.782064 
L 52.933948 303.612152 
L 54.65365 302.296862 
L 56.373352 300.878318 
L 58.093054 299.400454 
L 59.812756 297.904674 
L 61.532458 296.426727 
L 63.25216 294.994967 
L 64.971863 293.629908 
L 66.691565 292.344759 
L 68.411267 291.146553 
L 70.130969 290.037506 
L 71.850671 289.016358 
L 73.570373 288.079529 
L 75.290075 287.222036 
L 77.009777 286.438183 
L 78.72948 285.722029 
L 80.449182 285.067704 
L 82.168884 284.4696 
L 83.888586 283.922481 
L 85.608288 283.421527 
L 87.32799 282.962349 
L 89.047692 282.540978 
L 90.767394 282.153842 
L 92.487097 281.797733 
L 94.206799 281.469778 
L 95.926501 281.1674 
L 97.646203 280.888296 
L 99.365905 280.630399 
L 101.085607 280.391855 
L 102.805309 280.171001 
L 104.525011 279.966339 
L 106.244714 279.776524 
L 107.964416 279.600338 
L 109.684118 279.436683 
L 111.40382 279.284565 
L 113.123522 279.143083 
L 114.843224 279.011418 
L 116.562926 278.888826 
L 118.282628 278.774627 
L 120.002331 278.668202 
L 121.722033 278.568985 
L 123.441735 278.476458 
L 125.161437 278.390144 
L 126.881139 278.309608 
L 128.600841 278.234448 
L 130.320543 278.164294 
L 132.040245 278.098805 
L 133.759948 278.037666 
L 135.47965 277.980586 
L 137.199352 277.927296 
L 138.919054 277.877545 
L 140.638756 277.831104 
L 142.358458 277.787756 
L 144.07816 277.747301 
L 145.797862 277.709555 
L 147.517565 277.674342 
L 149.237267 277.641503 
L 150.956969 277.610886 
L 152.676671 277.58235 
L 154.396373 277.555765 
L 156.116075 277.531008 
L 157.835777 277.507962 
L 159.555479 277.486522 
L 161.275182 277.466585 
L 162.994884 277.448058 
L 164.714586 277.430851 
L 166.434288 277.414881 
L 168.15399 277.40007 
L 169.873692 277.386344 
L 171.593394 277.373635 
L 173.313096 277.361878 
L 175.032799 277.351011 
L 176.752501 277.340977 
L 178.472203 277.331721 
L 180.191905 277.323194 
L 181.911607 277.315347 
L 183.631309 277.308135 
L 185.351011 277.301515 
L 187.070713 277.295447 
L 188.790416 277.289894 
L 190.510118 277.284821 
L 192.22982 277.280192 
L 193.949522 277.275978 
L 195.669224 277.272148 
L 197.388926 277.268675 
L 199.108628 277.265532 
L 200.828331 277.262693 
L 202.548033 277.260137 
L 204.267735 277.257841 
L 205.987437 277.255784 
L 207.707139 277.253947 
L 209.426841 277.252312 
L 211.146543 277.250862 
" style="fill:none;stroke:#000000;stroke-linecap:square;stroke-width:1.5;"/>
   </g>
   <g id="line2d_50">
    <path clip-path="url(#p41ffda85b5)" d="M 39.176331 307.792164 
L 40.896033 307.780893 
L 42.615735 307.702615 
L 44.335437 307.493384 
L 46.055139 307.094605 
L 47.774841 306.455487 
L 49.494543 305.534717 
L 51.214246 304.301733 
L 52.933948 302.737295 
L 54.65365 300.833502 
L 56.373352 298.593248 
L 58.093054 296.029238 
L 59.812756 293.162662 
L 61.532458 290.021649 
L 63.25216 286.639613 
L 64.971863 283.053614 
L 66.691565 279.302784 
L 68.411267 275.426915 
L 70.130969 271.465233 
L 71.850671 267.45539 
L 73.570373 263.432673 
L 75.290075 259.429432 
L 77.009777 255.474694 
L 78.72948 251.593956 
L 80.449182 247.809118 
L 82.168884 244.138534 
L 83.888586 240.597161 
L 85.608288 237.196767 
L 87.32799 233.946177 
L 89.047692 230.851542 
L 90.767394 227.916682 
L 92.487097 225.143325 
L 94.206799 222.531398 
L 95.926501 220.079338 
L 97.646203 217.784289 
L 99.365905 215.642367 
L 101.085607 213.648868 
L 102.805309 211.798409 
L 104.525011 210.085153 
L 106.244714 208.50289 
L 107.964416 207.045202 
L 109.684118 205.705537 
L 111.40382 204.477307 
L 113.123522 203.35396 
L 114.843224 202.329029 
L 116.562926 201.396192 
L 118.282628 200.549294 
L 120.002331 199.782391 
L 121.722033 199.089761 
L 123.441735 198.465916 
L 125.161437 197.90563 
L 126.881139 197.403921 
L 128.600841 196.956064 
L 130.320543 196.557615 
L 132.040245 196.204347 
L 133.759948 195.892303 
L 135.47965 195.617778 
L 137.199352 195.377286 
L 138.919054 195.16758 
L 140.638756 194.985629 
L 142.358458 194.828605 
L 144.07816 194.693899 
L 145.797862 194.579087 
L 147.517565 194.481922 
L 149.237267 194.400338 
L 150.956969 194.332448 
L 152.676671 194.276497 
L 154.396373 194.230892 
L 156.116075 194.1942 
L 157.835777 194.165097 
L 159.555479 194.142395 
L 161.275182 194.125036 
L 162.994884 194.112064 
L 164.714586 194.102642 
L 166.434288 194.096024 
L 168.15399 194.091584 
L 169.873692 194.088758 
L 171.593394 194.087092 
L 173.313096 194.086212 
L 175.032799 194.085813 
L 176.752501 194.085678 
L 178.472203 194.085647 
" style="fill:none;stroke:#000000;stroke-dasharray:1.5,2.475;stroke-dashoffset:0;stroke-width:1.5;"/>
   </g>
   <g id="patch_15">
    <path d="M 30.57782 313.47749 
L 30.57782 188.400321 
" style="fill:none;stroke:#000000;stroke-linecap:square;stroke-linejoin:miter;stroke-width:0.8;"/>
   </g>
   <g id="patch_16">
    <path d="M 219.745054 313.47749 
L 219.745054 188.400321 
" style="fill:none;stroke:#000000;stroke-linecap:square;stroke-linejoin:miter;stroke-width:0.8;"/>
   </g>
   <g id="patch_17">
    <path d="M 30.57782 313.47749 
L 219.745054 313.47749 
" style="fill:none;stroke:#000000;stroke-linecap:square;stroke-linejoin:miter;stroke-width:0.8;"/>
   </g>
   <g id="patch_18">
    <path d="M 30.57782 188.400321 
L 219.745054 188.400321 
" style="fill:none;stroke:#000000;stroke-linecap:square;stroke-linejoin:miter;stroke-width:0.8;"/>
   </g>
   <g id="text_39">
    <!-- Mass $m(r)$ -->
    <g transform="translate(97.831224 182.400321)scale(0.12 -0.12)">
     <defs>
      <path d="M 20.90625 66.390625 
C 20.296875 67.890625 20.203125 68 18.09375 68 
L 5.296875 68 
L 5.296875 65.390625 
C 12.203125 65.390625 13.296875 65.390625 13.296875 60.90625 
L 13.296875 9.75 
C 13.296875 7.265625 13.296875 2.59375 5.296875 2.59375 
L 5.296875 0 
C 7.59375 0.1875 11.796875 0.1875 14.296875 0.1875 
C 16.796875 0.1875 21 0.1875 23.296875 0 
L 23.296875 2.59375 
C 15.296875 2.59375 15.296875 7.265625 15.296875 9.75 
L 15.296875 64.984375 
L 15.40625 64.984375 
L 38.90625 1.59375 
C 39.296875 0.59375 39.5 0 40.296875 0 
C 41.09375 0 41.296875 0.59375 41.703125 1.59375 
L 65.40625 65.484375 
L 65.5 65.484375 
L 65.5 7.078125 
C 65.5 2.59375 64.40625 2.59375 57.5 2.59375 
L 57.5 0 
C 60.203125 0.1875 65.59375 0.1875 68.5 0.1875 
C 71.40625 0.1875 76.90625 0.1875 79.59375 0 
L 79.59375 2.59375 
C 72.703125 2.59375 71.59375 2.59375 71.59375 7.078125 
L 71.59375 60.90625 
C 71.59375 65.390625 72.703125 65.390625 79.59375 65.390625 
L 79.59375 68 
L 66.90625 68 
C 64.796875 68 64.703125 67.890625 64.09375 66.390625 
L 42.5 8.0625 
z
" id="CMR17-77"/>
      <path d="M 36 25.875 
C 36 32 36 35.546875 31.796875 39.59375 
C 28.09375 42.984375 23.796875 44 20.40625 44 
C 12.5 44 6.796875 37.625 6.796875 30.890625 
C 6.796875 27.1875 9.796875 27 10.40625 27 
C 11.703125 27 14 27.796875 14 30.59375 
C 14 33.09375 12.09375 34.1875 10.40625 34.1875 
C 10 34.1875 9.5 34.09375 9.203125 34 
C 11.296875 40.53125 16.703125 42.390625 20.203125 42.390625 
C 25.203125 42.390625 30.703125 37.828125 30.703125 29.296875 
L 30.703125 25.5 
C 24.796875 25.296875 17.703125 24.5 12.09375 21.453125 
C 5.796875 17.921875 4 12.84375 4 9 
C 4 1.203125 13 -1 18.296875 -1 
C 23.796875 -1 28.90625 2.109375 31.09375 7.890625 
C 31.296875 3.421875 34.09375 -0.609375 38.5 -0.609375 
C 40.59375 -0.609375 45.90625 0.796875 45.90625 8.796875 
L 45.90625 14.46875 
L 44.09375 14.46875 
L 44.09375 8.703125 
C 44.09375 2.515625 41.40625 1.703125 40.09375 1.703125 
C 36 1.703125 36 6.96875 36 11.4375 
z
M 30.703125 13.859375 
C 30.703125 5.046875 24.5 0.59375 19 0.59375 
C 14 0.59375 10.09375 4.34375 10.09375 9 
C 10.09375 12.046875 11.40625 17.40625 17.203125 20.65625 
C 22 23.390625 27.5 23.796875 30.703125 24 
z
" id="CMR17-97"/>
      <path d="M 20.59375 29.21875 
C 20.796875 29.828125 23.296875 34.8125 27 38 
C 29.59375 40.390625 33 41.984375 36.90625 41.984375 
C 40.90625 41.984375 42.296875 39 42.296875 35.015625 
C 42.296875 34.40625 42.296875 32.421875 41.09375 27.734375 
L 38.59375 17.453125 
C 37.796875 14.453125 35.90625 7.078125 35.703125 5.984375 
C 35.296875 4.484375 34.703125 1.890625 34.703125 1.484375 
C 34.703125 0.09375 35.796875 -1 37.296875 -1 
C 40.296875 -1 40.796875 1.296875 41.703125 4.890625 
L 47.703125 28.71875 
C 47.90625 29.53125 53.09375 41.984375 64.09375 41.984375 
C 68.09375 41.984375 69.5 39 69.5 35.015625 
C 69.5 29.421875 65.59375 18.546875 63.40625 12.5625 
C 62.5 10.171875 62 8.875 62 7.078125 
C 62 2.59375 65.09375 -1 69.90625 -1 
C 79.203125 -1 82.703125 13.65625 82.703125 14.265625 
C 82.703125 14.765625 82.296875 15.15625 81.703125 15.15625 
C 80.796875 15.15625 80.703125 14.859375 80.203125 13.15625 
C 77.90625 5.1875 74.203125 1 70.203125 1 
C 69.203125 1 67.59375 1.09375 67.59375 4.28125 
C 67.59375 6.875 68.796875 10.078125 69.203125 11.171875 
C 71 15.953125 75.5 27.734375 75.5 33.515625 
C 75.5 39.5 72 44 64.40625 44 
C 57.703125 44 52.296875 40.203125 48.296875 34.3125 
C 48 39.703125 44.703125 44 37.203125 44 
C 28.296875 44 23.59375 37.703125 21.796875 35.203125 
C 21.5 40.890625 17.40625 44 13 44 
C 10.09375 44 7.796875 42.59375 5.90625 38.796875 
C 4.09375 35.203125 2.703125 29.125 2.703125 28.71875 
C 2.703125 28.328125 3.09375 27.828125 3.796875 27.828125 
C 4.59375 27.828125 4.703125 27.921875 5.296875 30.21875 
C 6.796875 36.109375 8.703125 41.984375 12.703125 41.984375 
C 15 41.984375 15.796875 40.390625 15.796875 37.40625 
C 15.796875 35.203125 14.796875 31.3125 14.09375 28.234375 
L 11.296875 17.453125 
C 10.90625 15.5625 9.796875 11.0625 9.296875 9.265625 
C 8.59375 6.671875 7.5 1.984375 7.5 1.484375 
C 7.5 0.09375 8.59375 -1 10.09375 -1 
C 11.296875 -1 12.703125 -0.40625 13.5 1.09375 
C 13.703125 1.59375 14.59375 5.078125 15.09375 7.078125 
L 17.296875 16.0625 
z
" id="CMMI12-109"/>
     </defs>
     <use transform="scale(0.996264)" xlink:href="#CMR17-77"/>
     <use transform="translate(84.686941 0)scale(0.996264)" xlink:href="#CMR17-97"/>
     <use transform="translate(130.377418 0)scale(0.996264)" xlink:href="#CMR17-115"/>
     <use transform="translate(166.178755 0)scale(0.996264)" xlink:href="#CMR17-115"/>
     <use transform="translate(232.056059 0)scale(0.996264)" xlink:href="#CMMI12-109"/>
     <use transform="translate(317.383284 0)scale(0.996264)" xlink:href="#CMR17-40"/>
     <use transform="translate(352.664052 0)scale(0.996264)" xlink:href="#CMMI12-114"/>
     <use transform="translate(399.334664 0)scale(0.996264)" xlink:href="#CMR17-41"/>
    </g>
   </g>
   <g id="legend_3">
    <g id="patch_19">
     <path d="M 37.57782 225.614061 
L 95.081972 225.614061 
Q 97.081972 225.614061 97.081972 223.614061 
L 97.081972 195.400321 
Q 97.081972 193.400321 95.081972 193.400321 
L 37.57782 193.400321 
Q 35.57782 193.400321 35.57782 195.400321 
L 35.57782 223.614061 
Q 35.57782 225.614061 37.57782 225.614061 
z
" style="fill:#ffffff;opacity:0.8;stroke:#cccccc;stroke-linejoin:miter;"/>
    </g>
    <g id="line2d_51">
     <path d="M 39.57782 201.498758 
L 59.57782 201.498758 
" style="fill:none;stroke:#000000;stroke-linecap:square;stroke-width:1.5;"/>
    </g>
    <g id="line2d_52"/>
    <g id="text_40">
     <!-- $m_{TOV}$ -->
     <g transform="translate(67.57782 204.998758)scale(0.1 -0.1)">
      <use transform="scale(0.996264)" xlink:href="#CMMI12-109"/>
      <use transform="translate(85.327224 -14.943915)scale(0.697382)" xlink:href="#CMMI12-84"/>
      <use transform="translate(134.833547 -14.943915)scale(0.697382)" xlink:href="#CMMI12-79"/>
      <use transform="translate(188.915575 -14.943915)scale(0.697382)" xlink:href="#CMMI12-86"/>
     </g>
    </g>
    <g id="line2d_53">
     <path d="M 39.57782 216.176883 
L 59.57782 216.176883 
" style="fill:none;stroke:#000000;stroke-dasharray:1.5,2.475;stroke-dashoffset:0;stroke-width:1.5;"/>
    </g>
    <g id="line2d_54"/>
    <g id="text_41">
     <!-- $m_{LE}$ -->
     <g transform="translate(67.57782 219.676883)scale(0.1 -0.1)">
      <use transform="scale(0.996264)" xlink:href="#CMMI12-109"/>
      <use transform="translate(85.327224 -14.943915)scale(0.697382)" xlink:href="#CMMI12-76"/>
      <use transform="translate(131.786638 -14.943915)scale(0.697382)" xlink:href="#CMMI12-69"/>
     </g>
    </g>
   </g>
  </g>
  <g id="axes_4">
   <g id="patch_20">
    <path d="M 251.949474 313.47749 
L 441.116707 313.47749 
L 441.116707 188.400321 
L 251.949474 188.400321 
z
" style="fill:#ffffff;"/>
   </g>
   <g id="matplotlib.axis_7">
    <g id="xtick_19">
     <g id="line2d_55">
      <g>
       <use style="stroke:#000000;stroke-width:0.8;" x="258.810911" xlink:href="#m8f04e03e79" y="313.47749"/>
      </g>
     </g>
     <g id="text_42">
      <!-- $\mathdefault{0.0}$ -->
      <g transform="translate(252.445872 327.395989)scale(0.1 -0.1)">
       <use transform="scale(0.996264)" xlink:href="#CMR17-48"/>
       <use transform="translate(45.690477 0)scale(0.996264)" xlink:href="#CMMI12-58"/>
       <use transform="translate(72.787654 0)scale(0.996264)" xlink:href="#CMR17-48"/>
      </g>
     </g>
    </g>
    <g id="xtick_20">
     <g id="line2d_56">
      <g>
       <use style="stroke:#000000;stroke-width:0.8;" x="293.552368" xlink:href="#m8f04e03e79" y="313.47749"/>
      </g>
     </g>
     <g id="text_43">
      <!-- $\mathdefault{0.2}$ -->
      <g transform="translate(287.187329 327.395989)scale(0.1 -0.1)">
       <use transform="scale(0.996264)" xlink:href="#CMR17-48"/>
       <use transform="translate(45.690477 0)scale(0.996264)" xlink:href="#CMMI12-58"/>
       <use transform="translate(72.787654 0)scale(0.996264)" xlink:href="#CMR17-50"/>
      </g>
     </g>
    </g>
    <g id="xtick_21">
     <g id="line2d_57">
      <g>
       <use style="stroke:#000000;stroke-width:0.8;" x="328.293826" xlink:href="#m8f04e03e79" y="313.47749"/>
      </g>
     </g>
     <g id="text_44">
      <!-- $\mathdefault{0.4}$ -->
      <g transform="translate(321.928786 327.395989)scale(0.1 -0.1)">
       <use transform="scale(0.996264)" xlink:href="#CMR17-48"/>
       <use transform="translate(45.690477 0)scale(0.996264)" xlink:href="#CMMI12-58"/>
       <use transform="translate(72.787654 0)scale(0.996264)" xlink:href="#CMR17-52"/>
      </g>
     </g>
    </g>
    <g id="xtick_22">
     <g id="line2d_58">
      <g>
       <use style="stroke:#000000;stroke-width:0.8;" x="363.035283" xlink:href="#m8f04e03e79" y="313.47749"/>
      </g>
     </g>
     <g id="text_45">
      <!-- $\mathdefault{0.6}$ -->
      <g transform="translate(356.670243 327.395989)scale(0.1 -0.1)">
       <use transform="scale(0.996264)" xlink:href="#CMR17-48"/>
       <use transform="translate(45.690477 0)scale(0.996264)" xlink:href="#CMMI12-58"/>
       <use transform="translate(72.787654 0)scale(0.996264)" xlink:href="#CMR17-54"/>
      </g>
     </g>
    </g>
    <g id="xtick_23">
     <g id="line2d_59">
      <g>
       <use style="stroke:#000000;stroke-width:0.8;" x="397.77674" xlink:href="#m8f04e03e79" y="313.47749"/>
      </g>
     </g>
     <g id="text_46">
      <!-- $\mathdefault{0.8}$ -->
      <g transform="translate(391.4117 327.395989)scale(0.1 -0.1)">
       <use transform="scale(0.996264)" xlink:href="#CMR17-48"/>
       <use transform="translate(45.690477 0)scale(0.996264)" xlink:href="#CMMI12-58"/>
       <use transform="translate(72.787654 0)scale(0.996264)" xlink:href="#CMR17-56"/>
      </g>
     </g>
    </g>
    <g id="xtick_24">
     <g id="line2d_60">
      <g>
       <use style="stroke:#000000;stroke-width:0.8;" x="432.518197" xlink:href="#m8f04e03e79" y="313.47749"/>
      </g>
     </g>
     <g id="text_47">
      <!-- $\mathdefault{1.0}$ -->
      <g transform="translate(426.153157 327.395989)scale(0.1 -0.1)">
       <use transform="scale(0.996264)" xlink:href="#CMR17-49"/>
       <use transform="translate(45.690477 0)scale(0.996264)" xlink:href="#CMMI12-58"/>
       <use transform="translate(72.787654 0)scale(0.996264)" xlink:href="#CMR17-48"/>
      </g>
     </g>
    </g>
   </g>
   <g id="matplotlib.axis_8">
    <g id="ytick_13">
     <g id="line2d_61">
      <g>
       <use style="stroke:#000000;stroke-width:0.8;" x="251.949474" xlink:href="#m6e228fa959" y="308.269745"/>
      </g>
     </g>
     <g id="text_48">
      <!-- $\mathdefault{0.0}$ -->
      <g transform="translate(232.219395 311.728994)scale(0.1 -0.1)">
       <use transform="scale(0.996264)" xlink:href="#CMR17-48"/>
       <use transform="translate(45.690477 0)scale(0.996264)" xlink:href="#CMMI12-58"/>
       <use transform="translate(72.787654 0)scale(0.996264)" xlink:href="#CMR17-48"/>
      </g>
     </g>
    </g>
    <g id="ytick_14">
     <g id="line2d_62">
      <g>
       <use style="stroke:#000000;stroke-width:0.8;" x="251.949474" xlink:href="#m6e228fa959" y="274.047179"/>
      </g>
     </g>
     <g id="text_49">
      <!-- $\mathdefault{0.2}$ -->
      <g transform="translate(232.219395 277.506428)scale(0.1 -0.1)">
       <use transform="scale(0.996264)" xlink:href="#CMR17-48"/>
       <use transform="translate(45.690477 0)scale(0.996264)" xlink:href="#CMMI12-58"/>
       <use transform="translate(72.787654 0)scale(0.996264)" xlink:href="#CMR17-50"/>
      </g>
     </g>
    </g>
    <g id="ytick_15">
     <g id="line2d_63">
      <g>
       <use style="stroke:#000000;stroke-width:0.8;" x="251.949474" xlink:href="#m6e228fa959" y="239.824612"/>
      </g>
     </g>
     <g id="text_50">
      <!-- $\mathdefault{0.4}$ -->
      <g transform="translate(232.219395 243.283862)scale(0.1 -0.1)">
       <use transform="scale(0.996264)" xlink:href="#CMR17-48"/>
       <use transform="translate(45.690477 0)scale(0.996264)" xlink:href="#CMMI12-58"/>
       <use transform="translate(72.787654 0)scale(0.996264)" xlink:href="#CMR17-52"/>
      </g>
     </g>
    </g>
    <g id="ytick_16">
     <g id="line2d_64">
      <g>
       <use style="stroke:#000000;stroke-width:0.8;" x="251.949474" xlink:href="#m6e228fa959" y="205.602046"/>
      </g>
     </g>
     <g id="text_51">
      <!-- $\mathdefault{0.6}$ -->
      <g transform="translate(232.219395 209.061295)scale(0.1 -0.1)">
       <use transform="scale(0.996264)" xlink:href="#CMR17-48"/>
       <use transform="translate(45.690477 0)scale(0.996264)" xlink:href="#CMMI12-58"/>
       <use transform="translate(72.787654 0)scale(0.996264)" xlink:href="#CMR17-54"/>
      </g>
     </g>
    </g>
   </g>
   <g id="line2d_65">
    <path clip-path="url(#p9e60edbbd8)" d="M 260.547984 307.792164 
L 262.285057 306.384908 
L 264.02213 304.135482 
L 265.759203 301.178634 
L 267.496276 297.68483 
L 269.233348 293.844794 
L 270.970421 289.852975 
L 272.707494 285.891906 
L 274.444567 282.119264 
L 276.18164 278.658935 
L 277.918713 275.596792 
L 279.655786 272.981066 
L 281.392858 270.82651 
L 283.129931 269.12104 
L 284.867004 267.833412 
L 286.604077 266.920638 
L 288.34115 266.334285 
L 290.078223 266.025225 
L 291.815296 265.946831 
L 293.552368 266.056837 
L 295.289441 266.318171 
L 297.026514 266.699102 
L 298.763587 267.172971 
L 300.50066 267.717686 
L 302.237733 268.315139 
L 303.974806 268.950617 
L 305.711878 269.612251 
L 307.448951 270.290526 
L 309.186024 270.977859 
L 310.923097 271.668243 
L 312.66017 272.356952 
L 314.397243 273.040296 
L 316.134316 273.715421 
L 317.871388 274.38015 
L 319.608461 275.032844 
L 321.345534 275.672302 
L 323.082607 276.29767 
L 324.81968 276.908375 
L 326.556753 277.504065 
L 328.293826 278.084563 
L 330.030898 278.649835 
L 331.767971 279.199953 
L 333.505044 279.735078 
L 335.242117 280.255435 
L 336.97919 280.761299 
L 338.716263 281.252983 
L 340.453335 281.730829 
L 342.190408 282.195197 
L 343.927481 282.646457 
L 345.664554 283.08499 
L 347.401627 283.511177 
L 349.1387 283.9254 
L 350.875773 284.328037 
L 352.612845 284.719461 
L 354.349918 285.100039 
L 356.086991 285.47013 
L 357.824064 285.830082 
L 359.561137 286.180237 
L 361.29821 286.520923 
L 363.035283 286.852461 
L 364.772355 287.175161 
L 366.509428 287.489322 
L 368.246501 287.795232 
L 369.983574 288.09317 
L 371.720647 288.383406 
L 373.45772 288.666197 
L 375.194793 288.941793 
L 376.931865 289.210435 
L 378.668938 289.472352 
L 380.406011 289.727769 
L 382.143084 289.976897 
L 383.880157 290.219943 
L 385.61723 290.457106 
L 387.354303 290.688574 
L 389.091375 290.914532 
L 390.828448 291.135156 
L 392.565521 291.350614 
L 394.302594 291.56107 
L 396.039667 291.766681 
L 397.77674 291.967597 
L 399.513813 292.163965 
L 401.250885 292.355923 
L 402.987958 292.543607 
L 404.725031 292.727145 
L 406.462104 292.906664 
L 408.199177 293.082283 
L 409.93625 293.254118 
L 411.673323 293.422281 
L 413.410395 293.586879 
L 415.147468 293.748016 
L 416.884541 293.905793 
L 418.621614 294.060306 
L 420.358687 294.211648 
L 422.09576 294.359909 
L 423.832833 294.505176 
L 425.569905 294.647533 
L 427.306978 294.78706 
L 429.044051 294.923835 
L 430.781124 295.057935 
L 432.518197 295.189432 
" style="fill:none;stroke:#000000;stroke-linecap:square;stroke-width:1.5;"/>
   </g>
   <g id="line2d_66">
    <path clip-path="url(#p9e60edbbd8)" d="M 260.547984 307.787001 
L 262.285057 306.352118 
L 264.02213 304.004327 
L 265.759203 300.800929 
L 267.496276 296.82023 
L 269.233348 292.155985 
L 270.970421 286.914152 
L 272.707494 281.208328 
L 274.444567 275.155576 
L 276.18164 268.872373 
L 277.918713 262.471035 
L 279.655786 256.056719 
L 281.392858 249.725091 
L 283.129931 243.560655 
L 284.867004 237.635786 
L 286.604077 232.010311 
L 288.34115 226.731642 
L 290.078223 221.835314 
L 291.815296 217.345829 
L 293.552368 213.277723 
L 295.289441 209.636777 
L 297.026514 206.421249 
L 298.763587 203.623127 
L 300.50066 201.229316 
L 302.237733 199.222743 
L 303.974806 197.583362 
L 305.711878 196.289043 
L 307.448951 195.316311 
L 309.186024 194.640986 
L 310.923097 194.238778 
L 312.66017 194.085647 
L 314.397243 194.158139 
L 316.134316 194.433718 
L 317.871388 194.890867 
L 319.608461 195.509268 
L 321.345534 196.269889 
L 323.082607 197.154967 
L 324.81968 198.148099 
L 326.556753 199.234151 
L 328.293826 200.399284 
L 330.030898 201.630868 
L 331.767971 202.917437 
L 333.505044 204.24863 
L 335.242117 205.615109 
L 336.97919 207.008505 
L 338.716263 208.421333 
L 340.453335 209.846935 
L 342.190408 211.279406 
L 343.927481 212.713532 
L 345.664554 214.144734 
L 347.401627 215.569003 
L 349.1387 216.982845 
L 350.875773 218.383261 
L 352.612845 219.767642 
L 354.349918 221.133784 
L 356.086991 222.479829 
L 357.824064 223.804216 
L 359.561137 225.105668 
L 361.29821 226.38315 
L 363.035283 227.635842 
L 364.772355 228.863132 
L 366.509428 230.064574 
L 368.246501 231.239872 
L 369.983574 232.388868 
L 371.720647 233.511534 
L 373.45772 234.607926 
L 375.194793 235.678205 
L 376.931865 236.722617 
L 378.668938 237.741468 
L 380.406011 238.735125 
L 382.143084 239.704015 
L 383.880157 240.648601 
L 385.61723 241.56939 
L 387.354303 242.466915 
L 389.091375 243.341751 
L 390.828448 244.194475 
L 392.565521 245.025694 
L 394.302594 245.836032 
L 396.039667 246.626116 
L 397.77674 247.396589 
L 399.513813 248.148093 
" style="fill:none;stroke:#000000;stroke-dasharray:1.5,2.475;stroke-dashoffset:0;stroke-width:1.5;"/>
   </g>
   <g id="patch_21">
    <path d="M 251.949474 313.47749 
L 251.949474 188.400321 
" style="fill:none;stroke:#000000;stroke-linecap:square;stroke-linejoin:miter;stroke-width:0.8;"/>
   </g>
   <g id="patch_22">
    <path d="M 441.116707 313.47749 
L 441.116707 188.400321 
" style="fill:none;stroke:#000000;stroke-linecap:square;stroke-linejoin:miter;stroke-width:0.8;"/>
   </g>
   <g id="patch_23">
    <path d="M 251.949474 313.47749 
L 441.116707 313.47749 
" style="fill:none;stroke:#000000;stroke-linecap:square;stroke-linejoin:miter;stroke-width:0.8;"/>
   </g>
   <g id="patch_24">
    <path d="M 251.949474 188.400321 
L 441.116707 188.400321 
" style="fill:none;stroke:#000000;stroke-linecap:square;stroke-linejoin:miter;stroke-width:0.8;"/>
   </g>
   <g id="text_52">
    <!-- Mass radius ratio $m/r$ -->
    <g transform="translate(289.417661 182.400321)scale(0.12 -0.12)">
     <defs>
      <path d="M 29.203125 67.890625 
L 29.203125 65.296875 
C 35.09375 65.296875 36 64.703125 36 60.046875 
L 36 37.046875 
C 35.59375 37.546875 31.5 44 23.40625 44 
C 13.203125 44 3.296875 34.8125 3.296875 21.5 
C 3.296875 8.265625 12.59375 -1 22.40625 -1 
C 30.90625 -1 35.296875 5.640625 35.796875 6.34375 
L 35.796875 -1 
L 47.90625 -0.203125 
L 47.90625 2.40625 
C 42 2.40625 41.09375 3.015625 41.09375 7.859375 
L 41.09375 69 
z
M 35.796875 11.90625 
C 35.796875 8.875 34 6.140625 31.703125 4.125 
C 28.296875 1.09375 24.90625 0.59375 23 0.59375 
C 20.09375 0.59375 9.703125 2.109375 9.703125 21.390625 
C 9.703125 41.1875 21.296875 42.390625 23.90625 42.390625 
C 28.5 42.390625 32.203125 39.765625 34.5 36.140625 
C 35.796875 34.015625 35.796875 33.703125 35.796875 31.890625 
z
" id="CMR17-100"/>
      <path d="M 43.09375 21.1875 
C 43.09375 34 33.796875 44 22.90625 44 
C 12 44 2.703125 34 2.703125 21.1875 
C 2.703125 8.59375 12 -1 22.90625 -1 
C 33.796875 -1 43.09375 8.59375 43.09375 21.1875 
z
M 22.90625 0.796875 
C 18.203125 0.796875 14.203125 3.59375 11.90625 7.5 
C 9.40625 12 9.09375 17.59375 9.09375 22 
C 9.09375 26.1875 9.296875 31.390625 11.90625 35.890625 
C 13.90625 39.1875 17.796875 42.390625 22.90625 42.390625 
C 27.40625 42.390625 31.203125 39.890625 33.59375 36.390625 
C 36.703125 31.6875 36.703125 25.09375 36.703125 22 
C 36.703125 18.09375 36.5 12.09375 33.796875 7.296875 
C 31 2.6875 26.703125 0.796875 22.90625 0.796875 
z
" id="CMR17-111"/>
      <path d="M 42.90625 71.296875 
C 42.90625 71.390625 43.5 72.890625 43.5 73.09375 
C 43.5 74.296875 42.5 75 41.703125 75 
C 41.203125 75 40.296875 75 39.5 72.796875 
L 6 -21.3125 
C 6 -21.40625 5.40625 -22.90625 5.40625 -23.109375 
C 5.40625 -24.3125 6.40625 -25 7.203125 -25 
C 7.796875 -25 8.703125 -24.90625 9.40625 -22.8125 
z
" id="CMMI12-61"/>
     </defs>
     <use transform="scale(0.996264)" xlink:href="#CMR17-77"/>
     <use transform="translate(84.686941 0)scale(0.996264)" xlink:href="#CMR17-97"/>
     <use transform="translate(130.377418 0)scale(0.996264)" xlink:href="#CMR17-115"/>
     <use transform="translate(166.178755 0)scale(0.996264)" xlink:href="#CMR17-115"/>
     <use transform="translate(232.056059 0)scale(0.996264)" xlink:href="#CMR17-114"/>
     <use transform="translate(267.336827 0)scale(0.996264)" xlink:href="#CMR17-97"/>
     <use transform="translate(313.027304 0)scale(0.996264)" xlink:href="#CMR17-100"/>
     <use transform="translate(363.922674 0)scale(0.996264)" xlink:href="#CMR17-105"/>
     <use transform="translate(388.793732 0)scale(0.996264)" xlink:href="#CMR17-117"/>
     <use transform="translate(439.689102 0)scale(0.996264)" xlink:href="#CMR17-115"/>
     <use transform="translate(505.566406 0)scale(0.996264)" xlink:href="#CMR17-114"/>
     <use transform="translate(540.847174 0)scale(0.996264)" xlink:href="#CMR17-97"/>
     <use transform="translate(586.537651 0)scale(0.996264)" xlink:href="#CMR17-116"/>
     <use transform="translate(621.818419 0)scale(0.996264)" xlink:href="#CMR17-105"/>
     <use transform="translate(646.689477 0)scale(0.996264)" xlink:href="#CMR17-111"/>
     <use transform="translate(722.455921 0)scale(0.996264)" xlink:href="#CMMI12-109"/>
     <use transform="translate(807.783145 0)scale(0.996264)" xlink:href="#CMMI12-61"/>
     <use transform="translate(856.558064 0)scale(0.996264)" xlink:href="#CMMI12-114"/>
    </g>
   </g>
   <g id="legend_4">
    <g id="patch_25">
     <path d="M 364.922567 226.578516 
L 434.116707 226.578516 
Q 436.116707 226.578516 436.116707 224.578516 
L 436.116707 195.400321 
Q 436.116707 193.400321 434.116707 193.400321 
L 364.922567 193.400321 
Q 362.922567 193.400321 362.922567 195.400321 
L 362.922567 224.578516 
Q 362.922567 226.578516 364.922567 226.578516 
z
" style="fill:#ffffff;opacity:0.8;stroke:#cccccc;stroke-linejoin:miter;"/>
    </g>
    <g id="line2d_67">
     <path d="M 366.922567 201.498758 
L 386.922567 201.498758 
" style="fill:none;stroke:#000000;stroke-linecap:square;stroke-width:1.5;"/>
    </g>
    <g id="line2d_68"/>
    <g id="text_53">
     <!-- $m_{TOV}/r$ -->
     <g transform="translate(394.922567 204.998758)scale(0.1 -0.1)">
      <use transform="scale(0.996264)" xlink:href="#CMMI12-109"/>
      <use transform="translate(85.327224 -14.943915)scale(0.697382)" xlink:href="#CMMI12-84"/>
      <use transform="translate(134.833547 -14.943915)scale(0.697382)" xlink:href="#CMMI12-79"/>
      <use transform="translate(188.915575 -14.943915)scale(0.697382)" xlink:href="#CMMI12-86"/>
      <use transform="translate(244.396577 0)scale(0.996264)" xlink:href="#CMMI12-61"/>
      <use transform="translate(293.171496 0)scale(0.996264)" xlink:href="#CMMI12-114"/>
     </g>
    </g>
    <g id="line2d_69">
     <path d="M 366.922567 216.587856 
L 386.922567 216.587856 
" style="fill:none;stroke:#000000;stroke-dasharray:1.5,2.475;stroke-dashoffset:0;stroke-width:1.5;"/>
    </g>
    <g id="line2d_70"/>
    <g id="text_54">
     <!-- $m_{LE}/r$ -->
     <g transform="translate(394.922567 220.087856)scale(0.1 -0.1)">
      <use transform="scale(0.996264)" xlink:href="#CMMI12-109"/>
      <use transform="translate(85.327224 -14.943915)scale(0.697382)" xlink:href="#CMMI12-76"/>
      <use transform="translate(131.786638 -14.943915)scale(0.697382)" xlink:href="#CMMI12-69"/>
      <use transform="translate(186.920675 0)scale(0.996264)" xlink:href="#CMMI12-61"/>
      <use transform="translate(235.695594 0)scale(0.996264)" xlink:href="#CMMI12-114"/>
     </g>
    </g>
   </g>
  </g>
 </g>
 <defs>
  <clipPath id="p5f1cf4ab68">
   <rect height="125.07717" width="189.167234" x="30.57782" y="25.8"/>
  </clipPath>
  <clipPath id="pca563e9bc5">
   <rect height="125.07717" width="189.167234" x="251.949474" y="25.8"/>
  </clipPath>
  <clipPath id="p41ffda85b5">
   <rect height="125.07717" width="189.167234" x="30.57782" y="188.400321"/>
  </clipPath>
  <clipPath id="p9e60edbbd8">
   <rect height="125.07717" width="189.167234" x="251.949474" y="188.400321"/>
  </clipPath>
 </defs>
</svg>
