<?xml version="1.0" encoding="utf-8" standalone="no"?>
<!DOCTYPE svg PUBLIC "-//W3C//DTD SVG 1.1//EN"
  "http://www.w3.org/Graphics/SVG/1.1/DTD/svg11.dtd">
<!-- Created with matplotlib (https://matplotlib.org/) -->
<svg height="288pt" version="1.1" viewBox="0 0 460.8 288" width="460.8pt" xmlns="http://www.w3.org/2000/svg" xmlns:xlink="http://www.w3.org/1999/xlink">
 <metadata>
  <rdf:RDF xmlns:cc="http://creativecommons.org/ns#" xmlns:dc="http://purl.org/dc/elements/1.1/" xmlns:rdf="http://www.w3.org/1999/02/22-rdf-syntax-ns#">
   <cc:Work>
    <dc:type rdf:resource="http://purl.org/dc/dcmitype/StillImage"/>
    <dc:date>2020-10-20T20:41:49.085444</dc:date>
    <dc:format>image/svg+xml</dc:format>
    <dc:creator>
     <cc:Agent>
      <dc:title>Matplotlib v3.3.2, https://matplotlib.org/</dc:title>
     </cc:Agent>
    </dc:creator>
   </cc:Work>
  </rdf:RDF>
 </metadata>
 <defs>
  <style type="text/css">*{stroke-linecap:butt;stroke-linejoin:round;}</style>
 </defs>
 <g id="figure_1">
  <g id="patch_1">
   <path d="M 0 288 
L 460.8 288 
L 460.8 0 
L 0 0 
z
" style="fill:#ffffff;"/>
  </g>
  <g id="axes_1">
   <g id="patch_2">
    <path d="M 57.6 252 
L 414.72 252 
L 414.72 34.56 
L 57.6 34.56 
z
" style="fill:#ffffff;"/>
   </g>
   <g id="matplotlib.axis_1">
    <g id="xtick_1">
     <g id="line2d_1">
      <defs>
       <path d="M 0 0 
L 0 3.5 
" id="m51ac499d42" style="stroke:#000000;stroke-width:0.8;"/>
      </defs>
      <g>
       <use style="stroke:#000000;stroke-width:0.8;" x="73.182117" xlink:href="#m51ac499d42" y="252"/>
      </g>
     </g>
     <g id="text_1">
      <!-- 0 -->
      <g transform="translate(70.000867 266.598437)scale(0.1 -0.1)">
       <defs>
        <path d="M 31.78125 66.40625 
Q 24.171875 66.40625 20.328125 58.90625 
Q 16.5 51.421875 16.5 36.375 
Q 16.5 21.390625 20.328125 13.890625 
Q 24.171875 6.390625 31.78125 6.390625 
Q 39.453125 6.390625 43.28125 13.890625 
Q 47.125 21.390625 47.125 36.375 
Q 47.125 51.421875 43.28125 58.90625 
Q 39.453125 66.40625 31.78125 66.40625 
z
M 31.78125 74.21875 
Q 44.046875 74.21875 50.515625 64.515625 
Q 56.984375 54.828125 56.984375 36.375 
Q 56.984375 17.96875 50.515625 8.265625 
Q 44.046875 -1.421875 31.78125 -1.421875 
Q 19.53125 -1.421875 13.0625 8.265625 
Q 6.59375 17.96875 6.59375 36.375 
Q 6.59375 54.828125 13.0625 64.515625 
Q 19.53125 74.21875 31.78125 74.21875 
z
" id="DejaVuSans-48"/>
       </defs>
       <use xlink:href="#DejaVuSans-48"/>
      </g>
     </g>
    </g>
    <g id="xtick_2">
     <g id="line2d_2">
      <g>
       <use style="stroke:#000000;stroke-width:0.8;" x="138.243148" xlink:href="#m51ac499d42" y="252"/>
      </g>
     </g>
     <g id="text_2">
      <!-- 1 -->
      <g transform="translate(135.061898 266.598437)scale(0.1 -0.1)">
       <defs>
        <path d="M 12.40625 8.296875 
L 28.515625 8.296875 
L 28.515625 63.921875 
L 10.984375 60.40625 
L 10.984375 69.390625 
L 28.421875 72.90625 
L 38.28125 72.90625 
L 38.28125 8.296875 
L 54.390625 8.296875 
L 54.390625 0 
L 12.40625 0 
z
" id="DejaVuSans-49"/>
       </defs>
       <use xlink:href="#DejaVuSans-49"/>
      </g>
     </g>
    </g>
    <g id="xtick_3">
     <g id="line2d_3">
      <g>
       <use style="stroke:#000000;stroke-width:0.8;" x="203.304179" xlink:href="#m51ac499d42" y="252"/>
      </g>
     </g>
     <g id="text_3">
      <!-- 2 -->
      <g transform="translate(200.122929 266.598437)scale(0.1 -0.1)">
       <defs>
        <path d="M 19.1875 8.296875 
L 53.609375 8.296875 
L 53.609375 0 
L 7.328125 0 
L 7.328125 8.296875 
Q 12.9375 14.109375 22.625 23.890625 
Q 32.328125 33.6875 34.8125 36.53125 
Q 39.546875 41.84375 41.421875 45.53125 
Q 43.3125 49.21875 43.3125 52.78125 
Q 43.3125 58.59375 39.234375 62.25 
Q 35.15625 65.921875 28.609375 65.921875 
Q 23.96875 65.921875 18.8125 64.3125 
Q 13.671875 62.703125 7.8125 59.421875 
L 7.8125 69.390625 
Q 13.765625 71.78125 18.9375 73 
Q 24.125 74.21875 28.421875 74.21875 
Q 39.75 74.21875 46.484375 68.546875 
Q 53.21875 62.890625 53.21875 53.421875 
Q 53.21875 48.921875 51.53125 44.890625 
Q 49.859375 40.875 45.40625 35.40625 
Q 44.1875 33.984375 37.640625 27.21875 
Q 31.109375 20.453125 19.1875 8.296875 
z
" id="DejaVuSans-50"/>
       </defs>
       <use xlink:href="#DejaVuSans-50"/>
      </g>
     </g>
    </g>
    <g id="xtick_4">
     <g id="line2d_4">
      <g>
       <use style="stroke:#000000;stroke-width:0.8;" x="268.36521" xlink:href="#m51ac499d42" y="252"/>
      </g>
     </g>
     <g id="text_4">
      <!-- 3 -->
      <g transform="translate(265.18396 266.598437)scale(0.1 -0.1)">
       <defs>
        <path d="M 40.578125 39.3125 
Q 47.65625 37.796875 51.625 33 
Q 55.609375 28.21875 55.609375 21.1875 
Q 55.609375 10.40625 48.1875 4.484375 
Q 40.765625 -1.421875 27.09375 -1.421875 
Q 22.515625 -1.421875 17.65625 -0.515625 
Q 12.796875 0.390625 7.625 2.203125 
L 7.625 11.71875 
Q 11.71875 9.328125 16.59375 8.109375 
Q 21.484375 6.890625 26.8125 6.890625 
Q 36.078125 6.890625 40.9375 10.546875 
Q 45.796875 14.203125 45.796875 21.1875 
Q 45.796875 27.640625 41.28125 31.265625 
Q 36.765625 34.90625 28.71875 34.90625 
L 20.21875 34.90625 
L 20.21875 43.015625 
L 29.109375 43.015625 
Q 36.375 43.015625 40.234375 45.921875 
Q 44.09375 48.828125 44.09375 54.296875 
Q 44.09375 59.90625 40.109375 62.90625 
Q 36.140625 65.921875 28.71875 65.921875 
Q 24.65625 65.921875 20.015625 65.03125 
Q 15.375 64.15625 9.8125 62.3125 
L 9.8125 71.09375 
Q 15.4375 72.65625 20.34375 73.4375 
Q 25.25 74.21875 29.59375 74.21875 
Q 40.828125 74.21875 47.359375 69.109375 
Q 53.90625 64.015625 53.90625 55.328125 
Q 53.90625 49.265625 50.4375 45.09375 
Q 46.96875 40.921875 40.578125 39.3125 
z
" id="DejaVuSans-51"/>
       </defs>
       <use xlink:href="#DejaVuSans-51"/>
      </g>
     </g>
    </g>
    <g id="xtick_5">
     <g id="line2d_5">
      <g>
       <use style="stroke:#000000;stroke-width:0.8;" x="333.426242" xlink:href="#m51ac499d42" y="252"/>
      </g>
     </g>
     <g id="text_5">
      <!-- 4 -->
      <g transform="translate(330.244992 266.598437)scale(0.1 -0.1)">
       <defs>
        <path d="M 37.796875 64.3125 
L 12.890625 25.390625 
L 37.796875 25.390625 
z
M 35.203125 72.90625 
L 47.609375 72.90625 
L 47.609375 25.390625 
L 58.015625 25.390625 
L 58.015625 17.1875 
L 47.609375 17.1875 
L 47.609375 0 
L 37.796875 0 
L 37.796875 17.1875 
L 4.890625 17.1875 
L 4.890625 26.703125 
z
" id="DejaVuSans-52"/>
       </defs>
       <use xlink:href="#DejaVuSans-52"/>
      </g>
     </g>
    </g>
    <g id="xtick_6">
     <g id="line2d_6">
      <g>
       <use style="stroke:#000000;stroke-width:0.8;" x="398.487273" xlink:href="#m51ac499d42" y="252"/>
      </g>
     </g>
     <g id="text_6">
      <!-- 5 -->
      <g transform="translate(395.306023 266.598437)scale(0.1 -0.1)">
       <defs>
        <path d="M 10.796875 72.90625 
L 49.515625 72.90625 
L 49.515625 64.59375 
L 19.828125 64.59375 
L 19.828125 46.734375 
Q 21.96875 47.46875 24.109375 47.828125 
Q 26.265625 48.1875 28.421875 48.1875 
Q 40.625 48.1875 47.75 41.5 
Q 54.890625 34.8125 54.890625 23.390625 
Q 54.890625 11.625 47.5625 5.09375 
Q 40.234375 -1.421875 26.90625 -1.421875 
Q 22.3125 -1.421875 17.546875 -0.640625 
Q 12.796875 0.140625 7.71875 1.703125 
L 7.71875 11.625 
Q 12.109375 9.234375 16.796875 8.0625 
Q 21.484375 6.890625 26.703125 6.890625 
Q 35.15625 6.890625 40.078125 11.328125 
Q 45.015625 15.765625 45.015625 23.390625 
Q 45.015625 31 40.078125 35.4375 
Q 35.15625 39.890625 26.703125 39.890625 
Q 22.75 39.890625 18.8125 39.015625 
Q 14.890625 38.140625 10.796875 36.28125 
z
" id="DejaVuSans-53"/>
       </defs>
       <use xlink:href="#DejaVuSans-53"/>
      </g>
     </g>
    </g>
    <g id="text_7">
     <!-- Exponent $n=\frac{1}{\gamma-1}$ -->
     <g transform="translate(192.31 282.178125)scale(0.1 -0.1)">
      <defs>
       <path d="M 9.8125 72.90625 
L 55.90625 72.90625 
L 55.90625 64.59375 
L 19.671875 64.59375 
L 19.671875 43.015625 
L 54.390625 43.015625 
L 54.390625 34.71875 
L 19.671875 34.71875 
L 19.671875 8.296875 
L 56.78125 8.296875 
L 56.78125 0 
L 9.8125 0 
z
" id="DejaVuSans-69"/>
       <path d="M 54.890625 54.6875 
L 35.109375 28.078125 
L 55.90625 0 
L 45.3125 0 
L 29.390625 21.484375 
L 13.484375 0 
L 2.875 0 
L 24.125 28.609375 
L 4.6875 54.6875 
L 15.28125 54.6875 
L 29.78125 35.203125 
L 44.28125 54.6875 
z
" id="DejaVuSans-120"/>
       <path d="M 18.109375 8.203125 
L 18.109375 -20.796875 
L 9.078125 -20.796875 
L 9.078125 54.6875 
L 18.109375 54.6875 
L 18.109375 46.390625 
Q 20.953125 51.265625 25.265625 53.625 
Q 29.59375 56 35.59375 56 
Q 45.5625 56 51.78125 48.09375 
Q 58.015625 40.1875 58.015625 27.296875 
Q 58.015625 14.40625 51.78125 6.484375 
Q 45.5625 -1.421875 35.59375 -1.421875 
Q 29.59375 -1.421875 25.265625 0.953125 
Q 20.953125 3.328125 18.109375 8.203125 
z
M 48.6875 27.296875 
Q 48.6875 37.203125 44.609375 42.84375 
Q 40.53125 48.484375 33.40625 48.484375 
Q 26.265625 48.484375 22.1875 42.84375 
Q 18.109375 37.203125 18.109375 27.296875 
Q 18.109375 17.390625 22.1875 11.75 
Q 26.265625 6.109375 33.40625 6.109375 
Q 40.53125 6.109375 44.609375 11.75 
Q 48.6875 17.390625 48.6875 27.296875 
z
" id="DejaVuSans-112"/>
       <path d="M 30.609375 48.390625 
Q 23.390625 48.390625 19.1875 42.75 
Q 14.984375 37.109375 14.984375 27.296875 
Q 14.984375 17.484375 19.15625 11.84375 
Q 23.34375 6.203125 30.609375 6.203125 
Q 37.796875 6.203125 41.984375 11.859375 
Q 46.1875 17.53125 46.1875 27.296875 
Q 46.1875 37.015625 41.984375 42.703125 
Q 37.796875 48.390625 30.609375 48.390625 
z
M 30.609375 56 
Q 42.328125 56 49.015625 48.375 
Q 55.71875 40.765625 55.71875 27.296875 
Q 55.71875 13.875 49.015625 6.21875 
Q 42.328125 -1.421875 30.609375 -1.421875 
Q 18.84375 -1.421875 12.171875 6.21875 
Q 5.515625 13.875 5.515625 27.296875 
Q 5.515625 40.765625 12.171875 48.375 
Q 18.84375 56 30.609375 56 
z
" id="DejaVuSans-111"/>
       <path d="M 54.890625 33.015625 
L 54.890625 0 
L 45.90625 0 
L 45.90625 32.71875 
Q 45.90625 40.484375 42.875 44.328125 
Q 39.84375 48.1875 33.796875 48.1875 
Q 26.515625 48.1875 22.3125 43.546875 
Q 18.109375 38.921875 18.109375 30.90625 
L 18.109375 0 
L 9.078125 0 
L 9.078125 54.6875 
L 18.109375 54.6875 
L 18.109375 46.1875 
Q 21.34375 51.125 25.703125 53.5625 
Q 30.078125 56 35.796875 56 
Q 45.21875 56 50.046875 50.171875 
Q 54.890625 44.34375 54.890625 33.015625 
z
" id="DejaVuSans-110"/>
       <path d="M 56.203125 29.59375 
L 56.203125 25.203125 
L 14.890625 25.203125 
Q 15.484375 15.921875 20.484375 11.0625 
Q 25.484375 6.203125 34.421875 6.203125 
Q 39.59375 6.203125 44.453125 7.46875 
Q 49.3125 8.734375 54.109375 11.28125 
L 54.109375 2.78125 
Q 49.265625 0.734375 44.1875 -0.34375 
Q 39.109375 -1.421875 33.890625 -1.421875 
Q 20.796875 -1.421875 13.15625 6.1875 
Q 5.515625 13.8125 5.515625 26.8125 
Q 5.515625 40.234375 12.765625 48.109375 
Q 20.015625 56 32.328125 56 
Q 43.359375 56 49.78125 48.890625 
Q 56.203125 41.796875 56.203125 29.59375 
z
M 47.21875 32.234375 
Q 47.125 39.59375 43.09375 43.984375 
Q 39.0625 48.390625 32.421875 48.390625 
Q 24.90625 48.390625 20.390625 44.140625 
Q 15.875 39.890625 15.1875 32.171875 
z
" id="DejaVuSans-101"/>
       <path d="M 18.3125 70.21875 
L 18.3125 54.6875 
L 36.8125 54.6875 
L 36.8125 47.703125 
L 18.3125 47.703125 
L 18.3125 18.015625 
Q 18.3125 11.328125 20.140625 9.421875 
Q 21.96875 7.515625 27.59375 7.515625 
L 36.8125 7.515625 
L 36.8125 0 
L 27.59375 0 
Q 17.1875 0 13.234375 3.875 
Q 9.28125 7.765625 9.28125 18.015625 
L 9.28125 47.703125 
L 2.6875 47.703125 
L 2.6875 54.6875 
L 9.28125 54.6875 
L 9.28125 70.21875 
z
" id="DejaVuSans-116"/>
       <path id="DejaVuSans-32"/>
       <path d="M 55.71875 33.015625 
L 49.3125 0 
L 40.28125 0 
L 46.6875 32.671875 
Q 47.125 34.96875 47.359375 36.71875 
Q 47.609375 38.484375 47.609375 39.5 
Q 47.609375 43.609375 45.015625 45.890625 
Q 42.4375 48.1875 37.796875 48.1875 
Q 30.5625 48.1875 25.34375 43.375 
Q 20.125 38.578125 18.5 30.328125 
L 12.5 0 
L 3.515625 0 
L 14.109375 54.6875 
L 23.09375 54.6875 
L 21.296875 46.09375 
Q 25.046875 50.828125 30.3125 53.40625 
Q 35.59375 56 41.40625 56 
Q 48.640625 56 52.609375 52.09375 
Q 56.59375 48.1875 56.59375 41.109375 
Q 56.59375 39.359375 56.375 37.359375 
Q 56.15625 35.359375 55.71875 33.015625 
z
" id="DejaVuSans-Oblique-110"/>
       <path d="M 10.59375 45.40625 
L 73.1875 45.40625 
L 73.1875 37.203125 
L 10.59375 37.203125 
z
M 10.59375 25.484375 
L 73.1875 25.484375 
L 73.1875 17.1875 
L 10.59375 17.1875 
z
" id="DejaVuSans-61"/>
       <path d="M 23.296875 46.09375 
L 28.71875 12.3125 
L 54 54.6875 
L 63.53125 54.6875 
L 30.8125 0 
L 26.765625 -20.796875 
L 17.78125 -20.796875 
L 21.828125 0 
L 15.4375 40.828125 
Q 14.453125 46.96875 9.8125 46.96875 
L 7.421875 46.96875 
L 8.890625 54.6875 
L 12.3125 54.6875 
Q 21.921875 54.6875 23.296875 46.09375 
z
" id="DejaVuSans-Oblique-947"/>
       <path d="M 10.59375 35.5 
L 73.1875 35.5 
L 73.1875 27.203125 
L 10.59375 27.203125 
z
" id="DejaVuSans-8722"/>
      </defs>
      <use transform="translate(0 0.16875)" xlink:href="#DejaVuSans-69"/>
      <use transform="translate(63.183594 0.16875)" xlink:href="#DejaVuSans-120"/>
      <use transform="translate(122.363281 0.16875)" xlink:href="#DejaVuSans-112"/>
      <use transform="translate(185.839844 0.16875)" xlink:href="#DejaVuSans-111"/>
      <use transform="translate(247.021484 0.16875)" xlink:href="#DejaVuSans-110"/>
      <use transform="translate(310.400391 0.16875)" xlink:href="#DejaVuSans-101"/>
      <use transform="translate(371.923828 0.16875)" xlink:href="#DejaVuSans-110"/>
      <use transform="translate(435.302734 0.16875)" xlink:href="#DejaVuSans-116"/>
      <use transform="translate(474.511719 0.16875)" xlink:href="#DejaVuSans-32"/>
      <use transform="translate(506.298828 0.16875)" xlink:href="#DejaVuSans-Oblique-110"/>
      <use transform="translate(589.160156 0.16875)" xlink:href="#DejaVuSans-61"/>
      <use transform="translate(756.431641 43.965625)scale(0.7)" xlink:href="#DejaVuSans-49"/>
      <use transform="translate(692.431641 -38.31875)scale(0.7)" xlink:href="#DejaVuSans-Oblique-947"/>
      <use transform="translate(747.495117 -38.31875)scale(0.7)" xlink:href="#DejaVuSans-8722"/>
      <use transform="translate(819.785156 -38.31875)scale(0.7)" xlink:href="#DejaVuSans-49"/>
      <path d="M 692.431641 18.965625 
L 692.431641 25.215625 
L 864.321289 25.215625 
L 864.321289 18.965625 
L 692.431641 18.965625 
z
"/>
     </g>
    </g>
   </g>
   <g id="matplotlib.axis_2">
    <g id="ytick_1">
     <g id="line2d_7">
      <defs>
       <path d="M 0 0 
L -3.5 0 
" id="m2c4967193f" style="stroke:#000000;stroke-width:0.8;"/>
      </defs>
      <g>
       <use style="stroke:#000000;stroke-width:0.8;" x="57.6" xlink:href="#m2c4967193f" y="242.116364"/>
      </g>
     </g>
     <g id="text_8">
      <!-- $\mathdefault{10^{-1}}$ -->
      <g transform="translate(27.1 245.915583)scale(0.1 -0.1)">
       <use transform="translate(0 0.684375)" xlink:href="#DejaVuSans-49"/>
       <use transform="translate(63.623047 0.684375)" xlink:href="#DejaVuSans-48"/>
       <use transform="translate(128.203125 38.965625)scale(0.7)" xlink:href="#DejaVuSans-8722"/>
       <use transform="translate(186.855469 38.965625)scale(0.7)" xlink:href="#DejaVuSans-49"/>
      </g>
     </g>
    </g>
    <g id="ytick_2">
     <g id="line2d_8">
      <g>
       <use style="stroke:#000000;stroke-width:0.8;" x="57.6" xlink:href="#m2c4967193f" y="167.360439"/>
      </g>
     </g>
     <g id="text_9">
      <!-- $\mathdefault{10^{0}}$ -->
      <g transform="translate(33 171.159658)scale(0.1 -0.1)">
       <use transform="translate(0 0.765625)" xlink:href="#DejaVuSans-49"/>
       <use transform="translate(63.623047 0.765625)" xlink:href="#DejaVuSans-48"/>
       <use transform="translate(128.203125 39.046875)scale(0.7)" xlink:href="#DejaVuSans-48"/>
      </g>
     </g>
    </g>
    <g id="ytick_3">
     <g id="line2d_9">
      <g>
       <use style="stroke:#000000;stroke-width:0.8;" x="57.6" xlink:href="#m2c4967193f" y="92.604514"/>
      </g>
     </g>
     <g id="text_10">
      <!-- $\mathdefault{10^{1}}$ -->
      <g transform="translate(33 96.403732)scale(0.1 -0.1)">
       <use transform="translate(0 0.684375)" xlink:href="#DejaVuSans-49"/>
       <use transform="translate(63.623047 0.684375)" xlink:href="#DejaVuSans-48"/>
       <use transform="translate(128.203125 38.965625)scale(0.7)" xlink:href="#DejaVuSans-49"/>
      </g>
     </g>
    </g>
    <g id="ytick_4">
     <g id="line2d_10">
      <defs>
       <path d="M 0 0 
L -2 0 
" id="mad44cad970" style="stroke:#000000;stroke-width:0.6;"/>
      </defs>
      <g>
       <use style="stroke:#000000;stroke-width:0.6;" x="57.6" xlink:href="#mad44cad970" y="249.360962"/>
      </g>
     </g>
    </g>
    <g id="ytick_5">
     <g id="line2d_11">
      <g>
       <use style="stroke:#000000;stroke-width:0.6;" x="57.6" xlink:href="#mad44cad970" y="245.537008"/>
      </g>
     </g>
    </g>
    <g id="ytick_6">
     <g id="line2d_12">
      <g>
       <use style="stroke:#000000;stroke-width:0.6;" x="57.6" xlink:href="#mad44cad970" y="219.612588"/>
      </g>
     </g>
    </g>
    <g id="ytick_7">
     <g id="line2d_13">
      <g>
       <use style="stroke:#000000;stroke-width:0.6;" x="57.6" xlink:href="#mad44cad970" y="206.448723"/>
      </g>
     </g>
    </g>
    <g id="ytick_8">
     <g id="line2d_14">
      <g>
       <use style="stroke:#000000;stroke-width:0.6;" x="57.6" xlink:href="#mad44cad970" y="197.108812"/>
      </g>
     </g>
    </g>
    <g id="ytick_9">
     <g id="line2d_15">
      <g>
       <use style="stroke:#000000;stroke-width:0.6;" x="57.6" xlink:href="#mad44cad970" y="189.864215"/>
      </g>
     </g>
    </g>
    <g id="ytick_10">
     <g id="line2d_16">
      <g>
       <use style="stroke:#000000;stroke-width:0.6;" x="57.6" xlink:href="#mad44cad970" y="183.944947"/>
      </g>
     </g>
    </g>
    <g id="ytick_11">
     <g id="line2d_17">
      <g>
       <use style="stroke:#000000;stroke-width:0.6;" x="57.6" xlink:href="#mad44cad970" y="178.940278"/>
      </g>
     </g>
    </g>
    <g id="ytick_12">
     <g id="line2d_18">
      <g>
       <use style="stroke:#000000;stroke-width:0.6;" x="57.6" xlink:href="#mad44cad970" y="174.605037"/>
      </g>
     </g>
    </g>
    <g id="ytick_13">
     <g id="line2d_19">
      <g>
       <use style="stroke:#000000;stroke-width:0.6;" x="57.6" xlink:href="#mad44cad970" y="170.781082"/>
      </g>
     </g>
    </g>
    <g id="ytick_14">
     <g id="line2d_20">
      <g>
       <use style="stroke:#000000;stroke-width:0.6;" x="57.6" xlink:href="#mad44cad970" y="144.856663"/>
      </g>
     </g>
    </g>
    <g id="ytick_15">
     <g id="line2d_21">
      <g>
       <use style="stroke:#000000;stroke-width:0.6;" x="57.6" xlink:href="#mad44cad970" y="131.692798"/>
      </g>
     </g>
    </g>
    <g id="ytick_16">
     <g id="line2d_22">
      <g>
       <use style="stroke:#000000;stroke-width:0.6;" x="57.6" xlink:href="#mad44cad970" y="122.352887"/>
      </g>
     </g>
    </g>
    <g id="ytick_17">
     <g id="line2d_23">
      <g>
       <use style="stroke:#000000;stroke-width:0.6;" x="57.6" xlink:href="#mad44cad970" y="115.108289"/>
      </g>
     </g>
    </g>
    <g id="ytick_18">
     <g id="line2d_24">
      <g>
       <use style="stroke:#000000;stroke-width:0.6;" x="57.6" xlink:href="#mad44cad970" y="109.189022"/>
      </g>
     </g>
    </g>
    <g id="ytick_19">
     <g id="line2d_25">
      <g>
       <use style="stroke:#000000;stroke-width:0.6;" x="57.6" xlink:href="#mad44cad970" y="104.184353"/>
      </g>
     </g>
    </g>
    <g id="ytick_20">
     <g id="line2d_26">
      <g>
       <use style="stroke:#000000;stroke-width:0.6;" x="57.6" xlink:href="#mad44cad970" y="99.849111"/>
      </g>
     </g>
    </g>
    <g id="ytick_21">
     <g id="line2d_27">
      <g>
       <use style="stroke:#000000;stroke-width:0.6;" x="57.6" xlink:href="#mad44cad970" y="96.025157"/>
      </g>
     </g>
    </g>
    <g id="ytick_22">
     <g id="line2d_28">
      <g>
       <use style="stroke:#000000;stroke-width:0.6;" x="57.6" xlink:href="#mad44cad970" y="70.100738"/>
      </g>
     </g>
    </g>
    <g id="ytick_23">
     <g id="line2d_29">
      <g>
       <use style="stroke:#000000;stroke-width:0.6;" x="57.6" xlink:href="#mad44cad970" y="56.936873"/>
      </g>
     </g>
    </g>
    <g id="ytick_24">
     <g id="line2d_30">
      <g>
       <use style="stroke:#000000;stroke-width:0.6;" x="57.6" xlink:href="#mad44cad970" y="47.596962"/>
      </g>
     </g>
    </g>
    <g id="ytick_25">
     <g id="line2d_31">
      <g>
       <use style="stroke:#000000;stroke-width:0.6;" x="57.6" xlink:href="#mad44cad970" y="40.352364"/>
      </g>
     </g>
    </g>
   </g>
   <g id="LineCollection_1">
    <path clip-path="url(#p8090b22079)" d="M 398.487273 289 
L 398.487273 45.4383 
" style="fill:none;stroke:#000000;stroke-dasharray:5.55,2.4;stroke-dashoffset:0;stroke-width:1.5;"/>
   </g>
   <g id="line2d_32">
    <path clip-path="url(#p8090b22079)" d="M 73.832727 242.116364 
L 74.483338 242.116364 
L 75.133948 239.022016 
L 83.591882 239.022016 
L 84.242492 236.197098 
L 92.700426 236.197098 
L 93.351037 233.598425 
L 101.808971 233.598425 
L 102.459581 231.192427 
L 109.616294 231.192427 
L 110.266905 228.952498 
L 118.074228 228.952498 
L 118.724839 226.857187 
L 125.230942 226.857187 
L 125.881552 224.888941 
L 132.387655 224.888941 
L 133.038266 223.033231 
L 139.544369 223.033231 
L 140.194979 221.277881 
L 145.399862 221.277881 
L 146.050472 219.612588 
L 151.255354 219.612588 
L 151.905965 218.028564 
L 157.110847 218.028564 
L 157.761457 216.51824 
L 162.31573 216.51824 
L 162.96634 215.075064 
L 166.870002 215.075064 
L 167.520612 213.693322 
L 172.074884 213.693322 
L 172.725495 212.367991 
L 175.978546 212.367991 
L 176.629156 211.094649 
L 180.532818 211.094649 
L 181.183429 209.869366 
L 184.43648 209.869366 
L 185.087091 208.688652 
L 187.689532 208.688652 
L 188.340142 207.549375 
L 190.942583 207.549375 
L 191.593194 206.448722 
L 194.846245 206.448722 
L 195.496856 205.384166 
L 197.448686 205.384166 
L 198.099297 204.353411 
L 200.701738 204.353411 
L 201.352348 203.354373 
L 203.304179 203.354373 
L 203.95479 202.385166 
L 205.906621 202.385166 
L 206.557231 201.444055 
L 208.509062 201.444055 
L 209.159672 200.529455 
L 211.111503 200.529455 
L 211.762113 199.639918 
L 213.713944 199.639918 
L 214.364555 198.774105 
L 215.665775 198.774105 
L 216.316385 197.930784 
L 217.617606 197.930784 
L 218.268216 197.108812 
L 219.569437 197.108812 
L 220.220047 196.30714 
L 221.521268 196.30714 
L 222.171878 195.524788 
L 223.473099 195.524788 
L 224.123709 194.760843 
L 225.42493 194.760843 
L 226.07554 194.014464 
L 227.376761 194.014464 
L 228.027371 193.284859 
L 228.677981 193.284859 
L 229.328592 192.571289 
L 230.629812 192.571289 
L 231.280423 191.873067 
L 231.931033 191.873067 
L 232.581643 191.189546 
L 233.232254 191.189546 
L 233.882864 190.520117 
L 235.184085 190.520117 
L 235.834695 189.864215 
L 236.485305 189.864215 
L 237.135915 189.221302 
L 237.786526 189.221302 
L 238.437136 188.590873 
L 239.087746 188.590873 
L 239.738357 187.972453 
L 240.388967 187.972453 
L 241.690188 186.769866 
L 242.340798 186.769866 
L 242.991408 186.184876 
L 243.642019 186.184876 
L 244.292629 185.61024 
L 244.943239 185.61024 
L 246.24446 184.49061 
L 246.89507 184.49061 
L 248.196291 183.408305 
L 248.846901 183.408305 
L 250.148122 182.360922 
L 250.798732 182.360922 
L 252.750563 180.850598 
L 253.401173 180.850598 
L 256.003615 178.940279 
L 256.654225 178.940279 
L 261.208497 175.845931 
L 264.461549 173.803364 
L 265.112159 173.021012 
L 267.06399 171.881733 
L 267.7146 171.143836 
L 269.015821 170.422337 
L 269.666431 169.716525 
L 270.317041 169.369291 
L 270.967652 168.68577 
L 271.618262 168.349329 
L 272.268872 167.686734 
L 272.919483 167.360439 
L 274.220703 166.087097 
L 274.871314 165.776415 
L 278.124365 162.822916 
L 279.425586 161.712854 
L 280.076196 160.904529 
L 280.726806 160.376614 
L 281.377417 159.600496 
L 282.028027 159.093204 
L 282.678637 158.346822 
L 283.329248 157.858601 
L 287.88352 152.715778 
L 290.485961 149.565082 
L 291.787182 147.918561 
L 294.389623 144.21375 
L 296.992064 140.31914 
L 300.895726 133.472208 
L 302.847557 129.597484 
L 304.799388 125.236888 
L 306.751219 120.384643 
L 308.70305 114.849594 
L 310.654881 108.334603 
L 311.956101 103.314878 
L 313.257322 97.501141 
L 314.558543 90.682137 
L 315.859763 82.360152 
L 317.160984 71.612606 
L 317.811594 64.79599 
L 318.462204 56.400231 
L 319.112815 45.4383 
L 319.112815 45.4383 
" style="fill:none;stroke:#000000;stroke-linecap:square;stroke-width:1.5;"/>
   </g>
   <g id="line2d_33">
    <path clip-path="url(#p8090b22079)" d="M 75.133948 47.47544 
L 75.784558 56.742658 
L 76.435169 63.91204 
L 77.736389 74.696751 
L 79.03761 82.717317 
L 80.33883 89.099567 
L 81.640051 94.372492 
L 82.941272 98.850076 
L 84.242492 102.777496 
L 86.194323 107.863692 
L 88.146154 112.132215 
L 90.097985 115.896977 
L 92.049816 119.258538 
L 95.302868 124.01818 
L 97.905309 127.344031 
L 99.85714 129.597484 
L 101.808971 131.584758 
L 105.712633 135.354825 
L 107.013853 136.463834 
L 112.869346 140.888735 
L 116.773008 143.427608 
L 117.423618 143.739784 
L 118.074228 144.21375 
L 118.724839 144.533615 
L 119.375449 145.0194 
L 124.580332 147.740664 
L 125.881552 148.458177 
L 126.532163 148.64006 
L 127.833383 149.377957 
L 128.483993 149.565082 
L 129.134604 149.942598 
L 129.785214 150.133016 
L 130.435824 150.517236 
L 131.086435 150.711064 
L 131.737045 151.102226 
L 133.038266 151.498158 
L 133.688876 151.898979 
L 135.640707 152.509644 
L 136.291317 152.923232 
L 144.749251 155.748151 
L 146.701082 156.436503 
L 147.351692 156.436503 
L 149.303523 157.139766 
L 149.954134 157.139766 
L 151.905965 157.858601 
L 152.556575 157.858601 
L 153.857796 158.346822 
L 154.508406 158.346822 
L 155.809627 158.842499 
L 156.460237 158.842499 
L 157.761457 159.345859 
L 158.412068 159.345859 
L 159.062678 159.600496 
L 159.713288 159.600496 
L 160.363899 159.857146 
L 161.014509 159.857146 
L 161.665119 160.115841 
L 162.31573 160.115841 
L 162.96634 160.376614 
L 163.61695 160.376614 
L 164.267561 160.639499 
L 164.918171 160.639499 
L 165.568781 160.904529 
L 166.219392 160.904529 
L 166.870002 161.171741 
L 167.520612 161.171741 
L 168.171222 161.44117 
L 168.821833 161.44117 
L 169.472443 161.712854 
L 170.773664 161.712854 
L 171.424274 161.986834 
L 172.074884 161.986834 
L 172.725495 162.263143 
L 174.026715 162.263143 
L 174.677326 162.541823 
L 175.327936 162.541823 
L 175.978546 162.822916 
L 177.279767 162.822916 
L 177.930377 163.106464 
L 179.882208 163.106464 
L 180.532818 163.392511 
L 181.834039 163.392511 
L 182.484649 163.6811 
L 183.78587 163.6811 
L 184.43648 163.972277 
L 186.388311 163.972277 
L 187.038921 164.26609 
L 189.641363 164.26609 
L 190.291973 164.562585 
L 192.243804 164.562585 
L 192.894414 164.861814 
L 196.147466 164.861814 
L 196.798076 165.163826 
L 200.051128 165.163826 
L 200.701738 165.468677 
L 204.6054 165.468677 
L 205.25601 165.776415 
L 211.762113 165.776415 
L 212.412724 166.087097 
L 239.087746 166.087097 
L 239.738357 165.776415 
L 245.59385 165.776415 
L 246.24446 165.468677 
L 250.798732 165.468677 
L 251.449342 165.163826 
L 254.702394 165.163826 
L 255.353004 164.861814 
L 258.606056 164.861814 
L 259.256666 164.562585 
L 261.859107 164.562585 
L 262.509718 164.26609 
L 264.461549 164.26609 
L 265.112159 163.972277 
L 267.06399 163.972277 
L 267.7146 163.6811 
L 269.666431 163.6811 
L 270.317041 163.392511 
L 272.268872 163.392511 
L 272.919483 163.106464 
L 274.220703 163.106464 
L 274.871314 162.822916 
L 276.172534 162.822916 
L 276.823144 162.541823 
L 278.124365 162.541823 
L 278.774975 162.263143 
L 280.076196 162.263143 
L 280.726806 161.986834 
L 282.028027 161.986834 
L 282.678637 161.712854 
L 283.329248 161.712854 
L 283.979858 161.44117 
L 285.281079 161.44117 
L 285.931689 161.171741 
L 286.582299 161.171741 
L 287.232909 160.904529 
L 287.88352 160.904529 
L 288.53413 160.639499 
L 289.18474 160.639499 
L 289.835351 160.376614 
L 291.136571 160.376614 
L 291.787182 160.115841 
L 292.437792 160.115841 
L 293.088402 159.857146 
L 293.739013 159.857146 
L 294.389623 159.600496 
L 295.040233 159.600496 
L 296.341454 159.093204 
L 296.992064 159.093204 
L 297.642674 158.842499 
L 298.293285 158.842499 
L 298.943895 158.593716 
L 299.594505 158.593716 
L 300.895726 158.101794 
L 301.546336 158.101794 
L 302.847557 157.617217 
L 303.498167 157.617217 
L 304.799388 157.139766 
L 305.449998 157.139766 
L 306.751219 156.669235 
L 307.401829 156.669235 
L 309.35366 155.975984 
L 310.00427 155.975984 
L 312.606712 155.074088 
L 313.257322 155.074088 
L 321.715256 152.30481 
L 324.317697 151.498158 
L 324.968308 151.102226 
L 326.920138 150.517236 
L 327.570749 150.133016 
L 328.871969 149.753291 
L 329.52258 149.377957 
L 330.8238 149.006912 
L 331.474411 148.64006 
L 332.125021 148.458177 
L 332.775631 148.09744 
L 333.426242 147.918561 
L 334.727462 147.212749 
L 335.378073 147.038668 
L 336.679293 146.35153 
L 337.329903 146.181994 
L 347.739668 140.745397 
L 352.293941 137.872838 
L 354.245772 136.589428 
L 355.546992 135.720301 
L 360.751875 131.692798 
L 364.004926 128.894946 
L 366.607367 126.503137 
L 368.559198 124.4482 
L 371.16164 121.551215 
L 372.46286 120.004917 
L 373.764081 118.384959 
L 376.366522 114.849594 
L 378.318353 111.837333 
L 380.270184 108.546109 
L 382.222015 104.887617 
L 384.173846 100.754434 
L 386.125677 95.953089 
L 388.077508 90.317004 
L 389.378728 85.936408 
L 390.679949 80.878904 
L 391.98117 74.865504 
L 393.28239 67.49707 
L 394.583611 57.970422 
L 395.234221 51.89512 
L 395.884831 44.443636 
L 395.884831 44.443636 
" style="fill:none;stroke:#000000;stroke-dasharray:9.6,2.4,1.5,2.4;stroke-dashoffset:0;stroke-width:1.5;"/>
   </g>
   <g id="patch_3">
    <path d="M 57.6 252 
L 57.6 34.56 
" style="fill:none;stroke:#000000;stroke-linecap:square;stroke-linejoin:miter;stroke-width:0.8;"/>
   </g>
   <g id="patch_4">
    <path d="M 414.72 252 
L 414.72 34.56 
" style="fill:none;stroke:#000000;stroke-linecap:square;stroke-linejoin:miter;stroke-width:0.8;"/>
   </g>
   <g id="patch_5">
    <path d="M 57.6 252 
L 414.72 252 
" style="fill:none;stroke:#000000;stroke-linecap:square;stroke-linejoin:miter;stroke-width:0.8;"/>
   </g>
   <g id="patch_6">
    <path d="M 57.6 34.56 
L 414.72 34.56 
" style="fill:none;stroke:#000000;stroke-linecap:square;stroke-linejoin:miter;stroke-width:0.8;"/>
   </g>
   <g id="text_11">
    <!-- $r_0$ where $p(r_0)=0$ -->
    <g transform="translate(183.48 28.56)scale(0.12 -0.12)">
     <defs>
      <path d="M 44.578125 46.390625 
Q 43.21875 47.125 41.453125 47.515625 
Q 39.703125 47.90625 37.703125 47.90625 
Q 30.515625 47.90625 25.140625 42.453125 
Q 19.78125 37.015625 18.015625 27.875 
L 12.5 0 
L 3.515625 0 
L 14.203125 54.6875 
L 23.1875 54.6875 
L 21.484375 46.1875 
Q 25.046875 50.921875 30 53.453125 
Q 34.96875 56 40.578125 56 
Q 42.046875 56 43.453125 55.828125 
Q 44.875 55.671875 46.296875 55.28125 
z
" id="DejaVuSans-Oblique-114"/>
      <path d="M 4.203125 54.6875 
L 13.1875 54.6875 
L 24.421875 12.015625 
L 35.59375 54.6875 
L 46.1875 54.6875 
L 57.421875 12.015625 
L 68.609375 54.6875 
L 77.59375 54.6875 
L 63.28125 0 
L 52.6875 0 
L 40.921875 44.828125 
L 29.109375 0 
L 18.5 0 
z
" id="DejaVuSans-119"/>
      <path d="M 54.890625 33.015625 
L 54.890625 0 
L 45.90625 0 
L 45.90625 32.71875 
Q 45.90625 40.484375 42.875 44.328125 
Q 39.84375 48.1875 33.796875 48.1875 
Q 26.515625 48.1875 22.3125 43.546875 
Q 18.109375 38.921875 18.109375 30.90625 
L 18.109375 0 
L 9.078125 0 
L 9.078125 75.984375 
L 18.109375 75.984375 
L 18.109375 46.1875 
Q 21.34375 51.125 25.703125 53.5625 
Q 30.078125 56 35.796875 56 
Q 45.21875 56 50.046875 50.171875 
Q 54.890625 44.34375 54.890625 33.015625 
z
" id="DejaVuSans-104"/>
      <path d="M 41.109375 46.296875 
Q 39.59375 47.171875 37.8125 47.578125 
Q 36.03125 48 33.890625 48 
Q 26.265625 48 22.1875 43.046875 
Q 18.109375 38.09375 18.109375 28.8125 
L 18.109375 0 
L 9.078125 0 
L 9.078125 54.6875 
L 18.109375 54.6875 
L 18.109375 46.1875 
Q 20.953125 51.171875 25.484375 53.578125 
Q 30.03125 56 36.53125 56 
Q 37.453125 56 38.578125 55.875 
Q 39.703125 55.765625 41.0625 55.515625 
z
" id="DejaVuSans-114"/>
      <path d="M 49.609375 33.6875 
Q 49.609375 40.875 46.484375 44.671875 
Q 43.359375 48.484375 37.5 48.484375 
Q 33.5 48.484375 29.859375 46.4375 
Q 26.21875 44.390625 23.390625 40.484375 
Q 20.609375 36.625 18.9375 31.15625 
Q 17.28125 25.6875 17.28125 20.3125 
Q 17.28125 13.484375 20.40625 9.796875 
Q 23.53125 6.109375 29.296875 6.109375 
Q 33.546875 6.109375 37.1875 8.109375 
Q 40.828125 10.109375 43.40625 13.921875 
Q 46.1875 17.921875 47.890625 23.34375 
Q 49.609375 28.765625 49.609375 33.6875 
z
M 21.78125 46.390625 
Q 25.390625 51.125 30.296875 53.5625 
Q 35.203125 56 41.21875 56 
Q 49.609375 56 54.25 50.5 
Q 58.890625 45.015625 58.890625 35.109375 
Q 58.890625 27 56 19.65625 
Q 53.125 12.3125 47.703125 6.5 
Q 44.09375 2.640625 39.546875 0.609375 
Q 35.015625 -1.421875 29.984375 -1.421875 
Q 24.171875 -1.421875 20.21875 1 
Q 16.265625 3.421875 14.3125 8.203125 
L 8.6875 -20.796875 
L -0.296875 -20.796875 
L 14.40625 54.6875 
L 23.390625 54.6875 
z
" id="DejaVuSans-Oblique-112"/>
      <path d="M 31 75.875 
Q 24.46875 64.65625 21.28125 53.65625 
Q 18.109375 42.671875 18.109375 31.390625 
Q 18.109375 20.125 21.3125 9.0625 
Q 24.515625 -2 31 -13.1875 
L 23.1875 -13.1875 
Q 15.875 -1.703125 12.234375 9.375 
Q 8.59375 20.453125 8.59375 31.390625 
Q 8.59375 42.28125 12.203125 53.3125 
Q 15.828125 64.359375 23.1875 75.875 
z
" id="DejaVuSans-40"/>
      <path d="M 8.015625 75.875 
L 15.828125 75.875 
Q 23.140625 64.359375 26.78125 53.3125 
Q 30.421875 42.28125 30.421875 31.390625 
Q 30.421875 20.453125 26.78125 9.375 
Q 23.140625 -1.703125 15.828125 -13.1875 
L 8.015625 -13.1875 
Q 14.5 -2 17.703125 9.0625 
Q 20.90625 20.125 20.90625 31.390625 
Q 20.90625 42.671875 17.703125 53.65625 
Q 14.5 64.65625 8.015625 75.875 
z
" id="DejaVuSans-41"/>
     </defs>
     <use transform="translate(0 0.015625)" xlink:href="#DejaVuSans-Oblique-114"/>
     <use transform="translate(41.113281 -16.390625)scale(0.7)" xlink:href="#DejaVuSans-48"/>
     <use transform="translate(88.383789 0.015625)" xlink:href="#DejaVuSans-32"/>
     <use transform="translate(120.170898 0.015625)" xlink:href="#DejaVuSans-119"/>
     <use transform="translate(201.958008 0.015625)" xlink:href="#DejaVuSans-104"/>
     <use transform="translate(265.336914 0.015625)" xlink:href="#DejaVuSans-101"/>
     <use transform="translate(326.860352 0.015625)" xlink:href="#DejaVuSans-114"/>
     <use transform="translate(367.973633 0.015625)" xlink:href="#DejaVuSans-101"/>
     <use transform="translate(429.49707 0.015625)" xlink:href="#DejaVuSans-32"/>
     <use transform="translate(461.28418 0.015625)" xlink:href="#DejaVuSans-Oblique-112"/>
     <use transform="translate(524.760742 0.015625)" xlink:href="#DejaVuSans-40"/>
     <use transform="translate(563.774414 0.015625)" xlink:href="#DejaVuSans-Oblique-114"/>
     <use transform="translate(604.887695 -16.390625)scale(0.7)" xlink:href="#DejaVuSans-48"/>
     <use transform="translate(652.158203 0.015625)" xlink:href="#DejaVuSans-41"/>
     <use transform="translate(710.654297 0.015625)" xlink:href="#DejaVuSans-61"/>
     <use transform="translate(813.925781 0.015625)" xlink:href="#DejaVuSans-48"/>
    </g>
   </g>
   <g id="legend_1">
    <g id="patch_7">
     <path d="M 353.42 247 
L 407.72 247 
Q 409.72 247 409.72 245 
L 409.72 216.621875 
Q 409.72 214.621875 407.72 214.621875 
L 353.42 214.621875 
Q 351.42 214.621875 351.42 216.621875 
L 351.42 245 
Q 351.42 247 353.42 247 
z
" style="fill:#ffffff;opacity:0.8;stroke:#cccccc;stroke-linejoin:miter;"/>
    </g>
    <g id="line2d_34">
     <path d="M 355.42 222.720313 
L 375.42 222.720313 
" style="fill:none;stroke:#000000;stroke-linecap:square;stroke-width:1.5;"/>
    </g>
    <g id="line2d_35"/>
    <g id="text_12">
     <!-- $r_0$ -->
     <g transform="translate(383.42 226.220313)scale(0.1 -0.1)">
      <use xlink:href="#DejaVuSans-Oblique-114"/>
      <use transform="translate(41.113281 -16.40625)scale(0.7)" xlink:href="#DejaVuSans-48"/>
     </g>
    </g>
    <g id="line2d_36">
     <path d="M 355.42 237.4 
L 375.42 237.4 
" style="fill:none;stroke:#000000;stroke-dasharray:9.6,2.4,1.5,2.4;stroke-dashoffset:0;stroke-width:1.5;"/>
    </g>
    <g id="line2d_37"/>
    <g id="text_13">
     <!-- $\xi_0[r]$ -->
     <g transform="translate(383.42 240.9)scale(0.1 -0.1)">
      <defs>
       <path d="M 31.5 6.203125 
Q 37.9375 6.15625 41.0625 2.484375 
Q 44.4375 -1.375 43.3125 -7.234375 
Q 42.1875 -12.84375 37.84375 -16.75 
Q 33.109375 -21 25.140625 -21 
Q 25.875 -17.328125 26.5625 -13.625 
Q 29.890625 -13.875 32.375 -11.71875 
Q 34.28125 -10.015625 34.625 -8.203125 
Q 35.109375 -5.609375 33.984375 -3.46875 
Q 32.8125 -1.421875 30.03125 -1.421875 
Q -0.390625 -1.421875 3.765625 19.921875 
Q 6.59375 34.578125 23.6875 38.875 
Q 10.359375 40.625 12.84375 53.328125 
Q 14.703125 62.9375 26.21875 66.9375 
L 16.0625 66.9375 
L 17.828125 75.984375 
L 56.34375 75.984375 
L 54.59375 66.9375 
Q 23.875 66.9375 21.09375 52.734375 
Q 19.28125 43.40625 45.015625 42.96875 
L 43.40625 34.671875 
Q 15.765625 35.75 12.796875 19.921875 
Q 10.296875 6.6875 31.5 6.203125 
z
" id="DejaVuSans-Oblique-958"/>
       <path d="M 8.59375 75.984375 
L 29.296875 75.984375 
L 29.296875 69 
L 17.578125 69 
L 17.578125 -6.203125 
L 29.296875 -6.203125 
L 29.296875 -13.1875 
L 8.59375 -13.1875 
z
" id="DejaVuSans-91"/>
       <path d="M 30.421875 75.984375 
L 30.421875 -13.1875 
L 9.71875 -13.1875 
L 9.71875 -6.203125 
L 21.390625 -6.203125 
L 21.390625 69 
L 9.71875 69 
L 9.71875 75.984375 
z
" id="DejaVuSans-93"/>
      </defs>
      <use transform="translate(0 0.015625)" xlink:href="#DejaVuSans-Oblique-958"/>
      <use transform="translate(55.761719 -16.390625)scale(0.7)" xlink:href="#DejaVuSans-48"/>
      <use transform="translate(103.032227 0.015625)" xlink:href="#DejaVuSans-91"/>
      <use transform="translate(142.045898 0.015625)" xlink:href="#DejaVuSans-Oblique-114"/>
      <use transform="translate(183.15918 0.015625)" xlink:href="#DejaVuSans-93"/>
     </g>
    </g>
   </g>
  </g>
 </g>
 <defs>
  <clipPath id="p8090b22079">
   <rect height="217.44" width="357.12" x="57.6" y="34.56"/>
  </clipPath>
 </defs>
</svg>
