<?xml version="1.0" encoding="utf-8" standalone="no"?>
<!DOCTYPE svg PUBLIC "-//W3C//DTD SVG 1.1//EN"
  "http://www.w3.org/Graphics/SVG/1.1/DTD/svg11.dtd">
<!-- Created with matplotlib (https://matplotlib.org/) -->
<svg height="288pt" version="1.1" viewBox="0 0 432 288" width="432pt" xmlns="http://www.w3.org/2000/svg" xmlns:xlink="http://www.w3.org/1999/xlink">
 <metadata>
  <rdf:RDF xmlns:cc="http://creativecommons.org/ns#" xmlns:dc="http://purl.org/dc/elements/1.1/" xmlns:rdf="http://www.w3.org/1999/02/22-rdf-syntax-ns#">
   <cc:Work>
    <dc:type rdf:resource="http://purl.org/dc/dcmitype/StillImage"/>
    <dc:date>2020-12-01T07:11:54.521247</dc:date>
    <dc:format>image/svg+xml</dc:format>
    <dc:creator>
     <cc:Agent>
      <dc:title>Matplotlib v3.3.3, https://matplotlib.org/</dc:title>
     </cc:Agent>
    </dc:creator>
   </cc:Work>
  </rdf:RDF>
 </metadata>
 <defs>
  <style type="text/css">*{stroke-linecap:butt;stroke-linejoin:round;}</style>
 </defs>
 <g id="figure_1">
  <g id="patch_1">
   <path d="M 0 288 
L 432 288 
L 432 0 
L 0 0 
z
" style="fill:#ffffff;"/>
  </g>
  <g id="axes_1">
   <g id="patch_2">
    <path d="M 54 252 
L 321.84 252 
L 321.84 34.56 
L 54 34.56 
z
" style="fill:#ffffff;"/>
   </g>
   <g id="matplotlib.axis_1">
    <g id="xtick_1">
     <g id="line2d_1">
      <defs>
       <path d="M 0 0 
L 0 3.5 
" id="me8b07cb65e" style="stroke:#000000;stroke-width:0.8;"/>
      </defs>
      <g>
       <use style="stroke:#000000;stroke-width:0.8;" x="65.671465" xlink:href="#me8b07cb65e" y="252"/>
      </g>
     </g>
     <g id="text_1">
      <!-- 0 -->
      <g transform="translate(62.490215 266.598437)scale(0.1 -0.1)">
       <defs>
        <path d="M 31.78125 66.40625 
Q 24.171875 66.40625 20.328125 58.90625 
Q 16.5 51.421875 16.5 36.375 
Q 16.5 21.390625 20.328125 13.890625 
Q 24.171875 6.390625 31.78125 6.390625 
Q 39.453125 6.390625 43.28125 13.890625 
Q 47.125 21.390625 47.125 36.375 
Q 47.125 51.421875 43.28125 58.90625 
Q 39.453125 66.40625 31.78125 66.40625 
z
M 31.78125 74.21875 
Q 44.046875 74.21875 50.515625 64.515625 
Q 56.984375 54.828125 56.984375 36.375 
Q 56.984375 17.96875 50.515625 8.265625 
Q 44.046875 -1.421875 31.78125 -1.421875 
Q 19.53125 -1.421875 13.0625 8.265625 
Q 6.59375 17.96875 6.59375 36.375 
Q 6.59375 54.828125 13.0625 64.515625 
Q 19.53125 74.21875 31.78125 74.21875 
z
" id="DejaVuSans-48"/>
       </defs>
       <use xlink:href="#DejaVuSans-48"/>
      </g>
     </g>
    </g>
    <g id="xtick_2">
     <g id="line2d_2">
      <g>
       <use style="stroke:#000000;stroke-width:0.8;" x="115.979504" xlink:href="#me8b07cb65e" y="252"/>
      </g>
     </g>
     <g id="text_2">
      <!-- 1 -->
      <g transform="translate(112.798254 266.598437)scale(0.1 -0.1)">
       <defs>
        <path d="M 12.40625 8.296875 
L 28.515625 8.296875 
L 28.515625 63.921875 
L 10.984375 60.40625 
L 10.984375 69.390625 
L 28.421875 72.90625 
L 38.28125 72.90625 
L 38.28125 8.296875 
L 54.390625 8.296875 
L 54.390625 0 
L 12.40625 0 
z
" id="DejaVuSans-49"/>
       </defs>
       <use xlink:href="#DejaVuSans-49"/>
      </g>
     </g>
    </g>
    <g id="xtick_3">
     <g id="line2d_3">
      <g>
       <use style="stroke:#000000;stroke-width:0.8;" x="166.287543" xlink:href="#me8b07cb65e" y="252"/>
      </g>
     </g>
     <g id="text_3">
      <!-- 2 -->
      <g transform="translate(163.106293 266.598437)scale(0.1 -0.1)">
       <defs>
        <path d="M 19.1875 8.296875 
L 53.609375 8.296875 
L 53.609375 0 
L 7.328125 0 
L 7.328125 8.296875 
Q 12.9375 14.109375 22.625 23.890625 
Q 32.328125 33.6875 34.8125 36.53125 
Q 39.546875 41.84375 41.421875 45.53125 
Q 43.3125 49.21875 43.3125 52.78125 
Q 43.3125 58.59375 39.234375 62.25 
Q 35.15625 65.921875 28.609375 65.921875 
Q 23.96875 65.921875 18.8125 64.3125 
Q 13.671875 62.703125 7.8125 59.421875 
L 7.8125 69.390625 
Q 13.765625 71.78125 18.9375 73 
Q 24.125 74.21875 28.421875 74.21875 
Q 39.75 74.21875 46.484375 68.546875 
Q 53.21875 62.890625 53.21875 53.421875 
Q 53.21875 48.921875 51.53125 44.890625 
Q 49.859375 40.875 45.40625 35.40625 
Q 44.1875 33.984375 37.640625 27.21875 
Q 31.109375 20.453125 19.1875 8.296875 
z
" id="DejaVuSans-50"/>
       </defs>
       <use xlink:href="#DejaVuSans-50"/>
      </g>
     </g>
    </g>
    <g id="xtick_4">
     <g id="line2d_4">
      <g>
       <use style="stroke:#000000;stroke-width:0.8;" x="216.595582" xlink:href="#me8b07cb65e" y="252"/>
      </g>
     </g>
     <g id="text_4">
      <!-- 3 -->
      <g transform="translate(213.414332 266.598437)scale(0.1 -0.1)">
       <defs>
        <path d="M 40.578125 39.3125 
Q 47.65625 37.796875 51.625 33 
Q 55.609375 28.21875 55.609375 21.1875 
Q 55.609375 10.40625 48.1875 4.484375 
Q 40.765625 -1.421875 27.09375 -1.421875 
Q 22.515625 -1.421875 17.65625 -0.515625 
Q 12.796875 0.390625 7.625 2.203125 
L 7.625 11.71875 
Q 11.71875 9.328125 16.59375 8.109375 
Q 21.484375 6.890625 26.8125 6.890625 
Q 36.078125 6.890625 40.9375 10.546875 
Q 45.796875 14.203125 45.796875 21.1875 
Q 45.796875 27.640625 41.28125 31.265625 
Q 36.765625 34.90625 28.71875 34.90625 
L 20.21875 34.90625 
L 20.21875 43.015625 
L 29.109375 43.015625 
Q 36.375 43.015625 40.234375 45.921875 
Q 44.09375 48.828125 44.09375 54.296875 
Q 44.09375 59.90625 40.109375 62.90625 
Q 36.140625 65.921875 28.71875 65.921875 
Q 24.65625 65.921875 20.015625 65.03125 
Q 15.375 64.15625 9.8125 62.3125 
L 9.8125 71.09375 
Q 15.4375 72.65625 20.34375 73.4375 
Q 25.25 74.21875 29.59375 74.21875 
Q 40.828125 74.21875 47.359375 69.109375 
Q 53.90625 64.015625 53.90625 55.328125 
Q 53.90625 49.265625 50.4375 45.09375 
Q 46.96875 40.921875 40.578125 39.3125 
z
" id="DejaVuSans-51"/>
       </defs>
       <use xlink:href="#DejaVuSans-51"/>
      </g>
     </g>
    </g>
    <g id="xtick_5">
     <g id="line2d_5">
      <g>
       <use style="stroke:#000000;stroke-width:0.8;" x="266.903621" xlink:href="#me8b07cb65e" y="252"/>
      </g>
     </g>
     <g id="text_5">
      <!-- 4 -->
      <g transform="translate(263.722371 266.598437)scale(0.1 -0.1)">
       <defs>
        <path d="M 37.796875 64.3125 
L 12.890625 25.390625 
L 37.796875 25.390625 
z
M 35.203125 72.90625 
L 47.609375 72.90625 
L 47.609375 25.390625 
L 58.015625 25.390625 
L 58.015625 17.1875 
L 47.609375 17.1875 
L 47.609375 0 
L 37.796875 0 
L 37.796875 17.1875 
L 4.890625 17.1875 
L 4.890625 26.703125 
z
" id="DejaVuSans-52"/>
       </defs>
       <use xlink:href="#DejaVuSans-52"/>
      </g>
     </g>
    </g>
    <g id="xtick_6">
     <g id="line2d_6">
      <g>
       <use style="stroke:#000000;stroke-width:0.8;" x="317.21166" xlink:href="#me8b07cb65e" y="252"/>
      </g>
     </g>
     <g id="text_6">
      <!-- 5 -->
      <g transform="translate(314.03041 266.598437)scale(0.1 -0.1)">
       <defs>
        <path d="M 10.796875 72.90625 
L 49.515625 72.90625 
L 49.515625 64.59375 
L 19.828125 64.59375 
L 19.828125 46.734375 
Q 21.96875 47.46875 24.109375 47.828125 
Q 26.265625 48.1875 28.421875 48.1875 
Q 40.625 48.1875 47.75 41.5 
Q 54.890625 34.8125 54.890625 23.390625 
Q 54.890625 11.625 47.5625 5.09375 
Q 40.234375 -1.421875 26.90625 -1.421875 
Q 22.3125 -1.421875 17.546875 -0.640625 
Q 12.796875 0.140625 7.71875 1.703125 
L 7.71875 11.625 
Q 12.109375 9.234375 16.796875 8.0625 
Q 21.484375 6.890625 26.703125 6.890625 
Q 35.15625 6.890625 40.078125 11.328125 
Q 45.015625 15.765625 45.015625 23.390625 
Q 45.015625 31 40.078125 35.4375 
Q 35.15625 39.890625 26.703125 39.890625 
Q 22.75 39.890625 18.8125 39.015625 
Q 14.890625 38.140625 10.796875 36.28125 
z
" id="DejaVuSans-53"/>
       </defs>
       <use xlink:href="#DejaVuSans-53"/>
      </g>
     </g>
    </g>
    <g id="text_7">
     <!-- $n=\frac{1}{1-\gamma}$ -->
     <g transform="translate(169.37 282.178125)scale(0.1 -0.1)">
      <defs>
       <path d="M 55.71875 33.015625 
L 49.3125 0 
L 40.28125 0 
L 46.6875 32.671875 
Q 47.125 34.96875 47.359375 36.71875 
Q 47.609375 38.484375 47.609375 39.5 
Q 47.609375 43.609375 45.015625 45.890625 
Q 42.4375 48.1875 37.796875 48.1875 
Q 30.5625 48.1875 25.34375 43.375 
Q 20.125 38.578125 18.5 30.328125 
L 12.5 0 
L 3.515625 0 
L 14.109375 54.6875 
L 23.09375 54.6875 
L 21.296875 46.09375 
Q 25.046875 50.828125 30.3125 53.40625 
Q 35.59375 56 41.40625 56 
Q 48.640625 56 52.609375 52.09375 
Q 56.59375 48.1875 56.59375 41.109375 
Q 56.59375 39.359375 56.375 37.359375 
Q 56.15625 35.359375 55.71875 33.015625 
z
" id="DejaVuSans-Oblique-110"/>
       <path d="M 10.59375 45.40625 
L 73.1875 45.40625 
L 73.1875 37.203125 
L 10.59375 37.203125 
z
M 10.59375 25.484375 
L 73.1875 25.484375 
L 73.1875 17.1875 
L 10.59375 17.1875 
z
" id="DejaVuSans-61"/>
       <path d="M 10.59375 35.5 
L 73.1875 35.5 
L 73.1875 27.203125 
L 10.59375 27.203125 
z
" id="DejaVuSans-8722"/>
       <path d="M 23.296875 46.09375 
L 28.71875 12.3125 
L 54 54.6875 
L 63.53125 54.6875 
L 30.8125 0 
L 26.765625 -20.796875 
L 17.78125 -20.796875 
L 21.828125 0 
L 15.4375 40.828125 
Q 14.453125 46.96875 9.8125 46.96875 
L 7.421875 46.96875 
L 8.890625 54.6875 
L 12.3125 54.6875 
Q 21.921875 54.6875 23.296875 46.09375 
z
" id="DejaVuSans-Oblique-947"/>
      </defs>
      <use transform="translate(0 0.16875)" xlink:href="#DejaVuSans-Oblique-110"/>
      <use transform="translate(82.861328 0.16875)" xlink:href="#DejaVuSans-61"/>
      <use transform="translate(250.132812 43.965625)scale(0.7)" xlink:href="#DejaVuSans-49"/>
      <use transform="translate(186.132812 -38.31875)scale(0.7)" xlink:href="#DejaVuSans-49"/>
      <use transform="translate(244.306641 -38.31875)scale(0.7)" xlink:href="#DejaVuSans-8722"/>
      <use transform="translate(316.59668 -38.31875)scale(0.7)" xlink:href="#DejaVuSans-Oblique-947"/>
      <path d="M 186.132812 18.965625 
L 186.132812 25.215625 
L 358.022461 25.215625 
L 358.022461 18.965625 
L 186.132812 18.965625 
z
"/>
     </g>
    </g>
   </g>
   <g id="matplotlib.axis_2">
    <g id="ytick_1">
     <g id="line2d_7">
      <defs>
       <path d="M 0 0 
L -3.5 0 
" id="m6132f50fe5" style="stroke:#000000;stroke-width:0.8;"/>
      </defs>
      <g>
       <use style="stroke:#000000;stroke-width:0.8;" x="54" xlink:href="#m6132f50fe5" y="183.670609"/>
      </g>
     </g>
     <g id="text_8">
      <!-- $\mathdefault{10^{0}}$ -->
      <g transform="translate(29.4 187.469828)scale(0.1 -0.1)">
       <use transform="translate(0 0.765625)" xlink:href="#DejaVuSans-49"/>
       <use transform="translate(63.623047 0.765625)" xlink:href="#DejaVuSans-48"/>
       <use transform="translate(128.203125 39.046875)scale(0.7)" xlink:href="#DejaVuSans-48"/>
      </g>
     </g>
    </g>
    <g id="ytick_2">
     <g id="line2d_8">
      <g>
       <use style="stroke:#000000;stroke-width:0.8;" x="54" xlink:href="#m6132f50fe5" y="113.978833"/>
      </g>
     </g>
     <g id="text_9">
      <!-- $\mathdefault{10^{1}}$ -->
      <g transform="translate(29.4 117.778051)scale(0.1 -0.1)">
       <use transform="translate(0 0.684375)" xlink:href="#DejaVuSans-49"/>
       <use transform="translate(63.623047 0.684375)" xlink:href="#DejaVuSans-48"/>
       <use transform="translate(128.203125 38.965625)scale(0.7)" xlink:href="#DejaVuSans-49"/>
      </g>
     </g>
    </g>
    <g id="ytick_3">
     <g id="line2d_9">
      <g>
       <use style="stroke:#000000;stroke-width:0.8;" x="54" xlink:href="#m6132f50fe5" y="44.287056"/>
      </g>
     </g>
     <g id="text_10">
      <!-- $\mathdefault{10^{2}}$ -->
      <g transform="translate(29.4 48.086274)scale(0.1 -0.1)">
       <use transform="translate(0 0.765625)" xlink:href="#DejaVuSans-49"/>
       <use transform="translate(63.623047 0.765625)" xlink:href="#DejaVuSans-48"/>
       <use transform="translate(128.203125 39.046875)scale(0.7)" xlink:href="#DejaVuSans-50"/>
      </g>
     </g>
    </g>
    <g id="ytick_4">
     <g id="line2d_10">
      <defs>
       <path d="M 0 0 
L -2 0 
" id="m31974e666a" style="stroke:#000000;stroke-width:0.6;"/>
      </defs>
      <g>
       <use style="stroke:#000000;stroke-width:0.6;" x="54" xlink:href="#m31974e666a" y="232.383071"/>
      </g>
     </g>
    </g>
    <g id="ytick_5">
     <g id="line2d_11">
      <g>
       <use style="stroke:#000000;stroke-width:0.6;" x="54" xlink:href="#m31974e666a" y="220.110958"/>
      </g>
     </g>
    </g>
    <g id="ytick_6">
     <g id="line2d_12">
      <g>
       <use style="stroke:#000000;stroke-width:0.6;" x="54" xlink:href="#m31974e666a" y="211.403756"/>
      </g>
     </g>
    </g>
    <g id="ytick_7">
     <g id="line2d_13">
      <g>
       <use style="stroke:#000000;stroke-width:0.6;" x="54" xlink:href="#m31974e666a" y="204.649925"/>
      </g>
     </g>
    </g>
    <g id="ytick_8">
     <g id="line2d_14">
      <g>
       <use style="stroke:#000000;stroke-width:0.6;" x="54" xlink:href="#m31974e666a" y="199.131643"/>
      </g>
     </g>
    </g>
    <g id="ytick_9">
     <g id="line2d_15">
      <g>
       <use style="stroke:#000000;stroke-width:0.6;" x="54" xlink:href="#m31974e666a" y="194.466002"/>
      </g>
     </g>
    </g>
    <g id="ytick_10">
     <g id="line2d_16">
      <g>
       <use style="stroke:#000000;stroke-width:0.6;" x="54" xlink:href="#m31974e666a" y="190.424441"/>
      </g>
     </g>
    </g>
    <g id="ytick_11">
     <g id="line2d_17">
      <g>
       <use style="stroke:#000000;stroke-width:0.6;" x="54" xlink:href="#m31974e666a" y="186.85953"/>
      </g>
     </g>
    </g>
    <g id="ytick_12">
     <g id="line2d_18">
      <g>
       <use style="stroke:#000000;stroke-width:0.6;" x="54" xlink:href="#m31974e666a" y="162.691294"/>
      </g>
     </g>
    </g>
    <g id="ytick_13">
     <g id="line2d_19">
      <g>
       <use style="stroke:#000000;stroke-width:0.6;" x="54" xlink:href="#m31974e666a" y="150.419181"/>
      </g>
     </g>
    </g>
    <g id="ytick_14">
     <g id="line2d_20">
      <g>
       <use style="stroke:#000000;stroke-width:0.6;" x="54" xlink:href="#m31974e666a" y="141.711979"/>
      </g>
     </g>
    </g>
    <g id="ytick_15">
     <g id="line2d_21">
      <g>
       <use style="stroke:#000000;stroke-width:0.6;" x="54" xlink:href="#m31974e666a" y="134.958148"/>
      </g>
     </g>
    </g>
    <g id="ytick_16">
     <g id="line2d_22">
      <g>
       <use style="stroke:#000000;stroke-width:0.6;" x="54" xlink:href="#m31974e666a" y="129.439866"/>
      </g>
     </g>
    </g>
    <g id="ytick_17">
     <g id="line2d_23">
      <g>
       <use style="stroke:#000000;stroke-width:0.6;" x="54" xlink:href="#m31974e666a" y="124.774225"/>
      </g>
     </g>
    </g>
    <g id="ytick_18">
     <g id="line2d_24">
      <g>
       <use style="stroke:#000000;stroke-width:0.6;" x="54" xlink:href="#m31974e666a" y="120.732664"/>
      </g>
     </g>
    </g>
    <g id="ytick_19">
     <g id="line2d_25">
      <g>
       <use style="stroke:#000000;stroke-width:0.6;" x="54" xlink:href="#m31974e666a" y="117.167753"/>
      </g>
     </g>
    </g>
    <g id="ytick_20">
     <g id="line2d_26">
      <g>
       <use style="stroke:#000000;stroke-width:0.6;" x="54" xlink:href="#m31974e666a" y="92.999517"/>
      </g>
     </g>
    </g>
    <g id="ytick_21">
     <g id="line2d_27">
      <g>
       <use style="stroke:#000000;stroke-width:0.6;" x="54" xlink:href="#m31974e666a" y="80.727404"/>
      </g>
     </g>
    </g>
    <g id="ytick_22">
     <g id="line2d_28">
      <g>
       <use style="stroke:#000000;stroke-width:0.6;" x="54" xlink:href="#m31974e666a" y="72.020202"/>
      </g>
     </g>
    </g>
    <g id="ytick_23">
     <g id="line2d_29">
      <g>
       <use style="stroke:#000000;stroke-width:0.6;" x="54" xlink:href="#m31974e666a" y="65.266371"/>
      </g>
     </g>
    </g>
    <g id="ytick_24">
     <g id="line2d_30">
      <g>
       <use style="stroke:#000000;stroke-width:0.6;" x="54" xlink:href="#m31974e666a" y="59.748089"/>
      </g>
     </g>
    </g>
    <g id="ytick_25">
     <g id="line2d_31">
      <g>
       <use style="stroke:#000000;stroke-width:0.6;" x="54" xlink:href="#m31974e666a" y="55.082448"/>
      </g>
     </g>
    </g>
    <g id="ytick_26">
     <g id="line2d_32">
      <g>
       <use style="stroke:#000000;stroke-width:0.6;" x="54" xlink:href="#m31974e666a" y="51.040887"/>
      </g>
     </g>
    </g>
    <g id="ytick_27">
     <g id="line2d_33">
      <g>
       <use style="stroke:#000000;stroke-width:0.6;" x="54" xlink:href="#m31974e666a" y="47.475976"/>
      </g>
     </g>
    </g>
    <g id="text_11">
     <!-- $r_ 0$ -->
     <g transform="translate(23.320312 147.73)rotate(-90)scale(0.1 -0.1)">
      <defs>
       <path d="M 44.578125 46.390625 
Q 43.21875 47.125 41.453125 47.515625 
Q 39.703125 47.90625 37.703125 47.90625 
Q 30.515625 47.90625 25.140625 42.453125 
Q 19.78125 37.015625 18.015625 27.875 
L 12.5 0 
L 3.515625 0 
L 14.203125 54.6875 
L 23.1875 54.6875 
L 21.484375 46.1875 
Q 25.046875 50.921875 30 53.453125 
Q 34.96875 56 40.578125 56 
Q 42.046875 56 43.453125 55.828125 
Q 44.875 55.671875 46.296875 55.28125 
z
" id="DejaVuSans-Oblique-114"/>
      </defs>
      <use xlink:href="#DejaVuSans-Oblique-114"/>
      <use transform="translate(41.113281 -16.40625)scale(0.7)" xlink:href="#DejaVuSans-48"/>
     </g>
    </g>
   </g>
   <g id="line2d_34">
    <path clip-path="url(#pe686849870)" d="M 66.174545 239.136902 
L 68.186867 234.906762 
L 73.720751 224.442156 
L 75.229992 221.876587 
L 77.745394 217.781597 
L 83.782359 209.074395 
L 85.794681 206.458364 
L 90.322404 200.897272 
L 93.843967 196.942731 
L 102.899414 187.88562 
L 105.414816 185.607843 
L 110.44562 181.257291 
L 115.476424 177.233201 
L 121.010308 173.078686 
L 128.053434 168.167232 
L 133.587318 164.515802 
L 141.636604 159.519025 
L 151.698212 153.675437 
L 157.232096 150.591181 
L 170.815267 143.344215 
L 184.901518 136.111835 
L 198.484688 129.228737 
L 222.632547 116.657543 
L 227.16027 114.185349 
L 227.16027 114.185349 
" style="fill:none;stroke:#000000;stroke-linecap:square;stroke-width:1.5;"/>
   </g>
   <g id="line2d_35">
    <path clip-path="url(#pe686849870)" d="M 66.174545 242.116364 
L 68.689947 237.124473 
L 73.720751 228.550312 
L 76.236153 224.793419 
L 80.260796 219.314419 
L 82.776198 216.233787 
L 84.78852 213.845311 
L 85.794681 212.718228 
L 89.316243 209.004414 
L 96.862449 201.875457 
L 100.887092 198.482867 
L 109.439459 191.937124 
L 117.488745 186.359242 
L 129.059594 178.918616 
L 145.661247 168.605624 
L 161.256739 158.264403 
L 165.784463 154.972372 
L 172.324508 149.85941 
L 176.349151 146.444533 
L 180.876875 142.277158 
L 184.901518 138.227888 
L 188.42308 134.352853 
L 191.441563 130.733272 
L 194.460045 126.789924 
L 197.478527 122.444864 
L 199.993929 118.455895 
L 202.509331 114.066734 
L 205.024733 109.185477 
L 207.037055 104.850834 
L 209.049376 100.049897 
L 211.061698 94.682906 
L 213.07402 88.610565 
L 215.086341 81.640986 
L 216.595582 75.66571 
L 218.104823 68.873154 
L 219.614065 61.043074 
L 221.123306 51.862326 
L 222.129467 44.776778 
L 222.129467 44.776778 
" style="fill:none;stroke:#000000;stroke-dasharray:5.55,2.4;stroke-dashoffset:0;stroke-width:1.5;"/>
   </g>
   <g id="line2d_36">
    <path clip-path="url(#pe686849870)" d="M 66.174545 188.66083 
L 84.78852 184.592511 
L 96.359369 181.821459 
L 96.359369 181.906999 
L 97.36553 181.566281 
L 100.887092 180.676018 
L 104.408655 179.811195 
L 118.997986 176.057412 
L 123.02263 175.01642 
L 152.704373 166.871536 
L 160.250579 164.676968 
L 170.312186 161.6647 
L 193.453884 154.173852 
L 202.006251 151.164781 
L 215.086341 146.224153 
L 224.644869 142.292581 
L 232.191074 138.958229 
L 232.191074 138.965139 
L 244.768084 132.819958 
L 251.308129 129.268839 
L 256.842014 126.02329 
L 262.375898 122.508989 
L 262.375898 122.525041 
L 270.425184 116.796747 
L 273.946747 114.018205 
L 277.46831 111.039122 
L 282.499113 106.342109 
L 282.499113 106.342109 
" style="fill:none;stroke:#ff0000;stroke-linecap:square;stroke-width:1.5;"/>
   </g>
   <g id="line2d_37">
    <path clip-path="url(#pe686849870)" d="M 66.174545 219.216309 
L 68.186867 218.538306 
L 69.193028 218.252319 
L 72.714591 217.043347 
L 73.720751 216.771081 
L 77.745394 215.445318 
L 89.316243 211.403756 
L 90.825485 210.804395 
L 92.334726 210.289516 
L 94.347047 209.497713 
L 95.353208 209.144538 
L 96.359369 208.795437 
L 96.359369 209.214844 
L 96.862449 208.587892 
L 112.961022 201.875457 
L 115.476424 200.684125 
L 117.991826 199.486831 
L 126.041112 195.298884 
L 129.562675 193.320522 
L 131.071916 192.418195 
L 135.096559 189.899354 
L 140.630443 186.161419 
L 149.68589 178.996322 
L 153.207453 175.799622 
L 155.722855 173.35725 
L 159.747498 169.106525 
L 162.76598 165.612366 
L 165.784463 161.826045 
L 169.809106 156.229428 
L 172.827588 151.570773 
L 175.846071 146.471086 
L 178.864553 140.868798 
L 181.379955 135.780364 
L 184.398437 129.138702 
L 187.41692 121.889496 
L 190.435402 114.063698 
L 193.956965 104.322667 
L 204.521653 74.555409 
L 207.540135 66.885193 
L 211.061698 58.595949 
L 215.086341 49.772425 
L 217.601743 44.443636 
L 217.601743 44.443636 
" style="fill:none;stroke:#ff0000;stroke-dasharray:5.55,2.4;stroke-dashoffset:0;stroke-width:1.5;"/>
   </g>
   <g id="line2d_38">
    <path clip-path="url(#pe686849870)" d="M 66.174545 102.456456 
L 68.689947 110.175421 
L 71.205349 117.130783 
L 73.720751 123.425431 
L 76.236153 129.138702 
L 78.751555 134.34692 
L 81.266957 139.096719 
L 83.782359 143.448211 
L 86.297761 147.442873 
L 89.316243 151.812782 
L 91.831645 155.148786 
L 94.850128 158.805248 
L 97.86861 162.136476 
L 100.887092 165.165677 
L 104.408655 168.385634 
L 108.433298 171.661952 
L 113.464102 175.244677 
L 117.991826 178.051606 
L 123.52571 181.006806 
L 127.550353 182.89373 
L 134.090398 185.479048 
L 143.145845 188.270743 
L 146.164328 189.01987 
L 154.213614 190.652297 
L 162.76598 191.857683 
L 175.34299 192.74321 
L 189.429241 192.661628 
L 193.453884 192.418195 
L 194.963125 192.337483 
L 202.509331 191.65999 
L 205.527814 191.268435 
L 207.540135 191.035911 
L 218.104823 189.310201 
L 231.184914 186.359242 
L 236.718798 184.811723 
L 244.768084 182.19389 
L 248.792727 180.703446 
L 253.320451 178.866922 
L 256.842014 177.306694 
L 259.860496 175.89311 
L 266.400541 172.445468 
L 271.431345 169.407315 
L 276.965229 165.579051 
L 280.989872 162.420112 
L 285.014515 158.845204 
L 288.032998 155.840764 
L 290.5484 153.074754 
L 293.063802 150.028249 
L 295.579204 146.639803 
L 298.094606 142.821679 
L 300.106927 139.375613 
L 302.119249 135.501749 
L 304.13157 131.072102 
L 305.640811 127.274426 
L 307.150053 122.953561 
L 308.659294 117.930592 
L 309.665455 114.066734 
L 309.665455 114.066734 
" style="fill:none;stroke:#008000;stroke-linecap:square;stroke-width:1.5;"/>
   </g>
   <g id="line2d_39">
    <path clip-path="url(#pe686849870)" d="M 66.174545 217.688325 
L 75.229992 217.59534 
L 76.236153 217.502639 
L 77.745394 217.410222 
L 78.751555 217.318085 
L 79.757716 217.226229 
L 81.266957 217.043347 
L 82.273118 216.952319 
L 92.334726 215.101374 
L 94.347047 214.508719 
L 95.353208 214.258234 
L 102.899414 211.707947 
L 111.451781 207.704625 
L 115.476424 205.447271 
L 116.482585 204.832072 
L 119.501067 202.886314 
L 123.02263 200.367192 
L 126.041112 198.090424 
L 134.593479 190.576154 
L 139.121202 186.030252 
L 142.642765 182.251596 
L 148.176649 175.799622 
L 151.698212 171.438879 
L 156.225935 165.529147 
L 161.256739 158.619481 
L 168.299865 148.380804 
L 173.833749 139.912697 
L 179.870714 130.257936 
L 185.907678 120.118469 
L 190.938482 111.229229 
L 195.466206 102.8227 
L 199.993929 93.949514 
L 204.018573 85.598885 
L 208.043216 76.735066 
L 211.564778 68.486247 
L 215.086341 59.70373 
L 218.607904 50.299428 
L 220.620225 44.605007 
L 220.620225 44.605007 
" style="fill:none;stroke:#008000;stroke-dasharray:5.55,2.4;stroke-dashoffset:0;stroke-width:1.5;"/>
   </g>
   <g id="patch_3">
    <path d="M 54 252 
L 54 34.56 
" style="fill:none;stroke:#000000;stroke-linecap:square;stroke-linejoin:miter;stroke-width:0.8;"/>
   </g>
   <g id="patch_4">
    <path d="M 321.84 252 
L 321.84 34.56 
" style="fill:none;stroke:#000000;stroke-linecap:square;stroke-linejoin:miter;stroke-width:0.8;"/>
   </g>
   <g id="patch_5">
    <path d="M 54 252 
L 321.84 252 
" style="fill:none;stroke:#000000;stroke-linecap:square;stroke-linejoin:miter;stroke-width:0.8;"/>
   </g>
   <g id="patch_6">
    <path d="M 54 34.56 
L 321.84 34.56 
" style="fill:none;stroke:#000000;stroke-linecap:square;stroke-linejoin:miter;stroke-width:0.8;"/>
   </g>
   <g id="legend_1">
    <g id="patch_7">
     <path d="M 328.84 189.64875 
L 525.461875 189.64875 
Q 527.461875 189.64875 527.461875 187.64875 
L 527.461875 98.91125 
Q 527.461875 96.91125 525.461875 96.91125 
L 328.84 96.91125 
Q 326.84 96.91125 326.84 98.91125 
L 326.84 187.64875 
Q 326.84 189.64875 328.84 189.64875 
z
" style="fill:#ffffff;opacity:0.8;stroke:#cccccc;stroke-linejoin:miter;"/>
    </g>
    <g id="line2d_40">
     <path d="M 330.84 105.009688 
L 350.84 105.009688 
" style="fill:none;stroke:#000000;stroke-linecap:square;stroke-width:1.5;"/>
    </g>
    <g id="line2d_41"/>
    <g id="text_12">
     <!-- LE for p_init=0.05 -->
     <g transform="translate(358.84 108.509688)scale(0.1 -0.1)">
      <defs>
       <path d="M 9.8125 72.90625 
L 19.671875 72.90625 
L 19.671875 8.296875 
L 55.171875 8.296875 
L 55.171875 0 
L 9.8125 0 
z
" id="DejaVuSans-76"/>
       <path d="M 9.8125 72.90625 
L 55.90625 72.90625 
L 55.90625 64.59375 
L 19.671875 64.59375 
L 19.671875 43.015625 
L 54.390625 43.015625 
L 54.390625 34.71875 
L 19.671875 34.71875 
L 19.671875 8.296875 
L 56.78125 8.296875 
L 56.78125 0 
L 9.8125 0 
z
" id="DejaVuSans-69"/>
       <path id="DejaVuSans-32"/>
       <path d="M 37.109375 75.984375 
L 37.109375 68.5 
L 28.515625 68.5 
Q 23.6875 68.5 21.796875 66.546875 
Q 19.921875 64.59375 19.921875 59.515625 
L 19.921875 54.6875 
L 34.71875 54.6875 
L 34.71875 47.703125 
L 19.921875 47.703125 
L 19.921875 0 
L 10.890625 0 
L 10.890625 47.703125 
L 2.296875 47.703125 
L 2.296875 54.6875 
L 10.890625 54.6875 
L 10.890625 58.5 
Q 10.890625 67.625 15.140625 71.796875 
Q 19.390625 75.984375 28.609375 75.984375 
z
" id="DejaVuSans-102"/>
       <path d="M 30.609375 48.390625 
Q 23.390625 48.390625 19.1875 42.75 
Q 14.984375 37.109375 14.984375 27.296875 
Q 14.984375 17.484375 19.15625 11.84375 
Q 23.34375 6.203125 30.609375 6.203125 
Q 37.796875 6.203125 41.984375 11.859375 
Q 46.1875 17.53125 46.1875 27.296875 
Q 46.1875 37.015625 41.984375 42.703125 
Q 37.796875 48.390625 30.609375 48.390625 
z
M 30.609375 56 
Q 42.328125 56 49.015625 48.375 
Q 55.71875 40.765625 55.71875 27.296875 
Q 55.71875 13.875 49.015625 6.21875 
Q 42.328125 -1.421875 30.609375 -1.421875 
Q 18.84375 -1.421875 12.171875 6.21875 
Q 5.515625 13.875 5.515625 27.296875 
Q 5.515625 40.765625 12.171875 48.375 
Q 18.84375 56 30.609375 56 
z
" id="DejaVuSans-111"/>
       <path d="M 41.109375 46.296875 
Q 39.59375 47.171875 37.8125 47.578125 
Q 36.03125 48 33.890625 48 
Q 26.265625 48 22.1875 43.046875 
Q 18.109375 38.09375 18.109375 28.8125 
L 18.109375 0 
L 9.078125 0 
L 9.078125 54.6875 
L 18.109375 54.6875 
L 18.109375 46.1875 
Q 20.953125 51.171875 25.484375 53.578125 
Q 30.03125 56 36.53125 56 
Q 37.453125 56 38.578125 55.875 
Q 39.703125 55.765625 41.0625 55.515625 
z
" id="DejaVuSans-114"/>
       <path d="M 18.109375 8.203125 
L 18.109375 -20.796875 
L 9.078125 -20.796875 
L 9.078125 54.6875 
L 18.109375 54.6875 
L 18.109375 46.390625 
Q 20.953125 51.265625 25.265625 53.625 
Q 29.59375 56 35.59375 56 
Q 45.5625 56 51.78125 48.09375 
Q 58.015625 40.1875 58.015625 27.296875 
Q 58.015625 14.40625 51.78125 6.484375 
Q 45.5625 -1.421875 35.59375 -1.421875 
Q 29.59375 -1.421875 25.265625 0.953125 
Q 20.953125 3.328125 18.109375 8.203125 
z
M 48.6875 27.296875 
Q 48.6875 37.203125 44.609375 42.84375 
Q 40.53125 48.484375 33.40625 48.484375 
Q 26.265625 48.484375 22.1875 42.84375 
Q 18.109375 37.203125 18.109375 27.296875 
Q 18.109375 17.390625 22.1875 11.75 
Q 26.265625 6.109375 33.40625 6.109375 
Q 40.53125 6.109375 44.609375 11.75 
Q 48.6875 17.390625 48.6875 27.296875 
z
" id="DejaVuSans-112"/>
       <path d="M 50.984375 -16.609375 
L 50.984375 -23.578125 
L -0.984375 -23.578125 
L -0.984375 -16.609375 
z
" id="DejaVuSans-95"/>
       <path d="M 9.421875 54.6875 
L 18.40625 54.6875 
L 18.40625 0 
L 9.421875 0 
z
M 9.421875 75.984375 
L 18.40625 75.984375 
L 18.40625 64.59375 
L 9.421875 64.59375 
z
" id="DejaVuSans-105"/>
       <path d="M 54.890625 33.015625 
L 54.890625 0 
L 45.90625 0 
L 45.90625 32.71875 
Q 45.90625 40.484375 42.875 44.328125 
Q 39.84375 48.1875 33.796875 48.1875 
Q 26.515625 48.1875 22.3125 43.546875 
Q 18.109375 38.921875 18.109375 30.90625 
L 18.109375 0 
L 9.078125 0 
L 9.078125 54.6875 
L 18.109375 54.6875 
L 18.109375 46.1875 
Q 21.34375 51.125 25.703125 53.5625 
Q 30.078125 56 35.796875 56 
Q 45.21875 56 50.046875 50.171875 
Q 54.890625 44.34375 54.890625 33.015625 
z
" id="DejaVuSans-110"/>
       <path d="M 18.3125 70.21875 
L 18.3125 54.6875 
L 36.8125 54.6875 
L 36.8125 47.703125 
L 18.3125 47.703125 
L 18.3125 18.015625 
Q 18.3125 11.328125 20.140625 9.421875 
Q 21.96875 7.515625 27.59375 7.515625 
L 36.8125 7.515625 
L 36.8125 0 
L 27.59375 0 
Q 17.1875 0 13.234375 3.875 
Q 9.28125 7.765625 9.28125 18.015625 
L 9.28125 47.703125 
L 2.6875 47.703125 
L 2.6875 54.6875 
L 9.28125 54.6875 
L 9.28125 70.21875 
z
" id="DejaVuSans-116"/>
       <path d="M 10.6875 12.40625 
L 21 12.40625 
L 21 0 
L 10.6875 0 
z
" id="DejaVuSans-46"/>
      </defs>
      <use xlink:href="#DejaVuSans-76"/>
      <use x="55.712891" xlink:href="#DejaVuSans-69"/>
      <use x="118.896484" xlink:href="#DejaVuSans-32"/>
      <use x="150.683594" xlink:href="#DejaVuSans-102"/>
      <use x="185.888672" xlink:href="#DejaVuSans-111"/>
      <use x="247.070312" xlink:href="#DejaVuSans-114"/>
      <use x="288.183594" xlink:href="#DejaVuSans-32"/>
      <use x="319.970703" xlink:href="#DejaVuSans-112"/>
      <use x="383.447266" xlink:href="#DejaVuSans-95"/>
      <use x="433.447266" xlink:href="#DejaVuSans-105"/>
      <use x="461.230469" xlink:href="#DejaVuSans-110"/>
      <use x="524.609375" xlink:href="#DejaVuSans-105"/>
      <use x="552.392578" xlink:href="#DejaVuSans-116"/>
      <use x="591.601562" xlink:href="#DejaVuSans-61"/>
      <use x="675.390625" xlink:href="#DejaVuSans-48"/>
      <use x="739.013672" xlink:href="#DejaVuSans-46"/>
      <use x="770.800781" xlink:href="#DejaVuSans-48"/>
      <use x="834.423828" xlink:href="#DejaVuSans-53"/>
     </g>
    </g>
    <g id="line2d_42">
     <path d="M 330.84 119.965937 
L 350.84 119.965937 
" style="fill:none;stroke:#000000;stroke-dasharray:5.55,2.4;stroke-dashoffset:0;stroke-width:1.5;"/>
    </g>
    <g id="line2d_43"/>
    <g id="text_13">
     <!-- TOV with term=0 for p_init=0.05 -->
     <g transform="translate(358.84 123.465937)scale(0.1 -0.1)">
      <defs>
       <path d="M -0.296875 72.90625 
L 61.375 72.90625 
L 61.375 64.59375 
L 35.5 64.59375 
L 35.5 0 
L 25.59375 0 
L 25.59375 64.59375 
L -0.296875 64.59375 
z
" id="DejaVuSans-84"/>
       <path d="M 39.40625 66.21875 
Q 28.65625 66.21875 22.328125 58.203125 
Q 16.015625 50.203125 16.015625 36.375 
Q 16.015625 22.609375 22.328125 14.59375 
Q 28.65625 6.59375 39.40625 6.59375 
Q 50.140625 6.59375 56.421875 14.59375 
Q 62.703125 22.609375 62.703125 36.375 
Q 62.703125 50.203125 56.421875 58.203125 
Q 50.140625 66.21875 39.40625 66.21875 
z
M 39.40625 74.21875 
Q 54.734375 74.21875 63.90625 63.9375 
Q 73.09375 53.65625 73.09375 36.375 
Q 73.09375 19.140625 63.90625 8.859375 
Q 54.734375 -1.421875 39.40625 -1.421875 
Q 24.03125 -1.421875 14.8125 8.828125 
Q 5.609375 19.09375 5.609375 36.375 
Q 5.609375 53.65625 14.8125 63.9375 
Q 24.03125 74.21875 39.40625 74.21875 
z
" id="DejaVuSans-79"/>
       <path d="M 28.609375 0 
L 0.78125 72.90625 
L 11.078125 72.90625 
L 34.1875 11.53125 
L 57.328125 72.90625 
L 67.578125 72.90625 
L 39.796875 0 
z
" id="DejaVuSans-86"/>
       <path d="M 4.203125 54.6875 
L 13.1875 54.6875 
L 24.421875 12.015625 
L 35.59375 54.6875 
L 46.1875 54.6875 
L 57.421875 12.015625 
L 68.609375 54.6875 
L 77.59375 54.6875 
L 63.28125 0 
L 52.6875 0 
L 40.921875 44.828125 
L 29.109375 0 
L 18.5 0 
z
" id="DejaVuSans-119"/>
       <path d="M 54.890625 33.015625 
L 54.890625 0 
L 45.90625 0 
L 45.90625 32.71875 
Q 45.90625 40.484375 42.875 44.328125 
Q 39.84375 48.1875 33.796875 48.1875 
Q 26.515625 48.1875 22.3125 43.546875 
Q 18.109375 38.921875 18.109375 30.90625 
L 18.109375 0 
L 9.078125 0 
L 9.078125 75.984375 
L 18.109375 75.984375 
L 18.109375 46.1875 
Q 21.34375 51.125 25.703125 53.5625 
Q 30.078125 56 35.796875 56 
Q 45.21875 56 50.046875 50.171875 
Q 54.890625 44.34375 54.890625 33.015625 
z
" id="DejaVuSans-104"/>
       <path d="M 56.203125 29.59375 
L 56.203125 25.203125 
L 14.890625 25.203125 
Q 15.484375 15.921875 20.484375 11.0625 
Q 25.484375 6.203125 34.421875 6.203125 
Q 39.59375 6.203125 44.453125 7.46875 
Q 49.3125 8.734375 54.109375 11.28125 
L 54.109375 2.78125 
Q 49.265625 0.734375 44.1875 -0.34375 
Q 39.109375 -1.421875 33.890625 -1.421875 
Q 20.796875 -1.421875 13.15625 6.1875 
Q 5.515625 13.8125 5.515625 26.8125 
Q 5.515625 40.234375 12.765625 48.109375 
Q 20.015625 56 32.328125 56 
Q 43.359375 56 49.78125 48.890625 
Q 56.203125 41.796875 56.203125 29.59375 
z
M 47.21875 32.234375 
Q 47.125 39.59375 43.09375 43.984375 
Q 39.0625 48.390625 32.421875 48.390625 
Q 24.90625 48.390625 20.390625 44.140625 
Q 15.875 39.890625 15.1875 32.171875 
z
" id="DejaVuSans-101"/>
       <path d="M 52 44.1875 
Q 55.375 50.25 60.0625 53.125 
Q 64.75 56 71.09375 56 
Q 79.640625 56 84.28125 50.015625 
Q 88.921875 44.046875 88.921875 33.015625 
L 88.921875 0 
L 79.890625 0 
L 79.890625 32.71875 
Q 79.890625 40.578125 77.09375 44.375 
Q 74.3125 48.1875 68.609375 48.1875 
Q 61.625 48.1875 57.5625 43.546875 
Q 53.515625 38.921875 53.515625 30.90625 
L 53.515625 0 
L 44.484375 0 
L 44.484375 32.71875 
Q 44.484375 40.625 41.703125 44.40625 
Q 38.921875 48.1875 33.109375 48.1875 
Q 26.21875 48.1875 22.15625 43.53125 
Q 18.109375 38.875 18.109375 30.90625 
L 18.109375 0 
L 9.078125 0 
L 9.078125 54.6875 
L 18.109375 54.6875 
L 18.109375 46.1875 
Q 21.1875 51.21875 25.484375 53.609375 
Q 29.78125 56 35.6875 56 
Q 41.65625 56 45.828125 52.96875 
Q 50 49.953125 52 44.1875 
z
" id="DejaVuSans-109"/>
      </defs>
      <use xlink:href="#DejaVuSans-84"/>
      <use x="61.083984" xlink:href="#DejaVuSans-79"/>
      <use x="138.044922" xlink:href="#DejaVuSans-86"/>
      <use x="206.453125" xlink:href="#DejaVuSans-32"/>
      <use x="238.240234" xlink:href="#DejaVuSans-119"/>
      <use x="320.027344" xlink:href="#DejaVuSans-105"/>
      <use x="347.810547" xlink:href="#DejaVuSans-116"/>
      <use x="387.019531" xlink:href="#DejaVuSans-104"/>
      <use x="450.398438" xlink:href="#DejaVuSans-32"/>
      <use x="482.185547" xlink:href="#DejaVuSans-116"/>
      <use x="521.394531" xlink:href="#DejaVuSans-101"/>
      <use x="582.917969" xlink:href="#DejaVuSans-114"/>
      <use x="622.28125" xlink:href="#DejaVuSans-109"/>
      <use x="719.693359" xlink:href="#DejaVuSans-61"/>
      <use x="803.482422" xlink:href="#DejaVuSans-48"/>
      <use x="867.105469" xlink:href="#DejaVuSans-32"/>
      <use x="898.892578" xlink:href="#DejaVuSans-102"/>
      <use x="934.097656" xlink:href="#DejaVuSans-111"/>
      <use x="995.279297" xlink:href="#DejaVuSans-114"/>
      <use x="1036.392578" xlink:href="#DejaVuSans-32"/>
      <use x="1068.179688" xlink:href="#DejaVuSans-112"/>
      <use x="1131.65625" xlink:href="#DejaVuSans-95"/>
      <use x="1181.65625" xlink:href="#DejaVuSans-105"/>
      <use x="1209.439453" xlink:href="#DejaVuSans-110"/>
      <use x="1272.818359" xlink:href="#DejaVuSans-105"/>
      <use x="1300.601562" xlink:href="#DejaVuSans-116"/>
      <use x="1339.810547" xlink:href="#DejaVuSans-61"/>
      <use x="1423.599609" xlink:href="#DejaVuSans-48"/>
      <use x="1487.222656" xlink:href="#DejaVuSans-46"/>
      <use x="1519.009766" xlink:href="#DejaVuSans-48"/>
      <use x="1582.632812" xlink:href="#DejaVuSans-53"/>
     </g>
    </g>
    <g id="line2d_44">
     <path d="M 330.84 134.922188 
L 350.84 134.922188 
" style="fill:none;stroke:#ff0000;stroke-linecap:square;stroke-width:1.5;"/>
    </g>
    <g id="line2d_45"/>
    <g id="text_14">
     <!-- LE for p_init=1.5 -->
     <g transform="translate(358.84 138.422188)scale(0.1 -0.1)">
      <use xlink:href="#DejaVuSans-76"/>
      <use x="55.712891" xlink:href="#DejaVuSans-69"/>
      <use x="118.896484" xlink:href="#DejaVuSans-32"/>
      <use x="150.683594" xlink:href="#DejaVuSans-102"/>
      <use x="185.888672" xlink:href="#DejaVuSans-111"/>
      <use x="247.070312" xlink:href="#DejaVuSans-114"/>
      <use x="288.183594" xlink:href="#DejaVuSans-32"/>
      <use x="319.970703" xlink:href="#DejaVuSans-112"/>
      <use x="383.447266" xlink:href="#DejaVuSans-95"/>
      <use x="433.447266" xlink:href="#DejaVuSans-105"/>
      <use x="461.230469" xlink:href="#DejaVuSans-110"/>
      <use x="524.609375" xlink:href="#DejaVuSans-105"/>
      <use x="552.392578" xlink:href="#DejaVuSans-116"/>
      <use x="591.601562" xlink:href="#DejaVuSans-61"/>
      <use x="675.390625" xlink:href="#DejaVuSans-49"/>
      <use x="739.013672" xlink:href="#DejaVuSans-46"/>
      <use x="770.800781" xlink:href="#DejaVuSans-53"/>
     </g>
    </g>
    <g id="line2d_46">
     <path d="M 330.84 149.878438 
L 350.84 149.878438 
" style="fill:none;stroke:#ff0000;stroke-dasharray:5.55,2.4;stroke-dashoffset:0;stroke-width:1.5;"/>
    </g>
    <g id="line2d_47"/>
    <g id="text_15">
     <!-- TOV with term=0 for p_init=1.5 -->
     <g transform="translate(358.84 153.378438)scale(0.1 -0.1)">
      <use xlink:href="#DejaVuSans-84"/>
      <use x="61.083984" xlink:href="#DejaVuSans-79"/>
      <use x="138.044922" xlink:href="#DejaVuSans-86"/>
      <use x="206.453125" xlink:href="#DejaVuSans-32"/>
      <use x="238.240234" xlink:href="#DejaVuSans-119"/>
      <use x="320.027344" xlink:href="#DejaVuSans-105"/>
      <use x="347.810547" xlink:href="#DejaVuSans-116"/>
      <use x="387.019531" xlink:href="#DejaVuSans-104"/>
      <use x="450.398438" xlink:href="#DejaVuSans-32"/>
      <use x="482.185547" xlink:href="#DejaVuSans-116"/>
      <use x="521.394531" xlink:href="#DejaVuSans-101"/>
      <use x="582.917969" xlink:href="#DejaVuSans-114"/>
      <use x="622.28125" xlink:href="#DejaVuSans-109"/>
      <use x="719.693359" xlink:href="#DejaVuSans-61"/>
      <use x="803.482422" xlink:href="#DejaVuSans-48"/>
      <use x="867.105469" xlink:href="#DejaVuSans-32"/>
      <use x="898.892578" xlink:href="#DejaVuSans-102"/>
      <use x="934.097656" xlink:href="#DejaVuSans-111"/>
      <use x="995.279297" xlink:href="#DejaVuSans-114"/>
      <use x="1036.392578" xlink:href="#DejaVuSans-32"/>
      <use x="1068.179688" xlink:href="#DejaVuSans-112"/>
      <use x="1131.65625" xlink:href="#DejaVuSans-95"/>
      <use x="1181.65625" xlink:href="#DejaVuSans-105"/>
      <use x="1209.439453" xlink:href="#DejaVuSans-110"/>
      <use x="1272.818359" xlink:href="#DejaVuSans-105"/>
      <use x="1300.601562" xlink:href="#DejaVuSans-116"/>
      <use x="1339.810547" xlink:href="#DejaVuSans-61"/>
      <use x="1423.599609" xlink:href="#DejaVuSans-49"/>
      <use x="1487.222656" xlink:href="#DejaVuSans-46"/>
      <use x="1519.009766" xlink:href="#DejaVuSans-53"/>
     </g>
    </g>
    <g id="line2d_48">
     <path d="M 330.84 164.834688 
L 350.84 164.834688 
" style="fill:none;stroke:#008000;stroke-linecap:square;stroke-width:1.5;"/>
    </g>
    <g id="line2d_49"/>
    <g id="text_16">
     <!-- LE for p_init=500 -->
     <g transform="translate(358.84 168.334688)scale(0.1 -0.1)">
      <use xlink:href="#DejaVuSans-76"/>
      <use x="55.712891" xlink:href="#DejaVuSans-69"/>
      <use x="118.896484" xlink:href="#DejaVuSans-32"/>
      <use x="150.683594" xlink:href="#DejaVuSans-102"/>
      <use x="185.888672" xlink:href="#DejaVuSans-111"/>
      <use x="247.070312" xlink:href="#DejaVuSans-114"/>
      <use x="288.183594" xlink:href="#DejaVuSans-32"/>
      <use x="319.970703" xlink:href="#DejaVuSans-112"/>
      <use x="383.447266" xlink:href="#DejaVuSans-95"/>
      <use x="433.447266" xlink:href="#DejaVuSans-105"/>
      <use x="461.230469" xlink:href="#DejaVuSans-110"/>
      <use x="524.609375" xlink:href="#DejaVuSans-105"/>
      <use x="552.392578" xlink:href="#DejaVuSans-116"/>
      <use x="591.601562" xlink:href="#DejaVuSans-61"/>
      <use x="675.390625" xlink:href="#DejaVuSans-53"/>
      <use x="739.013672" xlink:href="#DejaVuSans-48"/>
      <use x="802.636719" xlink:href="#DejaVuSans-48"/>
     </g>
    </g>
    <g id="line2d_50">
     <path d="M 330.84 179.790938 
L 350.84 179.790938 
" style="fill:none;stroke:#008000;stroke-dasharray:5.55,2.4;stroke-dashoffset:0;stroke-width:1.5;"/>
    </g>
    <g id="line2d_51"/>
    <g id="text_17">
     <!-- TOV with term=0 for p_init=500 -->
     <g transform="translate(358.84 183.290938)scale(0.1 -0.1)">
      <use xlink:href="#DejaVuSans-84"/>
      <use x="61.083984" xlink:href="#DejaVuSans-79"/>
      <use x="138.044922" xlink:href="#DejaVuSans-86"/>
      <use x="206.453125" xlink:href="#DejaVuSans-32"/>
      <use x="238.240234" xlink:href="#DejaVuSans-119"/>
      <use x="320.027344" xlink:href="#DejaVuSans-105"/>
      <use x="347.810547" xlink:href="#DejaVuSans-116"/>
      <use x="387.019531" xlink:href="#DejaVuSans-104"/>
      <use x="450.398438" xlink:href="#DejaVuSans-32"/>
      <use x="482.185547" xlink:href="#DejaVuSans-116"/>
      <use x="521.394531" xlink:href="#DejaVuSans-101"/>
      <use x="582.917969" xlink:href="#DejaVuSans-114"/>
      <use x="622.28125" xlink:href="#DejaVuSans-109"/>
      <use x="719.693359" xlink:href="#DejaVuSans-61"/>
      <use x="803.482422" xlink:href="#DejaVuSans-48"/>
      <use x="867.105469" xlink:href="#DejaVuSans-32"/>
      <use x="898.892578" xlink:href="#DejaVuSans-102"/>
      <use x="934.097656" xlink:href="#DejaVuSans-111"/>
      <use x="995.279297" xlink:href="#DejaVuSans-114"/>
      <use x="1036.392578" xlink:href="#DejaVuSans-32"/>
      <use x="1068.179688" xlink:href="#DejaVuSans-112"/>
      <use x="1131.65625" xlink:href="#DejaVuSans-95"/>
      <use x="1181.65625" xlink:href="#DejaVuSans-105"/>
      <use x="1209.439453" xlink:href="#DejaVuSans-110"/>
      <use x="1272.818359" xlink:href="#DejaVuSans-105"/>
      <use x="1300.601562" xlink:href="#DejaVuSans-116"/>
      <use x="1339.810547" xlink:href="#DejaVuSans-61"/>
      <use x="1423.599609" xlink:href="#DejaVuSans-53"/>
      <use x="1487.222656" xlink:href="#DejaVuSans-48"/>
      <use x="1550.845703" xlink:href="#DejaVuSans-48"/>
     </g>
    </g>
   </g>
  </g>
 </g>
 <defs>
  <clipPath id="pe686849870">
   <rect height="217.44" width="267.84" x="54" y="34.56"/>
  </clipPath>
 </defs>
</svg>
