<?xml version="1.0" encoding="utf-8" standalone="no"?>
<!DOCTYPE svg PUBLIC "-//W3C//DTD SVG 1.1//EN"
  "http://www.w3.org/Graphics/SVG/1.1/DTD/svg11.dtd">
<!-- Created with matplotlib (https://matplotlib.org/) -->
<svg height="288pt" version="1.1" viewBox="0 0 432 288" width="432pt" xmlns="http://www.w3.org/2000/svg" xmlns:xlink="http://www.w3.org/1999/xlink">
 <metadata>
  <rdf:RDF xmlns:cc="http://creativecommons.org/ns#" xmlns:dc="http://purl.org/dc/elements/1.1/" xmlns:rdf="http://www.w3.org/1999/02/22-rdf-syntax-ns#">
   <cc:Work>
    <dc:type rdf:resource="http://purl.org/dc/dcmitype/StillImage"/>
    <dc:date>2020-12-02T17:31:02.124153</dc:date>
    <dc:format>image/svg+xml</dc:format>
    <dc:creator>
     <cc:Agent>
      <dc:title>Matplotlib v3.3.3, https://matplotlib.org/</dc:title>
     </cc:Agent>
    </dc:creator>
   </cc:Work>
  </rdf:RDF>
 </metadata>
 <defs>
  <style type="text/css">*{stroke-linecap:butt;stroke-linejoin:round;}</style>
 </defs>
 <g id="figure_1">
  <g id="patch_1">
   <path d="M 0 288 
L 432 288 
L 432 0 
L 0 0 
z
" style="fill:#ffffff;"/>
  </g>
  <g id="axes_1">
   <g id="patch_2">
    <path d="M 54 252 
L 321.84 252 
L 321.84 34.56 
L 54 34.56 
z
" style="fill:#ffffff;"/>
   </g>
   <g id="matplotlib.axis_1">
    <g id="xtick_1">
     <g id="line2d_1">
      <defs>
       <path d="M 0 0 
L 0 3.5 
" id="mc3f329f7f4" style="stroke:#000000;stroke-width:0.8;"/>
      </defs>
      <g>
       <use style="stroke:#000000;stroke-width:0.8;" x="65.092364" xlink:href="#mc3f329f7f4" y="252"/>
      </g>
     </g>
     <g id="text_1">
      <!-- 0.0 -->
      <g transform="translate(57.140801 266.598437)scale(0.1 -0.1)">
       <defs>
        <path d="M 31.78125 66.40625 
Q 24.171875 66.40625 20.328125 58.90625 
Q 16.5 51.421875 16.5 36.375 
Q 16.5 21.390625 20.328125 13.890625 
Q 24.171875 6.390625 31.78125 6.390625 
Q 39.453125 6.390625 43.28125 13.890625 
Q 47.125 21.390625 47.125 36.375 
Q 47.125 51.421875 43.28125 58.90625 
Q 39.453125 66.40625 31.78125 66.40625 
z
M 31.78125 74.21875 
Q 44.046875 74.21875 50.515625 64.515625 
Q 56.984375 54.828125 56.984375 36.375 
Q 56.984375 17.96875 50.515625 8.265625 
Q 44.046875 -1.421875 31.78125 -1.421875 
Q 19.53125 -1.421875 13.0625 8.265625 
Q 6.59375 17.96875 6.59375 36.375 
Q 6.59375 54.828125 13.0625 64.515625 
Q 19.53125 74.21875 31.78125 74.21875 
z
" id="DejaVuSans-48"/>
        <path d="M 10.6875 12.40625 
L 21 12.40625 
L 21 0 
L 10.6875 0 
z
" id="DejaVuSans-46"/>
       </defs>
       <use xlink:href="#DejaVuSans-48"/>
       <use x="63.623047" xlink:href="#DejaVuSans-46"/>
       <use x="95.410156" xlink:href="#DejaVuSans-48"/>
      </g>
     </g>
    </g>
    <g id="xtick_2">
     <g id="line2d_2">
      <g>
       <use style="stroke:#000000;stroke-width:0.8;" x="119.201455" xlink:href="#mc3f329f7f4" y="252"/>
      </g>
     </g>
     <g id="text_2">
      <!-- 0.5 -->
      <g transform="translate(111.249892 266.598437)scale(0.1 -0.1)">
       <defs>
        <path d="M 10.796875 72.90625 
L 49.515625 72.90625 
L 49.515625 64.59375 
L 19.828125 64.59375 
L 19.828125 46.734375 
Q 21.96875 47.46875 24.109375 47.828125 
Q 26.265625 48.1875 28.421875 48.1875 
Q 40.625 48.1875 47.75 41.5 
Q 54.890625 34.8125 54.890625 23.390625 
Q 54.890625 11.625 47.5625 5.09375 
Q 40.234375 -1.421875 26.90625 -1.421875 
Q 22.3125 -1.421875 17.546875 -0.640625 
Q 12.796875 0.140625 7.71875 1.703125 
L 7.71875 11.625 
Q 12.109375 9.234375 16.796875 8.0625 
Q 21.484375 6.890625 26.703125 6.890625 
Q 35.15625 6.890625 40.078125 11.328125 
Q 45.015625 15.765625 45.015625 23.390625 
Q 45.015625 31 40.078125 35.4375 
Q 35.15625 39.890625 26.703125 39.890625 
Q 22.75 39.890625 18.8125 39.015625 
Q 14.890625 38.140625 10.796875 36.28125 
z
" id="DejaVuSans-53"/>
       </defs>
       <use xlink:href="#DejaVuSans-48"/>
       <use x="63.623047" xlink:href="#DejaVuSans-46"/>
       <use x="95.410156" xlink:href="#DejaVuSans-53"/>
      </g>
     </g>
    </g>
    <g id="xtick_3">
     <g id="line2d_3">
      <g>
       <use style="stroke:#000000;stroke-width:0.8;" x="173.310545" xlink:href="#mc3f329f7f4" y="252"/>
      </g>
     </g>
     <g id="text_3">
      <!-- 1.0 -->
      <g transform="translate(165.358983 266.598437)scale(0.1 -0.1)">
       <defs>
        <path d="M 12.40625 8.296875 
L 28.515625 8.296875 
L 28.515625 63.921875 
L 10.984375 60.40625 
L 10.984375 69.390625 
L 28.421875 72.90625 
L 38.28125 72.90625 
L 38.28125 8.296875 
L 54.390625 8.296875 
L 54.390625 0 
L 12.40625 0 
z
" id="DejaVuSans-49"/>
       </defs>
       <use xlink:href="#DejaVuSans-49"/>
       <use x="63.623047" xlink:href="#DejaVuSans-46"/>
       <use x="95.410156" xlink:href="#DejaVuSans-48"/>
      </g>
     </g>
    </g>
    <g id="xtick_4">
     <g id="line2d_4">
      <g>
       <use style="stroke:#000000;stroke-width:0.8;" x="227.419636" xlink:href="#mc3f329f7f4" y="252"/>
      </g>
     </g>
     <g id="text_4">
      <!-- 1.5 -->
      <g transform="translate(219.468074 266.598437)scale(0.1 -0.1)">
       <use xlink:href="#DejaVuSans-49"/>
       <use x="63.623047" xlink:href="#DejaVuSans-46"/>
       <use x="95.410156" xlink:href="#DejaVuSans-53"/>
      </g>
     </g>
    </g>
    <g id="xtick_5">
     <g id="line2d_5">
      <g>
       <use style="stroke:#000000;stroke-width:0.8;" x="281.528727" xlink:href="#mc3f329f7f4" y="252"/>
      </g>
     </g>
     <g id="text_5">
      <!-- 2.0 -->
      <g transform="translate(273.577165 266.598437)scale(0.1 -0.1)">
       <defs>
        <path d="M 19.1875 8.296875 
L 53.609375 8.296875 
L 53.609375 0 
L 7.328125 0 
L 7.328125 8.296875 
Q 12.9375 14.109375 22.625 23.890625 
Q 32.328125 33.6875 34.8125 36.53125 
Q 39.546875 41.84375 41.421875 45.53125 
Q 43.3125 49.21875 43.3125 52.78125 
Q 43.3125 58.59375 39.234375 62.25 
Q 35.15625 65.921875 28.609375 65.921875 
Q 23.96875 65.921875 18.8125 64.3125 
Q 13.671875 62.703125 7.8125 59.421875 
L 7.8125 69.390625 
Q 13.765625 71.78125 18.9375 73 
Q 24.125 74.21875 28.421875 74.21875 
Q 39.75 74.21875 46.484375 68.546875 
Q 53.21875 62.890625 53.21875 53.421875 
Q 53.21875 48.921875 51.53125 44.890625 
Q 49.859375 40.875 45.40625 35.40625 
Q 44.1875 33.984375 37.640625 27.21875 
Q 31.109375 20.453125 19.1875 8.296875 
z
" id="DejaVuSans-50"/>
       </defs>
       <use xlink:href="#DejaVuSans-50"/>
       <use x="63.623047" xlink:href="#DejaVuSans-46"/>
       <use x="95.410156" xlink:href="#DejaVuSans-48"/>
      </g>
     </g>
    </g>
    <g id="text_6">
     <!-- $n=\frac{1}{1-\gamma}$ -->
     <g transform="translate(169.37 282.178125)scale(0.1 -0.1)">
      <defs>
       <path d="M 55.71875 33.015625 
L 49.3125 0 
L 40.28125 0 
L 46.6875 32.671875 
Q 47.125 34.96875 47.359375 36.71875 
Q 47.609375 38.484375 47.609375 39.5 
Q 47.609375 43.609375 45.015625 45.890625 
Q 42.4375 48.1875 37.796875 48.1875 
Q 30.5625 48.1875 25.34375 43.375 
Q 20.125 38.578125 18.5 30.328125 
L 12.5 0 
L 3.515625 0 
L 14.109375 54.6875 
L 23.09375 54.6875 
L 21.296875 46.09375 
Q 25.046875 50.828125 30.3125 53.40625 
Q 35.59375 56 41.40625 56 
Q 48.640625 56 52.609375 52.09375 
Q 56.59375 48.1875 56.59375 41.109375 
Q 56.59375 39.359375 56.375 37.359375 
Q 56.15625 35.359375 55.71875 33.015625 
z
" id="DejaVuSans-Oblique-110"/>
       <path d="M 10.59375 45.40625 
L 73.1875 45.40625 
L 73.1875 37.203125 
L 10.59375 37.203125 
z
M 10.59375 25.484375 
L 73.1875 25.484375 
L 73.1875 17.1875 
L 10.59375 17.1875 
z
" id="DejaVuSans-61"/>
       <path d="M 10.59375 35.5 
L 73.1875 35.5 
L 73.1875 27.203125 
L 10.59375 27.203125 
z
" id="DejaVuSans-8722"/>
       <path d="M 23.296875 46.09375 
L 28.71875 12.3125 
L 54 54.6875 
L 63.53125 54.6875 
L 30.8125 0 
L 26.765625 -20.796875 
L 17.78125 -20.796875 
L 21.828125 0 
L 15.4375 40.828125 
Q 14.453125 46.96875 9.8125 46.96875 
L 7.421875 46.96875 
L 8.890625 54.6875 
L 12.3125 54.6875 
Q 21.921875 54.6875 23.296875 46.09375 
z
" id="DejaVuSans-Oblique-947"/>
      </defs>
      <use transform="translate(0 0.16875)" xlink:href="#DejaVuSans-Oblique-110"/>
      <use transform="translate(82.861328 0.16875)" xlink:href="#DejaVuSans-61"/>
      <use transform="translate(250.132812 43.965625)scale(0.7)" xlink:href="#DejaVuSans-49"/>
      <use transform="translate(186.132812 -38.31875)scale(0.7)" xlink:href="#DejaVuSans-49"/>
      <use transform="translate(244.306641 -38.31875)scale(0.7)" xlink:href="#DejaVuSans-8722"/>
      <use transform="translate(316.59668 -38.31875)scale(0.7)" xlink:href="#DejaVuSans-Oblique-947"/>
      <path d="M 186.132812 18.965625 
L 186.132812 25.215625 
L 358.022461 25.215625 
L 358.022461 18.965625 
L 186.132812 18.965625 
z
"/>
     </g>
    </g>
   </g>
   <g id="matplotlib.axis_2">
    <g id="ytick_1">
     <g id="line2d_6">
      <defs>
       <path d="M 0 0 
L -3.5 0 
" id="m3554ab0869" style="stroke:#000000;stroke-width:0.8;"/>
      </defs>
      <g>
       <use style="stroke:#000000;stroke-width:0.8;" x="54" xlink:href="#m3554ab0869" y="159.595983"/>
      </g>
     </g>
     <g id="text_7">
      <!-- $\mathdefault{10^{0}}$ -->
      <g transform="translate(29.4 163.395202)scale(0.1 -0.1)">
       <use transform="translate(0 0.765625)" xlink:href="#DejaVuSans-49"/>
       <use transform="translate(63.623047 0.765625)" xlink:href="#DejaVuSans-48"/>
       <use transform="translate(128.203125 39.046875)scale(0.7)" xlink:href="#DejaVuSans-48"/>
      </g>
     </g>
    </g>
    <g id="ytick_2">
     <g id="line2d_7">
      <g>
       <use style="stroke:#000000;stroke-width:0.8;" x="54" xlink:href="#m3554ab0869" y="61.197185"/>
      </g>
     </g>
     <g id="text_8">
      <!-- $\mathdefault{10^{1}}$ -->
      <g transform="translate(29.4 64.996403)scale(0.1 -0.1)">
       <use transform="translate(0 0.684375)" xlink:href="#DejaVuSans-49"/>
       <use transform="translate(63.623047 0.684375)" xlink:href="#DejaVuSans-48"/>
       <use transform="translate(128.203125 38.965625)scale(0.7)" xlink:href="#DejaVuSans-49"/>
      </g>
     </g>
    </g>
    <g id="ytick_3">
     <g id="line2d_8">
      <defs>
       <path d="M 0 0 
L -2 0 
" id="mb3df3c9d39" style="stroke:#000000;stroke-width:0.6;"/>
      </defs>
      <g>
       <use style="stroke:#000000;stroke-width:0.6;" x="54" xlink:href="#mb3df3c9d39" y="228.373791"/>
      </g>
     </g>
    </g>
    <g id="ytick_4">
     <g id="line2d_9">
      <g>
       <use style="stroke:#000000;stroke-width:0.6;" x="54" xlink:href="#mb3df3c9d39" y="211.046623"/>
      </g>
     </g>
    </g>
    <g id="ytick_5">
     <g id="line2d_10">
      <g>
       <use style="stroke:#000000;stroke-width:0.6;" x="54" xlink:href="#mb3df3c9d39" y="198.752801"/>
      </g>
     </g>
    </g>
    <g id="ytick_6">
     <g id="line2d_11">
      <g>
       <use style="stroke:#000000;stroke-width:0.6;" x="54" xlink:href="#mb3df3c9d39" y="189.216973"/>
      </g>
     </g>
    </g>
    <g id="ytick_7">
     <g id="line2d_12">
      <g>
       <use style="stroke:#000000;stroke-width:0.6;" x="54" xlink:href="#mb3df3c9d39" y="181.425633"/>
      </g>
     </g>
    </g>
    <g id="ytick_8">
     <g id="line2d_13">
      <g>
       <use style="stroke:#000000;stroke-width:0.6;" x="54" xlink:href="#mb3df3c9d39" y="174.83815"/>
      </g>
     </g>
    </g>
    <g id="ytick_9">
     <g id="line2d_14">
      <g>
       <use style="stroke:#000000;stroke-width:0.6;" x="54" xlink:href="#mb3df3c9d39" y="169.131812"/>
      </g>
     </g>
    </g>
    <g id="ytick_10">
     <g id="line2d_15">
      <g>
       <use style="stroke:#000000;stroke-width:0.6;" x="54" xlink:href="#mb3df3c9d39" y="164.098465"/>
      </g>
     </g>
    </g>
    <g id="ytick_11">
     <g id="line2d_16">
      <g>
       <use style="stroke:#000000;stroke-width:0.6;" x="54" xlink:href="#mb3df3c9d39" y="129.974993"/>
      </g>
     </g>
    </g>
    <g id="ytick_12">
     <g id="line2d_17">
      <g>
       <use style="stroke:#000000;stroke-width:0.6;" x="54" xlink:href="#mb3df3c9d39" y="112.647825"/>
      </g>
     </g>
    </g>
    <g id="ytick_13">
     <g id="line2d_18">
      <g>
       <use style="stroke:#000000;stroke-width:0.6;" x="54" xlink:href="#mb3df3c9d39" y="100.354003"/>
      </g>
     </g>
    </g>
    <g id="ytick_14">
     <g id="line2d_19">
      <g>
       <use style="stroke:#000000;stroke-width:0.6;" x="54" xlink:href="#mb3df3c9d39" y="90.818174"/>
      </g>
     </g>
    </g>
    <g id="ytick_15">
     <g id="line2d_20">
      <g>
       <use style="stroke:#000000;stroke-width:0.6;" x="54" xlink:href="#mb3df3c9d39" y="83.026835"/>
      </g>
     </g>
    </g>
    <g id="ytick_16">
     <g id="line2d_21">
      <g>
       <use style="stroke:#000000;stroke-width:0.6;" x="54" xlink:href="#mb3df3c9d39" y="76.439351"/>
      </g>
     </g>
    </g>
    <g id="ytick_17">
     <g id="line2d_22">
      <g>
       <use style="stroke:#000000;stroke-width:0.6;" x="54" xlink:href="#mb3df3c9d39" y="70.733013"/>
      </g>
     </g>
    </g>
    <g id="ytick_18">
     <g id="line2d_23">
      <g>
       <use style="stroke:#000000;stroke-width:0.6;" x="54" xlink:href="#mb3df3c9d39" y="65.699667"/>
      </g>
     </g>
    </g>
    <g id="text_9">
     <!-- $r_ 0$ -->
     <g transform="translate(23.320312 147.73)rotate(-90)scale(0.1 -0.1)">
      <defs>
       <path d="M 44.578125 46.390625 
Q 43.21875 47.125 41.453125 47.515625 
Q 39.703125 47.90625 37.703125 47.90625 
Q 30.515625 47.90625 25.140625 42.453125 
Q 19.78125 37.015625 18.015625 27.875 
L 12.5 0 
L 3.515625 0 
L 14.203125 54.6875 
L 23.1875 54.6875 
L 21.484375 46.1875 
Q 25.046875 50.921875 30 53.453125 
Q 34.96875 56 40.578125 56 
Q 42.046875 56 43.453125 55.828125 
Q 44.875 55.671875 46.296875 55.28125 
z
" id="DejaVuSans-Oblique-114"/>
      </defs>
      <use xlink:href="#DejaVuSans-Oblique-114"/>
      <use transform="translate(41.113281 -16.40625)scale(0.7)" xlink:href="#DejaVuSans-48"/>
     </g>
    </g>
   </g>
   <g id="line2d_24">
    <path clip-path="url(#p99dcc10922)" d="M 66.174545 237.90962 
L 69.421091 234.080129 
L 70.503273 232.876273 
L 71.585455 230.565762 
L 73.749818 228.373791 
L 74.832 226.28879 
L 76.996364 224.300801 
L 78.078545 222.401197 
L 79.160727 221.482149 
L 80.242909 219.701306 
L 81.325091 218.837962 
L 82.407273 217.161902 
L 83.489455 216.347896 
L 84.571636 214.764972 
L 85.653818 213.994968 
L 86.736 212.495374 
L 87.818182 211.764859 
L 89.982545 208.961621 
L 91.064727 208.28863 
L 93.229091 205.697894 
L 94.311273 205.074028 
L 97.557818 201.510794 
L 98.64 200.386149 
L 99.722182 199.834734 
L 104.050909 195.662246 
L 108.379636 191.86116 
L 112.708364 188.370726 
L 115.954909 185.928115 
L 117.037091 184.757246 
L 121.365818 181.783242 
L 122.448 180.719269 
L 124.612364 179.340632 
L 125.694545 178.335078 
L 127.858909 177.03012 
L 128.941091 176.076905 
L 131.105455 174.83815 
L 132.187636 173.932093 
L 133.269818 173.338555 
L 134.352 172.463424 
L 135.434182 171.889804 
L 136.516364 171.043558 
L 137.598545 170.488562 
L 138.680727 169.669354 
L 139.762909 169.131812 
L 141.927273 167.558601 
L 143.009455 167.04681 
L 145.173818 165.547216 
L 146.256 165.058821 
L 149.502545 162.927596 
L 150.584727 162.468085 
L 154.913455 159.810189 
L 155.995636 159.382845 
L 161.406545 156.307125 
L 167.899636 152.886576 
L 168.981818 152.342186 
L 170.064 151.626955 
L 180.885818 146.299092 
L 181.968 145.677495 
L 184.132364 144.76173 
L 185.214545 144.161944 
L 186.296727 143.717565 
L 187.378909 143.132158 
L 188.461091 142.698306 
L 189.543273 142.126605 
L 190.625455 141.702792 
L 191.707636 141.144169 
L 192.789818 140.729943 
L 194.954182 139.644575 
L 196.036364 139.244565 
L 198.200727 138.195824 
L 199.282909 137.809088 
L 204.693818 135.3166 
L 206.858182 134.477475 
L 214.433455 131.276638 
L 234.994909 122.992524 
L 237.159273 122.183654 
L 241.488 120.524718 
L 245.816727 118.845364 
L 247.981091 118.110663 
L 263.131636 112.505615 
L 264.213818 112.222607 
L 267.460364 110.971765 
L 268.542545 110.698703 
L 277.2 107.551215 
L 293.432727 101.987351 
L 296.679273 100.891546 
L 299.925818 99.717752 
L 303.172364 98.677943 
L 306.418909 97.562638 
L 309.665455 96.475701 
L 309.665455 96.475701 
" style="fill:none;stroke:#000000;stroke-linecap:square;stroke-width:1.5;"/>
   </g>
   <g id="line2d_25">
    <path clip-path="url(#p99dcc10922)" d="M 66.174545 242.116364 
L 69.421091 237.90962 
L 72.667636 234.080129 
L 75.914182 230.565762 
L 79.160727 227.318576 
L 80.242909 225.283236 
L 84.571636 221.482149 
L 85.653818 219.701306 
L 89.982545 216.347896 
L 91.064727 214.764972 
L 93.229091 213.238594 
L 94.311273 211.764859 
L 97.557818 209.645381 
L 98.64 208.28863 
L 100.804364 206.973633 
L 101.886545 205.697894 
L 102.968727 205.074028 
L 104.050909 203.852972 
L 106.215273 202.665839 
L 107.297455 201.510794 
L 108.379636 200.944772 
L 109.461818 199.834734 
L 111.626182 198.752801 
L 112.708364 197.697586 
L 113.790545 197.179591 
L 114.872727 196.162066 
L 115.954909 195.662246 
L 117.037091 194.679811 
L 118.119273 194.196935 
L 119.201455 193.24725 
L 120.283636 192.780207 
L 121.365818 191.86116 
L 122.448 191.408943 
L 123.530182 190.518618 
L 124.612364 190.080316 
L 125.694545 189.216973 
L 126.776727 188.791755 
L 127.858909 187.953805 
L 128.941091 187.540913 
L 131.105455 185.928115 
L 132.187636 185.53425 
L 133.269818 184.757246 
L 134.352 184.373978 
L 136.516364 182.874384 
L 137.598545 182.507566 
L 138.680727 181.783242 
L 139.762909 181.425633 
L 143.009455 179.340632 
L 144.091636 179.002811 
L 146.256 177.677618 
L 147.338182 177.352643 
L 149.502545 176.076905 
L 150.584727 175.763833 
L 154.913455 173.338555 
L 155.995636 173.044849 
L 160.324364 170.765159 
L 161.406545 170.488562 
L 167.899636 167.30194 
L 172.228364 165.302321 
L 173.310545 164.575945 
L 174.392727 164.336538 
L 181.968 161.118477 
L 186.296727 159.382845 
L 187.378909 158.749736 
L 190.625455 157.510981 
L 191.707636 156.904814 
L 194.954182 155.717681 
L 196.036364 155.136256 
L 198.200727 154.373128 
L 199.282909 153.809594 
L 200.365091 153.437991 
L 201.447273 152.886576 
L 203.611636 152.162253 
L 204.693818 151.626955 
L 205.776 151.273779 
L 207.940364 150.231433 
L 209.022545 149.889559 
L 210.104727 149.381821 
L 211.186909 149.046651 
L 213.351273 148.056628 
L 214.433455 147.731653 
L 218.762182 145.832049 
L 219.844364 145.523498 
L 227.419636 142.411499 
L 228.501818 141.984866 
L 229.584 141.422568 
L 236.077091 138.848265 
L 237.159273 138.325518 
L 238.241455 137.937611 
L 239.323636 137.42582 
L 240.405818 137.04596 
L 241.488 136.544675 
L 242.570182 136.172532 
L 246.898909 134.240721 
L 249.063273 133.42226 
L 257.720727 129.655684 
L 260.967273 128.19633 
L 263.131636 127.183627 
L 264.213818 126.884438 
L 265.296 126.292271 
L 266.378182 125.902003 
L 268.542545 124.752138 
L 269.624727 124.375624 
L 272.871273 122.721196 
L 273.953455 122.362084 
L 280.446545 119.093098 
L 281.528727 118.435638 
L 282.610909 118.110663 
L 283.693091 117.627787 
L 284.775273 116.992325 
L 285.857455 116.521854 
L 288.021818 115.292012 
L 289.104 114.839795 
L 306.418909 105.214095 
L 308.583273 103.917237 
L 309.665455 103.226106 
L 309.665455 103.226106 
" style="fill:none;stroke:#000000;stroke-dasharray:5.55,2.4;stroke-dashoffset:0;stroke-width:1.5;"/>
   </g>
   <g id="line2d_26">
    <path clip-path="url(#p99dcc10922)" d="M 66.174545 175.144488 
L 78.078545 171.889804 
L 89.982545 168.865555 
L 102.968727 165.793522 
L 104.050909 165.302321 
L 115.954909 162.697223 
L 117.037091 162.24017 
L 125.694545 160.459326 
L 126.776727 160.025474 
L 133.269818 158.749736 
L 134.352 158.332815 
L 139.762909 157.307969 
L 140.845091 156.904814 
L 145.173818 156.109739 
L 146.256 155.717681 
L 150.584727 154.944193 
L 151.666909 154.562636 
L 154.913455 153.996614 
L 155.995636 153.623388 
L 159.242182 153.069591 
L 160.324364 152.704341 
L 163.570909 152.162253 
L 164.653091 151.804643 
L 166.817455 151.450002 
L 167.899636 151.098279 
L 170.064 150.749428 
L 171.146182 150.403401 
L 174.392727 149.889559 
L 175.474909 149.550398 
L 176.557091 149.381821 
L 177.639273 149.046651 
L 179.803636 148.714088 
L 180.885818 148.384094 
L 183.050182 148.056628 
L 184.132364 147.731653 
L 185.214545 147.570087 
L 186.296727 147.248777 
L 188.461091 146.929865 
L 189.543273 146.613315 
L 190.625455 146.455915 
L 191.707636 146.142843 
L 192.789818 145.987164 
L 193.872 145.677495 
L 194.954182 145.523498 
L 196.036364 145.21716 
L 198.200727 144.913001 
L 199.282909 144.610993 
L 200.365091 144.460785 
L 201.447273 144.161944 
L 202.529455 144.013304 
L 204.693818 143.423859 
L 205.776 143.27776 
L 206.858182 142.987051 
L 207.940364 142.842435 
L 209.022545 142.554662 
L 210.104727 142.411499 
L 211.186909 142.126605 
L 212.269091 141.984866 
L 214.433455 141.422568 
L 215.515636 141.283142 
L 216.597818 141.005647 
L 217.68 140.867572 
L 219.844364 140.319692 
L 220.926545 140.183813 
L 223.090909 139.644575 
L 224.173091 139.510822 
L 226.337455 138.979957 
L 227.419636 138.848265 
L 230.666182 138.066523 
L 231.748364 137.937611 
L 234.994909 137.172205 
L 236.077091 137.04596 
L 240.405818 136.049202 
L 241.488 135.926226 
L 250.145455 134.005271 
L 251.227636 133.888031 
L 271.789091 129.549775 
L 276.117818 128.711826 
L 277.2 128.298933 
L 282.610909 127.283824 
L 283.693091 126.884438 
L 288.021818 126.096691 
L 289.104 125.708197 
L 293.432727 124.941646 
L 294.514909 124.563466 
L 296.679273 124.188604 
L 297.761455 123.817001 
L 301.008 123.265586 
L 302.090182 122.90189 
L 304.254545 122.541263 
L 305.336727 122.183654 
L 306.418909 122.005965 
L 307.501091 121.652789 
L 309.665455 121.302508 
L 309.665455 121.302508 
" style="fill:none;stroke:#ff0000;stroke-linecap:square;stroke-width:1.5;"/>
   </g>
   <g id="line2d_27">
    <path clip-path="url(#p99dcc10922)" d="M 66.174545 211.046623 
L 67.256727 211.046623 
L 68.338909 210.340259 
L 70.503273 210.340259 
L 71.585455 209.645381 
L 72.667636 209.645381 
L 73.749818 208.961621 
L 74.832 208.961621 
L 75.914182 208.28863 
L 76.996364 208.28863 
L 78.078545 207.626074 
L 80.242909 207.626074 
L 81.325091 206.973633 
L 82.407273 206.973633 
L 83.489455 206.331003 
L 84.571636 206.331003 
L 85.653818 205.697894 
L 86.736 205.697894 
L 87.818182 205.074028 
L 88.900364 205.074028 
L 89.982545 204.459139 
L 91.064727 204.459139 
L 92.146909 203.852972 
L 93.229091 203.852972 
L 94.311273 203.255284 
L 96.475636 203.255284 
L 97.557818 202.665839 
L 98.64 202.665839 
L 99.722182 202.084414 
L 100.804364 202.084414 
L 101.886545 201.510794 
L 102.968727 201.510794 
L 104.050909 200.944772 
L 105.133091 200.944772 
L 106.215273 200.386149 
L 107.297455 200.386149 
L 109.461818 199.290344 
L 110.544 199.290344 
L 111.626182 198.752801 
L 112.708364 198.752801 
L 113.790545 198.221937 
L 114.872727 198.221937 
L 115.954909 197.697586 
L 117.037091 197.697586 
L 118.119273 197.179591 
L 119.201455 197.179591 
L 121.365818 196.162066 
L 122.448 196.162066 
L 123.530182 195.662246 
L 124.612364 195.662246 
L 125.694545 195.168206 
L 126.776727 195.168206 
L 128.941091 194.196935 
L 130.023273 194.196935 
L 132.187636 193.24725 
L 133.269818 193.24725 
L 134.352 192.780207 
L 135.434182 192.780207 
L 137.598545 191.86116 
L 138.680727 191.86116 
L 140.845091 190.961462 
L 141.927273 190.961462 
L 144.091636 190.080316 
L 145.173818 190.080316 
L 148.420364 188.791755 
L 149.502545 188.791755 
L 152.749091 187.540913 
L 153.831273 187.540913 
L 157.077818 186.325644 
L 158.16 186.325644 
L 163.570909 184.373978 
L 164.653091 184.373978 
L 172.228364 181.783242 
L 173.310545 181.070992 
L 174.392727 181.070992 
L 184.132364 178.005084 
L 188.461091 176.710013 
L 189.543273 176.076905 
L 192.789818 175.144488 
L 193.872 174.533991 
L 197.118545 173.634294 
L 198.200727 173.044849 
L 200.365091 172.463424 
L 201.447273 171.889804 
L 202.529455 171.605856 
L 203.611636 171.043558 
L 204.693818 170.765159 
L 205.776 170.213744 
L 206.858182 169.940682 
L 207.940364 169.399738 
L 209.022545 169.131812 
L 211.186909 168.076596 
L 212.269091 167.816814 
L 214.433455 166.793195 
L 215.515636 166.541076 
L 223.090909 163.159217 
L 228.501818 160.897628 
L 229.584 160.24185 
L 231.748364 159.382845 
L 232.830545 158.749736 
L 233.912727 158.332815 
L 234.994909 157.714963 
L 236.077091 157.307969 
L 239.323636 155.522992 
L 240.405818 155.136256 
L 247.981091 151.098279 
L 249.063273 150.403401 
L 250.145455 149.889559 
L 251.227636 149.213907 
L 252.309818 148.714088 
L 266.378182 140.048364 
L 268.542545 138.455606 
L 269.624727 137.937611 
L 271.789091 136.420267 
L 272.871273 135.437831 
L 275.035636 134.005271 
L 276.117818 133.076233 
L 277.2 132.392474 
L 281.528727 128.711826 
L 282.610909 128.093973 
L 283.693091 127.283824 
L 288.021818 123.448602 
L 291.268364 120.610443 
L 297.761455 114.392314 
L 298.843636 113.221445 
L 301.008 111.108953 
L 309.665455 101.326502 
L 309.665455 101.326502 
" style="fill:none;stroke:#ff0000;stroke-dasharray:5.55,2.4;stroke-dashoffset:0;stroke-width:1.5;"/>
   </g>
   <g id="line2d_28">
    <path clip-path="url(#p99dcc10922)" d="M 66.174545 146.142843 
L 67.256727 146.455915 
L 68.338909 146.613315 
L 69.421091 146.929865 
L 70.503273 147.089023 
L 71.585455 147.40913 
L 72.667636 147.570087 
L 73.749818 147.893832 
L 76.996364 148.384094 
L 78.078545 148.714088 
L 83.489455 149.550398 
L 84.571636 149.550398 
L 88.900364 150.231433 
L 89.982545 150.231433 
L 92.146909 150.576064 
L 93.229091 150.576064 
L 94.311273 150.749428 
L 95.393455 150.749428 
L 96.475636 150.923498 
L 97.557818 150.923498 
L 98.64 151.098279 
L 99.722182 151.098279 
L 100.804364 151.273779 
L 101.886545 151.273779 
L 102.968727 151.450002 
L 105.133091 151.450002 
L 106.215273 151.626955 
L 109.461818 151.626955 
L 110.544 151.804643 
L 114.872727 151.804643 
L 115.954909 151.983074 
L 134.352 151.983074 
L 135.434182 151.804643 
L 141.927273 151.804643 
L 143.009455 151.626955 
L 146.256 151.626955 
L 147.338182 151.450002 
L 150.584727 151.450002 
L 151.666909 151.273779 
L 153.831273 151.273779 
L 154.913455 151.098279 
L 157.077818 151.098279 
L 158.16 150.923498 
L 160.324364 150.923498 
L 161.406545 150.749428 
L 163.570909 150.749428 
L 164.653091 150.576064 
L 165.735273 150.576064 
L 166.817455 150.403401 
L 168.981818 150.403401 
L 170.064 150.231433 
L 171.146182 150.231433 
L 172.228364 150.060154 
L 173.310545 150.060154 
L 174.392727 149.889559 
L 175.474909 149.889559 
L 176.557091 149.719642 
L 177.639273 149.719642 
L 178.721455 149.550398 
L 179.803636 149.550398 
L 180.885818 149.381821 
L 181.968 149.381821 
L 183.050182 149.213907 
L 184.132364 149.213907 
L 185.214545 149.046651 
L 186.296727 149.046651 
L 187.378909 148.880046 
L 188.461091 148.880046 
L 190.625455 148.548773 
L 191.707636 148.548773 
L 192.789818 148.384094 
L 193.872 148.384094 
L 196.036364 148.056628 
L 197.118545 148.056628 
L 199.282909 147.731653 
L 200.365091 147.731653 
L 202.529455 147.40913 
L 203.611636 147.40913 
L 205.776 147.089023 
L 206.858182 147.089023 
L 210.104727 146.613315 
L 211.186909 146.613315 
L 214.433455 146.142843 
L 215.515636 146.142843 
L 218.762182 145.677495 
L 219.844364 145.677495 
L 225.255273 144.913001 
L 226.337455 144.913001 
L 233.912727 143.865179 
L 234.994909 143.865179 
L 263.131636 140.048364 
L 264.213818 140.048364 
L 266.378182 139.510822 
L 267.460364 139.510822 
L 268.542545 139.244565 
L 269.624727 139.244565 
L 271.789091 138.716978 
L 272.871273 138.716978 
L 273.953455 138.455606 
L 275.035636 138.455606 
L 277.2 137.937611 
L 278.282182 137.937611 
L 280.446545 137.42582 
L 281.528727 137.42582 
L 283.693091 136.920086 
L 284.775273 136.920086 
L 286.939636 136.420267 
L 288.021818 136.420267 
L 290.186182 135.926226 
L 291.268364 135.926226 
L 294.514909 135.195711 
L 295.597091 135.195711 
L 298.843636 134.477475 
L 299.925818 134.477475 
L 303.172364 133.771111 
L 304.254545 133.771111 
L 309.665455 132.61918 
L 309.665455 132.61918 
" style="fill:none;stroke:#008000;stroke-linecap:square;stroke-width:1.5;"/>
   </g>
   <g id="line2d_29">
    <path clip-path="url(#p99dcc10922)" d="M 66.174545 208.961621 
L 67.256727 208.28863 
L 72.667636 208.28863 
L 73.749818 207.626074 
L 78.078545 207.626074 
L 79.160727 206.973633 
L 82.407273 206.973633 
L 83.489455 206.331003 
L 87.818182 206.331003 
L 88.900364 205.697894 
L 92.146909 205.697894 
L 93.229091 205.074028 
L 96.475636 205.074028 
L 97.557818 204.459139 
L 99.722182 204.459139 
L 100.804364 203.852972 
L 102.968727 203.852972 
L 104.050909 203.255284 
L 107.297455 203.255284 
L 108.379636 202.665839 
L 110.544 202.665839 
L 111.626182 202.084414 
L 113.790545 202.084414 
L 114.872727 201.510794 
L 115.954909 201.510794 
L 117.037091 200.944772 
L 119.201455 200.944772 
L 120.283636 200.386149 
L 122.448 200.386149 
L 123.530182 199.834734 
L 124.612364 199.834734 
L 125.694545 199.290344 
L 126.776727 199.290344 
L 127.858909 198.752801 
L 130.023273 198.752801 
L 131.105455 198.221937 
L 132.187636 198.221937 
L 133.269818 197.697586 
L 134.352 197.697586 
L 135.434182 197.179591 
L 136.516364 197.179591 
L 137.598545 196.6678 
L 138.680727 196.6678 
L 139.762909 196.162066 
L 140.845091 196.162066 
L 141.927273 195.662246 
L 143.009455 195.662246 
L 144.091636 195.168206 
L 145.173818 195.168206 
L 146.256 194.679811 
L 147.338182 194.679811 
L 149.502545 193.719455 
L 150.584727 193.719455 
L 151.666909 193.24725 
L 152.749091 193.24725 
L 154.913455 192.318213 
L 155.995636 192.318213 
L 158.16 191.408943 
L 159.242182 191.408943 
L 161.406545 190.518618 
L 162.488727 190.518618 
L 165.735273 189.216973 
L 166.817455 189.216973 
L 170.064 187.953805 
L 171.146182 187.953805 
L 172.228364 187.540913 
L 173.310545 186.726906 
L 174.392727 186.726906 
L 183.050182 183.617604 
L 192.789818 180.370418 
L 193.872 179.681144 
L 197.118545 178.66764 
L 198.200727 178.005084 
L 200.365091 177.352643 
L 201.447273 176.710013 
L 202.529455 176.392286 
L 203.611636 175.763833 
L 204.693818 175.453039 
L 205.776 174.83815 
L 206.858182 174.533991 
L 209.022545 173.338555 
L 210.104727 173.044849 
L 213.351273 171.323782 
L 214.433455 171.043558 
L 220.926545 167.816814 
L 222.008727 167.30194 
L 223.090909 166.541076 
L 225.255273 165.547216 
L 226.337455 164.816701 
L 227.419636 164.336538 
L 228.501818 163.626261 
L 229.584 163.159217 
L 231.748364 161.787953 
L 232.830545 161.340472 
L 242.570182 155.329187 
L 247.981091 151.626955 
L 250.145455 150.231433 
L 252.309818 148.548773 
L 253.392 147.893832 
L 254.474182 147.089023 
L 255.556364 146.142843 
L 258.802909 143.717565 
L 263.131636 140.183813 
L 264.213818 139.510822 
L 265.296 138.455606 
L 266.378182 137.68095 
L 270.706909 133.771111 
L 271.789091 132.847095 
L 272.871273 131.719482 
L 273.953455 130.838337 
L 280.446545 124.375624 
L 281.528727 123.083351 
L 282.610909 122.183654 
L 283.693091 120.955075 
L 285.857455 118.763104 
L 286.939636 117.468034 
L 289.104 115.140741 
L 290.186182 113.80287 
L 292.350545 111.384657 
L 295.597091 107.42497 
L 297.761455 104.856485 
L 307.501091 92.11982 
L 309.665455 89.142114 
L 309.665455 89.142114 
" style="fill:none;stroke:#008000;stroke-dasharray:5.55,2.4;stroke-dashoffset:0;stroke-width:1.5;"/>
   </g>
   <g id="line2d_30">
    <path clip-path="url(#p99dcc10922)" d="M 66.174545 44.443636 
L 69.421091 51.1516 
L 73.749818 59.459533 
L 76.996364 65.250949 
L 81.325091 72.477503 
L 85.653818 79.148533 
L 89.982545 85.331412 
L 95.393455 92.429328 
L 99.722182 97.713021 
L 106.215273 104.915879 
L 110.544 109.358967 
L 114.872727 113.511168 
L 122.448 120.098652 
L 130.023273 125.999236 
L 136.516364 130.62086 
L 138.680727 132.054653 
L 147.338182 137.42582 
L 148.420364 137.937611 
L 151.666909 139.778748 
L 152.749091 140.319692 
L 154.913455 141.56245 
L 160.324364 144.311103 
L 162.488727 145.21716 
L 163.570909 145.832049 
L 175.474909 150.923498 
L 176.557091 151.273779 
L 177.639273 151.804643 
L 180.885818 152.886576 
L 181.968 153.437991 
L 187.378909 155.329187 
L 188.461091 155.522992 
L 191.707636 156.704654 
L 192.789818 156.904814 
L 194.954182 157.714963 
L 196.036364 157.919923 
L 197.118545 158.332815 
L 198.200727 158.540767 
L 199.282909 158.959732 
L 200.365091 159.170765 
L 201.447273 159.595983 
L 203.611636 160.025474 
L 204.693818 160.459326 
L 206.858182 160.897628 
L 207.940364 161.340472 
L 214.433455 162.697223 
L 215.515636 163.159217 
L 220.926545 164.336538 
L 222.008727 164.336538 
L 228.501818 165.793522 
L 229.584 165.793522 
L 232.830545 166.541076 
L 233.912727 166.541076 
L 237.159273 167.30194 
L 238.241455 167.30194 
L 240.405818 167.816814 
L 241.488 167.816814 
L 242.570182 168.076596 
L 243.652364 168.076596 
L 245.816727 168.600947 
L 246.898909 168.600947 
L 247.981091 168.865555 
L 249.063273 168.865555 
L 250.145455 169.131812 
L 251.227636 169.131812 
L 252.309818 169.399738 
L 253.392 169.399738 
L 254.474182 169.669354 
L 255.556364 169.669354 
L 256.638545 169.940682 
L 258.802909 169.940682 
L 259.885091 170.213744 
L 260.967273 170.213744 
L 262.049455 170.488562 
L 263.131636 170.488562 
L 264.213818 170.765159 
L 267.460364 170.765159 
L 268.542545 171.323782 
L 273.953455 171.323782 
L 275.035636 171.889804 
L 282.610909 171.889804 
L 283.693091 172.463424 
L 296.679273 172.463424 
L 297.761455 173.044849 
L 309.665455 173.044849 
L 309.665455 173.044849 
" style="fill:none;stroke:#0000ff;stroke-linecap:square;stroke-width:1.5;"/>
   </g>
   <g id="line2d_31">
    <path clip-path="url(#p99dcc10922)" d="M 66.174545 207.626074 
L 94.311273 207.626074 
L 95.393455 206.973633 
L 101.886545 206.973633 
L 102.968727 206.331003 
L 108.379636 206.331003 
L 109.461818 205.697894 
L 113.790545 205.697894 
L 114.872727 205.074028 
L 118.119273 205.074028 
L 119.201455 204.459139 
L 122.448 204.459139 
L 123.530182 203.852972 
L 125.694545 203.852972 
L 126.776727 203.255284 
L 128.941091 203.255284 
L 130.023273 202.665839 
L 132.187636 202.665839 
L 133.269818 202.084414 
L 134.352 202.084414 
L 135.434182 201.510794 
L 136.516364 201.510794 
L 137.598545 200.944772 
L 139.762909 200.944772 
L 140.845091 200.386149 
L 141.927273 200.386149 
L 143.009455 199.834734 
L 144.091636 199.834734 
L 145.173818 199.290344 
L 146.256 199.290344 
L 147.338182 198.752801 
L 148.420364 198.752801 
L 150.584727 197.697586 
L 151.666909 197.697586 
L 152.749091 197.179591 
L 153.831273 197.179591 
L 155.995636 196.162066 
L 157.077818 196.162066 
L 160.324364 194.679811 
L 161.406545 194.679811 
L 165.735273 192.780207 
L 166.817455 192.780207 
L 172.228364 190.518618 
L 173.310545 189.646464 
L 174.392727 189.646464 
L 179.803636 187.540913 
L 180.885818 186.726906 
L 184.132364 185.53425 
L 185.214545 184.757246 
L 187.378909 183.994118 
L 188.461091 183.244378 
L 189.543273 182.874384 
L 190.625455 182.14387 
L 191.707636 181.783242 
L 192.789818 181.070992 
L 193.872 180.719269 
L 196.036364 179.340632 
L 197.118545 179.002811 
L 200.365091 177.03012 
L 201.447273 176.710013 
L 204.693818 174.83815 
L 205.776 173.932093 
L 210.104727 171.605856 
L 211.186909 170.765159 
L 212.269091 170.213744 
L 213.351273 169.399738 
L 214.433455 168.865555 
L 217.68 166.541076 
L 218.762182 166.041257 
L 222.008727 163.861711 
L 223.090909 162.927596 
L 225.255273 161.563627 
L 226.337455 160.677915 
L 227.419636 160.025474 
L 228.501818 159.170765 
L 229.584 158.540767 
L 243.652364 147.731653 
L 244.734545 146.771297 
L 245.816727 145.987164 
L 255.556364 137.809088 
L 257.720727 135.926226 
L 264.213818 130.189199 
L 265.296 129.338742 
L 269.624727 125.323203 
L 270.706909 124.375624 
L 271.789091 123.265586 
L 272.871273 122.362084 
L 278.282182 117.150307 
L 280.446545 115.140741 
L 281.528727 113.94947 
L 285.857455 109.889832 
L 288.021818 107.677835 
L 290.186182 105.574722 
L 294.514909 101.217347 
L 296.679273 98.987238 
L 309.665455 85.369013 
L 309.665455 85.369013 
" style="fill:none;stroke:#0000ff;stroke-dasharray:5.55,2.4;stroke-dashoffset:0;stroke-width:1.5;"/>
   </g>
   <g id="patch_3">
    <path d="M 54 252 
L 54 34.56 
" style="fill:none;stroke:#000000;stroke-linecap:square;stroke-linejoin:miter;stroke-width:0.8;"/>
   </g>
   <g id="patch_4">
    <path d="M 321.84 252 
L 321.84 34.56 
" style="fill:none;stroke:#000000;stroke-linecap:square;stroke-linejoin:miter;stroke-width:0.8;"/>
   </g>
   <g id="patch_5">
    <path d="M 54 252 
L 321.84 252 
" style="fill:none;stroke:#000000;stroke-linecap:square;stroke-linejoin:miter;stroke-width:0.8;"/>
   </g>
   <g id="patch_6">
    <path d="M 54 34.56 
L 321.84 34.56 
" style="fill:none;stroke:#000000;stroke-linecap:square;stroke-linejoin:miter;stroke-width:0.8;"/>
   </g>
   <g id="legend_1">
    <g id="patch_7">
     <path d="M 328.84 204.605 
L 525.461875 204.605 
Q 527.461875 204.605 527.461875 202.605 
L 527.461875 83.955 
Q 527.461875 81.955 525.461875 81.955 
L 328.84 81.955 
Q 326.84 81.955 326.84 83.955 
L 326.84 202.605 
Q 326.84 204.605 328.84 204.605 
z
" style="fill:#ffffff;opacity:0.8;stroke:#cccccc;stroke-linejoin:miter;"/>
    </g>
    <g id="line2d_32">
     <path d="M 330.84 90.053438 
L 350.84 90.053438 
" style="fill:none;stroke:#000000;stroke-linecap:square;stroke-width:1.5;"/>
    </g>
    <g id="line2d_33"/>
    <g id="text_10">
     <!-- LE for p_init=0.05 -->
     <g transform="translate(358.84 93.553438)scale(0.1 -0.1)">
      <defs>
       <path d="M 9.8125 72.90625 
L 19.671875 72.90625 
L 19.671875 8.296875 
L 55.171875 8.296875 
L 55.171875 0 
L 9.8125 0 
z
" id="DejaVuSans-76"/>
       <path d="M 9.8125 72.90625 
L 55.90625 72.90625 
L 55.90625 64.59375 
L 19.671875 64.59375 
L 19.671875 43.015625 
L 54.390625 43.015625 
L 54.390625 34.71875 
L 19.671875 34.71875 
L 19.671875 8.296875 
L 56.78125 8.296875 
L 56.78125 0 
L 9.8125 0 
z
" id="DejaVuSans-69"/>
       <path id="DejaVuSans-32"/>
       <path d="M 37.109375 75.984375 
L 37.109375 68.5 
L 28.515625 68.5 
Q 23.6875 68.5 21.796875 66.546875 
Q 19.921875 64.59375 19.921875 59.515625 
L 19.921875 54.6875 
L 34.71875 54.6875 
L 34.71875 47.703125 
L 19.921875 47.703125 
L 19.921875 0 
L 10.890625 0 
L 10.890625 47.703125 
L 2.296875 47.703125 
L 2.296875 54.6875 
L 10.890625 54.6875 
L 10.890625 58.5 
Q 10.890625 67.625 15.140625 71.796875 
Q 19.390625 75.984375 28.609375 75.984375 
z
" id="DejaVuSans-102"/>
       <path d="M 30.609375 48.390625 
Q 23.390625 48.390625 19.1875 42.75 
Q 14.984375 37.109375 14.984375 27.296875 
Q 14.984375 17.484375 19.15625 11.84375 
Q 23.34375 6.203125 30.609375 6.203125 
Q 37.796875 6.203125 41.984375 11.859375 
Q 46.1875 17.53125 46.1875 27.296875 
Q 46.1875 37.015625 41.984375 42.703125 
Q 37.796875 48.390625 30.609375 48.390625 
z
M 30.609375 56 
Q 42.328125 56 49.015625 48.375 
Q 55.71875 40.765625 55.71875 27.296875 
Q 55.71875 13.875 49.015625 6.21875 
Q 42.328125 -1.421875 30.609375 -1.421875 
Q 18.84375 -1.421875 12.171875 6.21875 
Q 5.515625 13.875 5.515625 27.296875 
Q 5.515625 40.765625 12.171875 48.375 
Q 18.84375 56 30.609375 56 
z
" id="DejaVuSans-111"/>
       <path d="M 41.109375 46.296875 
Q 39.59375 47.171875 37.8125 47.578125 
Q 36.03125 48 33.890625 48 
Q 26.265625 48 22.1875 43.046875 
Q 18.109375 38.09375 18.109375 28.8125 
L 18.109375 0 
L 9.078125 0 
L 9.078125 54.6875 
L 18.109375 54.6875 
L 18.109375 46.1875 
Q 20.953125 51.171875 25.484375 53.578125 
Q 30.03125 56 36.53125 56 
Q 37.453125 56 38.578125 55.875 
Q 39.703125 55.765625 41.0625 55.515625 
z
" id="DejaVuSans-114"/>
       <path d="M 18.109375 8.203125 
L 18.109375 -20.796875 
L 9.078125 -20.796875 
L 9.078125 54.6875 
L 18.109375 54.6875 
L 18.109375 46.390625 
Q 20.953125 51.265625 25.265625 53.625 
Q 29.59375 56 35.59375 56 
Q 45.5625 56 51.78125 48.09375 
Q 58.015625 40.1875 58.015625 27.296875 
Q 58.015625 14.40625 51.78125 6.484375 
Q 45.5625 -1.421875 35.59375 -1.421875 
Q 29.59375 -1.421875 25.265625 0.953125 
Q 20.953125 3.328125 18.109375 8.203125 
z
M 48.6875 27.296875 
Q 48.6875 37.203125 44.609375 42.84375 
Q 40.53125 48.484375 33.40625 48.484375 
Q 26.265625 48.484375 22.1875 42.84375 
Q 18.109375 37.203125 18.109375 27.296875 
Q 18.109375 17.390625 22.1875 11.75 
Q 26.265625 6.109375 33.40625 6.109375 
Q 40.53125 6.109375 44.609375 11.75 
Q 48.6875 17.390625 48.6875 27.296875 
z
" id="DejaVuSans-112"/>
       <path d="M 50.984375 -16.609375 
L 50.984375 -23.578125 
L -0.984375 -23.578125 
L -0.984375 -16.609375 
z
" id="DejaVuSans-95"/>
       <path d="M 9.421875 54.6875 
L 18.40625 54.6875 
L 18.40625 0 
L 9.421875 0 
z
M 9.421875 75.984375 
L 18.40625 75.984375 
L 18.40625 64.59375 
L 9.421875 64.59375 
z
" id="DejaVuSans-105"/>
       <path d="M 54.890625 33.015625 
L 54.890625 0 
L 45.90625 0 
L 45.90625 32.71875 
Q 45.90625 40.484375 42.875 44.328125 
Q 39.84375 48.1875 33.796875 48.1875 
Q 26.515625 48.1875 22.3125 43.546875 
Q 18.109375 38.921875 18.109375 30.90625 
L 18.109375 0 
L 9.078125 0 
L 9.078125 54.6875 
L 18.109375 54.6875 
L 18.109375 46.1875 
Q 21.34375 51.125 25.703125 53.5625 
Q 30.078125 56 35.796875 56 
Q 45.21875 56 50.046875 50.171875 
Q 54.890625 44.34375 54.890625 33.015625 
z
" id="DejaVuSans-110"/>
       <path d="M 18.3125 70.21875 
L 18.3125 54.6875 
L 36.8125 54.6875 
L 36.8125 47.703125 
L 18.3125 47.703125 
L 18.3125 18.015625 
Q 18.3125 11.328125 20.140625 9.421875 
Q 21.96875 7.515625 27.59375 7.515625 
L 36.8125 7.515625 
L 36.8125 0 
L 27.59375 0 
Q 17.1875 0 13.234375 3.875 
Q 9.28125 7.765625 9.28125 18.015625 
L 9.28125 47.703125 
L 2.6875 47.703125 
L 2.6875 54.6875 
L 9.28125 54.6875 
L 9.28125 70.21875 
z
" id="DejaVuSans-116"/>
      </defs>
      <use xlink:href="#DejaVuSans-76"/>
      <use x="55.712891" xlink:href="#DejaVuSans-69"/>
      <use x="118.896484" xlink:href="#DejaVuSans-32"/>
      <use x="150.683594" xlink:href="#DejaVuSans-102"/>
      <use x="185.888672" xlink:href="#DejaVuSans-111"/>
      <use x="247.070312" xlink:href="#DejaVuSans-114"/>
      <use x="288.183594" xlink:href="#DejaVuSans-32"/>
      <use x="319.970703" xlink:href="#DejaVuSans-112"/>
      <use x="383.447266" xlink:href="#DejaVuSans-95"/>
      <use x="433.447266" xlink:href="#DejaVuSans-105"/>
      <use x="461.230469" xlink:href="#DejaVuSans-110"/>
      <use x="524.609375" xlink:href="#DejaVuSans-105"/>
      <use x="552.392578" xlink:href="#DejaVuSans-116"/>
      <use x="591.601562" xlink:href="#DejaVuSans-61"/>
      <use x="675.390625" xlink:href="#DejaVuSans-48"/>
      <use x="739.013672" xlink:href="#DejaVuSans-46"/>
      <use x="770.800781" xlink:href="#DejaVuSans-48"/>
      <use x="834.423828" xlink:href="#DejaVuSans-53"/>
     </g>
    </g>
    <g id="line2d_34">
     <path d="M 330.84 105.009687 
L 350.84 105.009687 
" style="fill:none;stroke:#000000;stroke-dasharray:5.55,2.4;stroke-dashoffset:0;stroke-width:1.5;"/>
    </g>
    <g id="line2d_35"/>
    <g id="text_11">
     <!-- TOV with term=0 for p_init=0.05 -->
     <g transform="translate(358.84 108.509687)scale(0.1 -0.1)">
      <defs>
       <path d="M -0.296875 72.90625 
L 61.375 72.90625 
L 61.375 64.59375 
L 35.5 64.59375 
L 35.5 0 
L 25.59375 0 
L 25.59375 64.59375 
L -0.296875 64.59375 
z
" id="DejaVuSans-84"/>
       <path d="M 39.40625 66.21875 
Q 28.65625 66.21875 22.328125 58.203125 
Q 16.015625 50.203125 16.015625 36.375 
Q 16.015625 22.609375 22.328125 14.59375 
Q 28.65625 6.59375 39.40625 6.59375 
Q 50.140625 6.59375 56.421875 14.59375 
Q 62.703125 22.609375 62.703125 36.375 
Q 62.703125 50.203125 56.421875 58.203125 
Q 50.140625 66.21875 39.40625 66.21875 
z
M 39.40625 74.21875 
Q 54.734375 74.21875 63.90625 63.9375 
Q 73.09375 53.65625 73.09375 36.375 
Q 73.09375 19.140625 63.90625 8.859375 
Q 54.734375 -1.421875 39.40625 -1.421875 
Q 24.03125 -1.421875 14.8125 8.828125 
Q 5.609375 19.09375 5.609375 36.375 
Q 5.609375 53.65625 14.8125 63.9375 
Q 24.03125 74.21875 39.40625 74.21875 
z
" id="DejaVuSans-79"/>
       <path d="M 28.609375 0 
L 0.78125 72.90625 
L 11.078125 72.90625 
L 34.1875 11.53125 
L 57.328125 72.90625 
L 67.578125 72.90625 
L 39.796875 0 
z
" id="DejaVuSans-86"/>
       <path d="M 4.203125 54.6875 
L 13.1875 54.6875 
L 24.421875 12.015625 
L 35.59375 54.6875 
L 46.1875 54.6875 
L 57.421875 12.015625 
L 68.609375 54.6875 
L 77.59375 54.6875 
L 63.28125 0 
L 52.6875 0 
L 40.921875 44.828125 
L 29.109375 0 
L 18.5 0 
z
" id="DejaVuSans-119"/>
       <path d="M 54.890625 33.015625 
L 54.890625 0 
L 45.90625 0 
L 45.90625 32.71875 
Q 45.90625 40.484375 42.875 44.328125 
Q 39.84375 48.1875 33.796875 48.1875 
Q 26.515625 48.1875 22.3125 43.546875 
Q 18.109375 38.921875 18.109375 30.90625 
L 18.109375 0 
L 9.078125 0 
L 9.078125 75.984375 
L 18.109375 75.984375 
L 18.109375 46.1875 
Q 21.34375 51.125 25.703125 53.5625 
Q 30.078125 56 35.796875 56 
Q 45.21875 56 50.046875 50.171875 
Q 54.890625 44.34375 54.890625 33.015625 
z
" id="DejaVuSans-104"/>
       <path d="M 56.203125 29.59375 
L 56.203125 25.203125 
L 14.890625 25.203125 
Q 15.484375 15.921875 20.484375 11.0625 
Q 25.484375 6.203125 34.421875 6.203125 
Q 39.59375 6.203125 44.453125 7.46875 
Q 49.3125 8.734375 54.109375 11.28125 
L 54.109375 2.78125 
Q 49.265625 0.734375 44.1875 -0.34375 
Q 39.109375 -1.421875 33.890625 -1.421875 
Q 20.796875 -1.421875 13.15625 6.1875 
Q 5.515625 13.8125 5.515625 26.8125 
Q 5.515625 40.234375 12.765625 48.109375 
Q 20.015625 56 32.328125 56 
Q 43.359375 56 49.78125 48.890625 
Q 56.203125 41.796875 56.203125 29.59375 
z
M 47.21875 32.234375 
Q 47.125 39.59375 43.09375 43.984375 
Q 39.0625 48.390625 32.421875 48.390625 
Q 24.90625 48.390625 20.390625 44.140625 
Q 15.875 39.890625 15.1875 32.171875 
z
" id="DejaVuSans-101"/>
       <path d="M 52 44.1875 
Q 55.375 50.25 60.0625 53.125 
Q 64.75 56 71.09375 56 
Q 79.640625 56 84.28125 50.015625 
Q 88.921875 44.046875 88.921875 33.015625 
L 88.921875 0 
L 79.890625 0 
L 79.890625 32.71875 
Q 79.890625 40.578125 77.09375 44.375 
Q 74.3125 48.1875 68.609375 48.1875 
Q 61.625 48.1875 57.5625 43.546875 
Q 53.515625 38.921875 53.515625 30.90625 
L 53.515625 0 
L 44.484375 0 
L 44.484375 32.71875 
Q 44.484375 40.625 41.703125 44.40625 
Q 38.921875 48.1875 33.109375 48.1875 
Q 26.21875 48.1875 22.15625 43.53125 
Q 18.109375 38.875 18.109375 30.90625 
L 18.109375 0 
L 9.078125 0 
L 9.078125 54.6875 
L 18.109375 54.6875 
L 18.109375 46.1875 
Q 21.1875 51.21875 25.484375 53.609375 
Q 29.78125 56 35.6875 56 
Q 41.65625 56 45.828125 52.96875 
Q 50 49.953125 52 44.1875 
z
" id="DejaVuSans-109"/>
      </defs>
      <use xlink:href="#DejaVuSans-84"/>
      <use x="61.083984" xlink:href="#DejaVuSans-79"/>
      <use x="138.044922" xlink:href="#DejaVuSans-86"/>
      <use x="206.453125" xlink:href="#DejaVuSans-32"/>
      <use x="238.240234" xlink:href="#DejaVuSans-119"/>
      <use x="320.027344" xlink:href="#DejaVuSans-105"/>
      <use x="347.810547" xlink:href="#DejaVuSans-116"/>
      <use x="387.019531" xlink:href="#DejaVuSans-104"/>
      <use x="450.398438" xlink:href="#DejaVuSans-32"/>
      <use x="482.185547" xlink:href="#DejaVuSans-116"/>
      <use x="521.394531" xlink:href="#DejaVuSans-101"/>
      <use x="582.917969" xlink:href="#DejaVuSans-114"/>
      <use x="622.28125" xlink:href="#DejaVuSans-109"/>
      <use x="719.693359" xlink:href="#DejaVuSans-61"/>
      <use x="803.482422" xlink:href="#DejaVuSans-48"/>
      <use x="867.105469" xlink:href="#DejaVuSans-32"/>
      <use x="898.892578" xlink:href="#DejaVuSans-102"/>
      <use x="934.097656" xlink:href="#DejaVuSans-111"/>
      <use x="995.279297" xlink:href="#DejaVuSans-114"/>
      <use x="1036.392578" xlink:href="#DejaVuSans-32"/>
      <use x="1068.179688" xlink:href="#DejaVuSans-112"/>
      <use x="1131.65625" xlink:href="#DejaVuSans-95"/>
      <use x="1181.65625" xlink:href="#DejaVuSans-105"/>
      <use x="1209.439453" xlink:href="#DejaVuSans-110"/>
      <use x="1272.818359" xlink:href="#DejaVuSans-105"/>
      <use x="1300.601562" xlink:href="#DejaVuSans-116"/>
      <use x="1339.810547" xlink:href="#DejaVuSans-61"/>
      <use x="1423.599609" xlink:href="#DejaVuSans-48"/>
      <use x="1487.222656" xlink:href="#DejaVuSans-46"/>
      <use x="1519.009766" xlink:href="#DejaVuSans-48"/>
      <use x="1582.632812" xlink:href="#DejaVuSans-53"/>
     </g>
    </g>
    <g id="line2d_36">
     <path d="M 330.84 119.965937 
L 350.84 119.965937 
" style="fill:none;stroke:#ff0000;stroke-linecap:square;stroke-width:1.5;"/>
    </g>
    <g id="line2d_37"/>
    <g id="text_12">
     <!-- LE for p_init=1 -->
     <g transform="translate(358.84 123.465937)scale(0.1 -0.1)">
      <use xlink:href="#DejaVuSans-76"/>
      <use x="55.712891" xlink:href="#DejaVuSans-69"/>
      <use x="118.896484" xlink:href="#DejaVuSans-32"/>
      <use x="150.683594" xlink:href="#DejaVuSans-102"/>
      <use x="185.888672" xlink:href="#DejaVuSans-111"/>
      <use x="247.070312" xlink:href="#DejaVuSans-114"/>
      <use x="288.183594" xlink:href="#DejaVuSans-32"/>
      <use x="319.970703" xlink:href="#DejaVuSans-112"/>
      <use x="383.447266" xlink:href="#DejaVuSans-95"/>
      <use x="433.447266" xlink:href="#DejaVuSans-105"/>
      <use x="461.230469" xlink:href="#DejaVuSans-110"/>
      <use x="524.609375" xlink:href="#DejaVuSans-105"/>
      <use x="552.392578" xlink:href="#DejaVuSans-116"/>
      <use x="591.601562" xlink:href="#DejaVuSans-61"/>
      <use x="675.390625" xlink:href="#DejaVuSans-49"/>
     </g>
    </g>
    <g id="line2d_38">
     <path d="M 330.84 134.922188 
L 350.84 134.922188 
" style="fill:none;stroke:#ff0000;stroke-dasharray:5.55,2.4;stroke-dashoffset:0;stroke-width:1.5;"/>
    </g>
    <g id="line2d_39"/>
    <g id="text_13">
     <!-- TOV with term=0 for p_init=1 -->
     <g transform="translate(358.84 138.422188)scale(0.1 -0.1)">
      <use xlink:href="#DejaVuSans-84"/>
      <use x="61.083984" xlink:href="#DejaVuSans-79"/>
      <use x="138.044922" xlink:href="#DejaVuSans-86"/>
      <use x="206.453125" xlink:href="#DejaVuSans-32"/>
      <use x="238.240234" xlink:href="#DejaVuSans-119"/>
      <use x="320.027344" xlink:href="#DejaVuSans-105"/>
      <use x="347.810547" xlink:href="#DejaVuSans-116"/>
      <use x="387.019531" xlink:href="#DejaVuSans-104"/>
      <use x="450.398438" xlink:href="#DejaVuSans-32"/>
      <use x="482.185547" xlink:href="#DejaVuSans-116"/>
      <use x="521.394531" xlink:href="#DejaVuSans-101"/>
      <use x="582.917969" xlink:href="#DejaVuSans-114"/>
      <use x="622.28125" xlink:href="#DejaVuSans-109"/>
      <use x="719.693359" xlink:href="#DejaVuSans-61"/>
      <use x="803.482422" xlink:href="#DejaVuSans-48"/>
      <use x="867.105469" xlink:href="#DejaVuSans-32"/>
      <use x="898.892578" xlink:href="#DejaVuSans-102"/>
      <use x="934.097656" xlink:href="#DejaVuSans-111"/>
      <use x="995.279297" xlink:href="#DejaVuSans-114"/>
      <use x="1036.392578" xlink:href="#DejaVuSans-32"/>
      <use x="1068.179688" xlink:href="#DejaVuSans-112"/>
      <use x="1131.65625" xlink:href="#DejaVuSans-95"/>
      <use x="1181.65625" xlink:href="#DejaVuSans-105"/>
      <use x="1209.439453" xlink:href="#DejaVuSans-110"/>
      <use x="1272.818359" xlink:href="#DejaVuSans-105"/>
      <use x="1300.601562" xlink:href="#DejaVuSans-116"/>
      <use x="1339.810547" xlink:href="#DejaVuSans-61"/>
      <use x="1423.599609" xlink:href="#DejaVuSans-49"/>
     </g>
    </g>
    <g id="line2d_40">
     <path d="M 330.84 149.878438 
L 350.84 149.878438 
" style="fill:none;stroke:#008000;stroke-linecap:square;stroke-width:1.5;"/>
    </g>
    <g id="line2d_41"/>
    <g id="text_14">
     <!-- LE for p_init=4 -->
     <g transform="translate(358.84 153.378438)scale(0.1 -0.1)">
      <defs>
       <path d="M 37.796875 64.3125 
L 12.890625 25.390625 
L 37.796875 25.390625 
z
M 35.203125 72.90625 
L 47.609375 72.90625 
L 47.609375 25.390625 
L 58.015625 25.390625 
L 58.015625 17.1875 
L 47.609375 17.1875 
L 47.609375 0 
L 37.796875 0 
L 37.796875 17.1875 
L 4.890625 17.1875 
L 4.890625 26.703125 
z
" id="DejaVuSans-52"/>
      </defs>
      <use xlink:href="#DejaVuSans-76"/>
      <use x="55.712891" xlink:href="#DejaVuSans-69"/>
      <use x="118.896484" xlink:href="#DejaVuSans-32"/>
      <use x="150.683594" xlink:href="#DejaVuSans-102"/>
      <use x="185.888672" xlink:href="#DejaVuSans-111"/>
      <use x="247.070312" xlink:href="#DejaVuSans-114"/>
      <use x="288.183594" xlink:href="#DejaVuSans-32"/>
      <use x="319.970703" xlink:href="#DejaVuSans-112"/>
      <use x="383.447266" xlink:href="#DejaVuSans-95"/>
      <use x="433.447266" xlink:href="#DejaVuSans-105"/>
      <use x="461.230469" xlink:href="#DejaVuSans-110"/>
      <use x="524.609375" xlink:href="#DejaVuSans-105"/>
      <use x="552.392578" xlink:href="#DejaVuSans-116"/>
      <use x="591.601562" xlink:href="#DejaVuSans-61"/>
      <use x="675.390625" xlink:href="#DejaVuSans-52"/>
     </g>
    </g>
    <g id="line2d_42">
     <path d="M 330.84 164.834688 
L 350.84 164.834688 
" style="fill:none;stroke:#008000;stroke-dasharray:5.55,2.4;stroke-dashoffset:0;stroke-width:1.5;"/>
    </g>
    <g id="line2d_43"/>
    <g id="text_15">
     <!-- TOV with term=0 for p_init=4 -->
     <g transform="translate(358.84 168.334688)scale(0.1 -0.1)">
      <use xlink:href="#DejaVuSans-84"/>
      <use x="61.083984" xlink:href="#DejaVuSans-79"/>
      <use x="138.044922" xlink:href="#DejaVuSans-86"/>
      <use x="206.453125" xlink:href="#DejaVuSans-32"/>
      <use x="238.240234" xlink:href="#DejaVuSans-119"/>
      <use x="320.027344" xlink:href="#DejaVuSans-105"/>
      <use x="347.810547" xlink:href="#DejaVuSans-116"/>
      <use x="387.019531" xlink:href="#DejaVuSans-104"/>
      <use x="450.398438" xlink:href="#DejaVuSans-32"/>
      <use x="482.185547" xlink:href="#DejaVuSans-116"/>
      <use x="521.394531" xlink:href="#DejaVuSans-101"/>
      <use x="582.917969" xlink:href="#DejaVuSans-114"/>
      <use x="622.28125" xlink:href="#DejaVuSans-109"/>
      <use x="719.693359" xlink:href="#DejaVuSans-61"/>
      <use x="803.482422" xlink:href="#DejaVuSans-48"/>
      <use x="867.105469" xlink:href="#DejaVuSans-32"/>
      <use x="898.892578" xlink:href="#DejaVuSans-102"/>
      <use x="934.097656" xlink:href="#DejaVuSans-111"/>
      <use x="995.279297" xlink:href="#DejaVuSans-114"/>
      <use x="1036.392578" xlink:href="#DejaVuSans-32"/>
      <use x="1068.179688" xlink:href="#DejaVuSans-112"/>
      <use x="1131.65625" xlink:href="#DejaVuSans-95"/>
      <use x="1181.65625" xlink:href="#DejaVuSans-105"/>
      <use x="1209.439453" xlink:href="#DejaVuSans-110"/>
      <use x="1272.818359" xlink:href="#DejaVuSans-105"/>
      <use x="1300.601562" xlink:href="#DejaVuSans-116"/>
      <use x="1339.810547" xlink:href="#DejaVuSans-61"/>
      <use x="1423.599609" xlink:href="#DejaVuSans-52"/>
     </g>
    </g>
    <g id="line2d_44">
     <path d="M 330.84 179.790937 
L 350.84 179.790937 
" style="fill:none;stroke:#0000ff;stroke-linecap:square;stroke-width:1.5;"/>
    </g>
    <g id="line2d_45"/>
    <g id="text_16">
     <!-- LE for p_init=512 -->
     <g transform="translate(358.84 183.290937)scale(0.1 -0.1)">
      <use xlink:href="#DejaVuSans-76"/>
      <use x="55.712891" xlink:href="#DejaVuSans-69"/>
      <use x="118.896484" xlink:href="#DejaVuSans-32"/>
      <use x="150.683594" xlink:href="#DejaVuSans-102"/>
      <use x="185.888672" xlink:href="#DejaVuSans-111"/>
      <use x="247.070312" xlink:href="#DejaVuSans-114"/>
      <use x="288.183594" xlink:href="#DejaVuSans-32"/>
      <use x="319.970703" xlink:href="#DejaVuSans-112"/>
      <use x="383.447266" xlink:href="#DejaVuSans-95"/>
      <use x="433.447266" xlink:href="#DejaVuSans-105"/>
      <use x="461.230469" xlink:href="#DejaVuSans-110"/>
      <use x="524.609375" xlink:href="#DejaVuSans-105"/>
      <use x="552.392578" xlink:href="#DejaVuSans-116"/>
      <use x="591.601562" xlink:href="#DejaVuSans-61"/>
      <use x="675.390625" xlink:href="#DejaVuSans-53"/>
      <use x="739.013672" xlink:href="#DejaVuSans-49"/>
      <use x="802.636719" xlink:href="#DejaVuSans-50"/>
     </g>
    </g>
    <g id="line2d_46">
     <path d="M 330.84 194.747187 
L 350.84 194.747187 
" style="fill:none;stroke:#0000ff;stroke-dasharray:5.55,2.4;stroke-dashoffset:0;stroke-width:1.5;"/>
    </g>
    <g id="line2d_47"/>
    <g id="text_17">
     <!-- TOV with term=0 for p_init=512 -->
     <g transform="translate(358.84 198.247187)scale(0.1 -0.1)">
      <use xlink:href="#DejaVuSans-84"/>
      <use x="61.083984" xlink:href="#DejaVuSans-79"/>
      <use x="138.044922" xlink:href="#DejaVuSans-86"/>
      <use x="206.453125" xlink:href="#DejaVuSans-32"/>
      <use x="238.240234" xlink:href="#DejaVuSans-119"/>
      <use x="320.027344" xlink:href="#DejaVuSans-105"/>
      <use x="347.810547" xlink:href="#DejaVuSans-116"/>
      <use x="387.019531" xlink:href="#DejaVuSans-104"/>
      <use x="450.398438" xlink:href="#DejaVuSans-32"/>
      <use x="482.185547" xlink:href="#DejaVuSans-116"/>
      <use x="521.394531" xlink:href="#DejaVuSans-101"/>
      <use x="582.917969" xlink:href="#DejaVuSans-114"/>
      <use x="622.28125" xlink:href="#DejaVuSans-109"/>
      <use x="719.693359" xlink:href="#DejaVuSans-61"/>
      <use x="803.482422" xlink:href="#DejaVuSans-48"/>
      <use x="867.105469" xlink:href="#DejaVuSans-32"/>
      <use x="898.892578" xlink:href="#DejaVuSans-102"/>
      <use x="934.097656" xlink:href="#DejaVuSans-111"/>
      <use x="995.279297" xlink:href="#DejaVuSans-114"/>
      <use x="1036.392578" xlink:href="#DejaVuSans-32"/>
      <use x="1068.179688" xlink:href="#DejaVuSans-112"/>
      <use x="1131.65625" xlink:href="#DejaVuSans-95"/>
      <use x="1181.65625" xlink:href="#DejaVuSans-105"/>
      <use x="1209.439453" xlink:href="#DejaVuSans-110"/>
      <use x="1272.818359" xlink:href="#DejaVuSans-105"/>
      <use x="1300.601562" xlink:href="#DejaVuSans-116"/>
      <use x="1339.810547" xlink:href="#DejaVuSans-61"/>
      <use x="1423.599609" xlink:href="#DejaVuSans-53"/>
      <use x="1487.222656" xlink:href="#DejaVuSans-49"/>
      <use x="1550.845703" xlink:href="#DejaVuSans-50"/>
     </g>
    </g>
   </g>
  </g>
 </g>
 <defs>
  <clipPath id="p99dcc10922">
   <rect height="217.44" width="267.84" x="54" y="34.56"/>
  </clipPath>
 </defs>
</svg>
