<?xml version="1.0" encoding="utf-8" standalone="no"?>
<!DOCTYPE svg PUBLIC "-//W3C//DTD SVG 1.1//EN"
  "http://www.w3.org/Graphics/SVG/1.1/DTD/svg11.dtd">
<svg height="313.690252pt" version="1.1" viewBox="0 0 418.253669 313.690252" width="418.253669pt" xmlns="http://www.w3.org/2000/svg" xmlns:xlink="http://www.w3.org/1999/xlink">
 <metadata>
  <rdf:RDF xmlns:cc="http://creativecommons.org/ns#" xmlns:dc="http://purl.org/dc/elements/1.1/" xmlns:rdf="http://www.w3.org/1999/02/22-rdf-syntax-ns#">
   <cc:Work>
    <dc:type rdf:resource="http://purl.org/dc/dcmitype/StillImage"/>
    <dc:date>2021-07-07T09:00:37.903679</dc:date>
    <dc:format>image/svg+xml</dc:format>
    <dc:creator>
     <cc:Agent>
      <dc:title>Matplotlib v3.4.2, https://matplotlib.org/</dc:title>
     </cc:Agent>
    </dc:creator>
   </cc:Work>
  </rdf:RDF>
 </metadata>
 <defs>
  <style type="text/css">*{stroke-linecap:butt;stroke-linejoin:round;}</style>
 </defs>
 <g id="figure_1">
  <g id="patch_1">
   <path d="M 0 313.690252 
L 418.253669 313.690252 
L 418.253669 0 
L 0 0 
z
" style="fill:#ffffff;"/>
  </g>
  <g id="axes_1">
   <g id="patch_2">
    <path d="M 30.57782 139.365814 
L 203.726835 139.365814 
L 203.726835 25.8 
L 30.57782 25.8 
z
" style="fill:#ffffff;"/>
   </g>
   <g id="matplotlib.axis_1">
    <g id="xtick_1">
     <g id="line2d_1">
      <defs>
       <path d="M 0 0 
L 0 3.5 
" id="maba85a6b63" style="stroke:#000000;stroke-width:0.8;"/>
      </defs>
      <g>
       <use style="stroke:#000000;stroke-width:0.8;" x="38.44823" xlink:href="#maba85a6b63" y="139.365814"/>
      </g>
     </g>
     <g id="text_1">
      <!-- $\mathdefault{0}$ -->
      <g transform="translate(35.957562 153.284312)scale(0.1 -0.1)">
       <defs>
        <path d="M 2688 2038 
C 2688 2430 2682 3099 2413 3613 
C 2176 4063 1798 4224 1466 4224 
C 1158 4224 768 4082 525 3620 
C 269 3137 243 2539 243 2038 
C 243 1671 250 1112 448 623 
C 723 -39 1216 -128 1466 -128 
C 1760 -128 2208 -7 2470 604 
C 2662 1048 2688 1568 2688 2038 
z
M 1466 -26 
C 1056 -26 813 328 723 816 
C 653 1196 653 1749 653 2109 
C 653 2604 653 3015 736 3407 
C 858 3954 1216 4121 1466 4121 
C 1728 4121 2067 3947 2189 3420 
C 2272 3054 2278 2623 2278 2109 
C 2278 1691 2278 1176 2202 797 
C 2067 96 1690 -26 1466 -26 
z
" id="CMR17-30" transform="scale(0.015625)"/>
       </defs>
       <use transform="scale(0.996264)" xlink:href="#CMR17-30"/>
      </g>
     </g>
    </g>
    <g id="xtick_2">
     <g id="line2d_2">
      <g>
       <use style="stroke:#000000;stroke-width:0.8;" x="101.386333" xlink:href="#maba85a6b63" y="139.365814"/>
      </g>
     </g>
     <g id="text_2">
      <!-- $\mathdefault{1}$ -->
      <g transform="translate(98.895665 153.284312)scale(0.1 -0.1)">
       <defs>
        <path d="M 1702 4083 
C 1702 4217 1696 4224 1606 4224 
C 1357 3927 979 3833 621 3820 
C 602 3820 570 3820 563 3808 
C 557 3795 557 3782 557 3648 
C 755 3648 1088 3686 1344 3839 
L 1344 467 
C 1344 243 1331 166 781 166 
L 589 166 
L 589 0 
C 896 6 1216 12 1523 12 
C 1830 12 2150 6 2458 0 
L 2458 166 
L 2266 166 
C 1715 166 1702 236 1702 467 
L 1702 4083 
z
" id="CMR17-31" transform="scale(0.015625)"/>
       </defs>
       <use transform="scale(0.996264)" xlink:href="#CMR17-31"/>
      </g>
     </g>
    </g>
    <g id="xtick_3">
     <g id="line2d_3">
      <g>
       <use style="stroke:#000000;stroke-width:0.8;" x="164.324435" xlink:href="#maba85a6b63" y="139.365814"/>
      </g>
     </g>
     <g id="text_3">
      <!-- $\mathdefault{2}$ -->
      <g transform="translate(161.833768 153.284312)scale(0.1 -0.1)">
       <defs>
        <path d="M 2669 990 
L 2554 990 
C 2490 537 2438 460 2413 422 
C 2381 371 1920 371 1830 371 
L 602 371 
C 832 620 1280 1073 1824 1596 
C 2214 1966 2669 2400 2669 3033 
C 2669 3788 2067 4224 1395 4224 
C 691 4224 262 3603 262 3027 
C 262 2777 448 2745 525 2745 
C 589 2745 781 2783 781 3007 
C 781 3206 614 3264 525 3264 
C 486 3264 448 3257 422 3244 
C 544 3788 915 4057 1306 4057 
C 1862 4057 2227 3616 2227 3033 
C 2227 2477 1901 1998 1536 1583 
L 262 147 
L 262 0 
L 2515 0 
L 2669 990 
z
" id="CMR17-32" transform="scale(0.015625)"/>
       </defs>
       <use transform="scale(0.996264)" xlink:href="#CMR17-32"/>
      </g>
     </g>
    </g>
   </g>
   <g id="matplotlib.axis_2">
    <g id="ytick_1">
     <g id="line2d_4">
      <defs>
       <path d="M 0 0 
L -3.5 0 
" id="md510c3d20d" style="stroke:#000000;stroke-width:0.8;"/>
      </defs>
      <g>
       <use style="stroke:#000000;stroke-width:0.8;" x="30.57782" xlink:href="#md510c3d20d" y="134.203731"/>
      </g>
     </g>
     <g id="text_4">
      <!-- $\mathdefault{0.0}$ -->
      <g transform="translate(10.847741 137.662981)scale(0.1 -0.1)">
       <defs>
        <path d="M 1178 307 
C 1178 492 1024 620 870 620 
C 685 620 557 467 557 313 
C 557 128 710 0 864 0 
C 1050 0 1178 153 1178 307 
z
" id="CMMI12-3a" transform="scale(0.015625)"/>
       </defs>
       <use transform="scale(0.996264)" xlink:href="#CMR17-30"/>
       <use transform="translate(45.690477 0)scale(0.996264)" xlink:href="#CMMI12-3a"/>
       <use transform="translate(72.787654 0)scale(0.996264)" xlink:href="#CMR17-30"/>
      </g>
     </g>
    </g>
    <g id="ytick_2">
     <g id="line2d_5">
      <g>
       <use style="stroke:#000000;stroke-width:0.8;" x="30.57782" xlink:href="#md510c3d20d" y="92.907072"/>
      </g>
     </g>
     <g id="text_5">
      <!-- $\mathdefault{0.2}$ -->
      <g transform="translate(10.847741 96.366321)scale(0.1 -0.1)">
       <use transform="scale(0.996264)" xlink:href="#CMR17-30"/>
       <use transform="translate(45.690477 0)scale(0.996264)" xlink:href="#CMMI12-3a"/>
       <use transform="translate(72.787654 0)scale(0.996264)" xlink:href="#CMR17-32"/>
      </g>
     </g>
    </g>
    <g id="ytick_3">
     <g id="line2d_6">
      <g>
       <use style="stroke:#000000;stroke-width:0.8;" x="30.57782" xlink:href="#md510c3d20d" y="51.610412"/>
      </g>
     </g>
     <g id="text_6">
      <!-- $\mathdefault{0.4}$ -->
      <g transform="translate(10.847741 55.069661)scale(0.1 -0.1)">
       <defs>
        <path d="M 2150 4147 
C 2150 4281 2144 4288 2029 4288 
L 128 1254 
L 128 1088 
L 1779 1088 
L 1779 460 
C 1779 230 1766 166 1318 166 
L 1197 166 
L 1197 0 
C 1402 12 1747 12 1965 12 
C 2182 12 2528 12 2733 0 
L 2733 166 
L 2611 166 
C 2163 166 2150 230 2150 460 
L 2150 1088 
L 2803 1088 
L 2803 1254 
L 2150 1254 
L 2150 4147 
z
M 1798 3723 
L 1798 1254 
L 256 1254 
L 1798 3723 
z
" id="CMR17-34" transform="scale(0.015625)"/>
       </defs>
       <use transform="scale(0.996264)" xlink:href="#CMR17-30"/>
       <use transform="translate(45.690477 0)scale(0.996264)" xlink:href="#CMMI12-3a"/>
       <use transform="translate(72.787654 0)scale(0.996264)" xlink:href="#CMR17-34"/>
      </g>
     </g>
    </g>
   </g>
   <g id="line2d_7">
    <path clip-path="url(#p88c26f8db6)" d="M 38.44823 30.962082 
L 38.951735 31.087966 
L 39.455239 31.463936 
L 40.021682 32.182438 
L 40.714001 33.475392 
L 41.469259 35.385201 
L 42.350392 38.229189 
L 43.42034 42.484169 
L 44.74204 48.757017 
L 46.441369 58.02013 
L 53.36456 97.139131 
L 55.000951 104.48275 
L 56.511465 110.273196 
L 57.896104 114.756598 
L 59.280742 118.502285 
L 60.602442 121.457762 
L 61.924142 123.883811 
L 63.245842 125.857496 
L 64.630481 127.52008 
L 66.015119 128.843367 
L 67.525633 129.977452 
L 69.162024 130.921502 
L 70.987229 131.710663 
L 73.064186 132.362279 
L 75.58171 132.908849 
L 78.728616 133.350137 
L 82.88253 133.692125 
L 88.86165 133.941545 
L 98.742932 134.103446 
L 120.204825 134.184844 
L 195.856425 134.203365 
L 195.856425 134.203365 
" style="fill:none;stroke:#000000;stroke-linecap:square;stroke-width:1.5;"/>
   </g>
   <g id="line2d_8">
    <path clip-path="url(#p88c26f8db6)" d="M 38.44823 30.962082 
L 38.951735 31.087926 
L 39.455239 31.4633 
L 40.021682 32.178683 
L 40.714001 33.459555 
L 41.532197 35.514274 
L 42.476268 38.540093 
L 43.609154 42.950925 
L 45.119669 49.814155 
L 47.574255 62.192966 
L 50.909974 78.79624 
L 52.923993 87.718104 
L 54.749198 94.835354 
L 56.448527 100.609831 
L 58.147856 105.601154 
L 59.784247 109.730368 
L 61.420637 113.267445 
L 63.057028 116.285776 
L 64.693419 118.855445 
L 66.392747 121.117676 
L 68.155014 123.093474 
L 69.980219 124.806889 
L 71.9313 126.328064 
L 74.008258 127.658838 
L 76.211091 128.807539 
L 78.665677 129.83417 
L 81.434954 130.742704 
L 84.581859 131.531582 
L 88.232269 132.208703 
L 92.574998 132.780059 
L 97.924737 133.251084 
L 104.847928 133.625801 
L 114.41452 133.904785 
L 129.142036 134.089251 
L 157.464182 134.183497 
L 195.856425 134.201724 
L 195.856425 134.201724 
" style="fill:none;stroke:#000000;stroke-dasharray:5.55,2.4;stroke-dashoffset:0;stroke-width:1.5;"/>
   </g>
   <g id="line2d_9">
    <path clip-path="url(#p88c26f8db6)" d="M 38.44823 30.962082 
L 39.140549 31.067368 
L 39.895806 31.420576 
L 40.714001 32.080411 
L 41.595135 33.105346 
L 42.539206 34.551077 
L 43.609154 36.599141 
L 44.867916 39.518572 
L 46.315493 43.472612 
L 48.077759 48.986176 
L 50.343531 56.867112 
L 59.532494 89.695967 
L 61.798266 96.548345 
L 63.875223 102.157522 
L 65.889243 106.969694 
L 67.840324 111.058756 
L 69.728467 114.510094 
L 71.61661 117.503045 
L 73.504753 120.081084 
L 75.392896 122.289144 
L 77.343977 124.228937 
L 79.357997 125.914999 
L 81.434954 127.365675 
L 83.637788 128.634611 
L 86.029435 129.75171 
L 88.609898 130.70985 
L 91.50505 131.543142 
L 94.777832 132.249036 
L 98.617056 132.842311 
L 103.211538 133.320459 
L 109.064781 133.694682 
L 116.994982 133.962951 
L 129.142036 134.128539 
L 153.87671 134.198027 
L 195.856425 134.20373 
L 195.856425 134.20373 
" style="fill:none;stroke:#000000;stroke-dasharray:9.6,2.4,1.5,2.4;stroke-dashoffset:0;stroke-width:1.5;"/>
   </g>
   <g id="line2d_10">
    <path clip-path="url(#p88c26f8db6)" d="M 38.44823 30.962082 
L 39.329363 31.082037 
L 40.210497 31.4404 
L 41.154568 32.085679 
L 42.161578 33.065094 
L 43.231526 34.4234 
L 44.42735 36.309115 
L 45.74905 38.812449 
L 47.259564 42.157791 
L 49.021831 46.619468 
L 51.161727 52.672425 
L 54.119817 61.778522 
L 61.861204 85.923971 
L 64.567542 93.476869 
L 66.95919 99.525477 
L 69.224962 104.667216 
L 71.364858 108.988966 
L 73.441815 112.698635 
L 75.518772 115.954183 
L 77.532792 118.707215 
L 79.546811 121.096083 
L 81.623768 123.215382 
L 83.700726 125.023526 
L 85.903559 126.64303 
L 88.169331 128.031843 
L 90.560979 129.238654 
L 93.141441 130.291345 
L 95.973656 131.203397 
L 99.120561 131.979675 
L 102.708033 132.631449 
L 106.924886 133.165562 
L 112.08581 133.586152 
L 118.757249 133.894757 
L 128.260902 134.094476 
L 144.9395 134.190021 
L 183.961123 134.203731 
L 183.961123 134.203731 
" style="fill:none;stroke:#000000;stroke-dasharray:1.5,2.475;stroke-dashoffset:0;stroke-width:1.5;"/>
   </g>
   <g id="patch_3">
    <path d="M 30.57782 139.365814 
L 30.57782 25.8 
" style="fill:none;stroke:#000000;stroke-linecap:square;stroke-linejoin:miter;stroke-width:0.8;"/>
   </g>
   <g id="patch_4">
    <path d="M 203.726835 139.365814 
L 203.726835 25.8 
" style="fill:none;stroke:#000000;stroke-linecap:square;stroke-linejoin:miter;stroke-width:0.8;"/>
   </g>
   <g id="patch_5">
    <path d="M 30.57782 139.365814 
L 203.726835 139.365814 
" style="fill:none;stroke:#000000;stroke-linecap:square;stroke-linejoin:miter;stroke-width:0.8;"/>
   </g>
   <g id="patch_6">
    <path d="M 30.57782 25.8 
L 203.726835 25.8 
" style="fill:none;stroke:#000000;stroke-linecap:square;stroke-linejoin:miter;stroke-width:0.8;"/>
   </g>
   <g id="text_7">
    <!-- Pressure $p(r)$ -->
    <g transform="translate(83.304943 19.8)scale(0.12 -0.12)">
     <defs>
      <path d="M 1267 2048 
L 2291 2048 
C 3117 2048 3718 2583 3718 3187 
C 3718 3791 3130 4352 2291 4352 
L 333 4352 
L 333 4185 
C 774 4185 845 4185 845 3899 
L 845 453 
C 845 166 774 166 333 166 
L 333 0 
C 518 12 858 12 1056 12 
C 1254 12 1594 12 1779 0 
L 1779 166 
C 1338 166 1267 166 1267 453 
L 1267 2048 
z
M 1254 2182 
L 1254 3937 
C 1254 4153 1267 4185 1523 4185 
L 2170 4185 
C 2995 4185 3232 3715 3232 3187 
C 3232 2608 2950 2182 2170 2182 
L 1254 2182 
z
" id="CMR17-50" transform="scale(0.015625)"/>
      <path d="M 960 1517 
C 960 2134 1222 2713 1702 2713 
C 1747 2713 1792 2707 1837 2687 
C 1837 2687 1696 2642 1696 2475 
C 1696 2321 1818 2257 1914 2257 
C 1990 2257 2131 2302 2131 2482 
C 2131 2687 1926 2816 1709 2816 
C 1222 2816 1011 2340 947 2115 
L 941 2115 
L 941 2816 
L 198 2745 
L 198 2578 
C 576 2578 634 2540 634 2231 
L 634 443 
C 634 198 608 166 198 166 
L 198 0 
C 352 12 646 12 813 12 
C 998 12 1325 12 1498 0 
L 1498 166 
C 1037 166 960 166 960 455 
L 960 1517 
z
" id="CMR17-72" transform="scale(0.015625)"/>
      <path d="M 2438 1503 
C 2464 1529 2464 1542 2464 1606 
C 2464 2251 2118 2816 1389 2816 
C 710 2816 173 2175 173 1394 
C 173 554 781 -64 1459 -64 
C 2176 -64 2458 619 2458 755 
C 2458 800 2419 800 2406 800 
C 2362 800 2355 787 2330 709 
C 2189 270 1837 51 1504 51 
C 1229 51 954 206 781 490 
C 582 819 582 1200 582 1503 
L 2438 1503 
z
M 589 1600 
C 634 2511 1126 2713 1382 2713 
C 1818 2713 2112 2308 2118 1600 
L 589 1600 
z
" id="CMR17-65" transform="scale(0.015625)"/>
      <path d="M 1978 2688 
C 1978 2803 1971 2809 1933 2809 
C 1907 2809 1901 2803 1824 2707 
C 1805 2681 1747 2617 1728 2592 
C 1523 2809 1235 2816 1126 2816 
C 416 2816 160 2444 160 2073 
C 160 1497 813 1363 998 1324 
C 1402 1241 1542 1216 1677 1100 
C 1760 1024 1901 883 1901 652 
C 1901 384 1747 38 1158 38 
C 602 38 403 460 288 1024 
C 269 1113 269 1120 218 1120 
C 166 1120 160 1113 160 985 
L 160 64 
C 160 -52 166 -58 205 -58 
C 237 -58 243 -52 275 0 
C 314 57 410 211 448 275 
C 576 102 800 -64 1158 -64 
C 1792 -64 2131 281 2131 780 
C 2131 1107 1958 1280 1875 1356 
C 1683 1555 1459 1600 1190 1651 
C 838 1728 390 1817 390 2208 
C 390 2374 480 2726 1126 2726 
C 1811 2726 1850 2086 1862 1881 
C 1869 1849 1901 1843 1920 1843 
C 1978 1843 1978 1862 1978 1971 
L 1978 2688 
z
" id="CMR17-73" transform="scale(0.015625)"/>
      <path d="M 1882 2745 
L 1882 2579 
C 2259 2579 2317 2540 2317 2229 
L 2317 1053 
C 2317 510 2029 38 1555 38 
C 1030 38 986 355 986 691 
L 986 2816 
L 211 2745 
L 211 2579 
C 467 2579 640 2579 646 2320 
L 646 1079 
C 646 646 646 368 813 187 
C 896 103 1056 -64 1517 -64 
C 2061 -64 2272 400 2323 536 
L 2330 536 
L 2330 -64 
L 3091 -13 
L 3091 154 
C 2714 154 2656 193 2656 503 
L 2656 2816 
L 1882 2745 
z
" id="CMR17-75" transform="scale(0.015625)"/>
      <path d="M 275 -794 
C 230 -981 205 -1031 -58 -1031 
C -135 -1031 -199 -1031 -199 -1152 
C -199 -1165 -192 -1216 -122 -1216 
C -39 -1216 51 -1204 134 -1204 
L 410 -1204 
C 544 -1204 870 -1216 1005 -1216 
C 1043 -1216 1120 -1216 1120 -1101 
C 1120 -1031 1075 -1031 966 -1031 
C 672 -1031 653 -987 653 -937 
C 653 -863 941 217 979 364 
C 1050 185 1222 -64 1555 -64 
C 2278 -64 3059 874 3059 1813 
C 3059 2400 2726 2816 2246 2816 
C 1837 2816 1491 2419 1421 2330 
C 1370 2649 1120 2816 864 2816 
C 678 2816 531 2726 410 2483 
C 294 2253 205 1864 205 1838 
C 205 1813 230 1781 275 1781 
C 326 1781 333 1787 371 1934 
C 467 2311 589 2687 845 2687 
C 992 2687 1043 2585 1043 2394 
C 1043 2241 1024 2177 998 2062 
L 275 -794 
z
M 1382 1992 
C 1427 2170 1606 2356 1709 2445 
C 1779 2509 1990 2687 2234 2687 
C 2515 2687 2643 2407 2643 2075 
C 2643 1768 2464 1047 2304 715 
C 2144 370 1850 64 1555 64 
C 1120 64 1050 613 1050 638 
C 1050 657 1062 708 1069 740 
L 1382 1992 
z
" id="CMMI12-70" transform="scale(0.015625)"/>
      <path d="M 1958 -1562 
C 1958 -1556 1958 -1543 1939 -1524 
C 1645 -1223 858 -403 858 1596 
C 858 3595 1632 4408 1946 4729 
C 1946 4735 1958 4748 1958 4767 
C 1958 4787 1939 4800 1914 4800 
C 1843 4800 1299 4325 986 3620 
C 666 2909 576 2218 576 1603 
C 576 1141 621 360 1005 -467 
C 1312 -1133 1837 -1600 1914 -1600 
C 1946 -1600 1958 -1588 1958 -1562 
z
" id="CMR17-28" transform="scale(0.015625)"/>
      <path d="M 2490 2633 
C 2291 2598 2189 2457 2189 2316 
C 2189 2163 2310 2111 2400 2111 
C 2579 2111 2726 2265 2726 2457 
C 2726 2651 2528 2816 2208 2816 
C 1952 2816 1658 2700 1389 2335 
C 1344 2660 1088 2816 832 2816 
C 582 2816 454 2642 378 2508 
C 269 2278 173 1892 173 1860 
C 173 1834 198 1801 243 1801 
C 294 1801 301 1808 339 1957 
C 435 2342 557 2687 813 2687 
C 966 2687 1011 2604 1011 2419 
C 1011 2278 947 2028 902 1827 
L 723 1130 
C 698 1007 627 716 595 600 
C 550 432 480 128 480 96 
C 480 6 550 -64 646 -64 
C 717 -64 838 -20 877 109 
C 896 160 1133 1136 1171 1285 
C 1203 1427 1242 1562 1274 1705 
C 1299 1795 1325 1898 1344 1982 
C 1363 2040 1536 2355 1696 2495 
C 1773 2566 1939 2687 2202 2687 
C 2304 2687 2406 2674 2490 2633 
z
" id="CMMI12-72" transform="scale(0.015625)"/>
      <path d="M 1683 1596 
C 1683 2057 1638 2839 1254 3665 
C 947 4332 422 4800 346 4800 
C 326 4800 301 4793 301 4761 
C 301 4748 307 4742 314 4729 
C 621 4408 1402 3595 1402 1603 
C 1402 -396 627 -1210 314 -1530 
C 307 -1543 301 -1549 301 -1562 
C 301 -1594 326 -1600 346 -1600 
C 416 -1600 960 -1127 1274 -422 
C 1594 289 1683 981 1683 1596 
z
" id="CMR17-29" transform="scale(0.015625)"/>
     </defs>
     <use transform="scale(0.996264)" xlink:href="#CMR17-50"/>
     <use transform="translate(62.586301 0)scale(0.996264)" xlink:href="#CMR17-72"/>
     <use transform="translate(97.867068 0)scale(0.996264)" xlink:href="#CMR17-65"/>
     <use transform="translate(138.352729 0)scale(0.996264)" xlink:href="#CMR17-73"/>
     <use transform="translate(174.154066 0)scale(0.996264)" xlink:href="#CMR17-73"/>
     <use transform="translate(209.955404 0)scale(0.996264)" xlink:href="#CMR17-75"/>
     <use transform="translate(260.850774 0)scale(0.996264)" xlink:href="#CMR17-72"/>
     <use transform="translate(296.131542 0)scale(0.996264)" xlink:href="#CMR17-65"/>
     <use transform="translate(366.693168 0)scale(0.996264)" xlink:href="#CMMI12-70"/>
     <use transform="translate(415.652682 0)scale(0.996264)" xlink:href="#CMR17-28"/>
     <use transform="translate(450.93345 0)scale(0.996264)" xlink:href="#CMMI12-72"/>
     <use transform="translate(497.604062 0)scale(0.996264)" xlink:href="#CMR17-29"/>
    </g>
   </g>
   <g id="legend_1">
    <g id="patch_7">
     <path d="M 145.797165 89.548713 
L 196.726835 89.548713 
Q 198.726835 89.548713 198.726835 87.548713 
L 198.726835 32.8 
Q 198.726835 30.8 196.726835 30.8 
L 145.797165 30.8 
Q 143.797165 30.8 143.797165 32.8 
L 143.797165 87.548713 
Q 143.797165 89.548713 145.797165 89.548713 
z
" style="fill:#ffffff;opacity:0.8;stroke:#cccccc;stroke-linejoin:miter;"/>
    </g>
    <g id="line2d_11">
     <path d="M 147.797165 38.3 
L 167.797165 38.3 
" style="fill:none;stroke:#000000;stroke-linecap:square;stroke-width:1.5;"/>
    </g>
    <g id="line2d_12"/>
    <g id="text_8">
     <!-- $i=$3 -->
     <g transform="translate(175.797165 41.8)scale(0.1 -0.1)">
      <defs>
       <path d="M 1811 913 
C 1811 945 1786 970 1747 970 
C 1690 970 1683 951 1651 842 
C 1485 261 1222 64 1011 64 
C 934 64 845 83 845 274 
C 845 447 922 638 992 830 
L 1440 2017 
C 1459 2068 1504 2183 1504 2305 
C 1504 2573 1312 2816 998 2816 
C 410 2816 173 1890 173 1838 
C 173 1813 198 1781 243 1781 
C 301 1781 307 1807 333 1896 
C 486 2432 730 2687 979 2687 
C 1037 2687 1146 2681 1146 2477 
C 1146 2311 1062 2100 1011 1960 
L 563 772 
C 525 670 486 568 486 453 
C 486 166 685 -64 992 -64 
C 1581 -64 1811 868 1811 913 
z
M 1760 4012 
C 1760 4108 1683 4224 1542 4224 
C 1395 4224 1229 4083 1229 3916 
C 1229 3756 1363 3705 1440 3705 
C 1613 3705 1760 3871 1760 4012 
z
" id="CMMI12-69" transform="scale(0.015625)"/>
       <path d="M 4115 2048 
C 4211 2048 4307 2048 4307 2156 
C 4307 2272 4198 2272 4090 2272 
L 512 2272 
C 403 2272 294 2272 294 2156 
C 294 2048 390 2048 486 2048 
L 4115 2048 
z
M 4090 927 
C 4198 927 4307 927 4307 1043 
C 4307 1152 4211 1152 4115 1152 
L 486 1152 
C 390 1152 294 1152 294 1043 
C 294 927 403 927 512 927 
L 4090 927 
z
" id="CMR17-3d" transform="scale(0.015625)"/>
       <path d="M 1414 2176 
C 1984 2176 2234 1673 2234 1094 
C 2234 322 1824 25 1453 25 
C 1114 25 563 193 390 691 
C 422 678 454 678 486 678 
C 640 678 755 780 755 947 
C 755 1132 614 1216 486 1216 
C 378 1216 211 1164 211 927 
C 211 335 787 -128 1466 -128 
C 2176 -128 2720 432 2720 1087 
C 2720 1718 2208 2176 1600 2246 
C 2086 2347 2554 2776 2554 3353 
C 2554 3856 2048 4224 1472 4224 
C 890 4224 378 3862 378 3347 
C 378 3123 544 3084 627 3084 
C 762 3084 877 3167 877 3334 
C 877 3500 762 3584 627 3584 
C 602 3584 570 3584 544 3571 
C 730 3999 1235 4076 1459 4076 
C 1683 4076 2106 3966 2106 3347 
C 2106 3167 2080 2851 1862 2574 
C 1670 2329 1453 2316 1242 2297 
C 1210 2297 1062 2284 1037 2284 
C 992 2278 966 2272 966 2227 
C 966 2182 973 2176 1101 2176 
L 1414 2176 
z
" id="CMR17-33" transform="scale(0.015625)"/>
      </defs>
      <use transform="scale(0.996264)" xlink:href="#CMMI12-69"/>
      <use transform="translate(60.952611 0)scale(0.996264)" xlink:href="#CMR17-3d"/>
      <use transform="translate(132.667399 0)scale(0.996264)" xlink:href="#CMR17-33"/>
     </g>
    </g>
    <g id="line2d_13">
     <path d="M 147.797165 52.237178 
L 167.797165 52.237178 
" style="fill:none;stroke:#000000;stroke-dasharray:5.55,2.4;stroke-dashoffset:0;stroke-width:1.5;"/>
    </g>
    <g id="line2d_14"/>
    <g id="text_9">
     <!-- $i=$2 -->
     <g transform="translate(175.797165 55.737178)scale(0.1 -0.1)">
      <use transform="scale(0.996264)" xlink:href="#CMMI12-69"/>
      <use transform="translate(60.952611 0)scale(0.996264)" xlink:href="#CMR17-3d"/>
      <use transform="translate(132.667399 0)scale(0.996264)" xlink:href="#CMR17-32"/>
     </g>
    </g>
    <g id="line2d_15">
     <path d="M 147.797165 66.174357 
L 167.797165 66.174357 
" style="fill:none;stroke:#000000;stroke-dasharray:9.6,2.4,1.5,2.4;stroke-dashoffset:0;stroke-width:1.5;"/>
    </g>
    <g id="line2d_16"/>
    <g id="text_10">
     <!-- $i=$1 -->
     <g transform="translate(175.797165 69.674357)scale(0.1 -0.1)">
      <use transform="scale(0.996264)" xlink:href="#CMMI12-69"/>
      <use transform="translate(60.952611 0)scale(0.996264)" xlink:href="#CMR17-3d"/>
      <use transform="translate(132.667399 0)scale(0.996264)" xlink:href="#CMR17-31"/>
     </g>
    </g>
    <g id="line2d_17">
     <path d="M 147.797165 80.111535 
L 167.797165 80.111535 
" style="fill:none;stroke:#000000;stroke-dasharray:1.5,2.475;stroke-dashoffset:0;stroke-width:1.5;"/>
    </g>
    <g id="line2d_18"/>
    <g id="text_11">
     <!-- $i=$0 -->
     <g transform="translate(175.797165 83.611535)scale(0.1 -0.1)">
      <use transform="scale(0.996264)" xlink:href="#CMMI12-69"/>
      <use transform="translate(60.952611 0)scale(0.996264)" xlink:href="#CMR17-3d"/>
      <use transform="translate(132.667399 0)scale(0.996264)" xlink:href="#CMR17-30"/>
     </g>
    </g>
   </g>
  </g>
  <g id="axes_2">
   <g id="patch_8">
    <path d="M 30.57782 287.001372 
L 203.726835 287.001372 
L 203.726835 173.435558 
L 30.57782 173.435558 
z
" style="fill:#ffffff;"/>
   </g>
   <g id="matplotlib.axis_3">
    <g id="xtick_4">
     <g id="line2d_19">
      <g>
       <use style="stroke:#000000;stroke-width:0.8;" x="38.44823" xlink:href="#maba85a6b63" y="287.001372"/>
      </g>
     </g>
     <g id="text_12">
      <!-- $\mathdefault{0}$ -->
      <g transform="translate(35.957562 300.91987)scale(0.1 -0.1)">
       <use transform="scale(0.996264)" xlink:href="#CMR17-30"/>
      </g>
     </g>
    </g>
    <g id="xtick_5">
     <g id="line2d_20">
      <g>
       <use style="stroke:#000000;stroke-width:0.8;" x="101.386333" xlink:href="#maba85a6b63" y="287.001372"/>
      </g>
     </g>
     <g id="text_13">
      <!-- $\mathdefault{1}$ -->
      <g transform="translate(98.895665 300.91987)scale(0.1 -0.1)">
       <use transform="scale(0.996264)" xlink:href="#CMR17-31"/>
      </g>
     </g>
    </g>
    <g id="xtick_6">
     <g id="line2d_21">
      <g>
       <use style="stroke:#000000;stroke-width:0.8;" x="164.324435" xlink:href="#maba85a6b63" y="287.001372"/>
      </g>
     </g>
     <g id="text_14">
      <!-- $\mathdefault{2}$ -->
      <g transform="translate(161.833768 300.91987)scale(0.1 -0.1)">
       <use transform="scale(0.996264)" xlink:href="#CMR17-32"/>
      </g>
     </g>
    </g>
   </g>
   <g id="matplotlib.axis_4">
    <g id="ytick_4">
     <g id="line2d_22">
      <g>
       <use style="stroke:#000000;stroke-width:0.8;" x="30.57782" xlink:href="#md510c3d20d" y="281.83929"/>
      </g>
     </g>
     <g id="text_15">
      <!-- $\mathdefault{0.0}$ -->
      <g transform="translate(10.847741 285.298539)scale(0.1 -0.1)">
       <use transform="scale(0.996264)" xlink:href="#CMR17-30"/>
       <use transform="translate(45.690477 0)scale(0.996264)" xlink:href="#CMMI12-3a"/>
       <use transform="translate(72.787654 0)scale(0.996264)" xlink:href="#CMR17-30"/>
      </g>
     </g>
    </g>
    <g id="ytick_5">
     <g id="line2d_23">
      <g>
       <use style="stroke:#000000;stroke-width:0.8;" x="30.57782" xlink:href="#md510c3d20d" y="236.504883"/>
      </g>
     </g>
     <g id="text_16">
      <!-- $\mathdefault{0.5}$ -->
      <g transform="translate(10.847741 239.964132)scale(0.1 -0.1)">
       <defs>
        <path d="M 730 3750 
C 794 3724 1056 3641 1325 3641 
C 1920 3641 2246 3961 2432 4140 
C 2432 4191 2432 4224 2394 4224 
C 2387 4224 2374 4224 2323 4198 
C 2099 4102 1837 4032 1517 4032 
C 1325 4032 1037 4055 723 4191 
C 653 4224 640 4224 634 4224 
C 602 4224 595 4217 595 4090 
L 595 2231 
C 595 2113 595 2080 659 2080 
C 691 2080 704 2093 736 2139 
C 941 2435 1222 2560 1542 2560 
C 1766 2560 2246 2415 2246 1293 
C 2246 1087 2246 716 2054 422 
C 1894 159 1645 25 1370 25 
C 947 25 518 319 403 812 
C 429 806 480 793 506 793 
C 589 793 749 838 749 1036 
C 749 1209 627 1280 506 1280 
C 358 1280 262 1190 262 1011 
C 262 454 704 -128 1382 -128 
C 2042 -128 2669 441 2669 1267 
C 2669 2054 2170 2662 1549 2662 
C 1222 2662 947 2540 730 2304 
L 730 3750 
z
" id="CMR17-35" transform="scale(0.015625)"/>
       </defs>
       <use transform="scale(0.996264)" xlink:href="#CMR17-30"/>
       <use transform="translate(45.690477 0)scale(0.996264)" xlink:href="#CMMI12-3a"/>
       <use transform="translate(72.787654 0)scale(0.996264)" xlink:href="#CMR17-35"/>
      </g>
     </g>
    </g>
    <g id="ytick_6">
     <g id="line2d_24">
      <g>
       <use style="stroke:#000000;stroke-width:0.8;" x="30.57782" xlink:href="#md510c3d20d" y="191.170476"/>
      </g>
     </g>
     <g id="text_17">
      <!-- $\mathdefault{1.0}$ -->
      <g transform="translate(10.847741 194.629726)scale(0.1 -0.1)">
       <use transform="scale(0.996264)" xlink:href="#CMR17-31"/>
       <use transform="translate(45.690477 0)scale(0.996264)" xlink:href="#CMMI12-3a"/>
       <use transform="translate(72.787654 0)scale(0.996264)" xlink:href="#CMR17-30"/>
      </g>
     </g>
    </g>
   </g>
   <g id="line2d_25">
    <path clip-path="url(#p993e9ce1e3)" d="M 38.44823 281.83929 
L 42.41333 281.730111 
L 44.679102 281.435926 
L 46.756059 280.941625 
L 48.833017 280.219645 
L 51.161727 279.167244 
L 54.119817 277.565097 
L 64.001099 272.008585 
L 67.462695 270.432846 
L 70.987229 269.075215 
L 74.763515 267.861673 
L 78.980368 266.746316 
L 83.763664 265.718766 
L 89.239279 264.774778 
L 95.658965 263.898078 
L 103.337414 263.081221 
L 112.526377 262.33405 
L 123.729359 261.653467 
L 137.575742 261.043837 
L 154.88372 260.513319 
L 177.037932 260.06684 
L 195.856425 259.816326 
L 195.856425 259.816326 
" style="fill:none;stroke:#000000;stroke-linecap:square;stroke-width:1.5;"/>
   </g>
   <g id="line2d_26">
    <path clip-path="url(#p993e9ce1e3)" d="M 38.44823 281.83929 
L 42.41333 281.730061 
L 44.679102 281.434852 
L 46.693121 280.953262 
L 48.707141 280.243079 
L 50.784098 279.272904 
L 53.04987 277.961919 
L 55.567394 276.242757 
L 58.588423 273.899038 
L 62.553523 270.520386 
L 80.302068 255.038198 
L 85.085364 251.351819 
L 89.679845 248.092514 
L 94.211389 245.151332 
L 98.742932 242.474881 
L 103.337414 240.018614 
L 108.057771 237.747774 
L 112.904005 235.662661 
L 117.939054 233.737848 
L 123.225854 231.956414 
L 128.764407 230.325883 
L 134.617651 228.835051 
L 140.848523 227.478083 
L 147.5829 226.242496 
L 154.820782 225.143106 
L 162.750983 224.166983 
L 171.499379 223.318428 
L 181.317723 222.595155 
L 192.457767 222.002517 
L 195.856425 221.860573 
L 195.856425 221.860573 
" style="fill:none;stroke:#000000;stroke-dasharray:5.55,2.4;stroke-dashoffset:0;stroke-width:1.5;"/>
   </g>
   <g id="line2d_27">
    <path clip-path="url(#p993e9ce1e3)" d="M 38.44823 281.83929 
L 42.350392 281.733197 
L 44.553226 281.441351 
L 46.441369 280.967956 
L 48.203636 280.299819 
L 49.965903 279.389349 
L 51.728169 278.224893 
L 53.553374 276.750398 
L 55.504456 274.883826 
L 57.644351 272.520092 
L 60.035999 269.53981 
L 62.931152 265.556556 
L 66.770376 259.864936 
L 77.721606 243.419629 
L 81.497892 238.268815 
L 84.89655 234.000079 
L 88.169331 230.244011 
L 91.316236 226.965891 
L 94.463141 224.008751 
L 97.610046 221.359347 
L 100.756952 218.999773 
L 103.966795 216.870218 
L 107.239576 214.963272 
L 110.638234 213.239101 
L 114.162767 211.698133 
L 117.876116 210.315624 
L 121.841216 209.077994 
L 126.121007 207.980056 
L 130.715488 207.033681 
L 135.750537 206.224986 
L 141.414966 205.544848 
L 147.897591 204.997353 
L 155.513101 204.584532 
L 165.016755 204.302734 
L 178.233756 204.151927 
L 195.856425 204.119129 
L 195.856425 204.119129 
" style="fill:none;stroke:#000000;stroke-dasharray:9.6,2.4,1.5,2.4;stroke-dashoffset:0;stroke-width:1.5;"/>
   </g>
   <g id="line2d_28">
    <path clip-path="url(#p993e9ce1e3)" d="M 38.44823 281.83929 
L 42.350392 281.732743 
L 44.490288 281.449335 
L 46.315493 280.992778 
L 48.014821 280.346507 
L 49.71415 279.456691 
L 51.350541 278.349921 
L 53.04987 276.928828 
L 54.812136 275.158279 
L 56.70028 272.93099 
L 58.714299 270.196517 
L 60.917132 266.817938 
L 63.434657 262.527685 
L 66.392747 257.024149 
L 70.357848 249.136623 
L 81.120263 227.483972 
L 84.770673 220.768507 
L 88.043455 215.20139 
L 91.127422 210.389686 
L 94.085513 206.185828 
L 96.917727 202.539137 
L 99.749942 199.254224 
L 102.519218 196.378204 
L 105.288495 193.816533 
L 108.12071 191.500641 
L 110.952924 189.469011 
L 113.848077 187.66106 
L 116.869106 186.036839 
L 120.016011 184.599836 
L 123.288792 183.349059 
L 126.813326 182.243845 
L 130.589612 181.297439 
L 134.680589 180.503986 
L 139.212132 179.853458 
L 144.373057 179.340399 
L 150.478053 178.962908 
L 158.219439 178.719362 
L 169.548298 178.608933 
L 183.961123 178.597641 
L 183.961123 178.597641 
" style="fill:none;stroke:#000000;stroke-dasharray:1.5,2.475;stroke-dashoffset:0;stroke-width:1.5;"/>
   </g>
   <g id="patch_9">
    <path d="M 30.57782 287.001372 
L 30.57782 173.435558 
" style="fill:none;stroke:#000000;stroke-linecap:square;stroke-linejoin:miter;stroke-width:0.8;"/>
   </g>
   <g id="patch_10">
    <path d="M 203.726835 287.001372 
L 203.726835 173.435558 
" style="fill:none;stroke:#000000;stroke-linecap:square;stroke-linejoin:miter;stroke-width:0.8;"/>
   </g>
   <g id="patch_11">
    <path d="M 30.57782 287.001372 
L 203.726835 287.001372 
" style="fill:none;stroke:#000000;stroke-linecap:square;stroke-linejoin:miter;stroke-width:0.8;"/>
   </g>
   <g id="patch_12">
    <path d="M 30.57782 173.435558 
L 203.726835 173.435558 
" style="fill:none;stroke:#000000;stroke-linecap:square;stroke-linejoin:miter;stroke-width:0.8;"/>
   </g>
   <g id="text_18">
    <!-- Mass $m(r)$ -->
    <g transform="translate(89.822115 167.435558)scale(0.12 -0.12)">
     <defs>
      <path d="M 1338 4249 
C 1299 4345 1293 4352 1158 4352 
L 339 4352 
L 339 4185 
C 781 4185 851 4185 851 3898 
L 851 624 
C 851 465 851 166 339 166 
L 339 0 
C 486 12 755 12 915 12 
C 1075 12 1344 12 1491 0 
L 1491 166 
C 979 166 979 465 979 624 
L 979 4159 
L 986 4159 
L 2490 102 
C 2515 38 2528 0 2579 0 
C 2630 0 2643 38 2669 102 
L 4186 4191 
L 4192 4191 
L 4192 453 
C 4192 166 4122 166 3680 166 
L 3680 0 
C 3853 12 4198 12 4384 12 
C 4570 12 4922 12 5094 0 
L 5094 166 
C 4653 166 4582 166 4582 453 
L 4582 3898 
C 4582 4185 4653 4185 5094 4185 
L 5094 4352 
L 4282 4352 
C 4147 4352 4141 4345 4102 4249 
L 2720 516 
L 1338 4249 
z
" id="CMR17-4d" transform="scale(0.015625)"/>
      <path d="M 2304 1656 
C 2304 2048 2304 2275 2035 2534 
C 1798 2751 1523 2816 1306 2816 
C 800 2816 435 2408 435 1977 
C 435 1740 627 1728 666 1728 
C 749 1728 896 1779 896 1958 
C 896 2118 774 2188 666 2188 
C 640 2188 608 2182 589 2176 
C 723 2594 1069 2713 1293 2713 
C 1613 2713 1965 2421 1965 1875 
L 1965 1632 
C 1587 1619 1133 1568 774 1373 
C 371 1147 256 822 256 576 
C 256 77 832 -64 1171 -64 
C 1523 -64 1850 135 1990 505 
C 2003 219 2182 -39 2464 -39 
C 2598 -39 2938 51 2938 563 
L 2938 926 
L 2822 926 
L 2822 557 
C 2822 161 2650 109 2566 109 
C 2304 109 2304 446 2304 732 
L 2304 1656 
z
M 1965 887 
C 1965 323 1568 38 1216 38 
C 896 38 646 278 646 576 
C 646 771 730 1114 1101 1322 
C 1408 1497 1760 1523 1965 1536 
L 1965 887 
z
" id="CMR17-61" transform="scale(0.015625)"/>
      <path d="M 1318 1870 
C 1331 1909 1491 2228 1728 2432 
C 1894 2585 2112 2687 2362 2687 
C 2618 2687 2707 2496 2707 2241 
C 2707 2202 2707 2075 2630 1775 
L 2470 1117 
C 2419 925 2298 453 2285 383 
C 2259 287 2221 121 2221 95 
C 2221 6 2291 -64 2387 -64 
C 2579 -64 2611 83 2669 313 
L 3053 1838 
C 3066 1890 3398 2687 4102 2687 
C 4358 2687 4448 2496 4448 2241 
C 4448 1883 4198 1187 4058 804 
C 4000 651 3968 568 3968 453 
C 3968 166 4166 -64 4474 -64 
C 5069 -64 5293 874 5293 913 
C 5293 945 5267 970 5229 970 
C 5171 970 5165 951 5133 842 
C 4986 332 4749 64 4493 64 
C 4429 64 4326 70 4326 274 
C 4326 440 4403 645 4429 715 
C 4544 1021 4832 1775 4832 2145 
C 4832 2528 4608 2816 4122 2816 
C 3693 2816 3347 2573 3091 2196 
C 3072 2541 2861 2816 2381 2816 
C 1811 2816 1510 2413 1395 2253 
C 1376 2617 1114 2816 832 2816 
C 646 2816 499 2726 378 2483 
C 262 2253 173 1864 173 1838 
C 173 1813 198 1781 243 1781 
C 294 1781 301 1787 339 1934 
C 435 2311 557 2687 813 2687 
C 960 2687 1011 2585 1011 2394 
C 1011 2253 947 2004 902 1807 
L 723 1117 
C 698 996 627 708 595 593 
C 550 427 480 127 480 95 
C 480 6 550 -64 646 -64 
C 723 -64 813 -26 864 70 
C 877 102 934 325 966 453 
L 1107 1028 
L 1318 1870 
z
" id="CMMI12-6d" transform="scale(0.015625)"/>
     </defs>
     <use transform="scale(0.996264)" xlink:href="#CMR17-4d"/>
     <use transform="translate(84.686941 0)scale(0.996264)" xlink:href="#CMR17-61"/>
     <use transform="translate(130.377418 0)scale(0.996264)" xlink:href="#CMR17-73"/>
     <use transform="translate(166.178755 0)scale(0.996264)" xlink:href="#CMR17-73"/>
     <use transform="translate(232.056059 0)scale(0.996264)" xlink:href="#CMMI12-6d"/>
     <use transform="translate(317.383284 0)scale(0.996264)" xlink:href="#CMR17-28"/>
     <use transform="translate(352.664052 0)scale(0.996264)" xlink:href="#CMMI12-72"/>
     <use transform="translate(399.334664 0)scale(0.996264)" xlink:href="#CMR17-29"/>
    </g>
   </g>
   <g id="legend_2">
    <g id="patch_13">
     <path d="M 37.57782 237.184271 
L 88.50749 237.184271 
Q 90.50749 237.184271 90.50749 235.184271 
L 90.50749 180.435558 
Q 90.50749 178.435558 88.50749 178.435558 
L 37.57782 178.435558 
Q 35.57782 178.435558 35.57782 180.435558 
L 35.57782 235.184271 
Q 35.57782 237.184271 37.57782 237.184271 
z
" style="fill:#ffffff;opacity:0.8;stroke:#cccccc;stroke-linejoin:miter;"/>
    </g>
    <g id="line2d_29">
     <path d="M 39.57782 185.935558 
L 59.57782 185.935558 
" style="fill:none;stroke:#000000;stroke-linecap:square;stroke-width:1.5;"/>
    </g>
    <g id="line2d_30"/>
    <g id="text_19">
     <!-- $i=$3 -->
     <g transform="translate(67.57782 189.435558)scale(0.1 -0.1)">
      <use transform="scale(0.996264)" xlink:href="#CMMI12-69"/>
      <use transform="translate(60.952611 0)scale(0.996264)" xlink:href="#CMR17-3d"/>
      <use transform="translate(132.667399 0)scale(0.996264)" xlink:href="#CMR17-33"/>
     </g>
    </g>
    <g id="line2d_31">
     <path d="M 39.57782 199.872736 
L 59.57782 199.872736 
" style="fill:none;stroke:#000000;stroke-dasharray:5.55,2.4;stroke-dashoffset:0;stroke-width:1.5;"/>
    </g>
    <g id="line2d_32"/>
    <g id="text_20">
     <!-- $i=$2 -->
     <g transform="translate(67.57782 203.372736)scale(0.1 -0.1)">
      <use transform="scale(0.996264)" xlink:href="#CMMI12-69"/>
      <use transform="translate(60.952611 0)scale(0.996264)" xlink:href="#CMR17-3d"/>
      <use transform="translate(132.667399 0)scale(0.996264)" xlink:href="#CMR17-32"/>
     </g>
    </g>
    <g id="line2d_33">
     <path d="M 39.57782 213.809915 
L 59.57782 213.809915 
" style="fill:none;stroke:#000000;stroke-dasharray:9.6,2.4,1.5,2.4;stroke-dashoffset:0;stroke-width:1.5;"/>
    </g>
    <g id="line2d_34"/>
    <g id="text_21">
     <!-- $i=$1 -->
     <g transform="translate(67.57782 217.309915)scale(0.1 -0.1)">
      <use transform="scale(0.996264)" xlink:href="#CMMI12-69"/>
      <use transform="translate(60.952611 0)scale(0.996264)" xlink:href="#CMR17-3d"/>
      <use transform="translate(132.667399 0)scale(0.996264)" xlink:href="#CMR17-31"/>
     </g>
    </g>
    <g id="line2d_35">
     <path d="M 39.57782 227.747093 
L 59.57782 227.747093 
" style="fill:none;stroke:#000000;stroke-dasharray:1.5,2.475;stroke-dashoffset:0;stroke-width:1.5;"/>
    </g>
    <g id="line2d_36"/>
    <g id="text_22">
     <!-- $i=$0 -->
     <g transform="translate(67.57782 231.247093)scale(0.1 -0.1)">
      <use transform="scale(0.996264)" xlink:href="#CMMI12-69"/>
      <use transform="translate(60.952611 0)scale(0.996264)" xlink:href="#CMR17-3d"/>
      <use transform="translate(132.667399 0)scale(0.996264)" xlink:href="#CMR17-30"/>
     </g>
    </g>
   </g>
  </g>
  <g id="axes_3">
   <g id="patch_14">
    <path d="M 234.304655 139.365814 
L 407.453669 139.365814 
L 407.453669 25.8 
L 234.304655 25.8 
z
" style="fill:#ffffff;"/>
   </g>
   <g id="matplotlib.axis_5">
    <g id="xtick_7">
     <g id="line2d_37">
      <g>
       <use style="stroke:#000000;stroke-width:0.8;" x="242.175064" xlink:href="#maba85a6b63" y="139.365814"/>
      </g>
     </g>
     <g id="text_23">
      <!-- $\mathdefault{0}$ -->
      <g transform="translate(239.684397 153.284312)scale(0.1 -0.1)">
       <use transform="scale(0.996264)" xlink:href="#CMR17-30"/>
      </g>
     </g>
    </g>
    <g id="xtick_8">
     <g id="line2d_38">
      <g>
       <use style="stroke:#000000;stroke-width:0.8;" x="305.113167" xlink:href="#maba85a6b63" y="139.365814"/>
      </g>
     </g>
     <g id="text_24">
      <!-- $\mathdefault{1}$ -->
      <g transform="translate(302.6225 153.284312)scale(0.1 -0.1)">
       <use transform="scale(0.996264)" xlink:href="#CMR17-31"/>
      </g>
     </g>
    </g>
    <g id="xtick_9">
     <g id="line2d_39">
      <g>
       <use style="stroke:#000000;stroke-width:0.8;" x="368.05127" xlink:href="#maba85a6b63" y="139.365814"/>
      </g>
     </g>
     <g id="text_25">
      <!-- $\mathdefault{2}$ -->
      <g transform="translate(365.560602 153.284312)scale(0.1 -0.1)">
       <use transform="scale(0.996264)" xlink:href="#CMR17-32"/>
      </g>
     </g>
    </g>
   </g>
   <g id="matplotlib.axis_6">
    <g id="ytick_7">
     <g id="line2d_40">
      <g>
       <use style="stroke:#000000;stroke-width:0.8;" x="234.304655" xlink:href="#md510c3d20d" y="134.203731"/>
      </g>
     </g>
     <g id="text_26">
      <!-- $\mathdefault{0.0}$ -->
      <g transform="translate(214.574576 137.662981)scale(0.1 -0.1)">
       <use transform="scale(0.996264)" xlink:href="#CMR17-30"/>
       <use transform="translate(45.690477 0)scale(0.996264)" xlink:href="#CMMI12-3a"/>
       <use transform="translate(72.787654 0)scale(0.996264)" xlink:href="#CMR17-30"/>
      </g>
     </g>
    </g>
    <g id="ytick_8">
     <g id="line2d_41">
      <g>
       <use style="stroke:#000000;stroke-width:0.8;" x="234.304655" xlink:href="#md510c3d20d" y="90.795965"/>
      </g>
     </g>
     <g id="text_27">
      <!-- $\mathdefault{0.5}$ -->
      <g transform="translate(214.574576 94.255214)scale(0.1 -0.1)">
       <use transform="scale(0.996264)" xlink:href="#CMR17-30"/>
       <use transform="translate(45.690477 0)scale(0.996264)" xlink:href="#CMMI12-3a"/>
       <use transform="translate(72.787654 0)scale(0.996264)" xlink:href="#CMR17-35"/>
      </g>
     </g>
    </g>
    <g id="ytick_9">
     <g id="line2d_42">
      <g>
       <use style="stroke:#000000;stroke-width:0.8;" x="234.304655" xlink:href="#md510c3d20d" y="47.388199"/>
      </g>
     </g>
     <g id="text_28">
      <!-- $\mathdefault{1.0}$ -->
      <g transform="translate(214.574576 50.847448)scale(0.1 -0.1)">
       <use transform="scale(0.996264)" xlink:href="#CMR17-31"/>
       <use transform="translate(45.690477 0)scale(0.996264)" xlink:href="#CMMI12-3a"/>
       <use transform="translate(72.787654 0)scale(0.996264)" xlink:href="#CMR17-30"/>
      </g>
     </g>
    </g>
   </g>
   <g id="line2d_43">
    <path clip-path="url(#pdb52653150)" d="M 242.175064 30.962082 
L 242.741507 31.081529 
L 243.30795 31.438445 
L 243.937331 32.110452 
L 244.62965 33.17727 
L 245.447846 34.86461 
L 246.391917 37.353193 
L 247.461865 40.814257 
L 248.783565 45.903321 
L 250.419956 53.182541 
L 252.748666 64.683547 
L 257.280209 87.197722 
L 259.294228 95.989744 
L 261.056495 102.723383 
L 262.692886 108.117586 
L 264.266338 112.53911 
L 265.776853 116.125958 
L 267.224429 119.018995 
L 268.672006 121.444216 
L 270.18252 123.546227 
L 271.693035 125.279076 
L 273.266487 126.758973 
L 274.965816 128.053897 
L 276.791021 129.164851 
L 278.80504 130.128623 
L 281.070812 130.963386 
L 283.714212 131.692269 
L 286.861117 132.317954 
L 290.700342 132.843631 
L 295.609514 133.278755 
L 302.218014 133.625955 
L 311.784606 133.887587 
L 327.393256 134.067254 
L 359.051121 134.169049 
L 399.58326 134.195288 
L 399.58326 134.195288 
" style="fill:none;stroke:#000000;stroke-linecap:square;stroke-width:1.5;"/>
   </g>
   <g id="line2d_44">
    <path clip-path="url(#pdb52653150)" d="M 242.175064 30.962082 
L 242.741507 31.081481 
L 243.30795 31.437681 
L 243.937331 32.106024 
L 244.692589 33.272824 
L 245.573722 35.105539 
L 246.580732 37.759644 
L 247.776556 41.567559 
L 249.350008 47.398771 
L 251.678718 57.005191 
L 256.210261 75.761404 
L 258.476033 84.105272 
L 260.490052 90.702743 
L 262.441134 96.341128 
L 264.329277 101.124513 
L 266.21742 105.299781 
L 268.105563 108.929549 
L 269.993706 112.077843 
L 271.881849 114.805737 
L 273.83293 117.242249 
L 275.846949 119.40727 
L 277.923907 121.322457 
L 280.12674 123.055832 
L 282.45545 124.608674 
L 284.972974 126.019262 
L 287.679313 127.280743 
L 290.637404 128.415018 
L 293.973123 129.450133 
L 297.686471 130.36496 
L 301.966262 131.183015 
L 306.938372 131.89839 
L 312.854554 132.51532 
L 320.029498 133.031578 
L 329.155522 133.454441 
L 341.302576 133.781384 
L 358.862307 134.013882 
L 388.191463 134.152754 
L 399.58326 134.173504 
L 399.58326 134.173504 
" style="fill:none;stroke:#000000;stroke-dasharray:5.55,2.4;stroke-dashoffset:0;stroke-width:1.5;"/>
   </g>
   <g id="line2d_45">
    <path clip-path="url(#pdb52653150)" d="M 242.175064 30.962082 
L 242.99326 31.072292 
L 243.811455 31.401425 
L 244.692589 31.997588 
L 245.63666 32.90778 
L 246.706608 34.265848 
L 247.902432 36.170923 
L 249.224132 38.71313 
L 250.734646 42.11453 
L 252.559851 46.811054 
L 254.825623 53.30318 
L 258.350157 64.181796 
L 263.511081 80.015956 
L 266.343296 87.97466 
L 268.86082 94.403135 
L 271.18953 99.754662 
L 273.392363 104.282453 
L 275.595197 108.304778 
L 277.735092 111.754466 
L 279.874988 114.786417 
L 282.014883 117.437559 
L 284.217717 119.809133 
L 286.420551 121.858476 
L 288.686322 123.671032 
L 291.07797 125.301956 
L 293.595494 126.749963 
L 296.301833 128.046685 
L 299.196986 129.185789 
L 302.406829 130.204035 
L 305.931363 131.085448 
L 309.959401 131.857341 
L 314.616821 132.51517 
L 320.155374 133.063081 
L 326.952689 133.501473 
L 335.764023 133.833613 
L 348.099891 134.059009 
L 368.365961 134.17926 
L 399.58326 134.203604 
L 399.58326 134.203604 
" style="fill:none;stroke:#000000;stroke-dasharray:9.6,2.4,1.5,2.4;stroke-dashoffset:0;stroke-width:1.5;"/>
   </g>
   <g id="line2d_46">
    <path clip-path="url(#pdb52653150)" d="M 242.175064 30.962082 
L 243.182074 31.079548 
L 244.189084 31.430556 
L 245.259031 32.056122 
L 246.391917 32.995523 
L 247.587741 34.285258 
L 248.909441 36.048913 
L 250.357018 38.359268 
L 251.993408 41.401194 
L 253.881552 45.400879 
L 256.147323 50.75557 
L 259.105414 58.372658 
L 270.056644 87.151661 
L 272.888859 93.679202 
L 275.532259 99.220991 
L 277.986845 103.86529 
L 280.378493 107.924946 
L 282.707203 111.449307 
L 285.035912 114.572791 
L 287.364622 117.322933 
L 289.693332 119.730572 
L 292.08498 121.880582 
L 294.539566 123.783263 
L 297.05709 125.452449 
L 299.70049 126.936969 
L 302.469767 128.238824 
L 305.490796 129.408927 
L 308.763577 130.43212 
L 312.351049 131.316869 
L 316.379088 132.077315 
L 321.036507 132.722632 
L 326.512122 133.248229 
L 333.183561 133.656881 
L 341.869019 133.953302 
L 354.267826 134.134679 
L 376.610852 134.202242 
L 387.687958 134.203731 
L 387.687958 134.203731 
" style="fill:none;stroke:#000000;stroke-dasharray:1.5,2.475;stroke-dashoffset:0;stroke-width:1.5;"/>
   </g>
   <g id="patch_15">
    <path d="M 234.304655 139.365814 
L 234.304655 25.8 
" style="fill:none;stroke:#000000;stroke-linecap:square;stroke-linejoin:miter;stroke-width:0.8;"/>
   </g>
   <g id="patch_16">
    <path d="M 407.453669 139.365814 
L 407.453669 25.8 
" style="fill:none;stroke:#000000;stroke-linecap:square;stroke-linejoin:miter;stroke-width:0.8;"/>
   </g>
   <g id="patch_17">
    <path d="M 234.304655 139.365814 
L 407.453669 139.365814 
" style="fill:none;stroke:#000000;stroke-linecap:square;stroke-linejoin:miter;stroke-width:0.8;"/>
   </g>
   <g id="patch_18">
    <path d="M 234.304655 25.8 
L 407.453669 25.8 
" style="fill:none;stroke:#000000;stroke-linecap:square;stroke-linejoin:miter;stroke-width:0.8;"/>
   </g>
   <g id="text_29">
    <!-- Density $\rho(r)$ -->
    <g transform="translate(289.096583 19.8)scale(0.12 -0.12)">
     <defs>
      <path d="M 333 4352 
L 333 4185 
C 774 4185 845 4185 845 3898 
L 845 453 
C 845 166 774 166 333 166 
L 333 0 
L 2368 0 
C 3398 0 4224 943 4224 2140 
C 4224 3344 3411 4352 2368 4352 
L 333 4352 
z
M 1523 166 
C 1267 166 1254 198 1254 414 
L 1254 3936 
C 1254 4153 1267 4185 1523 4185 
L 2240 4185 
C 2771 4185 3750 3873 3750 2140 
C 3750 1242 3488 879 3366 707 
C 3213 510 2848 166 2240 166 
L 1523 166 
z
" id="CMR17-44" transform="scale(0.015625)"/>
      <path d="M 2656 1954 
C 2656 2282 2592 2816 1837 2816 
C 1331 2816 1069 2424 973 2166 
L 966 2166 
L 966 2816 
L 211 2745 
L 211 2578 
C 589 2578 646 2540 646 2231 
L 646 443 
C 646 198 621 166 211 166 
L 211 0 
C 365 12 646 12 813 12 
C 979 12 1267 12 1421 0 
L 1421 166 
C 1011 166 986 192 986 443 
L 986 1678 
C 986 2269 1344 2713 1792 2713 
C 2266 2713 2317 2289 2317 1980 
L 2317 443 
C 2317 198 2291 166 1882 166 
L 1882 0 
C 2035 12 2317 12 2483 12 
C 2650 12 2938 12 3091 0 
L 3091 166 
C 2682 166 2656 192 2656 443 
L 2656 1954 
z
" id="CMR17-6e" transform="scale(0.015625)"/>
      <path d="M 992 3961 
C 992 4102 877 4224 730 4224 
C 589 4224 467 4108 467 3961 
C 467 3820 582 3699 730 3699 
C 870 3699 992 3814 992 3961 
z
M 243 2745 
L 243 2579 
C 602 2579 653 2540 653 2231 
L 653 443 
C 653 198 627 166 218 166 
L 218 0 
C 371 12 646 12 806 12 
C 960 12 1222 12 1370 0 
L 1370 166 
C 992 166 979 205 979 436 
L 979 2816 
L 243 2745 
z
" id="CMR17-69" transform="scale(0.015625)"/>
      <path d="M 966 2585 
L 1862 2585 
L 1862 2752 
L 966 2752 
L 966 3968 
L 851 3968 
C 838 3292 614 2700 70 2687 
L 70 2585 
L 627 2585 
L 627 778 
C 627 655 627 -64 1370 -64 
C 1747 -64 1965 308 1965 784 
L 1965 1151 
L 1850 1151 
L 1850 790 
C 1850 347 1677 51 1408 51 
C 1222 51 966 179 966 765 
L 966 2585 
z
" id="CMR17-74" transform="scale(0.015625)"/>
      <path d="M 2496 2183 
C 2656 2579 2944 2585 3034 2585 
L 3034 2752 
C 2912 2745 2752 2739 2630 2739 
C 2496 2739 2285 2739 2157 2752 
L 2157 2585 
C 2400 2566 2406 2384 2406 2332 
C 2406 2268 2394 2235 2362 2158 
L 1664 409 
L 902 2300 
C 870 2378 870 2423 870 2430 
C 870 2572 1018 2585 1171 2585 
L 1171 2752 
C 1018 2739 742 2739 582 2739 
C 410 2739 205 2739 64 2752 
L 64 2585 
C 410 2585 448 2553 531 2345 
L 1485 -31 
C 1197 -795 1030 -1242 627 -1242 
C 557 -1242 397 -1223 282 -1106 
C 429 -1093 493 -1002 493 -892 
C 493 -782 416 -685 288 -685 
C 147 -685 77 -782 77 -899 
C 77 -1158 339 -1344 627 -1344 
C 998 -1344 1229 -983 1357 -659 
L 2496 2183 
z
" id="CMR17-79" transform="scale(0.015625)"/>
      <path d="M 198 -1085 
C 192 -1116 179 -1154 179 -1191 
C 179 -1287 256 -1351 352 -1351 
C 448 -1351 538 -1287 576 -1198 
C 602 -1141 781 -390 986 389 
C 1114 70 1350 -64 1600 -64 
C 2323 -64 3142 830 3142 1794 
C 3142 2477 2726 2816 2285 2816 
C 1722 2816 1037 2234 826 1385 
L 198 -1085 
z
M 1594 64 
C 1158 64 1050 568 1050 645 
C 1050 683 1210 1289 1229 1385 
C 1555 2656 2182 2687 2278 2687 
C 2566 2687 2726 2426 2726 2049 
C 2726 1724 2554 1091 2445 823 
C 2253 383 1920 64 1594 64 
z
" id="CMMI12-1a" transform="scale(0.015625)"/>
     </defs>
     <use transform="scale(0.996264)" xlink:href="#CMR17-44"/>
     <use transform="translate(70.393556 0)scale(0.996264)" xlink:href="#CMR17-65"/>
     <use transform="translate(110.879216 0)scale(0.996264)" xlink:href="#CMR17-6e"/>
     <use transform="translate(161.774586 0)scale(0.996264)" xlink:href="#CMR17-73"/>
     <use transform="translate(197.575924 0)scale(0.996264)" xlink:href="#CMR17-69"/>
     <use transform="translate(222.446982 0)scale(0.996264)" xlink:href="#CMR17-74"/>
     <use transform="translate(255.125296 0)scale(0.996264)" xlink:href="#CMR17-79"/>
     <use transform="translate(333.494178 0)scale(0.996264)" xlink:href="#CMMI12-1a"/>
     <use transform="translate(383.808551 0)scale(0.996264)" xlink:href="#CMR17-28"/>
     <use transform="translate(419.089319 0)scale(0.996264)" xlink:href="#CMMI12-72"/>
     <use transform="translate(465.759931 0)scale(0.996264)" xlink:href="#CMR17-29"/>
    </g>
   </g>
   <g id="legend_3">
    <g id="patch_19">
     <path d="M 349.523999 89.548713 
L 400.453669 89.548713 
Q 402.453669 89.548713 402.453669 87.548713 
L 402.453669 32.8 
Q 402.453669 30.8 400.453669 30.8 
L 349.523999 30.8 
Q 347.523999 30.8 347.523999 32.8 
L 347.523999 87.548713 
Q 347.523999 89.548713 349.523999 89.548713 
z
" style="fill:#ffffff;opacity:0.8;stroke:#cccccc;stroke-linejoin:miter;"/>
    </g>
    <g id="line2d_47">
     <path d="M 351.523999 38.3 
L 371.523999 38.3 
" style="fill:none;stroke:#000000;stroke-linecap:square;stroke-width:1.5;"/>
    </g>
    <g id="line2d_48"/>
    <g id="text_30">
     <!-- $i=$3 -->
     <g transform="translate(379.523999 41.8)scale(0.1 -0.1)">
      <use transform="scale(0.996264)" xlink:href="#CMMI12-69"/>
      <use transform="translate(60.952611 0)scale(0.996264)" xlink:href="#CMR17-3d"/>
      <use transform="translate(132.667399 0)scale(0.996264)" xlink:href="#CMR17-33"/>
     </g>
    </g>
    <g id="line2d_49">
     <path d="M 351.523999 52.237178 
L 371.523999 52.237178 
" style="fill:none;stroke:#000000;stroke-dasharray:5.55,2.4;stroke-dashoffset:0;stroke-width:1.5;"/>
    </g>
    <g id="line2d_50"/>
    <g id="text_31">
     <!-- $i=$2 -->
     <g transform="translate(379.523999 55.737178)scale(0.1 -0.1)">
      <use transform="scale(0.996264)" xlink:href="#CMMI12-69"/>
      <use transform="translate(60.952611 0)scale(0.996264)" xlink:href="#CMR17-3d"/>
      <use transform="translate(132.667399 0)scale(0.996264)" xlink:href="#CMR17-32"/>
     </g>
    </g>
    <g id="line2d_51">
     <path d="M 351.523999 66.174357 
L 371.523999 66.174357 
" style="fill:none;stroke:#000000;stroke-dasharray:9.6,2.4,1.5,2.4;stroke-dashoffset:0;stroke-width:1.5;"/>
    </g>
    <g id="line2d_52"/>
    <g id="text_32">
     <!-- $i=$1 -->
     <g transform="translate(379.523999 69.674357)scale(0.1 -0.1)">
      <use transform="scale(0.996264)" xlink:href="#CMMI12-69"/>
      <use transform="translate(60.952611 0)scale(0.996264)" xlink:href="#CMR17-3d"/>
      <use transform="translate(132.667399 0)scale(0.996264)" xlink:href="#CMR17-31"/>
     </g>
    </g>
    <g id="line2d_53">
     <path d="M 351.523999 80.111535 
L 371.523999 80.111535 
" style="fill:none;stroke:#000000;stroke-dasharray:1.5,2.475;stroke-dashoffset:0;stroke-width:1.5;"/>
    </g>
    <g id="line2d_54"/>
    <g id="text_33">
     <!-- $i=$0 -->
     <g transform="translate(379.523999 83.611535)scale(0.1 -0.1)">
      <use transform="scale(0.996264)" xlink:href="#CMMI12-69"/>
      <use transform="translate(60.952611 0)scale(0.996264)" xlink:href="#CMR17-3d"/>
      <use transform="translate(132.667399 0)scale(0.996264)" xlink:href="#CMR17-30"/>
     </g>
    </g>
   </g>
  </g>
  <g id="axes_4">
   <g id="patch_20">
    <path d="M 234.304655 287.001372 
L 407.453669 287.001372 
L 407.453669 173.435558 
L 234.304655 173.435558 
z
" style="fill:#ffffff;"/>
   </g>
   <g id="matplotlib.axis_7">
    <g id="xtick_10">
     <g id="line2d_55">
      <g>
       <use style="stroke:#000000;stroke-width:0.8;" x="242.175064" xlink:href="#maba85a6b63" y="287.001372"/>
      </g>
     </g>
     <g id="text_34">
      <!-- $\mathdefault{0}$ -->
      <g transform="translate(239.684397 300.91987)scale(0.1 -0.1)">
       <use transform="scale(0.996264)" xlink:href="#CMR17-30"/>
      </g>
     </g>
    </g>
    <g id="xtick_11">
     <g id="line2d_56">
      <g>
       <use style="stroke:#000000;stroke-width:0.8;" x="310.258194" xlink:href="#maba85a6b63" y="287.001372"/>
      </g>
     </g>
     <g id="text_35">
      <!-- $\mathdefault{1}$ -->
      <g transform="translate(307.767526 300.91987)scale(0.1 -0.1)">
       <use transform="scale(0.996264)" xlink:href="#CMR17-31"/>
      </g>
     </g>
    </g>
    <g id="xtick_12">
     <g id="line2d_57">
      <g>
       <use style="stroke:#000000;stroke-width:0.8;" x="378.341323" xlink:href="#maba85a6b63" y="287.001372"/>
      </g>
     </g>
     <g id="text_36">
      <!-- $\mathdefault{2}$ -->
      <g transform="translate(375.850656 300.91987)scale(0.1 -0.1)">
       <use transform="scale(0.996264)" xlink:href="#CMR17-32"/>
      </g>
     </g>
    </g>
   </g>
   <g id="matplotlib.axis_8">
    <g id="ytick_10">
     <g id="line2d_58">
      <g>
       <use style="stroke:#000000;stroke-width:0.8;" x="234.304655" xlink:href="#md510c3d20d" y="278.445874"/>
      </g>
     </g>
     <g id="text_37">
      <!-- $\mathdefault{0}$ -->
      <g transform="translate(222.323319 281.905123)scale(0.1 -0.1)">
       <use transform="scale(0.996264)" xlink:href="#CMR17-30"/>
      </g>
     </g>
    </g>
    <g id="ytick_11">
     <g id="line2d_59">
      <g>
       <use style="stroke:#000000;stroke-width:0.8;" x="234.304655" xlink:href="#md510c3d20d" y="250.900641"/>
      </g>
     </g>
     <g id="text_38">
      <!-- $\mathdefault{1}$ -->
      <g transform="translate(222.323319 254.35989)scale(0.1 -0.1)">
       <use transform="scale(0.996264)" xlink:href="#CMR17-31"/>
      </g>
     </g>
    </g>
    <g id="ytick_12">
     <g id="line2d_60">
      <g>
       <use style="stroke:#000000;stroke-width:0.8;" x="234.304655" xlink:href="#md510c3d20d" y="223.355408"/>
      </g>
     </g>
     <g id="text_39">
      <!-- $\mathdefault{2}$ -->
      <g transform="translate(222.323319 226.814657)scale(0.1 -0.1)">
       <use transform="scale(0.996264)" xlink:href="#CMR17-32"/>
      </g>
     </g>
    </g>
    <g id="ytick_13">
     <g id="line2d_61">
      <g>
       <use style="stroke:#000000;stroke-width:0.8;" x="234.304655" xlink:href="#md510c3d20d" y="195.810175"/>
      </g>
     </g>
     <g id="text_40">
      <!-- $\mathdefault{3}$ -->
      <g transform="translate(222.323319 199.269424)scale(0.1 -0.1)">
       <use transform="scale(0.996264)" xlink:href="#CMR17-33"/>
      </g>
     </g>
    </g>
    <g id="text_41">
     <!-- $\times\mathdefault{10^{7}}\mathdefault{}$ -->
     <g transform="translate(234.304655 170.435558)scale(0.1 -0.1)">
      <defs>
       <path d="M 2490 1775 
L 1210 3046 
C 1133 3123 1120 3136 1069 3136 
C 1005 3136 941 3078 941 3008 
C 941 2963 954 2950 1024 2880 
L 2304 1596 
L 1024 313 
C 954 243 941 230 941 185 
C 941 115 1005 57 1069 57 
C 1120 57 1133 70 1210 147 
L 2483 1418 
L 3808 95 
C 3821 89 3866 57 3904 57 
C 3981 57 4032 115 4032 185 
C 4032 198 4032 223 4013 255 
C 4006 268 2989 1271 2669 1596 
L 3840 2765 
C 3872 2803 3968 2886 4000 2925 
C 4006 2937 4032 2963 4032 3008 
C 4032 3078 3981 3136 3904 3136 
C 3853 3136 3827 3110 3757 3040 
L 2490 1775 
z
" id="CMSY10-2" transform="scale(0.015625)"/>
       <path d="M 4218 1472 
C 4326 1472 4442 1472 4442 1600 
C 4442 1728 4326 1728 4218 1728 
L 755 1728 
C 646 1728 531 1728 531 1600 
C 531 1472 646 1472 755 1472 
L 4218 1472 
z
" id="CMSY10-0" transform="scale(0.015625)"/>
       <path d="M 2886 3955 
L 2886 4096 
L 1382 4096 
C 634 4096 621 4166 595 4288 
L 480 4288 
L 294 3104 
L 410 3104 
C 429 3226 474 3552 550 3673 
C 589 3724 1062 3724 1171 3724 
L 2579 3724 
L 1869 2670 
C 1395 1961 1069 1003 1069 166 
C 1069 89 1069 -128 1299 -128 
C 1530 -128 1530 89 1530 172 
L 1530 466 
C 1530 1514 1709 2204 2003 2644 
L 2886 3955 
z
" id="CMR17-37" transform="scale(0.015625)"/>
      </defs>
      <use transform="scale(0.996264)" xlink:href="#CMSY10-2"/>
      <use transform="translate(77.487468 0)scale(0.996264)" xlink:href="#CMR17-31"/>
      <use transform="translate(123.177945 0)scale(0.996264)" xlink:href="#CMR17-30"/>
      <use transform="translate(168.868422 36.153639)scale(0.697382)" xlink:href="#CMSY10-0"/>
      <use transform="translate(223.109415 36.153639)scale(0.697382)" xlink:href="#CMR17-37"/>
     </g>
    </g>
   </g>
   <g id="line2d_62">
    <path clip-path="url(#p1ea65326a9)" d="M 242.175064 278.445874 
L 245.387477 278.249452 
L 248.599889 277.010413 
L 251.812301 273.930452 
L 255.024713 268.551974 
L 258.237125 260.8197 
L 261.449537 251.057256 
L 264.661949 239.875931 
L 267.874362 228.047354 
L 271.086774 216.373239 
L 274.299186 205.577541 
L 277.511598 196.234818 
L 280.72401 188.73661 
L 283.936422 183.29015 
L 287.148834 179.939282 
L 290.361247 178.597641 
L 293.573659 179.085829 
L 296.786071 181.166321 
L 299.998483 184.573234 
L 303.210895 189.035591 
L 306.423307 194.293465 
L 309.635719 200.108834 
L 312.848132 206.271589 
L 316.060544 212.60156 
L 319.272956 218.948912 
L 322.485368 225.192058 
L 325.69778 231.235265 
L 328.910192 237.005574 
L 332.122604 242.449565 
L 335.335017 247.530417 
L 338.547429 252.225028 
L 341.759841 256.521558 
L 344.972253 260.417231 
L 348.184665 263.916548 
L 351.397077 267.029669 
L 354.609489 269.771174 
L 357.821902 272.15905 
L 361.034314 274.21381 
L 364.246726 275.957876 
L 367.459138 277.41497 
L 370.67155 278.609892 
L 373.883962 279.56794 
L 377.096375 280.315009 
L 380.308787 280.877187 
L 383.521199 281.280704 
L 386.733611 281.551856 
L 389.946023 281.716966 
L 393.158435 281.802416 
L 396.370847 281.834404 
L 399.58326 281.83929 
" style="fill:none;stroke:#000000;stroke-dasharray:5.55,2.4;stroke-dashoffset:0;stroke-width:1.5;"/>
   </g>
   <g id="patch_21">
    <path d="M 234.304655 287.001372 
L 234.304655 173.435558 
" style="fill:none;stroke:#000000;stroke-linecap:square;stroke-linejoin:miter;stroke-width:0.8;"/>
   </g>
   <g id="patch_22">
    <path d="M 407.453669 287.001372 
L 407.453669 173.435558 
" style="fill:none;stroke:#000000;stroke-linecap:square;stroke-linejoin:miter;stroke-width:0.8;"/>
   </g>
   <g id="patch_23">
    <path d="M 234.304655 287.001372 
L 407.453669 287.001372 
" style="fill:none;stroke:#000000;stroke-linecap:square;stroke-linejoin:miter;stroke-width:0.8;"/>
   </g>
   <g id="patch_24">
    <path d="M 234.304655 173.435558 
L 407.453669 173.435558 
" style="fill:none;stroke:#000000;stroke-linecap:square;stroke-linejoin:miter;stroke-width:0.8;"/>
   </g>
   <g id="text_42">
    <!-- TOV$_0$ and LE results -->
    <g transform="translate(265.937785 167.435558)scale(0.12 -0.12)">
     <defs>
      <path d="M 3981 4332 
L 288 4332 
L 179 2924 
L 294 2924 
C 378 3981 467 4166 1453 4166 
C 1568 4166 1754 4166 1805 4159 
C 1926 4140 1926 4064 1926 3917 
L 1926 465 
C 1926 236 1907 166 1376 166 
L 1197 166 
L 1197 0 
C 1504 6 1824 12 2138 12 
C 2451 12 2771 6 3078 0 
L 3078 166 
L 2899 166 
C 2368 166 2349 236 2349 465 
L 2349 3917 
C 2349 4057 2349 4134 2464 4159 
C 2515 4166 2701 4166 2816 4166 
C 3795 4166 3891 3981 3974 2924 
L 4090 2924 
L 3981 4332 
z
" id="CMR17-54" transform="scale(0.015625)"/>
      <path d="M 4307 2166 
C 4307 3488 3366 4480 2304 4480 
C 1216 4480 294 3475 294 2166 
C 294 857 1229 -128 2298 -128 
C 3392 -128 4307 876 4307 2166 
z
M 2304 -13 
C 1574 -13 781 722 781 2250 
C 781 3771 1651 4364 2298 4364 
C 2976 4364 3821 3752 3821 2250 
C 3821 696 3008 -13 2304 -13 
z
" id="CMR17-4f" transform="scale(0.015625)"/>
      <path d="M 3776 3762 
C 3834 3903 3936 4179 4365 4185 
L 4365 4352 
C 4218 4339 4051 4339 3891 4339 
C 3738 4339 3475 4339 3328 4352 
L 3328 4185 
C 3648 4166 3661 3942 3661 3903 
C 3661 3833 3642 3788 3622 3737 
L 2362 448 
L 1043 3903 
C 1024 3948 1011 3980 1011 4012 
C 1011 4185 1267 4185 1402 4185 
L 1402 4352 
C 1197 4339 896 4339 685 4339 
C 518 4339 218 4339 64 4352 
L 64 4185 
C 435 4185 506 4160 582 3955 
L 2106 -26 
C 2138 -116 2144 -128 2214 -128 
C 2285 -128 2291 -116 2323 -26 
L 3776 3762 
z
" id="CMR17-56" transform="scale(0.015625)"/>
      <path d="M 1869 4345 
L 1869 4179 
C 2246 4179 2304 4141 2304 3843 
L 2304 2371 
C 2278 2403 2016 2816 1498 2816 
C 845 2816 211 2228 211 1376 
C 211 529 806 -64 1434 -64 
C 1978 -64 2259 361 2291 406 
L 2291 -64 
L 3066 -13 
L 3066 154 
C 2688 154 2630 193 2630 503 
L 2630 4416 
L 1869 4345 
z
M 2291 762 
C 2291 568 2176 393 2029 264 
C 1811 70 1594 38 1472 38 
C 1286 38 621 135 621 1369 
C 621 2636 1363 2713 1530 2713 
C 1824 2713 2061 2545 2208 2313 
C 2291 2177 2291 2157 2291 2041 
L 2291 762 
z
" id="CMR17-64" transform="scale(0.015625)"/>
      <path d="M 3469 1612 
L 3354 1612 
C 3302 981 3219 166 2125 166 
L 1530 166 
C 1274 166 1261 198 1261 414 
L 1261 3892 
C 1261 4121 1274 4185 1760 4185 
L 1901 4185 
L 1901 4352 
C 1638 4339 1331 4339 1069 4339 
C 870 4339 512 4339 326 4352 
L 326 4185 
C 768 4185 838 4185 838 3898 
L 838 453 
C 838 166 768 166 326 166 
L 326 0 
L 3315 0 
L 3469 1612 
z
" id="CMR17-4c" transform="scale(0.015625)"/>
      <path d="M 3885 1614 
L 3770 1614 
C 3629 676 3546 166 2419 166 
L 1530 166 
C 1274 166 1261 198 1261 415 
L 1261 2176 
L 1862 2176 
C 2464 2176 2522 1959 2522 1429 
L 2637 1429 
L 2637 3086 
L 2522 3086 
C 2522 2558 2464 2342 1862 2342 
L 1261 2342 
L 1261 3924 
C 1261 4141 1274 4172 1530 4172 
L 2406 4172 
C 3398 4172 3514 3778 3603 2933 
L 3718 2933 
L 3565 4339 
L 326 4339 
L 326 4172 
C 768 4172 838 4172 838 3886 
L 838 453 
C 838 166 768 166 326 166 
L 326 0 
L 3654 0 
L 3885 1614 
z
" id="CMR17-45" transform="scale(0.015625)"/>
      <path d="M 979 4416 
L 218 4345 
L 218 4179 
C 595 4179 653 4141 653 3835 
L 653 439 
C 653 198 627 166 218 166 
L 218 0 
C 371 12 653 12 813 12 
C 979 12 1261 12 1414 0 
L 1414 166 
C 1005 166 979 191 979 439 
L 979 4416 
z
" id="CMR17-6c" transform="scale(0.015625)"/>
     </defs>
     <use transform="scale(0.996264)" xlink:href="#CMR17-54"/>
     <use transform="translate(66.509881 0)scale(0.996264)" xlink:href="#CMR17-4f"/>
     <use transform="translate(135.622215 0)scale(0.996264)" xlink:href="#CMR17-56"/>
     <use transform="translate(204.694645 -14.943915)scale(0.697382)" xlink:href="#CMR17-30"/>
     <use transform="translate(267.251925 0)scale(0.996264)" xlink:href="#CMR17-61"/>
     <use transform="translate(312.942402 0)scale(0.996264)" xlink:href="#CMR17-6e"/>
     <use transform="translate(363.837772 0)scale(0.996264)" xlink:href="#CMR17-64"/>
     <use transform="translate(444.809108 0)scale(0.996264)" xlink:href="#CMR17-4c"/>
     <use transform="translate(502.190516 0)scale(0.996264)" xlink:href="#CMR17-45"/>
     <use transform="translate(594.852783 0)scale(0.996264)" xlink:href="#CMR17-72"/>
     <use transform="translate(630.133551 0)scale(0.996264)" xlink:href="#CMR17-65"/>
     <use transform="translate(670.619211 0)scale(0.996264)" xlink:href="#CMR17-73"/>
     <use transform="translate(706.420549 0)scale(0.996264)" xlink:href="#CMR17-75"/>
     <use transform="translate(757.315919 0)scale(0.996264)" xlink:href="#CMR17-6c"/>
     <use transform="translate(782.186977 0)scale(0.996264)" xlink:href="#CMR17-74"/>
     <use transform="translate(817.467745 0)scale(0.996264)" xlink:href="#CMR17-73"/>
    </g>
   </g>
   <g id="legend_4">
    <g id="patch_25">
     <path d="M 310.533176 196.285953 
L 400.453669 196.285953 
Q 402.453669 196.285953 402.453669 194.285953 
L 402.453669 180.435558 
Q 402.453669 178.435558 400.453669 178.435558 
L 310.533176 178.435558 
Q 308.533176 178.435558 308.533176 180.435558 
L 308.533176 194.285953 
Q 308.533176 196.285953 310.533176 196.285953 
z
" style="fill:#ffffff;opacity:0.8;stroke:#cccccc;stroke-linejoin:miter;"/>
    </g>
    <g id="line2d_63">
     <path d="M 312.533176 185.935558 
L 332.533176 185.935558 
" style="fill:none;stroke:#000000;stroke-dasharray:5.55,2.4;stroke-dashoffset:0;stroke-width:1.5;"/>
    </g>
    <g id="line2d_64"/>
    <g id="text_43">
     <!-- $p_{LE}-p_{TOV,0}$ -->
     <g transform="translate(340.533176 189.435558)scale(0.1 -0.1)">
      <defs>
       <path d="M 2349 3860 
C 2406 4102 2426 4166 2989 4166 
C 3162 4166 3206 4166 3206 4287 
C 3206 4352 3136 4352 3110 4352 
C 2982 4352 2835 4339 2707 4339 
L 1850 4339 
C 1728 4339 1587 4352 1466 4352 
C 1414 4352 1344 4352 1344 4230 
C 1344 4166 1402 4166 1498 4166 
C 1888 4166 1888 4115 1888 4045 
C 1888 4032 1888 3994 1862 3898 
L 998 472 
C 941 249 928 185 480 185 
C 358 185 294 185 294 70 
C 294 0 333 0 461 0 
L 3328 0 
C 3469 0 3475 6 3520 121 
L 4013 1478 
C 4026 1510 4038 1548 4038 1567 
C 4038 1605 4006 1631 3974 1631 
C 3968 1631 3936 1631 3923 1605 
C 3910 1599 3910 1586 3859 1465 
C 3654 905 3366 185 2285 185 
L 1670 185 
C 1581 185 1568 185 1530 191 
C 1459 198 1453 211 1453 262 
C 1453 306 1466 344 1478 402 
L 2349 3860 
z
" id="CMMI12-4c" transform="scale(0.015625)"/>
       <path d="M 4448 1489 
C 4454 1508 4474 1553 4474 1578 
C 4474 1611 4448 1643 4410 1643 
C 4384 1643 4371 1636 4352 1617 
C 4339 1611 4339 1598 4282 1469 
C 3904 570 3629 185 2605 185 
L 1670 185 
C 1581 185 1568 185 1530 192 
C 1459 198 1453 211 1453 262 
C 1453 307 1466 346 1478 403 
L 1920 2176 
L 2554 2176 
C 3053 2176 3091 2066 3091 1874 
C 3091 1810 3091 1752 3046 1559 
C 3034 1534 3027 1508 3027 1489 
C 3027 1444 3059 1424 3098 1424 
C 3155 1424 3162 1469 3187 1559 
L 3552 3036 
C 3552 3068 3526 3099 3488 3099 
C 3430 3099 3424 3074 3398 2986 
C 3270 2500 3142 2361 2573 2361 
L 1965 2361 
L 2362 3913 
C 2419 4134 2432 4153 2694 4153 
L 3610 4153 
C 4397 4153 4557 3945 4557 3465 
C 4557 3459 4557 3282 4531 3074 
C 4525 3049 4518 3011 4518 2998 
C 4518 2948 4550 2929 4589 2929 
C 4634 2929 4659 2954 4672 3068 
L 4806 4172 
C 4806 4191 4819 4255 4819 4268 
C 4819 4339 4762 4339 4646 4339 
L 1523 4339 
C 1402 4339 1338 4339 1338 4223 
C 1338 4153 1382 4153 1491 4153 
C 1888 4153 1888 4109 1888 4039 
C 1888 4008 1882 3983 1862 3913 
L 998 474 
C 941 249 928 185 480 185 
C 358 185 294 185 294 70 
C 294 0 333 0 461 0 
L 3674 0 
C 3814 0 3821 6 3866 108 
L 4448 1489 
z
" id="CMMI12-45" transform="scale(0.015625)"/>
       <path d="M 2669 3886 
C 2707 4038 2720 4096 2816 4121 
C 2867 4134 3078 4134 3213 4134 
C 3853 4134 4154 4109 4154 3612 
C 4154 3516 4128 3274 4090 3038 
L 4083 2962 
C 4083 2937 4109 2898 4147 2898 
C 4211 2898 4211 2930 4230 3032 
L 4416 4159 
C 4429 4217 4429 4230 4429 4249 
C 4429 4319 4390 4319 4262 4319 
L 762 4319 
C 614 4319 608 4313 570 4198 
L 179 3051 
C 173 3038 154 2968 154 2962 
C 154 2930 179 2898 218 2898 
C 269 2898 282 2924 307 3007 
C 576 3777 710 4134 1562 4134 
L 1990 4134 
C 2144 4134 2208 4134 2208 4064 
C 2208 4045 2208 4032 2176 3917 
L 1318 497 
C 1254 249 1242 185 563 185 
C 403 185 358 185 358 64 
C 358 0 429 0 461 0 
C 621 0 787 12 947 12 
L 1946 12 
C 2106 12 2278 0 2438 0 
C 2509 0 2573 0 2573 121 
C 2573 185 2528 185 2362 185 
C 1786 185 1786 242 1786 338 
C 1786 344 1786 389 1811 491 
L 2669 3886 
z
" id="CMMI12-54" transform="scale(0.015625)"/>
       <path d="M 4646 2788 
C 4646 3837 3955 4480 3059 4480 
C 1690 4480 307 3017 307 1550 
C 307 552 973 -128 1901 -128 
C 3245 -128 4646 1264 4646 2788 
z
M 1939 19 
C 1414 19 858 400 858 1391 
C 858 1969 1069 2915 1594 3551 
C 2061 4110 2598 4339 3027 4339 
C 3590 4339 4134 3932 4134 3017 
C 4134 2452 3891 1569 3462 965 
C 2995 317 2413 19 1939 19 
z
" id="CMMI12-4f" transform="scale(0.015625)"/>
       <path d="M 3962 3644 
C 4179 3987 4378 4140 4704 4166 
C 4768 4172 4819 4172 4819 4287 
C 4819 4313 4806 4352 4749 4352 
C 4634 4352 4358 4339 4243 4339 
C 4058 4339 3866 4352 3686 4352 
C 3635 4352 3571 4352 3571 4230 
C 3571 4172 3629 4166 3654 4166 
C 3891 4146 3917 4032 3917 3956 
C 3917 3860 3827 3714 3821 3708 
L 1811 540 
L 1363 3968 
C 1363 4153 1696 4166 1766 4166 
C 1862 4166 1920 4166 1920 4287 
C 1920 4352 1850 4352 1830 4352 
C 1722 4352 1594 4339 1485 4339 
L 1126 4339 
C 659 4339 467 4352 461 4352 
C 422 4352 346 4352 346 4236 
C 346 4166 390 4166 493 4166 
C 819 4166 838 4108 858 3949 
L 1370 25 
C 1389 -109 1389 -128 1478 -128 
C 1555 -128 1587 -109 1651 -7 
L 3962 3644 
z
" id="CMMI12-56" transform="scale(0.015625)"/>
       <path d="M 1248 -26 
C 1248 345 1126 620 864 620 
C 659 620 557 454 557 313 
C 557 172 653 0 870 0 
C 954 0 1024 25 1082 83 
C 1094 96 1101 96 1107 96 
C 1120 96 1120 6 1120 -26 
C 1120 -233 1082 -642 710 -1051 
C 640 -1127 640 -1140 640 -1152 
C 640 -1184 672 -1216 704 -1216 
C 755 -1216 1248 -749 1248 -26 
z
" id="CMMI12-3b" transform="scale(0.015625)"/>
      </defs>
      <use transform="scale(0.996264)" xlink:href="#CMMI12-70"/>
      <use transform="translate(48.959514 -14.943915)scale(0.697382)" xlink:href="#CMMI12-4c"/>
      <use transform="translate(95.418928 -14.943915)scale(0.697382)" xlink:href="#CMMI12-45"/>
      <use transform="translate(172.692172 0)scale(0.996264)" xlink:href="#CMSY10-0"/>
      <use transform="translate(272.318846 0)scale(0.996264)" xlink:href="#CMMI12-70"/>
      <use transform="translate(321.27836 -14.943915)scale(0.697382)" xlink:href="#CMMI12-54"/>
      <use transform="translate(370.784683 -14.943915)scale(0.697382)" xlink:href="#CMMI12-4f"/>
      <use transform="translate(424.866711 -14.943915)scale(0.697382)" xlink:href="#CMMI12-56"/>
      <use transform="translate(468.468813 -14.943915)scale(0.697382)" xlink:href="#CMMI12-3b"/>
      <use transform="translate(487.436745 -14.943915)scale(0.697382)" xlink:href="#CMR17-30"/>
     </g>
    </g>
   </g>
  </g>
 </g>
 <defs>
  <clipPath id="p88c26f8db6">
   <rect height="113.565814" width="173.149015" x="30.57782" y="25.8"/>
  </clipPath>
  <clipPath id="p993e9ce1e3">
   <rect height="113.565814" width="173.149015" x="30.57782" y="173.435558"/>
  </clipPath>
  <clipPath id="pdb52653150">
   <rect height="113.565814" width="173.149015" x="234.304655" y="25.8"/>
  </clipPath>
  <clipPath id="p1ea65326a9">
   <rect height="113.565814" width="173.149015" x="234.304655" y="173.435558"/>
  </clipPath>
 </defs>
</svg>
