<?xml version="1.0" encoding="utf-8" standalone="no"?>
<!DOCTYPE svg PUBLIC "-//W3C//DTD SVG 1.1//EN"
  "http://www.w3.org/Graphics/SVG/1.1/DTD/svg11.dtd">
<!-- Created with matplotlib (https://matplotlib.org/) -->
<svg height="288pt" version="1.1" viewBox="0 0 432 288" width="432pt" xmlns="http://www.w3.org/2000/svg" xmlns:xlink="http://www.w3.org/1999/xlink">
 <metadata>
  <rdf:RDF xmlns:cc="http://creativecommons.org/ns#" xmlns:dc="http://purl.org/dc/elements/1.1/" xmlns:rdf="http://www.w3.org/1999/02/22-rdf-syntax-ns#">
   <cc:Work>
    <dc:type rdf:resource="http://purl.org/dc/dcmitype/StillImage"/>
    <dc:date>2021-03-04T01:46:59.127430</dc:date>
    <dc:format>image/svg+xml</dc:format>
    <dc:creator>
     <cc:Agent>
      <dc:title>Matplotlib v3.3.4, https://matplotlib.org/</dc:title>
     </cc:Agent>
    </dc:creator>
   </cc:Work>
  </rdf:RDF>
 </metadata>
 <defs>
  <style type="text/css">*{stroke-linecap:butt;stroke-linejoin:round;}</style>
 </defs>
 <g id="figure_1">
  <g id="patch_1">
   <path d="M 0 288 
L 432 288 
L 432 0 
L 0 0 
z
" style="fill:#ffffff;"/>
  </g>
  <g id="axes_1">
   <g id="patch_2">
    <path d="M 45.16615 235.30653 
L 316.75262 235.30653 
L 316.75262 10.8 
L 45.16615 10.8 
z
" style="fill:#ffffff;"/>
   </g>
   <g id="matplotlib.axis_1">
    <g id="xtick_1">
     <g id="line2d_1">
      <defs>
       <path d="M 0 0 
L 0 3.5 
" id="m8243c766df" style="stroke:#000000;stroke-width:0.8;"/>
      </defs>
      <g>
       <use style="stroke:#000000;stroke-width:0.8;" x="57.014215" xlink:href="#m8243c766df" y="235.30653"/>
      </g>
     </g>
     <g id="text_1">
      <!-- $\mathdefault{0}$ -->
      <g transform="translate(54.523548 249.225028)scale(0.1 -0.1)">
       <defs>
        <path d="M 42 31.84375 
C 42 37.96875 41.90625 48.421875 37.703125 56.453125 
C 34 63.484375 28.09375 66 22.90625 66 
C 18.09375 66 12 63.78125 8.203125 56.5625 
C 4.203125 49.015625 3.796875 39.671875 3.796875 31.84375 
C 3.796875 26.109375 3.90625 17.375 7 9.734375 
C 11.296875 -0.609375 19 -2 22.90625 -2 
C 27.5 -2 34.5 -0.109375 38.59375 9.4375 
C 41.59375 16.375 42 24.5 42 31.84375 
z
M 22.90625 -0.40625 
C 16.5 -0.40625 12.703125 5.125 11.296875 12.75 
C 10.203125 18.6875 10.203125 27.328125 10.203125 32.953125 
C 10.203125 40.6875 10.203125 47.109375 11.5 53.234375 
C 13.40625 61.78125 19 64.390625 22.90625 64.390625 
C 27 64.390625 32.296875 61.671875 34.203125 53.4375 
C 35.5 47.71875 35.59375 40.984375 35.59375 32.953125 
C 35.59375 26.421875 35.59375 18.375 34.40625 12.453125 
C 32.296875 1.5 26.40625 -0.40625 22.90625 -0.40625 
z
" id="CMR17-48"/>
       </defs>
       <use transform="scale(0.996264)" xlink:href="#CMR17-48"/>
      </g>
     </g>
    </g>
    <g id="xtick_2">
     <g id="line2d_2">
      <g>
       <use style="stroke:#000000;stroke-width:0.8;" x="106.691638" xlink:href="#m8243c766df" y="235.30653"/>
      </g>
     </g>
     <g id="text_2">
      <!-- $\mathdefault{1}$ -->
      <g transform="translate(104.20097 249.225028)scale(0.1 -0.1)">
       <defs>
        <path d="M 26.59375 63.796875 
C 26.59375 65.890625 26.5 66 25.09375 66 
C 21.203125 61.359375 15.296875 59.890625 9.703125 59.6875 
C 9.40625 59.6875 8.90625 59.6875 8.796875 59.5 
C 8.703125 59.296875 8.703125 59.09375 8.703125 57 
C 11.796875 57 17 57.59375 21 59.984375 
L 21 7.296875 
C 21 3.796875 20.796875 2.59375 12.203125 2.59375 
L 9.203125 2.59375 
L 9.203125 0 
C 14 0.09375 19 0.1875 23.796875 0.1875 
C 28.59375 0.1875 33.59375 0.09375 38.40625 0 
L 38.40625 2.59375 
L 35.40625 2.59375 
C 26.796875 2.59375 26.59375 3.6875 26.59375 7.296875 
z
" id="CMR17-49"/>
       </defs>
       <use transform="scale(0.996264)" xlink:href="#CMR17-49"/>
      </g>
     </g>
    </g>
    <g id="xtick_3">
     <g id="line2d_3">
      <g>
       <use style="stroke:#000000;stroke-width:0.8;" x="156.369061" xlink:href="#m8243c766df" y="235.30653"/>
      </g>
     </g>
     <g id="text_3">
      <!-- $\mathdefault{2}$ -->
      <g transform="translate(153.878393 249.225028)scale(0.1 -0.1)">
       <defs>
        <path d="M 41.703125 15.46875 
L 39.90625 15.46875 
C 38.90625 8.390625 38.09375 7.1875 37.703125 6.59375 
C 37.203125 5.796875 30 5.796875 28.59375 5.796875 
L 9.40625 5.796875 
C 13 9.6875 20 16.765625 28.5 24.9375 
C 34.59375 30.71875 41.703125 37.5 41.703125 47.390625 
C 41.703125 59.1875 32.296875 66 21.796875 66 
C 10.796875 66 4.09375 56.296875 4.09375 47.296875 
C 4.09375 43.390625 7 42.890625 8.203125 42.890625 
C 9.203125 42.890625 12.203125 43.484375 12.203125 46.984375 
C 12.203125 50.09375 9.59375 51 8.203125 51 
C 7.59375 51 7 50.890625 6.59375 50.6875 
C 8.5 59.1875 14.296875 63.390625 20.40625 63.390625 
C 29.09375 63.390625 34.796875 56.5 34.796875 47.390625 
C 34.796875 38.703125 29.703125 31.21875 24 24.734375 
L 4.09375 2.296875 
L 4.09375 0 
L 39.296875 0 
z
" id="CMR17-50"/>
       </defs>
       <use transform="scale(0.996264)" xlink:href="#CMR17-50"/>
      </g>
     </g>
    </g>
    <g id="xtick_4">
     <g id="line2d_4">
      <g>
       <use style="stroke:#000000;stroke-width:0.8;" x="206.046483" xlink:href="#m8243c766df" y="235.30653"/>
      </g>
     </g>
     <g id="text_4">
      <!-- $\mathdefault{3}$ -->
      <g transform="translate(203.555816 249.225028)scale(0.1 -0.1)">
       <defs>
        <path d="M 22.09375 34 
C 31 34 34.90625 26.140625 34.90625 17.09375 
C 34.90625 5.03125 28.5 0.390625 22.703125 0.390625 
C 17.40625 0.390625 8.796875 3.015625 6.09375 10.796875 
C 6.59375 10.59375 7.09375 10.59375 7.59375 10.59375 
C 10 10.59375 11.796875 12.1875 11.796875 14.796875 
C 11.796875 17.6875 9.59375 19 7.59375 19 
C 5.90625 19 3.296875 18.1875 3.296875 14.484375 
C 3.296875 5.234375 12.296875 -2 22.90625 -2 
C 34 -2 42.5 6.75 42.5 16.984375 
C 42.5 26.84375 34.5 34 25 35.09375 
C 32.59375 36.671875 39.90625 43.375 39.90625 52.390625 
C 39.90625 60.25 32 66 23 66 
C 13.90625 66 5.90625 60.34375 5.90625 52.296875 
C 5.90625 48.796875 8.5 48.1875 9.796875 48.1875 
C 11.90625 48.1875 13.703125 49.484375 13.703125 52.09375 
C 13.703125 54.6875 11.90625 56 9.796875 56 
C 9.40625 56 8.90625 56 8.5 55.796875 
C 11.40625 62.484375 19.296875 63.6875 22.796875 63.6875 
C 26.296875 63.6875 32.90625 61.96875 32.90625 52.296875 
C 32.90625 49.484375 32.5 44.546875 29.09375 40.21875 
C 26.09375 36.390625 22.703125 36.1875 19.40625 35.890625 
C 18.90625 35.890625 16.59375 35.6875 16.203125 35.6875 
C 15.5 35.59375 15.09375 35.5 15.09375 34.796875 
C 15.09375 34.09375 15.203125 34 17.203125 34 
z
" id="CMR17-51"/>
       </defs>
       <use transform="scale(0.996264)" xlink:href="#CMR17-51"/>
      </g>
     </g>
    </g>
    <g id="xtick_5">
     <g id="line2d_5">
      <g>
       <use style="stroke:#000000;stroke-width:0.8;" x="255.723906" xlink:href="#m8243c766df" y="235.30653"/>
      </g>
     </g>
     <g id="text_5">
      <!-- $\mathdefault{4}$ -->
      <g transform="translate(253.233239 249.225028)scale(0.1 -0.1)">
       <defs>
        <path d="M 33.59375 64.796875 
C 33.59375 66.890625 33.5 67 31.703125 67 
L 2 19.59375 
L 2 17 
L 27.796875 17 
L 27.796875 7.1875 
C 27.796875 3.59375 27.59375 2.59375 20.59375 2.59375 
L 18.703125 2.59375 
L 18.703125 0 
C 21.90625 0.1875 27.296875 0.1875 30.703125 0.1875 
C 34.09375 0.1875 39.5 0.1875 42.703125 0 
L 42.703125 2.59375 
L 40.796875 2.59375 
C 33.796875 2.59375 33.59375 3.59375 33.59375 7.1875 
L 33.59375 17 
L 43.796875 17 
L 43.796875 19.59375 
L 33.59375 19.59375 
z
M 28.09375 58.171875 
L 28.09375 19.59375 
L 4 19.59375 
z
" id="CMR17-52"/>
       </defs>
       <use transform="scale(0.996264)" xlink:href="#CMR17-52"/>
      </g>
     </g>
    </g>
    <g id="xtick_6">
     <g id="line2d_6">
      <g>
       <use style="stroke:#000000;stroke-width:0.8;" x="305.401329" xlink:href="#m8243c766df" y="235.30653"/>
      </g>
     </g>
     <g id="text_6">
      <!-- $\mathdefault{5}$ -->
      <g transform="translate(302.910661 249.225028)scale(0.1 -0.1)">
       <defs>
        <path d="M 11.40625 58.59375 
C 12.40625 58.1875 16.5 56.890625 20.703125 56.890625 
C 30 56.890625 35.09375 61.890625 38 64.6875 
C 38 65.484375 38 66 37.40625 66 
C 37.296875 66 37.09375 66 36.296875 65.59375 
C 32.796875 64.09375 28.703125 63 23.703125 63 
C 20.703125 63 16.203125 63.359375 11.296875 65.484375 
C 10.203125 66 10 66 9.90625 66 
C 9.40625 66 9.296875 65.890625 9.296875 63.90625 
L 9.296875 34.859375 
C 9.296875 33.015625 9.296875 32.5 10.296875 32.5 
C 10.796875 32.5 11 32.703125 11.5 33.421875 
C 14.703125 38.046875 19.09375 40 24.09375 40 
C 27.59375 40 35.09375 37.734375 35.09375 20.203125 
C 35.09375 16.984375 35.09375 11.1875 32.09375 6.59375 
C 29.59375 2.484375 25.703125 0.390625 21.40625 0.390625 
C 14.796875 0.390625 8.09375 4.984375 6.296875 12.6875 
C 6.703125 12.59375 7.5 12.390625 7.90625 12.390625 
C 9.203125 12.390625 11.703125 13.09375 11.703125 16.1875 
C 11.703125 18.890625 9.796875 20 7.90625 20 
C 5.59375 20 4.09375 18.59375 4.09375 15.796875 
C 4.09375 7.09375 11 -2 21.59375 -2 
C 31.90625 -2 41.703125 6.890625 41.703125 19.796875 
C 41.703125 32.09375 33.90625 41.59375 24.203125 41.59375 
C 19.09375 41.59375 14.796875 39.6875 11.40625 36 
z
" id="CMR17-53"/>
       </defs>
       <use transform="scale(0.996264)" xlink:href="#CMR17-53"/>
      </g>
     </g>
    </g>
    <g id="text_7">
     <!-- $n=\frac{1}{\gamma-1}$ -->
     <g transform="translate(163.324124 263.579069)scale(0.1 -0.1)">
      <defs>
       <path d="M 20.59375 29.21875 
C 20.796875 29.828125 23.296875 34.8125 27 38 
C 29.59375 40.390625 33 41.984375 36.90625 41.984375 
C 40.90625 41.984375 42.296875 39 42.296875 35.015625 
C 42.296875 29.328125 38.203125 17.953125 36.203125 12.5625 
C 35.296875 10.171875 34.796875 8.875 34.796875 7.078125 
C 34.796875 2.59375 37.90625 -1 42.703125 -1 
C 52 -1 55.5 13.65625 55.5 14.265625 
C 55.5 14.765625 55.09375 15.15625 54.5 15.15625 
C 53.59375 15.15625 53.5 14.859375 53 13.15625 
C 50.703125 4.984375 46.90625 1 43 1 
C 42 1 40.40625 1.09375 40.40625 4.28125 
C 40.40625 6.78125 41.5 9.765625 42.09375 11.171875 
C 44.09375 16.65625 48.296875 27.828125 48.296875 33.515625 
C 48.296875 39.5 44.796875 44 37.203125 44 
C 28.296875 44 23.59375 37.703125 21.796875 35.203125 
C 21.5 40.890625 17.40625 44 13 44 
C 9.796875 44 7.59375 42.09375 5.90625 38.703125 
C 4.09375 35.109375 2.703125 29.125 2.703125 28.71875 
C 2.703125 28.328125 3.09375 27.828125 3.796875 27.828125 
C 4.59375 27.828125 4.703125 27.921875 5.296875 30.21875 
C 6.90625 36.3125 8.703125 41.984375 12.703125 41.984375 
C 15 41.984375 15.796875 40.390625 15.796875 37.40625 
C 15.796875 35.203125 14.796875 31.3125 14.09375 28.234375 
L 11.296875 17.453125 
C 10.90625 15.5625 9.796875 11.0625 9.296875 9.265625 
C 8.59375 6.671875 7.5 1.984375 7.5 1.484375 
C 7.5 0.09375 8.59375 -1 10.09375 -1 
C 11.296875 -1 12.703125 -0.40625 13.5 1.09375 
C 13.703125 1.59375 14.59375 5.078125 15.09375 7.078125 
L 17.296875 16.0625 
z
" id="CMMI12-110"/>
       <path d="M 64.296875 32 
C 65.796875 32 67.296875 32 67.296875 33.6875 
C 67.296875 35.5 65.59375 35.5 63.90625 35.5 
L 8 35.5 
C 6.296875 35.5 4.59375 35.5 4.59375 33.6875 
C 4.59375 32 6.09375 32 7.59375 32 
z
M 63.90625 14.484375 
C 65.59375 14.484375 67.296875 14.484375 67.296875 16.296875 
C 67.296875 18 65.796875 18 64.296875 18 
L 7.59375 18 
C 6.09375 18 4.59375 18 4.59375 16.296875 
C 4.59375 14.484375 6.296875 14.484375 8 14.484375 
z
" id="CMR17-61"/>
       <path d="M 37.796875 12.265625 
C 37.59375 17.140625 37.40625 24.78125 33.59375 33.71875 
C 31.59375 38.6875 28.203125 44 20.90625 44 
C 8.59375 44 1.90625 28.359375 1.90625 25.765625 
C 1.90625 24.875 2.59375 24.875 2.90625 24.875 
C 3.796875 24.875 3.796875 25.078125 4.296875 26.375 
C 6.40625 32.515625 12.796875 37.390625 19.703125 37.390625 
C 33.59375 37.390625 35.59375 22 35.59375 12.171875 
C 35.59375 5.90625 34.90625 3.828125 34.296875 1.84375 
C 32.40625 -4.3125 29.09375 -16.625 29.09375 -19.40625 
C 29.09375 -20.203125 29.40625 -21.109375 30.203125 -21.109375 
C 31.703125 -21.109375 32.59375 -17.8125 33.703125 -13.84375 
C 36.09375 -5.109375 36.703125 -0.734375 37.203125 3.234375 
C 37.5 5.625 43.203125 22.015625 51.09375 37.609375 
C 51.796875 39.203125 53.203125 41.890625 53.203125 42.1875 
C 53.203125 42.296875 53.09375 43 52.203125 43 
C 52 43 51.5 43 51.296875 42.59375 
C 51.09375 42.390625 47.59375 35.625 44.59375 28.875 
C 43.09375 25.46875 41.09375 21 37.796875 12.265625 
z
" id="CMMI12-13"/>
       <path d="M 65.90625 23 
C 67.59375 23 69.40625 23 69.40625 25 
C 69.40625 27 67.59375 27 65.90625 27 
L 11.796875 27 
C 10.09375 27 8.296875 27 8.296875 25 
C 8.296875 23 10.09375 23 11.796875 23 
z
" id="CMSY10-0"/>
      </defs>
      <use transform="scale(0.996264)" xlink:href="#CMMI12-110"/>
      <use transform="translate(85.904056 0)scale(0.996264)" xlink:href="#CMR17-61"/>
      <use transform="translate(233.215271 39.226102)scale(0.697382)" xlink:href="#CMR17-49"/>
      <use transform="translate(186.488367 -34.355253)scale(0.697382)" xlink:href="#CMMI12-13"/>
      <use transform="translate(225.701167 -34.355253)scale(0.697382)" xlink:href="#CMSY10-0"/>
      <use transform="translate(279.94216 -34.355253)scale(0.697382)" xlink:href="#CMR17-49"/>
      <path d="M 186.488367 22.914133 
L 311.925342 22.914133 
L 311.925342 26.899083 
L 186.488367 26.899083 
L 186.488367 22.914133 
z
"/>
     </g>
    </g>
   </g>
   <g id="matplotlib.axis_2">
    <g id="ytick_1">
     <g id="line2d_7">
      <defs>
       <path d="M 0 0 
L -3.5 0 
" id="m5674674cb2" style="stroke:#000000;stroke-width:0.8;"/>
      </defs>
      <g>
       <use style="stroke:#000000;stroke-width:0.8;" x="45.16615" xlink:href="#m5674674cb2" y="193.625948"/>
      </g>
     </g>
     <g id="text_8">
      <!-- $\mathdefault{10^{0}}$ -->
      <g transform="translate(24.232242 197.085197)scale(0.1 -0.1)">
       <use transform="scale(0.996264)" xlink:href="#CMR17-49"/>
       <use transform="translate(45.690477 0)scale(0.996264)" xlink:href="#CMR17-48"/>
       <use transform="translate(91.380954 36.153639)scale(0.697382)" xlink:href="#CMR17-48"/>
      </g>
     </g>
    </g>
    <g id="ytick_2">
     <g id="line2d_8">
      <g>
       <use style="stroke:#000000;stroke-width:0.8;" x="45.16615" xlink:href="#m5674674cb2" y="150.330494"/>
      </g>
     </g>
     <g id="text_9">
      <!-- $\mathdefault{10^{1}}$ -->
      <g transform="translate(24.232242 153.789743)scale(0.1 -0.1)">
       <use transform="scale(0.996264)" xlink:href="#CMR17-49"/>
       <use transform="translate(45.690477 0)scale(0.996264)" xlink:href="#CMR17-48"/>
       <use transform="translate(91.380954 36.153639)scale(0.697382)" xlink:href="#CMR17-49"/>
      </g>
     </g>
    </g>
    <g id="ytick_3">
     <g id="line2d_9">
      <g>
       <use style="stroke:#000000;stroke-width:0.8;" x="45.16615" xlink:href="#m5674674cb2" y="107.035041"/>
      </g>
     </g>
     <g id="text_10">
      <!-- $\mathdefault{10^{2}}$ -->
      <g transform="translate(24.232242 110.49429)scale(0.1 -0.1)">
       <use transform="scale(0.996264)" xlink:href="#CMR17-49"/>
       <use transform="translate(45.690477 0)scale(0.996264)" xlink:href="#CMR17-48"/>
       <use transform="translate(91.380954 36.153639)scale(0.697382)" xlink:href="#CMR17-50"/>
      </g>
     </g>
    </g>
    <g id="ytick_4">
     <g id="line2d_10">
      <g>
       <use style="stroke:#000000;stroke-width:0.8;" x="45.16615" xlink:href="#m5674674cb2" y="63.739587"/>
      </g>
     </g>
     <g id="text_11">
      <!-- $\mathdefault{10^{3}}$ -->
      <g transform="translate(24.232242 67.198836)scale(0.1 -0.1)">
       <use transform="scale(0.996264)" xlink:href="#CMR17-49"/>
       <use transform="translate(45.690477 0)scale(0.996264)" xlink:href="#CMR17-48"/>
       <use transform="translate(91.380954 36.153639)scale(0.697382)" xlink:href="#CMR17-51"/>
      </g>
     </g>
    </g>
    <g id="ytick_5">
     <g id="line2d_11">
      <g>
       <use style="stroke:#000000;stroke-width:0.8;" x="45.16615" xlink:href="#m5674674cb2" y="20.444133"/>
      </g>
     </g>
     <g id="text_12">
      <!-- $\mathdefault{10^{4}}$ -->
      <g transform="translate(24.232242 23.903382)scale(0.1 -0.1)">
       <use transform="scale(0.996264)" xlink:href="#CMR17-49"/>
       <use transform="translate(45.690477 0)scale(0.996264)" xlink:href="#CMR17-48"/>
       <use transform="translate(91.380954 36.153639)scale(0.697382)" xlink:href="#CMR17-52"/>
      </g>
     </g>
    </g>
    <g id="ytick_6">
     <g id="line2d_12">
      <defs>
       <path d="M 0 0 
L -2 0 
" id="m7401b73bbd" style="stroke:#000000;stroke-width:0.6;"/>
      </defs>
      <g>
       <use style="stroke:#000000;stroke-width:0.6;" x="45.16615" xlink:href="#m7401b73bbd" y="223.888171"/>
      </g>
     </g>
    </g>
    <g id="ytick_7">
     <g id="line2d_13">
      <g>
       <use style="stroke:#000000;stroke-width:0.6;" x="45.16615" xlink:href="#m7401b73bbd" y="216.26422"/>
      </g>
     </g>
    </g>
    <g id="ytick_8">
     <g id="line2d_14">
      <g>
       <use style="stroke:#000000;stroke-width:0.6;" x="45.16615" xlink:href="#m7401b73bbd" y="210.854941"/>
      </g>
     </g>
    </g>
    <g id="ytick_9">
     <g id="line2d_15">
      <g>
       <use style="stroke:#000000;stroke-width:0.6;" x="45.16615" xlink:href="#m7401b73bbd" y="206.659178"/>
      </g>
     </g>
    </g>
    <g id="ytick_10">
     <g id="line2d_16">
      <g>
       <use style="stroke:#000000;stroke-width:0.6;" x="45.16615" xlink:href="#m7401b73bbd" y="203.23099"/>
      </g>
     </g>
    </g>
    <g id="ytick_11">
     <g id="line2d_17">
      <g>
       <use style="stroke:#000000;stroke-width:0.6;" x="45.16615" xlink:href="#m7401b73bbd" y="200.332499"/>
      </g>
     </g>
    </g>
    <g id="ytick_12">
     <g id="line2d_18">
      <g>
       <use style="stroke:#000000;stroke-width:0.6;" x="45.16615" xlink:href="#m7401b73bbd" y="197.821711"/>
      </g>
     </g>
    </g>
    <g id="ytick_13">
     <g id="line2d_19">
      <g>
       <use style="stroke:#000000;stroke-width:0.6;" x="45.16615" xlink:href="#m7401b73bbd" y="195.607039"/>
      </g>
     </g>
    </g>
    <g id="ytick_14">
     <g id="line2d_20">
      <g>
       <use style="stroke:#000000;stroke-width:0.6;" x="45.16615" xlink:href="#m7401b73bbd" y="180.592718"/>
      </g>
     </g>
    </g>
    <g id="ytick_15">
     <g id="line2d_21">
      <g>
       <use style="stroke:#000000;stroke-width:0.6;" x="45.16615" xlink:href="#m7401b73bbd" y="172.968767"/>
      </g>
     </g>
    </g>
    <g id="ytick_16">
     <g id="line2d_22">
      <g>
       <use style="stroke:#000000;stroke-width:0.6;" x="45.16615" xlink:href="#m7401b73bbd" y="167.559487"/>
      </g>
     </g>
    </g>
    <g id="ytick_17">
     <g id="line2d_23">
      <g>
       <use style="stroke:#000000;stroke-width:0.6;" x="45.16615" xlink:href="#m7401b73bbd" y="163.363724"/>
      </g>
     </g>
    </g>
    <g id="ytick_18">
     <g id="line2d_24">
      <g>
       <use style="stroke:#000000;stroke-width:0.6;" x="45.16615" xlink:href="#m7401b73bbd" y="159.935536"/>
      </g>
     </g>
    </g>
    <g id="ytick_19">
     <g id="line2d_25">
      <g>
       <use style="stroke:#000000;stroke-width:0.6;" x="45.16615" xlink:href="#m7401b73bbd" y="157.037045"/>
      </g>
     </g>
    </g>
    <g id="ytick_20">
     <g id="line2d_26">
      <g>
       <use style="stroke:#000000;stroke-width:0.6;" x="45.16615" xlink:href="#m7401b73bbd" y="154.526257"/>
      </g>
     </g>
    </g>
    <g id="ytick_21">
     <g id="line2d_27">
      <g>
       <use style="stroke:#000000;stroke-width:0.6;" x="45.16615" xlink:href="#m7401b73bbd" y="152.311586"/>
      </g>
     </g>
    </g>
    <g id="ytick_22">
     <g id="line2d_28">
      <g>
       <use style="stroke:#000000;stroke-width:0.6;" x="45.16615" xlink:href="#m7401b73bbd" y="137.297264"/>
      </g>
     </g>
    </g>
    <g id="ytick_23">
     <g id="line2d_29">
      <g>
       <use style="stroke:#000000;stroke-width:0.6;" x="45.16615" xlink:href="#m7401b73bbd" y="129.673313"/>
      </g>
     </g>
    </g>
    <g id="ytick_24">
     <g id="line2d_30">
      <g>
       <use style="stroke:#000000;stroke-width:0.6;" x="45.16615" xlink:href="#m7401b73bbd" y="124.264034"/>
      </g>
     </g>
    </g>
    <g id="ytick_25">
     <g id="line2d_31">
      <g>
       <use style="stroke:#000000;stroke-width:0.6;" x="45.16615" xlink:href="#m7401b73bbd" y="120.068271"/>
      </g>
     </g>
    </g>
    <g id="ytick_26">
     <g id="line2d_32">
      <g>
       <use style="stroke:#000000;stroke-width:0.6;" x="45.16615" xlink:href="#m7401b73bbd" y="116.640083"/>
      </g>
     </g>
    </g>
    <g id="ytick_27">
     <g id="line2d_33">
      <g>
       <use style="stroke:#000000;stroke-width:0.6;" x="45.16615" xlink:href="#m7401b73bbd" y="113.741591"/>
      </g>
     </g>
    </g>
    <g id="ytick_28">
     <g id="line2d_34">
      <g>
       <use style="stroke:#000000;stroke-width:0.6;" x="45.16615" xlink:href="#m7401b73bbd" y="111.230803"/>
      </g>
     </g>
    </g>
    <g id="ytick_29">
     <g id="line2d_35">
      <g>
       <use style="stroke:#000000;stroke-width:0.6;" x="45.16615" xlink:href="#m7401b73bbd" y="109.016132"/>
      </g>
     </g>
    </g>
    <g id="ytick_30">
     <g id="line2d_36">
      <g>
       <use style="stroke:#000000;stroke-width:0.6;" x="45.16615" xlink:href="#m7401b73bbd" y="94.00181"/>
      </g>
     </g>
    </g>
    <g id="ytick_31">
     <g id="line2d_37">
      <g>
       <use style="stroke:#000000;stroke-width:0.6;" x="45.16615" xlink:href="#m7401b73bbd" y="86.377859"/>
      </g>
     </g>
    </g>
    <g id="ytick_32">
     <g id="line2d_38">
      <g>
       <use style="stroke:#000000;stroke-width:0.6;" x="45.16615" xlink:href="#m7401b73bbd" y="80.96858"/>
      </g>
     </g>
    </g>
    <g id="ytick_33">
     <g id="line2d_39">
      <g>
       <use style="stroke:#000000;stroke-width:0.6;" x="45.16615" xlink:href="#m7401b73bbd" y="76.772817"/>
      </g>
     </g>
    </g>
    <g id="ytick_34">
     <g id="line2d_40">
      <g>
       <use style="stroke:#000000;stroke-width:0.6;" x="45.16615" xlink:href="#m7401b73bbd" y="73.344629"/>
      </g>
     </g>
    </g>
    <g id="ytick_35">
     <g id="line2d_41">
      <g>
       <use style="stroke:#000000;stroke-width:0.6;" x="45.16615" xlink:href="#m7401b73bbd" y="70.446137"/>
      </g>
     </g>
    </g>
    <g id="ytick_36">
     <g id="line2d_42">
      <g>
       <use style="stroke:#000000;stroke-width:0.6;" x="45.16615" xlink:href="#m7401b73bbd" y="67.93535"/>
      </g>
     </g>
    </g>
    <g id="ytick_37">
     <g id="line2d_43">
      <g>
       <use style="stroke:#000000;stroke-width:0.6;" x="45.16615" xlink:href="#m7401b73bbd" y="65.720678"/>
      </g>
     </g>
    </g>
    <g id="ytick_38">
     <g id="line2d_44">
      <g>
       <use style="stroke:#000000;stroke-width:0.6;" x="45.16615" xlink:href="#m7401b73bbd" y="50.706357"/>
      </g>
     </g>
    </g>
    <g id="ytick_39">
     <g id="line2d_45">
      <g>
       <use style="stroke:#000000;stroke-width:0.6;" x="45.16615" xlink:href="#m7401b73bbd" y="43.082406"/>
      </g>
     </g>
    </g>
    <g id="ytick_40">
     <g id="line2d_46">
      <g>
       <use style="stroke:#000000;stroke-width:0.6;" x="45.16615" xlink:href="#m7401b73bbd" y="37.673126"/>
      </g>
     </g>
    </g>
    <g id="ytick_41">
     <g id="line2d_47">
      <g>
       <use style="stroke:#000000;stroke-width:0.6;" x="45.16615" xlink:href="#m7401b73bbd" y="33.477363"/>
      </g>
     </g>
    </g>
    <g id="ytick_42">
     <g id="line2d_48">
      <g>
       <use style="stroke:#000000;stroke-width:0.6;" x="45.16615" xlink:href="#m7401b73bbd" y="30.049175"/>
      </g>
     </g>
    </g>
    <g id="ytick_43">
     <g id="line2d_49">
      <g>
       <use style="stroke:#000000;stroke-width:0.6;" x="45.16615" xlink:href="#m7401b73bbd" y="27.150684"/>
      </g>
     </g>
    </g>
    <g id="ytick_44">
     <g id="line2d_50">
      <g>
       <use style="stroke:#000000;stroke-width:0.6;" x="45.16615" xlink:href="#m7401b73bbd" y="24.639896"/>
      </g>
     </g>
    </g>
    <g id="ytick_45">
     <g id="line2d_51">
      <g>
       <use style="stroke:#000000;stroke-width:0.6;" x="45.16615" xlink:href="#m7401b73bbd" y="22.425224"/>
      </g>
     </g>
    </g>
    <g id="text_13">
     <!-- $r_ 0$ -->
     <g transform="translate(18.295064 127.286247)rotate(-90)scale(0.1 -0.1)">
      <defs>
       <path d="M 38.90625 41.140625 
C 35.796875 40.59375 34.203125 38.390625 34.203125 36.1875 
C 34.203125 33.796875 36.09375 32.984375 37.5 32.984375 
C 40.296875 32.984375 42.59375 35.390625 42.59375 38.390625 
C 42.59375 41.421875 39.5 44 34.5 44 
C 30.5 44 25.90625 42.1875 21.703125 36.484375 
C 21 41.5625 17 44 13 44 
C 9.09375 44 7.09375 41.28125 5.90625 39.1875 
C 4.203125 35.59375 2.703125 29.5625 2.703125 29.0625 
C 2.703125 28.65625 3.09375 28.140625 3.796875 28.140625 
C 4.59375 28.140625 4.703125 28.25 5.296875 30.578125 
C 6.796875 36.59375 8.703125 41.984375 12.703125 41.984375 
C 15.09375 41.984375 15.796875 40.6875 15.796875 37.796875 
C 15.796875 35.59375 14.796875 31.6875 14.09375 28.546875 
L 11.296875 17.65625 
C 10.90625 15.734375 9.796875 11.1875 9.296875 9.375 
C 8.59375 6.75 7.5 2 7.5 1.5 
C 7.5 0.09375 8.59375 -1 10.09375 -1 
C 11.203125 -1 13.09375 -0.3125 13.703125 1.703125 
C 14 2.5 17.703125 17.75 18.296875 20.078125 
C 18.796875 22.296875 19.40625 24.40625 19.90625 26.640625 
C 20.296875 28.046875 20.703125 29.65625 21 30.96875 
C 21.296875 31.875 24 36.796875 26.5 38.984375 
C 27.703125 40.09375 30.296875 41.984375 34.40625 41.984375 
C 36 41.984375 37.59375 41.78125 38.90625 41.140625 
z
" id="CMMI12-114"/>
      </defs>
      <use transform="scale(0.996264)" xlink:href="#CMMI12-114"/>
      <use transform="translate(43.960894 -14.943915)scale(0.697382)" xlink:href="#CMR17-48"/>
     </g>
    </g>
   </g>
   <g id="line2d_52">
    <path clip-path="url(#pbada257e02)" d="M 57.51099 221.6735 
L 59.994861 218.976651 
L 60.491635 218.59678 
L 60.988409 217.961931 
L 61.485183 217.561492 
L 61.981958 216.976382 
L 62.478732 216.580244 
L 62.975506 216.018264 
L 63.47228 215.647674 
L 63.969054 215.088937 
L 64.465829 214.759179 
L 64.962603 214.183737 
L 65.459377 213.910781 
L 65.956151 213.304049 
L 66.452926 213.099015 
L 66.9497 212.448329 
L 69.433571 210.621361 
L 69.930345 210.009308 
L 70.427119 209.715018 
L 70.923894 209.2367 
L 71.420668 209.062826 
L 71.917442 208.482155 
L 72.414216 208.227001 
L 73.904539 207.025623 
L 74.401313 206.848154 
L 74.898087 206.320041 
L 75.394862 206.103385 
L 75.891636 205.631077 
L 76.38841 205.386994 
L 76.885184 204.957878 
L 77.381959 204.696899 
L 78.375507 204.031238 
L 79.86583 203.017539 
L 81.356152 202.164949 
L 81.852927 201.786795 
L 82.349701 201.581864 
L 82.846475 201.18842 
L 83.343249 201.016319 
L 83.840024 200.601687 
L 93.775508 195.25621 
L 94.272282 195.091857 
L 94.769057 194.767399 
L 95.265831 194.590415 
L 96.259379 194.101998 
L 97.749702 193.340441 
L 99.240025 192.708548 
L 99.736799 192.42066 
L 100.233573 192.266104 
L 101.227122 191.748558 
L 105.69809 189.799315 
L 106.194864 189.657185 
L 107.188412 189.205892 
L 108.678735 188.557248 
L 109.672283 188.151676 
L 111.162606 187.569819 
L 114.143251 186.381868 
L 118.614219 184.681842 
L 119.607768 184.31387 
L 122.091639 183.428637 
L 124.57551 182.518526 
L 127.059381 181.656409 
L 130.536801 180.450355 
L 132.027124 179.945868 
L 142.459382 176.534341 
L 144.943254 175.768281 
L 147.427125 174.969019 
L 148.917447 174.536589 
L 150.904544 173.900275 
L 156.369061 172.220757 
L 161.833577 170.587696 
L 165.310997 169.533268 
L 167.298094 168.941226 
L 180.710998 164.962229 
L 207.040032 156.943264 
L 221.446485 152.20222 
L 231.381969 148.675628 
L 242.311002 144.424845 
L 250.756164 140.766864 
L 256.22068 138.182726 
L 263.672294 134.248947 
L 267.646488 131.920919 
L 272.117456 129.038579 
L 275.594875 126.561149 
L 279.072295 123.822684 
L 282.05294 121.207724 
L 284.536811 118.792573 
L 287.020683 116.105599 
L 289.504554 113.063624 
L 291.491651 110.297741 
L 293.478747 107.138742 
L 295.465844 103.441489 
L 297.452941 98.940681 
L 298.943264 94.808599 
L 300.433587 89.698614 
L 301.427135 85.276318 
L 302.420684 79.683221 
L 303.414232 71.845374 
L 303.911006 66.302019 
L 303.911006 66.302019 
" style="fill:none;stroke:#000000;stroke-linecap:square;stroke-width:1.5;"/>
   </g>
   <g id="line2d_53">
    <path clip-path="url(#pbada257e02)" d="M 57.51099 225.101688 
L 58.007764 224.465742 
L 58.504538 224.12469 
L 59.001312 223.525042 
L 59.498086 223.195959 
L 59.994861 222.615987 
L 60.491635 222.31095 
L 60.988409 221.736281 
L 61.485183 221.6735 
L 61.981958 220.887883 
L 62.478732 220.85585 
L 62.975506 220.064606 
L 66.9497 217.028531 
L 67.446474 216.901671 
L 67.943248 216.323858 
L 68.440023 216.26422 
L 68.936797 215.638578 
L 70.427119 214.759179 
L 70.923894 214.324541 
L 71.420668 214.189349 
L 71.917442 213.693594 
L 72.414216 213.63628 
L 72.910991 213.099015 
L 74.401313 212.32085 
L 74.898087 211.88881 
L 75.394862 211.819408 
L 75.891636 211.316533 
L 77.381959 210.621361 
L 77.878733 210.205821 
L 79.86583 209.142051 
L 80.362604 209.062826 
L 80.859378 208.627738 
L 82.349701 208.023723 
L 82.846475 207.623645 
L 84.336798 207.039049 
L 84.833572 206.657298 
L 86.323895 206.103385 
L 86.820669 205.720301 
L 87.317443 205.563549 
L 88.310992 205.038781 
L 89.30454 204.696899 
L 89.801314 204.371109 
L 91.291637 203.86844 
L 91.788411 203.50086 
L 92.285185 203.388338 
L 92.78196 203.074948 
L 93.775508 202.653911 
L 98.246476 200.877551 
L 99.240025 200.467288 
L 100.730347 199.828936 
L 102.22067 199.28762 
L 103.710993 198.670254 
L 105.201315 198.177614 
L 105.69809 197.911238 
L 106.194864 197.821711 
L 107.188412 197.357416 
L 110.665832 196.045628 
L 111.162606 195.923063 
L 112.156155 195.502867 
L 114.640026 194.577554 
L 115.1368 194.491711 
L 115.633574 194.212246 
L 116.130348 194.101998 
L 116.627123 193.84724 
L 117.620671 193.48172 
L 119.110994 192.979099 
L 120.104542 192.619222 
L 126.065833 190.434279 
L 127.059381 190.041718 
L 128.549704 189.437708 
L 130.040027 188.910938 
L 132.027124 188.122888 
L 144.943254 182.943024 
L 146.433576 182.254791 
L 148.917447 181.165441 
L 160.343255 175.500339 
L 164.814223 172.968767 
L 171.769062 168.449878 
L 175.743256 165.491633 
L 179.717449 162.153146 
L 182.698095 159.356938 
L 185.67874 156.235119 
L 188.659386 152.712787 
L 191.143257 149.403337 
L 193.130354 146.46861 
L 195.614225 142.309632 
L 197.601322 138.520811 
L 199.588419 134.232965 
L 201.575515 129.30711 
L 203.562612 123.580885 
L 205.052935 118.645564 
L 206.543258 113.045496 
L 208.530355 104.48903 
L 211.511 89.213779 
L 213.498097 78.892305 
L 214.491645 74.398374 
L 215.485194 70.632401 
L 216.478742 67.643825 
L 217.472291 65.360623 
L 218.962613 62.935344 
L 219.956162 61.76884 
L 221.446485 60.393055 
L 224.42713 58.112054 
L 226.911001 56.101852 
L 228.898098 54.217838 
L 230.885195 51.997249 
L 232.872292 49.365763 
L 234.362614 47.065492 
L 235.852937 44.428763 
L 237.34326 41.381678 
L 238.833582 37.817048 
L 240.323905 33.569724 
L 241.814228 28.361621 
L 242.807776 24.117219 
L 243.304551 21.672296 
L 243.304551 21.672296 
" style="fill:none;stroke:#000000;stroke-dasharray:5.55,2.4;stroke-dashoffset:0;stroke-width:1.5;"/>
   </g>
   <g id="line2d_54">
    <path clip-path="url(#pbada257e02)" d="M 57.51099 200.467288 
L 59.994861 199.779313 
L 62.478732 199.161 
L 64.962603 198.507446 
L 66.452926 198.177614 
L 67.943248 197.774762 
L 68.936797 197.533658 
L 79.86583 195.00971 
L 81.356152 194.689639 
L 85.82712 193.705087 
L 88.310992 193.20757 
L 90.298089 192.75337 
L 101.723896 190.385945 
L 103.214218 190.119577 
L 104.704541 189.810056 
L 108.678735 188.981306 
L 110.169058 188.692719 
L 115.633574 187.593679 
L 124.078736 185.939425 
L 126.562607 185.427349 
L 128.549704 185.033927 
L 156.865835 179.342513 
L 165.310997 177.566398 
L 182.698095 173.752671 
L 197.104547 170.354456 
L 208.530355 167.430659 
L 226.414227 162.303606 
L 237.840034 158.532016 
L 244.298099 156.164467 
L 251.252938 153.36975 
L 256.22068 151.181496 
L 261.685197 148.538379 
L 266.652939 145.873315 
L 269.633585 144.121702 
L 272.117456 142.569158 
L 276.588424 139.467332 
L 279.569069 137.152103 
L 282.549714 134.577577 
L 285.033586 132.184101 
L 287.517457 129.498632 
L 289.504554 127.087659 
L 291.491651 124.374827 
L 293.478747 121.268755 
L 294.96907 118.596816 
L 296.459393 115.532632 
L 297.949716 111.93239 
L 299.440038 107.559365 
L 299.936812 105.362963 
L 300.433587 104.008321 
L 302.420684 93.201171 
L 302.917458 89.507581 
L 303.414232 84.948181 
L 303.911006 78.964 
L 304.40778 70.213884 
L 304.40778 70.213884 
" style="fill:none;stroke:#ff0000;stroke-linecap:square;stroke-width:1.5;"/>
   </g>
   <g id="line2d_55">
    <path clip-path="url(#pbada257e02)" d="M 57.51099 216.26422 
L 58.504538 215.95342 
L 59.001312 215.78159 
L 59.498086 215.799926 
L 59.994861 215.520729 
L 60.491635 215.496645 
L 60.988409 215.257495 
L 61.485183 215.198179 
L 62.478732 214.904377 
L 63.969054 214.483505 
L 64.465829 214.472105 
L 64.962603 214.225867 
L 65.459377 214.189349 
L 65.956151 213.971713 
L 66.452926 213.910781 
L 67.446474 213.63628 
L 68.936797 213.213239 
L 74.401313 211.94352 
L 74.898087 211.710862 
L 75.394862 211.696109 
L 75.891636 211.461618 
L 76.38841 211.451911 
L 77.381959 211.09146 
L 80.859378 210.208092 
L 81.356152 210.162729 
L 81.852927 209.957698 
L 82.349701 209.937541 
L 82.846475 209.703961 
L 85.330346 209.169966 
L 85.82712 208.941427 
L 87.317443 208.64027 
L 88.310992 208.329469 
L 90.298089 207.82262 
L 91.788411 207.387621 
L 92.285185 207.329075 
L 92.78196 207.123661 
L 93.775508 206.857653 
L 95.265831 206.472082 
L 98.74325 205.498031 
L 100.233573 205.125232 
L 101.723896 204.656288 
L 105.201315 203.70704 
L 106.194864 203.388338 
L 107.685186 202.898625 
L 110.169058 202.164949 
L 112.156155 201.510234 
L 123.581962 197.535972 
L 127.059381 196.190535 
L 135.007769 192.798299 
L 138.485189 191.106231 
L 140.96906 189.848469 
L 146.93035 186.510216 
L 152.394867 182.996366 
L 155.872287 180.498937 
L 161.833577 175.551322 
L 165.310997 172.23552 
L 167.794868 169.632205 
L 170.775513 166.210579 
L 173.756159 162.419482 
L 176.736804 158.21478 
L 179.717449 153.564141 
L 182.698095 148.453105 
L 186.175514 141.944986 
L 190.149708 134.024449 
L 196.110999 122.294345 
L 199.091644 116.983215 
L 202.07229 112.162517 
L 205.052935 107.764461 
L 209.523903 101.546018 
L 210.020677 100.993906 
L 210.517452 100.230968 
L 211.014226 99.672695 
L 212.504548 97.584818 
L 213.001323 97.019254 
L 214.491645 94.91686 
L 215.485194 93.54669 
L 216.478742 92.158484 
L 217.969065 90.086793 
L 220.452936 86.259149 
L 221.943259 83.891335 
L 225.917453 76.682872 
L 227.904549 72.516681 
L 229.394872 69.086294 
L 231.878743 62.499061 
L 233.369066 57.854551 
L 234.859389 52.470382 
L 236.349711 46.026497 
L 237.34326 40.864948 
L 238.336808 34.648408 
L 239.330357 26.740977 
L 239.827131 21.74933 
L 239.827131 21.74933 
" style="fill:none;stroke:#ff0000;stroke-dasharray:5.55,2.4;stroke-dashoffset:0;stroke-width:1.5;"/>
   </g>
   <g id="line2d_56">
    <path clip-path="url(#pbada257e02)" d="M 57.51099 181.286987 
L 60.988409 182.889833 
L 66.452926 184.847332 
L 70.923894 186.064778 
L 74.401313 186.834974 
L 78.872281 187.63807 
L 86.323895 188.584552 
L 97.252928 189.28036 
L 101.227122 189.355123 
L 102.717444 189.392617 
L 113.149703 189.317704 
L 115.1368 189.243089 
L 117.620671 189.168769 
L 120.601316 189.021004 
L 123.085188 188.910938 
L 145.936802 187.13213 
L 150.40777 186.639447 
L 152.891641 186.381868 
L 175.743256 183.346825 
L 195.11745 180.059757 
L 198.098096 179.474929 
L 203.065838 178.482798 
L 214.98842 175.859425 
L 219.956162 174.656191 
L 225.917453 173.126115 
L 238.833582 169.345728 
L 249.265841 165.724687 
L 255.723906 163.139432 
L 261.188423 160.694952 
L 267.149713 157.665235 
L 270.627133 155.683449 
L 274.601327 153.177349 
L 278.078746 150.715163 
L 281.059392 148.368215 
L 285.033586 144.74343 
L 287.517457 142.114275 
L 289.504554 139.754405 
L 291.491651 137.091561 
L 293.478747 134.034326 
L 294.96907 131.391615 
L 296.459393 128.366016 
L 297.949716 124.798028 
L 299.440038 120.455818 
L 300.433587 116.927446 
L 301.427135 112.6257 
L 301.923909 105.072762 
L 302.420684 101.101942 
L 302.917458 96.087654 
L 303.414232 89.2868 
L 303.911006 78.620671 
L 303.911006 78.620671 
" style="fill:none;stroke:#008000;stroke-linecap:square;stroke-width:1.5;"/>
   </g>
   <g id="line2d_57">
    <path clip-path="url(#pbada257e02)" d="M 57.51099 214.904377 
L 59.498086 214.904377 
L 59.994861 214.759179 
L 61.981958 214.759179 
L 62.478732 214.615094 
L 63.47228 214.615094 
L 63.969054 214.472105 
L 65.459377 214.472105 
L 65.956151 214.330195 
L 66.9497 214.330195 
L 67.446474 214.189349 
L 68.440023 214.189349 
L 68.936797 214.049549 
L 69.433571 214.049549 
L 69.930345 213.910781 
L 70.923894 213.910781 
L 71.420668 213.773029 
L 71.917442 213.773029 
L 72.414216 213.63628 
L 72.910991 213.63628 
L 73.407765 213.500518 
L 73.904539 213.500518 
L 74.401313 213.365729 
L 74.898087 213.365729 
L 75.394862 213.231899 
L 75.891636 213.231899 
L 76.38841 213.099015 
L 76.885184 213.099015 
L 77.381959 212.967064 
L 77.878733 212.967064 
L 78.375507 212.836032 
L 78.872281 212.836032 
L 79.86583 212.576677 
L 80.362604 212.576677 
L 80.859378 212.448329 
L 81.356152 212.448329 
L 82.349701 212.19423 
L 82.846475 212.19423 
L 84.336798 211.819408 
L 84.833572 211.819408 
L 86.323895 211.451911 
L 86.820669 211.451911 
L 89.30454 210.854941 
L 89.801314 210.854941 
L 100.233573 208.329469 
L 101.227122 208.023723 
L 102.717444 207.623645 
L 104.207767 207.135228 
L 105.201315 206.848154 
L 107.188412 206.194884 
L 108.181961 205.921712 
L 118.117445 202.239123 
L 125.072284 199.035227 
L 131.033575 195.923063 
L 134.510995 193.814924 
L 136.498092 192.574718 
L 138.981963 190.916433 
L 145.440028 186.064778 
L 148.917447 183.130386 
L 153.88519 178.482798 
L 157.859383 174.367039 
L 161.336803 170.505045 
L 165.310997 165.810155 
L 171.769062 157.693029 
L 186.672289 138.591178 
L 203.562612 117.222501 
L 207.536806 111.661107 
L 210.020677 107.954039 
L 210.517452 106.903878 
L 211.014226 106.406367 
L 212.007774 104.604336 
L 214.491645 100.561201 
L 217.472291 95.265535 
L 219.956162 90.409812 
L 220.452936 89.374802 
L 220.94971 88.031718 
L 221.446485 87.250187 
L 223.433581 82.680016 
L 225.420678 77.618901 
L 225.917453 75.538629 
L 226.414227 74.861426 
L 228.401324 68.776518 
L 229.891646 63.580437 
L 231.381969 57.656227 
L 232.872292 50.717642 
L 233.86584 45.294022 
L 234.859389 38.941376 
L 235.852937 31.184634 
L 236.846486 21.004842 
L 236.846486 21.004842 
" style="fill:none;stroke:#008000;stroke-dasharray:5.55,2.4;stroke-dashoffset:0;stroke-width:1.5;"/>
   </g>
   <g id="patch_3">
    <path d="M 45.16615 235.30653 
L 45.16615 10.8 
" style="fill:none;stroke:#000000;stroke-linecap:square;stroke-linejoin:miter;stroke-width:0.8;"/>
   </g>
   <g id="patch_4">
    <path d="M 316.75262 235.30653 
L 316.75262 10.8 
" style="fill:none;stroke:#000000;stroke-linecap:square;stroke-linejoin:miter;stroke-width:0.8;"/>
   </g>
   <g id="patch_5">
    <path d="M 45.16615 235.30653 
L 316.75262 235.30653 
" style="fill:none;stroke:#000000;stroke-linecap:square;stroke-linejoin:miter;stroke-width:0.8;"/>
   </g>
   <g id="patch_6">
    <path d="M 45.16615 10.8 
L 316.75262 10.8 
" style="fill:none;stroke:#000000;stroke-linecap:square;stroke-linejoin:miter;stroke-width:0.8;"/>
   </g>
   <g id="text_14">
    <!-- $r_0$ for fixed A$=1$ -->
    <g transform="translate(137.390879 4.8)scale(0.12 -0.12)">
     <defs>
      <path d="M 15.296875 40.390625 
L 26.703125 40.390625 
L 26.703125 43 
L 15.09375 43 
L 15.09375 55.296875 
C 15.09375 63.6875 19.296875 68.390625 23.59375 68.390625 
C 24.90625 68.390625 26.40625 68.171875 27.40625 67.796875 
C 26.59375 67.59375 24.5 66.890625 24.5 64.390625 
C 24.5 61.796875 26.5 61 27.90625 61 
C 29.296875 61 31.296875 61.796875 31.296875 64.390625 
C 31.296875 68.015625 27.703125 70 23.703125 70 
C 18 70 10.203125 65.796875 10.203125 55.09375 
L 10.203125 43 
L 2.203125 43 
L 2.203125 40.390625 
L 10.203125 40.390625 
L 10.203125 6.890625 
C 10.203125 3.09375 9.796875 2.59375 3.40625 2.59375 
L 3.40625 0 
C 5.796875 0.1875 10.40625 0.1875 13 0.1875 
C 15.90625 0.1875 21 0.1875 23.703125 0 
L 23.703125 2.59375 
C 16.5 2.59375 15.296875 2.59375 15.296875 7.09375 
z
" id="CMR17-102"/>
      <path d="M 43.09375 21.1875 
C 43.09375 34 33.796875 44 22.90625 44 
C 12 44 2.703125 34 2.703125 21.1875 
C 2.703125 8.59375 12 -1 22.90625 -1 
C 33.796875 -1 43.09375 8.59375 43.09375 21.1875 
z
M 22.90625 0.796875 
C 18.203125 0.796875 14.203125 3.59375 11.90625 7.5 
C 9.40625 12 9.09375 17.59375 9.09375 22 
C 9.09375 26.1875 9.296875 31.390625 11.90625 35.890625 
C 13.90625 39.1875 17.796875 42.390625 22.90625 42.390625 
C 27.40625 42.390625 31.203125 39.890625 33.59375 36.390625 
C 36.703125 31.6875 36.703125 25.09375 36.703125 22 
C 36.703125 18.09375 36.5 12.09375 33.796875 7.296875 
C 31 2.6875 26.703125 0.796875 22.90625 0.796875 
z
" id="CMR17-111"/>
      <path d="M 15 23.703125 
C 15 33.34375 19.09375 42.390625 26.59375 42.390625 
C 27.296875 42.390625 28 42.296875 28.703125 41.984375 
C 28.703125 41.984375 26.5 41.28125 26.5 38.671875 
C 26.5 36.265625 28.40625 35.265625 29.90625 35.265625 
C 31.09375 35.265625 33.296875 35.96875 33.296875 38.78125 
C 33.296875 41.984375 30.09375 44 26.703125 44 
C 19.09375 44 15.796875 36.5625 14.796875 33.046875 
L 14.703125 33.046875 
L 14.703125 44 
L 3.09375 42.890625 
L 3.09375 40.28125 
C 9 40.28125 9.90625 39.6875 9.90625 34.859375 
L 9.90625 6.921875 
C 9.90625 3.09375 9.5 2.59375 3.09375 2.59375 
L 3.09375 0 
C 5.5 0.1875 10.09375 0.1875 12.703125 0.1875 
C 15.59375 0.1875 20.703125 0.1875 23.40625 0 
L 23.40625 2.59375 
C 16.203125 2.59375 15 2.59375 15 7.109375 
z
" id="CMR17-114"/>
      <path d="M 39.90625 44 
C 37.5 43.890625 30.09375 43.390625 28.203125 43.1875 
C 27.59375 43.09375 27.40625 43.09375 26.203125 43.09375 
L 14.796875 43.09375 
L 14.796875 54.953125 
C 14.796875 64.484375 22.40625 69 28.40625 69 
C 30.296875 69 34.59375 68.484375 36.796875 65 
C 35.796875 65 32.59375 65 32.59375 61.484375 
C 32.59375 59.09375 34.203125 57.890625 36.203125 57.890625 
C 38 57.890625 39.796875 58.890625 39.796875 61.59375 
C 39.796875 66.640625 35 70.59375 28.796875 70.59375 
C 20.90625 70.59375 9.90625 66.015625 9.90625 54.953125 
L 9.90625 43.09375 
L 1.90625 43.09375 
L 1.90625 40.484375 
L 9.90625 40.484375 
L 9.90625 6.90625 
C 9.90625 3.09375 9.5 2.59375 3.09375 2.59375 
L 3.09375 0 
C 5.5 0.1875 9.90625 0.1875 12.40625 0.1875 
C 15 0.1875 19.40625 0.1875 21.796875 0 
L 21.796875 2.59375 
C 15.40625 2.59375 15 3 15 6.90625 
L 15 40.484375 
L 29.703125 40.484375 
C 34 40.484375 34.796875 39.59375 34.796875 35.171875 
L 34.796875 6.90625 
C 34.796875 3.09375 34.40625 2.59375 28 2.59375 
L 28 0 
C 30.40625 0.1875 34.796875 0.1875 37.296875 0.1875 
C 39.90625 0.1875 44.296875 0.1875 46.703125 0 
L 46.703125 2.59375 
C 40.296875 2.59375 39.90625 3 39.90625 6.90625 
z
" id="CMR17-12"/>
      <path d="M 26 23.296875 
C 29 27.1875 32.40625 31.59375 35.203125 34.890625 
C 38.5 38.6875 42.296875 40.296875 46.703125 40.390625 
L 46.703125 43 
C 45 42.890625 41.5 42.796875 39.703125 42.796875 
C 37 42.796875 33.90625 42.796875 31.59375 43 
L 31.59375 40.390625 
C 33 40.1875 33.796875 39.1875 33.796875 37.796875 
C 33.796875 36 32.796875 34.890625 32.296875 34.1875 
L 24.90625 24.796875 
L 16.09375 36.296875 
C 15.203125 37.390625 15.203125 37.59375 15.203125 38.09375 
C 15.203125 39.296875 16.203125 40.296875 17.90625 40.390625 
L 17.90625 43 
C 15.5 42.796875 11.203125 42.796875 8.703125 42.796875 
C 6 42.796875 2.796875 42.796875 0.59375 43 
L 0.59375 40.390625 
C 6 40.390625 7.203125 40 9.59375 37 
L 21.09375 22.09375 
C 21.296875 21.890625 21.796875 21.296875 21.796875 21 
C 21.796875 20.59375 13.09375 9.890625 12 8.5 
C 7.5 3.09375 2.796875 2.6875 0.09375 2.59375 
L 0.09375 0 
C 1.796875 0.09375 5.296875 0.1875 7.09375 0.1875 
C 9.09375 0.1875 13.5 0.1875 15.296875 0 
L 15.296875 2.59375 
C 14.703125 2.6875 13.09375 2.890625 13.09375 5.1875 
C 13.09375 7 13.90625 8.09375 14.796875 9.296875 
L 23.09375 19.5 
L 31.796875 8.1875 
C 32.59375 7.09375 33.796875 5.59375 33.796875 4.890625 
C 33.796875 3.5 32.59375 2.6875 31 2.59375 
L 31 0 
C 33.40625 0.1875 37.703125 0.1875 40.203125 0.1875 
C 42.90625 0.1875 46.09375 0.1875 48.296875 0 
L 48.296875 2.59375 
C 43.296875 2.59375 41.796875 2.796875 39.40625 5.890625 
z
" id="CMR17-120"/>
      <path d="M 38.09375 23.484375 
C 38.5 23.890625 38.5 24.09375 38.5 25.09375 
C 38.5 35.171875 33.09375 44 21.703125 44 
C 11.09375 44 2.703125 33.984375 2.703125 21.78125 
C 2.703125 8.65625 12.203125 -1 22.796875 -1 
C 34 -1 38.40625 9.671875 38.40625 11.796875 
C 38.40625 12.5 37.796875 12.5 37.59375 12.5 
C 36.90625 12.5 36.796875 12.296875 36.40625 11.078125 
C 34.203125 4.21875 28.703125 0.796875 23.5 0.796875 
C 19.203125 0.796875 14.90625 3.21875 12.203125 7.65625 
C 9.09375 12.796875 9.09375 18.75 9.09375 23.484375 
z
M 9.203125 25 
C 9.90625 39.234375 17.59375 42.390625 21.59375 42.390625 
C 28.40625 42.390625 33 36.0625 33.09375 25 
z
" id="CMR17-101"/>
      <path d="M 29.203125 67.890625 
L 29.203125 65.296875 
C 35.09375 65.296875 36 64.703125 36 60.046875 
L 36 37.046875 
C 35.59375 37.546875 31.5 44 23.40625 44 
C 13.203125 44 3.296875 34.8125 3.296875 21.5 
C 3.296875 8.265625 12.59375 -1 22.40625 -1 
C 30.90625 -1 35.296875 5.640625 35.796875 6.34375 
L 35.796875 -1 
L 47.90625 -0.203125 
L 47.90625 2.40625 
C 42 2.40625 41.09375 3.015625 41.09375 7.859375 
L 41.09375 69 
z
M 35.796875 11.90625 
C 35.796875 8.875 34 6.140625 31.703125 4.125 
C 28.296875 1.09375 24.90625 0.59375 23 0.59375 
C 20.09375 0.59375 9.703125 2.109375 9.703125 21.390625 
C 9.703125 41.1875 21.296875 42.390625 23.90625 42.390625 
C 28.5 42.390625 32.203125 39.765625 34.5 36.140625 
C 35.796875 34.015625 35.796875 33.703125 35.796875 31.890625 
z
" id="CMR17-100"/>
      <path d="M 36.296875 69.390625 
C 35.796875 70.6875 35.59375 71 34.59375 71 
C 33.59375 71 33.40625 70.6875 32.90625 69.390625 
L 11.703125 9.0625 
C 9.796875 3.6875 5.796875 2.59375 2.296875 2.59375 
L 2.296875 0 
C 4.09375 0.1875 8.09375 0.1875 10 0.1875 
C 12.5 0.1875 16.5 0.1875 18.90625 0 
L 18.90625 2.59375 
C 14.203125 2.796875 13.5 5.96875 13.5 7.171875 
C 13.5 8.0625 13.703125 8.5625 13.90625 9.15625 
L 19.203125 24 
L 45.40625 24 
L 51.40625 7.078125 
C 51.90625 5.875 51.90625 5.671875 51.90625 5.28125 
C 51.90625 2.59375 47.59375 2.59375 45.703125 2.59375 
L 45.703125 0 
C 48.59375 0.1875 53.796875 0.1875 56.90625 0.1875 
C 59.5 0.1875 64.5 0.1875 66.90625 0 
L 66.90625 2.59375 
C 61.59375 2.59375 59.796875 2.59375 58.5 6.28125 
z
M 32.296875 61.3125 
L 44.5 26.59375 
L 20.09375 26.59375 
z
" id="CMR17-65"/>
     </defs>
     <use transform="scale(0.996264)" xlink:href="#CMMI12-114"/>
     <use transform="translate(43.960894 -14.943915)scale(0.697382)" xlink:href="#CMR17-48"/>
     <use transform="translate(106.518175 0)scale(0.996264)" xlink:href="#CMR17-102"/>
     <use transform="translate(133.991687 0)scale(0.996264)" xlink:href="#CMR17-111"/>
     <use transform="translate(179.682164 0)scale(0.996264)" xlink:href="#CMR17-114"/>
     <use transform="translate(245.038898 0)scale(0.996264)" xlink:href="#CMR17-12"/>
     <use transform="translate(294.781122 0)scale(0.996264)" xlink:href="#CMR17-120"/>
     <use transform="translate(343.074038 0)scale(0.996264)" xlink:href="#CMR17-101"/>
     <use transform="translate(383.559698 0)scale(0.996264)" xlink:href="#CMR17-100"/>
     <use transform="translate(464.531034 0)scale(0.996264)" xlink:href="#CMR17-65"/>
     <use transform="translate(533.603464 0)scale(0.996264)" xlink:href="#CMR17-61"/>
     <use transform="translate(632.992261 0)scale(0.996264)" xlink:href="#CMR17-49"/>
    </g>
   </g>
   <g id="legend_1">
    <g id="patch_7">
     <path d="M 323.75262 168.516385 
L 485.671932 168.516385 
Q 487.671932 168.516385 487.671932 166.516385 
L 487.671932 79.590145 
Q 487.671932 77.590145 485.671932 77.590145 
L 323.75262 77.590145 
Q 321.75262 77.590145 321.75262 79.590145 
L 321.75262 166.516385 
Q 321.75262 168.516385 323.75262 168.516385 
z
" style="fill:#ffffff;opacity:0.8;stroke:#cccccc;stroke-linejoin:miter;"/>
    </g>
    <g id="line2d_58">
     <path d="M 325.75262 85.688582 
L 345.75262 85.688582 
" style="fill:none;stroke:#000000;stroke-linecap:square;stroke-width:1.5;"/>
    </g>
    <g id="line2d_59"/>
    <g id="text_15">
     <!-- LE for $p_0$=0.1 -->
     <g transform="translate(353.75262 89.188582)scale(0.1 -0.1)">
      <defs>
       <path d="M 54.203125 25.1875 
L 52.40625 25.1875 
C 51.59375 15.328125 50.296875 2.59375 33.203125 2.59375 
L 23.90625 2.59375 
C 19.90625 2.59375 19.703125 3.09375 19.703125 6.46875 
L 19.703125 60.8125 
C 19.703125 64.390625 19.90625 65.390625 27.5 65.390625 
L 29.703125 65.390625 
L 29.703125 68 
C 25.59375 67.796875 20.796875 67.796875 16.703125 67.796875 
C 13.59375 67.796875 8 67.796875 5.09375 68 
L 5.09375 65.390625 
C 12 65.390625 13.09375 65.390625 13.09375 60.90625 
L 13.09375 7.078125 
C 13.09375 2.59375 12 2.59375 5.09375 2.59375 
L 5.09375 0 
L 51.796875 0 
z
" id="CMR17-76"/>
       <path d="M 60.703125 25.21875 
L 58.90625 25.21875 
C 56.703125 10.5625 55.40625 2.59375 37.796875 2.59375 
L 23.90625 2.59375 
C 19.90625 2.59375 19.703125 3.09375 19.703125 6.484375 
L 19.703125 34 
L 29.09375 34 
C 38.5 34 39.40625 30.609375 39.40625 22.328125 
L 41.203125 22.328125 
L 41.203125 48.21875 
L 39.40625 48.21875 
C 39.40625 39.96875 38.5 36.59375 29.09375 36.59375 
L 19.703125 36.59375 
L 19.703125 61.3125 
C 19.703125 64.703125 19.90625 65.1875 23.90625 65.1875 
L 37.59375 65.1875 
C 53.09375 65.1875 54.90625 59.03125 56.296875 45.828125 
L 58.09375 45.828125 
L 55.703125 67.796875 
L 5.09375 67.796875 
L 5.09375 65.1875 
C 12 65.1875 13.09375 65.1875 13.09375 60.71875 
L 13.09375 7.078125 
C 13.09375 2.59375 12 2.59375 5.09375 2.59375 
L 5.09375 0 
L 57.09375 0 
z
" id="CMR17-69"/>
       <path d="M 4.296875 -12.40625 
C 3.59375 -15.328125 3.203125 -16.109375 -0.90625 -16.109375 
C -2.109375 -16.109375 -3.109375 -16.109375 -3.109375 -18 
C -3.109375 -18.203125 -3 -19 -1.90625 -19 
C -0.609375 -19 0.796875 -18.8125 2.09375 -18.8125 
L 6.40625 -18.8125 
C 8.5 -18.8125 13.59375 -19 15.703125 -19 
C 16.296875 -19 17.5 -19 17.5 -17.203125 
C 17.5 -16.109375 16.796875 -16.109375 15.09375 -16.109375 
C 10.5 -16.109375 10.203125 -15.421875 10.203125 -14.640625 
C 10.203125 -13.484375 14.703125 3.390625 15.296875 5.6875 
C 16.40625 2.890625 19.09375 -1 24.296875 -1 
C 35.59375 -1 47.796875 13.65625 47.796875 28.328125 
C 47.796875 37.5 42.59375 44 35.09375 44 
C 28.703125 44 23.296875 37.796875 22.203125 36.40625 
C 21.40625 41.390625 17.5 44 13.5 44 
C 10.59375 44 8.296875 42.59375 6.40625 38.796875 
C 4.59375 35.203125 3.203125 29.125 3.203125 28.71875 
C 3.203125 28.328125 3.59375 27.828125 4.296875 27.828125 
C 5.09375 27.828125 5.203125 27.921875 5.796875 30.21875 
C 7.296875 36.109375 9.203125 41.984375 13.203125 41.984375 
C 15.5 41.984375 16.296875 40.390625 16.296875 37.40625 
C 16.296875 35.015625 16 34.015625 15.59375 32.21875 
z
M 21.59375 31.125 
C 22.296875 33.90625 25.09375 36.8125 26.703125 38.203125 
C 27.796875 39.203125 31.09375 41.984375 34.90625 41.984375 
C 39.296875 41.984375 41.296875 37.609375 41.296875 32.421875 
C 41.296875 27.625 38.5 16.359375 36 11.171875 
C 33.5 5.78125 28.90625 1 24.296875 1 
C 17.5 1 16.40625 9.578125 16.40625 9.96875 
C 16.40625 10.265625 16.59375 11.0625 16.703125 11.5625 
z
" id="CMMI12-112"/>
       <path d="M 16.59375 4.09375 
C 16.59375 6.59375 14.59375 8.1875 12.5 8.1875 
C 10.5 8.1875 8.40625 6.59375 8.40625 4.09375 
C 8.40625 1.59375 10.40625 0 12.5 0 
C 14.5 0 16.59375 1.59375 16.59375 4.09375 
z
" id="CMR17-46"/>
      </defs>
      <use transform="scale(0.996264)" xlink:href="#CMR17-76"/>
      <use transform="translate(57.381408 0)scale(0.996264)" xlink:href="#CMR17-69"/>
      <use transform="translate(150.043675 0)scale(0.996264)" xlink:href="#CMR17-102"/>
      <use transform="translate(177.517187 0)scale(0.996264)" xlink:href="#CMR17-111"/>
      <use transform="translate(223.207664 0)scale(0.996264)" xlink:href="#CMR17-114"/>
      <use transform="translate(288.564398 0)scale(0.996264)" xlink:href="#CMMI12-112"/>
      <use transform="translate(337.523912 -14.943915)scale(0.697382)" xlink:href="#CMR17-48"/>
      <use transform="translate(370.005226 0)scale(0.996264)" xlink:href="#CMR17-61"/>
      <use transform="translate(441.720015 0)scale(0.996264)" xlink:href="#CMR17-48"/>
      <use transform="translate(487.410492 0)scale(0.996264)" xlink:href="#CMR17-46"/>
      <use transform="translate(512.28155 0)scale(0.996264)" xlink:href="#CMR17-49"/>
     </g>
    </g>
    <g id="line2d_60">
     <path d="M 325.75262 100.366707 
L 345.75262 100.366707 
" style="fill:none;stroke:#000000;stroke-dasharray:5.55,2.4;stroke-dashoffset:0;stroke-width:1.5;"/>
    </g>
    <g id="line2d_61"/>
    <g id="text_16">
     <!-- TOV with term=0 for $p_0$=0.1 -->
     <g transform="translate(353.75262 103.866707)scale(0.1 -0.1)">
      <defs>
       <path d="M 62.203125 67.6875 
L 4.5 67.6875 
L 2.796875 45.6875 
L 4.59375 45.6875 
C 5.90625 62.203125 7.296875 65.09375 22.703125 65.09375 
C 24.5 65.09375 27.40625 65.09375 28.203125 64.984375 
C 30.09375 64.6875 30.09375 63.5 30.09375 61.203125 
L 30.09375 7.265625 
C 30.09375 3.6875 29.796875 2.59375 21.5 2.59375 
L 18.703125 2.59375 
L 18.703125 0 
C 23.5 0.09375 28.5 0.1875 33.40625 0.1875 
C 38.296875 0.1875 43.296875 0.09375 48.09375 0 
L 48.09375 2.59375 
L 45.296875 2.59375 
C 37 2.59375 36.703125 3.6875 36.703125 7.265625 
L 36.703125 61.203125 
C 36.703125 63.390625 36.703125 64.59375 38.5 64.984375 
C 39.296875 65.09375 42.203125 65.09375 44 65.09375 
C 59.296875 65.09375 60.796875 62.203125 62.09375 45.6875 
L 63.90625 45.6875 
z
" id="CMR17-84"/>
       <path d="M 67.296875 33.84375 
C 67.296875 54.5 52.59375 70 36 70 
C 19 70 4.59375 54.296875 4.59375 33.84375 
C 4.59375 13.390625 19.203125 -2 35.90625 -2 
C 53 -2 67.296875 13.6875 67.296875 33.84375 
z
M 36 -0.203125 
C 24.59375 -0.203125 12.203125 11.28125 12.203125 35.15625 
C 12.203125 58.921875 25.796875 68.1875 35.90625 68.1875 
C 46.5 68.1875 59.703125 58.625 59.703125 35.15625 
C 59.703125 10.875 47 -0.203125 36 -0.203125 
z
" id="CMR17-79"/>
       <path d="M 59 58.78125 
C 59.90625 60.984375 61.5 65.296875 68.203125 65.390625 
L 68.203125 68 
C 65.90625 67.796875 63.296875 67.796875 60.796875 67.796875 
C 58.40625 67.796875 54.296875 67.796875 52 68 
L 52 65.390625 
C 57 65.09375 57.203125 61.59375 57.203125 60.984375 
C 57.203125 59.890625 56.90625 59.1875 56.59375 58.390625 
L 36.90625 7 
L 16.296875 60.984375 
C 16 61.6875 15.796875 62.1875 15.796875 62.6875 
C 15.796875 65.390625 19.796875 65.390625 21.90625 65.390625 
L 21.90625 68 
C 18.703125 67.796875 14 67.796875 10.703125 67.796875 
C 8.09375 67.796875 3.40625 67.796875 1 68 
L 1 65.390625 
C 6.796875 65.390625 7.90625 65 9.09375 61.796875 
L 32.90625 -0.40625 
C 33.40625 -1.8125 33.5 -2 34.59375 -2 
C 35.703125 -2 35.796875 -1.8125 36.296875 -0.40625 
z
" id="CMR17-86"/>
       <path d="M 58.203125 34.15625 
C 60.203125 40.09375 64.203125 40.296875 65.703125 40.390625 
L 65.703125 43 
C 63.703125 42.890625 61.703125 42.796875 59.703125 42.796875 
C 57.796875 42.796875 53.5 42.796875 51.796875 43 
L 51.796875 40.390625 
C 54.90625 40.1875 56.59375 38.375 56.59375 35.875 
C 56.59375 35.171875 56.40625 34.265625 56.203125 33.5625 
L 46.796875 6.21875 
L 36.59375 35.875 
C 36.40625 36.578125 36.09375 37.375 36.09375 37.78125 
C 36.09375 40.390625 39.5 40.390625 41.09375 40.390625 
L 41.09375 43 
C 38.796875 42.796875 34.59375 42.796875 32.203125 42.796875 
C 29.703125 42.796875 27.09375 42.796875 24.796875 43 
L 24.796875 40.390625 
C 30.296875 40.390625 30.296875 40.1875 32.40625 33.859375 
L 23.203125 6.921875 
L 13.296875 35.96875 
C 12.796875 37.28125 12.796875 37.484375 12.796875 37.78125 
C 12.796875 40.390625 16.203125 40.390625 17.796875 40.390625 
L 17.796875 43 
C 15.40625 42.796875 11.203125 42.796875 8.703125 42.796875 
C 6.5 42.796875 3.09375 42.796875 1 43 
L 1 40.390625 
C 5.40625 40.390625 6.5 40.09375 7.59375 36.765625 
L 19.90625 0.59375 
C 20.296875 -0.703125 20.59375 -1 21.40625 -1 
C 22.09375 -1 22.5 -0.8125 23 0.6875 
L 33.296875 31.046875 
L 43.703125 0.6875 
C 44.203125 -0.8125 44.59375 -1 45.296875 -1 
C 46.09375 -1 46.40625 -0.703125 46.796875 0.59375 
z
" id="CMR17-119"/>
       <path d="M 15.5 61.890625 
C 15.5 64.09375 13.703125 66 11.40625 66 
C 9.203125 66 7.296875 64.1875 7.296875 61.890625 
C 7.296875 59.6875 9.09375 57.796875 11.40625 57.796875 
C 13.59375 57.796875 15.5 59.59375 15.5 61.890625 
z
M 3.796875 42.890625 
L 3.796875 40.296875 
C 9.40625 40.296875 10.203125 39.6875 10.203125 34.859375 
L 10.203125 6.921875 
C 10.203125 3.09375 9.796875 2.59375 3.40625 2.59375 
L 3.40625 0 
C 5.796875 0.1875 10.09375 0.1875 12.59375 0.1875 
C 15 0.1875 19.09375 0.1875 21.40625 0 
L 21.40625 2.59375 
C 15.5 2.59375 15.296875 3.203125 15.296875 6.8125 
L 15.296875 44 
z
" id="CMR17-105"/>
       <path d="M 15.09375 40.390625 
L 29.09375 40.390625 
L 29.09375 43 
L 15.09375 43 
L 15.09375 62 
L 13.296875 62 
C 13.09375 51.4375 9.59375 42.1875 1.09375 41.984375 
L 1.09375 40.390625 
L 9.796875 40.390625 
L 9.796875 12.15625 
C 9.796875 10.234375 9.796875 -1 21.40625 -1 
C 27.296875 -1 30.703125 4.8125 30.703125 12.25 
L 30.703125 17.984375 
L 28.90625 17.984375 
L 28.90625 12.34375 
C 28.90625 5.421875 26.203125 0.796875 22 0.796875 
C 19.09375 0.796875 15.09375 2.796875 15.09375 11.953125 
z
" id="CMR17-116"/>
       <path d="M 41.5 30.53125 
C 41.5 35.65625 40.5 44 28.703125 44 
C 20.5 44 16.5 37.375 15.296875 34.046875 
L 15.203125 34.046875 
L 15.203125 69 
L 3.296875 67.890625 
L 3.296875 65.296875 
C 9.203125 65.296875 10.09375 64.703125 10.09375 60.046875 
L 10.09375 6.921875 
C 10.09375 3.09375 9.703125 2.59375 3.296875 2.59375 
L 3.296875 0 
C 5.703125 0.1875 10.09375 0.1875 12.703125 0.1875 
C 15.296875 0.1875 19.796875 0.1875 22.203125 0 
L 22.203125 2.59375 
C 15.796875 2.59375 15.40625 3 15.40625 6.921875 
L 15.40625 26.21875 
C 15.40625 35.453125 21 42.390625 28 42.390625 
C 35.40625 42.390625 36.203125 35.765625 36.203125 30.9375 
L 36.203125 6.921875 
C 36.203125 3.09375 35.796875 2.59375 29.40625 2.59375 
L 29.40625 0 
C 31.796875 0.1875 36.203125 0.1875 38.796875 0.1875 
C 41.40625 0.1875 45.90625 0.1875 48.296875 0 
L 48.296875 2.59375 
C 41.90625 2.59375 41.5 3 41.5 6.921875 
z
" id="CMR17-104"/>
       <path d="M 67.59375 30.53125 
C 67.59375 35.5625 66.703125 44 54.796875 44 
C 48 44 43.296875 39.375 41.5 33.953125 
L 41.40625 33.953125 
C 40.203125 42.1875 34.296875 44 28.703125 44 
C 20.796875 44 16.703125 37.875 15.203125 33.84375 
L 15.09375 33.84375 
L 15.09375 44 
L 3.296875 42.890625 
L 3.296875 40.28125 
C 9.203125 40.28125 10.09375 39.6875 10.09375 34.859375 
L 10.09375 6.921875 
C 10.09375 3.09375 9.703125 2.59375 3.296875 2.59375 
L 3.296875 0 
C 5.703125 0.1875 10.09375 0.1875 12.703125 0.1875 
C 15.296875 0.1875 19.796875 0.1875 22.203125 0 
L 22.203125 2.59375 
C 15.796875 2.59375 15.40625 3 15.40625 6.921875 
L 15.40625 26.21875 
C 15.40625 35.453125 21 42.390625 28 42.390625 
C 35.40625 42.390625 36.203125 35.765625 36.203125 30.9375 
L 36.203125 6.921875 
C 36.203125 3.09375 35.796875 2.59375 29.40625 2.59375 
L 29.40625 0 
C 31.796875 0.1875 36.203125 0.1875 38.796875 0.1875 
C 41.40625 0.1875 45.90625 0.1875 48.296875 0 
L 48.296875 2.59375 
C 41.90625 2.59375 41.5 3 41.5 6.921875 
L 41.5 26.21875 
C 41.5 35.453125 47.09375 42.390625 54.09375 42.390625 
C 61.5 42.390625 62.296875 35.765625 62.296875 30.9375 
L 62.296875 6.921875 
C 62.296875 3.09375 61.90625 2.59375 55.5 2.59375 
L 55.5 0 
C 57.90625 0.1875 62.296875 0.1875 64.90625 0.1875 
C 67.5 0.1875 72 0.1875 74.40625 0 
L 74.40625 2.59375 
C 68 2.59375 67.59375 3 67.59375 6.921875 
z
" id="CMR17-109"/>
      </defs>
      <use transform="scale(0.996264)" xlink:href="#CMR17-84"/>
      <use transform="translate(66.509881 0)scale(0.996264)" xlink:href="#CMR17-79"/>
      <use transform="translate(135.622215 0)scale(0.996264)" xlink:href="#CMR17-86"/>
      <use transform="translate(234.770611 0)scale(0.996264)" xlink:href="#CMR17-119"/>
      <use transform="translate(301.280492 0)scale(0.996264)" xlink:href="#CMR17-105"/>
      <use transform="translate(326.15155 0)scale(0.996264)" xlink:href="#CMR17-116"/>
      <use transform="translate(361.432318 0)scale(0.996264)" xlink:href="#CMR17-104"/>
      <use transform="translate(442.403654 0)scale(0.996264)" xlink:href="#CMR17-116"/>
      <use transform="translate(477.684422 0)scale(0.996264)" xlink:href="#CMR17-101"/>
      <use transform="translate(518.170082 0)scale(0.996264)" xlink:href="#CMR17-114"/>
      <use transform="translate(553.45085 0)scale(0.996264)" xlink:href="#CMR17-109"/>
      <use transform="translate(630.37044 0)scale(0.996264)" xlink:href="#CMR17-61"/>
      <use transform="translate(702.085228 0)scale(0.996264)" xlink:href="#CMR17-48"/>
      <use transform="translate(777.851672 0)scale(0.996264)" xlink:href="#CMR17-102"/>
      <use transform="translate(805.325184 0)scale(0.996264)" xlink:href="#CMR17-111"/>
      <use transform="translate(851.015661 0)scale(0.996264)" xlink:href="#CMR17-114"/>
      <use transform="translate(916.372396 0)scale(0.996264)" xlink:href="#CMMI12-112"/>
      <use transform="translate(965.33191 -14.943915)scale(0.697382)" xlink:href="#CMR17-48"/>
      <use transform="translate(997.813224 0)scale(0.996264)" xlink:href="#CMR17-61"/>
      <use transform="translate(1069.528012 0)scale(0.996264)" xlink:href="#CMR17-48"/>
      <use transform="translate(1115.218489 0)scale(0.996264)" xlink:href="#CMR17-46"/>
      <use transform="translate(1140.089548 0)scale(0.996264)" xlink:href="#CMR17-49"/>
     </g>
    </g>
    <g id="line2d_62">
     <path d="M 325.75262 115.044832 
L 345.75262 115.044832 
" style="fill:none;stroke:#ff0000;stroke-linecap:square;stroke-width:1.5;"/>
    </g>
    <g id="line2d_63"/>
    <g id="text_17">
     <!-- LE for $p_0$=1 -->
     <g transform="translate(353.75262 118.544832)scale(0.1 -0.1)">
      <use transform="scale(0.996264)" xlink:href="#CMR17-76"/>
      <use transform="translate(57.381408 0)scale(0.996264)" xlink:href="#CMR17-69"/>
      <use transform="translate(150.043675 0)scale(0.996264)" xlink:href="#CMR17-102"/>
      <use transform="translate(177.517187 0)scale(0.996264)" xlink:href="#CMR17-111"/>
      <use transform="translate(223.207664 0)scale(0.996264)" xlink:href="#CMR17-114"/>
      <use transform="translate(288.564398 0)scale(0.996264)" xlink:href="#CMMI12-112"/>
      <use transform="translate(337.523912 -14.943915)scale(0.697382)" xlink:href="#CMR17-48"/>
      <use transform="translate(370.005226 0)scale(0.996264)" xlink:href="#CMR17-61"/>
      <use transform="translate(441.720015 0)scale(0.996264)" xlink:href="#CMR17-49"/>
     </g>
    </g>
    <g id="line2d_64">
     <path d="M 325.75262 129.722957 
L 345.75262 129.722957 
" style="fill:none;stroke:#ff0000;stroke-dasharray:5.55,2.4;stroke-dashoffset:0;stroke-width:1.5;"/>
    </g>
    <g id="line2d_65"/>
    <g id="text_18">
     <!-- TOV with term=0 for $p_0$=1 -->
     <g transform="translate(353.75262 133.222957)scale(0.1 -0.1)">
      <use transform="scale(0.996264)" xlink:href="#CMR17-84"/>
      <use transform="translate(66.509881 0)scale(0.996264)" xlink:href="#CMR17-79"/>
      <use transform="translate(135.622215 0)scale(0.996264)" xlink:href="#CMR17-86"/>
      <use transform="translate(234.770611 0)scale(0.996264)" xlink:href="#CMR17-119"/>
      <use transform="translate(301.280492 0)scale(0.996264)" xlink:href="#CMR17-105"/>
      <use transform="translate(326.15155 0)scale(0.996264)" xlink:href="#CMR17-116"/>
      <use transform="translate(361.432318 0)scale(0.996264)" xlink:href="#CMR17-104"/>
      <use transform="translate(442.403654 0)scale(0.996264)" xlink:href="#CMR17-116"/>
      <use transform="translate(477.684422 0)scale(0.996264)" xlink:href="#CMR17-101"/>
      <use transform="translate(518.170082 0)scale(0.996264)" xlink:href="#CMR17-114"/>
      <use transform="translate(553.45085 0)scale(0.996264)" xlink:href="#CMR17-109"/>
      <use transform="translate(630.37044 0)scale(0.996264)" xlink:href="#CMR17-61"/>
      <use transform="translate(702.085228 0)scale(0.996264)" xlink:href="#CMR17-48"/>
      <use transform="translate(777.851672 0)scale(0.996264)" xlink:href="#CMR17-102"/>
      <use transform="translate(805.325184 0)scale(0.996264)" xlink:href="#CMR17-111"/>
      <use transform="translate(851.015661 0)scale(0.996264)" xlink:href="#CMR17-114"/>
      <use transform="translate(916.372396 0)scale(0.996264)" xlink:href="#CMMI12-112"/>
      <use transform="translate(965.33191 -14.943915)scale(0.697382)" xlink:href="#CMR17-48"/>
      <use transform="translate(997.813224 0)scale(0.996264)" xlink:href="#CMR17-61"/>
      <use transform="translate(1069.528012 0)scale(0.996264)" xlink:href="#CMR17-49"/>
     </g>
    </g>
    <g id="line2d_66">
     <path d="M 325.75262 144.401082 
L 345.75262 144.401082 
" style="fill:none;stroke:#008000;stroke-linecap:square;stroke-width:1.5;"/>
    </g>
    <g id="line2d_67"/>
    <g id="text_19">
     <!-- LE for $p_0$=8 -->
     <g transform="translate(353.75262 147.901082)scale(0.1 -0.1)">
      <defs>
       <path d="M 27.203125 35.765625 
C 33.5 38.96875 39.90625 43.796875 39.90625 51.53125 
C 39.90625 60.6875 31.09375 66 23 66 
C 13.90625 66 5.90625 59.375 5.90625 50.234375 
C 5.90625 47.71875 6.5 43.390625 10.40625 39.578125 
C 11.40625 38.578125 15.59375 35.5625 18.296875 33.65625 
C 13.796875 31.34375 3.296875 25.8125 3.296875 14.765625 
C 3.296875 4.40625 13.09375 -2 22.796875 -2 
C 33.5 -2 42.5 5.71875 42.5 15.96875 
C 42.5 25.109375 36.40625 29.328125 32.40625 32.046875 
z
M 14.09375 44.609375 
C 13.296875 45.109375 9.296875 48.21875 9.296875 52.9375 
C 9.296875 59.078125 15.59375 63.6875 22.796875 63.6875 
C 30.703125 63.6875 36.5 58.0625 36.5 51.53125 
C 36.5 42.1875 26.09375 36.859375 25.59375 36.859375 
C 25.5 36.859375 25.40625 36.859375 24.59375 37.46875 
z
M 32.5 24 
C 34 22.90625 38.796875 19.578125 38.796875 13.453125 
C 38.796875 6.015625 31.40625 0.390625 23 0.390625 
C 13.90625 0.390625 7 6.921875 7 14.859375 
C 7 22.796875 13.09375 29.4375 20 32.546875 
z
" id="CMR17-56"/>
      </defs>
      <use transform="scale(0.996264)" xlink:href="#CMR17-76"/>
      <use transform="translate(57.381408 0)scale(0.996264)" xlink:href="#CMR17-69"/>
      <use transform="translate(150.043675 0)scale(0.996264)" xlink:href="#CMR17-102"/>
      <use transform="translate(177.517187 0)scale(0.996264)" xlink:href="#CMR17-111"/>
      <use transform="translate(223.207664 0)scale(0.996264)" xlink:href="#CMR17-114"/>
      <use transform="translate(288.564398 0)scale(0.996264)" xlink:href="#CMMI12-112"/>
      <use transform="translate(337.523912 -14.943915)scale(0.697382)" xlink:href="#CMR17-48"/>
      <use transform="translate(370.005226 0)scale(0.996264)" xlink:href="#CMR17-61"/>
      <use transform="translate(441.720015 0)scale(0.996264)" xlink:href="#CMR17-56"/>
     </g>
    </g>
    <g id="line2d_68">
     <path d="M 325.75262 159.079207 
L 345.75262 159.079207 
" style="fill:none;stroke:#008000;stroke-dasharray:5.55,2.4;stroke-dashoffset:0;stroke-width:1.5;"/>
    </g>
    <g id="line2d_69"/>
    <g id="text_20">
     <!-- TOV with term=0 for $p_0$=8 -->
     <g transform="translate(353.75262 162.579207)scale(0.1 -0.1)">
      <use transform="scale(0.996264)" xlink:href="#CMR17-84"/>
      <use transform="translate(66.509881 0)scale(0.996264)" xlink:href="#CMR17-79"/>
      <use transform="translate(135.622215 0)scale(0.996264)" xlink:href="#CMR17-86"/>
      <use transform="translate(234.770611 0)scale(0.996264)" xlink:href="#CMR17-119"/>
      <use transform="translate(301.280492 0)scale(0.996264)" xlink:href="#CMR17-105"/>
      <use transform="translate(326.15155 0)scale(0.996264)" xlink:href="#CMR17-116"/>
      <use transform="translate(361.432318 0)scale(0.996264)" xlink:href="#CMR17-104"/>
      <use transform="translate(442.403654 0)scale(0.996264)" xlink:href="#CMR17-116"/>
      <use transform="translate(477.684422 0)scale(0.996264)" xlink:href="#CMR17-101"/>
      <use transform="translate(518.170082 0)scale(0.996264)" xlink:href="#CMR17-114"/>
      <use transform="translate(553.45085 0)scale(0.996264)" xlink:href="#CMR17-109"/>
      <use transform="translate(630.37044 0)scale(0.996264)" xlink:href="#CMR17-61"/>
      <use transform="translate(702.085228 0)scale(0.996264)" xlink:href="#CMR17-48"/>
      <use transform="translate(777.851672 0)scale(0.996264)" xlink:href="#CMR17-102"/>
      <use transform="translate(805.325184 0)scale(0.996264)" xlink:href="#CMR17-111"/>
      <use transform="translate(851.015661 0)scale(0.996264)" xlink:href="#CMR17-114"/>
      <use transform="translate(916.372396 0)scale(0.996264)" xlink:href="#CMMI12-112"/>
      <use transform="translate(965.33191 -14.943915)scale(0.697382)" xlink:href="#CMR17-48"/>
      <use transform="translate(997.813224 0)scale(0.996264)" xlink:href="#CMR17-61"/>
      <use transform="translate(1069.528012 0)scale(0.996264)" xlink:href="#CMR17-56"/>
     </g>
    </g>
   </g>
  </g>
 </g>
 <defs>
  <clipPath id="pbada257e02">
   <rect height="224.50653" width="271.58647" x="45.16615" y="10.8"/>
  </clipPath>
 </defs>
</svg>
