<?xml version="1.0" encoding="utf-8" standalone="no"?>
<!DOCTYPE svg PUBLIC "-//W3C//DTD SVG 1.1//EN"
  "http://www.w3.org/Graphics/SVG/1.1/DTD/svg11.dtd">
<svg height="340.15748pt" version="1.1" viewBox="0 0 453.543307 340.15748" width="453.543307pt" xmlns="http://www.w3.org/2000/svg" xmlns:xlink="http://www.w3.org/1999/xlink">
 <metadata>
  <rdf:RDF xmlns:cc="http://creativecommons.org/ns#" xmlns:dc="http://purl.org/dc/elements/1.1/" xmlns:rdf="http://www.w3.org/1999/02/22-rdf-syntax-ns#">
   <cc:Work>
    <dc:type rdf:resource="http://purl.org/dc/dcmitype/StillImage"/>
    <dc:date>2021-04-17T03:08:25.751074</dc:date>
    <dc:format>image/svg+xml</dc:format>
    <dc:creator>
     <cc:Agent>
      <dc:title>Matplotlib v3.4.1, https://matplotlib.org/</dc:title>
     </cc:Agent>
    </dc:creator>
   </cc:Work>
  </rdf:RDF>
 </metadata>
 <defs>
  <style type="text/css">*{stroke-linecap:butt;stroke-linejoin:round;}</style>
 </defs>
 <g id="figure_1">
  <g id="patch_1">
   <path d="M 0 340.15748 
L 453.543307 340.15748 
L 453.543307 0 
L 0 0 
z
" style="fill:#ffffff;"/>
  </g>
  <g id="axes_1">
   <g id="patch_2">
    <path d="M 43.45781 136.798913 
L 219.185049 136.798913 
L 219.185049 10.8 
L 43.45781 10.8 
z
" style="fill:#ffffff;"/>
   </g>
   <g id="matplotlib.axis_1">
    <g id="xtick_1">
     <g id="line2d_1">
      <defs>
       <path d="M 0 0 
L 0 3.5 
" id="md606fdf8d0" style="stroke:#000000;stroke-width:0.8;"/>
      </defs>
      <g>
       <use style="stroke:#000000;stroke-width:0.8;" x="51.445412" xlink:href="#md606fdf8d0" y="136.798913"/>
      </g>
     </g>
     <g id="text_1">
      <!-- $\mathdefault{0.00}$ -->
      <g transform="translate(42.589705 150.717412)scale(0.1 -0.1)">
       <defs>
        <path d="M 2688 2038 
C 2688 2430 2682 3099 2413 3613 
C 2176 4063 1798 4224 1466 4224 
C 1158 4224 768 4082 525 3620 
C 269 3137 243 2539 243 2038 
C 243 1671 250 1112 448 623 
C 723 -39 1216 -128 1466 -128 
C 1760 -128 2208 -7 2470 604 
C 2662 1048 2688 1568 2688 2038 
z
M 1466 -26 
C 1056 -26 813 328 723 816 
C 653 1196 653 1749 653 2109 
C 653 2604 653 3015 736 3407 
C 858 3954 1216 4121 1466 4121 
C 1728 4121 2067 3947 2189 3420 
C 2272 3054 2278 2623 2278 2109 
C 2278 1691 2278 1176 2202 797 
C 2067 96 1690 -26 1466 -26 
z
" id="CMR17-30" transform="scale(0.015625)"/>
        <path d="M 1178 307 
C 1178 492 1024 620 870 620 
C 685 620 557 467 557 313 
C 557 128 710 0 864 0 
C 1050 0 1178 153 1178 307 
z
" id="CMMI12-3a" transform="scale(0.015625)"/>
       </defs>
       <use transform="scale(0.996264)" xlink:href="#CMR17-30"/>
       <use transform="translate(45.690477 0)scale(0.996264)" xlink:href="#CMMI12-3a"/>
       <use transform="translate(72.787654 0)scale(0.996264)" xlink:href="#CMR17-30"/>
       <use transform="translate(118.478131 0)scale(0.996264)" xlink:href="#CMR17-30"/>
      </g>
     </g>
    </g>
    <g id="xtick_2">
     <g id="line2d_2">
      <g>
       <use style="stroke:#000000;stroke-width:0.8;" x="91.383421" xlink:href="#md606fdf8d0" y="136.798913"/>
      </g>
     </g>
     <g id="text_2">
      <!-- $\mathdefault{0.25}$ -->
      <g transform="translate(82.527713 150.717412)scale(0.1 -0.1)">
       <defs>
        <path d="M 2669 990 
L 2554 990 
C 2490 537 2438 460 2413 422 
C 2381 371 1920 371 1830 371 
L 602 371 
C 832 620 1280 1073 1824 1596 
C 2214 1966 2669 2400 2669 3033 
C 2669 3788 2067 4224 1395 4224 
C 691 4224 262 3603 262 3027 
C 262 2777 448 2745 525 2745 
C 589 2745 781 2783 781 3007 
C 781 3206 614 3264 525 3264 
C 486 3264 448 3257 422 3244 
C 544 3788 915 4057 1306 4057 
C 1862 4057 2227 3616 2227 3033 
C 2227 2477 1901 1998 1536 1583 
L 262 147 
L 262 0 
L 2515 0 
L 2669 990 
z
" id="CMR17-32" transform="scale(0.015625)"/>
        <path d="M 730 3750 
C 794 3724 1056 3641 1325 3641 
C 1920 3641 2246 3961 2432 4140 
C 2432 4191 2432 4224 2394 4224 
C 2387 4224 2374 4224 2323 4198 
C 2099 4102 1837 4032 1517 4032 
C 1325 4032 1037 4055 723 4191 
C 653 4224 640 4224 634 4224 
C 602 4224 595 4217 595 4090 
L 595 2231 
C 595 2113 595 2080 659 2080 
C 691 2080 704 2093 736 2139 
C 941 2435 1222 2560 1542 2560 
C 1766 2560 2246 2415 2246 1293 
C 2246 1087 2246 716 2054 422 
C 1894 159 1645 25 1370 25 
C 947 25 518 319 403 812 
C 429 806 480 793 506 793 
C 589 793 749 838 749 1036 
C 749 1209 627 1280 506 1280 
C 358 1280 262 1190 262 1011 
C 262 454 704 -128 1382 -128 
C 2042 -128 2669 441 2669 1267 
C 2669 2054 2170 2662 1549 2662 
C 1222 2662 947 2540 730 2304 
L 730 3750 
z
" id="CMR17-35" transform="scale(0.015625)"/>
       </defs>
       <use transform="scale(0.996264)" xlink:href="#CMR17-30"/>
       <use transform="translate(45.690477 0)scale(0.996264)" xlink:href="#CMMI12-3a"/>
       <use transform="translate(72.787654 0)scale(0.996264)" xlink:href="#CMR17-32"/>
       <use transform="translate(118.478131 0)scale(0.996264)" xlink:href="#CMR17-35"/>
      </g>
     </g>
    </g>
    <g id="xtick_3">
     <g id="line2d_3">
      <g>
       <use style="stroke:#000000;stroke-width:0.8;" x="131.321429" xlink:href="#md606fdf8d0" y="136.798913"/>
      </g>
     </g>
     <g id="text_3">
      <!-- $\mathdefault{0.50}$ -->
      <g transform="translate(122.465722 150.717412)scale(0.1 -0.1)">
       <use transform="scale(0.996264)" xlink:href="#CMR17-30"/>
       <use transform="translate(45.690477 0)scale(0.996264)" xlink:href="#CMMI12-3a"/>
       <use transform="translate(72.787654 0)scale(0.996264)" xlink:href="#CMR17-35"/>
       <use transform="translate(118.478131 0)scale(0.996264)" xlink:href="#CMR17-30"/>
      </g>
     </g>
    </g>
    <g id="xtick_4">
     <g id="line2d_4">
      <g>
       <use style="stroke:#000000;stroke-width:0.8;" x="171.259438" xlink:href="#md606fdf8d0" y="136.798913"/>
      </g>
     </g>
     <g id="text_4">
      <!-- $\mathdefault{0.75}$ -->
      <g transform="translate(162.403731 150.717412)scale(0.1 -0.1)">
       <defs>
        <path d="M 2886 3955 
L 2886 4096 
L 1382 4096 
C 634 4096 621 4166 595 4288 
L 480 4288 
L 294 3104 
L 410 3104 
C 429 3226 474 3552 550 3673 
C 589 3724 1062 3724 1171 3724 
L 2579 3724 
L 1869 2670 
C 1395 1961 1069 1003 1069 166 
C 1069 89 1069 -128 1299 -128 
C 1530 -128 1530 89 1530 172 
L 1530 466 
C 1530 1514 1709 2204 2003 2644 
L 2886 3955 
z
" id="CMR17-37" transform="scale(0.015625)"/>
       </defs>
       <use transform="scale(0.996264)" xlink:href="#CMR17-30"/>
       <use transform="translate(45.690477 0)scale(0.996264)" xlink:href="#CMMI12-3a"/>
       <use transform="translate(72.787654 0)scale(0.996264)" xlink:href="#CMR17-37"/>
       <use transform="translate(118.478131 0)scale(0.996264)" xlink:href="#CMR17-35"/>
      </g>
     </g>
    </g>
    <g id="xtick_5">
     <g id="line2d_5">
      <g>
       <use style="stroke:#000000;stroke-width:0.8;" x="211.197447" xlink:href="#md606fdf8d0" y="136.798913"/>
      </g>
     </g>
     <g id="text_5">
      <!-- $\mathdefault{1.00}$ -->
      <g transform="translate(202.34174 150.717412)scale(0.1 -0.1)">
       <defs>
        <path d="M 1702 4083 
C 1702 4217 1696 4224 1606 4224 
C 1357 3927 979 3833 621 3820 
C 602 3820 570 3820 563 3808 
C 557 3795 557 3782 557 3648 
C 755 3648 1088 3686 1344 3839 
L 1344 467 
C 1344 243 1331 166 781 166 
L 589 166 
L 589 0 
C 896 6 1216 12 1523 12 
C 1830 12 2150 6 2458 0 
L 2458 166 
L 2266 166 
C 1715 166 1702 236 1702 467 
L 1702 4083 
z
" id="CMR17-31" transform="scale(0.015625)"/>
       </defs>
       <use transform="scale(0.996264)" xlink:href="#CMR17-31"/>
       <use transform="translate(45.690477 0)scale(0.996264)" xlink:href="#CMMI12-3a"/>
       <use transform="translate(72.787654 0)scale(0.996264)" xlink:href="#CMR17-30"/>
       <use transform="translate(118.478131 0)scale(0.996264)" xlink:href="#CMR17-30"/>
      </g>
     </g>
    </g>
    <g id="text_6">
     <!-- Radius $r$ -->
     <g transform="translate(112.37278 163.573088)scale(0.1 -0.1)">
      <defs>
       <path d="M 2509 2156 
C 3117 2278 3629 2689 3629 3203 
C 3629 3806 2950 4352 2054 4352 
L 333 4352 
L 333 4185 
C 774 4185 845 4185 845 3896 
L 845 428 
C 845 140 774 140 333 140 
L 333 -26 
C 518 -13 851 -13 1050 -13 
C 1248 -13 1581 -13 1766 -26 
L 1766 140 
C 1325 140 1254 140 1254 428 
L 1254 2112 
L 2003 2112 
C 2368 2112 2573 1964 2662 1881 
C 2918 1632 2918 1459 2918 1024 
C 2918 595 2918 377 3110 160 
C 3354 -103 3680 -128 3821 -128 
C 4294 -128 4365 403 4365 512 
C 4365 550 4365 595 4307 595 
C 4256 595 4250 556 4250 531 
C 4218 115 4032 -26 3834 -26 
C 3482 -26 3443 377 3405 768 
C 3386 902 3373 998 3360 1139 
C 3322 1459 3270 1926 2509 2156 
z
M 1984 2214 
L 1254 2214 
L 1254 3935 
C 1254 4153 1267 4185 1523 4185 
L 1990 4185 
C 2522 4185 3142 3999 3142 3203 
C 3142 2374 2464 2214 1984 2214 
z
" id="CMR17-52" transform="scale(0.015625)"/>
       <path d="M 2304 1656 
C 2304 2048 2304 2275 2035 2534 
C 1798 2751 1523 2816 1306 2816 
C 800 2816 435 2408 435 1977 
C 435 1740 627 1728 666 1728 
C 749 1728 896 1779 896 1958 
C 896 2118 774 2188 666 2188 
C 640 2188 608 2182 589 2176 
C 723 2594 1069 2713 1293 2713 
C 1613 2713 1965 2421 1965 1875 
L 1965 1632 
C 1587 1619 1133 1568 774 1373 
C 371 1147 256 822 256 576 
C 256 77 832 -64 1171 -64 
C 1523 -64 1850 135 1990 505 
C 2003 219 2182 -39 2464 -39 
C 2598 -39 2938 51 2938 563 
L 2938 926 
L 2822 926 
L 2822 557 
C 2822 161 2650 109 2566 109 
C 2304 109 2304 446 2304 732 
L 2304 1656 
z
M 1965 887 
C 1965 323 1568 38 1216 38 
C 896 38 646 278 646 576 
C 646 771 730 1114 1101 1322 
C 1408 1497 1760 1523 1965 1536 
L 1965 887 
z
" id="CMR17-61" transform="scale(0.015625)"/>
       <path d="M 1869 4345 
L 1869 4179 
C 2246 4179 2304 4141 2304 3843 
L 2304 2371 
C 2278 2403 2016 2816 1498 2816 
C 845 2816 211 2228 211 1376 
C 211 529 806 -64 1434 -64 
C 1978 -64 2259 361 2291 406 
L 2291 -64 
L 3066 -13 
L 3066 154 
C 2688 154 2630 193 2630 503 
L 2630 4416 
L 1869 4345 
z
M 2291 762 
C 2291 568 2176 393 2029 264 
C 1811 70 1594 38 1472 38 
C 1286 38 621 135 621 1369 
C 621 2636 1363 2713 1530 2713 
C 1824 2713 2061 2545 2208 2313 
C 2291 2177 2291 2157 2291 2041 
L 2291 762 
z
" id="CMR17-64" transform="scale(0.015625)"/>
       <path d="M 992 3961 
C 992 4102 877 4224 730 4224 
C 589 4224 467 4108 467 3961 
C 467 3820 582 3699 730 3699 
C 870 3699 992 3814 992 3961 
z
M 243 2745 
L 243 2579 
C 602 2579 653 2540 653 2231 
L 653 443 
C 653 198 627 166 218 166 
L 218 0 
C 371 12 646 12 806 12 
C 960 12 1222 12 1370 0 
L 1370 166 
C 992 166 979 205 979 436 
L 979 2816 
L 243 2745 
z
" id="CMR17-69" transform="scale(0.015625)"/>
       <path d="M 1882 2745 
L 1882 2579 
C 2259 2579 2317 2540 2317 2229 
L 2317 1053 
C 2317 510 2029 38 1555 38 
C 1030 38 986 355 986 691 
L 986 2816 
L 211 2745 
L 211 2579 
C 467 2579 640 2579 646 2320 
L 646 1079 
C 646 646 646 368 813 187 
C 896 103 1056 -64 1517 -64 
C 2061 -64 2272 400 2323 536 
L 2330 536 
L 2330 -64 
L 3091 -13 
L 3091 154 
C 2714 154 2656 193 2656 503 
L 2656 2816 
L 1882 2745 
z
" id="CMR17-75" transform="scale(0.015625)"/>
       <path d="M 1978 2688 
C 1978 2803 1971 2809 1933 2809 
C 1907 2809 1901 2803 1824 2707 
C 1805 2681 1747 2617 1728 2592 
C 1523 2809 1235 2816 1126 2816 
C 416 2816 160 2444 160 2073 
C 160 1497 813 1363 998 1324 
C 1402 1241 1542 1216 1677 1100 
C 1760 1024 1901 883 1901 652 
C 1901 384 1747 38 1158 38 
C 602 38 403 460 288 1024 
C 269 1113 269 1120 218 1120 
C 166 1120 160 1113 160 985 
L 160 64 
C 160 -52 166 -58 205 -58 
C 237 -58 243 -52 275 0 
C 314 57 410 211 448 275 
C 576 102 800 -64 1158 -64 
C 1792 -64 2131 281 2131 780 
C 2131 1107 1958 1280 1875 1356 
C 1683 1555 1459 1600 1190 1651 
C 838 1728 390 1817 390 2208 
C 390 2374 480 2726 1126 2726 
C 1811 2726 1850 2086 1862 1881 
C 1869 1849 1901 1843 1920 1843 
C 1978 1843 1978 1862 1978 1971 
L 1978 2688 
z
" id="CMR17-73" transform="scale(0.015625)"/>
       <path d="M 2490 2633 
C 2291 2598 2189 2457 2189 2316 
C 2189 2163 2310 2111 2400 2111 
C 2579 2111 2726 2265 2726 2457 
C 2726 2651 2528 2816 2208 2816 
C 1952 2816 1658 2700 1389 2335 
C 1344 2660 1088 2816 832 2816 
C 582 2816 454 2642 378 2508 
C 269 2278 173 1892 173 1860 
C 173 1834 198 1801 243 1801 
C 294 1801 301 1808 339 1957 
C 435 2342 557 2687 813 2687 
C 966 2687 1011 2604 1011 2419 
C 1011 2278 947 2028 902 1827 
L 723 1130 
C 698 1007 627 716 595 600 
C 550 432 480 128 480 96 
C 480 6 550 -64 646 -64 
C 717 -64 838 -20 877 109 
C 896 160 1133 1136 1171 1285 
C 1203 1427 1242 1562 1274 1705 
C 1299 1795 1325 1898 1344 1982 
C 1363 2040 1536 2355 1696 2495 
C 1773 2566 1939 2687 2202 2687 
C 2304 2687 2406 2674 2490 2633 
z
" id="CMMI12-72" transform="scale(0.015625)"/>
      </defs>
      <use transform="scale(0.996264)" xlink:href="#CMR17-52"/>
      <use transform="translate(67.791102 0)scale(0.996264)" xlink:href="#CMR17-61"/>
      <use transform="translate(113.481579 0)scale(0.996264)" xlink:href="#CMR17-64"/>
      <use transform="translate(164.376949 0)scale(0.996264)" xlink:href="#CMR17-69"/>
      <use transform="translate(189.248007 0)scale(0.996264)" xlink:href="#CMR17-75"/>
      <use transform="translate(240.143377 0)scale(0.996264)" xlink:href="#CMR17-73"/>
      <use transform="translate(306.020681 0)scale(0.996264)" xlink:href="#CMMI12-72"/>
     </g>
    </g>
   </g>
   <g id="matplotlib.axis_2">
    <g id="ytick_1">
     <g id="line2d_6">
      <defs>
       <path d="M 0 0 
L -3.5 0 
" id="m8830142fc8" style="stroke:#000000;stroke-width:0.8;"/>
      </defs>
      <g>
       <use style="stroke:#000000;stroke-width:0.8;" x="43.45781" xlink:href="#m8830142fc8" y="131.07169"/>
      </g>
     </g>
     <g id="text_7">
      <!-- $\mathdefault{0.0}$ -->
      <g transform="translate(23.727731 134.530939)scale(0.1 -0.1)">
       <use transform="scale(0.996264)" xlink:href="#CMR17-30"/>
       <use transform="translate(45.690477 0)scale(0.996264)" xlink:href="#CMMI12-3a"/>
       <use transform="translate(72.787654 0)scale(0.996264)" xlink:href="#CMR17-30"/>
      </g>
     </g>
    </g>
    <g id="ytick_2">
     <g id="line2d_7">
      <g>
       <use style="stroke:#000000;stroke-width:0.8;" x="43.45781" xlink:href="#m8830142fc8" y="102.435573"/>
      </g>
     </g>
     <g id="text_8">
      <!-- $\mathdefault{0.5}$ -->
      <g transform="translate(23.727731 105.894822)scale(0.1 -0.1)">
       <use transform="scale(0.996264)" xlink:href="#CMR17-30"/>
       <use transform="translate(45.690477 0)scale(0.996264)" xlink:href="#CMMI12-3a"/>
       <use transform="translate(72.787654 0)scale(0.996264)" xlink:href="#CMR17-35"/>
      </g>
     </g>
    </g>
    <g id="ytick_3">
     <g id="line2d_8">
      <g>
       <use style="stroke:#000000;stroke-width:0.8;" x="43.45781" xlink:href="#m8830142fc8" y="73.799457"/>
      </g>
     </g>
     <g id="text_9">
      <!-- $\mathdefault{1.0}$ -->
      <g transform="translate(23.727731 77.258706)scale(0.1 -0.1)">
       <use transform="scale(0.996264)" xlink:href="#CMR17-31"/>
       <use transform="translate(45.690477 0)scale(0.996264)" xlink:href="#CMMI12-3a"/>
       <use transform="translate(72.787654 0)scale(0.996264)" xlink:href="#CMR17-30"/>
      </g>
     </g>
    </g>
    <g id="ytick_4">
     <g id="line2d_9">
      <g>
       <use style="stroke:#000000;stroke-width:0.8;" x="43.45781" xlink:href="#m8830142fc8" y="45.16334"/>
      </g>
     </g>
     <g id="text_10">
      <!-- $\mathdefault{1.5}$ -->
      <g transform="translate(23.727731 48.622589)scale(0.1 -0.1)">
       <use transform="scale(0.996264)" xlink:href="#CMR17-31"/>
       <use transform="translate(45.690477 0)scale(0.996264)" xlink:href="#CMMI12-3a"/>
       <use transform="translate(72.787654 0)scale(0.996264)" xlink:href="#CMR17-35"/>
      </g>
     </g>
    </g>
    <g id="ytick_5">
     <g id="line2d_10">
      <g>
       <use style="stroke:#000000;stroke-width:0.8;" x="43.45781" xlink:href="#m8830142fc8" y="16.527223"/>
      </g>
     </g>
     <g id="text_11">
      <!-- $\mathdefault{2.0}$ -->
      <g transform="translate(23.727731 19.986473)scale(0.1 -0.1)">
       <use transform="scale(0.996264)" xlink:href="#CMR17-32"/>
       <use transform="translate(45.690477 0)scale(0.996264)" xlink:href="#CMMI12-3a"/>
       <use transform="translate(72.787654 0)scale(0.996264)" xlink:href="#CMR17-30"/>
      </g>
     </g>
    </g>
    <g id="text_12">
     <!-- Pressure $p$ -->
     <g transform="translate(17.790553 96.383186)rotate(-90)scale(0.1 -0.1)">
      <defs>
       <path d="M 1267 2048 
L 2291 2048 
C 3117 2048 3718 2583 3718 3187 
C 3718 3791 3130 4352 2291 4352 
L 333 4352 
L 333 4185 
C 774 4185 845 4185 845 3899 
L 845 453 
C 845 166 774 166 333 166 
L 333 0 
C 518 12 858 12 1056 12 
C 1254 12 1594 12 1779 0 
L 1779 166 
C 1338 166 1267 166 1267 453 
L 1267 2048 
z
M 1254 2182 
L 1254 3937 
C 1254 4153 1267 4185 1523 4185 
L 2170 4185 
C 2995 4185 3232 3715 3232 3187 
C 3232 2608 2950 2182 2170 2182 
L 1254 2182 
z
" id="CMR17-50" transform="scale(0.015625)"/>
       <path d="M 960 1517 
C 960 2134 1222 2713 1702 2713 
C 1747 2713 1792 2707 1837 2687 
C 1837 2687 1696 2642 1696 2475 
C 1696 2321 1818 2257 1914 2257 
C 1990 2257 2131 2302 2131 2482 
C 2131 2687 1926 2816 1709 2816 
C 1222 2816 1011 2340 947 2115 
L 941 2115 
L 941 2816 
L 198 2745 
L 198 2578 
C 576 2578 634 2540 634 2231 
L 634 443 
C 634 198 608 166 198 166 
L 198 0 
C 352 12 646 12 813 12 
C 998 12 1325 12 1498 0 
L 1498 166 
C 1037 166 960 166 960 455 
L 960 1517 
z
" id="CMR17-72" transform="scale(0.015625)"/>
       <path d="M 2438 1503 
C 2464 1529 2464 1542 2464 1606 
C 2464 2251 2118 2816 1389 2816 
C 710 2816 173 2175 173 1394 
C 173 554 781 -64 1459 -64 
C 2176 -64 2458 619 2458 755 
C 2458 800 2419 800 2406 800 
C 2362 800 2355 787 2330 709 
C 2189 270 1837 51 1504 51 
C 1229 51 954 206 781 490 
C 582 819 582 1200 582 1503 
L 2438 1503 
z
M 589 1600 
C 634 2511 1126 2713 1382 2713 
C 1818 2713 2112 2308 2118 1600 
L 589 1600 
z
" id="CMR17-65" transform="scale(0.015625)"/>
       <path d="M 275 -794 
C 230 -981 205 -1031 -58 -1031 
C -135 -1031 -199 -1031 -199 -1152 
C -199 -1165 -192 -1216 -122 -1216 
C -39 -1216 51 -1204 134 -1204 
L 410 -1204 
C 544 -1204 870 -1216 1005 -1216 
C 1043 -1216 1120 -1216 1120 -1101 
C 1120 -1031 1075 -1031 966 -1031 
C 672 -1031 653 -987 653 -937 
C 653 -863 941 217 979 364 
C 1050 185 1222 -64 1555 -64 
C 2278 -64 3059 874 3059 1813 
C 3059 2400 2726 2816 2246 2816 
C 1837 2816 1491 2419 1421 2330 
C 1370 2649 1120 2816 864 2816 
C 678 2816 531 2726 410 2483 
C 294 2253 205 1864 205 1838 
C 205 1813 230 1781 275 1781 
C 326 1781 333 1787 371 1934 
C 467 2311 589 2687 845 2687 
C 992 2687 1043 2585 1043 2394 
C 1043 2241 1024 2177 998 2062 
L 275 -794 
z
M 1382 1992 
C 1427 2170 1606 2356 1709 2445 
C 1779 2509 1990 2687 2234 2687 
C 2515 2687 2643 2407 2643 2075 
C 2643 1768 2464 1047 2304 715 
C 2144 370 1850 64 1555 64 
C 1120 64 1050 613 1050 638 
C 1050 657 1062 708 1069 740 
L 1382 1992 
z
" id="CMMI12-70" transform="scale(0.015625)"/>
      </defs>
      <use transform="scale(0.996264)" xlink:href="#CMR17-50"/>
      <use transform="translate(62.586301 0)scale(0.996264)" xlink:href="#CMR17-72"/>
      <use transform="translate(97.867068 0)scale(0.996264)" xlink:href="#CMR17-65"/>
      <use transform="translate(138.352729 0)scale(0.996264)" xlink:href="#CMR17-73"/>
      <use transform="translate(174.154066 0)scale(0.996264)" xlink:href="#CMR17-73"/>
      <use transform="translate(209.955404 0)scale(0.996264)" xlink:href="#CMR17-75"/>
      <use transform="translate(260.850774 0)scale(0.996264)" xlink:href="#CMR17-72"/>
      <use transform="translate(296.131542 0)scale(0.996264)" xlink:href="#CMR17-65"/>
      <use transform="translate(366.693168 0)scale(0.996264)" xlink:href="#CMMI12-70"/>
     </g>
    </g>
   </g>
   <g id="line2d_11">
    <path clip-path="url(#pdaa29cf431)" d="M 51.445412 16.527223 
L 53.042932 18.025701 
L 54.640452 21.903556 
L 56.237973 28.049874 
L 57.835493 36.053964 
L 59.433014 45.398418 
L 61.030534 55.518758 
L 62.628054 65.860489 
L 64.225575 75.929639 
L 65.823095 85.330669 
L 67.420615 93.787626 
L 69.018136 101.147395 
L 70.615656 107.367211 
L 72.213176 112.491224 
L 73.810697 116.622229 
L 75.408217 119.894333 
L 77.005737 122.450603 
L 78.603258 124.427507 
L 80.200778 125.945984 
L 81.798298 127.107794 
L 83.395819 127.995411 
L 84.993339 128.673892 
L 86.59086 129.19358 
L 88.18838 129.592925 
L 89.7859 129.901049 
L 91.383421 130.1399 
L 92.980941 130.32599 
L 94.578461 130.471738 
L 96.175982 130.586504 
L 97.773502 130.677361 
L 99.371022 130.749672 
L 100.968543 130.807522 
L 102.566063 130.854038 
L 104.163583 130.891623 
L 105.761104 130.922135 
L 107.358624 130.947017 
L 108.956144 130.967395 
L 110.553665 130.984154 
L 112.151185 130.997991 
L 113.748706 131.009459 
L 115.346226 131.018996 
L 116.943746 131.026955 
L 118.541267 131.033619 
L 120.138787 131.039216 
L 121.736307 131.043929 
L 123.333828 131.04791 
L 124.931348 131.051281 
L 126.528868 131.054143 
L 128.126389 131.056579 
L 129.723909 131.058656 
L 131.321429 131.060431 
L 132.91895 131.061951 
L 134.51647 131.063255 
L 136.113991 131.064376 
L 137.711511 131.065341 
L 139.309031 131.066174 
L 140.906552 131.066893 
L 142.504072 131.067514 
L 144.101592 131.068053 
L 145.699113 131.06852 
L 147.296633 131.068925 
L 148.894153 131.069278 
L 150.491674 131.069584 
L 152.089194 131.069851 
L 153.686714 131.070083 
L 155.284235 131.070286 
L 156.881755 131.070463 
L 158.479275 131.070618 
L 160.076796 131.070753 
L 161.674316 131.070871 
L 163.271837 131.070975 
L 164.869357 131.071065 
L 166.466877 131.071144 
L 168.064398 131.071214 
L 169.661918 131.071274 
L 171.259438 131.071327 
L 172.856959 131.071374 
L 174.454479 131.071415 
L 176.051999 131.07145 
L 177.64952 131.071481 
L 179.24704 131.071509 
L 180.84456 131.071533 
L 182.442081 131.071554 
L 184.039601 131.071572 
L 185.637121 131.071588 
L 187.234642 131.071602 
L 188.832162 131.071614 
L 190.429683 131.071624 
L 192.027203 131.071634 
L 193.624723 131.071642 
L 195.222244 131.071649 
L 196.819764 131.071655 
L 198.417284 131.07166 
L 200.014805 131.071664 
L 201.612325 131.071668 
L 203.209845 131.071672 
L 204.807366 131.071675 
L 206.404886 131.071677 
L 208.002406 131.071679 
L 209.599927 131.071681 
L 211.197447 131.071682 
" style="fill:none;stroke:#000000;stroke-linecap:square;stroke-width:1.5;"/>
   </g>
   <g id="line2d_12">
    <path clip-path="url(#pdaa29cf431)" d="M 51.445412 16.527223 
L 53.042932 16.527223 
L 54.640452 18.37924 
L 56.237973 21.100763 
L 57.835493 24.698621 
L 59.433014 29.088845 
L 61.030534 34.149102 
L 62.628054 39.739344 
L 64.225575 45.712862 
L 65.823095 51.924533 
L 67.420615 58.237358 
L 69.018136 64.527445 
L 70.615656 70.687418 
L 72.213176 76.628343 
L 73.810697 82.280321 
L 75.408217 87.591961 
L 77.005737 92.529027 
L 78.603258 97.072499 
L 80.200778 101.216319 
L 81.798298 104.965015 
L 83.395819 108.331387 
L 84.993339 111.334353 
L 86.59086 113.997043 
L 88.18838 116.345177 
L 89.7859 118.405732 
L 91.383421 120.20589 
L 92.980941 121.772237 
L 94.578461 123.130188 
L 96.175982 124.303602 
L 97.773502 125.31454 
L 99.371022 126.183151 
L 100.968543 126.927648 
L 102.566063 127.564342 
L 104.163583 128.107734 
L 105.761104 128.570631 
L 107.358624 128.964276 
L 108.956144 129.298492 
L 110.553665 129.581826 
L 112.151185 129.821681 
L 113.748706 130.024453 
L 115.346226 130.19565 
L 116.943746 130.340002 
L 118.541267 130.461562 
L 120.138787 130.563798 
L 121.736307 130.649669 
L 123.333828 130.721698 
L 124.931348 130.78203 
L 126.528868 130.832492 
L 128.126389 130.874631 
L 129.723909 130.909763 
L 131.321429 130.939 
L 132.91895 130.963284 
L 134.51647 130.983413 
L 136.113991 131.000059 
L 137.711511 131.01379 
L 139.309031 131.025087 
L 140.906552 131.034353 
L 142.504072 131.041928 
L 144.101592 131.048097 
L 145.699113 131.053103 
L 147.296633 131.057145 
L 148.894153 131.060394 
L 150.491674 131.06299 
L 152.089194 131.065051 
L 153.686714 131.066677 
L 155.284235 131.067949 
L 156.881755 131.068935 
L 158.479275 131.069692 
L 160.076796 131.070266 
L 161.674316 131.070696 
L 163.271837 131.071012 
L 164.869357 131.07124 
L 166.466877 131.071401 
L 168.064398 131.071512 
L 169.661918 131.071586 
L 171.259438 131.071633 
L 172.856959 131.071661 
L 174.454479 131.071677 
L 176.051999 131.071685 
L 177.64952 131.071689 
L 179.24704 131.07169 
L 180.84456 131.07169 
" style="fill:none;stroke:#000000;stroke-dasharray:1.5,2.475;stroke-dashoffset:0;stroke-width:1.5;"/>
   </g>
   <g id="patch_3">
    <path d="M 43.45781 136.798913 
L 43.45781 10.8 
" style="fill:none;stroke:#000000;stroke-linecap:square;stroke-linejoin:miter;stroke-width:0.8;"/>
   </g>
   <g id="patch_4">
    <path d="M 219.185049 136.798913 
L 219.185049 10.8 
" style="fill:none;stroke:#000000;stroke-linecap:square;stroke-linejoin:miter;stroke-width:0.8;"/>
   </g>
   <g id="patch_5">
    <path d="M 43.45781 136.798913 
L 219.185049 136.798913 
" style="fill:none;stroke:#000000;stroke-linecap:square;stroke-linejoin:miter;stroke-width:0.8;"/>
   </g>
   <g id="patch_6">
    <path d="M 43.45781 10.8 
L 219.185049 10.8 
" style="fill:none;stroke:#000000;stroke-linecap:square;stroke-linejoin:miter;stroke-width:0.8;"/>
   </g>
   <g id="legend_1">
    <g id="patch_7">
     <path d="M 158.415777 46.674357 
L 212.185049 46.674357 
Q 214.185049 46.674357 214.185049 44.674357 
L 214.185049 17.8 
Q 214.185049 15.8 212.185049 15.8 
L 158.415777 15.8 
Q 156.415777 15.8 156.415777 17.8 
L 156.415777 44.674357 
Q 156.415777 46.674357 158.415777 46.674357 
z
" style="fill:#ffffff;opacity:0.8;stroke:#cccccc;stroke-linejoin:miter;"/>
    </g>
    <g id="line2d_13">
     <path d="M 160.415777 23.3 
L 180.415777 23.3 
" style="fill:none;stroke:#000000;stroke-linecap:square;stroke-width:1.5;"/>
    </g>
    <g id="line2d_14"/>
    <g id="text_13">
     <!-- $p_{TOV}$ -->
     <g transform="translate(188.415777 26.8)scale(0.1 -0.1)">
      <defs>
       <path d="M 2669 3886 
C 2707 4038 2720 4096 2816 4121 
C 2867 4134 3078 4134 3213 4134 
C 3853 4134 4154 4109 4154 3612 
C 4154 3516 4128 3274 4090 3038 
L 4083 2962 
C 4083 2937 4109 2898 4147 2898 
C 4211 2898 4211 2930 4230 3032 
L 4416 4159 
C 4429 4217 4429 4230 4429 4249 
C 4429 4319 4390 4319 4262 4319 
L 762 4319 
C 614 4319 608 4313 570 4198 
L 179 3051 
C 173 3038 154 2968 154 2962 
C 154 2930 179 2898 218 2898 
C 269 2898 282 2924 307 3007 
C 576 3777 710 4134 1562 4134 
L 1990 4134 
C 2144 4134 2208 4134 2208 4064 
C 2208 4045 2208 4032 2176 3917 
L 1318 497 
C 1254 249 1242 185 563 185 
C 403 185 358 185 358 64 
C 358 0 429 0 461 0 
C 621 0 787 12 947 12 
L 1946 12 
C 2106 12 2278 0 2438 0 
C 2509 0 2573 0 2573 121 
C 2573 185 2528 185 2362 185 
C 1786 185 1786 242 1786 338 
C 1786 344 1786 389 1811 491 
L 2669 3886 
z
" id="CMMI12-54" transform="scale(0.015625)"/>
       <path d="M 4646 2788 
C 4646 3837 3955 4480 3059 4480 
C 1690 4480 307 3017 307 1550 
C 307 552 973 -128 1901 -128 
C 3245 -128 4646 1264 4646 2788 
z
M 1939 19 
C 1414 19 858 400 858 1391 
C 858 1969 1069 2915 1594 3551 
C 2061 4110 2598 4339 3027 4339 
C 3590 4339 4134 3932 4134 3017 
C 4134 2452 3891 1569 3462 965 
C 2995 317 2413 19 1939 19 
z
" id="CMMI12-4f" transform="scale(0.015625)"/>
       <path d="M 3962 3644 
C 4179 3987 4378 4140 4704 4166 
C 4768 4172 4819 4172 4819 4287 
C 4819 4313 4806 4352 4749 4352 
C 4634 4352 4358 4339 4243 4339 
C 4058 4339 3866 4352 3686 4352 
C 3635 4352 3571 4352 3571 4230 
C 3571 4172 3629 4166 3654 4166 
C 3891 4146 3917 4032 3917 3956 
C 3917 3860 3827 3714 3821 3708 
L 1811 540 
L 1363 3968 
C 1363 4153 1696 4166 1766 4166 
C 1862 4166 1920 4166 1920 4287 
C 1920 4352 1850 4352 1830 4352 
C 1722 4352 1594 4339 1485 4339 
L 1126 4339 
C 659 4339 467 4352 461 4352 
C 422 4352 346 4352 346 4236 
C 346 4166 390 4166 493 4166 
C 819 4166 838 4108 858 3949 
L 1370 25 
C 1389 -109 1389 -128 1478 -128 
C 1555 -128 1587 -109 1651 -7 
L 3962 3644 
z
" id="CMMI12-56" transform="scale(0.015625)"/>
      </defs>
      <use transform="scale(0.996264)" xlink:href="#CMMI12-70"/>
      <use transform="translate(48.959514 -14.943915)scale(0.697382)" xlink:href="#CMMI12-54"/>
      <use transform="translate(98.465836 -14.943915)scale(0.697382)" xlink:href="#CMMI12-4f"/>
      <use transform="translate(152.547864 -14.943915)scale(0.697382)" xlink:href="#CMMI12-56"/>
     </g>
    </g>
    <g id="line2d_15">
     <path d="M 160.415777 37.237178 
L 180.415777 37.237178 
" style="fill:none;stroke:#000000;stroke-dasharray:1.5,2.475;stroke-dashoffset:0;stroke-width:1.5;"/>
    </g>
    <g id="line2d_16"/>
    <g id="text_14">
     <!-- $p_{LE}$ -->
     <g transform="translate(188.415777 40.737178)scale(0.1 -0.1)">
      <defs>
       <path d="M 2349 3860 
C 2406 4102 2426 4166 2989 4166 
C 3162 4166 3206 4166 3206 4287 
C 3206 4352 3136 4352 3110 4352 
C 2982 4352 2835 4339 2707 4339 
L 1850 4339 
C 1728 4339 1587 4352 1466 4352 
C 1414 4352 1344 4352 1344 4230 
C 1344 4166 1402 4166 1498 4166 
C 1888 4166 1888 4115 1888 4045 
C 1888 4032 1888 3994 1862 3898 
L 998 472 
C 941 249 928 185 480 185 
C 358 185 294 185 294 70 
C 294 0 333 0 461 0 
L 3328 0 
C 3469 0 3475 6 3520 121 
L 4013 1478 
C 4026 1510 4038 1548 4038 1567 
C 4038 1605 4006 1631 3974 1631 
C 3968 1631 3936 1631 3923 1605 
C 3910 1599 3910 1586 3859 1465 
C 3654 905 3366 185 2285 185 
L 1670 185 
C 1581 185 1568 185 1530 191 
C 1459 198 1453 211 1453 262 
C 1453 306 1466 344 1478 402 
L 2349 3860 
z
" id="CMMI12-4c" transform="scale(0.015625)"/>
       <path d="M 4448 1489 
C 4454 1508 4474 1553 4474 1578 
C 4474 1611 4448 1643 4410 1643 
C 4384 1643 4371 1636 4352 1617 
C 4339 1611 4339 1598 4282 1469 
C 3904 570 3629 185 2605 185 
L 1670 185 
C 1581 185 1568 185 1530 192 
C 1459 198 1453 211 1453 262 
C 1453 307 1466 346 1478 403 
L 1920 2176 
L 2554 2176 
C 3053 2176 3091 2066 3091 1874 
C 3091 1810 3091 1752 3046 1559 
C 3034 1534 3027 1508 3027 1489 
C 3027 1444 3059 1424 3098 1424 
C 3155 1424 3162 1469 3187 1559 
L 3552 3036 
C 3552 3068 3526 3099 3488 3099 
C 3430 3099 3424 3074 3398 2986 
C 3270 2500 3142 2361 2573 2361 
L 1965 2361 
L 2362 3913 
C 2419 4134 2432 4153 2694 4153 
L 3610 4153 
C 4397 4153 4557 3945 4557 3465 
C 4557 3459 4557 3282 4531 3074 
C 4525 3049 4518 3011 4518 2998 
C 4518 2948 4550 2929 4589 2929 
C 4634 2929 4659 2954 4672 3068 
L 4806 4172 
C 4806 4191 4819 4255 4819 4268 
C 4819 4339 4762 4339 4646 4339 
L 1523 4339 
C 1402 4339 1338 4339 1338 4223 
C 1338 4153 1382 4153 1491 4153 
C 1888 4153 1888 4109 1888 4039 
C 1888 4008 1882 3983 1862 3913 
L 998 474 
C 941 249 928 185 480 185 
C 358 185 294 185 294 70 
C 294 0 333 0 461 0 
L 3674 0 
C 3814 0 3821 6 3866 108 
L 4448 1489 
z
" id="CMMI12-45" transform="scale(0.015625)"/>
      </defs>
      <use transform="scale(0.996264)" xlink:href="#CMMI12-70"/>
      <use transform="translate(48.959514 -14.943915)scale(0.697382)" xlink:href="#CMMI12-4c"/>
      <use transform="translate(95.418928 -14.943915)scale(0.697382)" xlink:href="#CMMI12-45"/>
     </g>
    </g>
   </g>
  </g>
  <g id="axes_2">
   <g id="patch_8">
    <path d="M 265.389469 136.798913 
L 441.116707 136.798913 
L 441.116707 10.8 
L 265.389469 10.8 
z
" style="fill:#ffffff;"/>
   </g>
   <g id="matplotlib.axis_3">
    <g id="xtick_6">
     <g id="line2d_17">
      <g>
       <use style="stroke:#000000;stroke-width:0.8;" x="273.37707" xlink:href="#md606fdf8d0" y="136.798913"/>
      </g>
     </g>
     <g id="text_15">
      <!-- $\mathdefault{0.00}$ -->
      <g transform="translate(264.521363 150.717412)scale(0.1 -0.1)">
       <use transform="scale(0.996264)" xlink:href="#CMR17-30"/>
       <use transform="translate(45.690477 0)scale(0.996264)" xlink:href="#CMMI12-3a"/>
       <use transform="translate(72.787654 0)scale(0.996264)" xlink:href="#CMR17-30"/>
       <use transform="translate(118.478131 0)scale(0.996264)" xlink:href="#CMR17-30"/>
      </g>
     </g>
    </g>
    <g id="xtick_7">
     <g id="line2d_18">
      <g>
       <use style="stroke:#000000;stroke-width:0.8;" x="313.315079" xlink:href="#md606fdf8d0" y="136.798913"/>
      </g>
     </g>
     <g id="text_16">
      <!-- $\mathdefault{0.25}$ -->
      <g transform="translate(304.459372 150.717412)scale(0.1 -0.1)">
       <use transform="scale(0.996264)" xlink:href="#CMR17-30"/>
       <use transform="translate(45.690477 0)scale(0.996264)" xlink:href="#CMMI12-3a"/>
       <use transform="translate(72.787654 0)scale(0.996264)" xlink:href="#CMR17-32"/>
       <use transform="translate(118.478131 0)scale(0.996264)" xlink:href="#CMR17-35"/>
      </g>
     </g>
    </g>
    <g id="xtick_8">
     <g id="line2d_19">
      <g>
       <use style="stroke:#000000;stroke-width:0.8;" x="353.253088" xlink:href="#md606fdf8d0" y="136.798913"/>
      </g>
     </g>
     <g id="text_17">
      <!-- $\mathdefault{0.50}$ -->
      <g transform="translate(344.397381 150.717412)scale(0.1 -0.1)">
       <use transform="scale(0.996264)" xlink:href="#CMR17-30"/>
       <use transform="translate(45.690477 0)scale(0.996264)" xlink:href="#CMMI12-3a"/>
       <use transform="translate(72.787654 0)scale(0.996264)" xlink:href="#CMR17-35"/>
       <use transform="translate(118.478131 0)scale(0.996264)" xlink:href="#CMR17-30"/>
      </g>
     </g>
    </g>
    <g id="xtick_9">
     <g id="line2d_20">
      <g>
       <use style="stroke:#000000;stroke-width:0.8;" x="393.191097" xlink:href="#md606fdf8d0" y="136.798913"/>
      </g>
     </g>
     <g id="text_18">
      <!-- $\mathdefault{0.75}$ -->
      <g transform="translate(384.33539 150.717412)scale(0.1 -0.1)">
       <use transform="scale(0.996264)" xlink:href="#CMR17-30"/>
       <use transform="translate(45.690477 0)scale(0.996264)" xlink:href="#CMMI12-3a"/>
       <use transform="translate(72.787654 0)scale(0.996264)" xlink:href="#CMR17-37"/>
       <use transform="translate(118.478131 0)scale(0.996264)" xlink:href="#CMR17-35"/>
      </g>
     </g>
    </g>
    <g id="xtick_10">
     <g id="line2d_21">
      <g>
       <use style="stroke:#000000;stroke-width:0.8;" x="433.129106" xlink:href="#md606fdf8d0" y="136.798913"/>
      </g>
     </g>
     <g id="text_19">
      <!-- $\mathdefault{1.00}$ -->
      <g transform="translate(424.273399 150.717412)scale(0.1 -0.1)">
       <use transform="scale(0.996264)" xlink:href="#CMR17-31"/>
       <use transform="translate(45.690477 0)scale(0.996264)" xlink:href="#CMMI12-3a"/>
       <use transform="translate(72.787654 0)scale(0.996264)" xlink:href="#CMR17-30"/>
       <use transform="translate(118.478131 0)scale(0.996264)" xlink:href="#CMR17-30"/>
      </g>
     </g>
    </g>
    <g id="text_20">
     <!-- Radius $r$ -->
     <g transform="translate(334.304439 163.573088)scale(0.1 -0.1)">
      <use transform="scale(0.996264)" xlink:href="#CMR17-52"/>
      <use transform="translate(67.791102 0)scale(0.996264)" xlink:href="#CMR17-61"/>
      <use transform="translate(113.481579 0)scale(0.996264)" xlink:href="#CMR17-64"/>
      <use transform="translate(164.376949 0)scale(0.996264)" xlink:href="#CMR17-69"/>
      <use transform="translate(189.248007 0)scale(0.996264)" xlink:href="#CMR17-75"/>
      <use transform="translate(240.143377 0)scale(0.996264)" xlink:href="#CMR17-73"/>
      <use transform="translate(306.020681 0)scale(0.996264)" xlink:href="#CMMI12-72"/>
     </g>
    </g>
   </g>
   <g id="matplotlib.axis_4">
    <g id="ytick_6">
     <g id="line2d_22">
      <g>
       <use style="stroke:#000000;stroke-width:0.8;" x="265.389469" xlink:href="#m8830142fc8" y="131.071693"/>
      </g>
     </g>
     <g id="text_21">
      <!-- $\mathdefault{0}$ -->
      <g transform="translate(253.408133 134.530942)scale(0.1 -0.1)">
       <use transform="scale(0.996264)" xlink:href="#CMR17-30"/>
      </g>
     </g>
    </g>
    <g id="ytick_7">
     <g id="line2d_23">
      <g>
       <use style="stroke:#000000;stroke-width:0.8;" x="265.389469" xlink:href="#m8830142fc8" y="97.057641"/>
      </g>
     </g>
     <g id="text_22">
      <!-- $\mathdefault{2}$ -->
      <g transform="translate(253.408133 100.51689)scale(0.1 -0.1)">
       <use transform="scale(0.996264)" xlink:href="#CMR17-32"/>
      </g>
     </g>
    </g>
    <g id="ytick_8">
     <g id="line2d_24">
      <g>
       <use style="stroke:#000000;stroke-width:0.8;" x="265.389469" xlink:href="#m8830142fc8" y="63.043589"/>
      </g>
     </g>
     <g id="text_23">
      <!-- $\mathdefault{4}$ -->
      <g transform="translate(253.408133 66.502838)scale(0.1 -0.1)">
       <defs>
        <path d="M 2150 4147 
C 2150 4281 2144 4288 2029 4288 
L 128 1254 
L 128 1088 
L 1779 1088 
L 1779 460 
C 1779 230 1766 166 1318 166 
L 1197 166 
L 1197 0 
C 1402 12 1747 12 1965 12 
C 2182 12 2528 12 2733 0 
L 2733 166 
L 2611 166 
C 2163 166 2150 230 2150 460 
L 2150 1088 
L 2803 1088 
L 2803 1254 
L 2150 1254 
L 2150 4147 
z
M 1798 3723 
L 1798 1254 
L 256 1254 
L 1798 3723 
z
" id="CMR17-34" transform="scale(0.015625)"/>
       </defs>
       <use transform="scale(0.996264)" xlink:href="#CMR17-34"/>
      </g>
     </g>
    </g>
    <g id="ytick_9">
     <g id="line2d_25">
      <g>
       <use style="stroke:#000000;stroke-width:0.8;" x="265.389469" xlink:href="#m8830142fc8" y="29.029537"/>
      </g>
     </g>
     <g id="text_24">
      <!-- $\mathdefault{6}$ -->
      <g transform="translate(253.408133 32.488787)scale(0.1 -0.1)">
       <defs>
        <path d="M 678 2198 
C 678 3712 1395 4076 1811 4076 
C 1946 4076 2272 4049 2400 3782 
C 2298 3782 2106 3782 2106 3558 
C 2106 3385 2246 3328 2336 3328 
C 2394 3328 2566 3353 2566 3571 
C 2566 3987 2246 4224 1805 4224 
C 1043 4224 243 3411 243 2011 
C 243 257 966 -128 1478 -128 
C 2099 -128 2688 431 2688 1295 
C 2688 2101 2170 2688 1517 2688 
C 1126 2688 838 2430 678 1979 
L 678 2198 
z
M 1478 25 
C 691 25 691 1212 691 1450 
C 691 1914 909 2585 1504 2585 
C 1613 2585 1926 2585 2138 2140 
C 2253 1889 2253 1624 2253 1302 
C 2253 954 2253 696 2118 438 
C 1978 173 1773 25 1478 25 
z
" id="CMR17-36" transform="scale(0.015625)"/>
       </defs>
       <use transform="scale(0.996264)" xlink:href="#CMR17-36"/>
      </g>
     </g>
    </g>
    <g id="text_25">
     <!-- Density $\rho$ -->
     <g transform="translate(247.470955 94.598231)rotate(-90)scale(0.1 -0.1)">
      <defs>
       <path d="M 333 4352 
L 333 4185 
C 774 4185 845 4185 845 3898 
L 845 453 
C 845 166 774 166 333 166 
L 333 0 
L 2368 0 
C 3398 0 4224 943 4224 2140 
C 4224 3344 3411 4352 2368 4352 
L 333 4352 
z
M 1523 166 
C 1267 166 1254 198 1254 414 
L 1254 3936 
C 1254 4153 1267 4185 1523 4185 
L 2240 4185 
C 2771 4185 3750 3873 3750 2140 
C 3750 1242 3488 879 3366 707 
C 3213 510 2848 166 2240 166 
L 1523 166 
z
" id="CMR17-44" transform="scale(0.015625)"/>
       <path d="M 2656 1954 
C 2656 2282 2592 2816 1837 2816 
C 1331 2816 1069 2424 973 2166 
L 966 2166 
L 966 2816 
L 211 2745 
L 211 2578 
C 589 2578 646 2540 646 2231 
L 646 443 
C 646 198 621 166 211 166 
L 211 0 
C 365 12 646 12 813 12 
C 979 12 1267 12 1421 0 
L 1421 166 
C 1011 166 986 192 986 443 
L 986 1678 
C 986 2269 1344 2713 1792 2713 
C 2266 2713 2317 2289 2317 1980 
L 2317 443 
C 2317 198 2291 166 1882 166 
L 1882 0 
C 2035 12 2317 12 2483 12 
C 2650 12 2938 12 3091 0 
L 3091 166 
C 2682 166 2656 192 2656 443 
L 2656 1954 
z
" id="CMR17-6e" transform="scale(0.015625)"/>
       <path d="M 966 2585 
L 1862 2585 
L 1862 2752 
L 966 2752 
L 966 3968 
L 851 3968 
C 838 3292 614 2700 70 2687 
L 70 2585 
L 627 2585 
L 627 778 
C 627 655 627 -64 1370 -64 
C 1747 -64 1965 308 1965 784 
L 1965 1151 
L 1850 1151 
L 1850 790 
C 1850 347 1677 51 1408 51 
C 1222 51 966 179 966 765 
L 966 2585 
z
" id="CMR17-74" transform="scale(0.015625)"/>
       <path d="M 2496 2183 
C 2656 2579 2944 2585 3034 2585 
L 3034 2752 
C 2912 2745 2752 2739 2630 2739 
C 2496 2739 2285 2739 2157 2752 
L 2157 2585 
C 2400 2566 2406 2384 2406 2332 
C 2406 2268 2394 2235 2362 2158 
L 1664 409 
L 902 2300 
C 870 2378 870 2423 870 2430 
C 870 2572 1018 2585 1171 2585 
L 1171 2752 
C 1018 2739 742 2739 582 2739 
C 410 2739 205 2739 64 2752 
L 64 2585 
C 410 2585 448 2553 531 2345 
L 1485 -31 
C 1197 -795 1030 -1242 627 -1242 
C 557 -1242 397 -1223 282 -1106 
C 429 -1093 493 -1002 493 -892 
C 493 -782 416 -685 288 -685 
C 147 -685 77 -782 77 -899 
C 77 -1158 339 -1344 627 -1344 
C 998 -1344 1229 -983 1357 -659 
L 2496 2183 
z
" id="CMR17-79" transform="scale(0.015625)"/>
       <path d="M 198 -1085 
C 192 -1116 179 -1154 179 -1191 
C 179 -1287 256 -1351 352 -1351 
C 448 -1351 538 -1287 576 -1198 
C 602 -1141 781 -390 986 389 
C 1114 70 1350 -64 1600 -64 
C 2323 -64 3142 830 3142 1794 
C 3142 2477 2726 2816 2285 2816 
C 1722 2816 1037 2234 826 1385 
L 198 -1085 
z
M 1594 64 
C 1158 64 1050 568 1050 645 
C 1050 683 1210 1289 1229 1385 
C 1555 2656 2182 2687 2278 2687 
C 2566 2687 2726 2426 2726 2049 
C 2726 1724 2554 1091 2445 823 
C 2253 383 1920 64 1594 64 
z
" id="CMMI12-1a" transform="scale(0.015625)"/>
      </defs>
      <use transform="scale(0.996264)" xlink:href="#CMR17-44"/>
      <use transform="translate(70.393556 0)scale(0.996264)" xlink:href="#CMR17-65"/>
      <use transform="translate(110.879216 0)scale(0.996264)" xlink:href="#CMR17-6e"/>
      <use transform="translate(161.774586 0)scale(0.996264)" xlink:href="#CMR17-73"/>
      <use transform="translate(197.575924 0)scale(0.996264)" xlink:href="#CMR17-69"/>
      <use transform="translate(222.446982 0)scale(0.996264)" xlink:href="#CMR17-74"/>
      <use transform="translate(255.125296 0)scale(0.996264)" xlink:href="#CMR17-79"/>
      <use transform="translate(333.494178 0)scale(0.996264)" xlink:href="#CMMI12-1a"/>
     </g>
    </g>
   </g>
   <g id="line2d_26">
    <path clip-path="url(#p7833ac5e28)" d="M 273.37707 16.662516 
L 274.974591 17.786893 
L 276.572111 20.714107 
L 278.169631 25.407662 
L 279.767152 31.62651 
L 281.364672 39.055494 
L 282.962192 47.334429 
L 284.559713 56.08712 
L 286.157233 64.950229 
L 287.754753 73.599249 
L 289.352274 81.768765 
L 290.949794 89.264768 
L 292.547315 95.967978 
L 294.144835 101.828639 
L 295.742355 106.854768 
L 297.339876 111.096793 
L 298.937396 114.631694 
L 300.534916 117.549054 
L 302.132437 119.940402 
L 303.729957 121.892131 
L 305.327477 123.481557 
L 306.924998 124.77533 
L 308.522518 125.829402 
L 310.120038 126.689872 
L 311.717559 127.394232 
L 313.315079 127.972713 
L 314.9126 128.449567 
L 316.51012 128.844194 
L 318.10764 129.172097 
L 319.705161 129.445679 
L 321.302681 129.674873 
L 322.900201 129.867655 
L 324.497722 130.030449 
L 326.095242 130.168447 
L 327.692762 130.285858 
L 329.290283 130.386109 
L 330.887803 130.472002 
L 332.485323 130.545834 
L 334.082844 130.609499 
L 335.680364 130.66456 
L 337.277884 130.712316 
L 338.875405 130.75385 
L 340.472925 130.790067 
L 342.070446 130.821725 
L 343.667966 130.849463 
L 345.265486 130.873821 
L 346.863007 130.895257 
L 348.460527 130.914159 
L 350.058047 130.93086 
L 351.655568 130.945642 
L 353.253088 130.95875 
L 354.850608 130.970391 
L 356.448129 130.980746 
L 358.045649 130.989971 
L 359.643169 130.998202 
L 361.24069 131.005554 
L 362.83821 131.01213 
L 364.43573 131.018019 
L 366.033251 131.0233 
L 367.630771 131.028038 
L 369.228292 131.032296 
L 370.825812 131.036125 
L 372.423332 131.039571 
L 374.020853 131.042675 
L 375.618373 131.045473 
L 377.215893 131.047998 
L 378.813414 131.050277 
L 380.410934 131.052336 
L 382.008454 131.054197 
L 383.605975 131.055879 
L 385.203495 131.057402 
L 386.801015 131.058779 
L 388.398536 131.060027 
L 389.996056 131.061157 
L 391.593576 131.06218 
L 393.191097 131.063107 
L 394.788617 131.063948 
L 396.386138 131.064709 
L 397.983658 131.0654 
L 399.581178 131.066025 
L 401.178699 131.066593 
L 402.776219 131.067106 
L 404.373739 131.067572 
L 405.97126 131.067994 
L 407.56878 131.068376 
L 409.1663 131.068721 
L 410.763821 131.069034 
L 412.361341 131.069317 
L 413.958861 131.069573 
L 415.556382 131.069804 
L 417.153902 131.070013 
L 418.751422 131.070201 
L 420.348943 131.07037 
L 421.946463 131.070523 
L 423.543984 131.07066 
L 425.141504 131.070783 
L 426.739024 131.070894 
L 428.336545 131.070993 
L 429.934065 131.071081 
L 431.531585 131.07116 
L 433.129106 131.071231 
" style="fill:none;stroke:#000000;stroke-linecap:square;stroke-width:1.5;"/>
   </g>
   <g id="line2d_27">
    <path clip-path="url(#p7833ac5e28)" d="M 274.974591 17.752461 
L 276.572111 19.264219 
L 278.169631 22.075151 
L 279.767152 25.911474 
L 281.364672 30.609061 
L 282.962192 35.996106 
L 284.559713 41.890234 
L 286.157233 48.10661 
L 287.754753 54.467621 
L 289.352274 60.811801 
L 290.949794 67.000884 
L 292.547315 72.924321 
L 294.144835 78.500983 
L 295.742355 83.678222 
L 297.339876 88.428822 
L 298.937396 92.746588 
L 300.534916 96.641397 
L 302.132437 100.134382 
L 303.729957 103.253716 
L 305.327477 106.031223 
L 306.924998 108.499858 
L 308.522518 110.691956 
L 310.120038 112.638132 
L 311.717559 114.366649 
L 313.315079 115.903144 
L 314.9126 117.270572 
L 316.51012 118.489297 
L 318.10764 119.57727 
L 319.705161 120.550244 
L 321.302681 121.421998 
L 322.900201 122.204565 
L 324.497722 122.908443 
L 326.095242 123.54279 
L 327.692762 124.115594 
L 329.290283 124.633831 
L 330.887803 125.103598 
L 332.485323 125.530228 
L 334.082844 125.918398 
L 335.680364 126.272209 
L 337.277884 126.595271 
L 338.875405 126.89076 
L 340.472925 127.161479 
L 342.070446 127.409906 
L 343.667966 127.638234 
L 345.265486 127.848411 
L 346.863007 128.042166 
L 348.460527 128.221038 
L 350.058047 128.386401 
L 351.655568 128.539482 
L 353.253088 128.681379 
L 354.850608 128.813077 
L 356.448129 128.93546 
L 358.045649 129.049323 
L 359.643169 129.155382 
L 361.24069 129.254285 
L 362.83821 129.346615 
L 364.43573 129.432901 
L 366.033251 129.513622 
L 367.630771 129.589212 
L 369.228292 129.660069 
L 370.825812 129.72655 
L 372.423332 129.788983 
L 374.020853 129.847669 
L 375.618373 129.902881 
L 377.215893 129.954867 
L 378.813414 130.003858 
L 380.410934 130.050063 
L 382.008454 130.093675 
L 383.605975 130.134872 
L 385.203495 130.173815 
L 386.801015 130.210656 
L 388.398536 130.245532 
L 389.996056 130.278571 
L 391.593576 130.309892 
L 393.191097 130.339602 
L 394.788617 130.367804 
L 396.386138 130.394591 
L 397.983658 130.420049 
L 399.581178 130.444259 
L 401.178699 130.467296 
L 402.776219 130.489229 
L 404.373739 130.510123 
L 405.97126 130.530037 
L 407.56878 130.549029 
L 409.1663 130.56715 
L 410.763821 130.58445 
L 412.361341 130.600973 
L 413.958861 130.616763 
L 415.556382 130.631859 
L 417.153902 130.6463 
L 418.751422 130.660118 
L 420.348943 130.673348 
L 421.946463 130.686021 
L 423.543984 130.698164 
L 425.141504 130.709806 
L 426.739024 130.720971 
L 428.336545 130.731684 
L 429.934065 130.741967 
L 431.531585 130.751841 
L 433.129106 130.761326 
" style="fill:none;stroke:#000000;stroke-dasharray:5.55,2.4;stroke-dashoffset:0;stroke-width:1.5;"/>
   </g>
   <g id="line2d_28">
    <path clip-path="url(#p7833ac5e28)" d="M 273.37707 16.662516 
L 274.974591 16.662516 
L 276.572111 18.052711 
L 278.169631 20.10601 
L 279.767152 22.840102 
L 281.364672 26.207886 
L 282.962192 30.13501 
L 284.559713 34.533595 
L 286.157233 39.308903 
L 287.754753 44.364172 
L 289.352274 49.60457 
L 290.949794 54.940409 
L 292.547315 60.28964 
L 294.144835 65.579598 
L 295.742355 70.748054 
L 297.339876 75.743639 
L 298.937396 80.52572 
L 300.534916 85.063867 
L 302.132437 89.337009 
L 303.729957 93.332384 
L 305.327477 97.044396 
L 306.924998 100.473435 
L 308.522518 103.624743 
L 310.120038 106.507346 
L 311.717559 109.133099 
L 313.315079 111.515849 
L 314.9126 113.670728 
L 316.51012 115.613552 
L 318.10764 117.360356 
L 319.705161 118.927016 
L 321.302681 120.328965 
L 322.900201 121.58099 
L 324.497722 122.697086 
L 326.095242 123.690373 
L 327.692762 124.573042 
L 329.290283 125.356345 
L 330.887803 126.050602 
L 332.485323 126.665228 
L 334.082844 127.208777 
L 335.680364 127.688989 
L 337.277884 128.11284 
L 338.875405 128.486608 
L 340.472925 128.815917 
L 342.070446 129.105805 
L 343.667966 129.360769 
L 345.265486 129.584819 
L 346.863007 129.781524 
L 348.460527 129.954061 
L 350.058047 130.105248 
L 351.655568 130.23759 
L 353.253088 130.353305 
L 354.850608 130.454361 
L 356.448129 130.542497 
L 358.045649 130.619257 
L 359.643169 130.686004 
L 361.24069 130.743945 
L 362.83821 130.794146 
L 364.43573 130.83755 
L 366.033251 130.87499 
L 367.630771 130.907203 
L 369.228292 130.934839 
L 370.825812 130.958472 
L 372.423332 130.978609 
L 374.020853 130.995698 
L 375.618373 131.010135 
L 377.215893 131.022268 
L 378.813414 131.032404 
L 380.410934 131.040817 
L 382.008454 131.047744 
L 383.605975 131.053397 
L 385.203495 131.057961 
L 386.801015 131.061602 
L 388.398536 131.064462 
L 389.996056 131.066669 
L 391.593576 131.068333 
L 393.191097 131.069554 
L 394.788617 131.070417 
L 396.386138 131.070997 
L 397.983658 131.071361 
L 399.581178 131.071565 
L 401.178699 131.07166 
L 402.776219 131.07169 
" style="fill:none;stroke:#000000;stroke-dasharray:1.5,2.475;stroke-dashoffset:0;stroke-width:1.5;"/>
   </g>
   <g id="line2d_29">
    <path clip-path="url(#p7833ac5e28)" d="M 274.974591 16.527223 
L 276.572111 17.319132 
L 278.169631 18.617343 
L 279.767152 20.310157 
L 281.364672 22.403045 
L 282.962192 24.86508 
L 284.559713 27.659262 
L 286.157233 30.742401 
L 287.754753 34.068502 
L 289.352274 37.590458 
L 290.949794 41.261617 
L 292.547315 45.037011 
L 294.144835 48.87436 
L 295.742355 52.734789 
L 297.339876 56.583366 
L 298.937396 60.389372 
L 300.534916 64.126415 
L 302.132437 67.772386 
L 303.729957 71.309281 
L 305.327477 74.722938 
L 306.924998 78.002718 
L 308.522518 81.141132 
L 310.120038 84.133462 
L 311.717559 86.977383 
L 313.315079 89.672593 
L 314.9126 92.22047 
L 316.51012 94.623765 
L 318.10764 96.886301 
L 319.705161 99.012731 
L 321.302681 101.008335 
L 322.900201 102.878814 
L 324.497722 104.630134 
L 326.095242 106.268417 
L 327.692762 107.799811 
L 329.290283 109.230417 
L 330.887803 110.566226 
L 332.485323 111.813055 
L 334.082844 112.976522 
L 335.680364 114.062008 
L 337.277884 115.074649 
L 338.875405 116.019317 
L 340.472925 116.900622 
L 342.070446 117.722906 
L 343.667966 118.490251 
L 345.265486 119.206484 
L 346.863007 119.875182 
L 348.460527 120.499691 
L 350.058047 121.083126 
L 351.655568 121.628389 
L 353.253088 122.138181 
L 354.850608 122.61501 
L 356.448129 123.061205 
L 358.045649 123.47893 
L 359.643169 123.870188 
L 361.24069 124.236839 
L 362.83821 124.580607 
L 364.43573 124.903087 
L 366.033251 125.205761 
L 367.630771 125.489999 
L 369.228292 125.757071 
L 370.825812 126.008153 
L 372.423332 126.244337 
L 374.020853 126.466633 
L 375.618373 126.675977 
L 377.215893 126.873239 
L 378.813414 127.059223 
L 380.410934 127.234677 
L 382.008454 127.400294 
L 383.605975 127.556717 
L 385.203495 127.704545 
L 386.801015 127.844331 
L 388.398536 127.976592 
L 389.996056 128.101808 
L 391.593576 128.220423 
L 393.191097 128.332853 
L 394.788617 128.439483 
L 396.386138 128.540674 
L 397.983658 128.636759 
L 399.581178 128.728051 
L 401.178699 128.814841 
L 402.776219 128.8974 
" style="fill:none;stroke:#000000;stroke-dasharray:1.5,7.5;stroke-dashoffset:0;stroke-width:1.5;"/>
   </g>
   <g id="patch_9">
    <path d="M 265.389469 136.798913 
L 265.389469 10.8 
" style="fill:none;stroke:#000000;stroke-linecap:square;stroke-linejoin:miter;stroke-width:0.8;"/>
   </g>
   <g id="patch_10">
    <path d="M 441.116707 136.798913 
L 441.116707 10.8 
" style="fill:none;stroke:#000000;stroke-linecap:square;stroke-linejoin:miter;stroke-width:0.8;"/>
   </g>
   <g id="patch_11">
    <path d="M 265.389469 136.798913 
L 441.116707 136.798913 
" style="fill:none;stroke:#000000;stroke-linecap:square;stroke-linejoin:miter;stroke-width:0.8;"/>
   </g>
   <g id="patch_12">
    <path d="M 265.389469 10.8 
L 441.116707 10.8 
" style="fill:none;stroke:#000000;stroke-linecap:square;stroke-linejoin:miter;stroke-width:0.8;"/>
   </g>
   <g id="legend_2">
    <g id="patch_13">
     <path d="M 380.209054 74.548713 
L 434.116707 74.548713 
Q 436.116707 74.548713 436.116707 72.548713 
L 436.116707 17.8 
Q 436.116707 15.8 434.116707 15.8 
L 380.209054 15.8 
Q 378.209054 15.8 378.209054 17.8 
L 378.209054 72.548713 
Q 378.209054 74.548713 380.209054 74.548713 
z
" style="fill:#ffffff;opacity:0.8;stroke:#cccccc;stroke-linejoin:miter;"/>
    </g>
    <g id="line2d_30">
     <path d="M 382.209054 23.3 
L 402.209054 23.3 
" style="fill:none;stroke:#000000;stroke-linecap:square;stroke-width:1.5;"/>
    </g>
    <g id="line2d_31"/>
    <g id="text_26">
     <!-- $\rho_{TOV}$ -->
     <g transform="translate(410.209054 26.8)scale(0.1 -0.1)">
      <use transform="scale(0.996264)" xlink:href="#CMMI12-1a"/>
      <use transform="translate(50.314373 -14.943915)scale(0.697382)" xlink:href="#CMMI12-54"/>
      <use transform="translate(99.820695 -14.943915)scale(0.697382)" xlink:href="#CMMI12-4f"/>
      <use transform="translate(153.902723 -14.943915)scale(0.697382)" xlink:href="#CMMI12-56"/>
     </g>
    </g>
    <g id="line2d_32">
     <path d="M 382.209054 37.237178 
L 402.209054 37.237178 
" style="fill:none;stroke:#000000;stroke-dasharray:5.55,2.4;stroke-dashoffset:0;stroke-width:1.5;"/>
    </g>
    <g id="line2d_33"/>
    <g id="text_27">
     <!-- $\bar{\rho}_{TOV}$ -->
     <g transform="translate(410.209054 40.737178)scale(0.1 -0.1)">
      <defs>
       <path d="M 2554 3520 
L 2554 3667 
L 378 3667 
L 378 3520 
L 2554 3520 
z
" id="CMR17-16" transform="scale(0.015625)"/>
      </defs>
      <use transform="translate(10.441101 0.006461)scale(0.996264)" xlink:href="#CMR17-16"/>
      <use transform="scale(0.996264)" xlink:href="#CMMI12-1a"/>
      <use transform="translate(50.314373 -14.943915)scale(0.697382)" xlink:href="#CMMI12-54"/>
      <use transform="translate(99.820695 -14.943915)scale(0.697382)" xlink:href="#CMMI12-4f"/>
      <use transform="translate(153.902723 -14.943915)scale(0.697382)" xlink:href="#CMMI12-56"/>
     </g>
    </g>
    <g id="line2d_34">
     <path d="M 382.209054 51.174357 
L 402.209054 51.174357 
" style="fill:none;stroke:#000000;stroke-dasharray:1.5,2.475;stroke-dashoffset:0;stroke-width:1.5;"/>
    </g>
    <g id="line2d_35"/>
    <g id="text_28">
     <!-- $\rho_{LE}$ -->
     <g transform="translate(410.209054 54.674357)scale(0.1 -0.1)">
      <use transform="scale(0.996264)" xlink:href="#CMMI12-1a"/>
      <use transform="translate(50.314373 -14.943915)scale(0.697382)" xlink:href="#CMMI12-4c"/>
      <use transform="translate(96.773787 -14.943915)scale(0.697382)" xlink:href="#CMMI12-45"/>
     </g>
    </g>
    <g id="line2d_36">
     <path d="M 382.209054 65.111535 
L 402.209054 65.111535 
" style="fill:none;stroke:#000000;stroke-dasharray:1.5,7.5;stroke-dashoffset:0;stroke-width:1.5;"/>
    </g>
    <g id="line2d_37"/>
    <g id="text_29">
     <!-- $\bar{\rho}_{LE}$ -->
     <g transform="translate(410.209054 68.611535)scale(0.1 -0.1)">
      <use transform="translate(10.441101 0.006461)scale(0.996264)" xlink:href="#CMR17-16"/>
      <use transform="scale(0.996264)" xlink:href="#CMMI12-1a"/>
      <use transform="translate(50.314373 -14.943915)scale(0.697382)" xlink:href="#CMMI12-4c"/>
      <use transform="translate(96.773787 -14.943915)scale(0.697382)" xlink:href="#CMMI12-45"/>
     </g>
    </g>
   </g>
  </g>
  <g id="axes_3">
   <g id="patch_14">
    <path d="M 43.45781 300.5975 
L 219.185049 300.5975 
L 219.185049 174.598587 
L 43.45781 174.598587 
z
" style="fill:#ffffff;"/>
   </g>
   <g id="matplotlib.axis_5">
    <g id="xtick_11">
     <g id="line2d_38">
      <g>
       <use style="stroke:#000000;stroke-width:0.8;" x="51.445412" xlink:href="#md606fdf8d0" y="300.5975"/>
      </g>
     </g>
     <g id="text_30">
      <!-- $\mathdefault{0.00}$ -->
      <g transform="translate(42.589705 314.515999)scale(0.1 -0.1)">
       <use transform="scale(0.996264)" xlink:href="#CMR17-30"/>
       <use transform="translate(45.690477 0)scale(0.996264)" xlink:href="#CMMI12-3a"/>
       <use transform="translate(72.787654 0)scale(0.996264)" xlink:href="#CMR17-30"/>
       <use transform="translate(118.478131 0)scale(0.996264)" xlink:href="#CMR17-30"/>
      </g>
     </g>
    </g>
    <g id="xtick_12">
     <g id="line2d_39">
      <g>
       <use style="stroke:#000000;stroke-width:0.8;" x="91.383421" xlink:href="#md606fdf8d0" y="300.5975"/>
      </g>
     </g>
     <g id="text_31">
      <!-- $\mathdefault{0.25}$ -->
      <g transform="translate(82.527713 314.515999)scale(0.1 -0.1)">
       <use transform="scale(0.996264)" xlink:href="#CMR17-30"/>
       <use transform="translate(45.690477 0)scale(0.996264)" xlink:href="#CMMI12-3a"/>
       <use transform="translate(72.787654 0)scale(0.996264)" xlink:href="#CMR17-32"/>
       <use transform="translate(118.478131 0)scale(0.996264)" xlink:href="#CMR17-35"/>
      </g>
     </g>
    </g>
    <g id="xtick_13">
     <g id="line2d_40">
      <g>
       <use style="stroke:#000000;stroke-width:0.8;" x="131.321429" xlink:href="#md606fdf8d0" y="300.5975"/>
      </g>
     </g>
     <g id="text_32">
      <!-- $\mathdefault{0.50}$ -->
      <g transform="translate(122.465722 314.515999)scale(0.1 -0.1)">
       <use transform="scale(0.996264)" xlink:href="#CMR17-30"/>
       <use transform="translate(45.690477 0)scale(0.996264)" xlink:href="#CMMI12-3a"/>
       <use transform="translate(72.787654 0)scale(0.996264)" xlink:href="#CMR17-35"/>
       <use transform="translate(118.478131 0)scale(0.996264)" xlink:href="#CMR17-30"/>
      </g>
     </g>
    </g>
    <g id="xtick_14">
     <g id="line2d_41">
      <g>
       <use style="stroke:#000000;stroke-width:0.8;" x="171.259438" xlink:href="#md606fdf8d0" y="300.5975"/>
      </g>
     </g>
     <g id="text_33">
      <!-- $\mathdefault{0.75}$ -->
      <g transform="translate(162.403731 314.515999)scale(0.1 -0.1)">
       <use transform="scale(0.996264)" xlink:href="#CMR17-30"/>
       <use transform="translate(45.690477 0)scale(0.996264)" xlink:href="#CMMI12-3a"/>
       <use transform="translate(72.787654 0)scale(0.996264)" xlink:href="#CMR17-37"/>
       <use transform="translate(118.478131 0)scale(0.996264)" xlink:href="#CMR17-35"/>
      </g>
     </g>
    </g>
    <g id="xtick_15">
     <g id="line2d_42">
      <g>
       <use style="stroke:#000000;stroke-width:0.8;" x="211.197447" xlink:href="#md606fdf8d0" y="300.5975"/>
      </g>
     </g>
     <g id="text_34">
      <!-- $\mathdefault{1.00}$ -->
      <g transform="translate(202.34174 314.515999)scale(0.1 -0.1)">
       <use transform="scale(0.996264)" xlink:href="#CMR17-31"/>
       <use transform="translate(45.690477 0)scale(0.996264)" xlink:href="#CMMI12-3a"/>
       <use transform="translate(72.787654 0)scale(0.996264)" xlink:href="#CMR17-30"/>
       <use transform="translate(118.478131 0)scale(0.996264)" xlink:href="#CMR17-30"/>
      </g>
     </g>
    </g>
    <g id="text_35">
     <!-- Radius $r$ -->
     <g transform="translate(112.37278 327.371675)scale(0.1 -0.1)">
      <use transform="scale(0.996264)" xlink:href="#CMR17-52"/>
      <use transform="translate(67.791102 0)scale(0.996264)" xlink:href="#CMR17-61"/>
      <use transform="translate(113.481579 0)scale(0.996264)" xlink:href="#CMR17-64"/>
      <use transform="translate(164.376949 0)scale(0.996264)" xlink:href="#CMR17-69"/>
      <use transform="translate(189.248007 0)scale(0.996264)" xlink:href="#CMR17-75"/>
      <use transform="translate(240.143377 0)scale(0.996264)" xlink:href="#CMR17-73"/>
      <use transform="translate(306.020681 0)scale(0.996264)" xlink:href="#CMMI12-72"/>
     </g>
    </g>
   </g>
   <g id="matplotlib.axis_6">
    <g id="ytick_10">
     <g id="line2d_43">
      <g>
       <use style="stroke:#000000;stroke-width:0.8;" x="43.45781" xlink:href="#m8830142fc8" y="294.870277"/>
      </g>
     </g>
     <g id="text_36">
      <!-- $\mathdefault{0.0}$ -->
      <g transform="translate(23.727731 298.329526)scale(0.1 -0.1)">
       <use transform="scale(0.996264)" xlink:href="#CMR17-30"/>
       <use transform="translate(45.690477 0)scale(0.996264)" xlink:href="#CMMI12-3a"/>
       <use transform="translate(72.787654 0)scale(0.996264)" xlink:href="#CMR17-30"/>
      </g>
     </g>
    </g>
    <g id="ytick_11">
     <g id="line2d_44">
      <g>
       <use style="stroke:#000000;stroke-width:0.8;" x="43.45781" xlink:href="#m8830142fc8" y="254.622605"/>
      </g>
     </g>
     <g id="text_37">
      <!-- $\mathdefault{0.1}$ -->
      <g transform="translate(23.727731 258.081854)scale(0.1 -0.1)">
       <use transform="scale(0.996264)" xlink:href="#CMR17-30"/>
       <use transform="translate(45.690477 0)scale(0.996264)" xlink:href="#CMMI12-3a"/>
       <use transform="translate(72.787654 0)scale(0.996264)" xlink:href="#CMR17-31"/>
      </g>
     </g>
    </g>
    <g id="ytick_12">
     <g id="line2d_45">
      <g>
       <use style="stroke:#000000;stroke-width:0.8;" x="43.45781" xlink:href="#m8830142fc8" y="214.374933"/>
      </g>
     </g>
     <g id="text_38">
      <!-- $\mathdefault{0.2}$ -->
      <g transform="translate(23.727731 217.834182)scale(0.1 -0.1)">
       <use transform="scale(0.996264)" xlink:href="#CMR17-30"/>
       <use transform="translate(45.690477 0)scale(0.996264)" xlink:href="#CMMI12-3a"/>
       <use transform="translate(72.787654 0)scale(0.996264)" xlink:href="#CMR17-32"/>
      </g>
     </g>
    </g>
    <g id="text_39">
     <!-- Mass $m$ -->
     <g transform="translate(17.790553 254.618742)rotate(-90)scale(0.1 -0.1)">
      <defs>
       <path d="M 1338 4249 
C 1299 4345 1293 4352 1158 4352 
L 339 4352 
L 339 4185 
C 781 4185 851 4185 851 3898 
L 851 624 
C 851 465 851 166 339 166 
L 339 0 
C 486 12 755 12 915 12 
C 1075 12 1344 12 1491 0 
L 1491 166 
C 979 166 979 465 979 624 
L 979 4159 
L 986 4159 
L 2490 102 
C 2515 38 2528 0 2579 0 
C 2630 0 2643 38 2669 102 
L 4186 4191 
L 4192 4191 
L 4192 453 
C 4192 166 4122 166 3680 166 
L 3680 0 
C 3853 12 4198 12 4384 12 
C 4570 12 4922 12 5094 0 
L 5094 166 
C 4653 166 4582 166 4582 453 
L 4582 3898 
C 4582 4185 4653 4185 5094 4185 
L 5094 4352 
L 4282 4352 
C 4147 4352 4141 4345 4102 4249 
L 2720 516 
L 1338 4249 
z
" id="CMR17-4d" transform="scale(0.015625)"/>
       <path d="M 1318 1870 
C 1331 1909 1491 2228 1728 2432 
C 1894 2585 2112 2687 2362 2687 
C 2618 2687 2707 2496 2707 2241 
C 2707 2202 2707 2075 2630 1775 
L 2470 1117 
C 2419 925 2298 453 2285 383 
C 2259 287 2221 121 2221 95 
C 2221 6 2291 -64 2387 -64 
C 2579 -64 2611 83 2669 313 
L 3053 1838 
C 3066 1890 3398 2687 4102 2687 
C 4358 2687 4448 2496 4448 2241 
C 4448 1883 4198 1187 4058 804 
C 4000 651 3968 568 3968 453 
C 3968 166 4166 -64 4474 -64 
C 5069 -64 5293 874 5293 913 
C 5293 945 5267 970 5229 970 
C 5171 970 5165 951 5133 842 
C 4986 332 4749 64 4493 64 
C 4429 64 4326 70 4326 274 
C 4326 440 4403 645 4429 715 
C 4544 1021 4832 1775 4832 2145 
C 4832 2528 4608 2816 4122 2816 
C 3693 2816 3347 2573 3091 2196 
C 3072 2541 2861 2816 2381 2816 
C 1811 2816 1510 2413 1395 2253 
C 1376 2617 1114 2816 832 2816 
C 646 2816 499 2726 378 2483 
C 262 2253 173 1864 173 1838 
C 173 1813 198 1781 243 1781 
C 294 1781 301 1787 339 1934 
C 435 2311 557 2687 813 2687 
C 960 2687 1011 2585 1011 2394 
C 1011 2253 947 2004 902 1807 
L 723 1117 
C 698 996 627 708 595 593 
C 550 427 480 127 480 95 
C 480 6 550 -64 646 -64 
C 723 -64 813 -26 864 70 
C 877 102 934 325 966 453 
L 1107 1028 
L 1318 1870 
z
" id="CMMI12-6d" transform="scale(0.015625)"/>
      </defs>
      <use transform="scale(0.996264)" xlink:href="#CMR17-4d"/>
      <use transform="translate(84.686941 0)scale(0.996264)" xlink:href="#CMR17-61"/>
      <use transform="translate(130.377418 0)scale(0.996264)" xlink:href="#CMR17-73"/>
      <use transform="translate(166.178755 0)scale(0.996264)" xlink:href="#CMR17-73"/>
      <use transform="translate(232.056059 0)scale(0.996264)" xlink:href="#CMMI12-6d"/>
     </g>
    </g>
   </g>
   <g id="line2d_46">
    <path clip-path="url(#p0d163ea383)" d="M 51.445412 294.870277 
L 53.042932 294.859044 
L 54.640452 294.78161 
L 56.237973 294.578549 
L 57.835493 294.203113 
L 59.433014 293.625431 
L 61.030534 292.83453 
L 62.628054 291.837994 
L 64.225575 290.65946 
L 65.823095 289.334477 
L 67.420615 287.90548 
L 69.018136 286.416724 
L 70.615656 284.909922 
L 72.213176 283.421083 
L 73.810697 281.978772 
L 75.408217 280.603653 
L 77.005737 279.309033 
L 78.603258 278.101997 
L 80.200778 276.984777 
L 81.798298 275.956104 
L 83.395819 275.012371 
L 84.993339 274.14856 
L 86.59086 273.35893 
L 88.18838 272.637498 
L 89.7859 271.97835 
L 91.383421 271.375839 
L 92.980941 270.824688 
L 94.578461 270.320042 
L 96.175982 269.857481 
L 97.773502 269.433005 
L 99.371022 269.043016 
L 100.968543 268.684283 
L 102.566063 268.35391 
L 104.163583 268.049304 
L 105.761104 267.768143 
L 107.358624 267.508345 
L 108.956144 267.268044 
L 110.553665 267.045562 
L 112.151185 266.839392 
L 113.748706 266.648178 
L 115.346226 266.470693 
L 116.943746 266.305833 
L 118.541267 266.152594 
L 120.138787 266.010069 
L 121.736307 265.877434 
L 123.333828 265.753938 
L 124.931348 265.638898 
L 126.528868 265.531688 
L 128.126389 265.43174 
L 129.723909 265.338531 
L 131.321429 265.251582 
L 132.91895 265.170452 
L 134.51647 265.094738 
L 136.113991 265.024067 
L 137.711511 264.958095 
L 139.309031 264.896506 
L 140.906552 264.839005 
L 142.504072 264.785322 
L 144.101592 264.735205 
L 145.699113 264.688422 
L 147.296633 264.644754 
L 148.894153 264.604001 
L 150.491674 264.565976 
L 152.089194 264.530505 
L 153.686714 264.497423 
L 155.284235 264.46658 
L 156.881755 264.437835 
L 158.479275 264.411054 
L 160.076796 264.386114 
L 161.674316 264.362899 
L 163.271837 264.3413 
L 164.869357 264.321216 
L 166.466877 264.302552 
L 168.064398 264.285218 
L 169.661918 264.269131 
L 171.259438 264.254211 
L 172.856959 264.240384 
L 174.454479 264.227582 
L 176.051999 264.215737 
L 177.64952 264.20479 
L 179.24704 264.194682 
L 180.84456 264.185359 
L 182.442081 264.176769 
L 184.039601 264.168864 
L 185.637121 264.161598 
L 187.234642 264.15493 
L 188.832162 264.148817 
L 190.429683 264.143224 
L 192.027203 264.138112 
L 193.624723 264.13345 
L 195.222244 264.129205 
L 196.819764 264.125347 
L 198.417284 264.121848 
L 200.014805 264.118681 
L 201.612325 264.115822 
L 203.209845 264.113247 
L 204.807366 264.110934 
L 206.404886 264.108862 
L 208.002406 264.107011 
L 209.599927 264.105364 
L 211.197447 264.103903 
" style="fill:none;stroke:#000000;stroke-linecap:square;stroke-width:1.5;"/>
   </g>
   <g id="line2d_47">
    <path clip-path="url(#p0d163ea383)" d="M 51.445412 294.870277 
L 53.042932 294.858922 
L 54.640452 294.780068 
L 56.237973 294.569295 
L 57.835493 294.167577 
L 59.433014 293.523749 
L 61.030534 292.596194 
L 62.628054 291.354123 
L 64.225575 289.778156 
L 65.823095 287.860333 
L 67.420615 285.60357 
L 69.018136 283.020665 
L 70.615656 280.132964 
L 72.213176 276.968803 
L 73.810697 273.561844 
L 75.408217 269.949418 
L 77.005737 266.170947 
L 78.603258 262.266515 
L 80.200778 258.275638 
L 81.798298 254.236244 
L 83.395819 250.183882 
L 84.993339 246.15114 
L 86.59086 242.167259 
L 88.18838 238.257922 
L 89.7859 234.445192 
L 91.383421 230.747558 
L 92.980941 227.180087 
L 94.578461 223.754634 
L 96.175982 220.480089 
L 97.773502 217.362648 
L 99.371022 214.40616 
L 100.968543 211.612366 
L 102.566063 208.98119 
L 104.163583 206.51106 
L 105.761104 204.199098 
L 107.358624 202.041391 
L 108.956144 200.033201 
L 110.553665 198.169106 
L 112.151185 196.443224 
L 113.748706 194.849301 
L 115.346226 193.38087 
L 116.943746 192.031333 
L 118.541267 190.794051 
L 120.138787 189.662426 
L 121.736307 188.629941 
L 123.333828 187.69023 
L 124.931348 186.837091 
L 126.528868 186.064537 
L 128.126389 185.366802 
L 129.723909 184.73836 
L 131.321429 184.173945 
L 132.91895 183.668539 
L 134.51647 183.217381 
L 136.113991 182.815996 
L 137.711511 182.460124 
L 139.309031 182.145781 
L 140.906552 181.869233 
L 142.504072 181.626968 
L 144.101592 181.415717 
L 145.699113 181.232425 
L 147.296633 181.074244 
L 148.894153 180.938546 
L 150.491674 180.822887 
L 152.089194 180.725006 
L 153.686714 180.642821 
L 155.284235 180.574431 
L 156.881755 180.518067 
L 158.479275 180.472127 
L 160.076796 180.435164 
L 161.674316 180.405847 
L 163.271837 180.382977 
L 164.869357 180.36549 
L 166.466877 180.352423 
L 168.064398 180.342931 
L 169.661918 180.336264 
L 171.259438 180.331791 
L 172.856959 180.328945 
L 174.454479 180.327266 
L 176.051999 180.32638 
L 177.64952 180.325978 
L 179.24704 180.325842 
L 180.84456 180.32581 
" style="fill:none;stroke:#000000;stroke-dasharray:1.5,2.475;stroke-dashoffset:0;stroke-width:1.5;"/>
   </g>
   <g id="patch_15">
    <path d="M 43.45781 300.5975 
L 43.45781 174.598587 
" style="fill:none;stroke:#000000;stroke-linecap:square;stroke-linejoin:miter;stroke-width:0.8;"/>
   </g>
   <g id="patch_16">
    <path d="M 219.185049 300.5975 
L 219.185049 174.598587 
" style="fill:none;stroke:#000000;stroke-linecap:square;stroke-linejoin:miter;stroke-width:0.8;"/>
   </g>
   <g id="patch_17">
    <path d="M 43.45781 300.5975 
L 219.185049 300.5975 
" style="fill:none;stroke:#000000;stroke-linecap:square;stroke-linejoin:miter;stroke-width:0.8;"/>
   </g>
   <g id="patch_18">
    <path d="M 43.45781 174.598587 
L 219.185049 174.598587 
" style="fill:none;stroke:#000000;stroke-linecap:square;stroke-linejoin:miter;stroke-width:0.8;"/>
   </g>
   <g id="legend_3">
    <g id="patch_19">
     <path d="M 50.45781 210.472944 
L 107.961962 210.472944 
Q 109.961962 210.472944 109.961962 208.472944 
L 109.961962 181.598587 
Q 109.961962 179.598587 107.961962 179.598587 
L 50.45781 179.598587 
Q 48.45781 179.598587 48.45781 181.598587 
L 48.45781 208.472944 
Q 48.45781 210.472944 50.45781 210.472944 
z
" style="fill:#ffffff;opacity:0.8;stroke:#cccccc;stroke-linejoin:miter;"/>
    </g>
    <g id="line2d_48">
     <path d="M 52.45781 187.098587 
L 72.45781 187.098587 
" style="fill:none;stroke:#000000;stroke-linecap:square;stroke-width:1.5;"/>
    </g>
    <g id="line2d_49"/>
    <g id="text_40">
     <!-- $m_{TOV}$ -->
     <g transform="translate(80.45781 190.598587)scale(0.1 -0.1)">
      <use transform="scale(0.996264)" xlink:href="#CMMI12-6d"/>
      <use transform="translate(85.327224 -14.943915)scale(0.697382)" xlink:href="#CMMI12-54"/>
      <use transform="translate(134.833547 -14.943915)scale(0.697382)" xlink:href="#CMMI12-4f"/>
      <use transform="translate(188.915575 -14.943915)scale(0.697382)" xlink:href="#CMMI12-56"/>
     </g>
    </g>
    <g id="line2d_50">
     <path d="M 52.45781 201.035765 
L 72.45781 201.035765 
" style="fill:none;stroke:#000000;stroke-dasharray:1.5,2.475;stroke-dashoffset:0;stroke-width:1.5;"/>
    </g>
    <g id="line2d_51"/>
    <g id="text_41">
     <!-- $m_{LE}$ -->
     <g transform="translate(80.45781 204.535765)scale(0.1 -0.1)">
      <use transform="scale(0.996264)" xlink:href="#CMMI12-6d"/>
      <use transform="translate(85.327224 -14.943915)scale(0.697382)" xlink:href="#CMMI12-4c"/>
      <use transform="translate(131.786638 -14.943915)scale(0.697382)" xlink:href="#CMMI12-45"/>
     </g>
    </g>
   </g>
  </g>
  <g id="axes_4">
   <g id="patch_20">
    <path d="M 265.389469 300.5975 
L 441.116707 300.5975 
L 441.116707 174.598587 
L 265.389469 174.598587 
z
" style="fill:#ffffff;"/>
   </g>
   <g id="matplotlib.axis_7">
    <g id="xtick_16">
     <g id="line2d_52">
      <g>
       <use style="stroke:#000000;stroke-width:0.8;" x="271.763413" xlink:href="#md606fdf8d0" y="300.5975"/>
      </g>
     </g>
     <g id="text_42">
      <!-- $\mathdefault{0.00}$ -->
      <g transform="translate(262.907706 314.515999)scale(0.1 -0.1)">
       <use transform="scale(0.996264)" xlink:href="#CMR17-30"/>
       <use transform="translate(45.690477 0)scale(0.996264)" xlink:href="#CMMI12-3a"/>
       <use transform="translate(72.787654 0)scale(0.996264)" xlink:href="#CMR17-30"/>
       <use transform="translate(118.478131 0)scale(0.996264)" xlink:href="#CMR17-30"/>
      </g>
     </g>
    </g>
    <g id="xtick_17">
     <g id="line2d_53">
      <g>
       <use style="stroke:#000000;stroke-width:0.8;" x="312.104836" xlink:href="#md606fdf8d0" y="300.5975"/>
      </g>
     </g>
     <g id="text_43">
      <!-- $\mathdefault{0.25}$ -->
      <g transform="translate(303.249129 314.515999)scale(0.1 -0.1)">
       <use transform="scale(0.996264)" xlink:href="#CMR17-30"/>
       <use transform="translate(45.690477 0)scale(0.996264)" xlink:href="#CMMI12-3a"/>
       <use transform="translate(72.787654 0)scale(0.996264)" xlink:href="#CMR17-32"/>
       <use transform="translate(118.478131 0)scale(0.996264)" xlink:href="#CMR17-35"/>
      </g>
     </g>
    </g>
    <g id="xtick_18">
     <g id="line2d_54">
      <g>
       <use style="stroke:#000000;stroke-width:0.8;" x="352.44626" xlink:href="#md606fdf8d0" y="300.5975"/>
      </g>
     </g>
     <g id="text_44">
      <!-- $\mathdefault{0.50}$ -->
      <g transform="translate(343.590552 314.515999)scale(0.1 -0.1)">
       <use transform="scale(0.996264)" xlink:href="#CMR17-30"/>
       <use transform="translate(45.690477 0)scale(0.996264)" xlink:href="#CMMI12-3a"/>
       <use transform="translate(72.787654 0)scale(0.996264)" xlink:href="#CMR17-35"/>
       <use transform="translate(118.478131 0)scale(0.996264)" xlink:href="#CMR17-30"/>
      </g>
     </g>
    </g>
    <g id="xtick_19">
     <g id="line2d_55">
      <g>
       <use style="stroke:#000000;stroke-width:0.8;" x="392.787683" xlink:href="#md606fdf8d0" y="300.5975"/>
      </g>
     </g>
     <g id="text_45">
      <!-- $\mathdefault{0.75}$ -->
      <g transform="translate(383.931975 314.515999)scale(0.1 -0.1)">
       <use transform="scale(0.996264)" xlink:href="#CMR17-30"/>
       <use transform="translate(45.690477 0)scale(0.996264)" xlink:href="#CMMI12-3a"/>
       <use transform="translate(72.787654 0)scale(0.996264)" xlink:href="#CMR17-37"/>
       <use transform="translate(118.478131 0)scale(0.996264)" xlink:href="#CMR17-35"/>
      </g>
     </g>
    </g>
    <g id="xtick_20">
     <g id="line2d_56">
      <g>
       <use style="stroke:#000000;stroke-width:0.8;" x="433.129106" xlink:href="#md606fdf8d0" y="300.5975"/>
      </g>
     </g>
     <g id="text_46">
      <!-- $\mathdefault{1.00}$ -->
      <g transform="translate(424.273399 314.515999)scale(0.1 -0.1)">
       <use transform="scale(0.996264)" xlink:href="#CMR17-31"/>
       <use transform="translate(45.690477 0)scale(0.996264)" xlink:href="#CMMI12-3a"/>
       <use transform="translate(72.787654 0)scale(0.996264)" xlink:href="#CMR17-30"/>
       <use transform="translate(118.478131 0)scale(0.996264)" xlink:href="#CMR17-30"/>
      </g>
     </g>
    </g>
    <g id="text_47">
     <!-- Radius $r$ -->
     <g transform="translate(334.304439 327.371675)scale(0.1 -0.1)">
      <use transform="scale(0.996264)" xlink:href="#CMR17-52"/>
      <use transform="translate(67.791102 0)scale(0.996264)" xlink:href="#CMR17-61"/>
      <use transform="translate(113.481579 0)scale(0.996264)" xlink:href="#CMR17-64"/>
      <use transform="translate(164.376949 0)scale(0.996264)" xlink:href="#CMR17-69"/>
      <use transform="translate(189.248007 0)scale(0.996264)" xlink:href="#CMR17-75"/>
      <use transform="translate(240.143377 0)scale(0.996264)" xlink:href="#CMR17-73"/>
      <use transform="translate(306.020681 0)scale(0.996264)" xlink:href="#CMMI12-72"/>
     </g>
    </g>
   </g>
   <g id="matplotlib.axis_8">
    <g id="ytick_13">
     <g id="line2d_57">
      <g>
       <use style="stroke:#000000;stroke-width:0.8;" x="265.389469" xlink:href="#m8830142fc8" y="295.351377"/>
      </g>
     </g>
     <g id="text_48">
      <!-- $\mathdefault{0.0}$ -->
      <g transform="translate(245.65939 298.810626)scale(0.1 -0.1)">
       <use transform="scale(0.996264)" xlink:href="#CMR17-30"/>
       <use transform="translate(45.690477 0)scale(0.996264)" xlink:href="#CMMI12-3a"/>
       <use transform="translate(72.787654 0)scale(0.996264)" xlink:href="#CMR17-30"/>
      </g>
     </g>
    </g>
    <g id="ytick_14">
     <g id="line2d_58">
      <g>
       <use style="stroke:#000000;stroke-width:0.8;" x="265.389469" xlink:href="#m8830142fc8" y="260.876611"/>
      </g>
     </g>
     <g id="text_49">
      <!-- $\mathdefault{0.2}$ -->
      <g transform="translate(245.65939 264.33586)scale(0.1 -0.1)">
       <use transform="scale(0.996264)" xlink:href="#CMR17-30"/>
       <use transform="translate(45.690477 0)scale(0.996264)" xlink:href="#CMMI12-3a"/>
       <use transform="translate(72.787654 0)scale(0.996264)" xlink:href="#CMR17-32"/>
      </g>
     </g>
    </g>
    <g id="ytick_15">
     <g id="line2d_59">
      <g>
       <use style="stroke:#000000;stroke-width:0.8;" x="265.389469" xlink:href="#m8830142fc8" y="226.401845"/>
      </g>
     </g>
     <g id="text_50">
      <!-- $\mathdefault{0.4}$ -->
      <g transform="translate(245.65939 229.861094)scale(0.1 -0.1)">
       <use transform="scale(0.996264)" xlink:href="#CMR17-30"/>
       <use transform="translate(45.690477 0)scale(0.996264)" xlink:href="#CMMI12-3a"/>
       <use transform="translate(72.787654 0)scale(0.996264)" xlink:href="#CMR17-34"/>
      </g>
     </g>
    </g>
    <g id="ytick_16">
     <g id="line2d_60">
      <g>
       <use style="stroke:#000000;stroke-width:0.8;" x="265.389469" xlink:href="#m8830142fc8" y="191.927079"/>
      </g>
     </g>
     <g id="text_51">
      <!-- $\mathdefault{0.6}$ -->
      <g transform="translate(245.65939 195.386328)scale(0.1 -0.1)">
       <use transform="scale(0.996264)" xlink:href="#CMR17-30"/>
       <use transform="translate(45.690477 0)scale(0.996264)" xlink:href="#CMMI12-3a"/>
       <use transform="translate(72.787654 0)scale(0.996264)" xlink:href="#CMR17-36"/>
      </g>
     </g>
    </g>
    <g id="text_52">
     <!-- Mass radius ratio $m/r$ -->
     <g transform="translate(239.16873 286.255954)rotate(-90)scale(0.1 -0.1)">
      <defs>
       <path d="M 2758 1356 
C 2758 2176 2163 2816 1466 2816 
C 768 2816 173 2176 173 1356 
C 173 550 768 -64 1466 -64 
C 2163 -64 2758 550 2758 1356 
z
M 1466 51 
C 1165 51 909 230 762 480 
C 602 768 582 1126 582 1408 
C 582 1676 595 2009 762 2297 
C 890 2508 1139 2713 1466 2713 
C 1754 2713 1997 2553 2150 2329 
C 2349 2028 2349 1606 2349 1408 
C 2349 1158 2336 774 2163 467 
C 1984 172 1709 51 1466 51 
z
" id="CMR17-6f" transform="scale(0.015625)"/>
       <path d="M 2746 4563 
C 2746 4569 2784 4665 2784 4678 
C 2784 4755 2720 4800 2669 4800 
C 2637 4800 2579 4800 2528 4659 
L 384 -1364 
C 384 -1370 346 -1466 346 -1479 
C 346 -1556 410 -1600 461 -1600 
C 499 -1600 557 -1594 602 -1460 
L 2746 4563 
z
" id="CMMI12-3d" transform="scale(0.015625)"/>
      </defs>
      <use transform="scale(0.996264)" xlink:href="#CMR17-4d"/>
      <use transform="translate(84.686941 0)scale(0.996264)" xlink:href="#CMR17-61"/>
      <use transform="translate(130.377418 0)scale(0.996264)" xlink:href="#CMR17-73"/>
      <use transform="translate(166.178755 0)scale(0.996264)" xlink:href="#CMR17-73"/>
      <use transform="translate(232.056059 0)scale(0.996264)" xlink:href="#CMR17-72"/>
      <use transform="translate(267.336827 0)scale(0.996264)" xlink:href="#CMR17-61"/>
      <use transform="translate(313.027304 0)scale(0.996264)" xlink:href="#CMR17-64"/>
      <use transform="translate(363.922674 0)scale(0.996264)" xlink:href="#CMR17-69"/>
      <use transform="translate(388.793732 0)scale(0.996264)" xlink:href="#CMR17-75"/>
      <use transform="translate(439.689102 0)scale(0.996264)" xlink:href="#CMR17-73"/>
      <use transform="translate(505.566406 0)scale(0.996264)" xlink:href="#CMR17-72"/>
      <use transform="translate(540.847174 0)scale(0.996264)" xlink:href="#CMR17-61"/>
      <use transform="translate(586.537651 0)scale(0.996264)" xlink:href="#CMR17-74"/>
      <use transform="translate(621.818419 0)scale(0.996264)" xlink:href="#CMR17-69"/>
      <use transform="translate(646.689477 0)scale(0.996264)" xlink:href="#CMR17-6f"/>
      <use transform="translate(722.455921 0)scale(0.996264)" xlink:href="#CMMI12-6d"/>
      <use transform="translate(807.783145 0)scale(0.996264)" xlink:href="#CMMI12-3d"/>
      <use transform="translate(856.558064 0)scale(0.996264)" xlink:href="#CMMI12-72"/>
     </g>
    </g>
   </g>
   <g id="line2d_61">
    <path clip-path="url(#pd329330f9c)" d="M 273.37707 294.870277 
L 274.990727 293.45265 
L 276.604384 291.186647 
L 278.218041 288.208009 
L 279.831698 284.688457 
L 281.445355 280.820123 
L 283.059012 276.798886 
L 284.672669 272.808627 
L 286.286326 269.008182 
L 287.899983 265.522353 
L 289.51364 262.437644 
L 291.127296 259.802642 
L 292.740953 257.632208 
L 294.35461 255.91417 
L 295.968267 254.617052 
L 297.581924 253.697552 
L 299.195581 253.106878 
L 300.809238 252.79554 
L 302.422895 252.716569 
L 304.036552 252.827386 
L 305.650209 253.090645 
L 307.263866 253.474384 
L 308.877523 253.951745 
L 310.49118 254.500473 
L 312.104836 255.102329 
L 313.718493 255.742491 
L 315.33215 256.409001 
L 316.945807 257.092274 
L 318.559464 257.784672 
L 320.173121 258.480144 
L 321.786778 259.173928 
L 323.400435 259.862308 
L 325.014092 260.542409 
L 326.627749 261.212036 
L 328.241406 261.86954 
L 329.855063 262.51371 
L 331.46872 263.143688 
L 333.082376 263.758893 
L 334.696033 264.358972 
L 336.30969 264.943749 
L 337.923347 265.513186 
L 339.537004 266.067359 
L 341.150661 266.606427 
L 342.764318 267.130618 
L 344.377975 267.64021 
L 345.991632 268.135518 
L 347.605289 268.616886 
L 349.218946 269.084675 
L 350.832603 269.539261 
L 352.44626 269.981025 
L 354.059916 270.410353 
L 355.673573 270.827628 
L 357.28723 271.233233 
L 358.900887 271.627542 
L 360.514544 272.010925 
L 362.128201 272.383743 
L 363.741858 272.746348 
L 365.355515 273.099082 
L 366.969172 273.442279 
L 368.582829 273.776261 
L 370.196486 274.101339 
L 371.810143 274.417815 
L 373.4238 274.725979 
L 375.037456 275.026113 
L 376.651113 275.318487 
L 378.26477 275.603362 
L 379.878427 275.88099 
L 381.492084 276.151611 
L 383.105741 276.415459 
L 384.719398 276.672757 
L 386.333055 276.923722 
L 387.946712 277.168559 
L 389.560369 277.407469 
L 391.174026 277.640644 
L 392.787683 277.868267 
L 394.40134 278.090516 
L 396.014996 278.307562 
L 397.628653 278.519569 
L 399.24231 278.726695 
L 400.855967 278.929092 
L 402.469624 279.126907 
L 404.083281 279.32028 
L 405.696938 279.509347 
L 407.310595 279.694238 
L 408.924252 279.875079 
L 410.537909 280.051992 
L 412.151566 280.225094 
L 413.765223 280.394496 
L 415.37888 280.560307 
L 416.992536 280.722632 
L 418.606193 280.881572 
L 420.21985 281.037223 
L 421.833507 281.189681 
L 423.447164 281.339034 
L 425.060821 281.485372 
L 426.674478 281.628777 
L 428.288135 281.769333 
L 429.901792 281.907116 
L 431.515449 282.042204 
L 433.129106 282.17467 
" style="fill:none;stroke:#000000;stroke-linecap:square;stroke-width:1.5;"/>
   </g>
   <g id="line2d_62">
    <path clip-path="url(#pd329330f9c)" d="M 273.37707 294.865075 
L 274.990727 293.419619 
L 276.604384 291.054525 
L 278.218041 287.82752 
L 279.831698 283.817486 
L 281.445355 279.118869 
L 283.059012 273.838406 
L 284.672669 268.090534 
L 286.286326 261.993177 
L 287.899983 255.66367 
L 289.51364 249.215158 
L 291.127296 242.753573 
L 292.740953 236.375284 
L 294.35461 230.16542 
L 295.968267 224.196888 
L 297.581924 218.529957 
L 299.195581 213.212387 
L 300.809238 208.279976 
L 302.422895 203.757406 
L 304.036552 199.659321 
L 305.650209 195.991544 
L 307.263866 192.752319 
L 308.877523 189.933576 
L 310.49118 187.522124 
L 312.104836 185.500764 
L 313.718493 183.849302 
L 315.33215 182.545444 
L 316.945807 181.565545 
L 318.559464 180.885242 
L 320.173121 180.480071 
L 321.786778 180.32581 
L 323.400435 180.398837 
L 325.014092 180.676447 
L 326.627749 181.136965 
L 328.241406 181.759924 
L 329.855063 182.52615 
L 331.46872 183.41775 
L 333.082376 184.4182 
L 334.696033 185.512257 
L 336.30969 186.685976 
L 337.923347 187.926635 
L 339.537004 189.222686 
L 341.150661 190.563689 
L 342.764318 191.940238 
L 344.377975 193.343903 
L 345.991632 194.767142 
L 347.605289 196.20325 
L 349.218946 197.646278 
L 350.832603 199.090972 
L 352.44626 200.532722 
L 354.059916 201.967487 
L 355.673573 203.391747 
L 357.28723 204.802484 
L 358.900887 206.197067 
L 360.514544 207.573277 
L 362.128201 208.929241 
L 363.741858 210.263388 
L 365.355515 211.574431 
L 366.969172 212.861327 
L 368.582829 214.12325 
L 370.196486 215.359585 
L 371.810143 216.569881 
L 373.4238 217.75384 
L 375.037456 218.911304 
L 376.651113 220.042243 
L 378.26477 221.146715 
L 379.878427 222.224881 
L 381.492084 223.27699 
L 383.105741 224.30335 
L 384.719398 225.304329 
L 386.333055 226.280359 
L 387.946712 227.231905 
L 389.560369 228.15948 
L 391.174026 229.06362 
L 392.787683 229.944903 
L 394.40134 230.803911 
L 396.014996 231.641255 
L 397.628653 232.457565 
L 399.24231 233.253472 
L 400.855967 234.029622 
L 402.469624 234.786665 
" style="fill:none;stroke:#000000;stroke-dasharray:1.5,2.475;stroke-dashoffset:0;stroke-width:1.5;"/>
   </g>
   <g id="patch_21">
    <path d="M 265.389469 300.5975 
L 265.389469 174.598587 
" style="fill:none;stroke:#000000;stroke-linecap:square;stroke-linejoin:miter;stroke-width:0.8;"/>
   </g>
   <g id="patch_22">
    <path d="M 441.116707 300.5975 
L 441.116707 174.598587 
" style="fill:none;stroke:#000000;stroke-linecap:square;stroke-linejoin:miter;stroke-width:0.8;"/>
   </g>
   <g id="patch_23">
    <path d="M 265.389469 300.5975 
L 441.116707 300.5975 
" style="fill:none;stroke:#000000;stroke-linecap:square;stroke-linejoin:miter;stroke-width:0.8;"/>
   </g>
   <g id="patch_24">
    <path d="M 265.389469 174.598587 
L 441.116707 174.598587 
" style="fill:none;stroke:#000000;stroke-linecap:square;stroke-linejoin:miter;stroke-width:0.8;"/>
   </g>
   <g id="legend_4">
    <g id="patch_25">
     <path d="M 364.922567 212.523867 
L 434.116707 212.523867 
Q 436.116707 212.523867 436.116707 210.523867 
L 436.116707 181.598587 
Q 436.116707 179.598587 434.116707 179.598587 
L 364.922567 179.598587 
Q 362.922567 179.598587 362.922567 181.598587 
L 362.922567 210.523867 
Q 362.922567 212.523867 364.922567 212.523867 
z
" style="fill:#ffffff;opacity:0.8;stroke:#cccccc;stroke-linejoin:miter;"/>
    </g>
    <g id="line2d_63">
     <path d="M 366.922567 187.570567 
L 386.922567 187.570567 
" style="fill:none;stroke:#000000;stroke-linecap:square;stroke-width:1.5;"/>
    </g>
    <g id="line2d_64"/>
    <g id="text_53">
     <!-- $m_{TOV}/r$ -->
     <g transform="translate(394.922567 191.070567)scale(0.1 -0.1)">
      <use transform="scale(0.996264)" xlink:href="#CMMI12-6d"/>
      <use transform="translate(85.327224 -14.943915)scale(0.697382)" xlink:href="#CMMI12-54"/>
      <use transform="translate(134.833547 -14.943915)scale(0.697382)" xlink:href="#CMMI12-4f"/>
      <use transform="translate(188.915575 -14.943915)scale(0.697382)" xlink:href="#CMMI12-56"/>
      <use transform="translate(244.396577 0)scale(0.996264)" xlink:href="#CMMI12-3d"/>
      <use transform="translate(293.171496 0)scale(0.996264)" xlink:href="#CMMI12-72"/>
     </g>
    </g>
    <g id="line2d_65">
     <path d="M 366.922567 202.533207 
L 386.922567 202.533207 
" style="fill:none;stroke:#000000;stroke-dasharray:1.5,2.475;stroke-dashoffset:0;stroke-width:1.5;"/>
    </g>
    <g id="line2d_66"/>
    <g id="text_54">
     <!-- $m_{LE}/r$ -->
     <g transform="translate(394.922567 206.033207)scale(0.1 -0.1)">
      <use transform="scale(0.996264)" xlink:href="#CMMI12-6d"/>
      <use transform="translate(85.327224 -14.943915)scale(0.697382)" xlink:href="#CMMI12-4c"/>
      <use transform="translate(131.786638 -14.943915)scale(0.697382)" xlink:href="#CMMI12-45"/>
      <use transform="translate(186.920675 0)scale(0.996264)" xlink:href="#CMMI12-3d"/>
      <use transform="translate(235.695594 0)scale(0.996264)" xlink:href="#CMMI12-72"/>
     </g>
    </g>
   </g>
  </g>
 </g>
 <defs>
  <clipPath id="pdaa29cf431">
   <rect height="125.998913" width="175.727239" x="43.45781" y="10.8"/>
  </clipPath>
  <clipPath id="p7833ac5e28">
   <rect height="125.998913" width="175.727239" x="265.389469" y="10.8"/>
  </clipPath>
  <clipPath id="p0d163ea383">
   <rect height="125.998913" width="175.727239" x="43.45781" y="174.598587"/>
  </clipPath>
  <clipPath id="pd329330f9c">
   <rect height="125.998913" width="175.727239" x="265.389469" y="174.598587"/>
  </clipPath>
 </defs>
</svg>
