<?xml version="1.0" encoding="utf-8" standalone="no"?>
<!DOCTYPE svg PUBLIC "-//W3C//DTD SVG 1.1//EN"
  "http://www.w3.org/Graphics/SVG/1.1/DTD/svg11.dtd">
<svg height="306.428579pt" version="1.1" viewBox="0 0 410.682748 306.428579" width="410.682748pt" xmlns="http://www.w3.org/2000/svg" xmlns:xlink="http://www.w3.org/1999/xlink">
 <metadata>
  <rdf:RDF xmlns:cc="http://creativecommons.org/ns#" xmlns:dc="http://purl.org/dc/elements/1.1/" xmlns:rdf="http://www.w3.org/1999/02/22-rdf-syntax-ns#">
   <cc:Work>
    <dc:type rdf:resource="http://purl.org/dc/dcmitype/StillImage"/>
    <dc:date>2021-07-07T09:00:29.003145</dc:date>
    <dc:format>image/svg+xml</dc:format>
    <dc:creator>
     <cc:Agent>
      <dc:title>Matplotlib v3.4.2, https://matplotlib.org/</dc:title>
     </cc:Agent>
    </dc:creator>
   </cc:Work>
  </rdf:RDF>
 </metadata>
 <defs>
  <style type="text/css">*{stroke-linecap:butt;stroke-linejoin:round;}</style>
 </defs>
 <g id="figure_1">
  <g id="patch_1">
   <path d="M -0 306.428579 
L 410.682748 306.428579 
L 410.682748 0 
L -0 0 
z
" style="fill:#ffffff;"/>
  </g>
  <g id="axes_1">
   <g id="patch_2">
    <path d="M 39.785756 118.525141 
L 196.05768 118.525141 
L 196.05768 7.2 
L 39.785756 7.2 
z
" style="fill:#ffffff;"/>
   </g>
   <g id="matplotlib.axis_1">
    <g id="xtick_1">
     <g id="line2d_1">
      <defs>
       <path d="M 0 0 
L 0 3.5 
" id="m607a053b03" style="stroke:#000000;stroke-width:0.8;"/>
      </defs>
      <g>
       <use style="stroke:#000000;stroke-width:0.8;" x="46.889025" xlink:href="#m607a053b03" y="118.525141"/>
      </g>
     </g>
     <g id="text_1">
      <!-- $\mathdefault{0.0}$ -->
      <g transform="translate(40.523986 132.443639)scale(0.1 -0.1)">
       <defs>
        <path d="M 2688 2038 
C 2688 2430 2682 3099 2413 3613 
C 2176 4063 1798 4224 1466 4224 
C 1158 4224 768 4082 525 3620 
C 269 3137 243 2539 243 2038 
C 243 1671 250 1112 448 623 
C 723 -39 1216 -128 1466 -128 
C 1760 -128 2208 -7 2470 604 
C 2662 1048 2688 1568 2688 2038 
z
M 1466 -26 
C 1056 -26 813 328 723 816 
C 653 1196 653 1749 653 2109 
C 653 2604 653 3015 736 3407 
C 858 3954 1216 4121 1466 4121 
C 1728 4121 2067 3947 2189 3420 
C 2272 3054 2278 2623 2278 2109 
C 2278 1691 2278 1176 2202 797 
C 2067 96 1690 -26 1466 -26 
z
" id="CMR17-30" transform="scale(0.015625)"/>
        <path d="M 1178 307 
C 1178 492 1024 620 870 620 
C 685 620 557 467 557 313 
C 557 128 710 0 864 0 
C 1050 0 1178 153 1178 307 
z
" id="CMMI12-3a" transform="scale(0.015625)"/>
       </defs>
       <use transform="scale(0.996264)" xlink:href="#CMR17-30"/>
       <use transform="translate(45.690477 0)scale(0.996264)" xlink:href="#CMMI12-3a"/>
       <use transform="translate(72.787654 0)scale(0.996264)" xlink:href="#CMR17-30"/>
      </g>
     </g>
    </g>
    <g id="xtick_2">
     <g id="line2d_2">
      <g>
       <use style="stroke:#000000;stroke-width:0.8;" x="86.572094" xlink:href="#m607a053b03" y="118.525141"/>
      </g>
     </g>
     <g id="text_2">
      <!-- $\mathdefault{0.1}$ -->
      <g transform="translate(80.207054 132.443639)scale(0.1 -0.1)">
       <defs>
        <path d="M 1702 4083 
C 1702 4217 1696 4224 1606 4224 
C 1357 3927 979 3833 621 3820 
C 602 3820 570 3820 563 3808 
C 557 3795 557 3782 557 3648 
C 755 3648 1088 3686 1344 3839 
L 1344 467 
C 1344 243 1331 166 781 166 
L 589 166 
L 589 0 
C 896 6 1216 12 1523 12 
C 1830 12 2150 6 2458 0 
L 2458 166 
L 2266 166 
C 1715 166 1702 236 1702 467 
L 1702 4083 
z
" id="CMR17-31" transform="scale(0.015625)"/>
       </defs>
       <use transform="scale(0.996264)" xlink:href="#CMR17-30"/>
       <use transform="translate(45.690477 0)scale(0.996264)" xlink:href="#CMMI12-3a"/>
       <use transform="translate(72.787654 0)scale(0.996264)" xlink:href="#CMR17-31"/>
      </g>
     </g>
    </g>
    <g id="xtick_3">
     <g id="line2d_3">
      <g>
       <use style="stroke:#000000;stroke-width:0.8;" x="126.255162" xlink:href="#m607a053b03" y="118.525141"/>
      </g>
     </g>
     <g id="text_3">
      <!-- $\mathdefault{0.2}$ -->
      <g transform="translate(119.890123 132.443639)scale(0.1 -0.1)">
       <defs>
        <path d="M 2669 990 
L 2554 990 
C 2490 537 2438 460 2413 422 
C 2381 371 1920 371 1830 371 
L 602 371 
C 832 620 1280 1073 1824 1596 
C 2214 1966 2669 2400 2669 3033 
C 2669 3788 2067 4224 1395 4224 
C 691 4224 262 3603 262 3027 
C 262 2777 448 2745 525 2745 
C 589 2745 781 2783 781 3007 
C 781 3206 614 3264 525 3264 
C 486 3264 448 3257 422 3244 
C 544 3788 915 4057 1306 4057 
C 1862 4057 2227 3616 2227 3033 
C 2227 2477 1901 1998 1536 1583 
L 262 147 
L 262 0 
L 2515 0 
L 2669 990 
z
" id="CMR17-32" transform="scale(0.015625)"/>
       </defs>
       <use transform="scale(0.996264)" xlink:href="#CMR17-30"/>
       <use transform="translate(45.690477 0)scale(0.996264)" xlink:href="#CMMI12-3a"/>
       <use transform="translate(72.787654 0)scale(0.996264)" xlink:href="#CMR17-32"/>
      </g>
     </g>
    </g>
    <g id="xtick_4">
     <g id="line2d_4">
      <g>
       <use style="stroke:#000000;stroke-width:0.8;" x="165.938231" xlink:href="#m607a053b03" y="118.525141"/>
      </g>
     </g>
     <g id="text_4">
      <!-- $\mathdefault{0.3}$ -->
      <g transform="translate(159.573192 132.443639)scale(0.1 -0.1)">
       <defs>
        <path d="M 1414 2176 
C 1984 2176 2234 1673 2234 1094 
C 2234 322 1824 25 1453 25 
C 1114 25 563 193 390 691 
C 422 678 454 678 486 678 
C 640 678 755 780 755 947 
C 755 1132 614 1216 486 1216 
C 378 1216 211 1164 211 927 
C 211 335 787 -128 1466 -128 
C 2176 -128 2720 432 2720 1087 
C 2720 1718 2208 2176 1600 2246 
C 2086 2347 2554 2776 2554 3353 
C 2554 3856 2048 4224 1472 4224 
C 890 4224 378 3862 378 3347 
C 378 3123 544 3084 627 3084 
C 762 3084 877 3167 877 3334 
C 877 3500 762 3584 627 3584 
C 602 3584 570 3584 544 3571 
C 730 3999 1235 4076 1459 4076 
C 1683 4076 2106 3966 2106 3347 
C 2106 3167 2080 2851 1862 2574 
C 1670 2329 1453 2316 1242 2297 
C 1210 2297 1062 2284 1037 2284 
C 992 2278 966 2272 966 2227 
C 966 2182 973 2176 1101 2176 
L 1414 2176 
z
" id="CMR17-33" transform="scale(0.015625)"/>
       </defs>
       <use transform="scale(0.996264)" xlink:href="#CMR17-30"/>
       <use transform="translate(45.690477 0)scale(0.996264)" xlink:href="#CMMI12-3a"/>
       <use transform="translate(72.787654 0)scale(0.996264)" xlink:href="#CMR17-33"/>
      </g>
     </g>
    </g>
    <g id="text_5">
     <!-- Radius $r$ -->
     <g transform="translate(98.973069 145.299316)scale(0.1 -0.1)">
      <defs>
       <path d="M 2509 2156 
C 3117 2278 3629 2689 3629 3203 
C 3629 3806 2950 4352 2054 4352 
L 333 4352 
L 333 4185 
C 774 4185 845 4185 845 3896 
L 845 428 
C 845 140 774 140 333 140 
L 333 -26 
C 518 -13 851 -13 1050 -13 
C 1248 -13 1581 -13 1766 -26 
L 1766 140 
C 1325 140 1254 140 1254 428 
L 1254 2112 
L 2003 2112 
C 2368 2112 2573 1964 2662 1881 
C 2918 1632 2918 1459 2918 1024 
C 2918 595 2918 377 3110 160 
C 3354 -103 3680 -128 3821 -128 
C 4294 -128 4365 403 4365 512 
C 4365 550 4365 595 4307 595 
C 4256 595 4250 556 4250 531 
C 4218 115 4032 -26 3834 -26 
C 3482 -26 3443 377 3405 768 
C 3386 902 3373 998 3360 1139 
C 3322 1459 3270 1926 2509 2156 
z
M 1984 2214 
L 1254 2214 
L 1254 3935 
C 1254 4153 1267 4185 1523 4185 
L 1990 4185 
C 2522 4185 3142 3999 3142 3203 
C 3142 2374 2464 2214 1984 2214 
z
" id="CMR17-52" transform="scale(0.015625)"/>
       <path d="M 2304 1656 
C 2304 2048 2304 2275 2035 2534 
C 1798 2751 1523 2816 1306 2816 
C 800 2816 435 2408 435 1977 
C 435 1740 627 1728 666 1728 
C 749 1728 896 1779 896 1958 
C 896 2118 774 2188 666 2188 
C 640 2188 608 2182 589 2176 
C 723 2594 1069 2713 1293 2713 
C 1613 2713 1965 2421 1965 1875 
L 1965 1632 
C 1587 1619 1133 1568 774 1373 
C 371 1147 256 822 256 576 
C 256 77 832 -64 1171 -64 
C 1523 -64 1850 135 1990 505 
C 2003 219 2182 -39 2464 -39 
C 2598 -39 2938 51 2938 563 
L 2938 926 
L 2822 926 
L 2822 557 
C 2822 161 2650 109 2566 109 
C 2304 109 2304 446 2304 732 
L 2304 1656 
z
M 1965 887 
C 1965 323 1568 38 1216 38 
C 896 38 646 278 646 576 
C 646 771 730 1114 1101 1322 
C 1408 1497 1760 1523 1965 1536 
L 1965 887 
z
" id="CMR17-61" transform="scale(0.015625)"/>
       <path d="M 1869 4345 
L 1869 4179 
C 2246 4179 2304 4141 2304 3843 
L 2304 2371 
C 2278 2403 2016 2816 1498 2816 
C 845 2816 211 2228 211 1376 
C 211 529 806 -64 1434 -64 
C 1978 -64 2259 361 2291 406 
L 2291 -64 
L 3066 -13 
L 3066 154 
C 2688 154 2630 193 2630 503 
L 2630 4416 
L 1869 4345 
z
M 2291 762 
C 2291 568 2176 393 2029 264 
C 1811 70 1594 38 1472 38 
C 1286 38 621 135 621 1369 
C 621 2636 1363 2713 1530 2713 
C 1824 2713 2061 2545 2208 2313 
C 2291 2177 2291 2157 2291 2041 
L 2291 762 
z
" id="CMR17-64" transform="scale(0.015625)"/>
       <path d="M 992 3961 
C 992 4102 877 4224 730 4224 
C 589 4224 467 4108 467 3961 
C 467 3820 582 3699 730 3699 
C 870 3699 992 3814 992 3961 
z
M 243 2745 
L 243 2579 
C 602 2579 653 2540 653 2231 
L 653 443 
C 653 198 627 166 218 166 
L 218 0 
C 371 12 646 12 806 12 
C 960 12 1222 12 1370 0 
L 1370 166 
C 992 166 979 205 979 436 
L 979 2816 
L 243 2745 
z
" id="CMR17-69" transform="scale(0.015625)"/>
       <path d="M 1882 2745 
L 1882 2579 
C 2259 2579 2317 2540 2317 2229 
L 2317 1053 
C 2317 510 2029 38 1555 38 
C 1030 38 986 355 986 691 
L 986 2816 
L 211 2745 
L 211 2579 
C 467 2579 640 2579 646 2320 
L 646 1079 
C 646 646 646 368 813 187 
C 896 103 1056 -64 1517 -64 
C 2061 -64 2272 400 2323 536 
L 2330 536 
L 2330 -64 
L 3091 -13 
L 3091 154 
C 2714 154 2656 193 2656 503 
L 2656 2816 
L 1882 2745 
z
" id="CMR17-75" transform="scale(0.015625)"/>
       <path d="M 1978 2688 
C 1978 2803 1971 2809 1933 2809 
C 1907 2809 1901 2803 1824 2707 
C 1805 2681 1747 2617 1728 2592 
C 1523 2809 1235 2816 1126 2816 
C 416 2816 160 2444 160 2073 
C 160 1497 813 1363 998 1324 
C 1402 1241 1542 1216 1677 1100 
C 1760 1024 1901 883 1901 652 
C 1901 384 1747 38 1158 38 
C 602 38 403 460 288 1024 
C 269 1113 269 1120 218 1120 
C 166 1120 160 1113 160 985 
L 160 64 
C 160 -52 166 -58 205 -58 
C 237 -58 243 -52 275 0 
C 314 57 410 211 448 275 
C 576 102 800 -64 1158 -64 
C 1792 -64 2131 281 2131 780 
C 2131 1107 1958 1280 1875 1356 
C 1683 1555 1459 1600 1190 1651 
C 838 1728 390 1817 390 2208 
C 390 2374 480 2726 1126 2726 
C 1811 2726 1850 2086 1862 1881 
C 1869 1849 1901 1843 1920 1843 
C 1978 1843 1978 1862 1978 1971 
L 1978 2688 
z
" id="CMR17-73" transform="scale(0.015625)"/>
       <path d="M 2490 2633 
C 2291 2598 2189 2457 2189 2316 
C 2189 2163 2310 2111 2400 2111 
C 2579 2111 2726 2265 2726 2457 
C 2726 2651 2528 2816 2208 2816 
C 1952 2816 1658 2700 1389 2335 
C 1344 2660 1088 2816 832 2816 
C 582 2816 454 2642 378 2508 
C 269 2278 173 1892 173 1860 
C 173 1834 198 1801 243 1801 
C 294 1801 301 1808 339 1957 
C 435 2342 557 2687 813 2687 
C 966 2687 1011 2604 1011 2419 
C 1011 2278 947 2028 902 1827 
L 723 1130 
C 698 1007 627 716 595 600 
C 550 432 480 128 480 96 
C 480 6 550 -64 646 -64 
C 717 -64 838 -20 877 109 
C 896 160 1133 1136 1171 1285 
C 1203 1427 1242 1562 1274 1705 
C 1299 1795 1325 1898 1344 1982 
C 1363 2040 1536 2355 1696 2495 
C 1773 2566 1939 2687 2202 2687 
C 2304 2687 2406 2674 2490 2633 
z
" id="CMMI12-72" transform="scale(0.015625)"/>
      </defs>
      <use transform="scale(0.996264)" xlink:href="#CMR17-52"/>
      <use transform="translate(67.791102 0)scale(0.996264)" xlink:href="#CMR17-61"/>
      <use transform="translate(113.481579 0)scale(0.996264)" xlink:href="#CMR17-64"/>
      <use transform="translate(164.376949 0)scale(0.996264)" xlink:href="#CMR17-69"/>
      <use transform="translate(189.248007 0)scale(0.996264)" xlink:href="#CMR17-75"/>
      <use transform="translate(240.143377 0)scale(0.996264)" xlink:href="#CMR17-73"/>
      <use transform="translate(306.020681 0)scale(0.996264)" xlink:href="#CMMI12-72"/>
     </g>
    </g>
   </g>
   <g id="matplotlib.axis_2">
    <g id="ytick_1">
     <g id="line2d_5">
      <defs>
       <path d="M 0 0 
L -3.5 0 
" id="m2d7156784c" style="stroke:#000000;stroke-width:0.8;"/>
      </defs>
      <g>
       <use style="stroke:#000000;stroke-width:0.8;" x="39.785756" xlink:href="#m2d7156784c" y="113.464972"/>
      </g>
     </g>
     <g id="text_6">
      <!-- $\mathdefault{0.0}$ -->
      <g transform="translate(20.055677 116.924221)scale(0.1 -0.1)">
       <use transform="scale(0.996264)" xlink:href="#CMR17-30"/>
       <use transform="translate(45.690477 0)scale(0.996264)" xlink:href="#CMMI12-3a"/>
       <use transform="translate(72.787654 0)scale(0.996264)" xlink:href="#CMR17-30"/>
      </g>
     </g>
    </g>
    <g id="ytick_2">
     <g id="line2d_6">
      <g>
       <use style="stroke:#000000;stroke-width:0.8;" x="39.785756" xlink:href="#m2d7156784c" y="88.163787"/>
      </g>
     </g>
     <g id="text_7">
      <!-- $\mathdefault{0.1}$ -->
      <g transform="translate(20.055677 91.623037)scale(0.1 -0.1)">
       <use transform="scale(0.996264)" xlink:href="#CMR17-30"/>
       <use transform="translate(45.690477 0)scale(0.996264)" xlink:href="#CMMI12-3a"/>
       <use transform="translate(72.787654 0)scale(0.996264)" xlink:href="#CMR17-31"/>
      </g>
     </g>
    </g>
    <g id="ytick_3">
     <g id="line2d_7">
      <g>
       <use style="stroke:#000000;stroke-width:0.8;" x="39.785756" xlink:href="#m2d7156784c" y="62.862603"/>
      </g>
     </g>
     <g id="text_8">
      <!-- $\mathdefault{0.2}$ -->
      <g transform="translate(20.055677 66.321852)scale(0.1 -0.1)">
       <use transform="scale(0.996264)" xlink:href="#CMR17-30"/>
       <use transform="translate(45.690477 0)scale(0.996264)" xlink:href="#CMMI12-3a"/>
       <use transform="translate(72.787654 0)scale(0.996264)" xlink:href="#CMR17-32"/>
      </g>
     </g>
    </g>
    <g id="ytick_4">
     <g id="line2d_8">
      <g>
       <use style="stroke:#000000;stroke-width:0.8;" x="39.785756" xlink:href="#m2d7156784c" y="37.561418"/>
      </g>
     </g>
     <g id="text_9">
      <!-- $\mathdefault{0.3}$ -->
      <g transform="translate(20.055677 41.020667)scale(0.1 -0.1)">
       <use transform="scale(0.996264)" xlink:href="#CMR17-30"/>
       <use transform="translate(45.690477 0)scale(0.996264)" xlink:href="#CMMI12-3a"/>
       <use transform="translate(72.787654 0)scale(0.996264)" xlink:href="#CMR17-33"/>
      </g>
     </g>
    </g>
    <g id="ytick_5">
     <g id="line2d_9">
      <g>
       <use style="stroke:#000000;stroke-width:0.8;" x="39.785756" xlink:href="#m2d7156784c" y="12.260234"/>
      </g>
     </g>
     <g id="text_10">
      <!-- $\mathdefault{0.4}$ -->
      <g transform="translate(20.055677 15.719483)scale(0.1 -0.1)">
       <defs>
        <path d="M 2150 4147 
C 2150 4281 2144 4288 2029 4288 
L 128 1254 
L 128 1088 
L 1779 1088 
L 1779 460 
C 1779 230 1766 166 1318 166 
L 1197 166 
L 1197 0 
C 1402 12 1747 12 1965 12 
C 2182 12 2528 12 2733 0 
L 2733 166 
L 2611 166 
C 2163 166 2150 230 2150 460 
L 2150 1088 
L 2803 1088 
L 2803 1254 
L 2150 1254 
L 2150 4147 
z
M 1798 3723 
L 1798 1254 
L 256 1254 
L 1798 3723 
z
" id="CMR17-34" transform="scale(0.015625)"/>
       </defs>
       <use transform="scale(0.996264)" xlink:href="#CMR17-30"/>
       <use transform="translate(45.690477 0)scale(0.996264)" xlink:href="#CMMI12-3a"/>
       <use transform="translate(72.787654 0)scale(0.996264)" xlink:href="#CMR17-34"/>
      </g>
     </g>
    </g>
    <g id="text_11">
     <!-- Pressure $p$ -->
     <g transform="translate(14.118498 85.4463)rotate(-90)scale(0.1 -0.1)">
      <defs>
       <path d="M 1267 2048 
L 2291 2048 
C 3117 2048 3718 2583 3718 3187 
C 3718 3791 3130 4352 2291 4352 
L 333 4352 
L 333 4185 
C 774 4185 845 4185 845 3899 
L 845 453 
C 845 166 774 166 333 166 
L 333 0 
C 518 12 858 12 1056 12 
C 1254 12 1594 12 1779 0 
L 1779 166 
C 1338 166 1267 166 1267 453 
L 1267 2048 
z
M 1254 2182 
L 1254 3937 
C 1254 4153 1267 4185 1523 4185 
L 2170 4185 
C 2995 4185 3232 3715 3232 3187 
C 3232 2608 2950 2182 2170 2182 
L 1254 2182 
z
" id="CMR17-50" transform="scale(0.015625)"/>
       <path d="M 960 1517 
C 960 2134 1222 2713 1702 2713 
C 1747 2713 1792 2707 1837 2687 
C 1837 2687 1696 2642 1696 2475 
C 1696 2321 1818 2257 1914 2257 
C 1990 2257 2131 2302 2131 2482 
C 2131 2687 1926 2816 1709 2816 
C 1222 2816 1011 2340 947 2115 
L 941 2115 
L 941 2816 
L 198 2745 
L 198 2578 
C 576 2578 634 2540 634 2231 
L 634 443 
C 634 198 608 166 198 166 
L 198 0 
C 352 12 646 12 813 12 
C 998 12 1325 12 1498 0 
L 1498 166 
C 1037 166 960 166 960 455 
L 960 1517 
z
" id="CMR17-72" transform="scale(0.015625)"/>
       <path d="M 2438 1503 
C 2464 1529 2464 1542 2464 1606 
C 2464 2251 2118 2816 1389 2816 
C 710 2816 173 2175 173 1394 
C 173 554 781 -64 1459 -64 
C 2176 -64 2458 619 2458 755 
C 2458 800 2419 800 2406 800 
C 2362 800 2355 787 2330 709 
C 2189 270 1837 51 1504 51 
C 1229 51 954 206 781 490 
C 582 819 582 1200 582 1503 
L 2438 1503 
z
M 589 1600 
C 634 2511 1126 2713 1382 2713 
C 1818 2713 2112 2308 2118 1600 
L 589 1600 
z
" id="CMR17-65" transform="scale(0.015625)"/>
       <path d="M 275 -794 
C 230 -981 205 -1031 -58 -1031 
C -135 -1031 -199 -1031 -199 -1152 
C -199 -1165 -192 -1216 -122 -1216 
C -39 -1216 51 -1204 134 -1204 
L 410 -1204 
C 544 -1204 870 -1216 1005 -1216 
C 1043 -1216 1120 -1216 1120 -1101 
C 1120 -1031 1075 -1031 966 -1031 
C 672 -1031 653 -987 653 -937 
C 653 -863 941 217 979 364 
C 1050 185 1222 -64 1555 -64 
C 2278 -64 3059 874 3059 1813 
C 3059 2400 2726 2816 2246 2816 
C 1837 2816 1491 2419 1421 2330 
C 1370 2649 1120 2816 864 2816 
C 678 2816 531 2726 410 2483 
C 294 2253 205 1864 205 1838 
C 205 1813 230 1781 275 1781 
C 326 1781 333 1787 371 1934 
C 467 2311 589 2687 845 2687 
C 992 2687 1043 2585 1043 2394 
C 1043 2241 1024 2177 998 2062 
L 275 -794 
z
M 1382 1992 
C 1427 2170 1606 2356 1709 2445 
C 1779 2509 1990 2687 2234 2687 
C 2515 2687 2643 2407 2643 2075 
C 2643 1768 2464 1047 2304 715 
C 2144 370 1850 64 1555 64 
C 1120 64 1050 613 1050 638 
C 1050 657 1062 708 1069 740 
L 1382 1992 
z
" id="CMMI12-70" transform="scale(0.015625)"/>
      </defs>
      <use transform="scale(0.996264)" xlink:href="#CMR17-50"/>
      <use transform="translate(62.586301 0)scale(0.996264)" xlink:href="#CMR17-72"/>
      <use transform="translate(97.867068 0)scale(0.996264)" xlink:href="#CMR17-65"/>
      <use transform="translate(138.352729 0)scale(0.996264)" xlink:href="#CMR17-73"/>
      <use transform="translate(174.154066 0)scale(0.996264)" xlink:href="#CMR17-73"/>
      <use transform="translate(209.955404 0)scale(0.996264)" xlink:href="#CMR17-75"/>
      <use transform="translate(260.850774 0)scale(0.996264)" xlink:href="#CMR17-72"/>
      <use transform="translate(296.131542 0)scale(0.996264)" xlink:href="#CMR17-65"/>
      <use transform="translate(366.693168 0)scale(0.996264)" xlink:href="#CMMI12-70"/>
     </g>
    </g>
   </g>
   <g id="line2d_10">
    <path clip-path="url(#p55af009293)" d="M 46.889025 12.260234 
L 49.270009 12.358198 
L 51.650993 12.650439 
L 54.428808 13.235711 
L 57.206623 14.080767 
L 59.984438 15.180636 
L 62.762252 16.528848 
L 65.540067 18.117486 
L 68.714713 20.215456 
L 71.889358 22.599198 
L 75.064004 25.25053 
L 78.63548 28.527951 
L 82.603787 32.49842 
L 86.968924 37.211554 
L 91.730893 42.689743 
L 97.683353 49.895042 
L 108.794612 63.799137 
L 116.731226 73.540636 
L 122.286856 80.012659 
L 127.048824 85.224506 
L 131.413961 89.670142 
L 135.382268 93.399969 
L 139.350575 96.808088 
L 142.922051 99.586448 
L 146.493528 102.083827 
L 150.065004 104.298425 
L 153.63648 106.233373 
L 157.207956 107.896455 
L 160.779432 109.299675 
L 164.350908 110.458667 
L 167.922385 111.391996 
L 171.890692 112.189602 
L 175.858998 112.764501 
L 180.224136 113.176657 
L 184.986104 113.409295 
L 188.954411 113.464907 
L 188.954411 113.464907 
" style="fill:none;stroke:#000000;stroke-linecap:square;stroke-width:1.5;"/>
   </g>
   <g id="line2d_11">
    <path clip-path="url(#p55af009293)" d="M 46.889025 12.260234 
L 49.270009 12.358212 
L 51.650993 12.650654 
L 54.031977 13.137183 
L 56.809792 13.94831 
L 59.587607 15.018853 
L 62.365422 16.344916 
L 65.143237 17.921636 
L 67.921051 19.743257 
L 71.095697 22.116422 
L 74.270342 24.789368 
L 77.444988 27.749221 
L 81.016464 31.404001 
L 84.58794 35.380919 
L 88.556247 40.14678 
L 92.921385 45.766716 
L 97.683353 52.283472 
L 103.238983 60.286467 
L 111.175596 72.172123 
L 121.493194 87.582854 
L 126.255162 94.291114 
L 130.223469 99.48984 
L 133.398115 103.29369 
L 136.17593 106.293056 
L 138.556914 108.568707 
L 140.937898 110.521236 
L 142.922051 111.857614 
L 144.509374 112.700289 
L 146.096697 113.290624 
L 146.096697 113.290624 
" style="fill:none;stroke:#000000;stroke-dasharray:5.55,2.4;stroke-dashoffset:0;stroke-width:1.5;"/>
   </g>
   <g id="patch_3">
    <path d="M 39.785756 118.525141 
L 39.785756 7.2 
" style="fill:none;stroke:#000000;stroke-linecap:square;stroke-linejoin:miter;stroke-width:0.8;"/>
   </g>
   <g id="patch_4">
    <path d="M 196.05768 118.525141 
L 196.05768 7.2 
" style="fill:none;stroke:#000000;stroke-linecap:square;stroke-linejoin:miter;stroke-width:0.8;"/>
   </g>
   <g id="patch_5">
    <path d="M 39.785756 118.525141 
L 196.05768 118.525141 
" style="fill:none;stroke:#000000;stroke-linecap:square;stroke-linejoin:miter;stroke-width:0.8;"/>
   </g>
   <g id="patch_6">
    <path d="M 39.785756 7.2 
L 196.05768 7.2 
" style="fill:none;stroke:#000000;stroke-linecap:square;stroke-linejoin:miter;stroke-width:0.8;"/>
   </g>
   <g id="legend_1">
    <g id="patch_7">
     <path d="M 122.643825 45.12528 
L 189.05768 45.12528 
Q 191.05768 45.12528 191.05768 43.12528 
L 191.05768 14.2 
Q 191.05768 12.2 189.05768 12.2 
L 122.643825 12.2 
Q 120.643825 12.2 120.643825 14.2 
L 120.643825 43.12528 
Q 120.643825 45.12528 122.643825 45.12528 
z
" style="fill:#ffffff;opacity:0.8;stroke:#cccccc;stroke-linejoin:miter;"/>
    </g>
    <g id="line2d_12">
     <path d="M 124.643825 20.17198 
L 144.643825 20.17198 
" style="fill:none;stroke:#000000;stroke-linecap:square;stroke-width:1.5;"/>
    </g>
    <g id="line2d_13"/>
    <g id="text_12">
     <!-- $p(r)$ pol -->
     <g transform="translate(152.643825 23.67198)scale(0.1 -0.1)">
      <defs>
       <path d="M 1958 -1562 
C 1958 -1556 1958 -1543 1939 -1524 
C 1645 -1223 858 -403 858 1596 
C 858 3595 1632 4408 1946 4729 
C 1946 4735 1958 4748 1958 4767 
C 1958 4787 1939 4800 1914 4800 
C 1843 4800 1299 4325 986 3620 
C 666 2909 576 2218 576 1603 
C 576 1141 621 360 1005 -467 
C 1312 -1133 1837 -1600 1914 -1600 
C 1946 -1600 1958 -1588 1958 -1562 
z
" id="CMR17-28" transform="scale(0.015625)"/>
       <path d="M 1683 1596 
C 1683 2057 1638 2839 1254 3665 
C 947 4332 422 4800 346 4800 
C 326 4800 301 4793 301 4761 
C 301 4748 307 4742 314 4729 
C 621 4408 1402 3595 1402 1603 
C 1402 -396 627 -1210 314 -1530 
C 307 -1543 301 -1549 301 -1562 
C 301 -1594 326 -1600 346 -1600 
C 416 -1600 960 -1127 1274 -422 
C 1594 289 1683 981 1683 1596 
z
" id="CMR17-29" transform="scale(0.015625)"/>
       <path d="M 1408 -1114 
C 998 -1114 973 -1088 973 -834 
L 973 380 
C 1158 109 1427 -64 1766 -64 
C 2406 -64 3053 503 3053 1382 
C 3053 2196 2496 2816 1837 2816 
C 1453 2816 1139 2603 960 2345 
L 960 2816 
L 198 2745 
L 198 2577 
C 576 2577 634 2539 634 2228 
L 634 -834 
C 634 -1081 608 -1114 198 -1114 
L 198 -1280 
C 352 -1268 634 -1268 800 -1268 
C 966 -1268 1254 -1268 1408 -1280 
L 1408 -1114 
z
M 973 2015 
C 973 2106 973 2241 1222 2481 
C 1254 2506 1472 2700 1792 2700 
C 2259 2700 2643 2112 2643 1376 
C 2643 639 2234 38 1728 38 
C 1498 38 1248 148 1056 451 
C 973 594 973 632 973 736 
L 973 2015 
z
" id="CMR17-70" transform="scale(0.015625)"/>
       <path d="M 2758 1356 
C 2758 2176 2163 2816 1466 2816 
C 768 2816 173 2176 173 1356 
C 173 550 768 -64 1466 -64 
C 2163 -64 2758 550 2758 1356 
z
M 1466 51 
C 1165 51 909 230 762 480 
C 602 768 582 1126 582 1408 
C 582 1676 595 2009 762 2297 
C 890 2508 1139 2713 1466 2713 
C 1754 2713 1997 2553 2150 2329 
C 2349 2028 2349 1606 2349 1408 
C 2349 1158 2336 774 2163 467 
C 1984 172 1709 51 1466 51 
z
" id="CMR17-6f" transform="scale(0.015625)"/>
       <path d="M 979 4416 
L 218 4345 
L 218 4179 
C 595 4179 653 4141 653 3835 
L 653 439 
C 653 198 627 166 218 166 
L 218 0 
C 371 12 653 12 813 12 
C 979 12 1261 12 1414 0 
L 1414 166 
C 1005 166 979 191 979 439 
L 979 4416 
z
" id="CMR17-6c" transform="scale(0.015625)"/>
      </defs>
      <use transform="scale(0.996264)" xlink:href="#CMMI12-70"/>
      <use transform="translate(48.959514 0)scale(0.996264)" xlink:href="#CMR17-28"/>
      <use transform="translate(84.240282 0)scale(0.996264)" xlink:href="#CMMI12-72"/>
      <use transform="translate(130.910894 0)scale(0.996264)" xlink:href="#CMR17-29"/>
      <use transform="translate(196.267628 0)scale(0.996264)" xlink:href="#CMR17-70"/>
      <use transform="translate(249.765436 0)scale(0.996264)" xlink:href="#CMR17-6f"/>
      <use transform="translate(295.455914 0)scale(0.996264)" xlink:href="#CMR17-6c"/>
     </g>
    </g>
    <g id="line2d_14">
     <path d="M 124.643825 35.13462 
L 144.643825 35.13462 
" style="fill:none;stroke:#000000;stroke-dasharray:5.55,2.4;stroke-dashoffset:0;stroke-width:1.5;"/>
    </g>
    <g id="line2d_15"/>
    <g id="text_13">
     <!-- $p(r)$ rel -->
     <g transform="translate(152.643825 38.63462)scale(0.1 -0.1)">
      <use transform="scale(0.996264)" xlink:href="#CMMI12-70"/>
      <use transform="translate(48.959514 0)scale(0.996264)" xlink:href="#CMR17-28"/>
      <use transform="translate(84.240282 0)scale(0.996264)" xlink:href="#CMMI12-72"/>
      <use transform="translate(130.910894 0)scale(0.996264)" xlink:href="#CMR17-29"/>
      <use transform="translate(196.267628 0)scale(0.996264)" xlink:href="#CMR17-72"/>
      <use transform="translate(231.548396 0)scale(0.996264)" xlink:href="#CMR17-65"/>
      <use transform="translate(272.034056 0)scale(0.996264)" xlink:href="#CMR17-6c"/>
     </g>
    </g>
   </g>
  </g>
  <g id="axes_2">
   <g id="patch_8">
    <path d="M 245.63768 118.525141 
L 401.909605 118.525141 
L 401.909605 7.2 
L 245.63768 7.2 
z
" style="fill:#ffffff;"/>
   </g>
   <g id="matplotlib.axis_3">
    <g id="xtick_5">
     <g id="line2d_16">
      <g>
       <use style="stroke:#000000;stroke-width:0.8;" x="252.74095" xlink:href="#m607a053b03" y="118.525141"/>
      </g>
     </g>
     <g id="text_14">
      <!-- $\mathdefault{0.0}$ -->
      <g transform="translate(246.37591 132.443639)scale(0.1 -0.1)">
       <use transform="scale(0.996264)" xlink:href="#CMR17-30"/>
       <use transform="translate(45.690477 0)scale(0.996264)" xlink:href="#CMMI12-3a"/>
       <use transform="translate(72.787654 0)scale(0.996264)" xlink:href="#CMR17-30"/>
      </g>
     </g>
    </g>
    <g id="xtick_6">
     <g id="line2d_17">
      <g>
       <use style="stroke:#000000;stroke-width:0.8;" x="292.424018" xlink:href="#m607a053b03" y="118.525141"/>
      </g>
     </g>
     <g id="text_15">
      <!-- $\mathdefault{0.1}$ -->
      <g transform="translate(286.058979 132.443639)scale(0.1 -0.1)">
       <use transform="scale(0.996264)" xlink:href="#CMR17-30"/>
       <use transform="translate(45.690477 0)scale(0.996264)" xlink:href="#CMMI12-3a"/>
       <use transform="translate(72.787654 0)scale(0.996264)" xlink:href="#CMR17-31"/>
      </g>
     </g>
    </g>
    <g id="xtick_7">
     <g id="line2d_18">
      <g>
       <use style="stroke:#000000;stroke-width:0.8;" x="332.107087" xlink:href="#m607a053b03" y="118.525141"/>
      </g>
     </g>
     <g id="text_16">
      <!-- $\mathdefault{0.2}$ -->
      <g transform="translate(325.742048 132.443639)scale(0.1 -0.1)">
       <use transform="scale(0.996264)" xlink:href="#CMR17-30"/>
       <use transform="translate(45.690477 0)scale(0.996264)" xlink:href="#CMMI12-3a"/>
       <use transform="translate(72.787654 0)scale(0.996264)" xlink:href="#CMR17-32"/>
      </g>
     </g>
    </g>
    <g id="xtick_8">
     <g id="line2d_19">
      <g>
       <use style="stroke:#000000;stroke-width:0.8;" x="371.790156" xlink:href="#m607a053b03" y="118.525141"/>
      </g>
     </g>
     <g id="text_17">
      <!-- $\mathdefault{0.3}$ -->
      <g transform="translate(365.425116 132.443639)scale(0.1 -0.1)">
       <use transform="scale(0.996264)" xlink:href="#CMR17-30"/>
       <use transform="translate(45.690477 0)scale(0.996264)" xlink:href="#CMMI12-3a"/>
       <use transform="translate(72.787654 0)scale(0.996264)" xlink:href="#CMR17-33"/>
      </g>
     </g>
    </g>
    <g id="text_18">
     <!-- Radius $r$ -->
     <g transform="translate(304.824993 145.299316)scale(0.1 -0.1)">
      <use transform="scale(0.996264)" xlink:href="#CMR17-52"/>
      <use transform="translate(67.791102 0)scale(0.996264)" xlink:href="#CMR17-61"/>
      <use transform="translate(113.481579 0)scale(0.996264)" xlink:href="#CMR17-64"/>
      <use transform="translate(164.376949 0)scale(0.996264)" xlink:href="#CMR17-69"/>
      <use transform="translate(189.248007 0)scale(0.996264)" xlink:href="#CMR17-75"/>
      <use transform="translate(240.143377 0)scale(0.996264)" xlink:href="#CMR17-73"/>
      <use transform="translate(306.020681 0)scale(0.996264)" xlink:href="#CMMI12-72"/>
     </g>
    </g>
   </g>
   <g id="matplotlib.axis_4">
    <g id="ytick_6">
     <g id="line2d_20">
      <g>
       <use style="stroke:#000000;stroke-width:0.8;" x="245.63768" xlink:href="#m2d7156784c" y="113.464907"/>
      </g>
     </g>
     <g id="text_19">
      <!-- $\mathdefault{0.00}$ -->
      <g transform="translate(220.926266 116.924156)scale(0.1 -0.1)">
       <use transform="scale(0.996264)" xlink:href="#CMR17-30"/>
       <use transform="translate(45.690477 0)scale(0.996264)" xlink:href="#CMMI12-3a"/>
       <use transform="translate(72.787654 0)scale(0.996264)" xlink:href="#CMR17-30"/>
       <use transform="translate(118.478131 0)scale(0.996264)" xlink:href="#CMR17-30"/>
      </g>
     </g>
    </g>
    <g id="ytick_7">
     <g id="line2d_21">
      <g>
       <use style="stroke:#000000;stroke-width:0.8;" x="245.63768" xlink:href="#m2d7156784c" y="88.672283"/>
      </g>
     </g>
     <g id="text_20">
      <!-- $\mathdefault{0.02}$ -->
      <g transform="translate(220.926266 92.131532)scale(0.1 -0.1)">
       <use transform="scale(0.996264)" xlink:href="#CMR17-30"/>
       <use transform="translate(45.690477 0)scale(0.996264)" xlink:href="#CMMI12-3a"/>
       <use transform="translate(72.787654 0)scale(0.996264)" xlink:href="#CMR17-30"/>
       <use transform="translate(118.478131 0)scale(0.996264)" xlink:href="#CMR17-32"/>
      </g>
     </g>
    </g>
    <g id="ytick_8">
     <g id="line2d_22">
      <g>
       <use style="stroke:#000000;stroke-width:0.8;" x="245.63768" xlink:href="#m2d7156784c" y="63.879659"/>
      </g>
     </g>
     <g id="text_21">
      <!-- $\mathdefault{0.04}$ -->
      <g transform="translate(220.926266 67.338908)scale(0.1 -0.1)">
       <use transform="scale(0.996264)" xlink:href="#CMR17-30"/>
       <use transform="translate(45.690477 0)scale(0.996264)" xlink:href="#CMMI12-3a"/>
       <use transform="translate(72.787654 0)scale(0.996264)" xlink:href="#CMR17-30"/>
       <use transform="translate(118.478131 0)scale(0.996264)" xlink:href="#CMR17-34"/>
      </g>
     </g>
    </g>
    <g id="ytick_9">
     <g id="line2d_23">
      <g>
       <use style="stroke:#000000;stroke-width:0.8;" x="245.63768" xlink:href="#m2d7156784c" y="39.087035"/>
      </g>
     </g>
     <g id="text_22">
      <!-- $\mathdefault{0.06}$ -->
      <g transform="translate(220.926266 42.546284)scale(0.1 -0.1)">
       <defs>
        <path d="M 678 2198 
C 678 3712 1395 4076 1811 4076 
C 1946 4076 2272 4049 2400 3782 
C 2298 3782 2106 3782 2106 3558 
C 2106 3385 2246 3328 2336 3328 
C 2394 3328 2566 3353 2566 3571 
C 2566 3987 2246 4224 1805 4224 
C 1043 4224 243 3411 243 2011 
C 243 257 966 -128 1478 -128 
C 2099 -128 2688 431 2688 1295 
C 2688 2101 2170 2688 1517 2688 
C 1126 2688 838 2430 678 1979 
L 678 2198 
z
M 1478 25 
C 691 25 691 1212 691 1450 
C 691 1914 909 2585 1504 2585 
C 1613 2585 1926 2585 2138 2140 
C 2253 1889 2253 1624 2253 1302 
C 2253 954 2253 696 2118 438 
C 1978 173 1773 25 1478 25 
z
" id="CMR17-36" transform="scale(0.015625)"/>
       </defs>
       <use transform="scale(0.996264)" xlink:href="#CMR17-30"/>
       <use transform="translate(45.690477 0)scale(0.996264)" xlink:href="#CMMI12-3a"/>
       <use transform="translate(72.787654 0)scale(0.996264)" xlink:href="#CMR17-30"/>
       <use transform="translate(118.478131 0)scale(0.996264)" xlink:href="#CMR17-36"/>
      </g>
     </g>
    </g>
    <g id="ytick_10">
     <g id="line2d_24">
      <g>
       <use style="stroke:#000000;stroke-width:0.8;" x="245.63768" xlink:href="#m2d7156784c" y="14.294411"/>
      </g>
     </g>
     <g id="text_23">
      <!-- $\mathdefault{0.08}$ -->
      <g transform="translate(220.926266 17.75366)scale(0.1 -0.1)">
       <defs>
        <path d="M 1741 2289 
C 2144 2494 2554 2803 2554 3298 
C 2554 3884 1990 4224 1472 4224 
C 890 4224 378 3800 378 3215 
C 378 3054 416 2777 666 2533 
C 730 2469 998 2276 1171 2154 
C 883 2006 211 1652 211 945 
C 211 282 838 -128 1459 -128 
C 2144 -128 2720 366 2720 1022 
C 2720 1607 2330 1877 2074 2051 
L 1741 2289 
z
M 902 2855 
C 851 2887 595 3086 595 3388 
C 595 3781 998 4076 1459 4076 
C 1965 4076 2336 3716 2336 3298 
C 2336 2700 1670 2359 1638 2359 
C 1632 2359 1626 2359 1574 2398 
L 902 2855 
z
M 2080 1536 
C 2176 1466 2483 1253 2483 861 
C 2483 385 2010 25 1472 25 
C 890 25 448 443 448 951 
C 448 1459 838 1884 1280 2083 
L 2080 1536 
z
" id="CMR17-38" transform="scale(0.015625)"/>
       </defs>
       <use transform="scale(0.996264)" xlink:href="#CMR17-30"/>
       <use transform="translate(45.690477 0)scale(0.996264)" xlink:href="#CMMI12-3a"/>
       <use transform="translate(72.787654 0)scale(0.996264)" xlink:href="#CMR17-30"/>
       <use transform="translate(118.478131 0)scale(0.996264)" xlink:href="#CMR17-38"/>
      </g>
     </g>
    </g>
    <g id="text_24">
     <!-- Mass $m$ -->
     <g transform="translate(214.989088 79.883269)rotate(-90)scale(0.1 -0.1)">
      <defs>
       <path d="M 1338 4249 
C 1299 4345 1293 4352 1158 4352 
L 339 4352 
L 339 4185 
C 781 4185 851 4185 851 3898 
L 851 624 
C 851 465 851 166 339 166 
L 339 0 
C 486 12 755 12 915 12 
C 1075 12 1344 12 1491 0 
L 1491 166 
C 979 166 979 465 979 624 
L 979 4159 
L 986 4159 
L 2490 102 
C 2515 38 2528 0 2579 0 
C 2630 0 2643 38 2669 102 
L 4186 4191 
L 4192 4191 
L 4192 453 
C 4192 166 4122 166 3680 166 
L 3680 0 
C 3853 12 4198 12 4384 12 
C 4570 12 4922 12 5094 0 
L 5094 166 
C 4653 166 4582 166 4582 453 
L 4582 3898 
C 4582 4185 4653 4185 5094 4185 
L 5094 4352 
L 4282 4352 
C 4147 4352 4141 4345 4102 4249 
L 2720 516 
L 1338 4249 
z
" id="CMR17-4d" transform="scale(0.015625)"/>
       <path d="M 1318 1870 
C 1331 1909 1491 2228 1728 2432 
C 1894 2585 2112 2687 2362 2687 
C 2618 2687 2707 2496 2707 2241 
C 2707 2202 2707 2075 2630 1775 
L 2470 1117 
C 2419 925 2298 453 2285 383 
C 2259 287 2221 121 2221 95 
C 2221 6 2291 -64 2387 -64 
C 2579 -64 2611 83 2669 313 
L 3053 1838 
C 3066 1890 3398 2687 4102 2687 
C 4358 2687 4448 2496 4448 2241 
C 4448 1883 4198 1187 4058 804 
C 4000 651 3968 568 3968 453 
C 3968 166 4166 -64 4474 -64 
C 5069 -64 5293 874 5293 913 
C 5293 945 5267 970 5229 970 
C 5171 970 5165 951 5133 842 
C 4986 332 4749 64 4493 64 
C 4429 64 4326 70 4326 274 
C 4326 440 4403 645 4429 715 
C 4544 1021 4832 1775 4832 2145 
C 4832 2528 4608 2816 4122 2816 
C 3693 2816 3347 2573 3091 2196 
C 3072 2541 2861 2816 2381 2816 
C 1811 2816 1510 2413 1395 2253 
C 1376 2617 1114 2816 832 2816 
C 646 2816 499 2726 378 2483 
C 262 2253 173 1864 173 1838 
C 173 1813 198 1781 243 1781 
C 294 1781 301 1787 339 1934 
C 435 2311 557 2687 813 2687 
C 960 2687 1011 2585 1011 2394 
C 1011 2253 947 2004 902 1807 
L 723 1117 
C 698 996 627 708 595 593 
C 550 427 480 127 480 95 
C 480 6 550 -64 646 -64 
C 723 -64 813 -26 864 70 
C 877 102 934 325 966 453 
L 1107 1028 
L 1318 1870 
z
" id="CMMI12-6d" transform="scale(0.015625)"/>
      </defs>
      <use transform="scale(0.996264)" xlink:href="#CMR17-4d"/>
      <use transform="translate(84.686941 0)scale(0.996264)" xlink:href="#CMR17-61"/>
      <use transform="translate(130.377418 0)scale(0.996264)" xlink:href="#CMR17-73"/>
      <use transform="translate(166.178755 0)scale(0.996264)" xlink:href="#CMR17-73"/>
      <use transform="translate(232.056059 0)scale(0.996264)" xlink:href="#CMMI12-6d"/>
     </g>
    </g>
   </g>
   <g id="line2d_25">
    <path clip-path="url(#p1584eaaef5)" d="M 252.74095 113.464907 
L 262.264886 113.357955 
L 267.423685 113.075518 
L 271.788823 112.621145 
L 275.75713 111.989043 
L 279.328606 111.210618 
L 282.900082 110.209104 
L 286.471558 108.963917 
L 290.043034 107.457846 
L 293.21768 105.889069 
L 296.392325 104.096501 
L 299.963802 101.807082 
L 303.535278 99.226953 
L 307.106754 96.358495 
L 310.67823 93.208646 
L 314.646537 89.392979 
L 318.614844 85.266747 
L 322.979981 80.404401 
L 327.74195 74.769034 
L 333.69441 67.351707 
L 342.821516 55.551194 
L 351.948622 43.867974 
L 357.107421 37.606469 
L 361.472558 32.632762 
L 365.440865 28.442475 
L 369.012341 24.990855 
L 372.186987 22.210446 
L 375.361632 19.727874 
L 378.139447 17.818748 
L 380.917262 16.170545 
L 383.695077 14.796525 
L 386.076061 13.846081 
L 388.457045 13.112541 
L 390.838029 12.601881 
L 393.219013 12.319365 
L 394.806336 12.260234 
L 394.806336 12.260234 
" style="fill:none;stroke:#000000;stroke-linecap:square;stroke-width:1.5;"/>
   </g>
   <g id="line2d_26">
    <path clip-path="url(#p1584eaaef5)" d="M 252.74095 113.464907 
L 262.264886 113.357705 
L 267.423685 113.073339 
L 271.788823 112.613176 
L 275.75713 111.968635 
L 279.328606 111.168926 
L 282.900082 110.131443 
L 286.074727 108.987891 
L 289.249373 107.617733 
L 292.424018 106.004967 
L 295.598664 104.135281 
L 298.773309 101.996363 
L 301.947955 99.578171 
L 305.1226 96.873354 
L 308.297246 93.877705 
L 311.471891 90.590653 
L 315.043368 86.549379 
L 318.614844 82.157654 
L 322.583151 76.896021 
L 326.948288 70.704017 
L 332.107087 62.981467 
L 342.424685 47.402044 
L 345.599331 43.078866 
L 347.980315 40.213114 
L 349.964468 38.207593 
L 351.15496 37.24689 
L 351.948622 36.7506 
L 351.948622 36.7506 
" style="fill:none;stroke:#000000;stroke-dasharray:5.55,2.4;stroke-dashoffset:0;stroke-width:1.5;"/>
   </g>
   <g id="patch_9">
    <path d="M 245.63768 118.525141 
L 245.63768 7.2 
" style="fill:none;stroke:#000000;stroke-linecap:square;stroke-linejoin:miter;stroke-width:0.8;"/>
   </g>
   <g id="patch_10">
    <path d="M 401.909605 118.525141 
L 401.909605 7.2 
" style="fill:none;stroke:#000000;stroke-linecap:square;stroke-linejoin:miter;stroke-width:0.8;"/>
   </g>
   <g id="patch_11">
    <path d="M 245.63768 118.525141 
L 401.909605 118.525141 
" style="fill:none;stroke:#000000;stroke-linecap:square;stroke-linejoin:miter;stroke-width:0.8;"/>
   </g>
   <g id="patch_12">
    <path d="M 245.63768 7.2 
L 401.909605 7.2 
" style="fill:none;stroke:#000000;stroke-linecap:square;stroke-linejoin:miter;stroke-width:0.8;"/>
   </g>
   <g id="legend_2">
    <g id="patch_13">
     <path d="M 252.63768 45.12528 
L 322.786416 45.12528 
Q 324.786416 45.12528 324.786416 43.12528 
L 324.786416 14.2 
Q 324.786416 12.2 322.786416 12.2 
L 252.63768 12.2 
Q 250.63768 12.2 250.63768 14.2 
L 250.63768 43.12528 
Q 250.63768 45.12528 252.63768 45.12528 
z
" style="fill:#ffffff;opacity:0.8;stroke:#cccccc;stroke-linejoin:miter;"/>
    </g>
    <g id="line2d_27">
     <path d="M 254.63768 20.17198 
L 274.63768 20.17198 
" style="fill:none;stroke:#000000;stroke-linecap:square;stroke-width:1.5;"/>
    </g>
    <g id="line2d_28"/>
    <g id="text_25">
     <!-- $m(r)$ pol -->
     <g transform="translate(282.63768 23.67198)scale(0.1 -0.1)">
      <use transform="scale(0.996264)" xlink:href="#CMMI12-6d"/>
      <use transform="translate(85.327224 0)scale(0.996264)" xlink:href="#CMR17-28"/>
      <use transform="translate(120.607992 0)scale(0.996264)" xlink:href="#CMMI12-72"/>
      <use transform="translate(167.278604 0)scale(0.996264)" xlink:href="#CMR17-29"/>
      <use transform="translate(232.635338 0)scale(0.996264)" xlink:href="#CMR17-70"/>
      <use transform="translate(286.133147 0)scale(0.996264)" xlink:href="#CMR17-6f"/>
      <use transform="translate(331.823624 0)scale(0.996264)" xlink:href="#CMR17-6c"/>
     </g>
    </g>
    <g id="line2d_29">
     <path d="M 254.63768 35.13462 
L 274.63768 35.13462 
" style="fill:none;stroke:#000000;stroke-dasharray:5.55,2.4;stroke-dashoffset:0;stroke-width:1.5;"/>
    </g>
    <g id="line2d_30"/>
    <g id="text_26">
     <!-- $m(r)$ rel -->
     <g transform="translate(282.63768 38.63462)scale(0.1 -0.1)">
      <use transform="scale(0.996264)" xlink:href="#CMMI12-6d"/>
      <use transform="translate(85.327224 0)scale(0.996264)" xlink:href="#CMR17-28"/>
      <use transform="translate(120.607992 0)scale(0.996264)" xlink:href="#CMMI12-72"/>
      <use transform="translate(167.278604 0)scale(0.996264)" xlink:href="#CMR17-29"/>
      <use transform="translate(232.635338 0)scale(0.996264)" xlink:href="#CMR17-72"/>
      <use transform="translate(267.916106 0)scale(0.996264)" xlink:href="#CMR17-65"/>
      <use transform="translate(308.401767 0)scale(0.996264)" xlink:href="#CMR17-6c"/>
     </g>
    </g>
   </g>
  </g>
  <g id="axes_3">
   <g id="patch_14">
    <path d="M 39.785756 269.410262 
L 196.05768 269.410262 
L 196.05768 158.085121 
L 39.785756 158.085121 
z
" style="fill:#ffffff;"/>
   </g>
   <g id="matplotlib.axis_5">
    <g id="xtick_9">
     <g id="line2d_31">
      <g>
       <use style="stroke:#000000;stroke-width:0.8;" x="46.889025" xlink:href="#m607a053b03" y="269.410262"/>
      </g>
     </g>
     <g id="text_27">
      <!-- $\mathdefault{0.0}$ -->
      <g transform="translate(40.523986 283.32876)scale(0.1 -0.1)">
       <use transform="scale(0.996264)" xlink:href="#CMR17-30"/>
       <use transform="translate(45.690477 0)scale(0.996264)" xlink:href="#CMMI12-3a"/>
       <use transform="translate(72.787654 0)scale(0.996264)" xlink:href="#CMR17-30"/>
      </g>
     </g>
    </g>
    <g id="xtick_10">
     <g id="line2d_32">
      <g>
       <use style="stroke:#000000;stroke-width:0.8;" x="86.572094" xlink:href="#m607a053b03" y="269.410262"/>
      </g>
     </g>
     <g id="text_28">
      <!-- $\mathdefault{0.1}$ -->
      <g transform="translate(80.207054 283.32876)scale(0.1 -0.1)">
       <use transform="scale(0.996264)" xlink:href="#CMR17-30"/>
       <use transform="translate(45.690477 0)scale(0.996264)" xlink:href="#CMMI12-3a"/>
       <use transform="translate(72.787654 0)scale(0.996264)" xlink:href="#CMR17-31"/>
      </g>
     </g>
    </g>
    <g id="xtick_11">
     <g id="line2d_33">
      <g>
       <use style="stroke:#000000;stroke-width:0.8;" x="126.255162" xlink:href="#m607a053b03" y="269.410262"/>
      </g>
     </g>
     <g id="text_29">
      <!-- $\mathdefault{0.2}$ -->
      <g transform="translate(119.890123 283.32876)scale(0.1 -0.1)">
       <use transform="scale(0.996264)" xlink:href="#CMR17-30"/>
       <use transform="translate(45.690477 0)scale(0.996264)" xlink:href="#CMMI12-3a"/>
       <use transform="translate(72.787654 0)scale(0.996264)" xlink:href="#CMR17-32"/>
      </g>
     </g>
    </g>
    <g id="xtick_12">
     <g id="line2d_34">
      <g>
       <use style="stroke:#000000;stroke-width:0.8;" x="165.938231" xlink:href="#m607a053b03" y="269.410262"/>
      </g>
     </g>
     <g id="text_30">
      <!-- $\mathdefault{0.3}$ -->
      <g transform="translate(159.573192 283.32876)scale(0.1 -0.1)">
       <use transform="scale(0.996264)" xlink:href="#CMR17-30"/>
       <use transform="translate(45.690477 0)scale(0.996264)" xlink:href="#CMMI12-3a"/>
       <use transform="translate(72.787654 0)scale(0.996264)" xlink:href="#CMR17-33"/>
      </g>
     </g>
    </g>
    <g id="text_31">
     <!-- Radius $r$ -->
     <g transform="translate(98.973069 296.184437)scale(0.1 -0.1)">
      <use transform="scale(0.996264)" xlink:href="#CMR17-52"/>
      <use transform="translate(67.791102 0)scale(0.996264)" xlink:href="#CMR17-61"/>
      <use transform="translate(113.481579 0)scale(0.996264)" xlink:href="#CMR17-64"/>
      <use transform="translate(164.376949 0)scale(0.996264)" xlink:href="#CMR17-69"/>
      <use transform="translate(189.248007 0)scale(0.996264)" xlink:href="#CMR17-75"/>
      <use transform="translate(240.143377 0)scale(0.996264)" xlink:href="#CMR17-73"/>
      <use transform="translate(306.020681 0)scale(0.996264)" xlink:href="#CMMI12-72"/>
     </g>
    </g>
   </g>
   <g id="matplotlib.axis_6">
    <g id="ytick_11">
     <g id="line2d_35">
      <g>
       <use style="stroke:#000000;stroke-width:0.8;" x="39.785756" xlink:href="#m2d7156784c" y="264.431064"/>
      </g>
     </g>
     <g id="text_32">
      <!-- $\mathdefault{0.0}$ -->
      <g transform="translate(20.055677 267.890313)scale(0.1 -0.1)">
       <use transform="scale(0.996264)" xlink:href="#CMR17-30"/>
       <use transform="translate(45.690477 0)scale(0.996264)" xlink:href="#CMMI12-3a"/>
       <use transform="translate(72.787654 0)scale(0.996264)" xlink:href="#CMR17-30"/>
      </g>
     </g>
    </g>
    <g id="ytick_12">
     <g id="line2d_36">
      <g>
       <use style="stroke:#000000;stroke-width:0.8;" x="39.785756" xlink:href="#m2d7156784c" y="230.598791"/>
      </g>
     </g>
     <g id="text_33">
      <!-- $\mathdefault{0.5}$ -->
      <g transform="translate(20.055677 234.05804)scale(0.1 -0.1)">
       <defs>
        <path d="M 730 3750 
C 794 3724 1056 3641 1325 3641 
C 1920 3641 2246 3961 2432 4140 
C 2432 4191 2432 4224 2394 4224 
C 2387 4224 2374 4224 2323 4198 
C 2099 4102 1837 4032 1517 4032 
C 1325 4032 1037 4055 723 4191 
C 653 4224 640 4224 634 4224 
C 602 4224 595 4217 595 4090 
L 595 2231 
C 595 2113 595 2080 659 2080 
C 691 2080 704 2093 736 2139 
C 941 2435 1222 2560 1542 2560 
C 1766 2560 2246 2415 2246 1293 
C 2246 1087 2246 716 2054 422 
C 1894 159 1645 25 1370 25 
C 947 25 518 319 403 812 
C 429 806 480 793 506 793 
C 589 793 749 838 749 1036 
C 749 1209 627 1280 506 1280 
C 358 1280 262 1190 262 1011 
C 262 454 704 -128 1382 -128 
C 2042 -128 2669 441 2669 1267 
C 2669 2054 2170 2662 1549 2662 
C 1222 2662 947 2540 730 2304 
L 730 3750 
z
" id="CMR17-35" transform="scale(0.015625)"/>
       </defs>
       <use transform="scale(0.996264)" xlink:href="#CMR17-30"/>
       <use transform="translate(45.690477 0)scale(0.996264)" xlink:href="#CMMI12-3a"/>
       <use transform="translate(72.787654 0)scale(0.996264)" xlink:href="#CMR17-35"/>
      </g>
     </g>
    </g>
    <g id="ytick_13">
     <g id="line2d_37">
      <g>
       <use style="stroke:#000000;stroke-width:0.8;" x="39.785756" xlink:href="#m2d7156784c" y="196.766517"/>
      </g>
     </g>
     <g id="text_34">
      <!-- $\mathdefault{1.0}$ -->
      <g transform="translate(20.055677 200.225766)scale(0.1 -0.1)">
       <use transform="scale(0.996264)" xlink:href="#CMR17-31"/>
       <use transform="translate(45.690477 0)scale(0.996264)" xlink:href="#CMMI12-3a"/>
       <use transform="translate(72.787654 0)scale(0.996264)" xlink:href="#CMR17-30"/>
      </g>
     </g>
    </g>
    <g id="ytick_14">
     <g id="line2d_38">
      <g>
       <use style="stroke:#000000;stroke-width:0.8;" x="39.785756" xlink:href="#m2d7156784c" y="162.934244"/>
      </g>
     </g>
     <g id="text_35">
      <!-- $\mathdefault{1.5}$ -->
      <g transform="translate(20.055677 166.393493)scale(0.1 -0.1)">
       <use transform="scale(0.996264)" xlink:href="#CMR17-31"/>
       <use transform="translate(45.690477 0)scale(0.996264)" xlink:href="#CMMI12-3a"/>
       <use transform="translate(72.787654 0)scale(0.996264)" xlink:href="#CMR17-35"/>
      </g>
     </g>
    </g>
    <g id="text_36">
     <!-- Density $\rho$ -->
     <g transform="translate(14.118498 234.546466)rotate(-90)scale(0.1 -0.1)">
      <defs>
       <path d="M 333 4352 
L 333 4185 
C 774 4185 845 4185 845 3898 
L 845 453 
C 845 166 774 166 333 166 
L 333 0 
L 2368 0 
C 3398 0 4224 943 4224 2140 
C 4224 3344 3411 4352 2368 4352 
L 333 4352 
z
M 1523 166 
C 1267 166 1254 198 1254 414 
L 1254 3936 
C 1254 4153 1267 4185 1523 4185 
L 2240 4185 
C 2771 4185 3750 3873 3750 2140 
C 3750 1242 3488 879 3366 707 
C 3213 510 2848 166 2240 166 
L 1523 166 
z
" id="CMR17-44" transform="scale(0.015625)"/>
       <path d="M 2656 1954 
C 2656 2282 2592 2816 1837 2816 
C 1331 2816 1069 2424 973 2166 
L 966 2166 
L 966 2816 
L 211 2745 
L 211 2578 
C 589 2578 646 2540 646 2231 
L 646 443 
C 646 198 621 166 211 166 
L 211 0 
C 365 12 646 12 813 12 
C 979 12 1267 12 1421 0 
L 1421 166 
C 1011 166 986 192 986 443 
L 986 1678 
C 986 2269 1344 2713 1792 2713 
C 2266 2713 2317 2289 2317 1980 
L 2317 443 
C 2317 198 2291 166 1882 166 
L 1882 0 
C 2035 12 2317 12 2483 12 
C 2650 12 2938 12 3091 0 
L 3091 166 
C 2682 166 2656 192 2656 443 
L 2656 1954 
z
" id="CMR17-6e" transform="scale(0.015625)"/>
       <path d="M 966 2585 
L 1862 2585 
L 1862 2752 
L 966 2752 
L 966 3968 
L 851 3968 
C 838 3292 614 2700 70 2687 
L 70 2585 
L 627 2585 
L 627 778 
C 627 655 627 -64 1370 -64 
C 1747 -64 1965 308 1965 784 
L 1965 1151 
L 1850 1151 
L 1850 790 
C 1850 347 1677 51 1408 51 
C 1222 51 966 179 966 765 
L 966 2585 
z
" id="CMR17-74" transform="scale(0.015625)"/>
       <path d="M 2496 2183 
C 2656 2579 2944 2585 3034 2585 
L 3034 2752 
C 2912 2745 2752 2739 2630 2739 
C 2496 2739 2285 2739 2157 2752 
L 2157 2585 
C 2400 2566 2406 2384 2406 2332 
C 2406 2268 2394 2235 2362 2158 
L 1664 409 
L 902 2300 
C 870 2378 870 2423 870 2430 
C 870 2572 1018 2585 1171 2585 
L 1171 2752 
C 1018 2739 742 2739 582 2739 
C 410 2739 205 2739 64 2752 
L 64 2585 
C 410 2585 448 2553 531 2345 
L 1485 -31 
C 1197 -795 1030 -1242 627 -1242 
C 557 -1242 397 -1223 282 -1106 
C 429 -1093 493 -1002 493 -892 
C 493 -782 416 -685 288 -685 
C 147 -685 77 -782 77 -899 
C 77 -1158 339 -1344 627 -1344 
C 998 -1344 1229 -983 1357 -659 
L 2496 2183 
z
" id="CMR17-79" transform="scale(0.015625)"/>
       <path d="M 198 -1085 
C 192 -1116 179 -1154 179 -1191 
C 179 -1287 256 -1351 352 -1351 
C 448 -1351 538 -1287 576 -1198 
C 602 -1141 781 -390 986 389 
C 1114 70 1350 -64 1600 -64 
C 2323 -64 3142 830 3142 1794 
C 3142 2477 2726 2816 2285 2816 
C 1722 2816 1037 2234 826 1385 
L 198 -1085 
z
M 1594 64 
C 1158 64 1050 568 1050 645 
C 1050 683 1210 1289 1229 1385 
C 1555 2656 2182 2687 2278 2687 
C 2566 2687 2726 2426 2726 2049 
C 2726 1724 2554 1091 2445 823 
C 2253 383 1920 64 1594 64 
z
" id="CMMI12-1a" transform="scale(0.015625)"/>
      </defs>
      <use transform="scale(0.996264)" xlink:href="#CMR17-44"/>
      <use transform="translate(70.393556 0)scale(0.996264)" xlink:href="#CMR17-65"/>
      <use transform="translate(110.879216 0)scale(0.996264)" xlink:href="#CMR17-6e"/>
      <use transform="translate(161.774586 0)scale(0.996264)" xlink:href="#CMR17-73"/>
      <use transform="translate(197.575924 0)scale(0.996264)" xlink:href="#CMR17-69"/>
      <use transform="translate(222.446982 0)scale(0.996264)" xlink:href="#CMR17-74"/>
      <use transform="translate(255.125296 0)scale(0.996264)" xlink:href="#CMR17-79"/>
      <use transform="translate(333.494178 0)scale(0.996264)" xlink:href="#CMMI12-1a"/>
     </g>
    </g>
   </g>
   <g id="line2d_39">
    <path clip-path="url(#p69db37eb3a)" d="M 46.889025 163.145355 
L 50.460501 163.255407 
L 54.031977 163.58459 
L 57.603454 164.132042 
L 61.17493 164.895984 
L 64.746406 165.87393 
L 68.317882 167.062678 
L 72.286189 168.625968 
L 76.254496 170.438271 
L 80.222803 172.492108 
L 84.58794 175.020037 
L 88.953078 177.816877 
L 93.318215 180.868046 
L 98.080184 184.467525 
L 103.238983 188.659488 
L 108.794612 193.477107 
L 114.747073 198.936876 
L 121.890025 205.809277 
L 131.413961 215.318902 
L 148.477681 232.408806 
L 155.620633 239.210956 
L 161.573094 244.580676 
L 167.128723 249.288972 
L 172.287522 253.363618 
L 177.04949 256.851233 
L 181.811459 260.06588 
L 186.573427 263.004124 
L 188.954411 264.350028 
L 188.954411 264.350028 
" style="fill:none;stroke:#000000;stroke-linecap:square;stroke-width:1.5;"/>
   </g>
   <g id="line2d_40">
    <path clip-path="url(#p69db37eb3a)" d="M 46.889025 163.145355 
L 52.047824 163.258127 
L 57.206623 163.601286 
L 61.968591 164.11411 
L 67.524221 164.958972 
L 72.286189 165.897751 
L 77.841819 167.260837 
L 83.000618 168.785621 
L 87.762586 170.446819 
L 92.127723 172.201655 
L 97.683353 174.799687 
L 101.65166 176.941164 
L 105.619967 179.360653 
L 109.191443 181.81179 
L 112.366088 184.24173 
L 115.540734 186.943757 
L 118.318549 189.560046 
L 121.096364 192.452791 
L 123.874178 195.660227 
L 126.651993 199.235501 
L 129.032977 202.643088 
L 131.413961 206.424031 
L 133.794946 210.652893 
L 135.779099 214.592242 
L 137.763252 219.001367 
L 139.747406 224.015492 
L 141.334729 228.612523 
L 142.922051 233.958398 
L 144.112543 238.715879 
L 145.303035 244.589221 
L 146.096697 249.741743 
L 146.096697 249.741743 
" style="fill:none;stroke:#000000;stroke-dasharray:5.55,2.4;stroke-dashoffset:0;stroke-width:1.5;"/>
   </g>
   <g id="patch_15">
    <path d="M 39.785756 269.410262 
L 39.785756 158.085121 
" style="fill:none;stroke:#000000;stroke-linecap:square;stroke-linejoin:miter;stroke-width:0.8;"/>
   </g>
   <g id="patch_16">
    <path d="M 196.05768 269.410262 
L 196.05768 158.085121 
" style="fill:none;stroke:#000000;stroke-linecap:square;stroke-linejoin:miter;stroke-width:0.8;"/>
   </g>
   <g id="patch_17">
    <path d="M 39.785756 269.410262 
L 196.05768 269.410262 
" style="fill:none;stroke:#000000;stroke-linecap:square;stroke-linejoin:miter;stroke-width:0.8;"/>
   </g>
   <g id="patch_18">
    <path d="M 39.785756 158.085121 
L 196.05768 158.085121 
" style="fill:none;stroke:#000000;stroke-linecap:square;stroke-linejoin:miter;stroke-width:0.8;"/>
   </g>
   <g id="legend_3">
    <g id="patch_19">
     <path d="M 46.785756 264.410262 
L 113.337993 264.410262 
Q 115.337993 264.410262 115.337993 262.410262 
L 115.337993 233.484982 
Q 115.337993 231.484982 113.337993 231.484982 
L 46.785756 231.484982 
Q 44.785756 231.484982 44.785756 233.484982 
L 44.785756 262.410262 
Q 44.785756 264.410262 46.785756 264.410262 
z
" style="fill:#ffffff;opacity:0.8;stroke:#cccccc;stroke-linejoin:miter;"/>
    </g>
    <g id="line2d_41">
     <path d="M 48.785756 239.456962 
L 68.785756 239.456962 
" style="fill:none;stroke:#000000;stroke-linecap:square;stroke-width:1.5;"/>
    </g>
    <g id="line2d_42"/>
    <g id="text_37">
     <!-- $\rho (r)$ pol -->
     <g transform="translate(76.785756 242.956962)scale(0.1 -0.1)">
      <use transform="scale(0.996264)" xlink:href="#CMMI12-1a"/>
      <use transform="translate(50.314373 0)scale(0.996264)" xlink:href="#CMR17-28"/>
      <use transform="translate(85.595141 0)scale(0.996264)" xlink:href="#CMMI12-72"/>
      <use transform="translate(132.265753 0)scale(0.996264)" xlink:href="#CMR17-29"/>
      <use transform="translate(197.622487 0)scale(0.996264)" xlink:href="#CMR17-70"/>
      <use transform="translate(251.120295 0)scale(0.996264)" xlink:href="#CMR17-6f"/>
      <use transform="translate(296.810772 0)scale(0.996264)" xlink:href="#CMR17-6c"/>
     </g>
    </g>
    <g id="line2d_43">
     <path d="M 48.785756 254.419602 
L 68.785756 254.419602 
" style="fill:none;stroke:#000000;stroke-dasharray:5.55,2.4;stroke-dashoffset:0;stroke-width:1.5;"/>
    </g>
    <g id="line2d_44"/>
    <g id="text_38">
     <!-- $\rho (r)$ rel -->
     <g transform="translate(76.785756 257.919602)scale(0.1 -0.1)">
      <use transform="scale(0.996264)" xlink:href="#CMMI12-1a"/>
      <use transform="translate(50.314373 0)scale(0.996264)" xlink:href="#CMR17-28"/>
      <use transform="translate(85.595141 0)scale(0.996264)" xlink:href="#CMMI12-72"/>
      <use transform="translate(132.265753 0)scale(0.996264)" xlink:href="#CMR17-29"/>
      <use transform="translate(197.622487 0)scale(0.996264)" xlink:href="#CMR17-72"/>
      <use transform="translate(232.903255 0)scale(0.996264)" xlink:href="#CMR17-65"/>
      <use transform="translate(273.388915 0)scale(0.996264)" xlink:href="#CMR17-6c"/>
     </g>
    </g>
   </g>
  </g>
  <g id="axes_4">
   <g id="patch_20">
    <path d="M 245.63768 269.410262 
L 401.909605 269.410262 
L 401.909605 158.085121 
L 245.63768 158.085121 
z
" style="fill:#ffffff;"/>
   </g>
   <g id="matplotlib.axis_7">
    <g id="xtick_13">
     <g id="line2d_45">
      <g>
       <use style="stroke:#000000;stroke-width:0.8;" x="252.596063" xlink:href="#m607a053b03" y="269.410262"/>
      </g>
     </g>
     <g id="text_39">
      <!-- 0.0 -->
      <g transform="translate(246.231023 283.32876)scale(0.1 -0.1)">
       <defs>
        <path d="M 1062 262 
C 1062 422 934 524 800 524 
C 672 524 538 422 538 262 
C 538 102 666 0 800 0 
C 928 0 1062 102 1062 262 
z
" id="CMR17-2e" transform="scale(0.015625)"/>
       </defs>
       <use transform="scale(0.996264)" xlink:href="#CMR17-30"/>
       <use transform="translate(45.690477 0)scale(0.996264)" xlink:href="#CMR17-2e"/>
       <use transform="translate(70.561536 0)scale(0.996264)" xlink:href="#CMR17-30"/>
      </g>
     </g>
    </g>
    <g id="xtick_14">
     <g id="line2d_46">
      <g>
       <use style="stroke:#000000;stroke-width:0.8;" x="324.856886" xlink:href="#m607a053b03" y="269.410262"/>
      </g>
     </g>
     <g id="text_40">
      <!-- 0.5 -->
      <g transform="translate(318.491846 283.32876)scale(0.1 -0.1)">
       <use transform="scale(0.996264)" xlink:href="#CMR17-30"/>
       <use transform="translate(45.690477 0)scale(0.996264)" xlink:href="#CMR17-2e"/>
       <use transform="translate(70.561536 0)scale(0.996264)" xlink:href="#CMR17-35"/>
      </g>
     </g>
    </g>
    <g id="xtick_15">
     <g id="line2d_47">
      <g>
       <use style="stroke:#000000;stroke-width:0.8;" x="397.117708" xlink:href="#m607a053b03" y="269.410262"/>
      </g>
     </g>
     <g id="text_41">
      <!-- 1.0 -->
      <g transform="translate(390.752669 283.32876)scale(0.1 -0.1)">
       <use transform="scale(0.996264)" xlink:href="#CMR17-31"/>
       <use transform="translate(45.690477 0)scale(0.996264)" xlink:href="#CMR17-2e"/>
       <use transform="translate(70.561536 0)scale(0.996264)" xlink:href="#CMR17-30"/>
      </g>
     </g>
    </g>
    <g id="text_42">
     <!-- Pressure $p/p_0$ -->
     <g transform="translate(294.2074 296.737919)scale(0.1 -0.1)">
      <defs>
       <path d="M 2746 4563 
C 2746 4569 2784 4665 2784 4678 
C 2784 4755 2720 4800 2669 4800 
C 2637 4800 2579 4800 2528 4659 
L 384 -1364 
C 384 -1370 346 -1466 346 -1479 
C 346 -1556 410 -1600 461 -1600 
C 499 -1600 557 -1594 602 -1460 
L 2746 4563 
z
" id="CMMI12-3d" transform="scale(0.015625)"/>
      </defs>
      <use transform="scale(0.996264)" xlink:href="#CMR17-50"/>
      <use transform="translate(62.586301 0)scale(0.996264)" xlink:href="#CMR17-72"/>
      <use transform="translate(97.867068 0)scale(0.996264)" xlink:href="#CMR17-65"/>
      <use transform="translate(138.352729 0)scale(0.996264)" xlink:href="#CMR17-73"/>
      <use transform="translate(174.154066 0)scale(0.996264)" xlink:href="#CMR17-73"/>
      <use transform="translate(209.955404 0)scale(0.996264)" xlink:href="#CMR17-75"/>
      <use transform="translate(260.850774 0)scale(0.996264)" xlink:href="#CMR17-72"/>
      <use transform="translate(296.131542 0)scale(0.996264)" xlink:href="#CMR17-65"/>
      <use transform="translate(366.693168 0)scale(0.996264)" xlink:href="#CMMI12-70"/>
      <use transform="translate(415.652682 0)scale(0.996264)" xlink:href="#CMMI12-3d"/>
      <use transform="translate(464.427601 0)scale(0.996264)" xlink:href="#CMMI12-70"/>
      <use transform="translate(513.387115 -14.943915)scale(0.697382)" xlink:href="#CMR17-30"/>
     </g>
    </g>
   </g>
   <g id="matplotlib.axis_8">
    <g id="ytick_15">
     <g id="line2d_48">
      <g>
       <use style="stroke:#000000;stroke-width:0.8;" x="245.63768" xlink:href="#m2d7156784c" y="267.672997"/>
      </g>
     </g>
     <g id="text_43">
      <!-- 0.0 -->
      <g transform="translate(225.907601 271.132246)scale(0.1 -0.1)">
       <use transform="scale(0.996264)" xlink:href="#CMR17-30"/>
       <use transform="translate(45.690477 0)scale(0.996264)" xlink:href="#CMR17-2e"/>
       <use transform="translate(70.561536 0)scale(0.996264)" xlink:href="#CMR17-30"/>
      </g>
     </g>
    </g>
    <g id="ytick_16">
     <g id="line2d_49">
      <g>
       <use style="stroke:#000000;stroke-width:0.8;" x="245.63768" xlink:href="#m2d7156784c" y="232.617113"/>
      </g>
     </g>
     <g id="text_44">
      <!-- 0.33 -->
      <g transform="translate(220.926266 236.076362)scale(0.1 -0.1)">
       <use transform="scale(0.996264)" xlink:href="#CMR17-30"/>
       <use transform="translate(45.690477 0)scale(0.996264)" xlink:href="#CMR17-2e"/>
       <use transform="translate(70.561536 0)scale(0.996264)" xlink:href="#CMR17-33"/>
       <use transform="translate(116.252013 0)scale(0.996264)" xlink:href="#CMR17-33"/>
      </g>
     </g>
    </g>
    <g id="ytick_17">
     <g id="line2d_50">
      <g>
       <use style="stroke:#000000;stroke-width:0.8;" x="245.63768" xlink:href="#m2d7156784c" y="197.561229"/>
      </g>
     </g>
     <g id="text_45">
      <!-- 0.67 -->
      <g transform="translate(220.926266 201.020478)scale(0.1 -0.1)">
       <defs>
        <path d="M 2886 3955 
L 2886 4096 
L 1382 4096 
C 634 4096 621 4166 595 4288 
L 480 4288 
L 294 3104 
L 410 3104 
C 429 3226 474 3552 550 3673 
C 589 3724 1062 3724 1171 3724 
L 2579 3724 
L 1869 2670 
C 1395 1961 1069 1003 1069 166 
C 1069 89 1069 -128 1299 -128 
C 1530 -128 1530 89 1530 172 
L 1530 466 
C 1530 1514 1709 2204 2003 2644 
L 2886 3955 
z
" id="CMR17-37" transform="scale(0.015625)"/>
       </defs>
       <use transform="scale(0.996264)" xlink:href="#CMR17-30"/>
       <use transform="translate(45.690477 0)scale(0.996264)" xlink:href="#CMR17-2e"/>
       <use transform="translate(70.561536 0)scale(0.996264)" xlink:href="#CMR17-36"/>
       <use transform="translate(116.252013 0)scale(0.996264)" xlink:href="#CMR17-37"/>
      </g>
     </g>
    </g>
    <g id="ytick_18">
     <g id="line2d_51">
      <g>
       <use style="stroke:#000000;stroke-width:0.8;" x="245.63768" xlink:href="#m2d7156784c" y="162.505346"/>
      </g>
     </g>
     <g id="text_46">
      <!-- 1.0 -->
      <g transform="translate(225.907601 165.964595)scale(0.1 -0.1)">
       <use transform="scale(0.996264)" xlink:href="#CMR17-31"/>
       <use transform="translate(45.690477 0)scale(0.996264)" xlink:href="#CMR17-2e"/>
       <use transform="translate(70.561536 0)scale(0.996264)" xlink:href="#CMR17-30"/>
      </g>
     </g>
    </g>
    <g id="text_47">
     <!-- Density $\rho/\rho_0$ -->
     <g transform="translate(214.435606 241.59817)rotate(-90)scale(0.1 -0.1)">
      <use transform="scale(0.996264)" xlink:href="#CMR17-44"/>
      <use transform="translate(70.393556 0)scale(0.996264)" xlink:href="#CMR17-65"/>
      <use transform="translate(110.879216 0)scale(0.996264)" xlink:href="#CMR17-6e"/>
      <use transform="translate(161.774586 0)scale(0.996264)" xlink:href="#CMR17-73"/>
      <use transform="translate(197.575924 0)scale(0.996264)" xlink:href="#CMR17-69"/>
      <use transform="translate(222.446982 0)scale(0.996264)" xlink:href="#CMR17-74"/>
      <use transform="translate(255.125296 0)scale(0.996264)" xlink:href="#CMR17-79"/>
      <use transform="translate(333.494178 0)scale(0.996264)" xlink:href="#CMMI12-1a"/>
      <use transform="translate(383.808551 0)scale(0.996264)" xlink:href="#CMMI12-3d"/>
      <use transform="translate(432.58347 0)scale(0.996264)" xlink:href="#CMMI12-1a"/>
      <use transform="translate(482.897843 -14.943915)scale(0.697382)" xlink:href="#CMR17-30"/>
     </g>
    </g>
   </g>
   <g id="line2d_52">
    <path clip-path="url(#p071bfde9d5)" d="M 394.806336 163.566712 
L 380.57756 168.912093 
L 368.066761 173.86338 
L 357.173794 178.397748 
L 345.545306 183.507442 
L 335.766162 188.057965 
L 325.995697 192.880434 
L 317.922913 197.113199 
L 310.168156 201.433431 
L 302.982616 205.70481 
L 296.498906 209.829067 
L 290.75969 213.742269 
L 285.34609 217.713587 
L 280.471008 221.581748 
L 276.217885 225.243473 
L 272.410559 228.812981 
L 269.003577 232.311319 
L 266.00437 235.70625 
L 263.362517 239.028063 
L 261.048034 242.293064 
L 259.062202 245.473966 
L 257.367659 248.603321 
L 255.949848 251.68555 
L 254.797147 254.721206 
L 253.897782 257.712749 
L 253.238973 260.673179 
L 252.812836 263.608428 
L 252.74095 264.350028 
L 252.74095 264.350028 
" style="fill:none;stroke:#000000;stroke-linecap:square;stroke-width:1.5;"/>
   </g>
   <g id="line2d_53">
    <path clip-path="url(#p071bfde9d5)" d="M 394.806336 163.145355 
L 377.290044 166.429139 
L 362.428934 169.480217 
L 349.953779 172.3083 
L 339.479076 174.932308 
L 330.641784 177.371693 
L 323.136254 179.64443 
L 315.54335 182.174342 
L 309.181849 184.511992 
L 302.982616 187.024503 
L 297.150143 189.647857 
L 292.345969 192.041185 
L 287.882672 194.496141 
L 283.817442 196.97016 
L 279.872571 199.639868 
L 276.451411 202.223017 
L 273.308446 204.872688 
L 270.500548 207.5238 
L 267.926941 210.255311 
L 265.564301 213.092925 
L 263.489389 215.928826 
L 261.624841 218.845687 
L 259.928251 221.915911 
L 258.443855 225.061427 
L 257.134464 228.356984 
L 255.995398 231.831148 
L 255.025035 235.514091 
L 254.223116 239.439828 
L 253.582603 243.701818 
L 253.103086 248.41735 
L 252.783487 253.819474 
L 252.74095 254.953379 
L 252.74095 254.953379 
" style="fill:none;stroke:#000000;stroke-dasharray:5.55,2.4;stroke-dashoffset:0;stroke-width:1.5;"/>
   </g>
   <g id="patch_21">
    <path d="M 245.63768 269.410262 
L 245.63768 158.085121 
" style="fill:none;stroke:#000000;stroke-linecap:square;stroke-linejoin:miter;stroke-width:0.8;"/>
   </g>
   <g id="patch_22">
    <path d="M 401.909605 269.410262 
L 401.909605 158.085121 
" style="fill:none;stroke:#000000;stroke-linecap:square;stroke-linejoin:miter;stroke-width:0.8;"/>
   </g>
   <g id="patch_23">
    <path d="M 245.63768 269.410262 
L 401.909605 269.410262 
" style="fill:none;stroke:#000000;stroke-linecap:square;stroke-linejoin:miter;stroke-width:0.8;"/>
   </g>
   <g id="patch_24">
    <path d="M 245.63768 158.085121 
L 401.909605 158.085121 
" style="fill:none;stroke:#000000;stroke-linecap:square;stroke-linejoin:miter;stroke-width:0.8;"/>
   </g>
   <g id="legend_4">
    <g id="patch_25">
     <path d="M 328.116389 264.410262 
L 394.909605 264.410262 
Q 396.909605 264.410262 396.909605 262.410262 
L 396.909605 233.484982 
Q 396.909605 231.484982 394.909605 231.484982 
L 328.116389 231.484982 
Q 326.116389 231.484982 326.116389 233.484982 
L 326.116389 262.410262 
Q 326.116389 264.410262 328.116389 264.410262 
z
" style="fill:#ffffff;opacity:0.8;stroke:#cccccc;stroke-linejoin:miter;"/>
    </g>
    <g id="line2d_54">
     <path d="M 330.116389 239.456962 
L 350.116389 239.456962 
" style="fill:none;stroke:#000000;stroke-linecap:square;stroke-width:1.5;"/>
    </g>
    <g id="line2d_55"/>
    <g id="text_48">
     <!-- $\rho(p)$ pol -->
     <g transform="translate(358.116389 242.956962)scale(0.1 -0.1)">
      <use transform="scale(0.996264)" xlink:href="#CMMI12-1a"/>
      <use transform="translate(50.314373 0)scale(0.996264)" xlink:href="#CMR17-28"/>
      <use transform="translate(85.595141 0)scale(0.996264)" xlink:href="#CMMI12-70"/>
      <use transform="translate(134.554655 0)scale(0.996264)" xlink:href="#CMR17-29"/>
      <use transform="translate(199.911389 0)scale(0.996264)" xlink:href="#CMR17-70"/>
      <use transform="translate(253.409197 0)scale(0.996264)" xlink:href="#CMR17-6f"/>
      <use transform="translate(299.099674 0)scale(0.996264)" xlink:href="#CMR17-6c"/>
     </g>
    </g>
    <g id="line2d_56">
     <path d="M 330.116389 254.419602 
L 350.116389 254.419602 
" style="fill:none;stroke:#000000;stroke-dasharray:5.55,2.4;stroke-dashoffset:0;stroke-width:1.5;"/>
    </g>
    <g id="line2d_57"/>
    <g id="text_49">
     <!-- $\rho(p)$ rel -->
     <g transform="translate(358.116389 257.919602)scale(0.1 -0.1)">
      <use transform="scale(0.996264)" xlink:href="#CMMI12-1a"/>
      <use transform="translate(50.314373 0)scale(0.996264)" xlink:href="#CMR17-28"/>
      <use transform="translate(85.595141 0)scale(0.996264)" xlink:href="#CMMI12-70"/>
      <use transform="translate(134.554655 0)scale(0.996264)" xlink:href="#CMR17-29"/>
      <use transform="translate(199.911389 0)scale(0.996264)" xlink:href="#CMR17-72"/>
      <use transform="translate(235.192157 0)scale(0.996264)" xlink:href="#CMR17-65"/>
      <use transform="translate(275.677817 0)scale(0.996264)" xlink:href="#CMR17-6c"/>
     </g>
    </g>
   </g>
  </g>
 </g>
 <defs>
  <clipPath id="p55af009293">
   <rect height="111.325141" width="156.271925" x="39.785756" y="7.2"/>
  </clipPath>
  <clipPath id="p1584eaaef5">
   <rect height="111.325141" width="156.271925" x="245.63768" y="7.2"/>
  </clipPath>
  <clipPath id="p69db37eb3a">
   <rect height="111.325141" width="156.271925" x="39.785756" y="158.085121"/>
  </clipPath>
  <clipPath id="p071bfde9d5">
   <rect height="111.325141" width="156.271925" x="245.63768" y="158.085121"/>
  </clipPath>
 </defs>
</svg>
