<?xml version="1.0" encoding="utf-8" standalone="no"?>
<!DOCTYPE svg PUBLIC "-//W3C//DTD SVG 1.1//EN"
  "http://www.w3.org/Graphics/SVG/1.1/DTD/svg11.dtd">
<!-- Created with matplotlib (https://matplotlib.org/) -->
<svg height="288pt" version="1.1" viewBox="0 0 432 288" width="432pt" xmlns="http://www.w3.org/2000/svg" xmlns:xlink="http://www.w3.org/1999/xlink">
 <metadata>
  <rdf:RDF xmlns:cc="http://creativecommons.org/ns#" xmlns:dc="http://purl.org/dc/elements/1.1/" xmlns:rdf="http://www.w3.org/1999/02/22-rdf-syntax-ns#">
   <cc:Work>
    <dc:type rdf:resource="http://purl.org/dc/dcmitype/StillImage"/>
    <dc:date>2021-02-22T12:01:37.920961</dc:date>
    <dc:format>image/svg+xml</dc:format>
    <dc:creator>
     <cc:Agent>
      <dc:title>Matplotlib v3.3.4, https://matplotlib.org/</dc:title>
     </cc:Agent>
    </dc:creator>
   </cc:Work>
  </rdf:RDF>
 </metadata>
 <defs>
  <style type="text/css">*{stroke-linecap:butt;stroke-linejoin:round;}</style>
 </defs>
 <g id="figure_1">
  <g id="patch_1">
   <path d="M 0 288 
L 432 288 
L 432 0 
L 0 0 
z
" style="fill:#ffffff;"/>
  </g>
  <g id="axes_1">
   <g id="patch_2">
    <path d="M 54 252 
L 321.84 252 
L 321.84 34.56 
L 54 34.56 
z
" style="fill:#ffffff;"/>
   </g>
   <g id="matplotlib.axis_1">
    <g id="xtick_1">
     <g id="line2d_1">
      <defs>
       <path d="M 0 0 
L 0 3.5 
" id="me0dea9ac4a" style="stroke:#000000;stroke-width:0.8;"/>
      </defs>
      <g>
       <use style="stroke:#000000;stroke-width:0.8;" x="65.684624" xlink:href="#me0dea9ac4a" y="252"/>
      </g>
     </g>
     <g id="text_1">
      <!-- 0 -->
      <g transform="translate(62.503374 266.598437)scale(0.1 -0.1)">
       <defs>
        <path d="M 31.78125 66.40625 
Q 24.171875 66.40625 20.328125 58.90625 
Q 16.5 51.421875 16.5 36.375 
Q 16.5 21.390625 20.328125 13.890625 
Q 24.171875 6.390625 31.78125 6.390625 
Q 39.453125 6.390625 43.28125 13.890625 
Q 47.125 21.390625 47.125 36.375 
Q 47.125 51.421875 43.28125 58.90625 
Q 39.453125 66.40625 31.78125 66.40625 
z
M 31.78125 74.21875 
Q 44.046875 74.21875 50.515625 64.515625 
Q 56.984375 54.828125 56.984375 36.375 
Q 56.984375 17.96875 50.515625 8.265625 
Q 44.046875 -1.421875 31.78125 -1.421875 
Q 19.53125 -1.421875 13.0625 8.265625 
Q 6.59375 17.96875 6.59375 36.375 
Q 6.59375 54.828125 13.0625 64.515625 
Q 19.53125 74.21875 31.78125 74.21875 
z
" id="DejaVuSans-48"/>
       </defs>
       <use xlink:href="#DejaVuSans-48"/>
      </g>
     </g>
    </g>
    <g id="xtick_2">
     <g id="line2d_2">
      <g>
       <use style="stroke:#000000;stroke-width:0.8;" x="114.676759" xlink:href="#me0dea9ac4a" y="252"/>
      </g>
     </g>
     <g id="text_2">
      <!-- 1 -->
      <g transform="translate(111.495509 266.598437)scale(0.1 -0.1)">
       <defs>
        <path d="M 12.40625 8.296875 
L 28.515625 8.296875 
L 28.515625 63.921875 
L 10.984375 60.40625 
L 10.984375 69.390625 
L 28.421875 72.90625 
L 38.28125 72.90625 
L 38.28125 8.296875 
L 54.390625 8.296875 
L 54.390625 0 
L 12.40625 0 
z
" id="DejaVuSans-49"/>
       </defs>
       <use xlink:href="#DejaVuSans-49"/>
      </g>
     </g>
    </g>
    <g id="xtick_3">
     <g id="line2d_3">
      <g>
       <use style="stroke:#000000;stroke-width:0.8;" x="163.668893" xlink:href="#me0dea9ac4a" y="252"/>
      </g>
     </g>
     <g id="text_3">
      <!-- 2 -->
      <g transform="translate(160.487643 266.598437)scale(0.1 -0.1)">
       <defs>
        <path d="M 19.1875 8.296875 
L 53.609375 8.296875 
L 53.609375 0 
L 7.328125 0 
L 7.328125 8.296875 
Q 12.9375 14.109375 22.625 23.890625 
Q 32.328125 33.6875 34.8125 36.53125 
Q 39.546875 41.84375 41.421875 45.53125 
Q 43.3125 49.21875 43.3125 52.78125 
Q 43.3125 58.59375 39.234375 62.25 
Q 35.15625 65.921875 28.609375 65.921875 
Q 23.96875 65.921875 18.8125 64.3125 
Q 13.671875 62.703125 7.8125 59.421875 
L 7.8125 69.390625 
Q 13.765625 71.78125 18.9375 73 
Q 24.125 74.21875 28.421875 74.21875 
Q 39.75 74.21875 46.484375 68.546875 
Q 53.21875 62.890625 53.21875 53.421875 
Q 53.21875 48.921875 51.53125 44.890625 
Q 49.859375 40.875 45.40625 35.40625 
Q 44.1875 33.984375 37.640625 27.21875 
Q 31.109375 20.453125 19.1875 8.296875 
z
" id="DejaVuSans-50"/>
       </defs>
       <use xlink:href="#DejaVuSans-50"/>
      </g>
     </g>
    </g>
    <g id="xtick_4">
     <g id="line2d_4">
      <g>
       <use style="stroke:#000000;stroke-width:0.8;" x="212.661028" xlink:href="#me0dea9ac4a" y="252"/>
      </g>
     </g>
     <g id="text_4">
      <!-- 3 -->
      <g transform="translate(209.479778 266.598437)scale(0.1 -0.1)">
       <defs>
        <path d="M 40.578125 39.3125 
Q 47.65625 37.796875 51.625 33 
Q 55.609375 28.21875 55.609375 21.1875 
Q 55.609375 10.40625 48.1875 4.484375 
Q 40.765625 -1.421875 27.09375 -1.421875 
Q 22.515625 -1.421875 17.65625 -0.515625 
Q 12.796875 0.390625 7.625 2.203125 
L 7.625 11.71875 
Q 11.71875 9.328125 16.59375 8.109375 
Q 21.484375 6.890625 26.8125 6.890625 
Q 36.078125 6.890625 40.9375 10.546875 
Q 45.796875 14.203125 45.796875 21.1875 
Q 45.796875 27.640625 41.28125 31.265625 
Q 36.765625 34.90625 28.71875 34.90625 
L 20.21875 34.90625 
L 20.21875 43.015625 
L 29.109375 43.015625 
Q 36.375 43.015625 40.234375 45.921875 
Q 44.09375 48.828125 44.09375 54.296875 
Q 44.09375 59.90625 40.109375 62.90625 
Q 36.140625 65.921875 28.71875 65.921875 
Q 24.65625 65.921875 20.015625 65.03125 
Q 15.375 64.15625 9.8125 62.3125 
L 9.8125 71.09375 
Q 15.4375 72.65625 20.34375 73.4375 
Q 25.25 74.21875 29.59375 74.21875 
Q 40.828125 74.21875 47.359375 69.109375 
Q 53.90625 64.015625 53.90625 55.328125 
Q 53.90625 49.265625 50.4375 45.09375 
Q 46.96875 40.921875 40.578125 39.3125 
z
" id="DejaVuSans-51"/>
       </defs>
       <use xlink:href="#DejaVuSans-51"/>
      </g>
     </g>
    </g>
    <g id="xtick_5">
     <g id="line2d_5">
      <g>
       <use style="stroke:#000000;stroke-width:0.8;" x="261.653163" xlink:href="#me0dea9ac4a" y="252"/>
      </g>
     </g>
     <g id="text_5">
      <!-- 4 -->
      <g transform="translate(258.471913 266.598437)scale(0.1 -0.1)">
       <defs>
        <path d="M 37.796875 64.3125 
L 12.890625 25.390625 
L 37.796875 25.390625 
z
M 35.203125 72.90625 
L 47.609375 72.90625 
L 47.609375 25.390625 
L 58.015625 25.390625 
L 58.015625 17.1875 
L 47.609375 17.1875 
L 47.609375 0 
L 37.796875 0 
L 37.796875 17.1875 
L 4.890625 17.1875 
L 4.890625 26.703125 
z
" id="DejaVuSans-52"/>
       </defs>
       <use xlink:href="#DejaVuSans-52"/>
      </g>
     </g>
    </g>
    <g id="xtick_6">
     <g id="line2d_6">
      <g>
       <use style="stroke:#000000;stroke-width:0.8;" x="310.645297" xlink:href="#me0dea9ac4a" y="252"/>
      </g>
     </g>
     <g id="text_6">
      <!-- 5 -->
      <g transform="translate(307.464047 266.598437)scale(0.1 -0.1)">
       <defs>
        <path d="M 10.796875 72.90625 
L 49.515625 72.90625 
L 49.515625 64.59375 
L 19.828125 64.59375 
L 19.828125 46.734375 
Q 21.96875 47.46875 24.109375 47.828125 
Q 26.265625 48.1875 28.421875 48.1875 
Q 40.625 48.1875 47.75 41.5 
Q 54.890625 34.8125 54.890625 23.390625 
Q 54.890625 11.625 47.5625 5.09375 
Q 40.234375 -1.421875 26.90625 -1.421875 
Q 22.3125 -1.421875 17.546875 -0.640625 
Q 12.796875 0.140625 7.71875 1.703125 
L 7.71875 11.625 
Q 12.109375 9.234375 16.796875 8.0625 
Q 21.484375 6.890625 26.703125 6.890625 
Q 35.15625 6.890625 40.078125 11.328125 
Q 45.015625 15.765625 45.015625 23.390625 
Q 45.015625 31 40.078125 35.4375 
Q 35.15625 39.890625 26.703125 39.890625 
Q 22.75 39.890625 18.8125 39.015625 
Q 14.890625 38.140625 10.796875 36.28125 
z
" id="DejaVuSans-53"/>
       </defs>
       <use xlink:href="#DejaVuSans-53"/>
      </g>
     </g>
    </g>
    <g id="text_7">
     <!-- $n=\frac{1}{\gamma-1}$ -->
     <g transform="translate(169.37 282.178125)scale(0.1 -0.1)">
      <defs>
       <path d="M 55.71875 33.015625 
L 49.3125 0 
L 40.28125 0 
L 46.6875 32.671875 
Q 47.125 34.96875 47.359375 36.71875 
Q 47.609375 38.484375 47.609375 39.5 
Q 47.609375 43.609375 45.015625 45.890625 
Q 42.4375 48.1875 37.796875 48.1875 
Q 30.5625 48.1875 25.34375 43.375 
Q 20.125 38.578125 18.5 30.328125 
L 12.5 0 
L 3.515625 0 
L 14.109375 54.6875 
L 23.09375 54.6875 
L 21.296875 46.09375 
Q 25.046875 50.828125 30.3125 53.40625 
Q 35.59375 56 41.40625 56 
Q 48.640625 56 52.609375 52.09375 
Q 56.59375 48.1875 56.59375 41.109375 
Q 56.59375 39.359375 56.375 37.359375 
Q 56.15625 35.359375 55.71875 33.015625 
z
" id="DejaVuSans-Oblique-110"/>
       <path d="M 10.59375 45.40625 
L 73.1875 45.40625 
L 73.1875 37.203125 
L 10.59375 37.203125 
z
M 10.59375 25.484375 
L 73.1875 25.484375 
L 73.1875 17.1875 
L 10.59375 17.1875 
z
" id="DejaVuSans-61"/>
       <path d="M 23.296875 46.09375 
L 28.71875 12.3125 
L 54 54.6875 
L 63.53125 54.6875 
L 30.8125 0 
L 26.765625 -20.796875 
L 17.78125 -20.796875 
L 21.828125 0 
L 15.4375 40.828125 
Q 14.453125 46.96875 9.8125 46.96875 
L 7.421875 46.96875 
L 8.890625 54.6875 
L 12.3125 54.6875 
Q 21.921875 54.6875 23.296875 46.09375 
z
" id="DejaVuSans-Oblique-947"/>
       <path d="M 10.59375 35.5 
L 73.1875 35.5 
L 73.1875 27.203125 
L 10.59375 27.203125 
z
" id="DejaVuSans-8722"/>
      </defs>
      <use transform="translate(0 0.16875)" xlink:href="#DejaVuSans-Oblique-110"/>
      <use transform="translate(82.861328 0.16875)" xlink:href="#DejaVuSans-61"/>
      <use transform="translate(250.132812 43.965625)scale(0.7)" xlink:href="#DejaVuSans-49"/>
      <use transform="translate(186.132812 -38.31875)scale(0.7)" xlink:href="#DejaVuSans-Oblique-947"/>
      <use transform="translate(241.196289 -38.31875)scale(0.7)" xlink:href="#DejaVuSans-8722"/>
      <use transform="translate(313.486328 -38.31875)scale(0.7)" xlink:href="#DejaVuSans-49"/>
      <path d="M 186.132812 18.965625 
L 186.132812 25.215625 
L 358.022461 25.215625 
L 358.022461 18.965625 
L 186.132812 18.965625 
z
"/>
     </g>
    </g>
   </g>
   <g id="matplotlib.axis_2">
    <g id="ytick_1">
     <g id="line2d_7">
      <defs>
       <path d="M 0 0 
L -3.5 0 
" id="m5ee86a16d8" style="stroke:#000000;stroke-width:0.8;"/>
      </defs>
      <g>
       <use style="stroke:#000000;stroke-width:0.8;" x="54" xlink:href="#m5ee86a16d8" y="234.866436"/>
      </g>
     </g>
     <g id="text_8">
      <!-- $\mathdefault{10^{-3}}$ -->
      <g transform="translate(23.5 238.665655)scale(0.1 -0.1)">
       <use transform="translate(0 0.765625)" xlink:href="#DejaVuSans-49"/>
       <use transform="translate(63.623047 0.765625)" xlink:href="#DejaVuSans-48"/>
       <use transform="translate(128.203125 39.046875)scale(0.7)" xlink:href="#DejaVuSans-8722"/>
       <use transform="translate(186.855469 39.046875)scale(0.7)" xlink:href="#DejaVuSans-51"/>
      </g>
     </g>
    </g>
    <g id="ytick_2">
     <g id="line2d_8">
      <g>
       <use style="stroke:#000000;stroke-width:0.8;" x="54" xlink:href="#m5ee86a16d8" y="196.114725"/>
      </g>
     </g>
     <g id="text_9">
      <!-- $\mathdefault{10^{-2}}$ -->
      <g transform="translate(23.5 199.913944)scale(0.1 -0.1)">
       <use transform="translate(0 0.765625)" xlink:href="#DejaVuSans-49"/>
       <use transform="translate(63.623047 0.765625)" xlink:href="#DejaVuSans-48"/>
       <use transform="translate(128.203125 39.046875)scale(0.7)" xlink:href="#DejaVuSans-8722"/>
       <use transform="translate(186.855469 39.046875)scale(0.7)" xlink:href="#DejaVuSans-50"/>
      </g>
     </g>
    </g>
    <g id="ytick_3">
     <g id="line2d_9">
      <g>
       <use style="stroke:#000000;stroke-width:0.8;" x="54" xlink:href="#m5ee86a16d8" y="157.363014"/>
      </g>
     </g>
     <g id="text_10">
      <!-- $\mathdefault{10^{-1}}$ -->
      <g transform="translate(23.5 161.162232)scale(0.1 -0.1)">
       <use transform="translate(0 0.684375)" xlink:href="#DejaVuSans-49"/>
       <use transform="translate(63.623047 0.684375)" xlink:href="#DejaVuSans-48"/>
       <use transform="translate(128.203125 38.965625)scale(0.7)" xlink:href="#DejaVuSans-8722"/>
       <use transform="translate(186.855469 38.965625)scale(0.7)" xlink:href="#DejaVuSans-49"/>
      </g>
     </g>
    </g>
    <g id="ytick_4">
     <g id="line2d_10">
      <g>
       <use style="stroke:#000000;stroke-width:0.8;" x="54" xlink:href="#m5ee86a16d8" y="118.611302"/>
      </g>
     </g>
     <g id="text_11">
      <!-- $\mathdefault{10^{0}}$ -->
      <g transform="translate(29.4 122.410521)scale(0.1 -0.1)">
       <use transform="translate(0 0.765625)" xlink:href="#DejaVuSans-49"/>
       <use transform="translate(63.623047 0.765625)" xlink:href="#DejaVuSans-48"/>
       <use transform="translate(128.203125 39.046875)scale(0.7)" xlink:href="#DejaVuSans-48"/>
      </g>
     </g>
    </g>
    <g id="ytick_5">
     <g id="line2d_11">
      <g>
       <use style="stroke:#000000;stroke-width:0.8;" x="54" xlink:href="#m5ee86a16d8" y="79.859591"/>
      </g>
     </g>
     <g id="text_12">
      <!-- $\mathdefault{10^{1}}$ -->
      <g transform="translate(29.4 83.65881)scale(0.1 -0.1)">
       <use transform="translate(0 0.684375)" xlink:href="#DejaVuSans-49"/>
       <use transform="translate(63.623047 0.684375)" xlink:href="#DejaVuSans-48"/>
       <use transform="translate(128.203125 38.965625)scale(0.7)" xlink:href="#DejaVuSans-49"/>
      </g>
     </g>
    </g>
    <g id="ytick_6">
     <g id="line2d_12">
      <g>
       <use style="stroke:#000000;stroke-width:0.8;" x="54" xlink:href="#m5ee86a16d8" y="41.10788"/>
      </g>
     </g>
     <g id="text_13">
      <!-- $\mathdefault{10^{2}}$ -->
      <g transform="translate(29.4 44.907099)scale(0.1 -0.1)">
       <use transform="translate(0 0.765625)" xlink:href="#DejaVuSans-49"/>
       <use transform="translate(63.623047 0.765625)" xlink:href="#DejaVuSans-48"/>
       <use transform="translate(128.203125 39.046875)scale(0.7)" xlink:href="#DejaVuSans-50"/>
      </g>
     </g>
    </g>
    <g id="ytick_7">
     <g id="line2d_13">
      <defs>
       <path d="M 0 0 
L -2 0 
" id="mec1e38d524" style="stroke:#000000;stroke-width:0.6;"/>
      </defs>
      <g>
       <use style="stroke:#000000;stroke-width:0.6;" x="54" xlink:href="#mec1e38d524" y="250.287292"/>
      </g>
     </g>
    </g>
    <g id="ytick_8">
     <g id="line2d_14">
      <g>
       <use style="stroke:#000000;stroke-width:0.6;" x="54" xlink:href="#mec1e38d524" y="246.531864"/>
      </g>
     </g>
    </g>
    <g id="ytick_9">
     <g id="line2d_15">
      <g>
       <use style="stroke:#000000;stroke-width:0.6;" x="54" xlink:href="#mec1e38d524" y="243.463455"/>
      </g>
     </g>
    </g>
    <g id="ytick_10">
     <g id="line2d_16">
      <g>
       <use style="stroke:#000000;stroke-width:0.6;" x="54" xlink:href="#mec1e38d524" y="240.869152"/>
      </g>
     </g>
    </g>
    <g id="ytick_11">
     <g id="line2d_17">
      <g>
       <use style="stroke:#000000;stroke-width:0.6;" x="54" xlink:href="#mec1e38d524" y="238.621865"/>
      </g>
     </g>
    </g>
    <g id="ytick_12">
     <g id="line2d_18">
      <g>
       <use style="stroke:#000000;stroke-width:0.6;" x="54" xlink:href="#mec1e38d524" y="236.639617"/>
      </g>
     </g>
    </g>
    <g id="ytick_13">
     <g id="line2d_19">
      <g>
       <use style="stroke:#000000;stroke-width:0.6;" x="54" xlink:href="#mec1e38d524" y="223.201009"/>
      </g>
     </g>
    </g>
    <g id="ytick_14">
     <g id="line2d_20">
      <g>
       <use style="stroke:#000000;stroke-width:0.6;" x="54" xlink:href="#mec1e38d524" y="216.377171"/>
      </g>
     </g>
    </g>
    <g id="ytick_15">
     <g id="line2d_21">
      <g>
       <use style="stroke:#000000;stroke-width:0.6;" x="54" xlink:href="#mec1e38d524" y="211.535581"/>
      </g>
     </g>
    </g>
    <g id="ytick_16">
     <g id="line2d_22">
      <g>
       <use style="stroke:#000000;stroke-width:0.6;" x="54" xlink:href="#mec1e38d524" y="207.780152"/>
      </g>
     </g>
    </g>
    <g id="ytick_17">
     <g id="line2d_23">
      <g>
       <use style="stroke:#000000;stroke-width:0.6;" x="54" xlink:href="#mec1e38d524" y="204.711744"/>
      </g>
     </g>
    </g>
    <g id="ytick_18">
     <g id="line2d_24">
      <g>
       <use style="stroke:#000000;stroke-width:0.6;" x="54" xlink:href="#mec1e38d524" y="202.117441"/>
      </g>
     </g>
    </g>
    <g id="ytick_19">
     <g id="line2d_25">
      <g>
       <use style="stroke:#000000;stroke-width:0.6;" x="54" xlink:href="#mec1e38d524" y="199.870154"/>
      </g>
     </g>
    </g>
    <g id="ytick_20">
     <g id="line2d_26">
      <g>
       <use style="stroke:#000000;stroke-width:0.6;" x="54" xlink:href="#mec1e38d524" y="197.887906"/>
      </g>
     </g>
    </g>
    <g id="ytick_21">
     <g id="line2d_27">
      <g>
       <use style="stroke:#000000;stroke-width:0.6;" x="54" xlink:href="#mec1e38d524" y="184.449297"/>
      </g>
     </g>
    </g>
    <g id="ytick_22">
     <g id="line2d_28">
      <g>
       <use style="stroke:#000000;stroke-width:0.6;" x="54" xlink:href="#mec1e38d524" y="177.62546"/>
      </g>
     </g>
    </g>
    <g id="ytick_23">
     <g id="line2d_29">
      <g>
       <use style="stroke:#000000;stroke-width:0.6;" x="54" xlink:href="#mec1e38d524" y="172.78387"/>
      </g>
     </g>
    </g>
    <g id="ytick_24">
     <g id="line2d_30">
      <g>
       <use style="stroke:#000000;stroke-width:0.6;" x="54" xlink:href="#mec1e38d524" y="169.028441"/>
      </g>
     </g>
    </g>
    <g id="ytick_25">
     <g id="line2d_31">
      <g>
       <use style="stroke:#000000;stroke-width:0.6;" x="54" xlink:href="#mec1e38d524" y="165.960032"/>
      </g>
     </g>
    </g>
    <g id="ytick_26">
     <g id="line2d_32">
      <g>
       <use style="stroke:#000000;stroke-width:0.6;" x="54" xlink:href="#mec1e38d524" y="163.36573"/>
      </g>
     </g>
    </g>
    <g id="ytick_27">
     <g id="line2d_33">
      <g>
       <use style="stroke:#000000;stroke-width:0.6;" x="54" xlink:href="#mec1e38d524" y="161.118442"/>
      </g>
     </g>
    </g>
    <g id="ytick_28">
     <g id="line2d_34">
      <g>
       <use style="stroke:#000000;stroke-width:0.6;" x="54" xlink:href="#mec1e38d524" y="159.136195"/>
      </g>
     </g>
    </g>
    <g id="ytick_29">
     <g id="line2d_35">
      <g>
       <use style="stroke:#000000;stroke-width:0.6;" x="54" xlink:href="#mec1e38d524" y="145.697586"/>
      </g>
     </g>
    </g>
    <g id="ytick_30">
     <g id="line2d_36">
      <g>
       <use style="stroke:#000000;stroke-width:0.6;" x="54" xlink:href="#mec1e38d524" y="138.873749"/>
      </g>
     </g>
    </g>
    <g id="ytick_31">
     <g id="line2d_37">
      <g>
       <use style="stroke:#000000;stroke-width:0.6;" x="54" xlink:href="#mec1e38d524" y="134.032159"/>
      </g>
     </g>
    </g>
    <g id="ytick_32">
     <g id="line2d_38">
      <g>
       <use style="stroke:#000000;stroke-width:0.6;" x="54" xlink:href="#mec1e38d524" y="130.27673"/>
      </g>
     </g>
    </g>
    <g id="ytick_33">
     <g id="line2d_39">
      <g>
       <use style="stroke:#000000;stroke-width:0.6;" x="54" xlink:href="#mec1e38d524" y="127.208321"/>
      </g>
     </g>
    </g>
    <g id="ytick_34">
     <g id="line2d_40">
      <g>
       <use style="stroke:#000000;stroke-width:0.6;" x="54" xlink:href="#mec1e38d524" y="124.614018"/>
      </g>
     </g>
    </g>
    <g id="ytick_35">
     <g id="line2d_41">
      <g>
       <use style="stroke:#000000;stroke-width:0.6;" x="54" xlink:href="#mec1e38d524" y="122.366731"/>
      </g>
     </g>
    </g>
    <g id="ytick_36">
     <g id="line2d_42">
      <g>
       <use style="stroke:#000000;stroke-width:0.6;" x="54" xlink:href="#mec1e38d524" y="120.384483"/>
      </g>
     </g>
    </g>
    <g id="ytick_37">
     <g id="line2d_43">
      <g>
       <use style="stroke:#000000;stroke-width:0.6;" x="54" xlink:href="#mec1e38d524" y="106.945875"/>
      </g>
     </g>
    </g>
    <g id="ytick_38">
     <g id="line2d_44">
      <g>
       <use style="stroke:#000000;stroke-width:0.6;" x="54" xlink:href="#mec1e38d524" y="100.122037"/>
      </g>
     </g>
    </g>
    <g id="ytick_39">
     <g id="line2d_45">
      <g>
       <use style="stroke:#000000;stroke-width:0.6;" x="54" xlink:href="#mec1e38d524" y="95.280447"/>
      </g>
     </g>
    </g>
    <g id="ytick_40">
     <g id="line2d_46">
      <g>
       <use style="stroke:#000000;stroke-width:0.6;" x="54" xlink:href="#mec1e38d524" y="91.525019"/>
      </g>
     </g>
    </g>
    <g id="ytick_41">
     <g id="line2d_47">
      <g>
       <use style="stroke:#000000;stroke-width:0.6;" x="54" xlink:href="#mec1e38d524" y="88.45661"/>
      </g>
     </g>
    </g>
    <g id="ytick_42">
     <g id="line2d_48">
      <g>
       <use style="stroke:#000000;stroke-width:0.6;" x="54" xlink:href="#mec1e38d524" y="85.862307"/>
      </g>
     </g>
    </g>
    <g id="ytick_43">
     <g id="line2d_49">
      <g>
       <use style="stroke:#000000;stroke-width:0.6;" x="54" xlink:href="#mec1e38d524" y="83.61502"/>
      </g>
     </g>
    </g>
    <g id="ytick_44">
     <g id="line2d_50">
      <g>
       <use style="stroke:#000000;stroke-width:0.6;" x="54" xlink:href="#mec1e38d524" y="81.632772"/>
      </g>
     </g>
    </g>
    <g id="ytick_45">
     <g id="line2d_51">
      <g>
       <use style="stroke:#000000;stroke-width:0.6;" x="54" xlink:href="#mec1e38d524" y="68.194164"/>
      </g>
     </g>
    </g>
    <g id="ytick_46">
     <g id="line2d_52">
      <g>
       <use style="stroke:#000000;stroke-width:0.6;" x="54" xlink:href="#mec1e38d524" y="61.370326"/>
      </g>
     </g>
    </g>
    <g id="ytick_47">
     <g id="line2d_53">
      <g>
       <use style="stroke:#000000;stroke-width:0.6;" x="54" xlink:href="#mec1e38d524" y="56.528736"/>
      </g>
     </g>
    </g>
    <g id="ytick_48">
     <g id="line2d_54">
      <g>
       <use style="stroke:#000000;stroke-width:0.6;" x="54" xlink:href="#mec1e38d524" y="52.773307"/>
      </g>
     </g>
    </g>
    <g id="ytick_49">
     <g id="line2d_55">
      <g>
       <use style="stroke:#000000;stroke-width:0.6;" x="54" xlink:href="#mec1e38d524" y="49.704899"/>
      </g>
     </g>
    </g>
    <g id="ytick_50">
     <g id="line2d_56">
      <g>
       <use style="stroke:#000000;stroke-width:0.6;" x="54" xlink:href="#mec1e38d524" y="47.110596"/>
      </g>
     </g>
    </g>
    <g id="ytick_51">
     <g id="line2d_57">
      <g>
       <use style="stroke:#000000;stroke-width:0.6;" x="54" xlink:href="#mec1e38d524" y="44.863309"/>
      </g>
     </g>
    </g>
    <g id="ytick_52">
     <g id="line2d_58">
      <g>
       <use style="stroke:#000000;stroke-width:0.6;" x="54" xlink:href="#mec1e38d524" y="42.881061"/>
      </g>
     </g>
    </g>
    <g id="text_14">
     <!-- $r_ 0$ -->
     <g transform="translate(17.420313 147.73)rotate(-90)scale(0.1 -0.1)">
      <defs>
       <path d="M 44.578125 46.390625 
Q 43.21875 47.125 41.453125 47.515625 
Q 39.703125 47.90625 37.703125 47.90625 
Q 30.515625 47.90625 25.140625 42.453125 
Q 19.78125 37.015625 18.015625 27.875 
L 12.5 0 
L 3.515625 0 
L 14.203125 54.6875 
L 23.1875 54.6875 
L 21.484375 46.1875 
Q 25.046875 50.921875 30 53.453125 
Q 34.96875 56 40.578125 56 
Q 42.046875 56 43.453125 55.828125 
Q 44.875 55.671875 46.296875 55.28125 
z
" id="DejaVuSans-Oblique-114"/>
      </defs>
      <use xlink:href="#DejaVuSans-Oblique-114"/>
      <use transform="translate(41.113281 -16.40625)scale(0.7)" xlink:href="#DejaVuSans-48"/>
     </g>
    </g>
   </g>
   <g id="line2d_59">
    <path clip-path="url(#p11bd437846)" d="M 66.174545 160.098151 
L 66.664467 159.591078 
L 67.154388 159.610301 
L 67.644309 159.352626 
L 68.134231 159.610301 
L 68.624152 159.117505 
L 69.114074 159.136195 
L 69.603995 158.885624 
L 70.093916 159.136195 
L 70.583838 158.656895 
L 71.073759 158.675079 
L 71.56368 158.431233 
L 72.053602 158.675079 
L 72.543523 158.19971 
L 73.033444 158.226262 
L 73.523366 157.980056 
L 74.013287 158.226262 
L 74.503208 157.763232 
L 74.99313 157.789104 
L 75.483051 157.540659 
L 75.972972 157.789104 
L 76.462894 157.320992 
L 76.952815 157.363014 
L 77.442736 157.112443 
L 77.932658 157.363014 
L 78.422579 156.89826 
L 78.9125 156.947445 
L 79.402422 156.686768 
L 79.892343 156.947445 
L 80.382264 156.477901 
L 81.362107 156.541892 
L 81.852029 156.541892 
L 82.34195 156.059996 
L 82.831871 156.145882 
L 83.321793 155.858719 
L 84.301635 155.652218 
L 84.791557 155.758976 
L 85.281478 155.448219 
L 86.261321 155.246664 
L 86.751242 155.380766 
L 87.241163 155.047494 
L 87.731085 155.010868 
L 88.221006 154.850654 
L 88.710927 155.010868 
L 89.200849 154.648926 
L 89.69077 154.648926 
L 90.180691 154.456667 
L 90.670613 154.648926 
L 91.160534 154.25958 
L 91.650455 154.294605 
L 92.140377 154.064774 
L 92.630298 154.294605 
L 93.120219 153.872197 
L 93.610141 153.947589 
L 94.100062 153.681799 
L 95.079905 153.486845 
L 95.569826 153.607585 
L 96.059748 153.300734 
L 97.529512 153.274313 
L 98.019433 152.921642 
L 98.509354 152.947514 
L 98.999276 152.735251 
L 99.489197 152.947514 
L 99.979118 152.54458 
L 100.46904 152.626939 
L 100.958961 152.362297 
L 102.428725 152.312357 
L 102.918646 151.991312 
L 103.408568 152.003547 
L 103.898489 151.802794 
L 104.38841 152.003547 
L 104.878332 151.622345 
L 105.368253 151.700302 
L 105.858175 151.437893 
L 106.348096 151.402424 
L 106.838017 151.25544 
L 107.327939 151.402424 
L 107.81786 151.074943 
L 108.307781 151.109727 
L 108.797703 150.890633 
L 109.777545 150.70832 
L 110.267467 150.822034 
L 110.757388 150.52796 
L 111.247309 150.539176 
L 112.227152 150.260994 
L 113.206995 150.260994 
L 113.696916 149.987335 
L 114.186837 149.987335 
L 114.676759 149.809127 
L 115.16668 149.987335 
L 115.656601 149.632787 
L 116.146523 149.718054 
L 116.636444 149.453015 
L 117.126365 149.453015 
L 118.106208 149.192085 
L 118.59613 149.099132 
L 119.086051 149.192085 
L 119.575972 148.919846 
L 120.065894 148.935139 
L 120.555815 148.74245 
L 121.535658 148.561916 
L 122.025579 148.682056 
L 122.5155 148.388233 
L 123.005422 148.432724 
L 123.495343 148.211439 
L 123.985264 148.187031 
L 124.965107 147.944873 
L 125.455028 147.858543 
L 125.94495 147.944873 
L 126.434871 147.682464 
L 126.924792 147.706151 
L 127.414714 147.503523 
L 128.394556 147.470767 
L 128.884478 147.23863 
L 129.374399 147.151251 
L 129.86432 147.23863 
L 130.354242 146.973303 
L 130.844163 147.009652 
L 131.334085 146.797216 
L 131.824006 146.783747 
L 132.803849 146.560835 
L 133.29377 146.446076 
L 133.783691 146.560835 
L 134.273613 146.271039 
L 134.763534 146.340836 
L 135.253455 146.093496 
L 135.743377 146.123676 
L 136.233298 145.917806 
L 136.723219 145.909283 
L 137.213141 145.743931 
L 138.192983 145.567659 
L 139.172826 145.389082 
L 139.662747 145.488519 
L 140.152669 145.212381 
L 140.64259 145.282018 
L 141.132511 145.037515 
L 141.622433 145.07802 
L 142.112354 144.860444 
L 142.602275 144.876465 
L 143.092197 144.685216 
L 144.07204 144.677295 
L 145.051882 144.328501 
L 146.521646 144.093549 
L 148.481332 143.715338 
L 149.951096 143.440835 
L 150.441017 143.529373 
L 150.930938 143.261502 
L 151.42086 143.345441 
L 151.910781 143.084061 
L 152.400702 143.163497 
L 152.890624 142.904906 
L 153.380545 142.983499 
L 153.870466 142.724111 
L 154.360388 142.805406 
L 154.850309 142.545239 
L 159.259601 141.774697 
L 159.749523 141.774697 
L 160.729365 141.45777 
L 161.219287 141.444693 
L 161.709208 141.275615 
L 162.199129 141.282086 
L 162.689051 141.09221 
L 163.178972 141.121036 
L 163.668893 140.907616 
L 164.158815 140.961512 
L 164.648736 140.725026 
L 168.078185 140.185814 
L 168.568107 139.983862 
L 169.058028 140.034875 
L 169.54795 139.799115 
L 171.017714 139.590012 
L 171.507635 139.424001 
L 171.997556 139.4443 
L 172.487478 139.2338 
L 175.916927 138.595566 
L 178.366534 138.090068 
L 178.856455 138.052627 
L 179.346376 137.898396 
L 179.836298 137.919585 
L 180.326219 137.703649 
L 181.795983 137.526657 
L 182.285905 137.313116 
L 183.755669 137.142694 
L 184.24559 136.921447 
L 184.735511 136.891501 
L 185.715354 136.644001 
L 186.205275 136.524043 
L 186.695197 136.521603 
L 189.144803 135.92262 
L 189.634725 135.92262 
L 193.554095 135.006494 
L 194.533938 134.895407 
L 216.580399 129.861162 
L 218.050163 129.455608 
L 219.519927 129.138058 
L 221.479612 128.596367 
L 222.459455 128.369447 
L 224.909062 127.706487 
L 225.888904 127.491179 
L 232.747803 125.604284 
L 236.667174 124.494234 
L 238.136938 124.023444 
L 240.096623 123.452892 
L 244.505915 122.054097 
L 250.384972 120.106301 
L 262.633005 115.438036 
L 268.02214 113.038992 
L 274.881039 109.582304 
L 278.80041 107.328867 
L 282.719781 104.814691 
L 287.129073 101.555837 
L 290.068601 99.062193 
L 292.518207 96.718066 
L 294.967814 94.053534 
L 296.9275 91.626301 
L 298.887185 88.846777 
L 300.356949 86.455673 
L 301.826713 83.709954 
L 303.296477 80.485365 
L 304.766241 76.57173 
L 306.725926 69.190805 
L 307.705769 64.118668 
L 308.195691 60.900116 
L 308.685612 56.941885 
L 309.175533 51.805368 
L 309.665455 44.443636 
L 309.665455 44.443636 
" style="fill:none;stroke:#000000;stroke-linecap:square;stroke-width:1.5;"/>
   </g>
   <g id="line2d_60">
    <path clip-path="url(#p11bd437846)" d="M 66.174545 163.36573 
L 66.664467 163.091489 
L 67.154388 163.36573 
L 67.644309 162.856598 
L 68.624152 162.636448 
L 69.114074 162.775155 
L 69.603995 162.419141 
L 70.093916 162.775155 
L 70.583838 162.193387 
L 71.073759 162.204603 
L 71.56368 161.981691 
L 72.053602 162.204603 
L 72.543523 161.772624 
L 73.033444 162.204603 
L 73.523366 161.555324 
L 74.013287 161.652762 
L 74.503208 161.340794 
L 74.99313 161.652762 
L 75.483051 161.139493 
L 75.972972 161.118442 
L 76.462894 160.930166 
L 76.952815 161.118442 
L 77.442736 160.723411 
L 77.932658 161.118442 
L 78.422579 160.519165 
L 78.9125 160.600566 
L 79.402422 160.317368 
L 79.892343 160.600566 
L 80.382264 160.117962 
L 81.852029 160.098151 
L 82.34195 159.726102 
L 82.831871 160.098151 
L 83.321793 159.52397 
L 83.811714 159.610301 
L 84.301635 159.333695 
L 84.791557 159.610301 
L 85.281478 159.136195 
L 85.771399 159.136195 
L 86.261321 158.940985 
L 86.751242 159.136195 
L 87.241163 158.757153 
L 88.221006 158.566267 
L 88.710927 158.675079 
L 89.200849 158.368586 
L 89.69077 158.675079 
L 90.180691 158.182032 
L 90.670613 158.226262 
L 91.160534 157.997523 
L 91.650455 158.226262 
L 92.140377 157.806374 
L 92.630298 157.789104 
L 93.120219 157.617371 
L 93.610141 157.789104 
L 94.100062 157.438918 
L 95.079905 157.245616 
L 95.569826 157.363014 
L 96.059748 157.062774 
L 96.549669 157.363014 
L 97.03959 156.947445 
L 97.529512 156.947445 
L 98.019433 156.694853 
L 98.509354 156.947445 
L 98.999276 156.517867 
L 99.489197 156.541892 
L 99.979118 156.334804 
L 100.46904 156.541892 
L 100.958961 156.145882 
L 101.448882 156.145882 
L 101.938804 155.9668 
L 102.428725 156.145882 
L 102.918646 155.789603 
L 103.408568 155.758976 
L 103.898489 155.606671 
L 104.38841 155.758976 
L 104.878332 155.425705 
L 106.348096 155.380766 
L 106.838017 155.062167 
L 108.307781 155.010868 
L 108.797703 154.706317 
L 109.777545 154.527618 
L 110.267467 154.648926 
L 110.757388 154.343763 
L 112.227152 154.294605 
L 112.717073 154.294605 
L 113.206995 153.947589 
L 113.696916 153.80395 
L 114.186837 153.947589 
L 114.676759 153.621054 
L 115.16668 153.607585 
L 115.656601 153.446791 
L 116.146523 153.607585 
L 116.636444 153.267715 
L 117.126365 153.274313 
L 117.616287 153.090524 
L 118.106208 153.274313 
L 118.59613 152.908721 
L 119.086051 152.947514 
L 119.575972 152.72886 
L 120.065894 152.947514 
L 120.555815 152.550901 
L 121.045736 152.626939 
L 121.535658 152.36855 
L 122.5155 152.188152 
L 123.005422 152.312357 
L 123.495343 152.009668 
L 123.985264 152.003547 
L 124.475186 151.827 
L 124.965107 152.003547 
L 125.455028 151.646294 
L 125.94495 151.700302 
L 126.434871 151.467507 
L 127.414714 151.284734 
L 127.904635 151.402424 
L 128.394556 151.109727 
L 128.884478 151.109727 
L 129.374399 150.919299 
L 129.86432 151.109727 
L 130.354242 150.736676 
L 130.844163 150.822034 
L 131.334085 150.556014 
L 131.824006 150.539176 
L 132.313927 150.371715 
L 132.803849 150.539176 
L 133.29377 150.189413 
L 133.783691 150.260994 
L 134.273613 150.003629 
L 134.763534 149.987335 
L 135.253455 149.819874 
L 135.743377 149.987335 
L 136.233298 149.632787 
L 136.723219 149.718054 
L 137.213141 149.447757 
L 137.703062 149.453015 
L 138.192983 149.259539 
L 139.172826 149.073402 
L 139.662747 149.192085 
L 140.152669 148.884217 
L 140.64259 148.935139 
L 141.132511 148.697134 
L 141.622433 148.682056 
L 142.602275 148.432724 
L 143.092197 148.314343 
L 143.582118 148.432724 
L 144.07204 148.187031 
L 144.561961 148.187031 
L 145.051882 147.935259 
L 145.541804 147.944873 
L 146.031725 147.739369 
L 146.521646 147.706151 
L 147.501489 147.470767 
L 147.99141 147.354299 
L 148.481332 147.470767 
L 148.971253 147.155839 
L 149.461174 147.23863 
L 149.951096 146.959692 
L 150.441017 147.009652 
L 150.930938 146.765805 
L 151.42086 146.783747 
L 151.910781 146.565264 
L 152.400702 146.560835 
L 152.890624 146.367084 
L 153.380545 146.340836 
L 153.870466 146.166884 
L 154.360388 146.123676 
L 155.34023 145.909283 
L 156.809995 145.559311 
L 158.279759 145.282018 
L 159.259601 145.07802 
L 159.749523 145.07802 
L 160.729365 144.732825 
L 162.199129 144.480454 
L 162.689051 144.312994 
L 163.178972 144.28589 
L 163.668893 144.097374 
L 164.158815 144.093549 
L 164.648736 143.88826 
L 165.138657 143.903381 
L 165.628579 143.670519 
L 166.1185 143.715338 
L 166.608421 143.455559 
L 169.54795 142.79478 
L 170.037871 142.805406 
L 170.527792 142.573172 
L 171.017714 142.629177 
L 171.507635 142.347547 
L 172.977399 142.111301 
L 173.957242 141.774697 
L 175.427006 141.444693 
L 175.916927 141.444693 
L 176.406848 141.194928 
L 177.876612 140.961512 
L 178.366534 140.721895 
L 179.836298 140.491816 
L 180.326219 140.237444 
L 180.81614 140.185814 
L 181.795983 139.885277 
L 182.285905 139.745857 
L 182.775826 139.736997 
L 183.265747 139.496611 
L 183.755669 139.4443 
L 184.735511 139.156607 
L 186.205275 138.734083 
L 186.695197 138.734083 
L 198.94323 135.230893 
L 199.923073 134.895407 
L 201.392837 134.458249 
L 202.862601 133.927301 
L 204.332365 133.514282 
L 206.781972 132.620462 
L 207.761815 132.332769 
L 210.211421 131.49807 
L 215.600556 129.455608 
L 217.07032 128.826389 
L 218.050163 128.444748 
L 220.989691 127.208321 
L 224.41914 125.668153 
L 234.217567 120.478242 
L 236.667174 118.994295 
L 242.54623 114.822248 
L 245.97568 111.9283 
L 248.425286 109.582304 
L 250.874893 106.945875 
L 252.834578 104.520716 
L 254.794264 101.786489 
L 256.264028 99.448486 
L 257.733792 96.798453 
L 259.203556 93.72429 
L 260.67332 90.059245 
L 261.653163 87.15489 
L 262.633005 83.725829 
L 263.612848 79.522195 
L 264.102769 77.131187 
L 265.082612 70.771645 
L 266.062455 60.867416 
L 266.552376 51.997928 
L 266.552376 51.997928 
" style="fill:none;stroke:#000000;stroke-dasharray:5.55,2.4;stroke-dashoffset:0;stroke-width:1.5;"/>
   </g>
   <g id="line2d_61">
    <path clip-path="url(#p11bd437846)" d="M 66.664467 171.256505 
L 80.382264 168.143328 
L 81.362107 168.207319 
L 82.34195 167.733213 
L 96.059748 164.966161 
L 97.03959 165.273012 
L 98.019433 164.587069 
L 111.737231 162.01494 
L 112.717073 162.204603 
L 113.696916 161.652762 
L 141.132511 156.702943 
L 143.092197 156.350644 
L 144.07204 156.541892 
L 145.051882 155.997808 
L 158.76968 153.486845 
L 159.749523 153.607585 
L 160.729365 153.123197 
L 174.447163 150.522355 
L 175.427006 150.539176 
L 176.406848 150.140035 
L 186.205275 148.19191 
L 187.185118 148.187031 
L 193.064174 146.783747 
L 194.044017 146.783747 
L 200.902916 145.282018 
L 201.882758 144.876465 
L 207.761815 143.715338 
L 208.741657 143.345441 
L 211.681185 142.805406 
L 212.661028 142.454775 
L 213.640871 142.282162 
L 214.620713 141.942157 
L 216.580399 141.608886 
L 217.560241 141.282086 
L 218.540084 141.121036 
L 220.49977 140.491816 
L 221.479612 140.33812 
L 222.459455 140.034875 
L 223.439298 139.885277 
L 230.298196 137.919585 
L 237.157095 136.040723 
L 238.136938 135.688871 
L 240.096623 135.11832 
L 242.056309 134.566478 
L 251.854736 131.228789 
L 259.693477 128.294482 
L 263.612848 126.724478 
L 269.491904 124.023444 
L 272.431432 122.578428 
L 277.330646 119.877944 
L 281.250016 117.472631 
L 285.169387 114.721772 
L 287.129073 113.221265 
L 290.068601 110.727621 
L 292.028286 108.883478 
L 294.967814 105.709185 
L 296.9275 103.291728 
L 298.887185 100.50503 
L 300.84687 97.229857 
L 302.806556 93.270174 
L 303.786398 90.921681 
L 304.766241 88.21295 
L 305.746084 85.029741 
L 305.746084 85.029741 
" style="fill:none;stroke:#ff0000;stroke-linecap:square;stroke-width:1.5;"/>
   </g>
   <g id="line2d_62">
    <path clip-path="url(#p11bd437846)" d="M 66.664467 173.166862 
L 74.503208 171.391529 
L 80.382264 170.141551 
L 81.362107 170.801622 
L 82.34195 169.750559 
L 89.200849 168.36837 
L 96.059748 167.06116 
L 97.03959 167.424404 
L 98.019433 166.690937 
L 111.737231 164.153226 
L 127.414714 161.308849 
L 128.394556 161.652762 
L 129.374399 160.950982 
L 143.092197 158.440201 
L 144.07204 158.675079 
L 145.051882 158.076351 
L 162.689051 154.677597 
L 174.447163 152.268781 
L 175.427006 152.312357 
L 176.406848 151.851242 
L 187.185118 149.453015 
L 188.164961 149.453015 
L 196.003702 147.470767 
L 199.923073 146.560835 
L 200.902916 146.123676 
L 203.842444 145.488519 
L 204.822286 145.07802 
L 206.781972 144.677295 
L 207.761815 144.28589 
L 208.741657 144.093549 
L 209.7215 143.715338 
L 210.701343 143.529373 
L 211.681185 143.163497 
L 212.661028 142.983499 
L 213.640871 142.629177 
L 214.620713 142.454775 
L 220.49977 140.491816 
L 226.378826 138.595566 
L 228.338511 137.787588 
L 229.318354 137.526657 
L 239.116781 133.616591 
L 241.076466 132.717463 
L 249.89505 128.294482 
L 256.753949 124.081577 
L 259.693477 121.951163 
L 262.633005 119.607944 
L 264.592691 117.870513 
L 266.552376 116.004983 
L 268.512061 113.907012 
L 270.471747 111.564552 
L 272.431432 108.930753 
L 274.391118 105.846571 
L 276.350803 102.178076 
L 277.330646 100.038099 
L 278.310488 97.62418 
L 279.290331 94.844368 
L 280.270174 91.558712 
L 281.250016 87.555537 
L 282.229859 82.402781 
L 283.209702 75.107647 
L 284.189545 62.372921 
L 284.189545 62.372921 
" style="fill:none;stroke:#ff0000;stroke-dasharray:5.55,2.4;stroke-dashoffset:0;stroke-width:1.5;"/>
   </g>
   <g id="line2d_63">
    <path clip-path="url(#p11bd437846)" d="M 66.664467 182.921933 
L 80.382264 179.808756 
L 90.180691 177.794603 
L 102.918646 175.322167 
L 112.717073 173.514774 
L 118.59613 172.429987 
L 126.434871 171.027527 
L 136.233298 169.248661 
L 150.930938 166.603282 
L 168.568107 163.317713 
L 178.366534 161.426278 
L 193.064174 158.440201 
L 196.983545 157.60883 
L 197.963388 157.789104 
L 198.94323 157.187224 
L 211.681185 154.308635 
L 212.661028 154.294605 
L 213.640871 153.844865 
L 225.398983 150.902094 
L 226.378826 150.640458 
L 227.358668 150.539176 
L 228.338511 150.118136 
L 237.157095 147.630469 
L 241.076466 146.450476 
L 242.056309 146.340836 
L 243.036151 145.837007 
L 250.874893 143.239674 
L 257.733792 140.718765 
L 263.612848 138.327337 
L 268.512061 136.126274 
L 273.411275 133.686517 
L 277.330646 131.519799 
L 281.250016 129.111341 
L 285.169387 126.391207 
L 290.068601 122.389888 
L 292.028286 120.536636 
L 295.947657 116.149755 
L 297.907342 113.529509 
L 299.867028 110.518229 
L 301.826713 106.903853 
L 302.806556 104.796167 
L 303.786398 102.417478 
L 304.766241 99.692792 
L 305.746084 96.467891 
L 305.746084 96.467891 
" style="fill:none;stroke:#008000;stroke-linecap:square;stroke-width:1.5;"/>
   </g>
   <g id="line2d_64">
    <path clip-path="url(#p11bd437846)" d="M 66.664467 183.951833 
L 73.523366 182.355224 
L 82.34195 180.459887 
L 100.958961 176.804338 
L 105.858175 175.894406 
L 154.850309 166.971561 
L 165.628579 164.913362 
L 188.164961 160.287306 
L 197.963388 158.226262 
L 198.94323 157.85829 
L 210.701343 154.974322 
L 211.681185 154.720695 
L 212.661028 154.648926 
L 213.640871 154.210666 
L 223.439298 151.479367 
L 226.378826 150.60663 
L 227.358668 150.539176 
L 228.338511 150.003629 
L 235.19741 147.782174 
L 242.056309 145.488519 
L 243.036151 144.96888 
L 248.915208 142.611656 
L 254.794264 139.983862 
L 259.693477 137.526657 
L 263.612848 135.339677 
L 267.532219 132.90332 
L 271.45159 130.192791 
L 276.350803 126.067028 
L 279.290331 123.153755 
L 281.250016 120.940533 
L 283.209702 118.443009 
L 285.169387 115.572371 
L 287.129073 112.187683 
L 289.088758 108.053142 
L 290.068601 105.577954 
L 291.048443 102.713909 
L 292.028286 99.311337 
L 293.008129 95.154696 
L 293.987971 89.655344 
L 294.967814 81.614083 
L 295.947657 66.118677 
L 295.947657 66.118677 
" style="fill:none;stroke:#008000;stroke-dasharray:5.55,2.4;stroke-dashoffset:0;stroke-width:1.5;"/>
   </g>
   <g id="line2d_65">
    <path clip-path="url(#p11bd437846)" d="M 66.664467 194.58736 
L 79.402422 191.699225 
L 89.200849 189.688233 
L 92.140377 189.067975 
L 97.03959 188.152216 
L 102.918646 186.987594 
L 105.858175 186.457862 
L 118.59613 184.116026 
L 126.434871 182.692954 
L 135.253455 181.102706 
L 153.870466 177.738033 
L 161.709208 176.278369 
L 178.366534 173.102422 
L 192.084331 170.322322 
L 216.580399 164.795167 
L 224.41914 162.821646 
L 233.237725 160.428057 
L 241.076466 158.120304 
L 249.89505 155.246664 
L 255.774106 153.129739 
L 261.653163 150.81633 
L 266.552376 148.697134 
L 270.471747 146.846695 
L 275.37096 144.2975 
L 279.290331 142.016371 
L 283.209702 139.461719 
L 285.169387 138.057971 
L 289.088758 134.922001 
L 291.048443 133.151038 
L 291.048443 133.151038 
" style="fill:none;stroke:#0000ff;stroke-linecap:square;stroke-width:1.5;"/>
   </g>
   <g id="line2d_66">
    <path clip-path="url(#p11bd437846)" d="M 66.664467 195.134079 
L 75.483051 193.116586 
L 92.140377 189.630892 
L 98.019433 188.523278 
L 100.958961 187.943796 
L 104.878332 187.234007 
L 112.717073 185.761363 
L 137.213141 181.345863 
L 156.809995 177.766295 
L 166.608421 175.894406 
L 173.46732 174.580442 
L 184.24559 172.388838 
L 199.923073 169.01162 
L 218.540084 164.483978 
L 232.257882 160.631193 
L 241.076466 157.823661 
L 248.915208 155.032834 
L 255.774106 152.287443 
L 261.653163 149.643422 
L 265.572533 147.696672 
L 269.491904 145.555139 
L 273.411275 143.174358 
L 277.330646 140.491816 
L 280.270174 138.221771 
L 283.209702 135.663356 
L 285.169387 133.756735 
L 288.108915 130.500361 
L 290.068601 127.977351 
L 291.048443 126.580646 
L 291.048443 126.580646 
" style="fill:none;stroke:#0000ff;stroke-dasharray:5.55,2.4;stroke-dashoffset:0;stroke-width:1.5;"/>
   </g>
   <g id="line2d_67">
    <path clip-path="url(#p11bd437846)" d="M 66.664467 206.329811 
L 67.644309 206.023809 
L 68.624152 205.87287 
L 69.603995 205.574992 
L 70.583838 205.428007 
L 71.56368 205.137833 
L 72.543523 204.994602 
L 74.503208 204.433561 
L 75.483051 204.296175 
L 76.462894 204.024723 
L 77.442736 203.890622 
L 79.402422 203.364652 
L 80.382264 203.235689 
L 82.34195 202.729496 
L 83.321793 202.605291 
L 85.281478 202.117441 
L 86.261321 201.997656 
L 88.221006 201.526866 
L 89.200849 201.411198 
L 92.140377 200.733402 
L 94.100062 200.404473 
L 97.03959 199.870154 
L 102.918646 198.653022 
L 104.878332 198.362012 
L 118.59613 195.781453 
L 128.394556 194.057844 
L 131.334085 193.472406 
L 134.273613 192.976338 
L 137.213141 192.42675 
L 139.172826 192.092153 
L 146.031725 190.816569 
L 147.99141 190.512227 
L 171.507635 186.129239 
L 174.447163 185.535458 
L 181.306062 184.198727 
L 208.741657 178.341723 
L 223.439298 174.745094 
L 235.19741 171.54718 
L 244.995837 168.547324 
L 253.814421 165.530787 
L 260.67332 162.891624 
L 266.552376 160.367591 
L 270.471747 158.512123 
L 275.37096 155.9668 
L 279.290331 153.681799 
L 283.209702 151.127146 
L 285.169387 149.723398 
L 289.088758 146.587429 
L 291.048443 144.816466 
L 291.048443 144.816466 
" style="fill:none;stroke:#ff4500;stroke-linecap:square;stroke-width:1.5;"/>
   </g>
   <g id="line2d_68">
    <path clip-path="url(#p11bd437846)" d="M 66.664467 206.641481 
L 67.644309 206.329811 
L 68.624152 206.176115 
L 69.603995 205.87287 
L 70.583838 205.723272 
L 72.543523 205.137833 
L 73.523366 204.994602 
L 74.503208 204.711744 
L 75.483051 204.572078 
L 76.462894 204.296175 
L 77.442736 204.159902 
L 79.402422 203.625583 
L 80.382264 203.494612 
L 81.362107 203.235689 
L 82.34195 203.107706 
L 84.301635 202.605291 
L 85.281478 202.481996 
L 87.241163 201.997656 
L 88.221006 201.878718 
L 90.180691 201.411198 
L 91.160534 201.296319 
L 93.120219 200.844489 
L 95.079905 200.513403 
L 98.019433 199.975669 
L 102.918646 198.949153 
L 104.878332 198.653022 
L 114.676759 196.714318 
L 116.636444 196.454729 
L 130.354242 193.983541 
L 132.313927 193.616867 
L 135.253455 193.116586 
L 139.172826 192.359296 
L 141.132511 192.026025 
L 147.99141 190.755259 
L 149.951096 190.452013 
L 168.568107 186.938742 
L 195.02386 181.592585 
L 205.802129 179.181881 
L 228.338511 173.47089 
L 240.096623 169.980501 
L 247.935365 167.348079 
L 253.814421 165.179029 
L 260.67332 162.373747 
L 268.512061 158.675079 
L 272.431432 156.565952 
L 276.350803 154.231612 
L 280.270174 151.610384 
L 283.209702 149.395262 
L 285.169387 147.772653 
L 288.108915 145.065858 
L 290.068601 143.033705 
L 291.048443 141.928699 
L 291.048443 141.928699 
" style="fill:none;stroke:#ff4500;stroke-dasharray:5.55,2.4;stroke-dashoffset:0;stroke-width:1.5;"/>
   </g>
   <g id="line2d_69">
    <path clip-path="url(#p11bd437846)" d="M 66.664467 218.150352 
L 69.603995 217.240419 
L 70.583838 217.240419 
L 74.503208 216.098989 
L 75.483051 216.098989 
L 79.402422 215.03008 
L 80.382264 215.03008 
L 85.281478 213.782868 
L 86.261321 213.782868 
L 92.140377 212.39883 
L 93.120219 212.39883 
L 101.938804 210.51529 
L 102.918646 210.318449 
L 103.898489 210.318449 
L 113.696916 208.467172 
L 115.656601 208.120157 
L 116.636444 207.780152 
L 130.354242 205.428007 
L 131.334085 205.137833 
L 134.273613 204.711744 
L 135.253455 204.433561 
L 138.192983 204.024723 
L 139.172826 203.75758 
L 140.152669 203.625583 
L 141.132511 203.364652 
L 143.092197 203.107706 
L 144.07204 202.854624 
L 145.051882 202.729496 
L 146.031725 202.481996 
L 147.99141 202.238084 
L 148.971253 201.997656 
L 149.951096 201.878718 
L 151.910781 201.411198 
L 152.890624 201.296319 
L 153.870466 201.068888 
L 155.830152 200.733402 
L 157.789837 200.404473 
L 160.729365 199.870154 
L 163.668893 199.250587 
L 165.628579 198.949153 
L 181.306062 195.864155 
L 184.24559 195.293603 
L 187.185118 194.664384 
L 189.144803 194.282743 
L 195.02386 193.046316 
L 206.781972 190.452013 
L 230.298196 184.618441 
L 248.915208 178.937526 
L 261.653163 174.164303 
L 266.552376 172.043081 
L 272.431432 169.197585 
L 276.350803 167.091132 
L 281.250016 164.115477 
L 285.169387 161.394171 
L 289.088758 158.252856 
L 291.048443 156.485886 
L 291.048443 156.485886 
" style="fill:none;stroke:#00ff00;stroke-linecap:square;stroke-width:1.5;"/>
   </g>
   <g id="line2d_70">
    <path clip-path="url(#p11bd437846)" d="M 66.664467 218.150352 
L 67.644309 217.841542 
L 68.624152 217.841542 
L 71.56368 216.947722 
L 72.543523 216.947722 
L 76.462894 215.82533 
L 77.442736 215.82533 
L 81.362107 214.773134 
L 82.34195 214.773134 
L 87.241163 213.544146 
L 88.221006 213.544146 
L 95.079905 211.961671 
L 96.059748 211.961671 
L 104.878332 210.123885 
L 108.797703 209.367368 
L 109.777545 209.367368 
L 112.717073 208.821494 
L 114.676759 208.120157 
L 115.656601 208.120157 
L 138.192983 204.159902 
L 139.172826 203.890622 
L 141.132511 203.625583 
L 142.112354 203.364652 
L 144.07204 203.107706 
L 145.051882 202.854624 
L 146.031725 202.729496 
L 147.011568 202.481996 
L 147.99141 202.359598 
L 148.971253 202.117441 
L 149.951096 201.997656 
L 150.930938 201.760615 
L 151.910781 201.643335 
L 152.890624 201.411198 
L 153.870466 201.296319 
L 155.830152 200.844489 
L 157.789837 200.513403 
L 160.729365 199.975669 
L 163.668893 199.352277 
L 165.628579 199.049032 
L 175.427006 197.156066 
L 181.306062 196.030786 
L 184.24559 195.373936 
L 187.185118 194.819497 
L 192.084331 193.76258 
L 216.580399 188.204726 
L 237.157095 182.617315 
L 245.97568 179.808756 
L 249.89505 178.459208 
L 255.774106 176.278369 
L 260.67332 174.301876 
L 268.512061 170.745617 
L 272.431432 168.728201 
L 275.37096 167.091132 
L 279.290331 164.690796 
L 283.209702 161.970622 
L 285.169387 160.458371 
L 289.088758 157.062774 
L 291.048443 155.120987 
L 291.048443 155.120987 
" style="fill:none;stroke:#00ff00;stroke-dasharray:5.55,2.4;stroke-dashoffset:0;stroke-width:1.5;"/>
   </g>
   <g id="line2d_71">
    <path clip-path="url(#p11bd437846)" d="M 66.664467 242.116364 
L 67.644309 242.116364 
L 68.624152 240.869152 
L 72.543523 240.869152 
L 73.523366 239.708026 
L 77.442736 239.708026 
L 78.422579 238.621865 
L 82.34195 238.621865 
L 83.321793 237.601573 
L 87.241163 237.601573 
L 88.221006 236.639617 
L 91.160534 236.639617 
L 92.140377 235.729684 
L 96.059748 235.729684 
L 97.03959 234.866436 
L 99.979118 234.866436 
L 100.958961 234.045314 
L 104.878332 234.045314 
L 105.858175 233.262399 
L 108.797703 233.262399 
L 109.777545 232.514291 
L 112.717073 232.514291 
L 113.696916 231.798027 
L 115.656601 231.798027 
L 116.636444 231.111007 
L 119.575972 231.111007 
L 120.555815 230.450936 
L 123.495343 230.450936 
L 124.475186 229.81578 
L 126.434871 229.81578 
L 127.414714 229.203725 
L 130.354242 229.203725 
L 131.334085 228.61315 
L 133.29377 228.61315 
L 134.273613 228.042598 
L 136.233298 228.042598 
L 137.213141 227.490757 
L 139.172826 227.490757 
L 140.152669 226.956437 
L 142.112354 226.956437 
L 143.092197 226.438561 
L 145.051882 226.438561 
L 146.031725 225.936146 
L 147.99141 225.936146 
L 148.971253 225.448296 
L 149.951096 225.448296 
L 150.930938 224.97419 
L 152.890624 224.97419 
L 153.870466 224.513074 
L 154.850309 224.513074 
L 155.830152 224.064257 
L 157.789837 224.064257 
L 158.76968 223.627099 
L 159.749523 223.627099 
L 160.729365 223.201009 
L 161.709208 223.201009 
L 162.689051 222.78544 
L 164.648736 222.78544 
L 165.628579 222.379887 
L 166.608421 222.379887 
L 167.588264 221.983877 
L 168.568107 221.983877 
L 169.54795 221.596971 
L 170.527792 221.596971 
L 171.507635 221.218761 
L 172.487478 221.218761 
L 173.46732 220.848863 
L 174.447163 220.848863 
L 175.427006 220.486921 
L 176.406848 220.486921 
L 178.366534 219.785584 
L 179.346376 219.785584 
L 180.326219 219.44558 
L 181.306062 219.44558 
L 183.265747 218.785509 
L 184.24559 218.785509 
L 185.225433 218.464934 
L 186.205275 218.464934 
L 188.164961 217.841542 
L 189.144803 217.841542 
L 191.104489 217.240419 
L 192.084331 217.240419 
L 195.02386 216.377171 
L 196.003702 216.377171 
L 198.94323 215.556049 
L 199.923073 215.556049 
L 207.761815 213.544146 
L 208.741657 213.544146 
L 211.681185 212.847647 
L 214.620713 211.961671 
L 219.519927 210.916015 
L 220.49977 210.51529 
L 222.459455 210.123885 
L 223.439298 209.741376 
L 225.398983 209.367368 
L 226.378826 209.001492 
L 239.116781 205.428007 
L 244.995837 203.625583 
L 245.97568 203.235689 
L 246.955522 202.980689 
L 248.915208 202.238084 
L 250.874893 201.643335 
L 255.774106 199.870154 
L 258.713635 198.751154 
L 261.653163 197.518008 
L 264.592691 196.283869 
L 268.512061 194.510687 
L 270.471747 193.544482 
L 275.37096 191.001851 
L 279.290331 188.684844 
L 281.250016 187.433768 
L 285.169387 184.746424 
L 289.088758 181.592585 
L 291.048443 179.808756 
L 291.048443 179.808756 
" style="fill:none;stroke:#6495ed;stroke-linecap:square;stroke-width:1.5;"/>
   </g>
   <g id="line2d_72">
    <path clip-path="url(#p11bd437846)" d="M 66.664467 242.116364 
L 67.644309 242.116364 
L 68.624152 240.869152 
L 72.543523 240.869152 
L 73.523366 239.708026 
L 77.442736 239.708026 
L 78.422579 238.621865 
L 82.34195 238.621865 
L 83.321793 237.601573 
L 87.241163 237.601573 
L 88.221006 236.639617 
L 92.140377 236.639617 
L 93.120219 235.729684 
L 96.059748 235.729684 
L 97.03959 234.866436 
L 100.958961 234.866436 
L 101.938804 234.045314 
L 104.878332 234.045314 
L 105.858175 233.262399 
L 108.797703 233.262399 
L 109.777545 232.514291 
L 112.717073 232.514291 
L 114.676759 231.111007 
L 115.656601 231.798027 
L 116.636444 231.798027 
L 117.616287 231.111007 
L 119.575972 231.111007 
L 120.555815 230.450936 
L 123.495343 230.450936 
L 124.475186 229.81578 
L 126.434871 229.81578 
L 127.414714 229.203725 
L 130.354242 229.203725 
L 131.334085 228.61315 
L 133.29377 228.61315 
L 134.273613 228.042598 
L 136.233298 228.042598 
L 137.213141 227.490757 
L 139.172826 227.490757 
L 140.152669 226.956437 
L 142.112354 226.956437 
L 143.092197 226.438561 
L 145.051882 226.438561 
L 146.031725 225.936146 
L 147.99141 225.936146 
L 148.971253 225.448296 
L 149.951096 225.448296 
L 150.930938 224.97419 
L 152.890624 224.97419 
L 153.870466 224.513074 
L 154.850309 224.513074 
L 155.830152 224.064257 
L 157.789837 224.064257 
L 158.76968 223.627099 
L 159.749523 223.627099 
L 160.729365 223.201009 
L 161.709208 223.201009 
L 163.668893 222.379887 
L 164.648736 222.78544 
L 165.628579 222.379887 
L 166.608421 222.379887 
L 167.588264 221.983877 
L 168.568107 221.983877 
L 169.54795 221.596971 
L 170.527792 221.596971 
L 171.507635 221.218761 
L 172.487478 221.218761 
L 173.46732 220.848863 
L 174.447163 220.848863 
L 175.427006 220.486921 
L 176.406848 220.486921 
L 178.366534 219.785584 
L 179.346376 219.785584 
L 180.326219 219.44558 
L 181.306062 219.44558 
L 182.285905 219.112308 
L 183.265747 219.112308 
L 185.225433 218.464934 
L 186.205275 218.464934 
L 188.164961 217.841542 
L 189.144803 217.841542 
L 191.104489 217.240419 
L 192.084331 217.240419 
L 195.02386 216.377171 
L 196.003702 216.377171 
L 198.94323 215.556049 
L 199.923073 215.556049 
L 206.781972 213.782868 
L 207.761815 213.782868 
L 211.681185 212.847647 
L 214.620713 211.961671 
L 219.519927 210.916015 
L 220.49977 210.51529 
L 222.459455 210.123885 
L 223.439298 209.741376 
L 225.398983 209.367368 
L 226.378826 209.001492 
L 239.116781 205.428007 
L 244.995837 203.625583 
L 245.97568 203.235689 
L 246.955522 202.980689 
L 252.834578 200.844489 
L 255.774106 199.765296 
L 260.67332 197.887906 
L 261.653163 197.336065 
L 262.633005 197.066784 
L 269.491904 193.909564 
L 277.330646 189.74577 
L 283.209702 185.944296 
L 287.129073 182.960401 
L 289.088758 181.310911 
L 291.048443 179.4924 
L 291.048443 179.4924 
" style="fill:none;stroke:#6495ed;stroke-dasharray:5.55,2.4;stroke-dashoffset:0;stroke-width:1.5;"/>
   </g>
   <g id="patch_3">
    <path d="M 54 252 
L 54 34.56 
" style="fill:none;stroke:#000000;stroke-linecap:square;stroke-linejoin:miter;stroke-width:0.8;"/>
   </g>
   <g id="patch_4">
    <path d="M 321.84 252 
L 321.84 34.56 
" style="fill:none;stroke:#000000;stroke-linecap:square;stroke-linejoin:miter;stroke-width:0.8;"/>
   </g>
   <g id="patch_5">
    <path d="M 54 252 
L 321.84 252 
" style="fill:none;stroke:#000000;stroke-linecap:square;stroke-linejoin:miter;stroke-width:0.8;"/>
   </g>
   <g id="patch_6">
    <path d="M 54 34.56 
L 321.84 34.56 
" style="fill:none;stroke:#000000;stroke-linecap:square;stroke-linejoin:miter;stroke-width:0.8;"/>
   </g>
   <g id="legend_1">
    <g id="patch_7">
     <path d="M 328.84 249.47375 
L 529.138438 249.47375 
Q 531.138438 249.47375 531.138438 247.47375 
L 531.138438 39.08625 
Q 531.138438 37.08625 529.138438 37.08625 
L 328.84 37.08625 
Q 326.84 37.08625 326.84 39.08625 
L 326.84 247.47375 
Q 326.84 249.47375 328.84 249.47375 
z
" style="fill:#ffffff;opacity:0.8;stroke:#cccccc;stroke-linejoin:miter;"/>
    </g>
    <g id="line2d_73">
     <path d="M 330.84 45.184687 
L 350.84 45.184687 
" style="fill:none;stroke:#000000;stroke-linecap:square;stroke-width:1.5;"/>
    </g>
    <g id="line2d_74"/>
    <g id="text_15">
     <!-- LE for A_init=8 -->
     <g transform="translate(358.84 48.684687)scale(0.1 -0.1)">
      <defs>
       <path d="M 9.8125 72.90625 
L 19.671875 72.90625 
L 19.671875 8.296875 
L 55.171875 8.296875 
L 55.171875 0 
L 9.8125 0 
z
" id="DejaVuSans-76"/>
       <path d="M 9.8125 72.90625 
L 55.90625 72.90625 
L 55.90625 64.59375 
L 19.671875 64.59375 
L 19.671875 43.015625 
L 54.390625 43.015625 
L 54.390625 34.71875 
L 19.671875 34.71875 
L 19.671875 8.296875 
L 56.78125 8.296875 
L 56.78125 0 
L 9.8125 0 
z
" id="DejaVuSans-69"/>
       <path id="DejaVuSans-32"/>
       <path d="M 37.109375 75.984375 
L 37.109375 68.5 
L 28.515625 68.5 
Q 23.6875 68.5 21.796875 66.546875 
Q 19.921875 64.59375 19.921875 59.515625 
L 19.921875 54.6875 
L 34.71875 54.6875 
L 34.71875 47.703125 
L 19.921875 47.703125 
L 19.921875 0 
L 10.890625 0 
L 10.890625 47.703125 
L 2.296875 47.703125 
L 2.296875 54.6875 
L 10.890625 54.6875 
L 10.890625 58.5 
Q 10.890625 67.625 15.140625 71.796875 
Q 19.390625 75.984375 28.609375 75.984375 
z
" id="DejaVuSans-102"/>
       <path d="M 30.609375 48.390625 
Q 23.390625 48.390625 19.1875 42.75 
Q 14.984375 37.109375 14.984375 27.296875 
Q 14.984375 17.484375 19.15625 11.84375 
Q 23.34375 6.203125 30.609375 6.203125 
Q 37.796875 6.203125 41.984375 11.859375 
Q 46.1875 17.53125 46.1875 27.296875 
Q 46.1875 37.015625 41.984375 42.703125 
Q 37.796875 48.390625 30.609375 48.390625 
z
M 30.609375 56 
Q 42.328125 56 49.015625 48.375 
Q 55.71875 40.765625 55.71875 27.296875 
Q 55.71875 13.875 49.015625 6.21875 
Q 42.328125 -1.421875 30.609375 -1.421875 
Q 18.84375 -1.421875 12.171875 6.21875 
Q 5.515625 13.875 5.515625 27.296875 
Q 5.515625 40.765625 12.171875 48.375 
Q 18.84375 56 30.609375 56 
z
" id="DejaVuSans-111"/>
       <path d="M 41.109375 46.296875 
Q 39.59375 47.171875 37.8125 47.578125 
Q 36.03125 48 33.890625 48 
Q 26.265625 48 22.1875 43.046875 
Q 18.109375 38.09375 18.109375 28.8125 
L 18.109375 0 
L 9.078125 0 
L 9.078125 54.6875 
L 18.109375 54.6875 
L 18.109375 46.1875 
Q 20.953125 51.171875 25.484375 53.578125 
Q 30.03125 56 36.53125 56 
Q 37.453125 56 38.578125 55.875 
Q 39.703125 55.765625 41.0625 55.515625 
z
" id="DejaVuSans-114"/>
       <path d="M 34.1875 63.1875 
L 20.796875 26.90625 
L 47.609375 26.90625 
z
M 28.609375 72.90625 
L 39.796875 72.90625 
L 67.578125 0 
L 57.328125 0 
L 50.6875 18.703125 
L 17.828125 18.703125 
L 11.1875 0 
L 0.78125 0 
z
" id="DejaVuSans-65"/>
       <path d="M 50.984375 -16.609375 
L 50.984375 -23.578125 
L -0.984375 -23.578125 
L -0.984375 -16.609375 
z
" id="DejaVuSans-95"/>
       <path d="M 9.421875 54.6875 
L 18.40625 54.6875 
L 18.40625 0 
L 9.421875 0 
z
M 9.421875 75.984375 
L 18.40625 75.984375 
L 18.40625 64.59375 
L 9.421875 64.59375 
z
" id="DejaVuSans-105"/>
       <path d="M 54.890625 33.015625 
L 54.890625 0 
L 45.90625 0 
L 45.90625 32.71875 
Q 45.90625 40.484375 42.875 44.328125 
Q 39.84375 48.1875 33.796875 48.1875 
Q 26.515625 48.1875 22.3125 43.546875 
Q 18.109375 38.921875 18.109375 30.90625 
L 18.109375 0 
L 9.078125 0 
L 9.078125 54.6875 
L 18.109375 54.6875 
L 18.109375 46.1875 
Q 21.34375 51.125 25.703125 53.5625 
Q 30.078125 56 35.796875 56 
Q 45.21875 56 50.046875 50.171875 
Q 54.890625 44.34375 54.890625 33.015625 
z
" id="DejaVuSans-110"/>
       <path d="M 18.3125 70.21875 
L 18.3125 54.6875 
L 36.8125 54.6875 
L 36.8125 47.703125 
L 18.3125 47.703125 
L 18.3125 18.015625 
Q 18.3125 11.328125 20.140625 9.421875 
Q 21.96875 7.515625 27.59375 7.515625 
L 36.8125 7.515625 
L 36.8125 0 
L 27.59375 0 
Q 17.1875 0 13.234375 3.875 
Q 9.28125 7.765625 9.28125 18.015625 
L 9.28125 47.703125 
L 2.6875 47.703125 
L 2.6875 54.6875 
L 9.28125 54.6875 
L 9.28125 70.21875 
z
" id="DejaVuSans-116"/>
       <path d="M 31.78125 34.625 
Q 24.75 34.625 20.71875 30.859375 
Q 16.703125 27.09375 16.703125 20.515625 
Q 16.703125 13.921875 20.71875 10.15625 
Q 24.75 6.390625 31.78125 6.390625 
Q 38.8125 6.390625 42.859375 10.171875 
Q 46.921875 13.96875 46.921875 20.515625 
Q 46.921875 27.09375 42.890625 30.859375 
Q 38.875 34.625 31.78125 34.625 
z
M 21.921875 38.8125 
Q 15.578125 40.375 12.03125 44.71875 
Q 8.5 49.078125 8.5 55.328125 
Q 8.5 64.0625 14.71875 69.140625 
Q 20.953125 74.21875 31.78125 74.21875 
Q 42.671875 74.21875 48.875 69.140625 
Q 55.078125 64.0625 55.078125 55.328125 
Q 55.078125 49.078125 51.53125 44.71875 
Q 48 40.375 41.703125 38.8125 
Q 48.828125 37.15625 52.796875 32.3125 
Q 56.78125 27.484375 56.78125 20.515625 
Q 56.78125 9.90625 50.3125 4.234375 
Q 43.84375 -1.421875 31.78125 -1.421875 
Q 19.734375 -1.421875 13.25 4.234375 
Q 6.78125 9.90625 6.78125 20.515625 
Q 6.78125 27.484375 10.78125 32.3125 
Q 14.796875 37.15625 21.921875 38.8125 
z
M 18.3125 54.390625 
Q 18.3125 48.734375 21.84375 45.5625 
Q 25.390625 42.390625 31.78125 42.390625 
Q 38.140625 42.390625 41.71875 45.5625 
Q 45.3125 48.734375 45.3125 54.390625 
Q 45.3125 60.0625 41.71875 63.234375 
Q 38.140625 66.40625 31.78125 66.40625 
Q 25.390625 66.40625 21.84375 63.234375 
Q 18.3125 60.0625 18.3125 54.390625 
z
" id="DejaVuSans-56"/>
      </defs>
      <use xlink:href="#DejaVuSans-76"/>
      <use x="55.712891" xlink:href="#DejaVuSans-69"/>
      <use x="118.896484" xlink:href="#DejaVuSans-32"/>
      <use x="150.683594" xlink:href="#DejaVuSans-102"/>
      <use x="185.888672" xlink:href="#DejaVuSans-111"/>
      <use x="247.070312" xlink:href="#DejaVuSans-114"/>
      <use x="288.183594" xlink:href="#DejaVuSans-32"/>
      <use x="319.970703" xlink:href="#DejaVuSans-65"/>
      <use x="388.378906" xlink:href="#DejaVuSans-95"/>
      <use x="438.378906" xlink:href="#DejaVuSans-105"/>
      <use x="466.162109" xlink:href="#DejaVuSans-110"/>
      <use x="529.541016" xlink:href="#DejaVuSans-105"/>
      <use x="557.324219" xlink:href="#DejaVuSans-116"/>
      <use x="596.533203" xlink:href="#DejaVuSans-61"/>
      <use x="680.322266" xlink:href="#DejaVuSans-56"/>
     </g>
    </g>
    <g id="line2d_75">
     <path d="M 330.84 60.140937 
L 350.84 60.140937 
" style="fill:none;stroke:#000000;stroke-dasharray:5.55,2.4;stroke-dashoffset:0;stroke-width:1.5;"/>
    </g>
    <g id="line2d_76"/>
    <g id="text_16">
     <!-- TOV with term=0 for A_init=8 -->
     <g transform="translate(358.84 63.640937)scale(0.1 -0.1)">
      <defs>
       <path d="M -0.296875 72.90625 
L 61.375 72.90625 
L 61.375 64.59375 
L 35.5 64.59375 
L 35.5 0 
L 25.59375 0 
L 25.59375 64.59375 
L -0.296875 64.59375 
z
" id="DejaVuSans-84"/>
       <path d="M 39.40625 66.21875 
Q 28.65625 66.21875 22.328125 58.203125 
Q 16.015625 50.203125 16.015625 36.375 
Q 16.015625 22.609375 22.328125 14.59375 
Q 28.65625 6.59375 39.40625 6.59375 
Q 50.140625 6.59375 56.421875 14.59375 
Q 62.703125 22.609375 62.703125 36.375 
Q 62.703125 50.203125 56.421875 58.203125 
Q 50.140625 66.21875 39.40625 66.21875 
z
M 39.40625 74.21875 
Q 54.734375 74.21875 63.90625 63.9375 
Q 73.09375 53.65625 73.09375 36.375 
Q 73.09375 19.140625 63.90625 8.859375 
Q 54.734375 -1.421875 39.40625 -1.421875 
Q 24.03125 -1.421875 14.8125 8.828125 
Q 5.609375 19.09375 5.609375 36.375 
Q 5.609375 53.65625 14.8125 63.9375 
Q 24.03125 74.21875 39.40625 74.21875 
z
" id="DejaVuSans-79"/>
       <path d="M 28.609375 0 
L 0.78125 72.90625 
L 11.078125 72.90625 
L 34.1875 11.53125 
L 57.328125 72.90625 
L 67.578125 72.90625 
L 39.796875 0 
z
" id="DejaVuSans-86"/>
       <path d="M 4.203125 54.6875 
L 13.1875 54.6875 
L 24.421875 12.015625 
L 35.59375 54.6875 
L 46.1875 54.6875 
L 57.421875 12.015625 
L 68.609375 54.6875 
L 77.59375 54.6875 
L 63.28125 0 
L 52.6875 0 
L 40.921875 44.828125 
L 29.109375 0 
L 18.5 0 
z
" id="DejaVuSans-119"/>
       <path d="M 54.890625 33.015625 
L 54.890625 0 
L 45.90625 0 
L 45.90625 32.71875 
Q 45.90625 40.484375 42.875 44.328125 
Q 39.84375 48.1875 33.796875 48.1875 
Q 26.515625 48.1875 22.3125 43.546875 
Q 18.109375 38.921875 18.109375 30.90625 
L 18.109375 0 
L 9.078125 0 
L 9.078125 75.984375 
L 18.109375 75.984375 
L 18.109375 46.1875 
Q 21.34375 51.125 25.703125 53.5625 
Q 30.078125 56 35.796875 56 
Q 45.21875 56 50.046875 50.171875 
Q 54.890625 44.34375 54.890625 33.015625 
z
" id="DejaVuSans-104"/>
       <path d="M 56.203125 29.59375 
L 56.203125 25.203125 
L 14.890625 25.203125 
Q 15.484375 15.921875 20.484375 11.0625 
Q 25.484375 6.203125 34.421875 6.203125 
Q 39.59375 6.203125 44.453125 7.46875 
Q 49.3125 8.734375 54.109375 11.28125 
L 54.109375 2.78125 
Q 49.265625 0.734375 44.1875 -0.34375 
Q 39.109375 -1.421875 33.890625 -1.421875 
Q 20.796875 -1.421875 13.15625 6.1875 
Q 5.515625 13.8125 5.515625 26.8125 
Q 5.515625 40.234375 12.765625 48.109375 
Q 20.015625 56 32.328125 56 
Q 43.359375 56 49.78125 48.890625 
Q 56.203125 41.796875 56.203125 29.59375 
z
M 47.21875 32.234375 
Q 47.125 39.59375 43.09375 43.984375 
Q 39.0625 48.390625 32.421875 48.390625 
Q 24.90625 48.390625 20.390625 44.140625 
Q 15.875 39.890625 15.1875 32.171875 
z
" id="DejaVuSans-101"/>
       <path d="M 52 44.1875 
Q 55.375 50.25 60.0625 53.125 
Q 64.75 56 71.09375 56 
Q 79.640625 56 84.28125 50.015625 
Q 88.921875 44.046875 88.921875 33.015625 
L 88.921875 0 
L 79.890625 0 
L 79.890625 32.71875 
Q 79.890625 40.578125 77.09375 44.375 
Q 74.3125 48.1875 68.609375 48.1875 
Q 61.625 48.1875 57.5625 43.546875 
Q 53.515625 38.921875 53.515625 30.90625 
L 53.515625 0 
L 44.484375 0 
L 44.484375 32.71875 
Q 44.484375 40.625 41.703125 44.40625 
Q 38.921875 48.1875 33.109375 48.1875 
Q 26.21875 48.1875 22.15625 43.53125 
Q 18.109375 38.875 18.109375 30.90625 
L 18.109375 0 
L 9.078125 0 
L 9.078125 54.6875 
L 18.109375 54.6875 
L 18.109375 46.1875 
Q 21.1875 51.21875 25.484375 53.609375 
Q 29.78125 56 35.6875 56 
Q 41.65625 56 45.828125 52.96875 
Q 50 49.953125 52 44.1875 
z
" id="DejaVuSans-109"/>
      </defs>
      <use xlink:href="#DejaVuSans-84"/>
      <use x="61.083984" xlink:href="#DejaVuSans-79"/>
      <use x="138.044922" xlink:href="#DejaVuSans-86"/>
      <use x="206.453125" xlink:href="#DejaVuSans-32"/>
      <use x="238.240234" xlink:href="#DejaVuSans-119"/>
      <use x="320.027344" xlink:href="#DejaVuSans-105"/>
      <use x="347.810547" xlink:href="#DejaVuSans-116"/>
      <use x="387.019531" xlink:href="#DejaVuSans-104"/>
      <use x="450.398438" xlink:href="#DejaVuSans-32"/>
      <use x="482.185547" xlink:href="#DejaVuSans-116"/>
      <use x="521.394531" xlink:href="#DejaVuSans-101"/>
      <use x="582.917969" xlink:href="#DejaVuSans-114"/>
      <use x="622.28125" xlink:href="#DejaVuSans-109"/>
      <use x="719.693359" xlink:href="#DejaVuSans-61"/>
      <use x="803.482422" xlink:href="#DejaVuSans-48"/>
      <use x="867.105469" xlink:href="#DejaVuSans-32"/>
      <use x="898.892578" xlink:href="#DejaVuSans-102"/>
      <use x="934.097656" xlink:href="#DejaVuSans-111"/>
      <use x="995.279297" xlink:href="#DejaVuSans-114"/>
      <use x="1036.392578" xlink:href="#DejaVuSans-32"/>
      <use x="1068.179688" xlink:href="#DejaVuSans-65"/>
      <use x="1136.587891" xlink:href="#DejaVuSans-95"/>
      <use x="1186.587891" xlink:href="#DejaVuSans-105"/>
      <use x="1214.371094" xlink:href="#DejaVuSans-110"/>
      <use x="1277.75" xlink:href="#DejaVuSans-105"/>
      <use x="1305.533203" xlink:href="#DejaVuSans-116"/>
      <use x="1344.742188" xlink:href="#DejaVuSans-61"/>
      <use x="1428.53125" xlink:href="#DejaVuSans-56"/>
     </g>
    </g>
    <g id="line2d_77">
     <path d="M 330.84 75.097187 
L 350.84 75.097187 
" style="fill:none;stroke:#ff0000;stroke-linecap:square;stroke-width:1.5;"/>
    </g>
    <g id="line2d_78"/>
    <g id="text_17">
     <!-- LE for A_init=16 -->
     <g transform="translate(358.84 78.597187)scale(0.1 -0.1)">
      <defs>
       <path d="M 33.015625 40.375 
Q 26.375 40.375 22.484375 35.828125 
Q 18.609375 31.296875 18.609375 23.390625 
Q 18.609375 15.53125 22.484375 10.953125 
Q 26.375 6.390625 33.015625 6.390625 
Q 39.65625 6.390625 43.53125 10.953125 
Q 47.40625 15.53125 47.40625 23.390625 
Q 47.40625 31.296875 43.53125 35.828125 
Q 39.65625 40.375 33.015625 40.375 
z
M 52.59375 71.296875 
L 52.59375 62.3125 
Q 48.875 64.0625 45.09375 64.984375 
Q 41.3125 65.921875 37.59375 65.921875 
Q 27.828125 65.921875 22.671875 59.328125 
Q 17.53125 52.734375 16.796875 39.40625 
Q 19.671875 43.65625 24.015625 45.921875 
Q 28.375 48.1875 33.59375 48.1875 
Q 44.578125 48.1875 50.953125 41.515625 
Q 57.328125 34.859375 57.328125 23.390625 
Q 57.328125 12.15625 50.6875 5.359375 
Q 44.046875 -1.421875 33.015625 -1.421875 
Q 20.359375 -1.421875 13.671875 8.265625 
Q 6.984375 17.96875 6.984375 36.375 
Q 6.984375 53.65625 15.1875 63.9375 
Q 23.390625 74.21875 37.203125 74.21875 
Q 40.921875 74.21875 44.703125 73.484375 
Q 48.484375 72.75 52.59375 71.296875 
z
" id="DejaVuSans-54"/>
      </defs>
      <use xlink:href="#DejaVuSans-76"/>
      <use x="55.712891" xlink:href="#DejaVuSans-69"/>
      <use x="118.896484" xlink:href="#DejaVuSans-32"/>
      <use x="150.683594" xlink:href="#DejaVuSans-102"/>
      <use x="185.888672" xlink:href="#DejaVuSans-111"/>
      <use x="247.070312" xlink:href="#DejaVuSans-114"/>
      <use x="288.183594" xlink:href="#DejaVuSans-32"/>
      <use x="319.970703" xlink:href="#DejaVuSans-65"/>
      <use x="388.378906" xlink:href="#DejaVuSans-95"/>
      <use x="438.378906" xlink:href="#DejaVuSans-105"/>
      <use x="466.162109" xlink:href="#DejaVuSans-110"/>
      <use x="529.541016" xlink:href="#DejaVuSans-105"/>
      <use x="557.324219" xlink:href="#DejaVuSans-116"/>
      <use x="596.533203" xlink:href="#DejaVuSans-61"/>
      <use x="680.322266" xlink:href="#DejaVuSans-49"/>
      <use x="743.945312" xlink:href="#DejaVuSans-54"/>
     </g>
    </g>
    <g id="line2d_79">
     <path d="M 330.84 90.053438 
L 350.84 90.053438 
" style="fill:none;stroke:#ff0000;stroke-dasharray:5.55,2.4;stroke-dashoffset:0;stroke-width:1.5;"/>
    </g>
    <g id="line2d_80"/>
    <g id="text_18">
     <!-- TOV with term=0 for A_init=16 -->
     <g transform="translate(358.84 93.553438)scale(0.1 -0.1)">
      <use xlink:href="#DejaVuSans-84"/>
      <use x="61.083984" xlink:href="#DejaVuSans-79"/>
      <use x="138.044922" xlink:href="#DejaVuSans-86"/>
      <use x="206.453125" xlink:href="#DejaVuSans-32"/>
      <use x="238.240234" xlink:href="#DejaVuSans-119"/>
      <use x="320.027344" xlink:href="#DejaVuSans-105"/>
      <use x="347.810547" xlink:href="#DejaVuSans-116"/>
      <use x="387.019531" xlink:href="#DejaVuSans-104"/>
      <use x="450.398438" xlink:href="#DejaVuSans-32"/>
      <use x="482.185547" xlink:href="#DejaVuSans-116"/>
      <use x="521.394531" xlink:href="#DejaVuSans-101"/>
      <use x="582.917969" xlink:href="#DejaVuSans-114"/>
      <use x="622.28125" xlink:href="#DejaVuSans-109"/>
      <use x="719.693359" xlink:href="#DejaVuSans-61"/>
      <use x="803.482422" xlink:href="#DejaVuSans-48"/>
      <use x="867.105469" xlink:href="#DejaVuSans-32"/>
      <use x="898.892578" xlink:href="#DejaVuSans-102"/>
      <use x="934.097656" xlink:href="#DejaVuSans-111"/>
      <use x="995.279297" xlink:href="#DejaVuSans-114"/>
      <use x="1036.392578" xlink:href="#DejaVuSans-32"/>
      <use x="1068.179688" xlink:href="#DejaVuSans-65"/>
      <use x="1136.587891" xlink:href="#DejaVuSans-95"/>
      <use x="1186.587891" xlink:href="#DejaVuSans-105"/>
      <use x="1214.371094" xlink:href="#DejaVuSans-110"/>
      <use x="1277.75" xlink:href="#DejaVuSans-105"/>
      <use x="1305.533203" xlink:href="#DejaVuSans-116"/>
      <use x="1344.742188" xlink:href="#DejaVuSans-61"/>
      <use x="1428.53125" xlink:href="#DejaVuSans-49"/>
      <use x="1492.154297" xlink:href="#DejaVuSans-54"/>
     </g>
    </g>
    <g id="line2d_81">
     <path d="M 330.84 105.009687 
L 350.84 105.009687 
" style="fill:none;stroke:#008000;stroke-linecap:square;stroke-width:1.5;"/>
    </g>
    <g id="line2d_82"/>
    <g id="text_19">
     <!-- LE for A_init=32 -->
     <g transform="translate(358.84 108.509687)scale(0.1 -0.1)">
      <use xlink:href="#DejaVuSans-76"/>
      <use x="55.712891" xlink:href="#DejaVuSans-69"/>
      <use x="118.896484" xlink:href="#DejaVuSans-32"/>
      <use x="150.683594" xlink:href="#DejaVuSans-102"/>
      <use x="185.888672" xlink:href="#DejaVuSans-111"/>
      <use x="247.070312" xlink:href="#DejaVuSans-114"/>
      <use x="288.183594" xlink:href="#DejaVuSans-32"/>
      <use x="319.970703" xlink:href="#DejaVuSans-65"/>
      <use x="388.378906" xlink:href="#DejaVuSans-95"/>
      <use x="438.378906" xlink:href="#DejaVuSans-105"/>
      <use x="466.162109" xlink:href="#DejaVuSans-110"/>
      <use x="529.541016" xlink:href="#DejaVuSans-105"/>
      <use x="557.324219" xlink:href="#DejaVuSans-116"/>
      <use x="596.533203" xlink:href="#DejaVuSans-61"/>
      <use x="680.322266" xlink:href="#DejaVuSans-51"/>
      <use x="743.945312" xlink:href="#DejaVuSans-50"/>
     </g>
    </g>
    <g id="line2d_83">
     <path d="M 330.84 119.965937 
L 350.84 119.965937 
" style="fill:none;stroke:#008000;stroke-dasharray:5.55,2.4;stroke-dashoffset:0;stroke-width:1.5;"/>
    </g>
    <g id="line2d_84"/>
    <g id="text_20">
     <!-- TOV with term=0 for A_init=32 -->
     <g transform="translate(358.84 123.465937)scale(0.1 -0.1)">
      <use xlink:href="#DejaVuSans-84"/>
      <use x="61.083984" xlink:href="#DejaVuSans-79"/>
      <use x="138.044922" xlink:href="#DejaVuSans-86"/>
      <use x="206.453125" xlink:href="#DejaVuSans-32"/>
      <use x="238.240234" xlink:href="#DejaVuSans-119"/>
      <use x="320.027344" xlink:href="#DejaVuSans-105"/>
      <use x="347.810547" xlink:href="#DejaVuSans-116"/>
      <use x="387.019531" xlink:href="#DejaVuSans-104"/>
      <use x="450.398438" xlink:href="#DejaVuSans-32"/>
      <use x="482.185547" xlink:href="#DejaVuSans-116"/>
      <use x="521.394531" xlink:href="#DejaVuSans-101"/>
      <use x="582.917969" xlink:href="#DejaVuSans-114"/>
      <use x="622.28125" xlink:href="#DejaVuSans-109"/>
      <use x="719.693359" xlink:href="#DejaVuSans-61"/>
      <use x="803.482422" xlink:href="#DejaVuSans-48"/>
      <use x="867.105469" xlink:href="#DejaVuSans-32"/>
      <use x="898.892578" xlink:href="#DejaVuSans-102"/>
      <use x="934.097656" xlink:href="#DejaVuSans-111"/>
      <use x="995.279297" xlink:href="#DejaVuSans-114"/>
      <use x="1036.392578" xlink:href="#DejaVuSans-32"/>
      <use x="1068.179688" xlink:href="#DejaVuSans-65"/>
      <use x="1136.587891" xlink:href="#DejaVuSans-95"/>
      <use x="1186.587891" xlink:href="#DejaVuSans-105"/>
      <use x="1214.371094" xlink:href="#DejaVuSans-110"/>
      <use x="1277.75" xlink:href="#DejaVuSans-105"/>
      <use x="1305.533203" xlink:href="#DejaVuSans-116"/>
      <use x="1344.742188" xlink:href="#DejaVuSans-61"/>
      <use x="1428.53125" xlink:href="#DejaVuSans-51"/>
      <use x="1492.154297" xlink:href="#DejaVuSans-50"/>
     </g>
    </g>
    <g id="line2d_85">
     <path d="M 330.84 134.922187 
L 350.84 134.922187 
" style="fill:none;stroke:#0000ff;stroke-linecap:square;stroke-width:1.5;"/>
    </g>
    <g id="line2d_86"/>
    <g id="text_21">
     <!-- LE for A_init=64 -->
     <g transform="translate(358.84 138.422187)scale(0.1 -0.1)">
      <use xlink:href="#DejaVuSans-76"/>
      <use x="55.712891" xlink:href="#DejaVuSans-69"/>
      <use x="118.896484" xlink:href="#DejaVuSans-32"/>
      <use x="150.683594" xlink:href="#DejaVuSans-102"/>
      <use x="185.888672" xlink:href="#DejaVuSans-111"/>
      <use x="247.070312" xlink:href="#DejaVuSans-114"/>
      <use x="288.183594" xlink:href="#DejaVuSans-32"/>
      <use x="319.970703" xlink:href="#DejaVuSans-65"/>
      <use x="388.378906" xlink:href="#DejaVuSans-95"/>
      <use x="438.378906" xlink:href="#DejaVuSans-105"/>
      <use x="466.162109" xlink:href="#DejaVuSans-110"/>
      <use x="529.541016" xlink:href="#DejaVuSans-105"/>
      <use x="557.324219" xlink:href="#DejaVuSans-116"/>
      <use x="596.533203" xlink:href="#DejaVuSans-61"/>
      <use x="680.322266" xlink:href="#DejaVuSans-54"/>
      <use x="743.945312" xlink:href="#DejaVuSans-52"/>
     </g>
    </g>
    <g id="line2d_87">
     <path d="M 330.84 149.878437 
L 350.84 149.878437 
" style="fill:none;stroke:#0000ff;stroke-dasharray:5.55,2.4;stroke-dashoffset:0;stroke-width:1.5;"/>
    </g>
    <g id="line2d_88"/>
    <g id="text_22">
     <!-- TOV with term=0 for A_init=64 -->
     <g transform="translate(358.84 153.378437)scale(0.1 -0.1)">
      <use xlink:href="#DejaVuSans-84"/>
      <use x="61.083984" xlink:href="#DejaVuSans-79"/>
      <use x="138.044922" xlink:href="#DejaVuSans-86"/>
      <use x="206.453125" xlink:href="#DejaVuSans-32"/>
      <use x="238.240234" xlink:href="#DejaVuSans-119"/>
      <use x="320.027344" xlink:href="#DejaVuSans-105"/>
      <use x="347.810547" xlink:href="#DejaVuSans-116"/>
      <use x="387.019531" xlink:href="#DejaVuSans-104"/>
      <use x="450.398438" xlink:href="#DejaVuSans-32"/>
      <use x="482.185547" xlink:href="#DejaVuSans-116"/>
      <use x="521.394531" xlink:href="#DejaVuSans-101"/>
      <use x="582.917969" xlink:href="#DejaVuSans-114"/>
      <use x="622.28125" xlink:href="#DejaVuSans-109"/>
      <use x="719.693359" xlink:href="#DejaVuSans-61"/>
      <use x="803.482422" xlink:href="#DejaVuSans-48"/>
      <use x="867.105469" xlink:href="#DejaVuSans-32"/>
      <use x="898.892578" xlink:href="#DejaVuSans-102"/>
      <use x="934.097656" xlink:href="#DejaVuSans-111"/>
      <use x="995.279297" xlink:href="#DejaVuSans-114"/>
      <use x="1036.392578" xlink:href="#DejaVuSans-32"/>
      <use x="1068.179688" xlink:href="#DejaVuSans-65"/>
      <use x="1136.587891" xlink:href="#DejaVuSans-95"/>
      <use x="1186.587891" xlink:href="#DejaVuSans-105"/>
      <use x="1214.371094" xlink:href="#DejaVuSans-110"/>
      <use x="1277.75" xlink:href="#DejaVuSans-105"/>
      <use x="1305.533203" xlink:href="#DejaVuSans-116"/>
      <use x="1344.742188" xlink:href="#DejaVuSans-61"/>
      <use x="1428.53125" xlink:href="#DejaVuSans-54"/>
      <use x="1492.154297" xlink:href="#DejaVuSans-52"/>
     </g>
    </g>
    <g id="line2d_89">
     <path d="M 330.84 164.834687 
L 350.84 164.834687 
" style="fill:none;stroke:#ff4500;stroke-linecap:square;stroke-width:1.5;"/>
    </g>
    <g id="line2d_90"/>
    <g id="text_23">
     <!-- LE for A_init=128 -->
     <g transform="translate(358.84 168.334687)scale(0.1 -0.1)">
      <use xlink:href="#DejaVuSans-76"/>
      <use x="55.712891" xlink:href="#DejaVuSans-69"/>
      <use x="118.896484" xlink:href="#DejaVuSans-32"/>
      <use x="150.683594" xlink:href="#DejaVuSans-102"/>
      <use x="185.888672" xlink:href="#DejaVuSans-111"/>
      <use x="247.070312" xlink:href="#DejaVuSans-114"/>
      <use x="288.183594" xlink:href="#DejaVuSans-32"/>
      <use x="319.970703" xlink:href="#DejaVuSans-65"/>
      <use x="388.378906" xlink:href="#DejaVuSans-95"/>
      <use x="438.378906" xlink:href="#DejaVuSans-105"/>
      <use x="466.162109" xlink:href="#DejaVuSans-110"/>
      <use x="529.541016" xlink:href="#DejaVuSans-105"/>
      <use x="557.324219" xlink:href="#DejaVuSans-116"/>
      <use x="596.533203" xlink:href="#DejaVuSans-61"/>
      <use x="680.322266" xlink:href="#DejaVuSans-49"/>
      <use x="743.945312" xlink:href="#DejaVuSans-50"/>
      <use x="807.568359" xlink:href="#DejaVuSans-56"/>
     </g>
    </g>
    <g id="line2d_91">
     <path d="M 330.84 179.790937 
L 350.84 179.790937 
" style="fill:none;stroke:#ff4500;stroke-dasharray:5.55,2.4;stroke-dashoffset:0;stroke-width:1.5;"/>
    </g>
    <g id="line2d_92"/>
    <g id="text_24">
     <!-- TOV with term=0 for A_init=128 -->
     <g transform="translate(358.84 183.290937)scale(0.1 -0.1)">
      <use xlink:href="#DejaVuSans-84"/>
      <use x="61.083984" xlink:href="#DejaVuSans-79"/>
      <use x="138.044922" xlink:href="#DejaVuSans-86"/>
      <use x="206.453125" xlink:href="#DejaVuSans-32"/>
      <use x="238.240234" xlink:href="#DejaVuSans-119"/>
      <use x="320.027344" xlink:href="#DejaVuSans-105"/>
      <use x="347.810547" xlink:href="#DejaVuSans-116"/>
      <use x="387.019531" xlink:href="#DejaVuSans-104"/>
      <use x="450.398438" xlink:href="#DejaVuSans-32"/>
      <use x="482.185547" xlink:href="#DejaVuSans-116"/>
      <use x="521.394531" xlink:href="#DejaVuSans-101"/>
      <use x="582.917969" xlink:href="#DejaVuSans-114"/>
      <use x="622.28125" xlink:href="#DejaVuSans-109"/>
      <use x="719.693359" xlink:href="#DejaVuSans-61"/>
      <use x="803.482422" xlink:href="#DejaVuSans-48"/>
      <use x="867.105469" xlink:href="#DejaVuSans-32"/>
      <use x="898.892578" xlink:href="#DejaVuSans-102"/>
      <use x="934.097656" xlink:href="#DejaVuSans-111"/>
      <use x="995.279297" xlink:href="#DejaVuSans-114"/>
      <use x="1036.392578" xlink:href="#DejaVuSans-32"/>
      <use x="1068.179688" xlink:href="#DejaVuSans-65"/>
      <use x="1136.587891" xlink:href="#DejaVuSans-95"/>
      <use x="1186.587891" xlink:href="#DejaVuSans-105"/>
      <use x="1214.371094" xlink:href="#DejaVuSans-110"/>
      <use x="1277.75" xlink:href="#DejaVuSans-105"/>
      <use x="1305.533203" xlink:href="#DejaVuSans-116"/>
      <use x="1344.742188" xlink:href="#DejaVuSans-61"/>
      <use x="1428.53125" xlink:href="#DejaVuSans-49"/>
      <use x="1492.154297" xlink:href="#DejaVuSans-50"/>
      <use x="1555.777344" xlink:href="#DejaVuSans-56"/>
     </g>
    </g>
    <g id="line2d_93">
     <path d="M 330.84 194.747187 
L 350.84 194.747187 
" style="fill:none;stroke:#00ff00;stroke-linecap:square;stroke-width:1.5;"/>
    </g>
    <g id="line2d_94"/>
    <g id="text_25">
     <!-- LE for A_init=256 -->
     <g transform="translate(358.84 198.247187)scale(0.1 -0.1)">
      <use xlink:href="#DejaVuSans-76"/>
      <use x="55.712891" xlink:href="#DejaVuSans-69"/>
      <use x="118.896484" xlink:href="#DejaVuSans-32"/>
      <use x="150.683594" xlink:href="#DejaVuSans-102"/>
      <use x="185.888672" xlink:href="#DejaVuSans-111"/>
      <use x="247.070312" xlink:href="#DejaVuSans-114"/>
      <use x="288.183594" xlink:href="#DejaVuSans-32"/>
      <use x="319.970703" xlink:href="#DejaVuSans-65"/>
      <use x="388.378906" xlink:href="#DejaVuSans-95"/>
      <use x="438.378906" xlink:href="#DejaVuSans-105"/>
      <use x="466.162109" xlink:href="#DejaVuSans-110"/>
      <use x="529.541016" xlink:href="#DejaVuSans-105"/>
      <use x="557.324219" xlink:href="#DejaVuSans-116"/>
      <use x="596.533203" xlink:href="#DejaVuSans-61"/>
      <use x="680.322266" xlink:href="#DejaVuSans-50"/>
      <use x="743.945312" xlink:href="#DejaVuSans-53"/>
      <use x="807.568359" xlink:href="#DejaVuSans-54"/>
     </g>
    </g>
    <g id="line2d_95">
     <path d="M 330.84 209.703437 
L 350.84 209.703437 
" style="fill:none;stroke:#00ff00;stroke-dasharray:5.55,2.4;stroke-dashoffset:0;stroke-width:1.5;"/>
    </g>
    <g id="line2d_96"/>
    <g id="text_26">
     <!-- TOV with term=0 for A_init=256 -->
     <g transform="translate(358.84 213.203437)scale(0.1 -0.1)">
      <use xlink:href="#DejaVuSans-84"/>
      <use x="61.083984" xlink:href="#DejaVuSans-79"/>
      <use x="138.044922" xlink:href="#DejaVuSans-86"/>
      <use x="206.453125" xlink:href="#DejaVuSans-32"/>
      <use x="238.240234" xlink:href="#DejaVuSans-119"/>
      <use x="320.027344" xlink:href="#DejaVuSans-105"/>
      <use x="347.810547" xlink:href="#DejaVuSans-116"/>
      <use x="387.019531" xlink:href="#DejaVuSans-104"/>
      <use x="450.398438" xlink:href="#DejaVuSans-32"/>
      <use x="482.185547" xlink:href="#DejaVuSans-116"/>
      <use x="521.394531" xlink:href="#DejaVuSans-101"/>
      <use x="582.917969" xlink:href="#DejaVuSans-114"/>
      <use x="622.28125" xlink:href="#DejaVuSans-109"/>
      <use x="719.693359" xlink:href="#DejaVuSans-61"/>
      <use x="803.482422" xlink:href="#DejaVuSans-48"/>
      <use x="867.105469" xlink:href="#DejaVuSans-32"/>
      <use x="898.892578" xlink:href="#DejaVuSans-102"/>
      <use x="934.097656" xlink:href="#DejaVuSans-111"/>
      <use x="995.279297" xlink:href="#DejaVuSans-114"/>
      <use x="1036.392578" xlink:href="#DejaVuSans-32"/>
      <use x="1068.179688" xlink:href="#DejaVuSans-65"/>
      <use x="1136.587891" xlink:href="#DejaVuSans-95"/>
      <use x="1186.587891" xlink:href="#DejaVuSans-105"/>
      <use x="1214.371094" xlink:href="#DejaVuSans-110"/>
      <use x="1277.75" xlink:href="#DejaVuSans-105"/>
      <use x="1305.533203" xlink:href="#DejaVuSans-116"/>
      <use x="1344.742188" xlink:href="#DejaVuSans-61"/>
      <use x="1428.53125" xlink:href="#DejaVuSans-50"/>
      <use x="1492.154297" xlink:href="#DejaVuSans-53"/>
      <use x="1555.777344" xlink:href="#DejaVuSans-54"/>
     </g>
    </g>
    <g id="line2d_97">
     <path d="M 330.84 224.659687 
L 350.84 224.659687 
" style="fill:none;stroke:#6495ed;stroke-linecap:square;stroke-width:1.5;"/>
    </g>
    <g id="line2d_98"/>
    <g id="text_27">
     <!-- LE for A_init=1024 -->
     <g transform="translate(358.84 228.159687)scale(0.1 -0.1)">
      <use xlink:href="#DejaVuSans-76"/>
      <use x="55.712891" xlink:href="#DejaVuSans-69"/>
      <use x="118.896484" xlink:href="#DejaVuSans-32"/>
      <use x="150.683594" xlink:href="#DejaVuSans-102"/>
      <use x="185.888672" xlink:href="#DejaVuSans-111"/>
      <use x="247.070312" xlink:href="#DejaVuSans-114"/>
      <use x="288.183594" xlink:href="#DejaVuSans-32"/>
      <use x="319.970703" xlink:href="#DejaVuSans-65"/>
      <use x="388.378906" xlink:href="#DejaVuSans-95"/>
      <use x="438.378906" xlink:href="#DejaVuSans-105"/>
      <use x="466.162109" xlink:href="#DejaVuSans-110"/>
      <use x="529.541016" xlink:href="#DejaVuSans-105"/>
      <use x="557.324219" xlink:href="#DejaVuSans-116"/>
      <use x="596.533203" xlink:href="#DejaVuSans-61"/>
      <use x="680.322266" xlink:href="#DejaVuSans-49"/>
      <use x="743.945312" xlink:href="#DejaVuSans-48"/>
      <use x="807.568359" xlink:href="#DejaVuSans-50"/>
      <use x="871.191406" xlink:href="#DejaVuSans-52"/>
     </g>
    </g>
    <g id="line2d_99">
     <path d="M 330.84 239.615938 
L 350.84 239.615938 
" style="fill:none;stroke:#6495ed;stroke-dasharray:5.55,2.4;stroke-dashoffset:0;stroke-width:1.5;"/>
    </g>
    <g id="line2d_100"/>
    <g id="text_28">
     <!-- TOV with term=0 for A_init=1024 -->
     <g transform="translate(358.84 243.115938)scale(0.1 -0.1)">
      <use xlink:href="#DejaVuSans-84"/>
      <use x="61.083984" xlink:href="#DejaVuSans-79"/>
      <use x="138.044922" xlink:href="#DejaVuSans-86"/>
      <use x="206.453125" xlink:href="#DejaVuSans-32"/>
      <use x="238.240234" xlink:href="#DejaVuSans-119"/>
      <use x="320.027344" xlink:href="#DejaVuSans-105"/>
      <use x="347.810547" xlink:href="#DejaVuSans-116"/>
      <use x="387.019531" xlink:href="#DejaVuSans-104"/>
      <use x="450.398438" xlink:href="#DejaVuSans-32"/>
      <use x="482.185547" xlink:href="#DejaVuSans-116"/>
      <use x="521.394531" xlink:href="#DejaVuSans-101"/>
      <use x="582.917969" xlink:href="#DejaVuSans-114"/>
      <use x="622.28125" xlink:href="#DejaVuSans-109"/>
      <use x="719.693359" xlink:href="#DejaVuSans-61"/>
      <use x="803.482422" xlink:href="#DejaVuSans-48"/>
      <use x="867.105469" xlink:href="#DejaVuSans-32"/>
      <use x="898.892578" xlink:href="#DejaVuSans-102"/>
      <use x="934.097656" xlink:href="#DejaVuSans-111"/>
      <use x="995.279297" xlink:href="#DejaVuSans-114"/>
      <use x="1036.392578" xlink:href="#DejaVuSans-32"/>
      <use x="1068.179688" xlink:href="#DejaVuSans-65"/>
      <use x="1136.587891" xlink:href="#DejaVuSans-95"/>
      <use x="1186.587891" xlink:href="#DejaVuSans-105"/>
      <use x="1214.371094" xlink:href="#DejaVuSans-110"/>
      <use x="1277.75" xlink:href="#DejaVuSans-105"/>
      <use x="1305.533203" xlink:href="#DejaVuSans-116"/>
      <use x="1344.742188" xlink:href="#DejaVuSans-61"/>
      <use x="1428.53125" xlink:href="#DejaVuSans-49"/>
      <use x="1492.154297" xlink:href="#DejaVuSans-48"/>
      <use x="1555.777344" xlink:href="#DejaVuSans-50"/>
      <use x="1619.400391" xlink:href="#DejaVuSans-52"/>
     </g>
    </g>
   </g>
  </g>
 </g>
 <defs>
  <clipPath id="p11bd437846">
   <rect height="217.44" width="267.84" x="54" y="34.56"/>
  </clipPath>
 </defs>
</svg>
