<?xml version="1.0" encoding="utf-8" standalone="no"?>
<!DOCTYPE svg PUBLIC "-//W3C//DTD SVG 1.1//EN"
  "http://www.w3.org/Graphics/SVG/1.1/DTD/svg11.dtd">
<!-- Created with matplotlib (https://matplotlib.org/) -->
<svg height="340.15748pt" version="1.1" viewBox="0 0 453.543307 340.15748" width="453.543307pt" xmlns="http://www.w3.org/2000/svg" xmlns:xlink="http://www.w3.org/1999/xlink">
 <metadata>
  <rdf:RDF xmlns:cc="http://creativecommons.org/ns#" xmlns:dc="http://purl.org/dc/elements/1.1/" xmlns:rdf="http://www.w3.org/1999/02/22-rdf-syntax-ns#">
   <cc:Work>
    <dc:type rdf:resource="http://purl.org/dc/dcmitype/StillImage"/>
    <dc:date>2020-12-29T10:22:34.246225</dc:date>
    <dc:format>image/svg+xml</dc:format>
    <dc:creator>
     <cc:Agent>
      <dc:title>Matplotlib v3.3.3, https://matplotlib.org/</dc:title>
     </cc:Agent>
    </dc:creator>
   </cc:Work>
  </rdf:RDF>
 </metadata>
 <defs>
  <style type="text/css">*{stroke-linecap:butt;stroke-linejoin:round;}</style>
 </defs>
 <g id="figure_1">
  <g id="patch_1">
   <path d="M 0 340.15748 
L 453.543307 340.15748 
L 453.543307 0 
L 0 0 
z
" style="fill:#ffffff;"/>
  </g>
  <g id="axes_1">
   <g id="patch_2">
    <path d="M 30.57782 150.87717 
L 221.371654 150.87717 
L 221.371654 25.8 
L 30.57782 25.8 
z
" style="fill:#ffffff;"/>
   </g>
   <g id="matplotlib.axis_1">
    <g id="xtick_1">
     <g id="line2d_1">
      <defs>
       <path d="M 0 0 
L 0 3.5 
" id="m103394e5aa" style="stroke:#000000;stroke-width:0.8;"/>
      </defs>
      <g>
       <use style="stroke:#000000;stroke-width:0.8;" x="39.250267" xlink:href="#m103394e5aa" y="150.87717"/>
      </g>
     </g>
     <g id="text_1">
      <!-- $\mathdefault{0.0}$ -->
      <g transform="translate(32.885227 164.795668)scale(0.1 -0.1)">
       <defs>
        <path d="M 42 31.84375 
C 42 37.96875 41.90625 48.421875 37.703125 56.453125 
C 34 63.484375 28.09375 66 22.90625 66 
C 18.09375 66 12 63.78125 8.203125 56.5625 
C 4.203125 49.015625 3.796875 39.671875 3.796875 31.84375 
C 3.796875 26.109375 3.90625 17.375 7 9.734375 
C 11.296875 -0.609375 19 -2 22.90625 -2 
C 27.5 -2 34.5 -0.109375 38.59375 9.4375 
C 41.59375 16.375 42 24.5 42 31.84375 
z
M 22.90625 -0.40625 
C 16.5 -0.40625 12.703125 5.125 11.296875 12.75 
C 10.203125 18.6875 10.203125 27.328125 10.203125 32.953125 
C 10.203125 40.6875 10.203125 47.109375 11.5 53.234375 
C 13.40625 61.78125 19 64.390625 22.90625 64.390625 
C 27 64.390625 32.296875 61.671875 34.203125 53.4375 
C 35.5 47.71875 35.59375 40.984375 35.59375 32.953125 
C 35.59375 26.421875 35.59375 18.375 34.40625 12.453125 
C 32.296875 1.5 26.40625 -0.40625 22.90625 -0.40625 
z
" id="CMR17-48"/>
        <path d="M 18.40625 4.796875 
C 18.40625 7.6875 16 9.6875 13.59375 9.6875 
C 10.703125 9.6875 8.703125 7.296875 8.703125 4.890625 
C 8.703125 2 11.09375 0 13.5 0 
C 16.40625 0 18.40625 2.390625 18.40625 4.796875 
z
" id="CMMI12-58"/>
       </defs>
       <use transform="scale(0.996264)" xlink:href="#CMR17-48"/>
       <use transform="translate(45.690477 0)scale(0.996264)" xlink:href="#CMMI12-58"/>
       <use transform="translate(72.787654 0)scale(0.996264)" xlink:href="#CMR17-48"/>
      </g>
     </g>
    </g>
    <g id="xtick_2">
     <g id="line2d_2">
      <g>
       <use style="stroke:#000000;stroke-width:0.8;" x="73.926185" xlink:href="#m103394e5aa" y="150.87717"/>
      </g>
     </g>
     <g id="text_2">
      <!-- $\mathdefault{0.5}$ -->
      <g transform="translate(67.561145 164.795668)scale(0.1 -0.1)">
       <defs>
        <path d="M 11.40625 58.59375 
C 12.40625 58.1875 16.5 56.890625 20.703125 56.890625 
C 30 56.890625 35.09375 61.890625 38 64.6875 
C 38 65.484375 38 66 37.40625 66 
C 37.296875 66 37.09375 66 36.296875 65.59375 
C 32.796875 64.09375 28.703125 63 23.703125 63 
C 20.703125 63 16.203125 63.359375 11.296875 65.484375 
C 10.203125 66 10 66 9.90625 66 
C 9.40625 66 9.296875 65.890625 9.296875 63.90625 
L 9.296875 34.859375 
C 9.296875 33.015625 9.296875 32.5 10.296875 32.5 
C 10.796875 32.5 11 32.703125 11.5 33.421875 
C 14.703125 38.046875 19.09375 40 24.09375 40 
C 27.59375 40 35.09375 37.734375 35.09375 20.203125 
C 35.09375 16.984375 35.09375 11.1875 32.09375 6.59375 
C 29.59375 2.484375 25.703125 0.390625 21.40625 0.390625 
C 14.796875 0.390625 8.09375 4.984375 6.296875 12.6875 
C 6.703125 12.59375 7.5 12.390625 7.90625 12.390625 
C 9.203125 12.390625 11.703125 13.09375 11.703125 16.1875 
C 11.703125 18.890625 9.796875 20 7.90625 20 
C 5.59375 20 4.09375 18.59375 4.09375 15.796875 
C 4.09375 7.09375 11 -2 21.59375 -2 
C 31.90625 -2 41.703125 6.890625 41.703125 19.796875 
C 41.703125 32.09375 33.90625 41.59375 24.203125 41.59375 
C 19.09375 41.59375 14.796875 39.6875 11.40625 36 
z
" id="CMR17-53"/>
       </defs>
       <use transform="scale(0.996264)" xlink:href="#CMR17-48"/>
       <use transform="translate(45.690477 0)scale(0.996264)" xlink:href="#CMMI12-58"/>
       <use transform="translate(72.787654 0)scale(0.996264)" xlink:href="#CMR17-53"/>
      </g>
     </g>
    </g>
    <g id="xtick_3">
     <g id="line2d_3">
      <g>
       <use style="stroke:#000000;stroke-width:0.8;" x="108.602102" xlink:href="#m103394e5aa" y="150.87717"/>
      </g>
     </g>
     <g id="text_3">
      <!-- $\mathdefault{1.0}$ -->
      <g transform="translate(102.237063 164.795668)scale(0.1 -0.1)">
       <defs>
        <path d="M 26.59375 63.796875 
C 26.59375 65.890625 26.5 66 25.09375 66 
C 21.203125 61.359375 15.296875 59.890625 9.703125 59.6875 
C 9.40625 59.6875 8.90625 59.6875 8.796875 59.5 
C 8.703125 59.296875 8.703125 59.09375 8.703125 57 
C 11.796875 57 17 57.59375 21 59.984375 
L 21 7.296875 
C 21 3.796875 20.796875 2.59375 12.203125 2.59375 
L 9.203125 2.59375 
L 9.203125 0 
C 14 0.09375 19 0.1875 23.796875 0.1875 
C 28.59375 0.1875 33.59375 0.09375 38.40625 0 
L 38.40625 2.59375 
L 35.40625 2.59375 
C 26.796875 2.59375 26.59375 3.6875 26.59375 7.296875 
z
" id="CMR17-49"/>
       </defs>
       <use transform="scale(0.996264)" xlink:href="#CMR17-49"/>
       <use transform="translate(45.690477 0)scale(0.996264)" xlink:href="#CMMI12-58"/>
       <use transform="translate(72.787654 0)scale(0.996264)" xlink:href="#CMR17-48"/>
      </g>
     </g>
    </g>
    <g id="xtick_4">
     <g id="line2d_4">
      <g>
       <use style="stroke:#000000;stroke-width:0.8;" x="143.27802" xlink:href="#m103394e5aa" y="150.87717"/>
      </g>
     </g>
     <g id="text_4">
      <!-- $\mathdefault{1.5}$ -->
      <g transform="translate(136.91298 164.795668)scale(0.1 -0.1)">
       <use transform="scale(0.996264)" xlink:href="#CMR17-49"/>
       <use transform="translate(45.690477 0)scale(0.996264)" xlink:href="#CMMI12-58"/>
       <use transform="translate(72.787654 0)scale(0.996264)" xlink:href="#CMR17-53"/>
      </g>
     </g>
    </g>
    <g id="xtick_5">
     <g id="line2d_5">
      <g>
       <use style="stroke:#000000;stroke-width:0.8;" x="177.953937" xlink:href="#m103394e5aa" y="150.87717"/>
      </g>
     </g>
     <g id="text_5">
      <!-- $\mathdefault{2.0}$ -->
      <g transform="translate(171.588898 164.795668)scale(0.1 -0.1)">
       <defs>
        <path d="M 41.703125 15.46875 
L 39.90625 15.46875 
C 38.90625 8.390625 38.09375 7.1875 37.703125 6.59375 
C 37.203125 5.796875 30 5.796875 28.59375 5.796875 
L 9.40625 5.796875 
C 13 9.6875 20 16.765625 28.5 24.9375 
C 34.59375 30.71875 41.703125 37.5 41.703125 47.390625 
C 41.703125 59.1875 32.296875 66 21.796875 66 
C 10.796875 66 4.09375 56.296875 4.09375 47.296875 
C 4.09375 43.390625 7 42.890625 8.203125 42.890625 
C 9.203125 42.890625 12.203125 43.484375 12.203125 46.984375 
C 12.203125 50.09375 9.59375 51 8.203125 51 
C 7.59375 51 7 50.890625 6.59375 50.6875 
C 8.5 59.1875 14.296875 63.390625 20.40625 63.390625 
C 29.09375 63.390625 34.796875 56.5 34.796875 47.390625 
C 34.796875 38.703125 29.703125 31.21875 24 24.734375 
L 4.09375 2.296875 
L 4.09375 0 
L 39.296875 0 
z
" id="CMR17-50"/>
       </defs>
       <use transform="scale(0.996264)" xlink:href="#CMR17-50"/>
       <use transform="translate(45.690477 0)scale(0.996264)" xlink:href="#CMMI12-58"/>
       <use transform="translate(72.787654 0)scale(0.996264)" xlink:href="#CMR17-48"/>
      </g>
     </g>
    </g>
    <g id="xtick_6">
     <g id="line2d_6">
      <g>
       <use style="stroke:#000000;stroke-width:0.8;" x="212.629855" xlink:href="#m103394e5aa" y="150.87717"/>
      </g>
     </g>
     <g id="text_6">
      <!-- $\mathdefault{2.5}$ -->
      <g transform="translate(206.264815 164.795668)scale(0.1 -0.1)">
       <use transform="scale(0.996264)" xlink:href="#CMR17-50"/>
       <use transform="translate(45.690477 0)scale(0.996264)" xlink:href="#CMMI12-58"/>
       <use transform="translate(72.787654 0)scale(0.996264)" xlink:href="#CMR17-53"/>
      </g>
     </g>
    </g>
   </g>
   <g id="matplotlib.axis_2">
    <g id="ytick_1">
     <g id="line2d_7">
      <defs>
       <path d="M 0 0 
L -3.5 0 
" id="m9e6e0cf8d4" style="stroke:#000000;stroke-width:0.8;"/>
      </defs>
      <g>
       <use style="stroke:#000000;stroke-width:0.8;" x="30.57782" xlink:href="#m9e6e0cf8d4" y="145.191844"/>
      </g>
     </g>
     <g id="text_7">
      <!-- $\mathdefault{0.0}$ -->
      <g transform="translate(10.847741 148.651093)scale(0.1 -0.1)">
       <use transform="scale(0.996264)" xlink:href="#CMR17-48"/>
       <use transform="translate(45.690477 0)scale(0.996264)" xlink:href="#CMMI12-58"/>
       <use transform="translate(72.787654 0)scale(0.996264)" xlink:href="#CMR17-48"/>
      </g>
     </g>
    </g>
    <g id="ytick_2">
     <g id="line2d_8">
      <g>
       <use style="stroke:#000000;stroke-width:0.8;" x="30.57782" xlink:href="#m9e6e0cf8d4" y="122.45054"/>
      </g>
     </g>
     <g id="text_8">
      <!-- $\mathdefault{0.1}$ -->
      <g transform="translate(10.847741 125.909789)scale(0.1 -0.1)">
       <use transform="scale(0.996264)" xlink:href="#CMR17-48"/>
       <use transform="translate(45.690477 0)scale(0.996264)" xlink:href="#CMMI12-58"/>
       <use transform="translate(72.787654 0)scale(0.996264)" xlink:href="#CMR17-49"/>
      </g>
     </g>
    </g>
    <g id="ytick_3">
     <g id="line2d_9">
      <g>
       <use style="stroke:#000000;stroke-width:0.8;" x="30.57782" xlink:href="#m9e6e0cf8d4" y="99.709237"/>
      </g>
     </g>
     <g id="text_9">
      <!-- $\mathdefault{0.2}$ -->
      <g transform="translate(10.847741 103.168486)scale(0.1 -0.1)">
       <use transform="scale(0.996264)" xlink:href="#CMR17-48"/>
       <use transform="translate(45.690477 0)scale(0.996264)" xlink:href="#CMMI12-58"/>
       <use transform="translate(72.787654 0)scale(0.996264)" xlink:href="#CMR17-50"/>
      </g>
     </g>
    </g>
    <g id="ytick_4">
     <g id="line2d_10">
      <g>
       <use style="stroke:#000000;stroke-width:0.8;" x="30.57782" xlink:href="#m9e6e0cf8d4" y="76.967933"/>
      </g>
     </g>
     <g id="text_10">
      <!-- $\mathdefault{0.3}$ -->
      <g transform="translate(10.847741 80.427182)scale(0.1 -0.1)">
       <defs>
        <path d="M 22.09375 34 
C 31 34 34.90625 26.140625 34.90625 17.09375 
C 34.90625 5.03125 28.5 0.390625 22.703125 0.390625 
C 17.40625 0.390625 8.796875 3.015625 6.09375 10.796875 
C 6.59375 10.59375 7.09375 10.59375 7.59375 10.59375 
C 10 10.59375 11.796875 12.1875 11.796875 14.796875 
C 11.796875 17.6875 9.59375 19 7.59375 19 
C 5.90625 19 3.296875 18.1875 3.296875 14.484375 
C 3.296875 5.234375 12.296875 -2 22.90625 -2 
C 34 -2 42.5 6.75 42.5 16.984375 
C 42.5 26.84375 34.5 34 25 35.09375 
C 32.59375 36.671875 39.90625 43.375 39.90625 52.390625 
C 39.90625 60.25 32 66 23 66 
C 13.90625 66 5.90625 60.34375 5.90625 52.296875 
C 5.90625 48.796875 8.5 48.1875 9.796875 48.1875 
C 11.90625 48.1875 13.703125 49.484375 13.703125 52.09375 
C 13.703125 54.6875 11.90625 56 9.796875 56 
C 9.40625 56 8.90625 56 8.5 55.796875 
C 11.40625 62.484375 19.296875 63.6875 22.796875 63.6875 
C 26.296875 63.6875 32.90625 61.96875 32.90625 52.296875 
C 32.90625 49.484375 32.5 44.546875 29.09375 40.21875 
C 26.09375 36.390625 22.703125 36.1875 19.40625 35.890625 
C 18.90625 35.890625 16.59375 35.6875 16.203125 35.6875 
C 15.5 35.59375 15.09375 35.5 15.09375 34.796875 
C 15.09375 34.09375 15.203125 34 17.203125 34 
z
" id="CMR17-51"/>
       </defs>
       <use transform="scale(0.996264)" xlink:href="#CMR17-48"/>
       <use transform="translate(45.690477 0)scale(0.996264)" xlink:href="#CMMI12-58"/>
       <use transform="translate(72.787654 0)scale(0.996264)" xlink:href="#CMR17-51"/>
      </g>
     </g>
    </g>
    <g id="ytick_5">
     <g id="line2d_11">
      <g>
       <use style="stroke:#000000;stroke-width:0.8;" x="30.57782" xlink:href="#m9e6e0cf8d4" y="54.226629"/>
      </g>
     </g>
     <g id="text_11">
      <!-- $\mathdefault{0.4}$ -->
      <g transform="translate(10.847741 57.685879)scale(0.1 -0.1)">
       <defs>
        <path d="M 33.59375 64.796875 
C 33.59375 66.890625 33.5 67 31.703125 67 
L 2 19.59375 
L 2 17 
L 27.796875 17 
L 27.796875 7.1875 
C 27.796875 3.59375 27.59375 2.59375 20.59375 2.59375 
L 18.703125 2.59375 
L 18.703125 0 
C 21.90625 0.1875 27.296875 0.1875 30.703125 0.1875 
C 34.09375 0.1875 39.5 0.1875 42.703125 0 
L 42.703125 2.59375 
L 40.796875 2.59375 
C 33.796875 2.59375 33.59375 3.59375 33.59375 7.1875 
L 33.59375 17 
L 43.796875 17 
L 43.796875 19.59375 
L 33.59375 19.59375 
z
M 28.09375 58.171875 
L 28.09375 19.59375 
L 4 19.59375 
z
" id="CMR17-52"/>
       </defs>
       <use transform="scale(0.996264)" xlink:href="#CMR17-48"/>
       <use transform="translate(45.690477 0)scale(0.996264)" xlink:href="#CMMI12-58"/>
       <use transform="translate(72.787654 0)scale(0.996264)" xlink:href="#CMR17-52"/>
      </g>
     </g>
    </g>
    <g id="ytick_6">
     <g id="line2d_12">
      <g>
       <use style="stroke:#000000;stroke-width:0.8;" x="30.57782" xlink:href="#m9e6e0cf8d4" y="31.485326"/>
      </g>
     </g>
     <g id="text_12">
      <!-- $\mathdefault{0.5}$ -->
      <g transform="translate(10.847741 34.944575)scale(0.1 -0.1)">
       <use transform="scale(0.996264)" xlink:href="#CMR17-48"/>
       <use transform="translate(45.690477 0)scale(0.996264)" xlink:href="#CMMI12-58"/>
       <use transform="translate(72.787654 0)scale(0.996264)" xlink:href="#CMR17-53"/>
      </g>
     </g>
    </g>
   </g>
   <g id="line2d_13">
    <path clip-path="url(#pb22bccb82a)" d="M 39.250267 31.485326 
L 39.73573 31.591552 
L 40.290545 31.971301 
L 40.914711 32.724636 
L 41.608229 33.957865 
L 42.3711 35.778858 
L 43.272673 38.523148 
L 44.312951 42.418897 
L 45.561284 47.989414 
L 47.156376 56.228164 
L 49.444987 69.402045 
L 53.952856 95.520662 
L 55.894707 105.364321 
L 57.628503 113.029953 
L 59.223595 119.078629 
L 60.679984 123.773493 
L 62.136373 127.727872 
L 63.523409 130.870363 
L 64.910446 133.476622 
L 66.297483 135.620118 
L 67.684519 137.371733 
L 69.140908 138.860278 
L 70.666648 140.105415 
L 72.331092 141.171541 
L 74.13424 142.059294 
L 76.145443 142.802572 
L 78.503406 143.433734 
L 81.346831 143.957692 
L 84.953126 144.384041 
L 89.738403 144.71246 
L 96.742938 144.95147 
L 108.53275 145.10382 
L 135.37191 145.177377 
L 212.699207 145.19144 
L 212.699207 145.19144 
" style="fill:none;stroke:#000000;stroke-linecap:square;stroke-width:1.5;"/>
   </g>
   <g id="line2d_14">
    <path clip-path="url(#pb22bccb82a)" d="M 39.250267 31.485326 
L 39.73573 31.591526 
L 40.290545 31.970759 
L 40.914711 32.721119 
L 41.608229 33.943932 
L 42.440451 35.92229 
L 43.411377 38.873135 
L 44.590358 43.257623 
L 46.046747 49.62042 
L 48.127302 59.837219 
L 53.32869 85.778909 
L 55.409245 94.85368 
L 57.281744 102.084537 
L 59.084892 108.19277 
L 60.818688 113.310882 
L 62.552484 117.747872 
L 64.286279 121.573261 
L 66.020075 124.859068 
L 67.753871 127.674746 
L 69.557019 130.173194 
L 71.360167 132.297009 
L 73.232666 134.166455 
L 75.174518 135.800788 
L 77.255073 137.265382 
L 79.474331 138.558537 
L 81.901646 139.714733 
L 84.606367 140.749603 
L 87.588496 141.648645 
L 90.986736 142.437395 
L 94.939791 143.121426 
L 99.655715 143.704542 
L 105.481269 144.190134 
L 112.901916 144.57483 
L 123.096636 144.86537 
L 138.492743 145.060624 
L 167.065699 145.165142 
L 212.699207 145.189633 
L 212.699207 145.189633 
" style="fill:none;stroke:#000000;stroke-dasharray:5.55,2.4;stroke-dashoffset:0;stroke-width:1.5;"/>
   </g>
   <g id="line2d_15">
    <path clip-path="url(#pb22bccb82a)" d="M 39.250267 31.485326 
L 40.013137 31.601283 
L 40.776007 31.947472 
L 41.608229 32.584809 
L 42.509803 33.574334 
L 43.480729 34.975906 
L 44.590358 36.982641 
L 45.838691 39.718773 
L 47.29508 43.483439 
L 48.959524 48.42537 
L 51.040079 55.339939 
L 54.022208 66.11607 
L 60.263873 88.820309 
L 62.968595 97.703406 
L 65.326557 104.702034 
L 67.545816 110.596883 
L 69.626371 115.506257 
L 71.637574 119.700828 
L 73.648777 123.383687 
L 75.590629 126.490072 
L 77.53248 129.194092 
L 79.543683 131.613423 
L 81.554886 133.688454 
L 83.635441 135.51753 
L 85.785348 137.11372 
L 88.073959 138.532513 
L 90.501273 139.771439 
L 93.136643 140.860583 
L 95.980068 141.793706 
L 99.170253 142.60457 
L 102.8459 143.302328 
L 107.145714 143.883535 
L 112.347101 144.352972 
L 118.935526 144.714145 
L 127.951264 144.971461 
L 142.029687 145.127496 
L 172.059031 145.188409 
L 212.699207 145.191842 
L 212.699207 145.191842 
" style="fill:none;stroke:#000000;stroke-dasharray:9.6,2.4,1.5,2.4;stroke-dashoffset:0;stroke-width:1.5;"/>
   </g>
   <g id="line2d_16">
    <path clip-path="url(#pb22bccb82a)" d="M 39.250267 31.485326 
L 40.151841 31.599277 
L 41.053415 31.939757 
L 42.02434 32.557134 
L 43.064618 33.50136 
L 44.174247 34.821023 
L 45.42258 36.673963 
L 46.809617 39.161217 
L 48.335357 42.372082 
L 50.069153 46.55059 
L 52.149708 52.177912 
L 54.785078 60.006246 
L 59.154244 73.825559 
L 63.93952 88.739096 
L 66.991001 97.523469 
L 69.626371 104.45101 
L 72.053685 110.223797 
L 74.342296 115.112369 
L 76.561554 119.342279 
L 78.711461 122.977348 
L 80.861368 126.182333 
L 83.011275 128.988035 
L 85.161182 131.428557 
L 87.311089 133.539319 
L 89.530347 135.409628 
L 91.818958 137.049139 
L 94.246272 138.509311 
L 96.81229 139.786238 
L 99.517012 140.882887 
L 102.499141 141.847898 
L 105.758677 142.667388 
L 109.503676 143.373184 
L 113.80349 143.95176 
L 119.004877 144.41886 
L 125.52395 144.771258 
L 134.400985 145.014621 
L 148.410055 145.151741 
L 181.698936 145.191631 
L 199.661062 145.191844 
L 199.661062 145.191844 
" style="fill:none;stroke:#000000;stroke-dasharray:1.5,2.475;stroke-dashoffset:0;stroke-width:1.5;"/>
   </g>
   <g id="patch_3">
    <path d="M 30.57782 150.87717 
L 30.57782 25.8 
" style="fill:none;stroke:#000000;stroke-linecap:square;stroke-linejoin:miter;stroke-width:0.8;"/>
   </g>
   <g id="patch_4">
    <path d="M 221.371654 150.87717 
L 221.371654 25.8 
" style="fill:none;stroke:#000000;stroke-linecap:square;stroke-linejoin:miter;stroke-width:0.8;"/>
   </g>
   <g id="patch_5">
    <path d="M 30.57782 150.87717 
L 221.371654 150.87717 
" style="fill:none;stroke:#000000;stroke-linecap:square;stroke-linejoin:miter;stroke-width:0.8;"/>
   </g>
   <g id="patch_6">
    <path d="M 30.57782 25.8 
L 221.371654 25.8 
" style="fill:none;stroke:#000000;stroke-linecap:square;stroke-linejoin:miter;stroke-width:0.8;"/>
   </g>
   <g id="text_13">
    <!-- Pressure $p(r)$ -->
    <g transform="translate(92.127353 19.8)scale(0.12 -0.12)">
     <defs>
      <path d="M 19.796875 32 
L 35.796875 32 
C 48.703125 32 58.09375 40.359375 58.09375 49.796875 
C 58.09375 59.234375 48.90625 68 35.796875 68 
L 5.203125 68 
L 5.203125 65.390625 
C 12.09375 65.390625 13.203125 65.390625 13.203125 60.921875 
L 13.203125 7.078125 
C 13.203125 2.59375 12.09375 2.59375 5.203125 2.59375 
L 5.203125 0 
C 8.09375 0.1875 13.40625 0.1875 16.5 0.1875 
C 19.59375 0.1875 24.90625 0.1875 27.796875 0 
L 27.796875 2.59375 
C 20.90625 2.59375 19.796875 2.59375 19.796875 7.078125 
z
M 19.59375 34.09375 
L 19.59375 61.515625 
C 19.59375 64.890625 19.796875 65.390625 23.796875 65.390625 
L 33.90625 65.390625 
C 46.796875 65.390625 50.5 58.046875 50.5 49.796875 
C 50.5 40.75 46.09375 34.09375 33.90625 34.09375 
z
" id="CMR17-80"/>
      <path d="M 15 23.703125 
C 15 33.34375 19.09375 42.390625 26.59375 42.390625 
C 27.296875 42.390625 28 42.296875 28.703125 41.984375 
C 28.703125 41.984375 26.5 41.28125 26.5 38.671875 
C 26.5 36.265625 28.40625 35.265625 29.90625 35.265625 
C 31.09375 35.265625 33.296875 35.96875 33.296875 38.78125 
C 33.296875 41.984375 30.09375 44 26.703125 44 
C 19.09375 44 15.796875 36.5625 14.796875 33.046875 
L 14.703125 33.046875 
L 14.703125 44 
L 3.09375 42.890625 
L 3.09375 40.28125 
C 9 40.28125 9.90625 39.6875 9.90625 34.859375 
L 9.90625 6.921875 
C 9.90625 3.09375 9.5 2.59375 3.09375 2.59375 
L 3.09375 0 
C 5.5 0.1875 10.09375 0.1875 12.703125 0.1875 
C 15.59375 0.1875 20.703125 0.1875 23.40625 0 
L 23.40625 2.59375 
C 16.203125 2.59375 15 2.59375 15 7.109375 
z
" id="CMR17-114"/>
      <path d="M 38.09375 23.484375 
C 38.5 23.890625 38.5 24.09375 38.5 25.09375 
C 38.5 35.171875 33.09375 44 21.703125 44 
C 11.09375 44 2.703125 33.984375 2.703125 21.78125 
C 2.703125 8.65625 12.203125 -1 22.796875 -1 
C 34 -1 38.40625 9.671875 38.40625 11.796875 
C 38.40625 12.5 37.796875 12.5 37.59375 12.5 
C 36.90625 12.5 36.796875 12.296875 36.40625 11.078125 
C 34.203125 4.21875 28.703125 0.796875 23.5 0.796875 
C 19.203125 0.796875 14.90625 3.21875 12.203125 7.65625 
C 9.09375 12.796875 9.09375 18.75 9.09375 23.484375 
z
M 9.203125 25 
C 9.90625 39.234375 17.59375 42.390625 21.59375 42.390625 
C 28.40625 42.390625 33 36.0625 33.09375 25 
z
" id="CMR17-101"/>
      <path d="M 30.90625 42 
C 30.90625 43.796875 30.796875 43.890625 30.203125 43.890625 
C 29.796875 43.890625 29.703125 43.796875 28.5 42.296875 
C 28.203125 41.890625 27.296875 40.890625 27 40.5 
C 23.796875 43.890625 19.296875 44 17.59375 44 
C 6.5 44 2.5 38.1875 2.5 32.390625 
C 2.5 23.390625 12.703125 21.296875 15.59375 20.6875 
C 21.90625 19.390625 24.09375 19 26.203125 17.1875 
C 27.5 16 29.703125 13.796875 29.703125 10.1875 
C 29.703125 6 27.296875 0.59375 18.09375 0.59375 
C 9.40625 0.59375 6.296875 7.1875 4.5 16 
C 4.203125 17.390625 4.203125 17.5 3.40625 17.5 
C 2.59375 17.5 2.5 17.390625 2.5 15.390625 
L 2.5 1 
C 2.5 -0.8125 2.59375 -0.90625 3.203125 -0.90625 
C 3.703125 -0.90625 3.796875 -0.8125 4.296875 0 
C 4.90625 0.890625 6.40625 3.296875 7 4.296875 
C 9 1.59375 12.5 -1 18.09375 -1 
C 28 -1 33.296875 4.390625 33.296875 12.1875 
C 33.296875 17.296875 30.59375 20 29.296875 21.1875 
C 26.296875 24.296875 22.796875 25 18.59375 25.796875 
C 13.09375 27 6.09375 28.390625 6.09375 34.5 
C 6.09375 37.09375 7.5 42.59375 17.59375 42.59375 
C 28.296875 42.59375 28.90625 32.59375 29.09375 29.390625 
C 29.203125 28.890625 29.703125 28.796875 30 28.796875 
C 30.90625 28.796875 30.90625 29.09375 30.90625 30.796875 
z
" id="CMR17-115"/>
      <path d="M 29.40625 42.890625 
L 29.40625 40.296875 
C 35.296875 40.296875 36.203125 39.6875 36.203125 34.828125 
L 36.203125 16.453125 
C 36.203125 7.96875 31.703125 0.59375 24.296875 0.59375 
C 16.09375 0.59375 15.40625 5.546875 15.40625 10.796875 
L 15.40625 44 
L 3.296875 42.890625 
L 3.296875 40.296875 
C 7.296875 40.296875 10 40.296875 10.09375 36.25 
L 10.09375 16.859375 
C 10.09375 10.09375 10.09375 5.75 12.703125 2.921875 
C 14 1.609375 16.5 -1 23.703125 -1 
C 32.203125 -1 35.5 6.25 36.296875 8.375 
L 36.40625 8.375 
L 36.40625 -1 
L 48.296875 -0.203125 
L 48.296875 2.40625 
C 42.40625 2.40625 41.5 3.015625 41.5 7.859375 
L 41.5 44 
z
" id="CMR17-117"/>
      <path d="M 4.296875 -12.40625 
C 3.59375 -15.328125 3.203125 -16.109375 -0.90625 -16.109375 
C -2.109375 -16.109375 -3.109375 -16.109375 -3.109375 -18 
C -3.109375 -18.203125 -3 -19 -1.90625 -19 
C -0.609375 -19 0.796875 -18.8125 2.09375 -18.8125 
L 6.40625 -18.8125 
C 8.5 -18.8125 13.59375 -19 15.703125 -19 
C 16.296875 -19 17.5 -19 17.5 -17.203125 
C 17.5 -16.109375 16.796875 -16.109375 15.09375 -16.109375 
C 10.5 -16.109375 10.203125 -15.421875 10.203125 -14.640625 
C 10.203125 -13.484375 14.703125 3.390625 15.296875 5.6875 
C 16.40625 2.890625 19.09375 -1 24.296875 -1 
C 35.59375 -1 47.796875 13.65625 47.796875 28.328125 
C 47.796875 37.5 42.59375 44 35.09375 44 
C 28.703125 44 23.296875 37.796875 22.203125 36.40625 
C 21.40625 41.390625 17.5 44 13.5 44 
C 10.59375 44 8.296875 42.59375 6.40625 38.796875 
C 4.59375 35.203125 3.203125 29.125 3.203125 28.71875 
C 3.203125 28.328125 3.59375 27.828125 4.296875 27.828125 
C 5.09375 27.828125 5.203125 27.921875 5.796875 30.21875 
C 7.296875 36.109375 9.203125 41.984375 13.203125 41.984375 
C 15.5 41.984375 16.296875 40.390625 16.296875 37.40625 
C 16.296875 35.015625 16 34.015625 15.59375 32.21875 
z
M 21.59375 31.125 
C 22.296875 33.90625 25.09375 36.8125 26.703125 38.203125 
C 27.796875 39.203125 31.09375 41.984375 34.90625 41.984375 
C 39.296875 41.984375 41.296875 37.609375 41.296875 32.421875 
C 41.296875 27.625 38.5 16.359375 36 11.171875 
C 33.5 5.78125 28.90625 1 24.296875 1 
C 17.5 1 16.40625 9.578125 16.40625 9.96875 
C 16.40625 10.265625 16.59375 11.0625 16.703125 11.5625 
z
" id="CMMI12-112"/>
      <path d="M 30.59375 -24.40625 
C 30.59375 -24.3125 30.59375 -24.109375 30.296875 -23.8125 
C 25.703125 -19.109375 13.40625 -6.296875 13.40625 24.9375 
C 13.40625 56.171875 25.5 68.875 30.40625 73.890625 
C 30.40625 73.984375 30.59375 74.1875 30.59375 74.484375 
C 30.59375 74.796875 30.296875 75 29.90625 75 
C 28.796875 75 20.296875 67.578125 15.40625 56.5625 
C 10.40625 45.453125 9 34.65625 9 25.046875 
C 9 17.828125 9.703125 5.625 15.703125 -7.296875 
C 20.5 -17.703125 28.703125 -25 29.90625 -25 
C 30.40625 -25 30.59375 -24.8125 30.59375 -24.40625 
z
" id="CMR17-40"/>
      <path d="M 38.90625 41.140625 
C 35.796875 40.59375 34.203125 38.390625 34.203125 36.1875 
C 34.203125 33.796875 36.09375 32.984375 37.5 32.984375 
C 40.296875 32.984375 42.59375 35.390625 42.59375 38.390625 
C 42.59375 41.421875 39.5 44 34.5 44 
C 30.5 44 25.90625 42.1875 21.703125 36.484375 
C 21 41.5625 17 44 13 44 
C 9.09375 44 7.09375 41.28125 5.90625 39.1875 
C 4.203125 35.59375 2.703125 29.5625 2.703125 29.0625 
C 2.703125 28.65625 3.09375 28.140625 3.796875 28.140625 
C 4.59375 28.140625 4.703125 28.25 5.296875 30.578125 
C 6.796875 36.59375 8.703125 41.984375 12.703125 41.984375 
C 15.09375 41.984375 15.796875 40.6875 15.796875 37.796875 
C 15.796875 35.59375 14.796875 31.6875 14.09375 28.546875 
L 11.296875 17.65625 
C 10.90625 15.734375 9.796875 11.1875 9.296875 9.375 
C 8.59375 6.75 7.5 2 7.5 1.5 
C 7.5 0.09375 8.59375 -1 10.09375 -1 
C 11.203125 -1 13.09375 -0.3125 13.703125 1.703125 
C 14 2.5 17.703125 17.75 18.296875 20.078125 
C 18.796875 22.296875 19.40625 24.40625 19.90625 26.640625 
C 20.296875 28.046875 20.703125 29.65625 21 30.96875 
C 21.296875 31.875 24 36.796875 26.5 38.984375 
C 27.703125 40.09375 30.296875 41.984375 34.40625 41.984375 
C 36 41.984375 37.59375 41.78125 38.90625 41.140625 
z
" id="CMMI12-114"/>
      <path d="M 26.296875 24.9375 
C 26.296875 32.140625 25.59375 44.359375 19.59375 57.265625 
C 14.796875 67.6875 6.59375 75 5.40625 75 
C 5.09375 75 4.703125 74.890625 4.703125 74.390625 
C 4.703125 74.1875 4.796875 74.09375 4.90625 73.890625 
C 9.703125 68.875 21.90625 56.171875 21.90625 25.046875 
C 21.90625 -6.1875 9.796875 -18.90625 4.90625 -23.90625 
C 4.796875 -24.109375 4.703125 -24.203125 4.703125 -24.40625 
C 4.703125 -24.90625 5.09375 -25 5.40625 -25 
C 6.5 -25 15 -17.609375 19.90625 -6.59375 
C 24.90625 4.515625 26.296875 15.328125 26.296875 24.9375 
z
" id="CMR17-41"/>
     </defs>
     <use transform="scale(0.996264)" xlink:href="#CMR17-80"/>
     <use transform="translate(62.586301 0)scale(0.996264)" xlink:href="#CMR17-114"/>
     <use transform="translate(97.867068 0)scale(0.996264)" xlink:href="#CMR17-101"/>
     <use transform="translate(138.352729 0)scale(0.996264)" xlink:href="#CMR17-115"/>
     <use transform="translate(174.154066 0)scale(0.996264)" xlink:href="#CMR17-115"/>
     <use transform="translate(209.955404 0)scale(0.996264)" xlink:href="#CMR17-117"/>
     <use transform="translate(260.850774 0)scale(0.996264)" xlink:href="#CMR17-114"/>
     <use transform="translate(296.131542 0)scale(0.996264)" xlink:href="#CMR17-101"/>
     <use transform="translate(366.693168 0)scale(0.996264)" xlink:href="#CMMI12-112"/>
     <use transform="translate(415.652682 0)scale(0.996264)" xlink:href="#CMR17-40"/>
     <use transform="translate(450.93345 0)scale(0.996264)" xlink:href="#CMMI12-114"/>
     <use transform="translate(497.604062 0)scale(0.996264)" xlink:href="#CMR17-41"/>
    </g>
   </g>
   <g id="legend_1">
    <g id="patch_7">
     <path d="M 163.441984 92.369991 
L 214.371654 92.369991 
Q 216.371654 92.369991 216.371654 90.369991 
L 216.371654 32.8 
Q 216.371654 30.8 214.371654 30.8 
L 163.441984 30.8 
Q 161.441984 30.8 161.441984 32.8 
L 161.441984 90.369991 
Q 161.441984 92.369991 163.441984 92.369991 
z
" style="fill:#ffffff;opacity:0.8;stroke:#cccccc;stroke-linejoin:miter;"/>
    </g>
    <g id="line2d_17">
     <path d="M 165.441984 38.898438 
L 185.441984 38.898438 
" style="fill:none;stroke:#000000;stroke-linecap:square;stroke-width:1.5;"/>
    </g>
    <g id="line2d_18"/>
    <g id="text_14">
     <!-- $i=$3 -->
     <g transform="translate(193.441984 42.398438)scale(0.1 -0.1)">
      <defs>
       <path d="M 28.296875 14.265625 
C 28.296875 14.765625 27.90625 15.15625 27.296875 15.15625 
C 26.40625 15.15625 26.296875 14.859375 25.796875 13.15625 
C 23.203125 4.078125 19.09375 1 15.796875 1 
C 14.59375 1 13.203125 1.296875 13.203125 4.28125 
C 13.203125 6.984375 14.40625 9.96875 15.5 12.96875 
L 22.5 31.515625 
C 22.796875 32.3125 23.5 34.109375 23.5 36.015625 
C 23.5 40.203125 20.5 44 15.59375 44 
C 6.40625 44 2.703125 29.53125 2.703125 28.71875 
C 2.703125 28.328125 3.09375 27.828125 3.796875 27.828125 
C 4.703125 27.828125 4.796875 28.234375 5.203125 29.625 
C 7.59375 38 11.40625 41.984375 15.296875 41.984375 
C 16.203125 41.984375 17.90625 41.890625 17.90625 38.703125 
C 17.90625 36.109375 16.59375 32.8125 15.796875 30.625 
L 8.796875 12.0625 
C 8.203125 10.46875 7.59375 8.875 7.59375 7.078125 
C 7.59375 2.59375 10.703125 -1 15.5 -1 
C 24.703125 -1 28.296875 13.5625 28.296875 14.265625 
z
M 27.5 62.6875 
C 27.5 64.1875 26.296875 66 24.09375 66 
C 21.796875 66 19.203125 63.796875 19.203125 61.1875 
C 19.203125 58.6875 21.296875 57.890625 22.5 57.890625 
C 25.203125 57.890625 27.5 60.484375 27.5 62.6875 
z
" id="CMMI12-105"/>
       <path d="M 64.296875 32 
C 65.796875 32 67.296875 32 67.296875 33.6875 
C 67.296875 35.5 65.59375 35.5 63.90625 35.5 
L 8 35.5 
C 6.296875 35.5 4.59375 35.5 4.59375 33.6875 
C 4.59375 32 6.09375 32 7.59375 32 
z
M 63.90625 14.484375 
C 65.59375 14.484375 67.296875 14.484375 67.296875 16.296875 
C 67.296875 18 65.796875 18 64.296875 18 
L 7.59375 18 
C 6.09375 18 4.59375 18 4.59375 16.296875 
C 4.59375 14.484375 6.296875 14.484375 8 14.484375 
z
" id="CMR17-61"/>
      </defs>
      <use transform="scale(0.996264)" xlink:href="#CMMI12-105"/>
      <use transform="translate(60.952611 0)scale(0.996264)" xlink:href="#CMR17-61"/>
      <use transform="translate(132.667399 0)scale(0.996264)" xlink:href="#CMR17-51"/>
     </g>
    </g>
    <g id="line2d_19">
     <path d="M 165.441984 53.576563 
L 185.441984 53.576563 
" style="fill:none;stroke:#000000;stroke-dasharray:5.55,2.4;stroke-dashoffset:0;stroke-width:1.5;"/>
    </g>
    <g id="line2d_20"/>
    <g id="text_15">
     <!-- $i=$2 -->
     <g transform="translate(193.441984 57.076563)scale(0.1 -0.1)">
      <use transform="scale(0.996264)" xlink:href="#CMMI12-105"/>
      <use transform="translate(60.952611 0)scale(0.996264)" xlink:href="#CMR17-61"/>
      <use transform="translate(132.667399 0)scale(0.996264)" xlink:href="#CMR17-50"/>
     </g>
    </g>
    <g id="line2d_21">
     <path d="M 165.441984 68.254688 
L 185.441984 68.254688 
" style="fill:none;stroke:#000000;stroke-dasharray:9.6,2.4,1.5,2.4;stroke-dashoffset:0;stroke-width:1.5;"/>
    </g>
    <g id="line2d_22"/>
    <g id="text_16">
     <!-- $i=$1 -->
     <g transform="translate(193.441984 71.754688)scale(0.1 -0.1)">
      <use transform="scale(0.996264)" xlink:href="#CMMI12-105"/>
      <use transform="translate(60.952611 0)scale(0.996264)" xlink:href="#CMR17-61"/>
      <use transform="translate(132.667399 0)scale(0.996264)" xlink:href="#CMR17-49"/>
     </g>
    </g>
    <g id="line2d_23">
     <path d="M 165.441984 82.932813 
L 185.441984 82.932813 
" style="fill:none;stroke:#000000;stroke-dasharray:1.5,2.475;stroke-dashoffset:0;stroke-width:1.5;"/>
    </g>
    <g id="line2d_24"/>
    <g id="text_17">
     <!-- $i=$0 -->
     <g transform="translate(193.441984 86.432813)scale(0.1 -0.1)">
      <use transform="scale(0.996264)" xlink:href="#CMMI12-105"/>
      <use transform="translate(60.952611 0)scale(0.996264)" xlink:href="#CMR17-61"/>
      <use transform="translate(132.667399 0)scale(0.996264)" xlink:href="#CMR17-48"/>
     </g>
    </g>
   </g>
  </g>
  <g id="axes_2">
   <g id="patch_8">
    <path d="M 30.57782 313.47749 
L 221.371654 313.47749 
L 221.371654 188.400321 
L 30.57782 188.400321 
z
" style="fill:#ffffff;"/>
   </g>
   <g id="matplotlib.axis_3">
    <g id="xtick_7">
     <g id="line2d_25">
      <g>
       <use style="stroke:#000000;stroke-width:0.8;" x="39.250267" xlink:href="#m103394e5aa" y="313.47749"/>
      </g>
     </g>
     <g id="text_18">
      <!-- $\mathdefault{0.0}$ -->
      <g transform="translate(32.885227 327.395989)scale(0.1 -0.1)">
       <use transform="scale(0.996264)" xlink:href="#CMR17-48"/>
       <use transform="translate(45.690477 0)scale(0.996264)" xlink:href="#CMMI12-58"/>
       <use transform="translate(72.787654 0)scale(0.996264)" xlink:href="#CMR17-48"/>
      </g>
     </g>
    </g>
    <g id="xtick_8">
     <g id="line2d_26">
      <g>
       <use style="stroke:#000000;stroke-width:0.8;" x="73.926185" xlink:href="#m103394e5aa" y="313.47749"/>
      </g>
     </g>
     <g id="text_19">
      <!-- $\mathdefault{0.5}$ -->
      <g transform="translate(67.561145 327.395989)scale(0.1 -0.1)">
       <use transform="scale(0.996264)" xlink:href="#CMR17-48"/>
       <use transform="translate(45.690477 0)scale(0.996264)" xlink:href="#CMMI12-58"/>
       <use transform="translate(72.787654 0)scale(0.996264)" xlink:href="#CMR17-53"/>
      </g>
     </g>
    </g>
    <g id="xtick_9">
     <g id="line2d_27">
      <g>
       <use style="stroke:#000000;stroke-width:0.8;" x="108.602102" xlink:href="#m103394e5aa" y="313.47749"/>
      </g>
     </g>
     <g id="text_20">
      <!-- $\mathdefault{1.0}$ -->
      <g transform="translate(102.237063 327.395989)scale(0.1 -0.1)">
       <use transform="scale(0.996264)" xlink:href="#CMR17-49"/>
       <use transform="translate(45.690477 0)scale(0.996264)" xlink:href="#CMMI12-58"/>
       <use transform="translate(72.787654 0)scale(0.996264)" xlink:href="#CMR17-48"/>
      </g>
     </g>
    </g>
    <g id="xtick_10">
     <g id="line2d_28">
      <g>
       <use style="stroke:#000000;stroke-width:0.8;" x="143.27802" xlink:href="#m103394e5aa" y="313.47749"/>
      </g>
     </g>
     <g id="text_21">
      <!-- $\mathdefault{1.5}$ -->
      <g transform="translate(136.91298 327.395989)scale(0.1 -0.1)">
       <use transform="scale(0.996264)" xlink:href="#CMR17-49"/>
       <use transform="translate(45.690477 0)scale(0.996264)" xlink:href="#CMMI12-58"/>
       <use transform="translate(72.787654 0)scale(0.996264)" xlink:href="#CMR17-53"/>
      </g>
     </g>
    </g>
    <g id="xtick_11">
     <g id="line2d_29">
      <g>
       <use style="stroke:#000000;stroke-width:0.8;" x="177.953937" xlink:href="#m103394e5aa" y="313.47749"/>
      </g>
     </g>
     <g id="text_22">
      <!-- $\mathdefault{2.0}$ -->
      <g transform="translate(171.588898 327.395989)scale(0.1 -0.1)">
       <use transform="scale(0.996264)" xlink:href="#CMR17-50"/>
       <use transform="translate(45.690477 0)scale(0.996264)" xlink:href="#CMMI12-58"/>
       <use transform="translate(72.787654 0)scale(0.996264)" xlink:href="#CMR17-48"/>
      </g>
     </g>
    </g>
    <g id="xtick_12">
     <g id="line2d_30">
      <g>
       <use style="stroke:#000000;stroke-width:0.8;" x="212.629855" xlink:href="#m103394e5aa" y="313.47749"/>
      </g>
     </g>
     <g id="text_23">
      <!-- $\mathdefault{2.5}$ -->
      <g transform="translate(206.264815 327.395989)scale(0.1 -0.1)">
       <use transform="scale(0.996264)" xlink:href="#CMR17-50"/>
       <use transform="translate(45.690477 0)scale(0.996264)" xlink:href="#CMMI12-58"/>
       <use transform="translate(72.787654 0)scale(0.996264)" xlink:href="#CMR17-53"/>
      </g>
     </g>
    </g>
   </g>
   <g id="matplotlib.axis_4">
    <g id="ytick_7">
     <g id="line2d_31">
      <g>
       <use style="stroke:#000000;stroke-width:0.8;" x="30.57782" xlink:href="#m9e6e0cf8d4" y="307.792164"/>
      </g>
     </g>
     <g id="text_24">
      <!-- $\mathdefault{0.00}$ -->
      <g transform="translate(5.866406 311.251414)scale(0.1 -0.1)">
       <use transform="scale(0.996264)" xlink:href="#CMR17-48"/>
       <use transform="translate(45.690477 0)scale(0.996264)" xlink:href="#CMMI12-58"/>
       <use transform="translate(72.787654 0)scale(0.996264)" xlink:href="#CMR17-48"/>
       <use transform="translate(118.478131 0)scale(0.996264)" xlink:href="#CMR17-48"/>
      </g>
     </g>
    </g>
    <g id="ytick_8">
     <g id="line2d_32">
      <g>
       <use style="stroke:#000000;stroke-width:0.8;" x="30.57782" xlink:href="#m9e6e0cf8d4" y="282.827349"/>
      </g>
     </g>
     <g id="text_25">
      <!-- $\mathdefault{0.25}$ -->
      <g transform="translate(5.866406 286.286598)scale(0.1 -0.1)">
       <use transform="scale(0.996264)" xlink:href="#CMR17-48"/>
       <use transform="translate(45.690477 0)scale(0.996264)" xlink:href="#CMMI12-58"/>
       <use transform="translate(72.787654 0)scale(0.996264)" xlink:href="#CMR17-50"/>
       <use transform="translate(118.478131 0)scale(0.996264)" xlink:href="#CMR17-53"/>
      </g>
     </g>
    </g>
    <g id="ytick_9">
     <g id="line2d_33">
      <g>
       <use style="stroke:#000000;stroke-width:0.8;" x="30.57782" xlink:href="#m9e6e0cf8d4" y="257.862533"/>
      </g>
     </g>
     <g id="text_26">
      <!-- $\mathdefault{0.50}$ -->
      <g transform="translate(5.866406 261.321782)scale(0.1 -0.1)">
       <use transform="scale(0.996264)" xlink:href="#CMR17-48"/>
       <use transform="translate(45.690477 0)scale(0.996264)" xlink:href="#CMMI12-58"/>
       <use transform="translate(72.787654 0)scale(0.996264)" xlink:href="#CMR17-53"/>
       <use transform="translate(118.478131 0)scale(0.996264)" xlink:href="#CMR17-48"/>
      </g>
     </g>
    </g>
    <g id="ytick_10">
     <g id="line2d_34">
      <g>
       <use style="stroke:#000000;stroke-width:0.8;" x="30.57782" xlink:href="#m9e6e0cf8d4" y="232.897717"/>
      </g>
     </g>
     <g id="text_27">
      <!-- $\mathdefault{0.75}$ -->
      <g transform="translate(5.866406 236.356966)scale(0.1 -0.1)">
       <defs>
        <path d="M 45.09375 61.796875 
L 45.09375 64 
L 21.59375 64 
C 9.90625 64 9.703125 65.09375 9.296875 67 
L 7.5 67 
L 4.59375 48.5 
L 6.40625 48.5 
C 6.703125 50.40625 7.40625 55.5 8.59375 57.390625 
C 9.203125 58.1875 16.59375 58.1875 18.296875 58.1875 
L 40.296875 58.1875 
L 29.203125 41.71875 
C 21.796875 30.640625 16.703125 15.671875 16.703125 2.59375 
C 16.703125 1.390625 16.703125 -2 20.296875 -2 
C 23.90625 -2 23.90625 1.390625 23.90625 2.6875 
L 23.90625 7.28125 
C 23.90625 23.65625 26.703125 34.4375 31.296875 41.3125 
z
" id="CMR17-55"/>
       </defs>
       <use transform="scale(0.996264)" xlink:href="#CMR17-48"/>
       <use transform="translate(45.690477 0)scale(0.996264)" xlink:href="#CMMI12-58"/>
       <use transform="translate(72.787654 0)scale(0.996264)" xlink:href="#CMR17-55"/>
       <use transform="translate(118.478131 0)scale(0.996264)" xlink:href="#CMR17-53"/>
      </g>
     </g>
    </g>
    <g id="ytick_11">
     <g id="line2d_35">
      <g>
       <use style="stroke:#000000;stroke-width:0.8;" x="30.57782" xlink:href="#m9e6e0cf8d4" y="207.932901"/>
      </g>
     </g>
     <g id="text_28">
      <!-- $\mathdefault{1.00}$ -->
      <g transform="translate(5.866406 211.39215)scale(0.1 -0.1)">
       <use transform="scale(0.996264)" xlink:href="#CMR17-49"/>
       <use transform="translate(45.690477 0)scale(0.996264)" xlink:href="#CMMI12-58"/>
       <use transform="translate(72.787654 0)scale(0.996264)" xlink:href="#CMR17-48"/>
       <use transform="translate(118.478131 0)scale(0.996264)" xlink:href="#CMR17-48"/>
      </g>
     </g>
    </g>
   </g>
   <g id="line2d_36">
    <path clip-path="url(#pc72b8833e7)" d="M 39.250267 307.792164 
L 43.480729 307.682782 
L 45.908043 307.385103 
L 48.127302 306.882966 
L 50.346561 306.144371 
L 52.704523 305.120757 
L 55.547948 303.634708 
L 60.610632 300.67987 
L 65.465261 297.953102 
L 69.140908 296.142097 
L 72.747203 294.61092 
L 76.561554 293.237724 
L 80.653313 292.004694 
L 85.230534 290.863131 
L 90.431921 289.802679 
L 96.396179 288.820283 
L 103.331363 287.908604 
L 111.514879 287.062289 
L 121.293488 286.280579 
L 133.152652 285.563863 
L 147.577833 284.922551 
L 165.470607 284.357964 
L 188.079305 283.876908 
L 212.699207 283.536891 
L 212.699207 283.536891 
" style="fill:none;stroke:#000000;stroke-linecap:square;stroke-width:1.5;"/>
   </g>
   <g id="line2d_37">
    <path clip-path="url(#pc72b8833e7)" d="M 39.250267 307.792164 
L 43.480729 307.682737 
L 45.908043 307.38414 
L 48.05795 306.896187 
L 50.138505 306.200204 
L 52.288412 305.248221 
L 54.577023 303.991488 
L 57.14304 302.321732 
L 60.125169 300.102419 
L 63.800817 297.073261 
L 69.279612 292.23398 
L 80.306553 282.461205 
L 85.715996 277.997556 
L 90.709329 274.163144 
L 95.494605 270.766159 
L 100.21053 267.687368 
L 104.995807 264.830108 
L 109.781083 262.229925 
L 114.705064 259.807035 
L 119.767748 257.564388 
L 125.038487 255.475826 
L 130.517282 253.547396 
L 136.204132 251.781835 
L 142.237742 250.143824 
L 148.618111 248.645075 
L 155.414591 247.279897 
L 162.696533 246.046635 
L 170.602643 244.937353 
L 179.20227 243.959166 
L 188.703472 243.106681 
L 199.314302 242.38259 
L 211.381522 241.786822 
L 212.699207 241.733834 
L 212.699207 241.733834 
" style="fill:none;stroke:#000000;stroke-dasharray:5.55,2.4;stroke-dashoffset:0;stroke-width:1.5;"/>
   </g>
   <g id="line2d_38">
    <path clip-path="url(#pc72b8833e7)" d="M 39.250267 307.792164 
L 43.411377 307.686168 
L 45.699988 307.404815 
L 47.711191 306.937574 
L 49.58369 306.276128 
L 51.386838 305.408609 
L 53.259338 304.254418 
L 55.131837 302.838385 
L 57.14304 301.032617 
L 59.292947 298.796199 
L 61.65091 296.018178 
L 64.355631 292.481233 
L 67.684519 287.744386 
L 72.677851 280.200187 
L 80.722664 268.064905 
L 84.953126 262.114898 
L 88.698125 257.230174 
L 92.165717 253.066391 
L 95.494605 249.406971 
L 98.823493 246.078029 
L 102.08303 243.13 
L 105.342566 240.476299 
L 108.671454 238.05195 
L 112.069694 235.853855 
L 115.537286 233.875654 
L 119.143581 232.076132 
L 122.88858 230.457591 
L 126.841635 228.994998 
L 131.002745 227.695055 
L 135.441262 226.54318 
L 140.226539 225.532847 
L 145.497278 224.652497 
L 151.322833 223.910693 
L 157.911257 223.302483 
L 165.539959 222.828722 
L 174.763753 222.487666 
L 186.830972 222.278268 
L 206.04143 222.197031 
L 212.699207 222.194066 
L 212.699207 222.194066 
" style="fill:none;stroke:#000000;stroke-dasharray:9.6,2.4,1.5,2.4;stroke-dashoffset:0;stroke-width:1.5;"/>
   </g>
   <g id="line2d_39">
    <path clip-path="url(#pc72b8833e7)" d="M 39.250267 307.792164 
L 43.411377 307.685743 
L 45.699988 307.401118 
L 47.641839 306.94434 
L 49.444987 306.299274 
L 51.178783 305.449349 
L 52.912578 304.353861 
L 54.646374 302.999683 
L 56.449522 301.310342 
L 58.322022 299.253652 
L 60.333225 296.711808 
L 62.552484 293.531542 
L 64.979798 289.647187 
L 67.753871 284.767999 
L 71.082759 278.438742 
L 75.798684 268.944102 
L 84.883774 250.595214 
L 88.906181 243.019487 
L 92.443125 236.81485 
L 95.772013 231.420501 
L 98.892845 226.778697 
L 101.944326 222.635256 
L 104.926455 218.95972 
L 107.839232 215.716017 
L 110.752009 212.799851 
L 113.664786 210.19336 
L 116.646915 207.824815 
L 119.629044 205.737339 
L 122.680525 203.868177 
L 125.870709 202.176195 
L 129.199597 200.667282 
L 132.667189 199.342812 
L 136.342836 198.180077 
L 140.295891 197.168186 
L 144.526353 196.316574 
L 149.242277 195.599053 
L 154.513017 195.026833 
L 160.615978 194.592746 
L 168.105977 194.292617 
L 178.161993 194.127843 
L 197.233747 194.085653 
L 199.661062 194.085647 
L 199.661062 194.085647 
" style="fill:none;stroke:#000000;stroke-dasharray:1.5,2.475;stroke-dashoffset:0;stroke-width:1.5;"/>
   </g>
   <g id="patch_9">
    <path d="M 30.57782 313.47749 
L 30.57782 188.400321 
" style="fill:none;stroke:#000000;stroke-linecap:square;stroke-linejoin:miter;stroke-width:0.8;"/>
   </g>
   <g id="patch_10">
    <path d="M 221.371654 313.47749 
L 221.371654 188.400321 
" style="fill:none;stroke:#000000;stroke-linecap:square;stroke-linejoin:miter;stroke-width:0.8;"/>
   </g>
   <g id="patch_11">
    <path d="M 30.57782 313.47749 
L 221.371654 313.47749 
" style="fill:none;stroke:#000000;stroke-linecap:square;stroke-linejoin:miter;stroke-width:0.8;"/>
   </g>
   <g id="patch_12">
    <path d="M 30.57782 188.400321 
L 221.371654 188.400321 
" style="fill:none;stroke:#000000;stroke-linecap:square;stroke-linejoin:miter;stroke-width:0.8;"/>
   </g>
   <g id="text_29">
    <!-- Mass $m(r)$ -->
    <g transform="translate(98.644524 182.400321)scale(0.12 -0.12)">
     <defs>
      <path d="M 20.90625 66.390625 
C 20.296875 67.890625 20.203125 68 18.09375 68 
L 5.296875 68 
L 5.296875 65.390625 
C 12.203125 65.390625 13.296875 65.390625 13.296875 60.90625 
L 13.296875 9.75 
C 13.296875 7.265625 13.296875 2.59375 5.296875 2.59375 
L 5.296875 0 
C 7.59375 0.1875 11.796875 0.1875 14.296875 0.1875 
C 16.796875 0.1875 21 0.1875 23.296875 0 
L 23.296875 2.59375 
C 15.296875 2.59375 15.296875 7.265625 15.296875 9.75 
L 15.296875 64.984375 
L 15.40625 64.984375 
L 38.90625 1.59375 
C 39.296875 0.59375 39.5 0 40.296875 0 
C 41.09375 0 41.296875 0.59375 41.703125 1.59375 
L 65.40625 65.484375 
L 65.5 65.484375 
L 65.5 7.078125 
C 65.5 2.59375 64.40625 2.59375 57.5 2.59375 
L 57.5 0 
C 60.203125 0.1875 65.59375 0.1875 68.5 0.1875 
C 71.40625 0.1875 76.90625 0.1875 79.59375 0 
L 79.59375 2.59375 
C 72.703125 2.59375 71.59375 2.59375 71.59375 7.078125 
L 71.59375 60.90625 
C 71.59375 65.390625 72.703125 65.390625 79.59375 65.390625 
L 79.59375 68 
L 66.90625 68 
C 64.796875 68 64.703125 67.890625 64.09375 66.390625 
L 42.5 8.0625 
z
" id="CMR17-77"/>
      <path d="M 36 25.875 
C 36 32 36 35.546875 31.796875 39.59375 
C 28.09375 42.984375 23.796875 44 20.40625 44 
C 12.5 44 6.796875 37.625 6.796875 30.890625 
C 6.796875 27.1875 9.796875 27 10.40625 27 
C 11.703125 27 14 27.796875 14 30.59375 
C 14 33.09375 12.09375 34.1875 10.40625 34.1875 
C 10 34.1875 9.5 34.09375 9.203125 34 
C 11.296875 40.53125 16.703125 42.390625 20.203125 42.390625 
C 25.203125 42.390625 30.703125 37.828125 30.703125 29.296875 
L 30.703125 25.5 
C 24.796875 25.296875 17.703125 24.5 12.09375 21.453125 
C 5.796875 17.921875 4 12.84375 4 9 
C 4 1.203125 13 -1 18.296875 -1 
C 23.796875 -1 28.90625 2.109375 31.09375 7.890625 
C 31.296875 3.421875 34.09375 -0.609375 38.5 -0.609375 
C 40.59375 -0.609375 45.90625 0.796875 45.90625 8.796875 
L 45.90625 14.46875 
L 44.09375 14.46875 
L 44.09375 8.703125 
C 44.09375 2.515625 41.40625 1.703125 40.09375 1.703125 
C 36 1.703125 36 6.96875 36 11.4375 
z
M 30.703125 13.859375 
C 30.703125 5.046875 24.5 0.59375 19 0.59375 
C 14 0.59375 10.09375 4.34375 10.09375 9 
C 10.09375 12.046875 11.40625 17.40625 17.203125 20.65625 
C 22 23.390625 27.5 23.796875 30.703125 24 
z
" id="CMR17-97"/>
      <path d="M 20.59375 29.21875 
C 20.796875 29.828125 23.296875 34.8125 27 38 
C 29.59375 40.390625 33 41.984375 36.90625 41.984375 
C 40.90625 41.984375 42.296875 39 42.296875 35.015625 
C 42.296875 34.40625 42.296875 32.421875 41.09375 27.734375 
L 38.59375 17.453125 
C 37.796875 14.453125 35.90625 7.078125 35.703125 5.984375 
C 35.296875 4.484375 34.703125 1.890625 34.703125 1.484375 
C 34.703125 0.09375 35.796875 -1 37.296875 -1 
C 40.296875 -1 40.796875 1.296875 41.703125 4.890625 
L 47.703125 28.71875 
C 47.90625 29.53125 53.09375 41.984375 64.09375 41.984375 
C 68.09375 41.984375 69.5 39 69.5 35.015625 
C 69.5 29.421875 65.59375 18.546875 63.40625 12.5625 
C 62.5 10.171875 62 8.875 62 7.078125 
C 62 2.59375 65.09375 -1 69.90625 -1 
C 79.203125 -1 82.703125 13.65625 82.703125 14.265625 
C 82.703125 14.765625 82.296875 15.15625 81.703125 15.15625 
C 80.796875 15.15625 80.703125 14.859375 80.203125 13.15625 
C 77.90625 5.1875 74.203125 1 70.203125 1 
C 69.203125 1 67.59375 1.09375 67.59375 4.28125 
C 67.59375 6.875 68.796875 10.078125 69.203125 11.171875 
C 71 15.953125 75.5 27.734375 75.5 33.515625 
C 75.5 39.5 72 44 64.40625 44 
C 57.703125 44 52.296875 40.203125 48.296875 34.3125 
C 48 39.703125 44.703125 44 37.203125 44 
C 28.296875 44 23.59375 37.703125 21.796875 35.203125 
C 21.5 40.890625 17.40625 44 13 44 
C 10.09375 44 7.796875 42.59375 5.90625 38.796875 
C 4.09375 35.203125 2.703125 29.125 2.703125 28.71875 
C 2.703125 28.328125 3.09375 27.828125 3.796875 27.828125 
C 4.59375 27.828125 4.703125 27.921875 5.296875 30.21875 
C 6.796875 36.109375 8.703125 41.984375 12.703125 41.984375 
C 15 41.984375 15.796875 40.390625 15.796875 37.40625 
C 15.796875 35.203125 14.796875 31.3125 14.09375 28.234375 
L 11.296875 17.453125 
C 10.90625 15.5625 9.796875 11.0625 9.296875 9.265625 
C 8.59375 6.671875 7.5 1.984375 7.5 1.484375 
C 7.5 0.09375 8.59375 -1 10.09375 -1 
C 11.296875 -1 12.703125 -0.40625 13.5 1.09375 
C 13.703125 1.59375 14.59375 5.078125 15.09375 7.078125 
L 17.296875 16.0625 
z
" id="CMMI12-109"/>
     </defs>
     <use transform="scale(0.996264)" xlink:href="#CMR17-77"/>
     <use transform="translate(84.686941 0)scale(0.996264)" xlink:href="#CMR17-97"/>
     <use transform="translate(130.377418 0)scale(0.996264)" xlink:href="#CMR17-115"/>
     <use transform="translate(166.178755 0)scale(0.996264)" xlink:href="#CMR17-115"/>
     <use transform="translate(232.056059 0)scale(0.996264)" xlink:href="#CMMI12-109"/>
     <use transform="translate(317.383284 0)scale(0.996264)" xlink:href="#CMR17-40"/>
     <use transform="translate(352.664052 0)scale(0.996264)" xlink:href="#CMMI12-114"/>
     <use transform="translate(399.334664 0)scale(0.996264)" xlink:href="#CMR17-41"/>
    </g>
   </g>
   <g id="legend_2">
    <g id="patch_13">
     <path d="M 37.57782 254.970311 
L 88.50749 254.970311 
Q 90.50749 254.970311 90.50749 252.970311 
L 90.50749 195.400321 
Q 90.50749 193.400321 88.50749 193.400321 
L 37.57782 193.400321 
Q 35.57782 193.400321 35.57782 195.400321 
L 35.57782 252.970311 
Q 35.57782 254.970311 37.57782 254.970311 
z
" style="fill:#ffffff;opacity:0.8;stroke:#cccccc;stroke-linejoin:miter;"/>
    </g>
    <g id="line2d_40">
     <path d="M 39.57782 201.498758 
L 59.57782 201.498758 
" style="fill:none;stroke:#000000;stroke-linecap:square;stroke-width:1.5;"/>
    </g>
    <g id="line2d_41"/>
    <g id="text_30">
     <!-- $i=$3 -->
     <g transform="translate(67.57782 204.998758)scale(0.1 -0.1)">
      <use transform="scale(0.996264)" xlink:href="#CMMI12-105"/>
      <use transform="translate(60.952611 0)scale(0.996264)" xlink:href="#CMR17-61"/>
      <use transform="translate(132.667399 0)scale(0.996264)" xlink:href="#CMR17-51"/>
     </g>
    </g>
    <g id="line2d_42">
     <path d="M 39.57782 216.176883 
L 59.57782 216.176883 
" style="fill:none;stroke:#000000;stroke-dasharray:5.55,2.4;stroke-dashoffset:0;stroke-width:1.5;"/>
    </g>
    <g id="line2d_43"/>
    <g id="text_31">
     <!-- $i=$2 -->
     <g transform="translate(67.57782 219.676883)scale(0.1 -0.1)">
      <use transform="scale(0.996264)" xlink:href="#CMMI12-105"/>
      <use transform="translate(60.952611 0)scale(0.996264)" xlink:href="#CMR17-61"/>
      <use transform="translate(132.667399 0)scale(0.996264)" xlink:href="#CMR17-50"/>
     </g>
    </g>
    <g id="line2d_44">
     <path d="M 39.57782 230.855008 
L 59.57782 230.855008 
" style="fill:none;stroke:#000000;stroke-dasharray:9.6,2.4,1.5,2.4;stroke-dashoffset:0;stroke-width:1.5;"/>
    </g>
    <g id="line2d_45"/>
    <g id="text_32">
     <!-- $i=$1 -->
     <g transform="translate(67.57782 234.355008)scale(0.1 -0.1)">
      <use transform="scale(0.996264)" xlink:href="#CMMI12-105"/>
      <use transform="translate(60.952611 0)scale(0.996264)" xlink:href="#CMR17-61"/>
      <use transform="translate(132.667399 0)scale(0.996264)" xlink:href="#CMR17-49"/>
     </g>
    </g>
    <g id="line2d_46">
     <path d="M 39.57782 245.533133 
L 59.57782 245.533133 
" style="fill:none;stroke:#000000;stroke-dasharray:1.5,2.475;stroke-dashoffset:0;stroke-width:1.5;"/>
    </g>
    <g id="line2d_47"/>
    <g id="text_33">
     <!-- $i=$0 -->
     <g transform="translate(67.57782 249.033133)scale(0.1 -0.1)">
      <use transform="scale(0.996264)" xlink:href="#CMMI12-105"/>
      <use transform="translate(60.952611 0)scale(0.996264)" xlink:href="#CMR17-61"/>
      <use transform="translate(132.667399 0)scale(0.996264)" xlink:href="#CMR17-48"/>
     </g>
    </g>
   </g>
  </g>
  <g id="axes_3">
   <g id="patch_14">
    <path d="M 251.949474 150.87717 
L 442.743307 150.87717 
L 442.743307 25.8 
L 251.949474 25.8 
z
" style="fill:#ffffff;"/>
   </g>
   <g id="matplotlib.axis_5">
    <g id="xtick_13">
     <g id="line2d_48">
      <g>
       <use style="stroke:#000000;stroke-width:0.8;" x="260.621921" xlink:href="#m103394e5aa" y="150.87717"/>
      </g>
     </g>
     <g id="text_34">
      <!-- $\mathdefault{0.0}$ -->
      <g transform="translate(254.256881 164.795668)scale(0.1 -0.1)">
       <use transform="scale(0.996264)" xlink:href="#CMR17-48"/>
       <use transform="translate(45.690477 0)scale(0.996264)" xlink:href="#CMMI12-58"/>
       <use transform="translate(72.787654 0)scale(0.996264)" xlink:href="#CMR17-48"/>
      </g>
     </g>
    </g>
    <g id="xtick_14">
     <g id="line2d_49">
      <g>
       <use style="stroke:#000000;stroke-width:0.8;" x="295.297838" xlink:href="#m103394e5aa" y="150.87717"/>
      </g>
     </g>
     <g id="text_35">
      <!-- $\mathdefault{0.5}$ -->
      <g transform="translate(288.932799 164.795668)scale(0.1 -0.1)">
       <use transform="scale(0.996264)" xlink:href="#CMR17-48"/>
       <use transform="translate(45.690477 0)scale(0.996264)" xlink:href="#CMMI12-58"/>
       <use transform="translate(72.787654 0)scale(0.996264)" xlink:href="#CMR17-53"/>
      </g>
     </g>
    </g>
    <g id="xtick_15">
     <g id="line2d_50">
      <g>
       <use style="stroke:#000000;stroke-width:0.8;" x="329.973756" xlink:href="#m103394e5aa" y="150.87717"/>
      </g>
     </g>
     <g id="text_36">
      <!-- $\mathdefault{1.0}$ -->
      <g transform="translate(323.608716 164.795668)scale(0.1 -0.1)">
       <use transform="scale(0.996264)" xlink:href="#CMR17-49"/>
       <use transform="translate(45.690477 0)scale(0.996264)" xlink:href="#CMMI12-58"/>
       <use transform="translate(72.787654 0)scale(0.996264)" xlink:href="#CMR17-48"/>
      </g>
     </g>
    </g>
    <g id="xtick_16">
     <g id="line2d_51">
      <g>
       <use style="stroke:#000000;stroke-width:0.8;" x="364.649673" xlink:href="#m103394e5aa" y="150.87717"/>
      </g>
     </g>
     <g id="text_37">
      <!-- $\mathdefault{1.5}$ -->
      <g transform="translate(358.284634 164.795668)scale(0.1 -0.1)">
       <use transform="scale(0.996264)" xlink:href="#CMR17-49"/>
       <use transform="translate(45.690477 0)scale(0.996264)" xlink:href="#CMMI12-58"/>
       <use transform="translate(72.787654 0)scale(0.996264)" xlink:href="#CMR17-53"/>
      </g>
     </g>
    </g>
    <g id="xtick_17">
     <g id="line2d_52">
      <g>
       <use style="stroke:#000000;stroke-width:0.8;" x="399.325591" xlink:href="#m103394e5aa" y="150.87717"/>
      </g>
     </g>
     <g id="text_38">
      <!-- $\mathdefault{2.0}$ -->
      <g transform="translate(392.960551 164.795668)scale(0.1 -0.1)">
       <use transform="scale(0.996264)" xlink:href="#CMR17-50"/>
       <use transform="translate(45.690477 0)scale(0.996264)" xlink:href="#CMMI12-58"/>
       <use transform="translate(72.787654 0)scale(0.996264)" xlink:href="#CMR17-48"/>
      </g>
     </g>
    </g>
    <g id="xtick_18">
     <g id="line2d_53">
      <g>
       <use style="stroke:#000000;stroke-width:0.8;" x="434.001508" xlink:href="#m103394e5aa" y="150.87717"/>
      </g>
     </g>
     <g id="text_39">
      <!-- $\mathdefault{2.5}$ -->
      <g transform="translate(427.636469 164.795668)scale(0.1 -0.1)">
       <use transform="scale(0.996264)" xlink:href="#CMR17-50"/>
       <use transform="translate(45.690477 0)scale(0.996264)" xlink:href="#CMMI12-58"/>
       <use transform="translate(72.787654 0)scale(0.996264)" xlink:href="#CMR17-53"/>
      </g>
     </g>
    </g>
   </g>
   <g id="matplotlib.axis_6">
    <g id="ytick_12">
     <g id="line2d_54">
      <g>
       <use style="stroke:#000000;stroke-width:0.8;" x="251.949474" xlink:href="#m9e6e0cf8d4" y="145.191844"/>
      </g>
     </g>
     <g id="text_40">
      <!-- $\mathdefault{0.00}$ -->
      <g transform="translate(227.238059 148.651093)scale(0.1 -0.1)">
       <use transform="scale(0.996264)" xlink:href="#CMR17-48"/>
       <use transform="translate(45.690477 0)scale(0.996264)" xlink:href="#CMMI12-58"/>
       <use transform="translate(72.787654 0)scale(0.996264)" xlink:href="#CMR17-48"/>
       <use transform="translate(118.478131 0)scale(0.996264)" xlink:href="#CMR17-48"/>
      </g>
     </g>
    </g>
    <g id="ytick_13">
     <g id="line2d_55">
      <g>
       <use style="stroke:#000000;stroke-width:0.8;" x="251.949474" xlink:href="#m9e6e0cf8d4" y="121.287993"/>
      </g>
     </g>
     <g id="text_41">
      <!-- $\mathdefault{0.25}$ -->
      <g transform="translate(227.238059 124.747242)scale(0.1 -0.1)">
       <use transform="scale(0.996264)" xlink:href="#CMR17-48"/>
       <use transform="translate(45.690477 0)scale(0.996264)" xlink:href="#CMMI12-58"/>
       <use transform="translate(72.787654 0)scale(0.996264)" xlink:href="#CMR17-50"/>
       <use transform="translate(118.478131 0)scale(0.996264)" xlink:href="#CMR17-53"/>
      </g>
     </g>
    </g>
    <g id="ytick_14">
     <g id="line2d_56">
      <g>
       <use style="stroke:#000000;stroke-width:0.8;" x="251.949474" xlink:href="#m9e6e0cf8d4" y="97.384142"/>
      </g>
     </g>
     <g id="text_42">
      <!-- $\mathdefault{0.50}$ -->
      <g transform="translate(227.238059 100.843391)scale(0.1 -0.1)">
       <use transform="scale(0.996264)" xlink:href="#CMR17-48"/>
       <use transform="translate(45.690477 0)scale(0.996264)" xlink:href="#CMMI12-58"/>
       <use transform="translate(72.787654 0)scale(0.996264)" xlink:href="#CMR17-53"/>
       <use transform="translate(118.478131 0)scale(0.996264)" xlink:href="#CMR17-48"/>
      </g>
     </g>
    </g>
    <g id="ytick_15">
     <g id="line2d_57">
      <g>
       <use style="stroke:#000000;stroke-width:0.8;" x="251.949474" xlink:href="#m9e6e0cf8d4" y="73.480291"/>
      </g>
     </g>
     <g id="text_43">
      <!-- $\mathdefault{0.75}$ -->
      <g transform="translate(227.238059 76.939541)scale(0.1 -0.1)">
       <use transform="scale(0.996264)" xlink:href="#CMR17-48"/>
       <use transform="translate(45.690477 0)scale(0.996264)" xlink:href="#CMMI12-58"/>
       <use transform="translate(72.787654 0)scale(0.996264)" xlink:href="#CMR17-55"/>
       <use transform="translate(118.478131 0)scale(0.996264)" xlink:href="#CMR17-53"/>
      </g>
     </g>
    </g>
    <g id="ytick_16">
     <g id="line2d_58">
      <g>
       <use style="stroke:#000000;stroke-width:0.8;" x="251.949474" xlink:href="#m9e6e0cf8d4" y="49.576441"/>
      </g>
     </g>
     <g id="text_44">
      <!-- $\mathdefault{1.00}$ -->
      <g transform="translate(227.238059 53.03569)scale(0.1 -0.1)">
       <use transform="scale(0.996264)" xlink:href="#CMR17-49"/>
       <use transform="translate(45.690477 0)scale(0.996264)" xlink:href="#CMMI12-58"/>
       <use transform="translate(72.787654 0)scale(0.996264)" xlink:href="#CMR17-48"/>
       <use transform="translate(118.478131 0)scale(0.996264)" xlink:href="#CMR17-48"/>
      </g>
     </g>
    </g>
   </g>
   <g id="line2d_59">
    <path clip-path="url(#p2180a14060)" d="M 260.621921 31.485326 
L 261.176735 31.589325 
L 261.800902 31.953446 
L 262.49442 32.661879 
L 263.25729 33.802916 
L 264.089512 35.465369 
L 265.060438 37.927259 
L 266.170067 41.376299 
L 267.487752 46.248982 
L 269.082844 53.071319 
L 271.163399 63.031215 
L 278.306638 98.10878 
L 280.24849 106.142032 
L 282.051638 112.680429 
L 283.716082 117.906445 
L 285.311174 122.210557 
L 286.906266 125.875944 
L 288.432006 128.844014 
L 289.957747 131.349269 
L 291.552839 133.541195 
L 293.147931 135.36256 
L 294.812375 136.933421 
L 296.615523 138.323328 
L 298.557374 139.528329 
L 300.637929 140.554762 
L 302.995892 141.463343 
L 305.700613 142.256337 
L 308.821446 142.932669 
L 312.566445 143.511107 
L 317.28237 144.003381 
L 323.385331 144.40419 
L 331.776903 144.718453 
L 344.398937 144.949841 
L 366.314117 145.100899 
L 416.871605 145.176286 
L 434.07086 145.182544 
L 434.07086 145.182544 
" style="fill:none;stroke:#000000;stroke-linecap:square;stroke-width:1.5;"/>
   </g>
   <g id="line2d_60">
    <path clip-path="url(#p2180a14060)" d="M 260.621921 31.485326 
L 261.176735 31.589292 
L 261.800902 31.952776 
L 262.49442 32.657658 
L 263.25729 33.786634 
L 264.158864 35.571564 
L 265.199142 38.184285 
L 266.447475 41.995176 
L 267.973215 47.443195 
L 270.05377 55.787721 
L 276.988954 84.261511 
L 279.277564 92.379881 
L 281.358119 98.961296 
L 283.369322 104.601674 
L 285.311174 109.410001 
L 287.253025 113.642525 
L 289.194877 117.355798 
L 291.136728 120.607173 
L 293.147931 123.546203 
L 295.228486 126.186732 
L 297.309041 128.475585 
L 299.5283 130.584332 
L 301.816911 132.452215 
L 304.244225 134.14554 
L 306.810243 135.665389 
L 309.584316 137.048966 
L 312.635797 138.315401 
L 315.964685 139.450073 
L 319.640332 140.464774 
L 323.801442 141.377943 
L 328.586719 142.192402 
L 334.134866 142.903296 
L 340.72329 143.515564 
L 348.768103 144.031258 
L 358.962823 144.451568 
L 372.555782 144.776573 
L 392.251704 145.00718 
L 425.263177 145.143739 
L 434.07086 145.158552 
L 434.07086 145.158552 
" style="fill:none;stroke:#000000;stroke-dasharray:5.55,2.4;stroke-dashoffset:0;stroke-width:1.5;"/>
   </g>
   <g id="line2d_61">
    <path clip-path="url(#p2180a14060)" d="M 260.621921 31.485326 
L 261.523494 31.606706 
L 262.425068 31.969202 
L 263.326642 32.56986 
L 264.297568 33.47708 
L 265.407197 34.833086 
L 266.65553 36.74464 
L 268.042567 39.312395 
L 269.568307 42.620463 
L 271.371455 47.087172 
L 273.521362 53.032984 
L 276.434139 61.793383 
L 285.241822 88.716082 
L 288.085247 96.475695 
L 290.651265 102.849543 
L 293.078579 108.293821 
L 295.436542 113.035938 
L 297.725152 117.139805 
L 299.944411 120.675836 
L 302.16367 123.806335 
L 304.382928 126.565305 
L 306.671539 129.05845 
L 309.029501 131.292876 
L 311.456816 133.279871 
L 313.953482 135.033879 
L 316.588851 136.60972 
L 319.362925 138.007204 
L 322.345054 139.257657 
L 325.60459 140.377016 
L 329.141534 141.353853 
L 333.094588 142.212732 
L 337.602457 142.960157 
L 342.873197 143.600461 
L 349.114862 144.127284 
L 356.882268 144.549582 
L 367.007636 144.864579 
L 381.432817 145.073512 
L 405.983367 145.177104 
L 434.07086 145.191703 
L 434.07086 145.191703 
" style="fill:none;stroke:#000000;stroke-dasharray:9.6,2.4,1.5,2.4;stroke-dashoffset:0;stroke-width:1.5;"/>
   </g>
   <g id="line2d_62">
    <path clip-path="url(#p2180a14060)" d="M 260.621921 31.485326 
L 261.662198 31.599059 
L 262.702476 31.938981 
L 263.812105 32.548099 
L 264.991086 33.468348 
L 266.239419 34.739694 
L 267.626456 36.494318 
L 269.152196 38.813996 
L 270.81664 41.769766 
L 272.68914 45.562734 
L 274.908399 50.593106 
L 277.61312 57.315904 
L 281.496823 67.632117 
L 288.709414 86.837867 
L 292.038302 95.022655 
L 294.951079 101.618896 
L 297.6558 107.21245 
L 300.221818 112.026076 
L 302.718484 116.249365 
L 305.145799 119.932686 
L 307.573113 123.219557 
L 310.000427 126.135333 
L 312.427741 128.70849 
L 314.924407 131.029228 
L 317.421073 133.051824 
L 320.056443 134.89843 
L 322.761165 136.522096 
L 325.60459 137.970818 
L 328.656071 139.272676 
L 331.915607 140.418862 
L 335.452551 141.425584 
L 339.405605 142.313911 
L 343.844123 143.076343 
L 348.906807 143.714979 
L 354.871064 144.237633 
L 362.222359 144.648736 
L 371.72356 144.944211 
L 385.247168 145.124258 
L 409.728366 145.190587 
L 421.032715 145.191844 
L 421.032715 145.191844 
" style="fill:none;stroke:#000000;stroke-dasharray:1.5,2.475;stroke-dashoffset:0;stroke-width:1.5;"/>
   </g>
   <g id="patch_15">
    <path d="M 251.949474 150.87717 
L 251.949474 25.8 
" style="fill:none;stroke:#000000;stroke-linecap:square;stroke-linejoin:miter;stroke-width:0.8;"/>
   </g>
   <g id="patch_16">
    <path d="M 442.743307 150.87717 
L 442.743307 25.8 
" style="fill:none;stroke:#000000;stroke-linecap:square;stroke-linejoin:miter;stroke-width:0.8;"/>
   </g>
   <g id="patch_17">
    <path d="M 251.949474 150.87717 
L 442.743307 150.87717 
" style="fill:none;stroke:#000000;stroke-linecap:square;stroke-linejoin:miter;stroke-width:0.8;"/>
   </g>
   <g id="patch_18">
    <path d="M 251.949474 25.8 
L 442.743307 25.8 
" style="fill:none;stroke:#000000;stroke-linecap:square;stroke-linejoin:miter;stroke-width:0.8;"/>
   </g>
   <g id="text_45">
    <!-- Density $\rho(r)$ -->
    <g transform="translate(315.563811 19.8)scale(0.12 -0.12)">
     <defs>
      <path d="M 5.203125 68 
L 5.203125 65.390625 
C 12.09375 65.390625 13.203125 65.390625 13.203125 60.90625 
L 13.203125 7.078125 
C 13.203125 2.59375 12.09375 2.59375 5.203125 2.59375 
L 5.203125 0 
L 37 0 
C 53.09375 0 66 14.734375 66 33.4375 
C 66 52.25 53.296875 68 37 68 
z
M 23.796875 2.59375 
C 19.796875 2.59375 19.59375 3.09375 19.59375 6.46875 
L 19.59375 61.5 
C 19.59375 64.890625 19.796875 65.390625 23.796875 65.390625 
L 35 65.390625 
C 43.296875 65.390625 58.59375 60.515625 58.59375 33.4375 
C 58.59375 19.40625 54.5 13.734375 52.59375 11.046875 
C 50.203125 7.96875 44.5 2.59375 35 2.59375 
z
" id="CMR17-68"/>
      <path d="M 41.5 30.53125 
C 41.5 35.65625 40.5 44 28.703125 44 
C 20.796875 44 16.703125 37.875 15.203125 33.84375 
L 15.09375 33.84375 
L 15.09375 44 
L 3.296875 42.890625 
L 3.296875 40.28125 
C 9.203125 40.28125 10.09375 39.6875 10.09375 34.859375 
L 10.09375 6.921875 
C 10.09375 3.09375 9.703125 2.59375 3.296875 2.59375 
L 3.296875 0 
C 5.703125 0.1875 10.09375 0.1875 12.703125 0.1875 
C 15.296875 0.1875 19.796875 0.1875 22.203125 0 
L 22.203125 2.59375 
C 15.796875 2.59375 15.40625 3 15.40625 6.921875 
L 15.40625 26.21875 
C 15.40625 35.453125 21 42.390625 28 42.390625 
C 35.40625 42.390625 36.203125 35.765625 36.203125 30.9375 
L 36.203125 6.921875 
C 36.203125 3.09375 35.796875 2.59375 29.40625 2.59375 
L 29.40625 0 
C 31.796875 0.1875 36.203125 0.1875 38.796875 0.1875 
C 41.40625 0.1875 45.90625 0.1875 48.296875 0 
L 48.296875 2.59375 
C 41.90625 2.59375 41.5 3 41.5 6.921875 
z
" id="CMR17-110"/>
      <path d="M 15.5 61.890625 
C 15.5 64.09375 13.703125 66 11.40625 66 
C 9.203125 66 7.296875 64.1875 7.296875 61.890625 
C 7.296875 59.6875 9.09375 57.796875 11.40625 57.796875 
C 13.59375 57.796875 15.5 59.59375 15.5 61.890625 
z
M 3.796875 42.890625 
L 3.796875 40.296875 
C 9.40625 40.296875 10.203125 39.6875 10.203125 34.859375 
L 10.203125 6.921875 
C 10.203125 3.09375 9.796875 2.59375 3.40625 2.59375 
L 3.40625 0 
C 5.796875 0.1875 10.09375 0.1875 12.59375 0.1875 
C 15 0.1875 19.09375 0.1875 21.40625 0 
L 21.40625 2.59375 
C 15.5 2.59375 15.296875 3.203125 15.296875 6.8125 
L 15.296875 44 
z
" id="CMR17-105"/>
      <path d="M 15.09375 40.390625 
L 29.09375 40.390625 
L 29.09375 43 
L 15.09375 43 
L 15.09375 62 
L 13.296875 62 
C 13.09375 51.4375 9.59375 42.1875 1.09375 41.984375 
L 1.09375 40.390625 
L 9.796875 40.390625 
L 9.796875 12.15625 
C 9.796875 10.234375 9.796875 -1 21.40625 -1 
C 27.296875 -1 30.703125 4.8125 30.703125 12.25 
L 30.703125 17.984375 
L 28.90625 17.984375 
L 28.90625 12.34375 
C 28.90625 5.421875 26.203125 0.796875 22 0.796875 
C 19.09375 0.796875 15.09375 2.796875 15.09375 11.953125 
z
" id="CMR17-116"/>
      <path d="M 39 34.109375 
C 41.5 40.296875 46 40.390625 47.40625 40.390625 
L 47.40625 43 
C 45.5 42.890625 43 42.796875 41.09375 42.796875 
C 39 42.796875 35.703125 42.796875 33.703125 43 
L 33.703125 40.390625 
C 37.5 40.09375 37.59375 37.25 37.59375 36.4375 
C 37.59375 35.4375 37.40625 34.921875 36.90625 33.71875 
L 26 6.390625 
L 14.09375 35.9375 
C 13.59375 37.15625 13.59375 37.859375 13.59375 37.96875 
C 13.59375 40.1875 15.90625 40.390625 18.296875 40.390625 
L 18.296875 43 
C 15.90625 42.796875 11.59375 42.796875 9.09375 42.796875 
C 6.40625 42.796875 3.203125 42.796875 1 43 
L 1 40.390625 
C 6.40625 40.390625 7 39.890625 8.296875 36.640625 
L 23.203125 -0.484375 
C 18.703125 -12.421875 16.09375 -19.40625 9.796875 -19.40625 
C 8.703125 -19.40625 6.203125 -19.109375 4.40625 -17.28125 
C 6.703125 -17.078125 7.703125 -15.65625 7.703125 -13.9375 
C 7.703125 -12.21875 6.5 -10.703125 4.5 -10.703125 
C 2.296875 -10.703125 1.203125 -12.21875 1.203125 -14.046875 
C 1.203125 -18.09375 5.296875 -21 9.796875 -21 
C 15.59375 -21 19.203125 -15.359375 21.203125 -10.296875 
z
" id="CMR17-121"/>
      <path d="M 3.09375 -16.953125 
C 3 -17.4375 2.796875 -18.03125 2.796875 -18.609375 
C 2.796875 -20.109375 4 -21.109375 5.5 -21.109375 
C 7 -21.109375 8.40625 -20.109375 9 -18.71875 
C 9.40625 -17.828125 12.203125 -6.09375 15.40625 6.078125 
C 17.40625 1.09375 21.09375 -1 25 -1 
C 36.296875 -1 49.09375 12.96875 49.09375 28.03125 
C 49.09375 38.703125 42.59375 44 35.703125 44 
C 26.90625 44 16.203125 34.90625 12.90625 21.640625 
z
M 24.90625 1 
C 18.09375 1 16.40625 8.875 16.40625 10.078125 
C 16.40625 10.671875 18.90625 20.140625 19.203125 21.640625 
C 24.296875 41.5 34.09375 41.984375 35.59375 41.984375 
C 40.09375 41.984375 42.59375 37.90625 42.59375 32.015625 
C 42.59375 26.9375 39.90625 17.046875 38.203125 12.859375 
C 35.203125 5.984375 30 1 24.90625 1 
z
" id="CMMI12-26"/>
     </defs>
     <use transform="scale(0.996264)" xlink:href="#CMR17-68"/>
     <use transform="translate(70.393556 0)scale(0.996264)" xlink:href="#CMR17-101"/>
     <use transform="translate(110.879216 0)scale(0.996264)" xlink:href="#CMR17-110"/>
     <use transform="translate(161.774586 0)scale(0.996264)" xlink:href="#CMR17-115"/>
     <use transform="translate(197.575924 0)scale(0.996264)" xlink:href="#CMR17-105"/>
     <use transform="translate(222.446982 0)scale(0.996264)" xlink:href="#CMR17-116"/>
     <use transform="translate(255.125296 0)scale(0.996264)" xlink:href="#CMR17-121"/>
     <use transform="translate(333.494178 0)scale(0.996264)" xlink:href="#CMMI12-26"/>
     <use transform="translate(383.808551 0)scale(0.996264)" xlink:href="#CMR17-40"/>
     <use transform="translate(419.089319 0)scale(0.996264)" xlink:href="#CMMI12-114"/>
     <use transform="translate(465.759931 0)scale(0.996264)" xlink:href="#CMR17-41"/>
    </g>
   </g>
   <g id="legend_3">
    <g id="patch_19">
     <path d="M 384.813637 92.369991 
L 435.743307 92.369991 
Q 437.743307 92.369991 437.743307 90.369991 
L 437.743307 32.8 
Q 437.743307 30.8 435.743307 30.8 
L 384.813637 30.8 
Q 382.813637 30.8 382.813637 32.8 
L 382.813637 90.369991 
Q 382.813637 92.369991 384.813637 92.369991 
z
" style="fill:#ffffff;opacity:0.8;stroke:#cccccc;stroke-linejoin:miter;"/>
    </g>
    <g id="line2d_63">
     <path d="M 386.813637 38.898438 
L 406.813637 38.898438 
" style="fill:none;stroke:#000000;stroke-linecap:square;stroke-width:1.5;"/>
    </g>
    <g id="line2d_64"/>
    <g id="text_46">
     <!-- $i=$3 -->
     <g transform="translate(414.813637 42.398438)scale(0.1 -0.1)">
      <use transform="scale(0.996264)" xlink:href="#CMMI12-105"/>
      <use transform="translate(60.952611 0)scale(0.996264)" xlink:href="#CMR17-61"/>
      <use transform="translate(132.667399 0)scale(0.996264)" xlink:href="#CMR17-51"/>
     </g>
    </g>
    <g id="line2d_65">
     <path d="M 386.813637 53.576563 
L 406.813637 53.576563 
" style="fill:none;stroke:#000000;stroke-dasharray:5.55,2.4;stroke-dashoffset:0;stroke-width:1.5;"/>
    </g>
    <g id="line2d_66"/>
    <g id="text_47">
     <!-- $i=$2 -->
     <g transform="translate(414.813637 57.076563)scale(0.1 -0.1)">
      <use transform="scale(0.996264)" xlink:href="#CMMI12-105"/>
      <use transform="translate(60.952611 0)scale(0.996264)" xlink:href="#CMR17-61"/>
      <use transform="translate(132.667399 0)scale(0.996264)" xlink:href="#CMR17-50"/>
     </g>
    </g>
    <g id="line2d_67">
     <path d="M 386.813637 68.254688 
L 406.813637 68.254688 
" style="fill:none;stroke:#000000;stroke-dasharray:9.6,2.4,1.5,2.4;stroke-dashoffset:0;stroke-width:1.5;"/>
    </g>
    <g id="line2d_68"/>
    <g id="text_48">
     <!-- $i=$1 -->
     <g transform="translate(414.813637 71.754688)scale(0.1 -0.1)">
      <use transform="scale(0.996264)" xlink:href="#CMMI12-105"/>
      <use transform="translate(60.952611 0)scale(0.996264)" xlink:href="#CMR17-61"/>
      <use transform="translate(132.667399 0)scale(0.996264)" xlink:href="#CMR17-49"/>
     </g>
    </g>
    <g id="line2d_69">
     <path d="M 386.813637 82.932813 
L 406.813637 82.932813 
" style="fill:none;stroke:#000000;stroke-dasharray:1.5,2.475;stroke-dashoffset:0;stroke-width:1.5;"/>
    </g>
    <g id="line2d_70"/>
    <g id="text_49">
     <!-- $i=$0 -->
     <g transform="translate(414.813637 86.432813)scale(0.1 -0.1)">
      <use transform="scale(0.996264)" xlink:href="#CMMI12-105"/>
      <use transform="translate(60.952611 0)scale(0.996264)" xlink:href="#CMR17-61"/>
      <use transform="translate(132.667399 0)scale(0.996264)" xlink:href="#CMR17-48"/>
     </g>
    </g>
   </g>
  </g>
  <g id="axes_4">
   <g id="patch_20">
    <path d="M 251.949474 313.47749 
L 442.743307 313.47749 
L 442.743307 188.400321 
L 251.949474 188.400321 
z
" style="fill:#ffffff;"/>
   </g>
   <g id="matplotlib.axis_7">
    <g id="xtick_19">
     <g id="line2d_71">
      <g>
       <use style="stroke:#000000;stroke-width:0.8;" x="260.621921" xlink:href="#m103394e5aa" y="313.47749"/>
      </g>
     </g>
     <g id="text_50">
      <!-- $\mathdefault{0.0}$ -->
      <g transform="translate(254.256881 327.395989)scale(0.1 -0.1)">
       <use transform="scale(0.996264)" xlink:href="#CMR17-48"/>
       <use transform="translate(45.690477 0)scale(0.996264)" xlink:href="#CMMI12-58"/>
       <use transform="translate(72.787654 0)scale(0.996264)" xlink:href="#CMR17-48"/>
      </g>
     </g>
    </g>
    <g id="xtick_20">
     <g id="line2d_72">
      <g>
       <use style="stroke:#000000;stroke-width:0.8;" x="298.116287" xlink:href="#m103394e5aa" y="313.47749"/>
      </g>
     </g>
     <g id="text_51">
      <!-- $\mathdefault{0.5}$ -->
      <g transform="translate(291.751248 327.395989)scale(0.1 -0.1)">
       <use transform="scale(0.996264)" xlink:href="#CMR17-48"/>
       <use transform="translate(45.690477 0)scale(0.996264)" xlink:href="#CMMI12-58"/>
       <use transform="translate(72.787654 0)scale(0.996264)" xlink:href="#CMR17-53"/>
      </g>
     </g>
    </g>
    <g id="xtick_21">
     <g id="line2d_73">
      <g>
       <use style="stroke:#000000;stroke-width:0.8;" x="335.610654" xlink:href="#m103394e5aa" y="313.47749"/>
      </g>
     </g>
     <g id="text_52">
      <!-- $\mathdefault{1.0}$ -->
      <g transform="translate(329.245614 327.395989)scale(0.1 -0.1)">
       <use transform="scale(0.996264)" xlink:href="#CMR17-49"/>
       <use transform="translate(45.690477 0)scale(0.996264)" xlink:href="#CMMI12-58"/>
       <use transform="translate(72.787654 0)scale(0.996264)" xlink:href="#CMR17-48"/>
      </g>
     </g>
    </g>
    <g id="xtick_22">
     <g id="line2d_74">
      <g>
       <use style="stroke:#000000;stroke-width:0.8;" x="373.10502" xlink:href="#m103394e5aa" y="313.47749"/>
      </g>
     </g>
     <g id="text_53">
      <!-- $\mathdefault{1.5}$ -->
      <g transform="translate(366.739981 327.395989)scale(0.1 -0.1)">
       <use transform="scale(0.996264)" xlink:href="#CMR17-49"/>
       <use transform="translate(45.690477 0)scale(0.996264)" xlink:href="#CMMI12-58"/>
       <use transform="translate(72.787654 0)scale(0.996264)" xlink:href="#CMR17-53"/>
      </g>
     </g>
    </g>
    <g id="xtick_23">
     <g id="line2d_75">
      <g>
       <use style="stroke:#000000;stroke-width:0.8;" x="410.599387" xlink:href="#m103394e5aa" y="313.47749"/>
      </g>
     </g>
     <g id="text_54">
      <!-- $\mathdefault{2.0}$ -->
      <g transform="translate(404.234347 327.395989)scale(0.1 -0.1)">
       <use transform="scale(0.996264)" xlink:href="#CMR17-50"/>
       <use transform="translate(45.690477 0)scale(0.996264)" xlink:href="#CMMI12-58"/>
       <use transform="translate(72.787654 0)scale(0.996264)" xlink:href="#CMR17-48"/>
      </g>
     </g>
    </g>
   </g>
   <g id="matplotlib.axis_8">
    <g id="ytick_17">
     <g id="line2d_76">
      <g>
       <use style="stroke:#000000;stroke-width:0.8;" x="251.949474" xlink:href="#m9e6e0cf8d4" y="304.054847"/>
      </g>
     </g>
     <g id="text_55">
      <!-- $\mathdefault{0}$ -->
      <g transform="translate(239.968138 307.514096)scale(0.1 -0.1)">
       <use transform="scale(0.996264)" xlink:href="#CMR17-48"/>
      </g>
     </g>
    </g>
    <g id="ytick_18">
     <g id="line2d_77">
      <g>
       <use style="stroke:#000000;stroke-width:0.8;" x="251.949474" xlink:href="#m9e6e0cf8d4" y="273.71829"/>
      </g>
     </g>
     <g id="text_56">
      <!-- $\mathdefault{1}$ -->
      <g transform="translate(239.968138 277.177539)scale(0.1 -0.1)">
       <use transform="scale(0.996264)" xlink:href="#CMR17-49"/>
      </g>
     </g>
    </g>
    <g id="ytick_19">
     <g id="line2d_78">
      <g>
       <use style="stroke:#000000;stroke-width:0.8;" x="251.949474" xlink:href="#m9e6e0cf8d4" y="243.381733"/>
      </g>
     </g>
     <g id="text_57">
      <!-- $\mathdefault{2}$ -->
      <g transform="translate(239.968138 246.840982)scale(0.1 -0.1)">
       <use transform="scale(0.996264)" xlink:href="#CMR17-50"/>
      </g>
     </g>
    </g>
    <g id="ytick_20">
     <g id="line2d_79">
      <g>
       <use style="stroke:#000000;stroke-width:0.8;" x="251.949474" xlink:href="#m9e6e0cf8d4" y="213.045176"/>
      </g>
     </g>
     <g id="text_58">
      <!-- $\mathdefault{3}$ -->
      <g transform="translate(239.968138 216.504425)scale(0.1 -0.1)">
       <use transform="scale(0.996264)" xlink:href="#CMR17-51"/>
      </g>
     </g>
    </g>
    <g id="text_59">
     <!-- $\times\mathdefault{10^{7}}\mathdefault{}$ -->
     <g transform="translate(251.949474 185.400321)scale(0.1 -0.1)">
      <defs>
       <path d="M 38.90625 27.734375 
L 18.90625 47.59375 
C 17.703125 48.796875 17.5 49 16.703125 49 
C 15.703125 49 14.703125 48.09375 14.703125 47 
C 14.703125 46.296875 14.90625 46.09375 16 45 
L 36 24.9375 
L 16 4.890625 
C 14.90625 3.796875 14.703125 3.59375 14.703125 2.890625 
C 14.703125 1.796875 15.703125 0.890625 16.703125 0.890625 
C 17.5 0.890625 17.703125 1.09375 18.90625 2.296875 
L 38.796875 22.15625 
L 59.5 1.484375 
C 59.703125 1.390625 60.40625 0.890625 61 0.890625 
C 62.203125 0.890625 63 1.796875 63 2.890625 
C 63 3.09375 63 3.484375 62.703125 3.984375 
C 62.59375 4.1875 46.703125 19.859375 41.703125 24.9375 
L 60 43.203125 
C 60.5 43.796875 62 45.09375 62.5 45.703125 
C 62.59375 45.890625 63 46.296875 63 47 
C 63 48.09375 62.203125 49 61 49 
C 60.203125 49 59.796875 48.59375 58.703125 47.5 
z
" id="CMSY10-2"/>
       <path d="M 65.90625 23 
C 67.59375 23 69.40625 23 69.40625 25 
C 69.40625 27 67.59375 27 65.90625 27 
L 11.796875 27 
C 10.09375 27 8.296875 27 8.296875 25 
C 8.296875 23 10.09375 23 11.796875 23 
z
" id="CMSY10-0"/>
      </defs>
      <use transform="scale(0.996264)" xlink:href="#CMSY10-2"/>
      <use transform="translate(77.487468 0)scale(0.996264)" xlink:href="#CMR17-49"/>
      <use transform="translate(123.177945 0)scale(0.996264)" xlink:href="#CMR17-48"/>
      <use transform="translate(168.868422 36.153639)scale(0.697382)" xlink:href="#CMSY10-0"/>
      <use transform="translate(223.109415 36.153639)scale(0.697382)" xlink:href="#CMR17-55"/>
     </g>
    </g>
   </g>
   <g id="line2d_80">
    <path clip-path="url(#p1f906f84b1)" d="M 260.621921 304.054847 
L 264.161695 303.838252 
L 267.701469 302.471967 
L 271.241243 299.075865 
L 274.781018 293.145797 
L 278.320792 284.621472 
L 281.860566 273.860498 
L 285.40034 261.537562 
L 288.940115 248.503864 
L 292.479889 235.643389 
L 296.019663 223.753993 
L 299.559438 213.46849 
L 303.099212 205.217725 
L 306.638986 199.229247 
L 310.17876 195.550527 
L 313.718535 194.085647 
L 317.258309 194.636204 
L 320.798083 196.939981 
L 324.337858 200.703709 
L 327.877632 205.628463 
L 331.417406 211.427909 
L 334.95718 217.839719 
L 338.496955 224.632452 
L 342.036729 231.607855 
L 345.576503 238.60087 
L 349.116277 245.477805 
L 352.656052 252.133368 
L 356.195826 258.487325 
L 359.7356 264.48102 
L 363.275375 270.07407 
L 366.815149 275.241106 
L 370.354923 279.969249 
L 373.894697 284.25557 
L 377.434472 288.105056 
L 380.974246 291.529091 
L 384.51402 294.543751 
L 388.053795 297.168946 
L 391.593569 299.427295 
L 395.133343 301.343574 
L 398.673117 302.944013 
L 402.212892 304.255886 
L 405.752666 305.307175 
L 409.29244 306.126391 
L 412.832214 306.742334 
L 416.371989 307.183896 
L 419.911763 307.48015 
L 423.451537 307.660084 
L 426.991312 307.752714 
L 430.531086 307.787091 
L 434.07086 307.792164 
" style="fill:none;stroke:#000000;stroke-dasharray:5.55,2.4;stroke-dashoffset:0;stroke-width:1.5;"/>
   </g>
   <g id="patch_21">
    <path d="M 251.949474 313.47749 
L 251.949474 188.400321 
" style="fill:none;stroke:#000000;stroke-linecap:square;stroke-linejoin:miter;stroke-width:0.8;"/>
   </g>
   <g id="patch_22">
    <path d="M 442.743307 313.47749 
L 442.743307 188.400321 
" style="fill:none;stroke:#000000;stroke-linecap:square;stroke-linejoin:miter;stroke-width:0.8;"/>
   </g>
   <g id="patch_23">
    <path d="M 251.949474 313.47749 
L 442.743307 313.47749 
" style="fill:none;stroke:#000000;stroke-linecap:square;stroke-linejoin:miter;stroke-width:0.8;"/>
   </g>
   <g id="patch_24">
    <path d="M 251.949474 188.400321 
L 442.743307 188.400321 
" style="fill:none;stroke:#000000;stroke-linecap:square;stroke-linejoin:miter;stroke-width:0.8;"/>
   </g>
   <g id="text_60">
    <!-- TOV$_0$ and LE results -->
    <g transform="translate(292.405013 182.400321)scale(0.12 -0.12)">
     <defs>
      <path d="M 62.203125 67.6875 
L 4.5 67.6875 
L 2.796875 45.6875 
L 4.59375 45.6875 
C 5.90625 62.203125 7.296875 65.09375 22.703125 65.09375 
C 24.5 65.09375 27.40625 65.09375 28.203125 64.984375 
C 30.09375 64.6875 30.09375 63.5 30.09375 61.203125 
L 30.09375 7.265625 
C 30.09375 3.6875 29.796875 2.59375 21.5 2.59375 
L 18.703125 2.59375 
L 18.703125 0 
C 23.5 0.09375 28.5 0.1875 33.40625 0.1875 
C 38.296875 0.1875 43.296875 0.09375 48.09375 0 
L 48.09375 2.59375 
L 45.296875 2.59375 
C 37 2.59375 36.703125 3.6875 36.703125 7.265625 
L 36.703125 61.203125 
C 36.703125 63.390625 36.703125 64.59375 38.5 64.984375 
C 39.296875 65.09375 42.203125 65.09375 44 65.09375 
C 59.296875 65.09375 60.796875 62.203125 62.09375 45.6875 
L 63.90625 45.6875 
z
" id="CMR17-84"/>
      <path d="M 67.296875 33.84375 
C 67.296875 54.5 52.59375 70 36 70 
C 19 70 4.59375 54.296875 4.59375 33.84375 
C 4.59375 13.390625 19.203125 -2 35.90625 -2 
C 53 -2 67.296875 13.6875 67.296875 33.84375 
z
M 36 -0.203125 
C 24.59375 -0.203125 12.203125 11.28125 12.203125 35.15625 
C 12.203125 58.921875 25.796875 68.1875 35.90625 68.1875 
C 46.5 68.1875 59.703125 58.625 59.703125 35.15625 
C 59.703125 10.875 47 -0.203125 36 -0.203125 
z
" id="CMR17-79"/>
      <path d="M 59 58.78125 
C 59.90625 60.984375 61.5 65.296875 68.203125 65.390625 
L 68.203125 68 
C 65.90625 67.796875 63.296875 67.796875 60.796875 67.796875 
C 58.40625 67.796875 54.296875 67.796875 52 68 
L 52 65.390625 
C 57 65.09375 57.203125 61.59375 57.203125 60.984375 
C 57.203125 59.890625 56.90625 59.1875 56.59375 58.390625 
L 36.90625 7 
L 16.296875 60.984375 
C 16 61.6875 15.796875 62.1875 15.796875 62.6875 
C 15.796875 65.390625 19.796875 65.390625 21.90625 65.390625 
L 21.90625 68 
C 18.703125 67.796875 14 67.796875 10.703125 67.796875 
C 8.09375 67.796875 3.40625 67.796875 1 68 
L 1 65.390625 
C 6.796875 65.390625 7.90625 65 9.09375 61.796875 
L 32.90625 -0.40625 
C 33.40625 -1.8125 33.5 -2 34.59375 -2 
C 35.703125 -2 35.796875 -1.8125 36.296875 -0.40625 
z
" id="CMR17-86"/>
      <path d="M 29.203125 67.890625 
L 29.203125 65.296875 
C 35.09375 65.296875 36 64.703125 36 60.046875 
L 36 37.046875 
C 35.59375 37.546875 31.5 44 23.40625 44 
C 13.203125 44 3.296875 34.8125 3.296875 21.5 
C 3.296875 8.265625 12.59375 -1 22.40625 -1 
C 30.90625 -1 35.296875 5.640625 35.796875 6.34375 
L 35.796875 -1 
L 47.90625 -0.203125 
L 47.90625 2.40625 
C 42 2.40625 41.09375 3.015625 41.09375 7.859375 
L 41.09375 69 
z
M 35.796875 11.90625 
C 35.796875 8.875 34 6.140625 31.703125 4.125 
C 28.296875 1.09375 24.90625 0.59375 23 0.59375 
C 20.09375 0.59375 9.703125 2.109375 9.703125 21.390625 
C 9.703125 41.1875 21.296875 42.390625 23.90625 42.390625 
C 28.5 42.390625 32.203125 39.765625 34.5 36.140625 
C 35.796875 34.015625 35.796875 33.703125 35.796875 31.890625 
z
" id="CMR17-100"/>
      <path d="M 54.203125 25.1875 
L 52.40625 25.1875 
C 51.59375 15.328125 50.296875 2.59375 33.203125 2.59375 
L 23.90625 2.59375 
C 19.90625 2.59375 19.703125 3.09375 19.703125 6.46875 
L 19.703125 60.8125 
C 19.703125 64.390625 19.90625 65.390625 27.5 65.390625 
L 29.703125 65.390625 
L 29.703125 68 
C 25.59375 67.796875 20.796875 67.796875 16.703125 67.796875 
C 13.59375 67.796875 8 67.796875 5.09375 68 
L 5.09375 65.390625 
C 12 65.390625 13.09375 65.390625 13.09375 60.90625 
L 13.09375 7.078125 
C 13.09375 2.59375 12 2.59375 5.09375 2.59375 
L 5.09375 0 
L 51.796875 0 
z
" id="CMR17-76"/>
      <path d="M 60.703125 25.21875 
L 58.90625 25.21875 
C 56.703125 10.5625 55.40625 2.59375 37.796875 2.59375 
L 23.90625 2.59375 
C 19.90625 2.59375 19.703125 3.09375 19.703125 6.484375 
L 19.703125 34 
L 29.09375 34 
C 38.5 34 39.40625 30.609375 39.40625 22.328125 
L 41.203125 22.328125 
L 41.203125 48.21875 
L 39.40625 48.21875 
C 39.40625 39.96875 38.5 36.59375 29.09375 36.59375 
L 19.703125 36.59375 
L 19.703125 61.3125 
C 19.703125 64.703125 19.90625 65.1875 23.90625 65.1875 
L 37.59375 65.1875 
C 53.09375 65.1875 54.90625 59.03125 56.296875 45.828125 
L 58.09375 45.828125 
L 55.703125 67.796875 
L 5.09375 67.796875 
L 5.09375 65.1875 
C 12 65.1875 13.09375 65.1875 13.09375 60.71875 
L 13.09375 7.078125 
C 13.09375 2.59375 12 2.59375 5.09375 2.59375 
L 5.09375 0 
L 57.09375 0 
z
" id="CMR17-69"/>
      <path d="M 15.296875 69 
L 3.40625 67.890625 
L 3.40625 65.296875 
C 9.296875 65.296875 10.203125 64.703125 10.203125 59.921875 
L 10.203125 6.859375 
C 10.203125 3.09375 9.796875 2.59375 3.40625 2.59375 
L 3.40625 0 
C 5.796875 0.1875 10.203125 0.1875 12.703125 0.1875 
C 15.296875 0.1875 19.703125 0.1875 22.09375 0 
L 22.09375 2.59375 
C 15.703125 2.59375 15.296875 2.984375 15.296875 6.859375 
z
" id="CMR17-108"/>
     </defs>
     <use transform="scale(0.996264)" xlink:href="#CMR17-84"/>
     <use transform="translate(66.509881 0)scale(0.996264)" xlink:href="#CMR17-79"/>
     <use transform="translate(135.622215 0)scale(0.996264)" xlink:href="#CMR17-86"/>
     <use transform="translate(204.694645 -14.943915)scale(0.697382)" xlink:href="#CMR17-48"/>
     <use transform="translate(267.251925 0)scale(0.996264)" xlink:href="#CMR17-97"/>
     <use transform="translate(312.942402 0)scale(0.996264)" xlink:href="#CMR17-110"/>
     <use transform="translate(363.837772 0)scale(0.996264)" xlink:href="#CMR17-100"/>
     <use transform="translate(444.809108 0)scale(0.996264)" xlink:href="#CMR17-76"/>
     <use transform="translate(502.190516 0)scale(0.996264)" xlink:href="#CMR17-69"/>
     <use transform="translate(594.852783 0)scale(0.996264)" xlink:href="#CMR17-114"/>
     <use transform="translate(630.133551 0)scale(0.996264)" xlink:href="#CMR17-101"/>
     <use transform="translate(670.619211 0)scale(0.996264)" xlink:href="#CMR17-115"/>
     <use transform="translate(706.420549 0)scale(0.996264)" xlink:href="#CMR17-117"/>
     <use transform="translate(757.315919 0)scale(0.996264)" xlink:href="#CMR17-108"/>
     <use transform="translate(782.186977 0)scale(0.996264)" xlink:href="#CMR17-116"/>
     <use transform="translate(817.467745 0)scale(0.996264)" xlink:href="#CMR17-115"/>
    </g>
   </g>
   <g id="legend_4">
    <g id="patch_25">
     <path d="M 345.822814 211.849153 
L 435.743307 211.849153 
Q 437.743307 211.849153 437.743307 209.849153 
L 437.743307 195.400321 
Q 437.743307 193.400321 435.743307 193.400321 
L 345.822814 193.400321 
Q 343.822814 193.400321 343.822814 195.400321 
L 343.822814 209.849153 
Q 343.822814 211.849153 345.822814 211.849153 
z
" style="fill:#ffffff;opacity:0.8;stroke:#cccccc;stroke-linejoin:miter;"/>
    </g>
    <g id="line2d_81">
     <path d="M 347.822814 201.498758 
L 367.822814 201.498758 
" style="fill:none;stroke:#000000;stroke-dasharray:5.55,2.4;stroke-dashoffset:0;stroke-width:1.5;"/>
    </g>
    <g id="line2d_82"/>
    <g id="text_61">
     <!-- $p_{LE}-p_{TOV,0}$ -->
     <g transform="translate(375.822814 204.998758)scale(0.1 -0.1)">
      <defs>
       <path d="M 36.703125 60.3125 
C 37.59375 64.09375 37.90625 65.09375 46.703125 65.09375 
C 49.40625 65.09375 50.09375 65.09375 50.09375 66.984375 
C 50.09375 68 49 68 48.59375 68 
C 46.59375 68 44.296875 67.796875 42.296875 67.796875 
L 28.90625 67.796875 
C 27 67.796875 24.796875 68 22.90625 68 
C 22.09375 68 21 68 21 66.09375 
C 21 65.09375 21.90625 65.09375 23.40625 65.09375 
C 29.5 65.09375 29.5 64.296875 29.5 63.203125 
C 29.5 63 29.5 62.40625 29.09375 60.90625 
L 15.59375 7.375 
C 14.703125 3.890625 14.5 2.890625 7.5 2.890625 
C 5.59375 2.890625 4.59375 2.890625 4.59375 1.09375 
C 4.59375 0 5.203125 0 7.203125 0 
L 52 0 
C 54.203125 0 54.296875 0.09375 55 1.890625 
L 62.703125 23.09375 
C 62.90625 23.59375 63.09375 24.1875 63.09375 24.484375 
C 63.09375 25.078125 62.59375 25.484375 62.09375 25.484375 
C 62 25.484375 61.5 25.484375 61.296875 25.078125 
C 61.09375 24.984375 61.09375 24.78125 60.296875 22.890625 
C 57.09375 14.140625 52.59375 2.890625 35.703125 2.890625 
L 26.09375 2.890625 
C 24.703125 2.890625 24.5 2.890625 23.90625 2.984375 
C 22.796875 3.09375 22.703125 3.296875 22.703125 4.09375 
C 22.703125 4.78125 22.90625 5.375 23.09375 6.28125 
z
" id="CMMI12-76"/>
       <path d="M 69.5 23.265625 
C 69.59375 23.5625 69.90625 24.265625 69.90625 24.65625 
C 69.90625 25.171875 69.5 25.671875 68.90625 25.671875 
C 68.5 25.671875 68.296875 25.5625 68 25.265625 
C 67.796875 25.171875 67.796875 24.96875 66.90625 22.953125 
C 61 8.90625 56.703125 2.890625 40.703125 2.890625 
L 26.09375 2.890625 
C 24.703125 2.890625 24.5 2.890625 23.90625 3 
C 22.796875 3.09375 22.703125 3.296875 22.703125 4.09375 
C 22.703125 4.796875 22.90625 5.40625 23.09375 6.296875 
L 30 34 
L 39.90625 34 
C 47.703125 34 48.296875 32.28125 48.296875 29.28125 
C 48.296875 28.28125 48.296875 27.375 47.59375 24.359375 
C 47.40625 23.96875 47.296875 23.5625 47.296875 23.265625 
C 47.296875 22.5625 47.796875 22.25 48.40625 22.25 
C 49.296875 22.25 49.40625 22.953125 49.796875 24.359375 
L 55.5 47.4375 
C 55.5 47.9375 55.09375 48.421875 54.5 48.421875 
C 53.59375 48.421875 53.5 48.03125 53.09375 46.65625 
C 51.09375 39.0625 49.09375 36.890625 40.203125 36.890625 
L 30.703125 36.890625 
L 36.90625 61.140625 
C 37.796875 64.59375 38 64.890625 42.09375 64.890625 
L 56.40625 64.890625 
C 68.703125 64.890625 71.203125 61.640625 71.203125 54.140625 
C 71.203125 54.046875 71.203125 51.28125 70.796875 48.03125 
C 70.703125 47.640625 70.59375 47.046875 70.59375 46.84375 
C 70.59375 46.0625 71.09375 45.765625 71.703125 45.765625 
C 72.40625 45.765625 72.796875 46.15625 73 47.9375 
L 75.09375 65.1875 
C 75.09375 65.484375 75.296875 66.484375 75.296875 66.6875 
C 75.296875 67.796875 74.40625 67.796875 72.59375 67.796875 
L 23.796875 67.796875 
C 21.90625 67.796875 20.90625 67.796875 20.90625 65.984375 
C 20.90625 64.890625 21.59375 64.890625 23.296875 64.890625 
C 29.5 64.890625 29.5 64.203125 29.5 63.109375 
C 29.5 62.625 29.40625 62.234375 29.09375 61.140625 
L 15.59375 7.40625 
C 14.703125 3.890625 14.5 2.890625 7.5 2.890625 
C 5.59375 2.890625 4.59375 2.890625 4.59375 1.09375 
C 4.59375 0 5.203125 0 7.203125 0 
L 57.40625 0 
C 59.59375 0 59.703125 0.09375 60.40625 1.6875 
z
" id="CMMI12-69"/>
       <path d="M 41.703125 60.71875 
C 42.296875 63.09375 42.5 64 44 64.390625 
C 44.796875 64.59375 48.09375 64.59375 50.203125 64.59375 
C 60.203125 64.59375 64.90625 64.203125 64.90625 56.4375 
C 64.90625 54.9375 64.5 51.15625 63.90625 47.46875 
L 63.796875 46.28125 
C 63.796875 45.890625 64.203125 45.28125 64.796875 45.28125 
C 65.796875 45.28125 65.796875 45.78125 66.09375 47.375 
L 69 64.984375 
C 69.203125 65.890625 69.203125 66.09375 69.203125 66.390625 
C 69.203125 67.484375 68.59375 67.484375 66.59375 67.484375 
L 11.90625 67.484375 
C 9.59375 67.484375 9.5 67.390625 8.90625 65.59375 
L 2.796875 47.671875 
C 2.703125 47.46875 2.40625 46.375 2.40625 46.28125 
C 2.40625 45.78125 2.796875 45.28125 3.40625 45.28125 
C 4.203125 45.28125 4.40625 45.6875 4.796875 46.984375 
C 9 59.015625 11.09375 64.59375 24.40625 64.59375 
L 31.09375 64.59375 
C 33.5 64.59375 34.5 64.59375 34.5 63.5 
C 34.5 63.203125 34.5 63 34 61.203125 
L 20.59375 7.765625 
C 19.59375 3.890625 19.40625 2.890625 8.796875 2.890625 
C 6.296875 2.890625 5.59375 2.890625 5.59375 1 
C 5.59375 0 6.703125 0 7.203125 0 
C 9.703125 0 12.296875 0.1875 14.796875 0.1875 
L 30.40625 0.1875 
C 32.90625 0.1875 35.59375 0 38.09375 0 
C 39.203125 0 40.203125 0 40.203125 1.890625 
C 40.203125 2.890625 39.5 2.890625 36.90625 2.890625 
C 27.90625 2.890625 27.90625 3.78125 27.90625 5.28125 
C 27.90625 5.375 27.90625 6.078125 28.296875 7.671875 
z
" id="CMMI12-84"/>
       <path d="M 72.59375 43.5625 
C 72.59375 59.953125 61.796875 70 47.796875 70 
C 26.40625 70 4.796875 47.140625 4.796875 24.21875 
C 4.796875 8.625 15.203125 -2 29.703125 -2 
C 50.703125 -2 72.59375 19.75 72.59375 43.5625 
z
M 30.296875 0.296875 
C 22.09375 0.296875 13.40625 6.25 13.40625 21.734375 
C 13.40625 30.765625 16.703125 45.546875 24.90625 55.484375 
C 32.203125 64.21875 40.59375 67.796875 47.296875 67.796875 
C 56.09375 67.796875 64.59375 61.4375 64.59375 47.140625 
C 64.59375 38.3125 60.796875 24.515625 54.09375 15.078125 
C 46.796875 4.953125 37.703125 0.296875 30.296875 0.296875 
z
" id="CMMI12-79"/>
       <path d="M 61.90625 56.9375 
C 65.296875 62.296875 68.40625 64.6875 73.5 65.09375 
C 74.5 65.1875 75.296875 65.1875 75.296875 66.984375 
C 75.296875 67.390625 75.09375 68 74.203125 68 
C 72.40625 68 68.09375 67.796875 66.296875 67.796875 
C 63.40625 67.796875 60.40625 68 57.59375 68 
C 56.796875 68 55.796875 68 55.796875 66.09375 
C 55.796875 65.1875 56.703125 65.09375 57.09375 65.09375 
C 60.796875 64.78125 61.203125 63 61.203125 61.8125 
C 61.203125 60.3125 59.796875 58.03125 59.703125 57.9375 
L 28.296875 8.4375 
L 21.296875 62 
C 21.296875 64.890625 26.5 65.09375 27.59375 65.09375 
C 29.09375 65.09375 30 65.09375 30 66.984375 
C 30 68 28.90625 68 28.59375 68 
C 26.90625 68 24.90625 67.796875 23.203125 67.796875 
L 17.59375 67.796875 
C 10.296875 67.796875 7.296875 68 7.203125 68 
C 6.59375 68 5.40625 68 5.40625 66.1875 
C 5.40625 65.09375 6.09375 65.09375 7.703125 65.09375 
C 12.796875 65.09375 13.09375 64.1875 13.40625 61.703125 
L 21.40625 0.390625 
C 21.703125 -1.703125 21.703125 -2 23.09375 -2 
C 24.296875 -2 24.796875 -1.703125 25.796875 -0.109375 
z
" id="CMMI12-86"/>
       <path d="M 19.5 -0.40625 
C 19.5 5.390625 17.59375 9.6875 13.5 9.6875 
C 10.296875 9.6875 8.703125 7.09375 8.703125 4.890625 
C 8.703125 2.6875 10.203125 0 13.59375 0 
C 14.90625 0 16 0.390625 16.90625 1.296875 
C 17.09375 1.5 17.203125 1.5 17.296875 1.5 
C 17.5 1.5 17.5 0.09375 17.5 -0.40625 
C 17.5 -3.640625 16.90625 -10.03125 11.09375 -16.421875 
C 10 -17.609375 10 -17.8125 10 -18 
C 10 -18.5 10.5 -19 11 -19 
C 11.796875 -19 19.5 -11.703125 19.5 -0.40625 
z
" id="CMMI12-59"/>
      </defs>
      <use transform="scale(0.996264)" xlink:href="#CMMI12-112"/>
      <use transform="translate(48.959514 -14.943915)scale(0.697382)" xlink:href="#CMMI12-76"/>
      <use transform="translate(95.418928 -14.943915)scale(0.697382)" xlink:href="#CMMI12-69"/>
      <use transform="translate(172.692172 0)scale(0.996264)" xlink:href="#CMSY10-0"/>
      <use transform="translate(272.318846 0)scale(0.996264)" xlink:href="#CMMI12-112"/>
      <use transform="translate(321.27836 -14.943915)scale(0.697382)" xlink:href="#CMMI12-84"/>
      <use transform="translate(370.784683 -14.943915)scale(0.697382)" xlink:href="#CMMI12-79"/>
      <use transform="translate(424.866711 -14.943915)scale(0.697382)" xlink:href="#CMMI12-86"/>
      <use transform="translate(468.468813 -14.943915)scale(0.697382)" xlink:href="#CMMI12-59"/>
      <use transform="translate(487.436745 -14.943915)scale(0.697382)" xlink:href="#CMR17-48"/>
     </g>
    </g>
   </g>
  </g>
 </g>
 <defs>
  <clipPath id="pb22bccb82a">
   <rect height="125.07717" width="190.793834" x="30.57782" y="25.8"/>
  </clipPath>
  <clipPath id="pc72b8833e7">
   <rect height="125.07717" width="190.793834" x="30.57782" y="188.400321"/>
  </clipPath>
  <clipPath id="p2180a14060">
   <rect height="125.07717" width="190.793834" x="251.949474" y="25.8"/>
  </clipPath>
  <clipPath id="p1f906f84b1">
   <rect height="125.07717" width="190.793834" x="251.949474" y="188.400321"/>
  </clipPath>
 </defs>
</svg>
