<?xml version="1.0" encoding="utf-8" standalone="no"?>
<!DOCTYPE svg PUBLIC "-//W3C//DTD SVG 1.1//EN"
  "http://www.w3.org/Graphics/SVG/1.1/DTD/svg11.dtd">
<svg height="340.15748pt" version="1.1" viewBox="0 0 453.543307 340.15748" width="453.543307pt" xmlns="http://www.w3.org/2000/svg" xmlns:xlink="http://www.w3.org/1999/xlink">
 <metadata>
  <rdf:RDF xmlns:cc="http://creativecommons.org/ns#" xmlns:dc="http://purl.org/dc/elements/1.1/" xmlns:rdf="http://www.w3.org/1999/02/22-rdf-syntax-ns#">
   <cc:Work>
    <dc:type rdf:resource="http://purl.org/dc/dcmitype/StillImage"/>
    <dc:date>2021-04-26T18:04:32.474339</dc:date>
    <dc:format>image/svg+xml</dc:format>
    <dc:creator>
     <cc:Agent>
      <dc:title>Matplotlib v3.4.1, https://matplotlib.org/</dc:title>
     </cc:Agent>
    </dc:creator>
   </cc:Work>
  </rdf:RDF>
 </metadata>
 <defs>
  <style type="text/css">*{stroke-linecap:butt;stroke-linejoin:round;}</style>
 </defs>
 <g id="figure_1">
  <g id="patch_1">
   <path d="M 0 340.15748 
L 453.543307 340.15748 
L 453.543307 0 
L 0 0 
z
" style="fill:#ffffff;"/>
  </g>
  <g id="axes_1">
   <g id="patch_2">
    <path d="M 43.45781 136.798913 
L 218.311644 136.798913 
L 218.311644 10.8 
L 43.45781 10.8 
z
" style="fill:#ffffff;"/>
   </g>
   <g id="matplotlib.axis_1">
    <g id="xtick_1">
     <g id="line2d_1">
      <defs>
       <path d="M 0 0 
L 0 3.5 
" id="m0c59e25d8e" style="stroke:#000000;stroke-width:0.8;"/>
      </defs>
      <g>
       <use style="stroke:#000000;stroke-width:0.8;" x="51.405712" xlink:href="#m0c59e25d8e" y="136.798913"/>
      </g>
     </g>
     <g id="text_1">
      <!-- $\mathdefault{0}$ -->
      <g transform="translate(48.915044 150.717412)scale(0.1 -0.1)">
       <defs>
        <path d="M 2688 2038 
C 2688 2430 2682 3099 2413 3613 
C 2176 4063 1798 4224 1466 4224 
C 1158 4224 768 4082 525 3620 
C 269 3137 243 2539 243 2038 
C 243 1671 250 1112 448 623 
C 723 -39 1216 -128 1466 -128 
C 1760 -128 2208 -7 2470 604 
C 2662 1048 2688 1568 2688 2038 
z
M 1466 -26 
C 1056 -26 813 328 723 816 
C 653 1196 653 1749 653 2109 
C 653 2604 653 3015 736 3407 
C 858 3954 1216 4121 1466 4121 
C 1728 4121 2067 3947 2189 3420 
C 2272 3054 2278 2623 2278 2109 
C 2278 1691 2278 1176 2202 797 
C 2067 96 1690 -26 1466 -26 
z
" id="CMR17-30" transform="scale(0.015625)"/>
       </defs>
       <use transform="scale(0.996264)" xlink:href="#CMR17-30"/>
      </g>
     </g>
    </g>
    <g id="xtick_2">
     <g id="line2d_2">
      <g>
       <use style="stroke:#000000;stroke-width:0.8;" x="114.735604" xlink:href="#m0c59e25d8e" y="136.798913"/>
      </g>
     </g>
     <g id="text_2">
      <!-- $\mathdefault{1}$ -->
      <g transform="translate(112.244937 150.717412)scale(0.1 -0.1)">
       <defs>
        <path d="M 1702 4083 
C 1702 4217 1696 4224 1606 4224 
C 1357 3927 979 3833 621 3820 
C 602 3820 570 3820 563 3808 
C 557 3795 557 3782 557 3648 
C 755 3648 1088 3686 1344 3839 
L 1344 467 
C 1344 243 1331 166 781 166 
L 589 166 
L 589 0 
C 896 6 1216 12 1523 12 
C 1830 12 2150 6 2458 0 
L 2458 166 
L 2266 166 
C 1715 166 1702 236 1702 467 
L 1702 4083 
z
" id="CMR17-31" transform="scale(0.015625)"/>
       </defs>
       <use transform="scale(0.996264)" xlink:href="#CMR17-31"/>
      </g>
     </g>
    </g>
    <g id="xtick_3">
     <g id="line2d_3">
      <g>
       <use style="stroke:#000000;stroke-width:0.8;" x="178.065497" xlink:href="#m0c59e25d8e" y="136.798913"/>
      </g>
     </g>
     <g id="text_3">
      <!-- $\mathdefault{2}$ -->
      <g transform="translate(175.574829 150.717412)scale(0.1 -0.1)">
       <defs>
        <path d="M 2669 990 
L 2554 990 
C 2490 537 2438 460 2413 422 
C 2381 371 1920 371 1830 371 
L 602 371 
C 832 620 1280 1073 1824 1596 
C 2214 1966 2669 2400 2669 3033 
C 2669 3788 2067 4224 1395 4224 
C 691 4224 262 3603 262 3027 
C 262 2777 448 2745 525 2745 
C 589 2745 781 2783 781 3007 
C 781 3206 614 3264 525 3264 
C 486 3264 448 3257 422 3244 
C 544 3788 915 4057 1306 4057 
C 1862 4057 2227 3616 2227 3033 
C 2227 2477 1901 1998 1536 1583 
L 262 147 
L 262 0 
L 2515 0 
L 2669 990 
z
" id="CMR17-32" transform="scale(0.015625)"/>
       </defs>
       <use transform="scale(0.996264)" xlink:href="#CMR17-32"/>
      </g>
     </g>
    </g>
    <g id="text_4">
     <!-- Radius $r$ -->
     <g transform="translate(111.936077 163.573088)scale(0.1 -0.1)">
      <defs>
       <path d="M 2509 2156 
C 3117 2278 3629 2689 3629 3203 
C 3629 3806 2950 4352 2054 4352 
L 333 4352 
L 333 4185 
C 774 4185 845 4185 845 3896 
L 845 428 
C 845 140 774 140 333 140 
L 333 -26 
C 518 -13 851 -13 1050 -13 
C 1248 -13 1581 -13 1766 -26 
L 1766 140 
C 1325 140 1254 140 1254 428 
L 1254 2112 
L 2003 2112 
C 2368 2112 2573 1964 2662 1881 
C 2918 1632 2918 1459 2918 1024 
C 2918 595 2918 377 3110 160 
C 3354 -103 3680 -128 3821 -128 
C 4294 -128 4365 403 4365 512 
C 4365 550 4365 595 4307 595 
C 4256 595 4250 556 4250 531 
C 4218 115 4032 -26 3834 -26 
C 3482 -26 3443 377 3405 768 
C 3386 902 3373 998 3360 1139 
C 3322 1459 3270 1926 2509 2156 
z
M 1984 2214 
L 1254 2214 
L 1254 3935 
C 1254 4153 1267 4185 1523 4185 
L 1990 4185 
C 2522 4185 3142 3999 3142 3203 
C 3142 2374 2464 2214 1984 2214 
z
" id="CMR17-52" transform="scale(0.015625)"/>
       <path d="M 2304 1656 
C 2304 2048 2304 2275 2035 2534 
C 1798 2751 1523 2816 1306 2816 
C 800 2816 435 2408 435 1977 
C 435 1740 627 1728 666 1728 
C 749 1728 896 1779 896 1958 
C 896 2118 774 2188 666 2188 
C 640 2188 608 2182 589 2176 
C 723 2594 1069 2713 1293 2713 
C 1613 2713 1965 2421 1965 1875 
L 1965 1632 
C 1587 1619 1133 1568 774 1373 
C 371 1147 256 822 256 576 
C 256 77 832 -64 1171 -64 
C 1523 -64 1850 135 1990 505 
C 2003 219 2182 -39 2464 -39 
C 2598 -39 2938 51 2938 563 
L 2938 926 
L 2822 926 
L 2822 557 
C 2822 161 2650 109 2566 109 
C 2304 109 2304 446 2304 732 
L 2304 1656 
z
M 1965 887 
C 1965 323 1568 38 1216 38 
C 896 38 646 278 646 576 
C 646 771 730 1114 1101 1322 
C 1408 1497 1760 1523 1965 1536 
L 1965 887 
z
" id="CMR17-61" transform="scale(0.015625)"/>
       <path d="M 1869 4345 
L 1869 4179 
C 2246 4179 2304 4141 2304 3843 
L 2304 2371 
C 2278 2403 2016 2816 1498 2816 
C 845 2816 211 2228 211 1376 
C 211 529 806 -64 1434 -64 
C 1978 -64 2259 361 2291 406 
L 2291 -64 
L 3066 -13 
L 3066 154 
C 2688 154 2630 193 2630 503 
L 2630 4416 
L 1869 4345 
z
M 2291 762 
C 2291 568 2176 393 2029 264 
C 1811 70 1594 38 1472 38 
C 1286 38 621 135 621 1369 
C 621 2636 1363 2713 1530 2713 
C 1824 2713 2061 2545 2208 2313 
C 2291 2177 2291 2157 2291 2041 
L 2291 762 
z
" id="CMR17-64" transform="scale(0.015625)"/>
       <path d="M 992 3961 
C 992 4102 877 4224 730 4224 
C 589 4224 467 4108 467 3961 
C 467 3820 582 3699 730 3699 
C 870 3699 992 3814 992 3961 
z
M 243 2745 
L 243 2579 
C 602 2579 653 2540 653 2231 
L 653 443 
C 653 198 627 166 218 166 
L 218 0 
C 371 12 646 12 806 12 
C 960 12 1222 12 1370 0 
L 1370 166 
C 992 166 979 205 979 436 
L 979 2816 
L 243 2745 
z
" id="CMR17-69" transform="scale(0.015625)"/>
       <path d="M 1882 2745 
L 1882 2579 
C 2259 2579 2317 2540 2317 2229 
L 2317 1053 
C 2317 510 2029 38 1555 38 
C 1030 38 986 355 986 691 
L 986 2816 
L 211 2745 
L 211 2579 
C 467 2579 640 2579 646 2320 
L 646 1079 
C 646 646 646 368 813 187 
C 896 103 1056 -64 1517 -64 
C 2061 -64 2272 400 2323 536 
L 2330 536 
L 2330 -64 
L 3091 -13 
L 3091 154 
C 2714 154 2656 193 2656 503 
L 2656 2816 
L 1882 2745 
z
" id="CMR17-75" transform="scale(0.015625)"/>
       <path d="M 1978 2688 
C 1978 2803 1971 2809 1933 2809 
C 1907 2809 1901 2803 1824 2707 
C 1805 2681 1747 2617 1728 2592 
C 1523 2809 1235 2816 1126 2816 
C 416 2816 160 2444 160 2073 
C 160 1497 813 1363 998 1324 
C 1402 1241 1542 1216 1677 1100 
C 1760 1024 1901 883 1901 652 
C 1901 384 1747 38 1158 38 
C 602 38 403 460 288 1024 
C 269 1113 269 1120 218 1120 
C 166 1120 160 1113 160 985 
L 160 64 
C 160 -52 166 -58 205 -58 
C 237 -58 243 -52 275 0 
C 314 57 410 211 448 275 
C 576 102 800 -64 1158 -64 
C 1792 -64 2131 281 2131 780 
C 2131 1107 1958 1280 1875 1356 
C 1683 1555 1459 1600 1190 1651 
C 838 1728 390 1817 390 2208 
C 390 2374 480 2726 1126 2726 
C 1811 2726 1850 2086 1862 1881 
C 1869 1849 1901 1843 1920 1843 
C 1978 1843 1978 1862 1978 1971 
L 1978 2688 
z
" id="CMR17-73" transform="scale(0.015625)"/>
       <path d="M 2490 2633 
C 2291 2598 2189 2457 2189 2316 
C 2189 2163 2310 2111 2400 2111 
C 2579 2111 2726 2265 2726 2457 
C 2726 2651 2528 2816 2208 2816 
C 1952 2816 1658 2700 1389 2335 
C 1344 2660 1088 2816 832 2816 
C 582 2816 454 2642 378 2508 
C 269 2278 173 1892 173 1860 
C 173 1834 198 1801 243 1801 
C 294 1801 301 1808 339 1957 
C 435 2342 557 2687 813 2687 
C 966 2687 1011 2604 1011 2419 
C 1011 2278 947 2028 902 1827 
L 723 1130 
C 698 1007 627 716 595 600 
C 550 432 480 128 480 96 
C 480 6 550 -64 646 -64 
C 717 -64 838 -20 877 109 
C 896 160 1133 1136 1171 1285 
C 1203 1427 1242 1562 1274 1705 
C 1299 1795 1325 1898 1344 1982 
C 1363 2040 1536 2355 1696 2495 
C 1773 2566 1939 2687 2202 2687 
C 2304 2687 2406 2674 2490 2633 
z
" id="CMMI12-72" transform="scale(0.015625)"/>
      </defs>
      <use transform="scale(0.996264)" xlink:href="#CMR17-52"/>
      <use transform="translate(67.791102 0)scale(0.996264)" xlink:href="#CMR17-61"/>
      <use transform="translate(113.481579 0)scale(0.996264)" xlink:href="#CMR17-64"/>
      <use transform="translate(164.376949 0)scale(0.996264)" xlink:href="#CMR17-69"/>
      <use transform="translate(189.248007 0)scale(0.996264)" xlink:href="#CMR17-75"/>
      <use transform="translate(240.143377 0)scale(0.996264)" xlink:href="#CMR17-73"/>
      <use transform="translate(306.020681 0)scale(0.996264)" xlink:href="#CMMI12-72"/>
     </g>
    </g>
   </g>
   <g id="matplotlib.axis_2">
    <g id="ytick_1">
     <g id="line2d_4">
      <defs>
       <path d="M 0 0 
L -3.5 0 
" id="m7e3adf7bbc" style="stroke:#000000;stroke-width:0.8;"/>
      </defs>
      <g>
       <use style="stroke:#000000;stroke-width:0.8;" x="43.45781" xlink:href="#m7e3adf7bbc" y="131.07169"/>
      </g>
     </g>
     <g id="text_5">
      <!-- $\mathdefault{0.0}$ -->
      <g transform="translate(23.727731 134.530939)scale(0.1 -0.1)">
       <defs>
        <path d="M 1178 307 
C 1178 492 1024 620 870 620 
C 685 620 557 467 557 313 
C 557 128 710 0 864 0 
C 1050 0 1178 153 1178 307 
z
" id="CMMI12-3a" transform="scale(0.015625)"/>
       </defs>
       <use transform="scale(0.996264)" xlink:href="#CMR17-30"/>
       <use transform="translate(45.690477 0)scale(0.996264)" xlink:href="#CMMI12-3a"/>
       <use transform="translate(72.787654 0)scale(0.996264)" xlink:href="#CMR17-30"/>
      </g>
     </g>
    </g>
    <g id="ytick_2">
     <g id="line2d_5">
      <g>
       <use style="stroke:#000000;stroke-width:0.8;" x="43.45781" xlink:href="#m7e3adf7bbc" y="108.162797"/>
      </g>
     </g>
     <g id="text_6">
      <!-- $\mathdefault{0.1}$ -->
      <g transform="translate(23.727731 111.622046)scale(0.1 -0.1)">
       <use transform="scale(0.996264)" xlink:href="#CMR17-30"/>
       <use transform="translate(45.690477 0)scale(0.996264)" xlink:href="#CMMI12-3a"/>
       <use transform="translate(72.787654 0)scale(0.996264)" xlink:href="#CMR17-31"/>
      </g>
     </g>
    </g>
    <g id="ytick_3">
     <g id="line2d_6">
      <g>
       <use style="stroke:#000000;stroke-width:0.8;" x="43.45781" xlink:href="#m7e3adf7bbc" y="85.253903"/>
      </g>
     </g>
     <g id="text_7">
      <!-- $\mathdefault{0.2}$ -->
      <g transform="translate(23.727731 88.713152)scale(0.1 -0.1)">
       <use transform="scale(0.996264)" xlink:href="#CMR17-30"/>
       <use transform="translate(45.690477 0)scale(0.996264)" xlink:href="#CMMI12-3a"/>
       <use transform="translate(72.787654 0)scale(0.996264)" xlink:href="#CMR17-32"/>
      </g>
     </g>
    </g>
    <g id="ytick_4">
     <g id="line2d_7">
      <g>
       <use style="stroke:#000000;stroke-width:0.8;" x="43.45781" xlink:href="#m7e3adf7bbc" y="62.34501"/>
      </g>
     </g>
     <g id="text_8">
      <!-- $\mathdefault{0.3}$ -->
      <g transform="translate(23.727731 65.804259)scale(0.1 -0.1)">
       <defs>
        <path d="M 1414 2176 
C 1984 2176 2234 1673 2234 1094 
C 2234 322 1824 25 1453 25 
C 1114 25 563 193 390 691 
C 422 678 454 678 486 678 
C 640 678 755 780 755 947 
C 755 1132 614 1216 486 1216 
C 378 1216 211 1164 211 927 
C 211 335 787 -128 1466 -128 
C 2176 -128 2720 432 2720 1087 
C 2720 1718 2208 2176 1600 2246 
C 2086 2347 2554 2776 2554 3353 
C 2554 3856 2048 4224 1472 4224 
C 890 4224 378 3862 378 3347 
C 378 3123 544 3084 627 3084 
C 762 3084 877 3167 877 3334 
C 877 3500 762 3584 627 3584 
C 602 3584 570 3584 544 3571 
C 730 3999 1235 4076 1459 4076 
C 1683 4076 2106 3966 2106 3347 
C 2106 3167 2080 2851 1862 2574 
C 1670 2329 1453 2316 1242 2297 
C 1210 2297 1062 2284 1037 2284 
C 992 2278 966 2272 966 2227 
C 966 2182 973 2176 1101 2176 
L 1414 2176 
z
" id="CMR17-33" transform="scale(0.015625)"/>
       </defs>
       <use transform="scale(0.996264)" xlink:href="#CMR17-30"/>
       <use transform="translate(45.690477 0)scale(0.996264)" xlink:href="#CMMI12-3a"/>
       <use transform="translate(72.787654 0)scale(0.996264)" xlink:href="#CMR17-33"/>
      </g>
     </g>
    </g>
    <g id="ytick_5">
     <g id="line2d_8">
      <g>
       <use style="stroke:#000000;stroke-width:0.8;" x="43.45781" xlink:href="#m7e3adf7bbc" y="39.436117"/>
      </g>
     </g>
     <g id="text_9">
      <!-- $\mathdefault{0.4}$ -->
      <g transform="translate(23.727731 42.895366)scale(0.1 -0.1)">
       <defs>
        <path d="M 2150 4147 
C 2150 4281 2144 4288 2029 4288 
L 128 1254 
L 128 1088 
L 1779 1088 
L 1779 460 
C 1779 230 1766 166 1318 166 
L 1197 166 
L 1197 0 
C 1402 12 1747 12 1965 12 
C 2182 12 2528 12 2733 0 
L 2733 166 
L 2611 166 
C 2163 166 2150 230 2150 460 
L 2150 1088 
L 2803 1088 
L 2803 1254 
L 2150 1254 
L 2150 4147 
z
M 1798 3723 
L 1798 1254 
L 256 1254 
L 1798 3723 
z
" id="CMR17-34" transform="scale(0.015625)"/>
       </defs>
       <use transform="scale(0.996264)" xlink:href="#CMR17-30"/>
       <use transform="translate(45.690477 0)scale(0.996264)" xlink:href="#CMMI12-3a"/>
       <use transform="translate(72.787654 0)scale(0.996264)" xlink:href="#CMR17-34"/>
      </g>
     </g>
    </g>
    <g id="ytick_6">
     <g id="line2d_9">
      <g>
       <use style="stroke:#000000;stroke-width:0.8;" x="43.45781" xlink:href="#m7e3adf7bbc" y="16.527223"/>
      </g>
     </g>
     <g id="text_10">
      <!-- $\mathdefault{0.5}$ -->
      <g transform="translate(23.727731 19.986473)scale(0.1 -0.1)">
       <defs>
        <path d="M 730 3750 
C 794 3724 1056 3641 1325 3641 
C 1920 3641 2246 3961 2432 4140 
C 2432 4191 2432 4224 2394 4224 
C 2387 4224 2374 4224 2323 4198 
C 2099 4102 1837 4032 1517 4032 
C 1325 4032 1037 4055 723 4191 
C 653 4224 640 4224 634 4224 
C 602 4224 595 4217 595 4090 
L 595 2231 
C 595 2113 595 2080 659 2080 
C 691 2080 704 2093 736 2139 
C 941 2435 1222 2560 1542 2560 
C 1766 2560 2246 2415 2246 1293 
C 2246 1087 2246 716 2054 422 
C 1894 159 1645 25 1370 25 
C 947 25 518 319 403 812 
C 429 806 480 793 506 793 
C 589 793 749 838 749 1036 
C 749 1209 627 1280 506 1280 
C 358 1280 262 1190 262 1011 
C 262 454 704 -128 1382 -128 
C 2042 -128 2669 441 2669 1267 
C 2669 2054 2170 2662 1549 2662 
C 1222 2662 947 2540 730 2304 
L 730 3750 
z
" id="CMR17-35" transform="scale(0.015625)"/>
       </defs>
       <use transform="scale(0.996264)" xlink:href="#CMR17-30"/>
       <use transform="translate(45.690477 0)scale(0.996264)" xlink:href="#CMMI12-3a"/>
       <use transform="translate(72.787654 0)scale(0.996264)" xlink:href="#CMR17-35"/>
      </g>
     </g>
    </g>
    <g id="text_11">
     <!-- Pressure $p$ -->
     <g transform="translate(17.790553 96.383186)rotate(-90)scale(0.1 -0.1)">
      <defs>
       <path d="M 1267 2048 
L 2291 2048 
C 3117 2048 3718 2583 3718 3187 
C 3718 3791 3130 4352 2291 4352 
L 333 4352 
L 333 4185 
C 774 4185 845 4185 845 3899 
L 845 453 
C 845 166 774 166 333 166 
L 333 0 
C 518 12 858 12 1056 12 
C 1254 12 1594 12 1779 0 
L 1779 166 
C 1338 166 1267 166 1267 453 
L 1267 2048 
z
M 1254 2182 
L 1254 3937 
C 1254 4153 1267 4185 1523 4185 
L 2170 4185 
C 2995 4185 3232 3715 3232 3187 
C 3232 2608 2950 2182 2170 2182 
L 1254 2182 
z
" id="CMR17-50" transform="scale(0.015625)"/>
       <path d="M 960 1517 
C 960 2134 1222 2713 1702 2713 
C 1747 2713 1792 2707 1837 2687 
C 1837 2687 1696 2642 1696 2475 
C 1696 2321 1818 2257 1914 2257 
C 1990 2257 2131 2302 2131 2482 
C 2131 2687 1926 2816 1709 2816 
C 1222 2816 1011 2340 947 2115 
L 941 2115 
L 941 2816 
L 198 2745 
L 198 2578 
C 576 2578 634 2540 634 2231 
L 634 443 
C 634 198 608 166 198 166 
L 198 0 
C 352 12 646 12 813 12 
C 998 12 1325 12 1498 0 
L 1498 166 
C 1037 166 960 166 960 455 
L 960 1517 
z
" id="CMR17-72" transform="scale(0.015625)"/>
       <path d="M 2438 1503 
C 2464 1529 2464 1542 2464 1606 
C 2464 2251 2118 2816 1389 2816 
C 710 2816 173 2175 173 1394 
C 173 554 781 -64 1459 -64 
C 2176 -64 2458 619 2458 755 
C 2458 800 2419 800 2406 800 
C 2362 800 2355 787 2330 709 
C 2189 270 1837 51 1504 51 
C 1229 51 954 206 781 490 
C 582 819 582 1200 582 1503 
L 2438 1503 
z
M 589 1600 
C 634 2511 1126 2713 1382 2713 
C 1818 2713 2112 2308 2118 1600 
L 589 1600 
z
" id="CMR17-65" transform="scale(0.015625)"/>
       <path d="M 275 -794 
C 230 -981 205 -1031 -58 -1031 
C -135 -1031 -199 -1031 -199 -1152 
C -199 -1165 -192 -1216 -122 -1216 
C -39 -1216 51 -1204 134 -1204 
L 410 -1204 
C 544 -1204 870 -1216 1005 -1216 
C 1043 -1216 1120 -1216 1120 -1101 
C 1120 -1031 1075 -1031 966 -1031 
C 672 -1031 653 -987 653 -937 
C 653 -863 941 217 979 364 
C 1050 185 1222 -64 1555 -64 
C 2278 -64 3059 874 3059 1813 
C 3059 2400 2726 2816 2246 2816 
C 1837 2816 1491 2419 1421 2330 
C 1370 2649 1120 2816 864 2816 
C 678 2816 531 2726 410 2483 
C 294 2253 205 1864 205 1838 
C 205 1813 230 1781 275 1781 
C 326 1781 333 1787 371 1934 
C 467 2311 589 2687 845 2687 
C 992 2687 1043 2585 1043 2394 
C 1043 2241 1024 2177 998 2062 
L 275 -794 
z
M 1382 1992 
C 1427 2170 1606 2356 1709 2445 
C 1779 2509 1990 2687 2234 2687 
C 2515 2687 2643 2407 2643 2075 
C 2643 1768 2464 1047 2304 715 
C 2144 370 1850 64 1555 64 
C 1120 64 1050 613 1050 638 
C 1050 657 1062 708 1069 740 
L 1382 1992 
z
" id="CMMI12-70" transform="scale(0.015625)"/>
      </defs>
      <use transform="scale(0.996264)" xlink:href="#CMR17-50"/>
      <use transform="translate(62.586301 0)scale(0.996264)" xlink:href="#CMR17-72"/>
      <use transform="translate(97.867068 0)scale(0.996264)" xlink:href="#CMR17-65"/>
      <use transform="translate(138.352729 0)scale(0.996264)" xlink:href="#CMR17-73"/>
      <use transform="translate(174.154066 0)scale(0.996264)" xlink:href="#CMR17-73"/>
      <use transform="translate(209.955404 0)scale(0.996264)" xlink:href="#CMR17-75"/>
      <use transform="translate(260.850774 0)scale(0.996264)" xlink:href="#CMR17-72"/>
      <use transform="translate(296.131542 0)scale(0.996264)" xlink:href="#CMR17-65"/>
      <use transform="translate(366.693168 0)scale(0.996264)" xlink:href="#CMMI12-70"/>
     </g>
    </g>
   </g>
   <g id="line2d_10">
    <path clip-path="url(#p96a120df95)" d="M 51.405712 16.527223 
L 52.03901 16.768999 
L 52.672309 17.420864 
L 53.305608 18.496439 
L 53.938907 19.983811 
L 54.572206 21.865518 
L 55.838804 26.719872 
L 57.105402 32.838231 
L 59.005299 43.791438 
L 62.171793 64.305502 
L 64.704989 80.285897 
L 66.604886 90.953387 
L 68.504783 100.081325 
L 69.77138 105.250476 
L 71.037978 109.701402 
L 72.304576 113.478492 
L 73.571174 116.643961 
L 74.837772 119.26935 
L 76.10437 121.428634 
L 77.370968 123.193194 
L 78.637565 124.62857 
L 79.904163 125.792743 
L 81.170761 126.73556 
L 83.070658 127.824443 
L 84.970555 128.619729 
L 87.50375 129.361792 
L 90.036946 129.8592 
L 93.203441 130.264202 
L 97.636533 130.595645 
L 103.969522 130.831067 
L 114.735604 130.983487 
L 140.067561 131.057917 
L 210.363742 131.071293 
L 210.363742 131.071293 
" style="fill:none;stroke:#000000;stroke-linecap:square;stroke-width:1.5;"/>
   </g>
   <g id="line2d_11">
    <path clip-path="url(#p96a120df95)" d="M 51.405712 16.527223 
L 52.03901 16.527223 
L 53.305608 17.11091 
L 54.572206 18.19388 
L 55.838804 19.784804 
L 57.105402 21.861181 
L 58.372 24.390307 
L 59.638598 27.332463 
L 61.538494 32.420399 
L 63.438391 38.1681 
L 65.971587 46.55292 
L 76.10437 81.108439 
L 78.637565 88.61777 
L 81.170761 95.371706 
L 83.070658 99.915992 
L 84.970555 104.013469 
L 86.870451 107.676649 
L 88.770348 110.926506 
L 90.670245 113.789828 
L 92.570142 116.296973 
L 94.470039 118.48003 
L 96.369935 120.371386 
L 98.269832 122.002655 
L 100.169729 123.403922 
L 102.702925 124.962668 
L 105.23612 126.222201 
L 107.769316 127.23489 
L 110.935811 128.221236 
L 114.102305 128.963722 
L 117.902099 129.612722 
L 122.335191 130.129757 
L 128.034882 130.542499 
L 135.634469 130.833397 
L 147.033849 131.00565 
L 169.832611 131.069032 
L 197.697763 131.07169 
L 197.697763 131.07169 
" style="fill:none;stroke:#000000;stroke-dasharray:1.5,2.475;stroke-dashoffset:0;stroke-width:1.5;"/>
   </g>
   <g id="patch_3">
    <path d="M 43.45781 136.798913 
L 43.45781 10.8 
" style="fill:none;stroke:#000000;stroke-linecap:square;stroke-linejoin:miter;stroke-width:0.8;"/>
   </g>
   <g id="patch_4">
    <path d="M 218.311644 136.798913 
L 218.311644 10.8 
" style="fill:none;stroke:#000000;stroke-linecap:square;stroke-linejoin:miter;stroke-width:0.8;"/>
   </g>
   <g id="patch_5">
    <path d="M 43.45781 136.798913 
L 218.311644 136.798913 
" style="fill:none;stroke:#000000;stroke-linecap:square;stroke-linejoin:miter;stroke-width:0.8;"/>
   </g>
   <g id="patch_6">
    <path d="M 43.45781 10.8 
L 218.311644 10.8 
" style="fill:none;stroke:#000000;stroke-linecap:square;stroke-linejoin:miter;stroke-width:0.8;"/>
   </g>
   <g id="legend_1">
    <g id="patch_7">
     <path d="M 157.542372 46.674357 
L 211.311644 46.674357 
Q 213.311644 46.674357 213.311644 44.674357 
L 213.311644 17.8 
Q 213.311644 15.8 211.311644 15.8 
L 157.542372 15.8 
Q 155.542372 15.8 155.542372 17.8 
L 155.542372 44.674357 
Q 155.542372 46.674357 157.542372 46.674357 
z
" style="fill:#ffffff;opacity:0.8;stroke:#cccccc;stroke-linejoin:miter;"/>
    </g>
    <g id="line2d_12">
     <path d="M 159.542372 23.3 
L 179.542372 23.3 
" style="fill:none;stroke:#000000;stroke-linecap:square;stroke-width:1.5;"/>
    </g>
    <g id="line2d_13"/>
    <g id="text_12">
     <!-- $p_{TOV}$ -->
     <g transform="translate(187.542372 26.8)scale(0.1 -0.1)">
      <defs>
       <path d="M 2669 3886 
C 2707 4038 2720 4096 2816 4121 
C 2867 4134 3078 4134 3213 4134 
C 3853 4134 4154 4109 4154 3612 
C 4154 3516 4128 3274 4090 3038 
L 4083 2962 
C 4083 2937 4109 2898 4147 2898 
C 4211 2898 4211 2930 4230 3032 
L 4416 4159 
C 4429 4217 4429 4230 4429 4249 
C 4429 4319 4390 4319 4262 4319 
L 762 4319 
C 614 4319 608 4313 570 4198 
L 179 3051 
C 173 3038 154 2968 154 2962 
C 154 2930 179 2898 218 2898 
C 269 2898 282 2924 307 3007 
C 576 3777 710 4134 1562 4134 
L 1990 4134 
C 2144 4134 2208 4134 2208 4064 
C 2208 4045 2208 4032 2176 3917 
L 1318 497 
C 1254 249 1242 185 563 185 
C 403 185 358 185 358 64 
C 358 0 429 0 461 0 
C 621 0 787 12 947 12 
L 1946 12 
C 2106 12 2278 0 2438 0 
C 2509 0 2573 0 2573 121 
C 2573 185 2528 185 2362 185 
C 1786 185 1786 242 1786 338 
C 1786 344 1786 389 1811 491 
L 2669 3886 
z
" id="CMMI12-54" transform="scale(0.015625)"/>
       <path d="M 4646 2788 
C 4646 3837 3955 4480 3059 4480 
C 1690 4480 307 3017 307 1550 
C 307 552 973 -128 1901 -128 
C 3245 -128 4646 1264 4646 2788 
z
M 1939 19 
C 1414 19 858 400 858 1391 
C 858 1969 1069 2915 1594 3551 
C 2061 4110 2598 4339 3027 4339 
C 3590 4339 4134 3932 4134 3017 
C 4134 2452 3891 1569 3462 965 
C 2995 317 2413 19 1939 19 
z
" id="CMMI12-4f" transform="scale(0.015625)"/>
       <path d="M 3962 3644 
C 4179 3987 4378 4140 4704 4166 
C 4768 4172 4819 4172 4819 4287 
C 4819 4313 4806 4352 4749 4352 
C 4634 4352 4358 4339 4243 4339 
C 4058 4339 3866 4352 3686 4352 
C 3635 4352 3571 4352 3571 4230 
C 3571 4172 3629 4166 3654 4166 
C 3891 4146 3917 4032 3917 3956 
C 3917 3860 3827 3714 3821 3708 
L 1811 540 
L 1363 3968 
C 1363 4153 1696 4166 1766 4166 
C 1862 4166 1920 4166 1920 4287 
C 1920 4352 1850 4352 1830 4352 
C 1722 4352 1594 4339 1485 4339 
L 1126 4339 
C 659 4339 467 4352 461 4352 
C 422 4352 346 4352 346 4236 
C 346 4166 390 4166 493 4166 
C 819 4166 838 4108 858 3949 
L 1370 25 
C 1389 -109 1389 -128 1478 -128 
C 1555 -128 1587 -109 1651 -7 
L 3962 3644 
z
" id="CMMI12-56" transform="scale(0.015625)"/>
      </defs>
      <use transform="scale(0.996264)" xlink:href="#CMMI12-70"/>
      <use transform="translate(48.959514 -14.943915)scale(0.697382)" xlink:href="#CMMI12-54"/>
      <use transform="translate(98.465836 -14.943915)scale(0.697382)" xlink:href="#CMMI12-4f"/>
      <use transform="translate(152.547864 -14.943915)scale(0.697382)" xlink:href="#CMMI12-56"/>
     </g>
    </g>
    <g id="line2d_14">
     <path d="M 159.542372 37.237178 
L 179.542372 37.237178 
" style="fill:none;stroke:#000000;stroke-dasharray:1.5,2.475;stroke-dashoffset:0;stroke-width:1.5;"/>
    </g>
    <g id="line2d_15"/>
    <g id="text_13">
     <!-- $p_{LE}$ -->
     <g transform="translate(187.542372 40.737178)scale(0.1 -0.1)">
      <defs>
       <path d="M 2349 3860 
C 2406 4102 2426 4166 2989 4166 
C 3162 4166 3206 4166 3206 4287 
C 3206 4352 3136 4352 3110 4352 
C 2982 4352 2835 4339 2707 4339 
L 1850 4339 
C 1728 4339 1587 4352 1466 4352 
C 1414 4352 1344 4352 1344 4230 
C 1344 4166 1402 4166 1498 4166 
C 1888 4166 1888 4115 1888 4045 
C 1888 4032 1888 3994 1862 3898 
L 998 472 
C 941 249 928 185 480 185 
C 358 185 294 185 294 70 
C 294 0 333 0 461 0 
L 3328 0 
C 3469 0 3475 6 3520 121 
L 4013 1478 
C 4026 1510 4038 1548 4038 1567 
C 4038 1605 4006 1631 3974 1631 
C 3968 1631 3936 1631 3923 1605 
C 3910 1599 3910 1586 3859 1465 
C 3654 905 3366 185 2285 185 
L 1670 185 
C 1581 185 1568 185 1530 191 
C 1459 198 1453 211 1453 262 
C 1453 306 1466 344 1478 402 
L 2349 3860 
z
" id="CMMI12-4c" transform="scale(0.015625)"/>
       <path d="M 4448 1489 
C 4454 1508 4474 1553 4474 1578 
C 4474 1611 4448 1643 4410 1643 
C 4384 1643 4371 1636 4352 1617 
C 4339 1611 4339 1598 4282 1469 
C 3904 570 3629 185 2605 185 
L 1670 185 
C 1581 185 1568 185 1530 192 
C 1459 198 1453 211 1453 262 
C 1453 307 1466 346 1478 403 
L 1920 2176 
L 2554 2176 
C 3053 2176 3091 2066 3091 1874 
C 3091 1810 3091 1752 3046 1559 
C 3034 1534 3027 1508 3027 1489 
C 3027 1444 3059 1424 3098 1424 
C 3155 1424 3162 1469 3187 1559 
L 3552 3036 
C 3552 3068 3526 3099 3488 3099 
C 3430 3099 3424 3074 3398 2986 
C 3270 2500 3142 2361 2573 2361 
L 1965 2361 
L 2362 3913 
C 2419 4134 2432 4153 2694 4153 
L 3610 4153 
C 4397 4153 4557 3945 4557 3465 
C 4557 3459 4557 3282 4531 3074 
C 4525 3049 4518 3011 4518 2998 
C 4518 2948 4550 2929 4589 2929 
C 4634 2929 4659 2954 4672 3068 
L 4806 4172 
C 4806 4191 4819 4255 4819 4268 
C 4819 4339 4762 4339 4646 4339 
L 1523 4339 
C 1402 4339 1338 4339 1338 4223 
C 1338 4153 1382 4153 1491 4153 
C 1888 4153 1888 4109 1888 4039 
C 1888 4008 1882 3983 1862 3913 
L 998 474 
C 941 249 928 185 480 185 
C 358 185 294 185 294 70 
C 294 0 333 0 461 0 
L 3674 0 
C 3814 0 3821 6 3866 108 
L 4448 1489 
z
" id="CMMI12-45" transform="scale(0.015625)"/>
      </defs>
      <use transform="scale(0.996264)" xlink:href="#CMMI12-70"/>
      <use transform="translate(48.959514 -14.943915)scale(0.697382)" xlink:href="#CMMI12-4c"/>
      <use transform="translate(95.418928 -14.943915)scale(0.697382)" xlink:href="#CMMI12-45"/>
     </g>
    </g>
   </g>
  </g>
  <g id="axes_2">
   <g id="patch_8">
    <path d="M 267.889474 136.798913 
L 442.743307 136.798913 
L 442.743307 10.8 
L 267.889474 10.8 
z
" style="fill:#ffffff;"/>
   </g>
   <g id="matplotlib.axis_3">
    <g id="xtick_4">
     <g id="line2d_16">
      <g>
       <use style="stroke:#000000;stroke-width:0.8;" x="275.837375" xlink:href="#m0c59e25d8e" y="136.798913"/>
      </g>
     </g>
     <g id="text_14">
      <!-- $\mathdefault{0}$ -->
      <g transform="translate(273.346707 150.717412)scale(0.1 -0.1)">
       <use transform="scale(0.996264)" xlink:href="#CMR17-30"/>
      </g>
     </g>
    </g>
    <g id="xtick_5">
     <g id="line2d_17">
      <g>
       <use style="stroke:#000000;stroke-width:0.8;" x="339.167268" xlink:href="#m0c59e25d8e" y="136.798913"/>
      </g>
     </g>
     <g id="text_15">
      <!-- $\mathdefault{1}$ -->
      <g transform="translate(336.6766 150.717412)scale(0.1 -0.1)">
       <use transform="scale(0.996264)" xlink:href="#CMR17-31"/>
      </g>
     </g>
    </g>
    <g id="xtick_6">
     <g id="line2d_18">
      <g>
       <use style="stroke:#000000;stroke-width:0.8;" x="402.49716" xlink:href="#m0c59e25d8e" y="136.798913"/>
      </g>
     </g>
     <g id="text_16">
      <!-- $\mathdefault{2}$ -->
      <g transform="translate(400.006493 150.717412)scale(0.1 -0.1)">
       <use transform="scale(0.996264)" xlink:href="#CMR17-32"/>
      </g>
     </g>
    </g>
    <g id="text_17">
     <!-- Radius $r$ -->
     <g transform="translate(336.367741 163.573088)scale(0.1 -0.1)">
      <use transform="scale(0.996264)" xlink:href="#CMR17-52"/>
      <use transform="translate(67.791102 0)scale(0.996264)" xlink:href="#CMR17-61"/>
      <use transform="translate(113.481579 0)scale(0.996264)" xlink:href="#CMR17-64"/>
      <use transform="translate(164.376949 0)scale(0.996264)" xlink:href="#CMR17-69"/>
      <use transform="translate(189.248007 0)scale(0.996264)" xlink:href="#CMR17-75"/>
      <use transform="translate(240.143377 0)scale(0.996264)" xlink:href="#CMR17-73"/>
      <use transform="translate(306.020681 0)scale(0.996264)" xlink:href="#CMMI12-72"/>
     </g>
    </g>
   </g>
   <g id="matplotlib.axis_4">
    <g id="ytick_7">
     <g id="line2d_19">
      <g>
       <use style="stroke:#000000;stroke-width:0.8;" x="267.889474" xlink:href="#m7e3adf7bbc" y="131.07169"/>
      </g>
     </g>
     <g id="text_18">
      <!-- $\mathdefault{0.00}$ -->
      <g transform="translate(243.178059 134.530939)scale(0.1 -0.1)">
       <use transform="scale(0.996264)" xlink:href="#CMR17-30"/>
       <use transform="translate(45.690477 0)scale(0.996264)" xlink:href="#CMMI12-3a"/>
       <use transform="translate(72.787654 0)scale(0.996264)" xlink:href="#CMR17-30"/>
       <use transform="translate(118.478131 0)scale(0.996264)" xlink:href="#CMR17-30"/>
      </g>
     </g>
    </g>
    <g id="ytick_8">
     <g id="line2d_20">
      <g>
       <use style="stroke:#000000;stroke-width:0.8;" x="267.889474" xlink:href="#m7e3adf7bbc" y="106.995236"/>
      </g>
     </g>
     <g id="text_19">
      <!-- $\mathdefault{0.25}$ -->
      <g transform="translate(243.178059 110.454485)scale(0.1 -0.1)">
       <use transform="scale(0.996264)" xlink:href="#CMR17-30"/>
       <use transform="translate(45.690477 0)scale(0.996264)" xlink:href="#CMMI12-3a"/>
       <use transform="translate(72.787654 0)scale(0.996264)" xlink:href="#CMR17-32"/>
       <use transform="translate(118.478131 0)scale(0.996264)" xlink:href="#CMR17-35"/>
      </g>
     </g>
    </g>
    <g id="ytick_9">
     <g id="line2d_21">
      <g>
       <use style="stroke:#000000;stroke-width:0.8;" x="267.889474" xlink:href="#m7e3adf7bbc" y="82.918783"/>
      </g>
     </g>
     <g id="text_20">
      <!-- $\mathdefault{0.50}$ -->
      <g transform="translate(243.178059 86.378032)scale(0.1 -0.1)">
       <use transform="scale(0.996264)" xlink:href="#CMR17-30"/>
       <use transform="translate(45.690477 0)scale(0.996264)" xlink:href="#CMMI12-3a"/>
       <use transform="translate(72.787654 0)scale(0.996264)" xlink:href="#CMR17-35"/>
       <use transform="translate(118.478131 0)scale(0.996264)" xlink:href="#CMR17-30"/>
      </g>
     </g>
    </g>
    <g id="ytick_10">
     <g id="line2d_22">
      <g>
       <use style="stroke:#000000;stroke-width:0.8;" x="267.889474" xlink:href="#m7e3adf7bbc" y="58.842329"/>
      </g>
     </g>
     <g id="text_21">
      <!-- $\mathdefault{0.75}$ -->
      <g transform="translate(243.178059 62.301578)scale(0.1 -0.1)">
       <defs>
        <path d="M 2886 3955 
L 2886 4096 
L 1382 4096 
C 634 4096 621 4166 595 4288 
L 480 4288 
L 294 3104 
L 410 3104 
C 429 3226 474 3552 550 3673 
C 589 3724 1062 3724 1171 3724 
L 2579 3724 
L 1869 2670 
C 1395 1961 1069 1003 1069 166 
C 1069 89 1069 -128 1299 -128 
C 1530 -128 1530 89 1530 172 
L 1530 466 
C 1530 1514 1709 2204 2003 2644 
L 2886 3955 
z
" id="CMR17-37" transform="scale(0.015625)"/>
       </defs>
       <use transform="scale(0.996264)" xlink:href="#CMR17-30"/>
       <use transform="translate(45.690477 0)scale(0.996264)" xlink:href="#CMMI12-3a"/>
       <use transform="translate(72.787654 0)scale(0.996264)" xlink:href="#CMR17-37"/>
       <use transform="translate(118.478131 0)scale(0.996264)" xlink:href="#CMR17-35"/>
      </g>
     </g>
    </g>
    <g id="ytick_11">
     <g id="line2d_23">
      <g>
       <use style="stroke:#000000;stroke-width:0.8;" x="267.889474" xlink:href="#m7e3adf7bbc" y="34.765875"/>
      </g>
     </g>
     <g id="text_22">
      <!-- $\mathdefault{1.00}$ -->
      <g transform="translate(243.178059 38.225125)scale(0.1 -0.1)">
       <use transform="scale(0.996264)" xlink:href="#CMR17-31"/>
       <use transform="translate(45.690477 0)scale(0.996264)" xlink:href="#CMMI12-3a"/>
       <use transform="translate(72.787654 0)scale(0.996264)" xlink:href="#CMR17-30"/>
       <use transform="translate(118.478131 0)scale(0.996264)" xlink:href="#CMR17-30"/>
      </g>
     </g>
    </g>
    <g id="text_23">
     <!-- Density $\rho$ -->
     <g transform="translate(237.240881 94.598231)rotate(-90)scale(0.1 -0.1)">
      <defs>
       <path d="M 333 4352 
L 333 4185 
C 774 4185 845 4185 845 3898 
L 845 453 
C 845 166 774 166 333 166 
L 333 0 
L 2368 0 
C 3398 0 4224 943 4224 2140 
C 4224 3344 3411 4352 2368 4352 
L 333 4352 
z
M 1523 166 
C 1267 166 1254 198 1254 414 
L 1254 3936 
C 1254 4153 1267 4185 1523 4185 
L 2240 4185 
C 2771 4185 3750 3873 3750 2140 
C 3750 1242 3488 879 3366 707 
C 3213 510 2848 166 2240 166 
L 1523 166 
z
" id="CMR17-44" transform="scale(0.015625)"/>
       <path d="M 2656 1954 
C 2656 2282 2592 2816 1837 2816 
C 1331 2816 1069 2424 973 2166 
L 966 2166 
L 966 2816 
L 211 2745 
L 211 2578 
C 589 2578 646 2540 646 2231 
L 646 443 
C 646 198 621 166 211 166 
L 211 0 
C 365 12 646 12 813 12 
C 979 12 1267 12 1421 0 
L 1421 166 
C 1011 166 986 192 986 443 
L 986 1678 
C 986 2269 1344 2713 1792 2713 
C 2266 2713 2317 2289 2317 1980 
L 2317 443 
C 2317 198 2291 166 1882 166 
L 1882 0 
C 2035 12 2317 12 2483 12 
C 2650 12 2938 12 3091 0 
L 3091 166 
C 2682 166 2656 192 2656 443 
L 2656 1954 
z
" id="CMR17-6e" transform="scale(0.015625)"/>
       <path d="M 966 2585 
L 1862 2585 
L 1862 2752 
L 966 2752 
L 966 3968 
L 851 3968 
C 838 3292 614 2700 70 2687 
L 70 2585 
L 627 2585 
L 627 778 
C 627 655 627 -64 1370 -64 
C 1747 -64 1965 308 1965 784 
L 1965 1151 
L 1850 1151 
L 1850 790 
C 1850 347 1677 51 1408 51 
C 1222 51 966 179 966 765 
L 966 2585 
z
" id="CMR17-74" transform="scale(0.015625)"/>
       <path d="M 2496 2183 
C 2656 2579 2944 2585 3034 2585 
L 3034 2752 
C 2912 2745 2752 2739 2630 2739 
C 2496 2739 2285 2739 2157 2752 
L 2157 2585 
C 2400 2566 2406 2384 2406 2332 
C 2406 2268 2394 2235 2362 2158 
L 1664 409 
L 902 2300 
C 870 2378 870 2423 870 2430 
C 870 2572 1018 2585 1171 2585 
L 1171 2752 
C 1018 2739 742 2739 582 2739 
C 410 2739 205 2739 64 2752 
L 64 2585 
C 410 2585 448 2553 531 2345 
L 1485 -31 
C 1197 -795 1030 -1242 627 -1242 
C 557 -1242 397 -1223 282 -1106 
C 429 -1093 493 -1002 493 -892 
C 493 -782 416 -685 288 -685 
C 147 -685 77 -782 77 -899 
C 77 -1158 339 -1344 627 -1344 
C 998 -1344 1229 -983 1357 -659 
L 2496 2183 
z
" id="CMR17-79" transform="scale(0.015625)"/>
       <path d="M 198 -1085 
C 192 -1116 179 -1154 179 -1191 
C 179 -1287 256 -1351 352 -1351 
C 448 -1351 538 -1287 576 -1198 
C 602 -1141 781 -390 986 389 
C 1114 70 1350 -64 1600 -64 
C 2323 -64 3142 830 3142 1794 
C 3142 2477 2726 2816 2285 2816 
C 1722 2816 1037 2234 826 1385 
L 198 -1085 
z
M 1594 64 
C 1158 64 1050 568 1050 645 
C 1050 683 1210 1289 1229 1385 
C 1555 2656 2182 2687 2278 2687 
C 2566 2687 2726 2426 2726 2049 
C 2726 1724 2554 1091 2445 823 
C 2253 383 1920 64 1594 64 
z
" id="CMMI12-1a" transform="scale(0.015625)"/>
      </defs>
      <use transform="scale(0.996264)" xlink:href="#CMR17-44"/>
      <use transform="translate(70.393556 0)scale(0.996264)" xlink:href="#CMR17-65"/>
      <use transform="translate(110.879216 0)scale(0.996264)" xlink:href="#CMR17-6e"/>
      <use transform="translate(161.774586 0)scale(0.996264)" xlink:href="#CMR17-73"/>
      <use transform="translate(197.575924 0)scale(0.996264)" xlink:href="#CMR17-69"/>
      <use transform="translate(222.446982 0)scale(0.996264)" xlink:href="#CMR17-74"/>
      <use transform="translate(255.125296 0)scale(0.996264)" xlink:href="#CMR17-79"/>
      <use transform="translate(333.494178 0)scale(0.996264)" xlink:href="#CMMI12-1a"/>
     </g>
    </g>
   </g>
   <g id="line2d_24">
    <path clip-path="url(#p23368cf987)" d="M 275.837375 16.54413 
L 276.470674 16.725483 
L 277.103973 17.214917 
L 277.737272 18.02402 
L 278.370571 19.146091 
L 279.00387 20.571046 
L 280.270468 24.275825 
L 281.537065 29.007358 
L 282.803663 34.60294 
L 284.70356 44.207691 
L 288.503354 65.342121 
L 291.036549 78.929852 
L 292.936446 88.108211 
L 294.836343 96.150081 
L 296.73624 102.972874 
L 298.002837 106.857056 
L 299.269435 110.243309 
L 300.536033 113.17221 
L 301.802631 115.689722 
L 303.069229 117.843464 
L 304.335827 119.679954 
L 305.602425 121.242763 
L 307.502321 123.159151 
L 309.402218 124.66233 
L 311.302115 125.844694 
L 313.202012 126.778888 
L 315.735207 127.733701 
L 318.268403 128.4443 
L 321.434898 129.091939 
L 325.234691 129.630945 
L 330.301083 130.097243 
L 336.634072 130.446785 
L 346.133556 130.72612 
L 361.33273 130.91839 
L 391.09778 131.029579 
L 434.795406 131.062493 
L 434.795406 131.062493 
" style="fill:none;stroke:#000000;stroke-linecap:square;stroke-width:1.5;"/>
   </g>
   <g id="line2d_25">
    <path clip-path="url(#p23368cf987)" d="M 276.470674 16.709618 
L 277.103973 16.968395 
L 277.737272 17.447979 
L 278.370571 18.122273 
L 279.637169 20.025967 
L 280.903766 22.62403 
L 282.170364 25.85029 
L 283.436962 29.625703 
L 285.336859 36.121994 
L 287.870055 45.832982 
L 294.203044 70.893566 
L 296.73624 79.819417 
L 298.636136 85.826967 
L 300.536033 91.208323 
L 302.43593 95.972169 
L 304.335827 100.153162 
L 306.235724 103.801061 
L 308.13562 106.972302 
L 310.035517 109.724152 
L 311.935414 112.111084 
L 313.835311 114.182833 
L 315.735207 115.983597 
L 318.268403 118.028975 
L 320.801599 119.737527 
L 323.334795 121.171648 
L 325.86799 122.381583 
L 329.034485 123.639441 
L 332.20098 124.67133 
L 336.000773 125.676985 
L 340.433866 126.604957 
L 345.500257 127.425667 
L 351.199947 128.127939 
L 358.166235 128.763577 
L 367.03242 129.335299 
L 378.431801 129.825282 
L 392.997676 130.21758 
L 413.896541 130.539323 
L 434.795406 130.718428 
L 434.795406 130.718428 
" style="fill:none;stroke:#000000;stroke-dasharray:5.55,2.4;stroke-dashoffset:0;stroke-width:1.5;"/>
   </g>
   <g id="line2d_26">
    <path clip-path="url(#p23368cf987)" d="M 275.837375 16.54413 
L 276.470674 16.54413 
L 277.737272 16.98211 
L 279.00387 17.796225 
L 280.270468 18.995744 
L 281.537065 20.567755 
L 282.803663 22.492674 
L 284.070261 24.746375 
L 285.970158 28.681935 
L 287.870055 33.189474 
L 290.40325 39.892801 
L 293.569745 48.999724 
L 302.43593 74.93959 
L 305.602425 83.298918 
L 308.13562 89.414291 
L 310.668816 94.974782 
L 313.202012 99.968291 
L 315.735207 104.404709 
L 318.268403 108.309766 
L 320.801599 111.71966 
L 323.334795 114.676662 
L 325.86799 117.225683 
L 328.401186 119.411751 
L 330.934382 121.278259 
L 333.467577 122.86583 
L 336.000773 124.211675 
L 339.167268 125.604741 
L 342.333762 126.72945 
L 345.500257 127.634399 
L 349.300051 128.487088 
L 353.733143 129.231399 
L 358.799534 129.836629 
L 364.499225 130.295985 
L 372.098812 130.668978 
L 382.231595 130.918477 
L 398.064068 131.049155 
L 422.129427 131.07169 
L 422.129427 131.07169 
" style="fill:none;stroke:#000000;stroke-dasharray:1.5,2.475;stroke-dashoffset:0;stroke-width:1.5;"/>
   </g>
   <g id="line2d_27">
    <path clip-path="url(#p23368cf987)" d="M 276.470674 16.527223 
L 277.737272 16.791605 
L 279.00387 17.286991 
L 280.270468 18.013723 
L 281.537065 18.968377 
L 282.803663 20.143147 
L 284.70356 22.294922 
L 286.603457 24.875922 
L 288.503354 27.836879 
L 291.036549 32.282279 
L 293.569745 37.173113 
L 297.369539 45.0533 
L 308.13562 67.822759 
L 311.935414 75.174413 
L 315.101908 80.842569 
L 318.268403 86.056635 
L 321.434898 90.806661 
L 324.601392 95.100279 
L 327.767887 98.957312 
L 330.934382 102.405345 
L 334.100876 105.476289 
L 337.267371 108.203827 
L 340.433866 110.621615 
L 343.60036 112.762079 
L 346.766855 114.655668 
L 350.566648 116.641431 
L 354.366442 118.355592 
L 358.166235 119.836489 
L 362.599328 121.313582 
L 367.03242 122.563461 
L 372.098812 123.761735 
L 377.798502 124.870874 
L 384.131491 125.867323 
L 391.09778 126.74023 
L 399.330666 127.543571 
L 408.83015 128.245095 
L 420.22953 128.862914 
L 422.129427 128.947857 
L 422.129427 128.947857 
" style="fill:none;stroke:#000000;stroke-dasharray:1.5,7.5;stroke-dashoffset:0;stroke-width:1.5;"/>
   </g>
   <g id="patch_9">
    <path d="M 267.889474 136.798913 
L 267.889474 10.8 
" style="fill:none;stroke:#000000;stroke-linecap:square;stroke-linejoin:miter;stroke-width:0.8;"/>
   </g>
   <g id="patch_10">
    <path d="M 442.743307 136.798913 
L 442.743307 10.8 
" style="fill:none;stroke:#000000;stroke-linecap:square;stroke-linejoin:miter;stroke-width:0.8;"/>
   </g>
   <g id="patch_11">
    <path d="M 267.889474 136.798913 
L 442.743307 136.798913 
" style="fill:none;stroke:#000000;stroke-linecap:square;stroke-linejoin:miter;stroke-width:0.8;"/>
   </g>
   <g id="patch_12">
    <path d="M 267.889474 10.8 
L 442.743307 10.8 
" style="fill:none;stroke:#000000;stroke-linecap:square;stroke-linejoin:miter;stroke-width:0.8;"/>
   </g>
   <g id="legend_2">
    <g id="patch_13">
     <path d="M 381.835654 74.548713 
L 435.743307 74.548713 
Q 437.743307 74.548713 437.743307 72.548713 
L 437.743307 17.8 
Q 437.743307 15.8 435.743307 15.8 
L 381.835654 15.8 
Q 379.835654 15.8 379.835654 17.8 
L 379.835654 72.548713 
Q 379.835654 74.548713 381.835654 74.548713 
z
" style="fill:#ffffff;opacity:0.8;stroke:#cccccc;stroke-linejoin:miter;"/>
    </g>
    <g id="line2d_28">
     <path d="M 383.835654 23.3 
L 403.835654 23.3 
" style="fill:none;stroke:#000000;stroke-linecap:square;stroke-width:1.5;"/>
    </g>
    <g id="line2d_29"/>
    <g id="text_24">
     <!-- $\rho_{TOV}$ -->
     <g transform="translate(411.835654 26.8)scale(0.1 -0.1)">
      <use transform="scale(0.996264)" xlink:href="#CMMI12-1a"/>
      <use transform="translate(50.314373 -14.943915)scale(0.697382)" xlink:href="#CMMI12-54"/>
      <use transform="translate(99.820695 -14.943915)scale(0.697382)" xlink:href="#CMMI12-4f"/>
      <use transform="translate(153.902723 -14.943915)scale(0.697382)" xlink:href="#CMMI12-56"/>
     </g>
    </g>
    <g id="line2d_30">
     <path d="M 383.835654 37.237178 
L 403.835654 37.237178 
" style="fill:none;stroke:#000000;stroke-dasharray:5.55,2.4;stroke-dashoffset:0;stroke-width:1.5;"/>
    </g>
    <g id="line2d_31"/>
    <g id="text_25">
     <!-- $\bar{\rho}_{TOV}$ -->
     <g transform="translate(411.835654 40.737178)scale(0.1 -0.1)">
      <defs>
       <path d="M 2554 3520 
L 2554 3667 
L 378 3667 
L 378 3520 
L 2554 3520 
z
" id="CMR17-16" transform="scale(0.015625)"/>
      </defs>
      <use transform="translate(10.441101 0.006461)scale(0.996264)" xlink:href="#CMR17-16"/>
      <use transform="scale(0.996264)" xlink:href="#CMMI12-1a"/>
      <use transform="translate(50.314373 -14.943915)scale(0.697382)" xlink:href="#CMMI12-54"/>
      <use transform="translate(99.820695 -14.943915)scale(0.697382)" xlink:href="#CMMI12-4f"/>
      <use transform="translate(153.902723 -14.943915)scale(0.697382)" xlink:href="#CMMI12-56"/>
     </g>
    </g>
    <g id="line2d_32">
     <path d="M 383.835654 51.174357 
L 403.835654 51.174357 
" style="fill:none;stroke:#000000;stroke-dasharray:1.5,2.475;stroke-dashoffset:0;stroke-width:1.5;"/>
    </g>
    <g id="line2d_33"/>
    <g id="text_26">
     <!-- $\rho_{LE}$ -->
     <g transform="translate(411.835654 54.674357)scale(0.1 -0.1)">
      <use transform="scale(0.996264)" xlink:href="#CMMI12-1a"/>
      <use transform="translate(50.314373 -14.943915)scale(0.697382)" xlink:href="#CMMI12-4c"/>
      <use transform="translate(96.773787 -14.943915)scale(0.697382)" xlink:href="#CMMI12-45"/>
     </g>
    </g>
    <g id="line2d_34">
     <path d="M 383.835654 65.111535 
L 403.835654 65.111535 
" style="fill:none;stroke:#000000;stroke-dasharray:1.5,7.5;stroke-dashoffset:0;stroke-width:1.5;"/>
    </g>
    <g id="line2d_35"/>
    <g id="text_27">
     <!-- $\bar{\rho}_{LE}$ -->
     <g transform="translate(411.835654 68.611535)scale(0.1 -0.1)">
      <use transform="translate(10.441101 0.006461)scale(0.996264)" xlink:href="#CMR17-16"/>
      <use transform="scale(0.996264)" xlink:href="#CMMI12-1a"/>
      <use transform="translate(50.314373 -14.943915)scale(0.697382)" xlink:href="#CMMI12-4c"/>
      <use transform="translate(96.773787 -14.943915)scale(0.697382)" xlink:href="#CMMI12-45"/>
     </g>
    </g>
   </g>
  </g>
  <g id="axes_3">
   <g id="patch_14">
    <path d="M 43.45781 300.5975 
L 218.311644 300.5975 
L 218.311644 174.598587 
L 43.45781 174.598587 
z
" style="fill:#ffffff;"/>
   </g>
   <g id="matplotlib.axis_5">
    <g id="xtick_7">
     <g id="line2d_36">
      <g>
       <use style="stroke:#000000;stroke-width:0.8;" x="51.405712" xlink:href="#m0c59e25d8e" y="300.5975"/>
      </g>
     </g>
     <g id="text_28">
      <!-- $\mathdefault{0}$ -->
      <g transform="translate(48.915044 314.515999)scale(0.1 -0.1)">
       <use transform="scale(0.996264)" xlink:href="#CMR17-30"/>
      </g>
     </g>
    </g>
    <g id="xtick_8">
     <g id="line2d_37">
      <g>
       <use style="stroke:#000000;stroke-width:0.8;" x="114.735604" xlink:href="#m0c59e25d8e" y="300.5975"/>
      </g>
     </g>
     <g id="text_29">
      <!-- $\mathdefault{1}$ -->
      <g transform="translate(112.244937 314.515999)scale(0.1 -0.1)">
       <use transform="scale(0.996264)" xlink:href="#CMR17-31"/>
      </g>
     </g>
    </g>
    <g id="xtick_9">
     <g id="line2d_38">
      <g>
       <use style="stroke:#000000;stroke-width:0.8;" x="178.065497" xlink:href="#m0c59e25d8e" y="300.5975"/>
      </g>
     </g>
     <g id="text_30">
      <!-- $\mathdefault{2}$ -->
      <g transform="translate(175.574829 314.515999)scale(0.1 -0.1)">
       <use transform="scale(0.996264)" xlink:href="#CMR17-32"/>
      </g>
     </g>
    </g>
    <g id="text_31">
     <!-- Radius $r$ -->
     <g transform="translate(111.936077 327.371675)scale(0.1 -0.1)">
      <use transform="scale(0.996264)" xlink:href="#CMR17-52"/>
      <use transform="translate(67.791102 0)scale(0.996264)" xlink:href="#CMR17-61"/>
      <use transform="translate(113.481579 0)scale(0.996264)" xlink:href="#CMR17-64"/>
      <use transform="translate(164.376949 0)scale(0.996264)" xlink:href="#CMR17-69"/>
      <use transform="translate(189.248007 0)scale(0.996264)" xlink:href="#CMR17-75"/>
      <use transform="translate(240.143377 0)scale(0.996264)" xlink:href="#CMR17-73"/>
      <use transform="translate(306.020681 0)scale(0.996264)" xlink:href="#CMMI12-72"/>
     </g>
    </g>
   </g>
   <g id="matplotlib.axis_6">
    <g id="ytick_12">
     <g id="line2d_39">
      <g>
       <use style="stroke:#000000;stroke-width:0.8;" x="43.45781" xlink:href="#m7e3adf7bbc" y="294.870277"/>
      </g>
     </g>
     <g id="text_32">
      <!-- $\mathdefault{0.00}$ -->
      <g transform="translate(18.746396 298.329526)scale(0.1 -0.1)">
       <use transform="scale(0.996264)" xlink:href="#CMR17-30"/>
       <use transform="translate(45.690477 0)scale(0.996264)" xlink:href="#CMMI12-3a"/>
       <use transform="translate(72.787654 0)scale(0.996264)" xlink:href="#CMR17-30"/>
       <use transform="translate(118.478131 0)scale(0.996264)" xlink:href="#CMR17-30"/>
      </g>
     </g>
    </g>
    <g id="ytick_13">
     <g id="line2d_40">
      <g>
       <use style="stroke:#000000;stroke-width:0.8;" x="43.45781" xlink:href="#m7e3adf7bbc" y="269.721215"/>
      </g>
     </g>
     <g id="text_33">
      <!-- $\mathdefault{0.25}$ -->
      <g transform="translate(18.746396 273.180464)scale(0.1 -0.1)">
       <use transform="scale(0.996264)" xlink:href="#CMR17-30"/>
       <use transform="translate(45.690477 0)scale(0.996264)" xlink:href="#CMMI12-3a"/>
       <use transform="translate(72.787654 0)scale(0.996264)" xlink:href="#CMR17-32"/>
       <use transform="translate(118.478131 0)scale(0.996264)" xlink:href="#CMR17-35"/>
      </g>
     </g>
    </g>
    <g id="ytick_14">
     <g id="line2d_41">
      <g>
       <use style="stroke:#000000;stroke-width:0.8;" x="43.45781" xlink:href="#m7e3adf7bbc" y="244.572152"/>
      </g>
     </g>
     <g id="text_34">
      <!-- $\mathdefault{0.50}$ -->
      <g transform="translate(18.746396 248.031401)scale(0.1 -0.1)">
       <use transform="scale(0.996264)" xlink:href="#CMR17-30"/>
       <use transform="translate(45.690477 0)scale(0.996264)" xlink:href="#CMMI12-3a"/>
       <use transform="translate(72.787654 0)scale(0.996264)" xlink:href="#CMR17-35"/>
       <use transform="translate(118.478131 0)scale(0.996264)" xlink:href="#CMR17-30"/>
      </g>
     </g>
    </g>
    <g id="ytick_15">
     <g id="line2d_42">
      <g>
       <use style="stroke:#000000;stroke-width:0.8;" x="43.45781" xlink:href="#m7e3adf7bbc" y="219.42309"/>
      </g>
     </g>
     <g id="text_35">
      <!-- $\mathdefault{0.75}$ -->
      <g transform="translate(18.746396 222.882339)scale(0.1 -0.1)">
       <use transform="scale(0.996264)" xlink:href="#CMR17-30"/>
       <use transform="translate(45.690477 0)scale(0.996264)" xlink:href="#CMMI12-3a"/>
       <use transform="translate(72.787654 0)scale(0.996264)" xlink:href="#CMR17-37"/>
       <use transform="translate(118.478131 0)scale(0.996264)" xlink:href="#CMR17-35"/>
      </g>
     </g>
    </g>
    <g id="ytick_16">
     <g id="line2d_43">
      <g>
       <use style="stroke:#000000;stroke-width:0.8;" x="43.45781" xlink:href="#m7e3adf7bbc" y="194.274027"/>
      </g>
     </g>
     <g id="text_36">
      <!-- $\mathdefault{1.00}$ -->
      <g transform="translate(18.746396 197.733276)scale(0.1 -0.1)">
       <use transform="scale(0.996264)" xlink:href="#CMR17-31"/>
       <use transform="translate(45.690477 0)scale(0.996264)" xlink:href="#CMMI12-3a"/>
       <use transform="translate(72.787654 0)scale(0.996264)" xlink:href="#CMR17-30"/>
       <use transform="translate(118.478131 0)scale(0.996264)" xlink:href="#CMR17-30"/>
      </g>
     </g>
    </g>
    <g id="text_37">
     <!-- Mass $m$ -->
     <g transform="translate(12.809217 254.618742)rotate(-90)scale(0.1 -0.1)">
      <defs>
       <path d="M 1338 4249 
C 1299 4345 1293 4352 1158 4352 
L 339 4352 
L 339 4185 
C 781 4185 851 4185 851 3898 
L 851 624 
C 851 465 851 166 339 166 
L 339 0 
C 486 12 755 12 915 12 
C 1075 12 1344 12 1491 0 
L 1491 166 
C 979 166 979 465 979 624 
L 979 4159 
L 986 4159 
L 2490 102 
C 2515 38 2528 0 2579 0 
C 2630 0 2643 38 2669 102 
L 4186 4191 
L 4192 4191 
L 4192 453 
C 4192 166 4122 166 3680 166 
L 3680 0 
C 3853 12 4198 12 4384 12 
C 4570 12 4922 12 5094 0 
L 5094 166 
C 4653 166 4582 166 4582 453 
L 4582 3898 
C 4582 4185 4653 4185 5094 4185 
L 5094 4352 
L 4282 4352 
C 4147 4352 4141 4345 4102 4249 
L 2720 516 
L 1338 4249 
z
" id="CMR17-4d" transform="scale(0.015625)"/>
       <path d="M 1318 1870 
C 1331 1909 1491 2228 1728 2432 
C 1894 2585 2112 2687 2362 2687 
C 2618 2687 2707 2496 2707 2241 
C 2707 2202 2707 2075 2630 1775 
L 2470 1117 
C 2419 925 2298 453 2285 383 
C 2259 287 2221 121 2221 95 
C 2221 6 2291 -64 2387 -64 
C 2579 -64 2611 83 2669 313 
L 3053 1838 
C 3066 1890 3398 2687 4102 2687 
C 4358 2687 4448 2496 4448 2241 
C 4448 1883 4198 1187 4058 804 
C 4000 651 3968 568 3968 453 
C 3968 166 4166 -64 4474 -64 
C 5069 -64 5293 874 5293 913 
C 5293 945 5267 970 5229 970 
C 5171 970 5165 951 5133 842 
C 4986 332 4749 64 4493 64 
C 4429 64 4326 70 4326 274 
C 4326 440 4403 645 4429 715 
C 4544 1021 4832 1775 4832 2145 
C 4832 2528 4608 2816 4122 2816 
C 3693 2816 3347 2573 3091 2196 
C 3072 2541 2861 2816 2381 2816 
C 1811 2816 1510 2413 1395 2253 
C 1376 2617 1114 2816 832 2816 
C 646 2816 499 2726 378 2483 
C 262 2253 173 1864 173 1838 
C 173 1813 198 1781 243 1781 
C 294 1781 301 1787 339 1934 
C 435 2311 557 2687 813 2687 
C 960 2687 1011 2585 1011 2394 
C 1011 2253 947 2004 902 1807 
L 723 1117 
C 698 996 627 708 595 593 
C 550 427 480 127 480 95 
C 480 6 550 -64 646 -64 
C 723 -64 813 -26 864 70 
C 877 102 934 325 966 453 
L 1107 1028 
L 1318 1870 
z
" id="CMMI12-6d" transform="scale(0.015625)"/>
      </defs>
      <use transform="scale(0.996264)" xlink:href="#CMR17-4d"/>
      <use transform="translate(84.686941 0)scale(0.996264)" xlink:href="#CMR17-61"/>
      <use transform="translate(130.377418 0)scale(0.996264)" xlink:href="#CMR17-73"/>
      <use transform="translate(166.178755 0)scale(0.996264)" xlink:href="#CMR17-73"/>
      <use transform="translate(232.056059 0)scale(0.996264)" xlink:href="#CMMI12-6d"/>
     </g>
    </g>
   </g>
   <g id="line2d_44">
    <path clip-path="url(#pcb1425a2d9)" d="M 51.405712 294.870277 
L 55.205505 294.765329 
L 57.105402 294.529275 
L 59.005299 294.103275 
L 60.905195 293.468157 
L 62.805092 292.631325 
L 65.338288 291.255551 
L 69.138081 288.862097 
L 74.837772 285.25584 
L 78.004266 283.49225 
L 81.170761 281.955102 
L 84.337256 280.635229 
L 88.137049 279.301214 
L 91.936843 278.191698 
L 96.369935 277.120929 
L 101.436327 276.1236 
L 107.769316 275.128225 
L 114.735604 274.266454 
L 122.96849 273.470965 
L 133.101273 272.723121 
L 145.133953 272.061344 
L 160.333127 271.458617 
L 179.332095 270.941068 
L 203.397454 270.517913 
L 210.363742 270.428363 
L 210.363742 270.428363 
" style="fill:none;stroke:#000000;stroke-linecap:square;stroke-width:1.5;"/>
   </g>
   <g id="line2d_45">
    <path clip-path="url(#pcb1425a2d9)" d="M 51.405712 294.870277 
L 55.205505 294.763057 
L 57.105402 294.512705 
L 59.005299 294.036622 
L 60.905195 293.276007 
L 62.805092 292.184617 
L 64.704989 290.730182 
L 66.604886 288.894945 
L 68.504783 286.675375 
L 70.404679 284.081148 
L 72.304576 281.133566 
L 74.837772 276.708403 
L 77.370968 271.803878 
L 80.537462 265.163015 
L 85.603854 253.874402 
L 92.570142 238.341144 
L 96.369935 230.385243 
L 99.53643 224.199345 
L 102.702925 218.480351 
L 105.869419 213.259563 
L 109.035914 208.546824 
L 111.56911 205.138351 
L 114.102305 202.041737 
L 116.635501 199.244059 
L 119.168697 196.729761 
L 121.701892 194.48156 
L 124.235088 192.481164 
L 127.401583 190.300639 
L 130.568077 188.441696 
L 133.734572 186.869022 
L 136.901067 185.549054 
L 140.067561 184.450412 
L 143.867355 183.38359 
L 147.667148 182.548652 
L 152.100241 181.81446 
L 157.166632 181.22507 
L 162.866323 180.79933 
L 169.832611 180.512278 
L 179.332095 180.359528 
L 197.697763 180.32581 
L 197.697763 180.32581 
" style="fill:none;stroke:#000000;stroke-dasharray:1.5,2.475;stroke-dashoffset:0;stroke-width:1.5;"/>
   </g>
   <g id="patch_15">
    <path d="M 43.45781 300.5975 
L 43.45781 174.598587 
" style="fill:none;stroke:#000000;stroke-linecap:square;stroke-linejoin:miter;stroke-width:0.8;"/>
   </g>
   <g id="patch_16">
    <path d="M 218.311644 300.5975 
L 218.311644 174.598587 
" style="fill:none;stroke:#000000;stroke-linecap:square;stroke-linejoin:miter;stroke-width:0.8;"/>
   </g>
   <g id="patch_17">
    <path d="M 43.45781 300.5975 
L 218.311644 300.5975 
" style="fill:none;stroke:#000000;stroke-linecap:square;stroke-linejoin:miter;stroke-width:0.8;"/>
   </g>
   <g id="patch_18">
    <path d="M 43.45781 174.598587 
L 218.311644 174.598587 
" style="fill:none;stroke:#000000;stroke-linecap:square;stroke-linejoin:miter;stroke-width:0.8;"/>
   </g>
   <g id="legend_3">
    <g id="patch_19">
     <path d="M 50.45781 210.472944 
L 107.961962 210.472944 
Q 109.961962 210.472944 109.961962 208.472944 
L 109.961962 181.598587 
Q 109.961962 179.598587 107.961962 179.598587 
L 50.45781 179.598587 
Q 48.45781 179.598587 48.45781 181.598587 
L 48.45781 208.472944 
Q 48.45781 210.472944 50.45781 210.472944 
z
" style="fill:#ffffff;opacity:0.8;stroke:#cccccc;stroke-linejoin:miter;"/>
    </g>
    <g id="line2d_46">
     <path d="M 52.45781 187.098587 
L 72.45781 187.098587 
" style="fill:none;stroke:#000000;stroke-linecap:square;stroke-width:1.5;"/>
    </g>
    <g id="line2d_47"/>
    <g id="text_38">
     <!-- $m_{TOV}$ -->
     <g transform="translate(80.45781 190.598587)scale(0.1 -0.1)">
      <use transform="scale(0.996264)" xlink:href="#CMMI12-6d"/>
      <use transform="translate(85.327224 -14.943915)scale(0.697382)" xlink:href="#CMMI12-54"/>
      <use transform="translate(134.833547 -14.943915)scale(0.697382)" xlink:href="#CMMI12-4f"/>
      <use transform="translate(188.915575 -14.943915)scale(0.697382)" xlink:href="#CMMI12-56"/>
     </g>
    </g>
    <g id="line2d_48">
     <path d="M 52.45781 201.035765 
L 72.45781 201.035765 
" style="fill:none;stroke:#000000;stroke-dasharray:1.5,2.475;stroke-dashoffset:0;stroke-width:1.5;"/>
    </g>
    <g id="line2d_49"/>
    <g id="text_39">
     <!-- $m_{LE}$ -->
     <g transform="translate(80.45781 204.535765)scale(0.1 -0.1)">
      <use transform="scale(0.996264)" xlink:href="#CMMI12-6d"/>
      <use transform="translate(85.327224 -14.943915)scale(0.697382)" xlink:href="#CMMI12-4c"/>
      <use transform="translate(131.786638 -14.943915)scale(0.697382)" xlink:href="#CMMI12-45"/>
     </g>
    </g>
   </g>
  </g>
  <g id="axes_4">
   <g id="patch_20">
    <path d="M 267.889474 300.5975 
L 442.743307 300.5975 
L 442.743307 174.598587 
L 267.889474 174.598587 
z
" style="fill:#ffffff;"/>
   </g>
   <g id="matplotlib.axis_7">
    <g id="xtick_10">
     <g id="line2d_50">
      <g>
       <use style="stroke:#000000;stroke-width:0.8;" x="275.201543" xlink:href="#m0c59e25d8e" y="300.5975"/>
      </g>
     </g>
     <g id="text_40">
      <!-- $\mathdefault{0}$ -->
      <g transform="translate(272.710875 314.515999)scale(0.1 -0.1)">
       <use transform="scale(0.996264)" xlink:href="#CMR17-30"/>
      </g>
     </g>
    </g>
    <g id="xtick_11">
     <g id="line2d_51">
      <g>
       <use style="stroke:#000000;stroke-width:0.8;" x="338.784755" xlink:href="#m0c59e25d8e" y="300.5975"/>
      </g>
     </g>
     <g id="text_41">
      <!-- $\mathdefault{1}$ -->
      <g transform="translate(336.294088 314.515999)scale(0.1 -0.1)">
       <use transform="scale(0.996264)" xlink:href="#CMR17-31"/>
      </g>
     </g>
    </g>
    <g id="xtick_12">
     <g id="line2d_52">
      <g>
       <use style="stroke:#000000;stroke-width:0.8;" x="402.367967" xlink:href="#m0c59e25d8e" y="300.5975"/>
      </g>
     </g>
     <g id="text_42">
      <!-- $\mathdefault{2}$ -->
      <g transform="translate(399.8773 314.515999)scale(0.1 -0.1)">
       <use transform="scale(0.996264)" xlink:href="#CMR17-32"/>
      </g>
     </g>
    </g>
    <g id="text_43">
     <!-- Radius $r$ -->
     <g transform="translate(336.367741 327.371675)scale(0.1 -0.1)">
      <use transform="scale(0.996264)" xlink:href="#CMR17-52"/>
      <use transform="translate(67.791102 0)scale(0.996264)" xlink:href="#CMR17-61"/>
      <use transform="translate(113.481579 0)scale(0.996264)" xlink:href="#CMR17-64"/>
      <use transform="translate(164.376949 0)scale(0.996264)" xlink:href="#CMR17-69"/>
      <use transform="translate(189.248007 0)scale(0.996264)" xlink:href="#CMR17-75"/>
      <use transform="translate(240.143377 0)scale(0.996264)" xlink:href="#CMR17-73"/>
      <use transform="translate(306.020681 0)scale(0.996264)" xlink:href="#CMMI12-72"/>
     </g>
    </g>
   </g>
   <g id="matplotlib.axis_8">
    <g id="ytick_17">
     <g id="line2d_53">
      <g>
       <use style="stroke:#000000;stroke-width:0.8;" x="267.889474" xlink:href="#m7e3adf7bbc" y="294.930672"/>
      </g>
     </g>
     <g id="text_44">
      <!-- $\mathdefault{0.0}$ -->
      <g transform="translate(248.159395 298.389922)scale(0.1 -0.1)">
       <use transform="scale(0.996264)" xlink:href="#CMR17-30"/>
       <use transform="translate(45.690477 0)scale(0.996264)" xlink:href="#CMMI12-3a"/>
       <use transform="translate(72.787654 0)scale(0.996264)" xlink:href="#CMR17-30"/>
      </g>
     </g>
    </g>
    <g id="ytick_18">
     <g id="line2d_54">
      <g>
       <use style="stroke:#000000;stroke-width:0.8;" x="267.889474" xlink:href="#m7e3adf7bbc" y="270.646902"/>
      </g>
     </g>
     <g id="text_45">
      <!-- $\mathdefault{0.2}$ -->
      <g transform="translate(248.159395 274.106151)scale(0.1 -0.1)">
       <use transform="scale(0.996264)" xlink:href="#CMR17-30"/>
       <use transform="translate(45.690477 0)scale(0.996264)" xlink:href="#CMMI12-3a"/>
       <use transform="translate(72.787654 0)scale(0.996264)" xlink:href="#CMR17-32"/>
      </g>
     </g>
    </g>
    <g id="ytick_19">
     <g id="line2d_55">
      <g>
       <use style="stroke:#000000;stroke-width:0.8;" x="267.889474" xlink:href="#m7e3adf7bbc" y="246.363131"/>
      </g>
     </g>
     <g id="text_46">
      <!-- $\mathdefault{0.4}$ -->
      <g transform="translate(248.159395 249.822381)scale(0.1 -0.1)">
       <use transform="scale(0.996264)" xlink:href="#CMR17-30"/>
       <use transform="translate(45.690477 0)scale(0.996264)" xlink:href="#CMMI12-3a"/>
       <use transform="translate(72.787654 0)scale(0.996264)" xlink:href="#CMR17-34"/>
      </g>
     </g>
    </g>
    <g id="ytick_20">
     <g id="line2d_56">
      <g>
       <use style="stroke:#000000;stroke-width:0.8;" x="267.889474" xlink:href="#m7e3adf7bbc" y="222.079361"/>
      </g>
     </g>
     <g id="text_47">
      <!-- $\mathdefault{0.6}$ -->
      <g transform="translate(248.159395 225.53861)scale(0.1 -0.1)">
       <defs>
        <path d="M 678 2198 
C 678 3712 1395 4076 1811 4076 
C 1946 4076 2272 4049 2400 3782 
C 2298 3782 2106 3782 2106 3558 
C 2106 3385 2246 3328 2336 3328 
C 2394 3328 2566 3353 2566 3571 
C 2566 3987 2246 4224 1805 4224 
C 1043 4224 243 3411 243 2011 
C 243 257 966 -128 1478 -128 
C 2099 -128 2688 431 2688 1295 
C 2688 2101 2170 2688 1517 2688 
C 1126 2688 838 2430 678 1979 
L 678 2198 
z
M 1478 25 
C 691 25 691 1212 691 1450 
C 691 1914 909 2585 1504 2585 
C 1613 2585 1926 2585 2138 2140 
C 2253 1889 2253 1624 2253 1302 
C 2253 954 2253 696 2118 438 
C 1978 173 1773 25 1478 25 
z
" id="CMR17-36" transform="scale(0.015625)"/>
       </defs>
       <use transform="scale(0.996264)" xlink:href="#CMR17-30"/>
       <use transform="translate(45.690477 0)scale(0.996264)" xlink:href="#CMMI12-3a"/>
       <use transform="translate(72.787654 0)scale(0.996264)" xlink:href="#CMR17-36"/>
      </g>
     </g>
    </g>
    <g id="ytick_21">
     <g id="line2d_57">
      <g>
       <use style="stroke:#000000;stroke-width:0.8;" x="267.889474" xlink:href="#m7e3adf7bbc" y="197.79559"/>
      </g>
     </g>
     <g id="text_48">
      <!-- $\mathdefault{0.8}$ -->
      <g transform="translate(248.159395 201.25484)scale(0.1 -0.1)">
       <defs>
        <path d="M 1741 2289 
C 2144 2494 2554 2803 2554 3298 
C 2554 3884 1990 4224 1472 4224 
C 890 4224 378 3800 378 3215 
C 378 3054 416 2777 666 2533 
C 730 2469 998 2276 1171 2154 
C 883 2006 211 1652 211 945 
C 211 282 838 -128 1459 -128 
C 2144 -128 2720 366 2720 1022 
C 2720 1607 2330 1877 2074 2051 
L 1741 2289 
z
M 902 2855 
C 851 2887 595 3086 595 3388 
C 595 3781 998 4076 1459 4076 
C 1965 4076 2336 3716 2336 3298 
C 2336 2700 1670 2359 1638 2359 
C 1632 2359 1626 2359 1574 2398 
L 902 2855 
z
M 2080 1536 
C 2176 1466 2483 1253 2483 861 
C 2483 385 2010 25 1472 25 
C 890 25 448 443 448 951 
C 448 1459 838 1884 1280 2083 
L 2080 1536 
z
" id="CMR17-38" transform="scale(0.015625)"/>
       </defs>
       <use transform="scale(0.996264)" xlink:href="#CMR17-30"/>
       <use transform="translate(45.690477 0)scale(0.996264)" xlink:href="#CMMI12-3a"/>
       <use transform="translate(72.787654 0)scale(0.996264)" xlink:href="#CMR17-38"/>
      </g>
     </g>
    </g>
    <g id="text_49">
     <!-- Mass radius ratio $m/r$ -->
     <g transform="translate(241.668735 286.255954)rotate(-90)scale(0.1 -0.1)">
      <defs>
       <path d="M 2758 1356 
C 2758 2176 2163 2816 1466 2816 
C 768 2816 173 2176 173 1356 
C 173 550 768 -64 1466 -64 
C 2163 -64 2758 550 2758 1356 
z
M 1466 51 
C 1165 51 909 230 762 480 
C 602 768 582 1126 582 1408 
C 582 1676 595 2009 762 2297 
C 890 2508 1139 2713 1466 2713 
C 1754 2713 1997 2553 2150 2329 
C 2349 2028 2349 1606 2349 1408 
C 2349 1158 2336 774 2163 467 
C 1984 172 1709 51 1466 51 
z
" id="CMR17-6f" transform="scale(0.015625)"/>
       <path d="M 2746 4563 
C 2746 4569 2784 4665 2784 4678 
C 2784 4755 2720 4800 2669 4800 
C 2637 4800 2579 4800 2528 4659 
L 384 -1364 
C 384 -1370 346 -1466 346 -1479 
C 346 -1556 410 -1600 461 -1600 
C 499 -1600 557 -1594 602 -1460 
L 2746 4563 
z
" id="CMMI12-3d" transform="scale(0.015625)"/>
      </defs>
      <use transform="scale(0.996264)" xlink:href="#CMR17-4d"/>
      <use transform="translate(84.686941 0)scale(0.996264)" xlink:href="#CMR17-61"/>
      <use transform="translate(130.377418 0)scale(0.996264)" xlink:href="#CMR17-73"/>
      <use transform="translate(166.178755 0)scale(0.996264)" xlink:href="#CMR17-73"/>
      <use transform="translate(232.056059 0)scale(0.996264)" xlink:href="#CMR17-72"/>
      <use transform="translate(267.336827 0)scale(0.996264)" xlink:href="#CMR17-61"/>
      <use transform="translate(313.027304 0)scale(0.996264)" xlink:href="#CMR17-64"/>
      <use transform="translate(363.922674 0)scale(0.996264)" xlink:href="#CMR17-69"/>
      <use transform="translate(388.793732 0)scale(0.996264)" xlink:href="#CMR17-75"/>
      <use transform="translate(439.689102 0)scale(0.996264)" xlink:href="#CMR17-73"/>
      <use transform="translate(505.566406 0)scale(0.996264)" xlink:href="#CMR17-72"/>
      <use transform="translate(540.847174 0)scale(0.996264)" xlink:href="#CMR17-61"/>
      <use transform="translate(586.537651 0)scale(0.996264)" xlink:href="#CMR17-74"/>
      <use transform="translate(621.818419 0)scale(0.996264)" xlink:href="#CMR17-69"/>
      <use transform="translate(646.689477 0)scale(0.996264)" xlink:href="#CMR17-6f"/>
      <use transform="translate(722.455921 0)scale(0.996264)" xlink:href="#CMMI12-6d"/>
      <use transform="translate(807.783145 0)scale(0.996264)" xlink:href="#CMMI12-3d"/>
      <use transform="translate(856.558064 0)scale(0.996264)" xlink:href="#CMMI12-72"/>
     </g>
    </g>
   </g>
   <g id="line2d_58">
    <path clip-path="url(#p3eb5092487)" d="M 275.837375 294.870277 
L 276.473207 294.689637 
L 277.744871 293.976282 
L 279.016536 292.819486 
L 280.2882 291.265264 
L 281.559864 289.373853 
L 283.467361 286.061005 
L 287.282353 278.680189 
L 289.825682 273.970842 
L 291.733178 270.853403 
L 293.640674 268.203263 
L 295.548171 266.058237 
L 296.819835 264.90601 
L 298.091499 263.963956 
L 299.363164 263.216613 
L 301.27066 262.420799 
L 303.178156 261.957459 
L 305.085653 261.763628 
L 306.993149 261.782598 
L 309.536478 262.056295 
L 312.715638 262.672802 
L 317.166463 263.829375 
L 326.068113 266.479677 
L 335.605595 269.218597 
L 343.23558 271.177442 
L 350.865565 272.915746 
L 359.131383 274.571197 
L 368.033033 276.124508 
L 377.570515 277.566901 
L 388.379661 278.97353 
L 400.460471 280.314021 
L 413.812946 281.569452 
L 429.072916 282.776187 
L 434.795406 283.17721 
L 434.795406 283.17721 
" style="fill:none;stroke:#000000;stroke-linecap:square;stroke-width:1.5;"/>
   </g>
   <g id="line2d_59">
    <path clip-path="url(#p3eb5092487)" d="M 275.837375 294.870181 
L 276.473207 294.688915 
L 277.744871 293.966887 
L 279.016536 292.773773 
L 280.2882 291.124625 
L 281.559864 289.040013 
L 282.831528 286.545546 
L 284.103193 283.671293 
L 286.010689 278.722753 
L 287.918185 273.123047 
L 290.461514 264.879937 
L 294.276507 251.522702 
L 300.634828 229.14651 
L 303.813988 218.908627 
L 306.357317 211.477513 
L 308.900645 204.830071 
L 310.808142 200.393091 
L 312.715638 196.437702 
L 314.623135 192.96331 
L 316.530631 189.96113 
L 318.438127 187.415796 
L 320.345624 185.306857 
L 322.25312 183.610122 
L 324.160616 182.298842 
L 326.068113 181.34471 
L 327.975609 180.718702 
L 329.883105 180.391759 
L 331.790602 180.335328 
L 333.698098 180.52177 
L 335.605595 180.924669 
L 337.513091 181.519048 
L 340.056419 182.569188 
L 342.599748 183.8674 
L 345.778908 185.769986 
L 349.593901 188.362343 
L 354.044726 191.673687 
L 361.038879 197.190062 
L 372.483858 206.227718 
L 378.842179 210.97469 
L 384.564668 214.997131 
L 390.287157 218.75884 
L 396.009646 222.253719 
L 401.732135 225.486713 
L 407.454624 228.469955 
L 413.177113 231.220058 
L 419.535435 234.025731 
L 422.078763 235.080354 
L 422.078763 235.080354 
" style="fill:none;stroke:#000000;stroke-dasharray:1.5,2.475;stroke-dashoffset:0;stroke-width:1.5;"/>
   </g>
   <g id="patch_21">
    <path d="M 267.889474 300.5975 
L 267.889474 174.598587 
" style="fill:none;stroke:#000000;stroke-linecap:square;stroke-linejoin:miter;stroke-width:0.8;"/>
   </g>
   <g id="patch_22">
    <path d="M 442.743307 300.5975 
L 442.743307 174.598587 
" style="fill:none;stroke:#000000;stroke-linecap:square;stroke-linejoin:miter;stroke-width:0.8;"/>
   </g>
   <g id="patch_23">
    <path d="M 267.889474 300.5975 
L 442.743307 300.5975 
" style="fill:none;stroke:#000000;stroke-linecap:square;stroke-linejoin:miter;stroke-width:0.8;"/>
   </g>
   <g id="patch_24">
    <path d="M 267.889474 174.598587 
L 442.743307 174.598587 
" style="fill:none;stroke:#000000;stroke-linecap:square;stroke-linejoin:miter;stroke-width:0.8;"/>
   </g>
   <g id="legend_4">
    <g id="patch_25">
     <path d="M 366.549167 212.523867 
L 435.743307 212.523867 
Q 437.743307 212.523867 437.743307 210.523867 
L 437.743307 181.598587 
Q 437.743307 179.598587 435.743307 179.598587 
L 366.549167 179.598587 
Q 364.549167 179.598587 364.549167 181.598587 
L 364.549167 210.523867 
Q 364.549167 212.523867 366.549167 212.523867 
z
" style="fill:#ffffff;opacity:0.8;stroke:#cccccc;stroke-linejoin:miter;"/>
    </g>
    <g id="line2d_60">
     <path d="M 368.549167 187.570567 
L 388.549167 187.570567 
" style="fill:none;stroke:#000000;stroke-linecap:square;stroke-width:1.5;"/>
    </g>
    <g id="line2d_61"/>
    <g id="text_50">
     <!-- $m_{TOV}/r$ -->
     <g transform="translate(396.549167 191.070567)scale(0.1 -0.1)">
      <use transform="scale(0.996264)" xlink:href="#CMMI12-6d"/>
      <use transform="translate(85.327224 -14.943915)scale(0.697382)" xlink:href="#CMMI12-54"/>
      <use transform="translate(134.833547 -14.943915)scale(0.697382)" xlink:href="#CMMI12-4f"/>
      <use transform="translate(188.915575 -14.943915)scale(0.697382)" xlink:href="#CMMI12-56"/>
      <use transform="translate(244.396577 0)scale(0.996264)" xlink:href="#CMMI12-3d"/>
      <use transform="translate(293.171496 0)scale(0.996264)" xlink:href="#CMMI12-72"/>
     </g>
    </g>
    <g id="line2d_62">
     <path d="M 368.549167 202.533207 
L 388.549167 202.533207 
" style="fill:none;stroke:#000000;stroke-dasharray:1.5,2.475;stroke-dashoffset:0;stroke-width:1.5;"/>
    </g>
    <g id="line2d_63"/>
    <g id="text_51">
     <!-- $m_{LE}/r$ -->
     <g transform="translate(396.549167 206.033207)scale(0.1 -0.1)">
      <use transform="scale(0.996264)" xlink:href="#CMMI12-6d"/>
      <use transform="translate(85.327224 -14.943915)scale(0.697382)" xlink:href="#CMMI12-4c"/>
      <use transform="translate(131.786638 -14.943915)scale(0.697382)" xlink:href="#CMMI12-45"/>
      <use transform="translate(186.920675 0)scale(0.996264)" xlink:href="#CMMI12-3d"/>
      <use transform="translate(235.695594 0)scale(0.996264)" xlink:href="#CMMI12-72"/>
     </g>
    </g>
   </g>
  </g>
 </g>
 <defs>
  <clipPath id="p96a120df95">
   <rect height="125.998913" width="174.853834" x="43.45781" y="10.8"/>
  </clipPath>
  <clipPath id="p23368cf987">
   <rect height="125.998913" width="174.853834" x="267.889474" y="10.8"/>
  </clipPath>
  <clipPath id="pcb1425a2d9">
   <rect height="125.998913" width="174.853834" x="43.45781" y="174.598587"/>
  </clipPath>
  <clipPath id="p3eb5092487">
   <rect height="125.998913" width="174.853834" x="267.889474" y="174.598587"/>
  </clipPath>
 </defs>
</svg>
