<?xml version="1.0" encoding="utf-8" standalone="no"?>
<!DOCTYPE svg PUBLIC "-//W3C//DTD SVG 1.1//EN"
  "http://www.w3.org/Graphics/SVG/1.1/DTD/svg11.dtd">
<svg height="288pt" version="1.1" viewBox="0 0 432 288" width="432pt" xmlns="http://www.w3.org/2000/svg" xmlns:xlink="http://www.w3.org/1999/xlink">
 <metadata>
  <rdf:RDF xmlns:cc="http://creativecommons.org/ns#" xmlns:dc="http://purl.org/dc/elements/1.1/" xmlns:rdf="http://www.w3.org/1999/02/22-rdf-syntax-ns#">
   <cc:Work>
    <dc:type rdf:resource="http://purl.org/dc/dcmitype/StillImage"/>
    <dc:date>2021-04-09T12:34:09.850038</dc:date>
    <dc:format>image/svg+xml</dc:format>
    <dc:creator>
     <cc:Agent>
      <dc:title>Matplotlib v3.4.1, https://matplotlib.org/</dc:title>
     </cc:Agent>
    </dc:creator>
   </cc:Work>
  </rdf:RDF>
 </metadata>
 <defs>
  <style type="text/css">*{stroke-linecap:butt;stroke-linejoin:round;}</style>
 </defs>
 <g id="figure_1">
  <g id="patch_1">
   <path d="M 0 288 
L 432 288 
L 432 0 
L 0 0 
z
" style="fill:#ffffff;"/>
  </g>
  <g id="axes_1">
   <g id="patch_2">
    <path d="M 45.16615 235.30653 
L 421.2 235.30653 
L 421.2 10.8 
L 45.16615 10.8 
z
" style="fill:#ffffff;"/>
   </g>
   <g id="matplotlib.axis_1">
    <g id="xtick_1">
     <g id="line2d_1">
      <defs>
       <path d="M 0 0 
L 0 3.5 
" id="m80ea425d3d" style="stroke:#000000;stroke-width:0.8;"/>
      </defs>
      <g>
       <use style="stroke:#000000;stroke-width:0.8;" x="61.570773" xlink:href="#m80ea425d3d" y="235.30653"/>
      </g>
     </g>
     <g id="text_1">
      <!-- $\mathdefault{0}$ -->
      <g transform="translate(59.080105 249.225028)scale(0.1 -0.1)">
       <defs>
        <path d="M 2688 2038 
C 2688 2430 2682 3099 2413 3613 
C 2176 4063 1798 4224 1466 4224 
C 1158 4224 768 4082 525 3620 
C 269 3137 243 2539 243 2038 
C 243 1671 250 1112 448 623 
C 723 -39 1216 -128 1466 -128 
C 1760 -128 2208 -7 2470 604 
C 2662 1048 2688 1568 2688 2038 
z
M 1466 -26 
C 1056 -26 813 328 723 816 
C 653 1196 653 1749 653 2109 
C 653 2604 653 3015 736 3407 
C 858 3954 1216 4121 1466 4121 
C 1728 4121 2067 3947 2189 3420 
C 2272 3054 2278 2623 2278 2109 
C 2278 1691 2278 1176 2202 797 
C 2067 96 1690 -26 1466 -26 
z
" id="CMR17-30" transform="scale(0.015625)"/>
       </defs>
       <use transform="scale(0.996264)" xlink:href="#CMR17-30"/>
      </g>
     </g>
    </g>
    <g id="xtick_2">
     <g id="line2d_2">
      <g>
       <use style="stroke:#000000;stroke-width:0.8;" x="130.353259" xlink:href="#m80ea425d3d" y="235.30653"/>
      </g>
     </g>
     <g id="text_2">
      <!-- $\mathdefault{1}$ -->
      <g transform="translate(127.862591 249.225028)scale(0.1 -0.1)">
       <defs>
        <path d="M 1702 4083 
C 1702 4217 1696 4224 1606 4224 
C 1357 3927 979 3833 621 3820 
C 602 3820 570 3820 563 3808 
C 557 3795 557 3782 557 3648 
C 755 3648 1088 3686 1344 3839 
L 1344 467 
C 1344 243 1331 166 781 166 
L 589 166 
L 589 0 
C 896 6 1216 12 1523 12 
C 1830 12 2150 6 2458 0 
L 2458 166 
L 2266 166 
C 1715 166 1702 236 1702 467 
L 1702 4083 
z
" id="CMR17-31" transform="scale(0.015625)"/>
       </defs>
       <use transform="scale(0.996264)" xlink:href="#CMR17-31"/>
      </g>
     </g>
    </g>
    <g id="xtick_3">
     <g id="line2d_3">
      <g>
       <use style="stroke:#000000;stroke-width:0.8;" x="199.135745" xlink:href="#m80ea425d3d" y="235.30653"/>
      </g>
     </g>
     <g id="text_3">
      <!-- $\mathdefault{2}$ -->
      <g transform="translate(196.645077 249.225028)scale(0.1 -0.1)">
       <defs>
        <path d="M 2669 990 
L 2554 990 
C 2490 537 2438 460 2413 422 
C 2381 371 1920 371 1830 371 
L 602 371 
C 832 620 1280 1073 1824 1596 
C 2214 1966 2669 2400 2669 3033 
C 2669 3788 2067 4224 1395 4224 
C 691 4224 262 3603 262 3027 
C 262 2777 448 2745 525 2745 
C 589 2745 781 2783 781 3007 
C 781 3206 614 3264 525 3264 
C 486 3264 448 3257 422 3244 
C 544 3788 915 4057 1306 4057 
C 1862 4057 2227 3616 2227 3033 
C 2227 2477 1901 1998 1536 1583 
L 262 147 
L 262 0 
L 2515 0 
L 2669 990 
z
" id="CMR17-32" transform="scale(0.015625)"/>
       </defs>
       <use transform="scale(0.996264)" xlink:href="#CMR17-32"/>
      </g>
     </g>
    </g>
    <g id="xtick_4">
     <g id="line2d_4">
      <g>
       <use style="stroke:#000000;stroke-width:0.8;" x="267.91823" xlink:href="#m80ea425d3d" y="235.30653"/>
      </g>
     </g>
     <g id="text_4">
      <!-- $\mathdefault{3}$ -->
      <g transform="translate(265.427563 249.225028)scale(0.1 -0.1)">
       <defs>
        <path d="M 1414 2176 
C 1984 2176 2234 1673 2234 1094 
C 2234 322 1824 25 1453 25 
C 1114 25 563 193 390 691 
C 422 678 454 678 486 678 
C 640 678 755 780 755 947 
C 755 1132 614 1216 486 1216 
C 378 1216 211 1164 211 927 
C 211 335 787 -128 1466 -128 
C 2176 -128 2720 432 2720 1087 
C 2720 1718 2208 2176 1600 2246 
C 2086 2347 2554 2776 2554 3353 
C 2554 3856 2048 4224 1472 4224 
C 890 4224 378 3862 378 3347 
C 378 3123 544 3084 627 3084 
C 762 3084 877 3167 877 3334 
C 877 3500 762 3584 627 3584 
C 602 3584 570 3584 544 3571 
C 730 3999 1235 4076 1459 4076 
C 1683 4076 2106 3966 2106 3347 
C 2106 3167 2080 2851 1862 2574 
C 1670 2329 1453 2316 1242 2297 
C 1210 2297 1062 2284 1037 2284 
C 992 2278 966 2272 966 2227 
C 966 2182 973 2176 1101 2176 
L 1414 2176 
z
" id="CMR17-33" transform="scale(0.015625)"/>
       </defs>
       <use transform="scale(0.996264)" xlink:href="#CMR17-33"/>
      </g>
     </g>
    </g>
    <g id="xtick_5">
     <g id="line2d_5">
      <g>
       <use style="stroke:#000000;stroke-width:0.8;" x="336.700716" xlink:href="#m80ea425d3d" y="235.30653"/>
      </g>
     </g>
     <g id="text_5">
      <!-- $\mathdefault{4}$ -->
      <g transform="translate(334.210049 249.225028)scale(0.1 -0.1)">
       <defs>
        <path d="M 2150 4147 
C 2150 4281 2144 4288 2029 4288 
L 128 1254 
L 128 1088 
L 1779 1088 
L 1779 460 
C 1779 230 1766 166 1318 166 
L 1197 166 
L 1197 0 
C 1402 12 1747 12 1965 12 
C 2182 12 2528 12 2733 0 
L 2733 166 
L 2611 166 
C 2163 166 2150 230 2150 460 
L 2150 1088 
L 2803 1088 
L 2803 1254 
L 2150 1254 
L 2150 4147 
z
M 1798 3723 
L 1798 1254 
L 256 1254 
L 1798 3723 
z
" id="CMR17-34" transform="scale(0.015625)"/>
       </defs>
       <use transform="scale(0.996264)" xlink:href="#CMR17-34"/>
      </g>
     </g>
    </g>
    <g id="xtick_6">
     <g id="line2d_6">
      <g>
       <use style="stroke:#000000;stroke-width:0.8;" x="405.483202" xlink:href="#m80ea425d3d" y="235.30653"/>
      </g>
     </g>
     <g id="text_6">
      <!-- $\mathdefault{5}$ -->
      <g transform="translate(402.992534 249.225028)scale(0.1 -0.1)">
       <defs>
        <path d="M 730 3750 
C 794 3724 1056 3641 1325 3641 
C 1920 3641 2246 3961 2432 4140 
C 2432 4191 2432 4224 2394 4224 
C 2387 4224 2374 4224 2323 4198 
C 2099 4102 1837 4032 1517 4032 
C 1325 4032 1037 4055 723 4191 
C 653 4224 640 4224 634 4224 
C 602 4224 595 4217 595 4090 
L 595 2231 
C 595 2113 595 2080 659 2080 
C 691 2080 704 2093 736 2139 
C 941 2435 1222 2560 1542 2560 
C 1766 2560 2246 2415 2246 1293 
C 2246 1087 2246 716 2054 422 
C 1894 159 1645 25 1370 25 
C 947 25 518 319 403 812 
C 429 806 480 793 506 793 
C 589 793 749 838 749 1036 
C 749 1209 627 1280 506 1280 
C 358 1280 262 1190 262 1011 
C 262 454 704 -128 1382 -128 
C 2042 -128 2669 441 2669 1267 
C 2669 2054 2170 2662 1549 2662 
C 1222 2662 947 2540 730 2304 
L 730 3750 
z
" id="CMR17-35" transform="scale(0.015625)"/>
       </defs>
       <use transform="scale(0.996264)" xlink:href="#CMR17-35"/>
      </g>
     </g>
    </g>
    <g id="text_7">
     <!-- $n=\frac{1}{\gamma-1}$ -->
     <g transform="translate(215.547814 263.579069)scale(0.1 -0.1)">
      <defs>
       <path d="M 1318 1870 
C 1331 1909 1491 2228 1728 2432 
C 1894 2585 2112 2687 2362 2687 
C 2618 2687 2707 2496 2707 2241 
C 2707 1877 2445 1149 2317 804 
C 2259 651 2227 568 2227 453 
C 2227 166 2426 -64 2733 -64 
C 3328 -64 3552 874 3552 913 
C 3552 945 3526 970 3488 970 
C 3430 970 3424 951 3392 842 
C 3245 319 3002 64 2752 64 
C 2688 64 2586 70 2586 274 
C 2586 434 2656 625 2694 715 
C 2822 1066 3091 1781 3091 2145 
C 3091 2528 2867 2816 2381 2816 
C 1811 2816 1510 2413 1395 2253 
C 1376 2617 1114 2816 832 2816 
C 627 2816 486 2694 378 2477 
C 262 2247 173 1864 173 1838 
C 173 1813 198 1781 243 1781 
C 294 1781 301 1787 339 1934 
C 442 2324 557 2687 813 2687 
C 960 2687 1011 2585 1011 2394 
C 1011 2253 947 2004 902 1807 
L 723 1117 
C 698 996 627 708 595 593 
C 550 427 480 127 480 95 
C 480 6 550 -64 646 -64 
C 723 -64 813 -26 864 70 
C 877 102 934 325 966 453 
L 1107 1028 
L 1318 1870 
z
" id="CMMI12-6e" transform="scale(0.015625)"/>
       <path d="M 4115 2048 
C 4211 2048 4307 2048 4307 2156 
C 4307 2272 4198 2272 4090 2272 
L 512 2272 
C 403 2272 294 2272 294 2156 
C 294 2048 390 2048 486 2048 
L 4115 2048 
z
M 4090 927 
C 4198 927 4307 927 4307 1043 
C 4307 1152 4211 1152 4115 1152 
L 486 1152 
C 390 1152 294 1152 294 1043 
C 294 927 403 927 512 927 
L 4090 927 
z
" id="CMR17-3d" transform="scale(0.015625)"/>
       <path d="M 2419 785 
C 2406 1097 2394 1586 2150 2158 
C 2022 2476 1805 2816 1338 2816 
C 550 2816 122 1815 122 1649 
C 122 1592 166 1592 186 1592 
C 243 1592 243 1605 275 1688 
C 410 2081 819 2393 1261 2393 
C 2150 2393 2278 1408 2278 779 
C 2278 378 2234 245 2195 118 
C 2074 -276 1862 -1064 1862 -1242 
C 1862 -1293 1882 -1351 1933 -1351 
C 2029 -1351 2086 -1140 2157 -886 
C 2310 -327 2349 -47 2381 207 
C 2400 360 2765 1409 3270 2407 
C 3315 2509 3405 2681 3405 2700 
C 3405 2707 3398 2752 3341 2752 
C 3328 2752 3296 2752 3283 2726 
C 3270 2713 3046 2280 2854 1848 
C 2758 1630 2630 1344 2419 785 
z
" id="CMMI12-d" transform="scale(0.015625)"/>
       <path d="M 4218 1472 
C 4326 1472 4442 1472 4442 1600 
C 4442 1728 4326 1728 4218 1728 
L 755 1728 
C 646 1728 531 1728 531 1600 
C 531 1472 646 1472 755 1472 
L 4218 1472 
z
" id="CMSY10-0" transform="scale(0.015625)"/>
      </defs>
      <use transform="scale(0.996264)" xlink:href="#CMMI12-6e"/>
      <use transform="translate(85.904056 0)scale(0.996264)" xlink:href="#CMR17-3d"/>
      <use transform="translate(233.215271 39.226102)scale(0.697382)" xlink:href="#CMR17-31"/>
      <use transform="translate(186.488367 -34.355253)scale(0.697382)" xlink:href="#CMMI12-d"/>
      <use transform="translate(225.701167 -34.355253)scale(0.697382)" xlink:href="#CMSY10-0"/>
      <use transform="translate(279.94216 -34.355253)scale(0.697382)" xlink:href="#CMR17-31"/>
      <path d="M 186.488367 22.914133 
L 311.925342 22.914133 
L 311.925342 26.899083 
L 186.488367 26.899083 
L 186.488367 22.914133 
z
"/>
     </g>
    </g>
   </g>
   <g id="matplotlib.axis_2">
    <g id="ytick_1">
     <g id="line2d_7">
      <defs>
       <path d="M 0 0 
L -3.5 0 
" id="m7ea2727197" style="stroke:#000000;stroke-width:0.8;"/>
      </defs>
      <g>
       <use style="stroke:#000000;stroke-width:0.8;" x="45.16615" xlink:href="#m7ea2727197" y="193.522676"/>
      </g>
     </g>
     <g id="text_8">
      <!-- $\mathdefault{10^{0}}$ -->
      <g transform="translate(24.232242 196.981925)scale(0.1 -0.1)">
       <use transform="scale(0.996264)" xlink:href="#CMR17-31"/>
       <use transform="translate(45.690477 0)scale(0.996264)" xlink:href="#CMR17-30"/>
       <use transform="translate(91.380954 36.153639)scale(0.697382)" xlink:href="#CMR17-30"/>
      </g>
     </g>
    </g>
    <g id="ytick_2">
     <g id="line2d_8">
      <g>
       <use style="stroke:#000000;stroke-width:0.8;" x="45.16615" xlink:href="#m7ea2727197" y="150.085169"/>
      </g>
     </g>
     <g id="text_9">
      <!-- $\mathdefault{10^{1}}$ -->
      <g transform="translate(24.232242 153.544418)scale(0.1 -0.1)">
       <use transform="scale(0.996264)" xlink:href="#CMR17-31"/>
       <use transform="translate(45.690477 0)scale(0.996264)" xlink:href="#CMR17-30"/>
       <use transform="translate(91.380954 36.153639)scale(0.697382)" xlink:href="#CMR17-31"/>
      </g>
     </g>
    </g>
    <g id="ytick_3">
     <g id="line2d_9">
      <g>
       <use style="stroke:#000000;stroke-width:0.8;" x="45.16615" xlink:href="#m7ea2727197" y="106.647663"/>
      </g>
     </g>
     <g id="text_10">
      <!-- $\mathdefault{10^{2}}$ -->
      <g transform="translate(24.232242 110.106912)scale(0.1 -0.1)">
       <use transform="scale(0.996264)" xlink:href="#CMR17-31"/>
       <use transform="translate(45.690477 0)scale(0.996264)" xlink:href="#CMR17-30"/>
       <use transform="translate(91.380954 36.153639)scale(0.697382)" xlink:href="#CMR17-32"/>
      </g>
     </g>
    </g>
    <g id="ytick_4">
     <g id="line2d_10">
      <g>
       <use style="stroke:#000000;stroke-width:0.8;" x="45.16615" xlink:href="#m7ea2727197" y="63.210156"/>
      </g>
     </g>
     <g id="text_11">
      <!-- $\mathdefault{10^{3}}$ -->
      <g transform="translate(24.232242 66.669405)scale(0.1 -0.1)">
       <use transform="scale(0.996264)" xlink:href="#CMR17-31"/>
       <use transform="translate(45.690477 0)scale(0.996264)" xlink:href="#CMR17-30"/>
       <use transform="translate(91.380954 36.153639)scale(0.697382)" xlink:href="#CMR17-33"/>
      </g>
     </g>
    </g>
    <g id="ytick_5">
     <g id="line2d_11">
      <g>
       <use style="stroke:#000000;stroke-width:0.8;" x="45.16615" xlink:href="#m7ea2727197" y="19.772649"/>
      </g>
     </g>
     <g id="text_12">
      <!-- $\mathdefault{10^{4}}$ -->
      <g transform="translate(24.232242 23.231899)scale(0.1 -0.1)">
       <use transform="scale(0.996264)" xlink:href="#CMR17-31"/>
       <use transform="translate(45.690477 0)scale(0.996264)" xlink:href="#CMR17-30"/>
       <use transform="translate(91.380954 36.153639)scale(0.697382)" xlink:href="#CMR17-34"/>
      </g>
     </g>
    </g>
    <g id="ytick_6">
     <g id="line2d_12">
      <defs>
       <path d="M 0 0 
L -2 0 
" id="m5dcaa33dff" style="stroke:#000000;stroke-width:0.6;"/>
      </defs>
      <g>
       <use style="stroke:#000000;stroke-width:0.6;" x="45.16615" xlink:href="#m5dcaa33dff" y="223.88419"/>
      </g>
     </g>
    </g>
    <g id="ytick_7">
     <g id="line2d_13">
      <g>
       <use style="stroke:#000000;stroke-width:0.6;" x="45.16615" xlink:href="#m5dcaa33dff" y="216.235225"/>
      </g>
     </g>
    </g>
    <g id="ytick_8">
     <g id="line2d_14">
      <g>
       <use style="stroke:#000000;stroke-width:0.6;" x="45.16615" xlink:href="#m5dcaa33dff" y="210.808197"/>
      </g>
     </g>
    </g>
    <g id="ytick_9">
     <g id="line2d_15">
      <g>
       <use style="stroke:#000000;stroke-width:0.6;" x="45.16615" xlink:href="#m5dcaa33dff" y="206.598668"/>
      </g>
     </g>
    </g>
    <g id="ytick_10">
     <g id="line2d_16">
      <g>
       <use style="stroke:#000000;stroke-width:0.6;" x="45.16615" xlink:href="#m5dcaa33dff" y="203.159232"/>
      </g>
     </g>
    </g>
    <g id="ytick_11">
     <g id="line2d_17">
      <g>
       <use style="stroke:#000000;stroke-width:0.6;" x="45.16615" xlink:href="#m5dcaa33dff" y="200.251231"/>
      </g>
     </g>
    </g>
    <g id="ytick_12">
     <g id="line2d_18">
      <g>
       <use style="stroke:#000000;stroke-width:0.6;" x="45.16615" xlink:href="#m5dcaa33dff" y="197.732205"/>
      </g>
     </g>
    </g>
    <g id="ytick_13">
     <g id="line2d_19">
      <g>
       <use style="stroke:#000000;stroke-width:0.6;" x="45.16615" xlink:href="#m5dcaa33dff" y="195.510267"/>
      </g>
     </g>
    </g>
    <g id="ytick_14">
     <g id="line2d_20">
      <g>
       <use style="stroke:#000000;stroke-width:0.6;" x="45.16615" xlink:href="#m5dcaa33dff" y="180.446683"/>
      </g>
     </g>
    </g>
    <g id="ytick_15">
     <g id="line2d_21">
      <g>
       <use style="stroke:#000000;stroke-width:0.6;" x="45.16615" xlink:href="#m5dcaa33dff" y="172.797718"/>
      </g>
     </g>
    </g>
    <g id="ytick_16">
     <g id="line2d_22">
      <g>
       <use style="stroke:#000000;stroke-width:0.6;" x="45.16615" xlink:href="#m5dcaa33dff" y="167.370691"/>
      </g>
     </g>
    </g>
    <g id="ytick_17">
     <g id="line2d_23">
      <g>
       <use style="stroke:#000000;stroke-width:0.6;" x="45.16615" xlink:href="#m5dcaa33dff" y="163.161162"/>
      </g>
     </g>
    </g>
    <g id="ytick_18">
     <g id="line2d_24">
      <g>
       <use style="stroke:#000000;stroke-width:0.6;" x="45.16615" xlink:href="#m5dcaa33dff" y="159.721726"/>
      </g>
     </g>
    </g>
    <g id="ytick_19">
     <g id="line2d_25">
      <g>
       <use style="stroke:#000000;stroke-width:0.6;" x="45.16615" xlink:href="#m5dcaa33dff" y="156.813724"/>
      </g>
     </g>
    </g>
    <g id="ytick_20">
     <g id="line2d_26">
      <g>
       <use style="stroke:#000000;stroke-width:0.6;" x="45.16615" xlink:href="#m5dcaa33dff" y="154.294698"/>
      </g>
     </g>
    </g>
    <g id="ytick_21">
     <g id="line2d_27">
      <g>
       <use style="stroke:#000000;stroke-width:0.6;" x="45.16615" xlink:href="#m5dcaa33dff" y="152.07276"/>
      </g>
     </g>
    </g>
    <g id="ytick_22">
     <g id="line2d_28">
      <g>
       <use style="stroke:#000000;stroke-width:0.6;" x="45.16615" xlink:href="#m5dcaa33dff" y="137.009177"/>
      </g>
     </g>
    </g>
    <g id="ytick_23">
     <g id="line2d_29">
      <g>
       <use style="stroke:#000000;stroke-width:0.6;" x="45.16615" xlink:href="#m5dcaa33dff" y="129.360211"/>
      </g>
     </g>
    </g>
    <g id="ytick_24">
     <g id="line2d_30">
      <g>
       <use style="stroke:#000000;stroke-width:0.6;" x="45.16615" xlink:href="#m5dcaa33dff" y="123.933184"/>
      </g>
     </g>
    </g>
    <g id="ytick_25">
     <g id="line2d_31">
      <g>
       <use style="stroke:#000000;stroke-width:0.6;" x="45.16615" xlink:href="#m5dcaa33dff" y="119.723655"/>
      </g>
     </g>
    </g>
    <g id="ytick_26">
     <g id="line2d_32">
      <g>
       <use style="stroke:#000000;stroke-width:0.6;" x="45.16615" xlink:href="#m5dcaa33dff" y="116.284219"/>
      </g>
     </g>
    </g>
    <g id="ytick_27">
     <g id="line2d_33">
      <g>
       <use style="stroke:#000000;stroke-width:0.6;" x="45.16615" xlink:href="#m5dcaa33dff" y="113.376217"/>
      </g>
     </g>
    </g>
    <g id="ytick_28">
     <g id="line2d_34">
      <g>
       <use style="stroke:#000000;stroke-width:0.6;" x="45.16615" xlink:href="#m5dcaa33dff" y="110.857192"/>
      </g>
     </g>
    </g>
    <g id="ytick_29">
     <g id="line2d_35">
      <g>
       <use style="stroke:#000000;stroke-width:0.6;" x="45.16615" xlink:href="#m5dcaa33dff" y="108.635254"/>
      </g>
     </g>
    </g>
    <g id="ytick_30">
     <g id="line2d_36">
      <g>
       <use style="stroke:#000000;stroke-width:0.6;" x="45.16615" xlink:href="#m5dcaa33dff" y="93.57167"/>
      </g>
     </g>
    </g>
    <g id="ytick_31">
     <g id="line2d_37">
      <g>
       <use style="stroke:#000000;stroke-width:0.6;" x="45.16615" xlink:href="#m5dcaa33dff" y="85.922705"/>
      </g>
     </g>
    </g>
    <g id="ytick_32">
     <g id="line2d_38">
      <g>
       <use style="stroke:#000000;stroke-width:0.6;" x="45.16615" xlink:href="#m5dcaa33dff" y="80.495678"/>
      </g>
     </g>
    </g>
    <g id="ytick_33">
     <g id="line2d_39">
      <g>
       <use style="stroke:#000000;stroke-width:0.6;" x="45.16615" xlink:href="#m5dcaa33dff" y="76.286148"/>
      </g>
     </g>
    </g>
    <g id="ytick_34">
     <g id="line2d_40">
      <g>
       <use style="stroke:#000000;stroke-width:0.6;" x="45.16615" xlink:href="#m5dcaa33dff" y="72.846712"/>
      </g>
     </g>
    </g>
    <g id="ytick_35">
     <g id="line2d_41">
      <g>
       <use style="stroke:#000000;stroke-width:0.6;" x="45.16615" xlink:href="#m5dcaa33dff" y="69.938711"/>
      </g>
     </g>
    </g>
    <g id="ytick_36">
     <g id="line2d_42">
      <g>
       <use style="stroke:#000000;stroke-width:0.6;" x="45.16615" xlink:href="#m5dcaa33dff" y="67.419685"/>
      </g>
     </g>
    </g>
    <g id="ytick_37">
     <g id="line2d_43">
      <g>
       <use style="stroke:#000000;stroke-width:0.6;" x="45.16615" xlink:href="#m5dcaa33dff" y="65.197747"/>
      </g>
     </g>
    </g>
    <g id="ytick_38">
     <g id="line2d_44">
      <g>
       <use style="stroke:#000000;stroke-width:0.6;" x="45.16615" xlink:href="#m5dcaa33dff" y="50.134164"/>
      </g>
     </g>
    </g>
    <g id="ytick_39">
     <g id="line2d_45">
      <g>
       <use style="stroke:#000000;stroke-width:0.6;" x="45.16615" xlink:href="#m5dcaa33dff" y="42.485198"/>
      </g>
     </g>
    </g>
    <g id="ytick_40">
     <g id="line2d_46">
      <g>
       <use style="stroke:#000000;stroke-width:0.6;" x="45.16615" xlink:href="#m5dcaa33dff" y="37.058171"/>
      </g>
     </g>
    </g>
    <g id="ytick_41">
     <g id="line2d_47">
      <g>
       <use style="stroke:#000000;stroke-width:0.6;" x="45.16615" xlink:href="#m5dcaa33dff" y="32.848642"/>
      </g>
     </g>
    </g>
    <g id="ytick_42">
     <g id="line2d_48">
      <g>
       <use style="stroke:#000000;stroke-width:0.6;" x="45.16615" xlink:href="#m5dcaa33dff" y="29.409206"/>
      </g>
     </g>
    </g>
    <g id="ytick_43">
     <g id="line2d_49">
      <g>
       <use style="stroke:#000000;stroke-width:0.6;" x="45.16615" xlink:href="#m5dcaa33dff" y="26.501204"/>
      </g>
     </g>
    </g>
    <g id="ytick_44">
     <g id="line2d_50">
      <g>
       <use style="stroke:#000000;stroke-width:0.6;" x="45.16615" xlink:href="#m5dcaa33dff" y="23.982179"/>
      </g>
     </g>
    </g>
    <g id="ytick_45">
     <g id="line2d_51">
      <g>
       <use style="stroke:#000000;stroke-width:0.6;" x="45.16615" xlink:href="#m5dcaa33dff" y="21.760241"/>
      </g>
     </g>
    </g>
    <g id="text_13">
     <!-- $r_ 0$ -->
     <g transform="translate(18.295064 127.286247)rotate(-90)scale(0.1 -0.1)">
      <defs>
       <path d="M 2490 2633 
C 2291 2598 2189 2457 2189 2316 
C 2189 2163 2310 2111 2400 2111 
C 2579 2111 2726 2265 2726 2457 
C 2726 2651 2528 2816 2208 2816 
C 1952 2816 1658 2700 1389 2335 
C 1344 2660 1088 2816 832 2816 
C 582 2816 454 2642 378 2508 
C 269 2278 173 1892 173 1860 
C 173 1834 198 1801 243 1801 
C 294 1801 301 1808 339 1957 
C 435 2342 557 2687 813 2687 
C 966 2687 1011 2604 1011 2419 
C 1011 2278 947 2028 902 1827 
L 723 1130 
C 698 1007 627 716 595 600 
C 550 432 480 128 480 96 
C 480 6 550 -64 646 -64 
C 717 -64 838 -20 877 109 
C 896 160 1133 1136 1171 1285 
C 1203 1427 1242 1562 1274 1705 
C 1299 1795 1325 1898 1344 1982 
C 1363 2040 1536 2355 1696 2495 
C 1773 2566 1939 2687 2202 2687 
C 2304 2687 2406 2674 2490 2633 
z
" id="CMMI12-72" transform="scale(0.015625)"/>
      </defs>
      <use transform="scale(0.996264)" xlink:href="#CMMI12-72"/>
      <use transform="translate(43.960894 -14.943915)scale(0.697382)" xlink:href="#CMR17-30"/>
     </g>
    </g>
   </g>
   <g id="line2d_52">
    <path clip-path="url(#p1b617f1099)" d="M 62.258598 221.662252 
L 65.697722 218.956554 
L 66.385547 218.575437 
L 67.073372 217.938506 
L 67.761197 217.536752 
L 68.449021 216.949723 
L 69.136846 216.552285 
L 69.824671 215.988461 
L 70.512496 215.616655 
L 71.200321 215.056085 
L 71.888146 214.725245 
L 72.575971 214.147915 
L 73.263795 213.874063 
L 73.95162 213.265341 
L 74.639445 213.059635 
L 75.32727 212.406813 
L 78.766394 210.573851 
L 79.454219 209.95979 
L 80.142044 209.664534 
L 80.829869 209.184647 
L 81.517694 209.010202 
L 82.205519 208.427627 
L 82.893343 208.171635 
L 84.956818 206.966316 
L 85.644643 206.788264 
L 86.332468 206.258418 
L 87.020293 206.041051 
L 87.708117 205.567194 
L 88.395942 205.32231 
L 89.083767 204.891786 
L 89.771592 204.629951 
L 90.459417 204.229741 
L 92.522891 203.317096 
L 94.586366 202.321348 
L 95.274191 202.089693 
L 95.962016 201.710299 
L 96.649841 201.504695 
L 97.337665 201.10996 
L 98.02549 200.937294 
L 98.713315 200.521302 
L 111.094163 195.657566 
L 111.781988 195.510267 
L 112.469812 195.158287 
L 113.157637 194.993394 
L 113.845462 194.667872 
L 114.533287 194.490307 
L 115.221112 194.184022 
L 117.284586 193.522676 
L 119.348061 192.77191 
L 120.035886 192.602265 
L 120.723711 192.313433 
L 121.411536 192.15837 
L 122.787185 191.639126 
L 128.977609 189.683487 
L 129.665434 189.540892 
L 131.041084 189.088118 
L 133.104558 188.437345 
L 134.480208 188.030442 
L 136.543682 187.446677 
L 140.670632 186.254828 
L 146.861055 184.549224 
L 147.54888 184.421866 
L 148.92453 184.018636 
L 155.802778 182.225823 
L 159.241903 181.330108 
L 196.384445 172.653641 
L 201.199219 171.609719 
L 206.013993 170.543947 
L 212.204417 169.22773 
L 215.643541 168.462842 
L 219.082665 167.751808 
L 221.833965 167.136344 
L 232.151338 164.911301 
L 255.537383 159.824187 
L 287.177326 152.475278 
L 301.621648 148.791189 
L 318.129445 144.160143 
L 329.134643 140.718411 
L 338.076366 137.642214 
L 343.578965 135.592299 
L 351.145038 132.515062 
L 356.647637 130.045344 
L 362.150236 127.334929 
L 367.652835 124.304679 
L 371.779784 121.774234 
L 375.906733 118.951147 
L 379.345857 116.312537 
L 382.097157 113.964717 
L 384.848456 111.351741 
L 387.599756 108.391594 
L 389.66323 105.853438 
L 391.726705 103.04232 
L 393.790179 99.742608 
L 395.165829 97.235033 
L 396.541479 94.381106 
L 397.917129 91.07506 
L 399.292778 87.123442 
L 400.668428 82.207564 
L 401.356253 79.206101 
L 402.044078 75.666362 
L 402.731903 71.342539 
L 403.419727 65.780996 
L 403.419727 65.780996 
" style="fill:none;stroke:#000000;stroke-dasharray:1.5,3;stroke-dashoffset:0;stroke-width:1.5;"/>
   </g>
   <g id="line2d_53">
    <path clip-path="url(#p1b617f1099)" d="M 62.258598 225.101688 
L 62.946423 224.463655 
L 63.634247 224.121484 
L 64.322072 223.519869 
L 65.009897 223.189706 
L 65.697722 222.607832 
L 66.385547 222.301793 
L 67.073372 221.725239 
L 67.761197 221.662252 
L 68.449021 220.874057 
L 69.136846 220.84192 
L 69.824671 220.04808 
L 75.32727 217.002043 
L 76.015095 216.874766 
L 76.70292 216.295058 
L 77.390745 216.235225 
L 78.078569 215.60753 
L 80.142044 214.725245 
L 80.829869 214.289181 
L 81.517694 214.153545 
L 82.205519 213.656164 
L 82.893343 213.598662 
L 83.581168 213.059635 
L 85.644643 212.278916 
L 86.332468 211.845458 
L 87.020293 211.775828 
L 87.708117 211.271304 
L 89.771592 210.573851 
L 90.459417 210.156948 
L 93.210716 209.089687 
L 93.898541 209.010202 
L 94.586366 208.573687 
L 95.274191 208.377808 
L 95.962016 208.065308 
L 96.649841 207.96769 
L 97.337665 207.566299 
L 99.40114 206.979786 
L 100.088965 206.596782 
L 102.15244 206.041051 
L 102.840264 205.65671 
L 103.528089 205.499444 
L 104.903739 204.972954 
L 106.279389 204.629951 
L 106.967214 204.303092 
L 109.030688 203.798774 
L 109.718513 203.429988 
L 110.406338 203.317096 
L 111.094163 203.002678 
L 112.469812 202.58026 
L 118.660236 200.798071 
L 120.035886 200.386462 
L 122.09936 199.746015 
L 124.162835 199.202924 
L 126.22631 198.583532 
L 126.914134 198.453236 
L 127.601959 198.209817 
L 128.289784 198.089276 
L 128.977609 197.822026 
L 129.665434 197.732205 
L 131.041084 197.266387 
L 135.855858 195.950295 
L 136.543682 195.827328 
L 137.919332 195.405753 
L 141.358456 194.477404 
L 142.046281 194.391279 
L 142.734106 194.110897 
L 143.421931 194.000288 
L 144.109756 193.744694 
L 145.485406 193.377974 
L 147.54888 192.873704 
L 148.92453 192.512647 
L 155.802778 190.641643 
L 159.241903 189.695034 
L 161.305377 189.162829 
L 163.368852 188.566732 
L 164.744502 188.186891 
L 173.686225 185.686001 
L 175.749699 185.051773 
L 177.813174 184.48018 
L 179.876648 183.819644 
L 184.691422 182.381945 
L 186.754897 181.674748 
L 191.569671 180.119407 
L 195.008795 178.910747 
L 197.760095 177.933141 
L 203.950519 175.642942 
L 207.389643 174.230067 
L 210.828767 172.797718 
L 220.458315 168.264003 
L 225.960914 165.296052 
L 231.463513 161.946612 
L 235.590462 159.141228 
L 239.717411 156.009167 
L 243.156535 153.094636 
L 246.59566 149.860141 
L 250.034784 146.210614 
L 252.786083 142.920267 
L 255.537383 139.228757 
L 258.288682 135.06597 
L 260.352157 131.551519 
L 262.415631 127.636679 
L 264.479106 123.247794 
L 266.542581 118.29628 
L 268.606055 112.677838 
L 270.66953 106.310655 
L 272.045179 101.631252 
L 274.108654 94.097715 
L 277.547778 80.856594 
L 279.611253 73.903915 
L 280.986903 70.125585 
L 282.362552 67.127204 
L 283.738202 64.836511 
L 285.801677 62.403275 
L 287.177326 61.232943 
L 289.240801 59.852645 
L 292.679925 57.939883 
L 296.11905 55.975704 
L 298.870349 54.158318 
L 301.621648 52.022453 
L 303.685123 50.166261 
L 305.748598 48.05361 
L 307.812072 45.640049 
L 309.875547 42.866957 
L 311.939021 39.651183 
L 314.002496 35.868844 
L 315.378146 32.941306 
L 316.753795 29.589594 
L 318.129445 25.681933 
L 319.505095 21.004842 
L 319.505095 21.004842 
" style="fill:none;stroke:#000000;stroke-dasharray:10.5,1.5,6,1.5;stroke-dashoffset:0;stroke-width:1.5;"/>
   </g>
   <g id="line2d_54">
    <path clip-path="url(#p1b617f1099)" d="M 62.258598 200.386462 
L 65.697722 199.69623 
L 69.136846 199.075888 
L 72.575971 198.42019 
L 74.639445 198.089276 
L 76.70292 197.685102 
L 78.078569 197.443207 
L 93.210716 194.910978 
L 95.274191 194.589857 
L 101.464615 193.602074 
L 104.903739 193.102925 
L 107.655038 192.647235 
L 123.47501 190.272042 
L 125.538485 190.0048 
L 127.601959 189.694264 
L 133.104558 188.862795 
L 135.168033 188.573261 
L 142.734106 187.470615 
L 154.427129 185.810933 
L 157.866253 185.297177 
L 160.617552 184.902464 
L 199.823569 179.192376 
L 210.140942 177.621193 
L 217.707016 176.464899 
L 223.897439 175.476239 
L 236.966112 173.372321 
L 242.468711 172.439567 
L 250.034784 171.143181 
L 259.664332 169.423898 
L 267.91823 167.896736 
L 285.801677 164.338458 
L 304.372948 160.183221 
L 317.44162 156.874458 
L 325.007694 154.772311 
L 333.261592 152.278243 
L 340.13984 150.009861 
L 348.393739 146.994795 
L 356.647637 143.563368 
L 364.21371 139.91207 
L 367.652835 138.056406 
L 371.779784 135.609807 
L 375.906733 132.875257 
L 379.345857 130.301384 
L 382.097157 128.009072 
L 384.848456 125.448568 
L 387.599756 122.54367 
L 389.66323 120.073998 
L 391.726705 117.271718 
L 393.790179 114.039936 
L 395.165829 111.561081 
L 396.541479 108.744566 
L 397.229304 107.173708 
L 397.917129 104.970099 
L 398.604953 103.611012 
L 401.356253 92.768404 
L 402.044078 89.062695 
L 402.731903 84.488336 
L 403.419727 78.48452 
L 404.107552 69.705695 
L 404.107552 69.705695 
" style="fill:none;stroke:#000000;stroke-dasharray:1.5,6;stroke-dashoffset:0;stroke-width:1.5;"/>
   </g>
   <g id="line2d_55">
    <path clip-path="url(#p1b617f1099)" d="M 62.258598 216.235225 
L 62.946423 216.019519 
L 65.009897 215.769407 
L 65.697722 215.489293 
L 66.385547 215.465131 
L 67.073372 215.225196 
L 67.761197 215.165686 
L 69.136846 214.870919 
L 71.200321 214.448666 
L 71.888146 214.43723 
L 72.575971 214.190184 
L 73.263795 214.153545 
L 73.95162 213.935195 
L 74.639445 213.874063 
L 76.015095 213.598662 
L 78.078569 213.174233 
L 85.644643 211.900348 
L 86.332468 211.666927 
L 87.020293 211.652125 
L 87.708117 211.416865 
L 88.395942 211.407126 
L 89.083767 211.165268 
L 100.77679 209.117694 
L 101.464615 208.888405 
L 103.528089 208.586259 
L 104.903739 208.27444 
L 107.655038 207.765927 
L 109.718513 207.329501 
L 110.406338 207.270763 
L 111.094163 207.064675 
L 112.469812 206.797794 
L 114.533287 206.410958 
L 119.348061 205.433711 
L 121.411536 205.059689 
L 123.47501 204.589206 
L 128.289784 203.636844 
L 129.665434 203.317096 
L 131.728908 202.825777 
L 135.168033 202.089693 
L 137.919332 201.43283 
L 153.739304 197.445529 
L 158.554078 196.095677 
L 168.183626 193.149106 
L 172.9984 191.484407 
L 176.437524 190.241104 
L 183.315773 187.549482 
L 190.194021 184.538675 
L 200.511394 179.17297 
L 204.638343 176.705481 
L 208.765293 174.006163 
L 212.204417 171.565488 
L 217.019191 167.774681 
L 220.458315 164.795744 
L 224.585264 160.855566 
L 228.024389 157.247852 
L 231.463513 153.329426 
L 234.902637 149.083815 
L 238.341761 144.535918 
L 243.156535 137.737559 
L 254.849558 121.035966 
L 258.288682 116.628477 
L 261.727807 112.566496 
L 265.166931 108.811093 
L 269.981705 103.815271 
L 270.66953 103.254265 
L 271.357355 102.483463 
L 272.045179 101.916081 
L 272.733004 101.14063 
L 273.420829 100.586707 
L 274.108654 99.821266 
L 274.796479 99.261162 
L 275.484304 98.50223 
L 276.172129 97.933615 
L 276.859953 97.166434 
L 277.547778 96.599014 
L 278.235603 95.833738 
L 278.923428 95.252339 
L 280.986903 93.115057 
L 281.674728 92.502503 
L 283.738202 90.298026 
L 285.113852 88.84119 
L 286.489502 87.345897 
L 288.552976 85.058974 
L 294.055575 78.127894 
L 297.494699 73.112684 
L 300.245999 68.574406 
L 302.997298 63.390227 
L 305.060773 58.929829 
L 307.124247 53.803254 
L 308.499897 49.888641 
L 309.875547 45.43895 
L 311.251196 40.260466 
L 312.626846 34.023529 
L 314.002496 26.090154 
L 314.690321 21.082129 
L 314.690321 21.082129 
" style="fill:none;stroke:#000000;stroke-dasharray:7.5,3,1.5,3;stroke-dashoffset:0;stroke-width:1.5;"/>
   </g>
   <g id="patch_3">
    <path d="M 45.16615 235.30653 
L 45.16615 10.8 
" style="fill:none;stroke:#000000;stroke-linecap:square;stroke-linejoin:miter;stroke-width:0.8;"/>
   </g>
   <g id="patch_4">
    <path d="M 421.2 235.30653 
L 421.2 10.8 
" style="fill:none;stroke:#000000;stroke-linecap:square;stroke-linejoin:miter;stroke-width:0.8;"/>
   </g>
   <g id="patch_5">
    <path d="M 45.16615 235.30653 
L 421.2 235.30653 
" style="fill:none;stroke:#000000;stroke-linecap:square;stroke-linejoin:miter;stroke-width:0.8;"/>
   </g>
   <g id="patch_6">
    <path d="M 45.16615 10.8 
L 421.2 10.8 
" style="fill:none;stroke:#000000;stroke-linecap:square;stroke-linejoin:miter;stroke-width:0.8;"/>
   </g>
   <g id="text_14">
    <!-- $r_0$ for fixed A$=1$ -->
    <g transform="translate(189.614569 4.8)scale(0.12 -0.12)">
     <defs>
      <path d="M 979 2585 
L 1709 2585 
L 1709 2752 
L 966 2752 
L 966 3539 
C 966 4076 1235 4377 1510 4377 
C 1594 4377 1690 4363 1754 4339 
C 1702 4326 1568 4281 1568 4121 
C 1568 3955 1696 3904 1786 3904 
C 1875 3904 2003 3955 2003 4121 
C 2003 4353 1773 4480 1517 4480 
C 1152 4480 653 4211 653 3526 
L 653 2752 
L 141 2752 
L 141 2585 
L 653 2585 
L 653 441 
C 653 198 627 166 218 166 
L 218 0 
C 371 12 666 12 832 12 
C 1018 12 1344 12 1517 0 
L 1517 166 
C 1056 166 979 166 979 454 
L 979 2585 
z
" id="CMR17-66" transform="scale(0.015625)"/>
      <path d="M 2758 1356 
C 2758 2176 2163 2816 1466 2816 
C 768 2816 173 2176 173 1356 
C 173 550 768 -64 1466 -64 
C 2163 -64 2758 550 2758 1356 
z
M 1466 51 
C 1165 51 909 230 762 480 
C 602 768 582 1126 582 1408 
C 582 1676 595 2009 762 2297 
C 890 2508 1139 2713 1466 2713 
C 1754 2713 1997 2553 2150 2329 
C 2349 2028 2349 1606 2349 1408 
C 2349 1158 2336 774 2163 467 
C 1984 172 1709 51 1466 51 
z
" id="CMR17-6f" transform="scale(0.015625)"/>
      <path d="M 960 1517 
C 960 2134 1222 2713 1702 2713 
C 1747 2713 1792 2707 1837 2687 
C 1837 2687 1696 2642 1696 2475 
C 1696 2321 1818 2257 1914 2257 
C 1990 2257 2131 2302 2131 2482 
C 2131 2687 1926 2816 1709 2816 
C 1222 2816 1011 2340 947 2115 
L 941 2115 
L 941 2816 
L 198 2745 
L 198 2578 
C 576 2578 634 2540 634 2231 
L 634 443 
C 634 198 608 166 198 166 
L 198 0 
C 352 12 646 12 813 12 
C 998 12 1325 12 1498 0 
L 1498 166 
C 1037 166 960 166 960 455 
L 960 1517 
z
" id="CMR17-72" transform="scale(0.015625)"/>
      <path d="M 2554 2816 
C 2400 2809 1926 2777 1805 2764 
C 1766 2758 1754 2758 1677 2758 
L 947 2758 
L 947 3517 
C 947 4127 1434 4416 1818 4416 
C 1939 4416 2214 4383 2355 4160 
C 2291 4160 2086 4160 2086 3935 
C 2086 3782 2189 3705 2317 3705 
C 2432 3705 2547 3769 2547 3942 
C 2547 4265 2240 4518 1843 4518 
C 1338 4518 634 4225 634 3517 
L 634 2758 
L 122 2758 
L 122 2591 
L 634 2591 
L 634 442 
C 634 198 608 166 198 166 
L 198 0 
C 352 12 634 12 794 12 
C 960 12 1242 12 1395 0 
L 1395 166 
C 986 166 960 192 960 442 
L 960 2591 
L 1901 2591 
C 2176 2591 2227 2534 2227 2251 
L 2227 442 
C 2227 198 2202 166 1792 166 
L 1792 0 
C 1946 12 2227 12 2387 12 
C 2554 12 2835 12 2989 0 
L 2989 166 
C 2579 166 2554 192 2554 442 
L 2554 2816 
z
" id="CMR17-c" transform="scale(0.015625)"/>
      <path d="M 1664 1491 
C 1856 1740 2074 2022 2253 2233 
C 2464 2476 2707 2579 2989 2585 
L 2989 2752 
C 2880 2745 2656 2739 2541 2739 
C 2368 2739 2170 2739 2022 2752 
L 2022 2585 
C 2112 2572 2163 2508 2163 2419 
C 2163 2304 2099 2233 2067 2188 
L 1594 1587 
L 1030 2323 
C 973 2393 973 2406 973 2438 
C 973 2515 1037 2579 1146 2585 
L 1146 2752 
C 992 2739 717 2739 557 2739 
C 384 2739 179 2739 38 2752 
L 38 2585 
C 384 2585 461 2560 614 2368 
L 1350 1414 
C 1363 1401 1395 1363 1395 1344 
C 1395 1318 838 633 768 544 
C 480 198 179 172 6 166 
L 6 0 
C 115 6 339 12 454 12 
C 582 12 864 12 979 0 
L 979 166 
C 941 172 838 185 838 332 
C 838 448 890 518 947 595 
L 1478 1248 
L 2035 524 
C 2086 454 2163 358 2163 313 
C 2163 224 2086 172 1984 166 
L 1984 0 
C 2138 12 2413 12 2573 12 
C 2746 12 2950 12 3091 0 
L 3091 166 
C 2771 166 2675 179 2522 377 
L 1664 1491 
z
" id="CMR17-78" transform="scale(0.015625)"/>
      <path d="M 2438 1503 
C 2464 1529 2464 1542 2464 1606 
C 2464 2251 2118 2816 1389 2816 
C 710 2816 173 2175 173 1394 
C 173 554 781 -64 1459 -64 
C 2176 -64 2458 619 2458 755 
C 2458 800 2419 800 2406 800 
C 2362 800 2355 787 2330 709 
C 2189 270 1837 51 1504 51 
C 1229 51 954 206 781 490 
C 582 819 582 1200 582 1503 
L 2438 1503 
z
M 589 1600 
C 634 2511 1126 2713 1382 2713 
C 1818 2713 2112 2308 2118 1600 
L 589 1600 
z
" id="CMR17-65" transform="scale(0.015625)"/>
      <path d="M 1869 4345 
L 1869 4179 
C 2246 4179 2304 4141 2304 3843 
L 2304 2371 
C 2278 2403 2016 2816 1498 2816 
C 845 2816 211 2228 211 1376 
C 211 529 806 -64 1434 -64 
C 1978 -64 2259 361 2291 406 
L 2291 -64 
L 3066 -13 
L 3066 154 
C 2688 154 2630 193 2630 503 
L 2630 4416 
L 1869 4345 
z
M 2291 762 
C 2291 568 2176 393 2029 264 
C 1811 70 1594 38 1472 38 
C 1286 38 621 135 621 1369 
C 621 2636 1363 2713 1530 2713 
C 1824 2713 2061 2545 2208 2313 
C 2291 2177 2291 2157 2291 2041 
L 2291 762 
z
" id="CMR17-64" transform="scale(0.015625)"/>
      <path d="M 2323 4441 
C 2291 4524 2278 4544 2214 4544 
C 2150 4544 2138 4524 2106 4441 
L 749 580 
C 627 236 371 166 147 166 
L 147 0 
C 262 12 518 12 640 12 
C 800 12 1056 12 1210 0 
L 1210 166 
C 909 179 864 382 864 459 
C 864 516 877 548 890 586 
L 1229 1536 
L 2906 1536 
L 3290 453 
C 3322 376 3322 363 3322 338 
C 3322 166 3046 166 2925 166 
L 2925 0 
C 3110 12 3443 12 3642 12 
C 3808 12 4128 12 4282 0 
L 4282 166 
C 3942 166 3827 166 3744 402 
L 2323 4441 
z
M 2067 3924 
L 2848 1702 
L 1286 1702 
L 2067 3924 
z
" id="CMR17-41" transform="scale(0.015625)"/>
     </defs>
     <use transform="scale(0.996264)" xlink:href="#CMMI12-72"/>
     <use transform="translate(43.960894 -14.943915)scale(0.697382)" xlink:href="#CMR17-30"/>
     <use transform="translate(106.518175 0)scale(0.996264)" xlink:href="#CMR17-66"/>
     <use transform="translate(133.991687 0)scale(0.996264)" xlink:href="#CMR17-6f"/>
     <use transform="translate(179.682164 0)scale(0.996264)" xlink:href="#CMR17-72"/>
     <use transform="translate(245.038898 0)scale(0.996264)" xlink:href="#CMR17-c"/>
     <use transform="translate(294.781122 0)scale(0.996264)" xlink:href="#CMR17-78"/>
     <use transform="translate(343.074038 0)scale(0.996264)" xlink:href="#CMR17-65"/>
     <use transform="translate(383.559698 0)scale(0.996264)" xlink:href="#CMR17-64"/>
     <use transform="translate(464.531034 0)scale(0.996264)" xlink:href="#CMR17-41"/>
     <use transform="translate(533.603464 0)scale(0.996264)" xlink:href="#CMR17-3d"/>
     <use transform="translate(632.992261 0)scale(0.996264)" xlink:href="#CMR17-31"/>
    </g>
   </g>
   <g id="legend_1">
    <g id="patch_7">
     <path d="M 52.16615 74.548713 
L 154.835314 74.548713 
Q 156.835314 74.548713 156.835314 72.548713 
L 156.835314 17.8 
Q 156.835314 15.8 154.835314 15.8 
L 52.16615 15.8 
Q 50.16615 15.8 50.16615 17.8 
L 50.16615 72.548713 
Q 50.16615 74.548713 52.16615 74.548713 
z
" style="fill:#ffffff;opacity:0.8;stroke:#cccccc;stroke-linejoin:miter;"/>
    </g>
    <g id="line2d_56">
     <path d="M 54.16615 23.3 
L 74.16615 23.3 
" style="fill:none;stroke:#000000;stroke-dasharray:1.5,3;stroke-dashoffset:0;stroke-width:1.5;"/>
    </g>
    <g id="line2d_57"/>
    <g id="text_15">
     <!-- LE for $p_0$=0.1 -->
     <g transform="translate(82.16615 26.8)scale(0.1 -0.1)">
      <defs>
       <path d="M 3469 1612 
L 3354 1612 
C 3302 981 3219 166 2125 166 
L 1530 166 
C 1274 166 1261 198 1261 414 
L 1261 3892 
C 1261 4121 1274 4185 1760 4185 
L 1901 4185 
L 1901 4352 
C 1638 4339 1331 4339 1069 4339 
C 870 4339 512 4339 326 4352 
L 326 4185 
C 768 4185 838 4185 838 3898 
L 838 453 
C 838 166 768 166 326 166 
L 326 0 
L 3315 0 
L 3469 1612 
z
" id="CMR17-4c" transform="scale(0.015625)"/>
       <path d="M 3885 1614 
L 3770 1614 
C 3629 676 3546 166 2419 166 
L 1530 166 
C 1274 166 1261 198 1261 415 
L 1261 2176 
L 1862 2176 
C 2464 2176 2522 1959 2522 1429 
L 2637 1429 
L 2637 3086 
L 2522 3086 
C 2522 2558 2464 2342 1862 2342 
L 1261 2342 
L 1261 3924 
C 1261 4141 1274 4172 1530 4172 
L 2406 4172 
C 3398 4172 3514 3778 3603 2933 
L 3718 2933 
L 3565 4339 
L 326 4339 
L 326 4172 
C 768 4172 838 4172 838 3886 
L 838 453 
C 838 166 768 166 326 166 
L 326 0 
L 3654 0 
L 3885 1614 
z
" id="CMR17-45" transform="scale(0.015625)"/>
       <path d="M 275 -794 
C 230 -981 205 -1031 -58 -1031 
C -135 -1031 -199 -1031 -199 -1152 
C -199 -1165 -192 -1216 -122 -1216 
C -39 -1216 51 -1204 134 -1204 
L 410 -1204 
C 544 -1204 870 -1216 1005 -1216 
C 1043 -1216 1120 -1216 1120 -1101 
C 1120 -1031 1075 -1031 966 -1031 
C 672 -1031 653 -987 653 -937 
C 653 -863 941 217 979 364 
C 1050 185 1222 -64 1555 -64 
C 2278 -64 3059 874 3059 1813 
C 3059 2400 2726 2816 2246 2816 
C 1837 2816 1491 2419 1421 2330 
C 1370 2649 1120 2816 864 2816 
C 678 2816 531 2726 410 2483 
C 294 2253 205 1864 205 1838 
C 205 1813 230 1781 275 1781 
C 326 1781 333 1787 371 1934 
C 467 2311 589 2687 845 2687 
C 992 2687 1043 2585 1043 2394 
C 1043 2241 1024 2177 998 2062 
L 275 -794 
z
M 1382 1992 
C 1427 2170 1606 2356 1709 2445 
C 1779 2509 1990 2687 2234 2687 
C 2515 2687 2643 2407 2643 2075 
C 2643 1768 2464 1047 2304 715 
C 2144 370 1850 64 1555 64 
C 1120 64 1050 613 1050 638 
C 1050 657 1062 708 1069 740 
L 1382 1992 
z
" id="CMMI12-70" transform="scale(0.015625)"/>
       <path d="M 1062 262 
C 1062 422 934 524 800 524 
C 672 524 538 422 538 262 
C 538 102 666 0 800 0 
C 928 0 1062 102 1062 262 
z
" id="CMR17-2e" transform="scale(0.015625)"/>
      </defs>
      <use transform="scale(0.996264)" xlink:href="#CMR17-4c"/>
      <use transform="translate(57.381408 0)scale(0.996264)" xlink:href="#CMR17-45"/>
      <use transform="translate(150.043675 0)scale(0.996264)" xlink:href="#CMR17-66"/>
      <use transform="translate(177.517187 0)scale(0.996264)" xlink:href="#CMR17-6f"/>
      <use transform="translate(223.207664 0)scale(0.996264)" xlink:href="#CMR17-72"/>
      <use transform="translate(288.564398 0)scale(0.996264)" xlink:href="#CMMI12-70"/>
      <use transform="translate(337.523912 -14.943915)scale(0.697382)" xlink:href="#CMR17-30"/>
      <use transform="translate(370.005226 0)scale(0.996264)" xlink:href="#CMR17-3d"/>
      <use transform="translate(441.720015 0)scale(0.996264)" xlink:href="#CMR17-30"/>
      <use transform="translate(487.410492 0)scale(0.996264)" xlink:href="#CMR17-2e"/>
      <use transform="translate(512.28155 0)scale(0.996264)" xlink:href="#CMR17-31"/>
     </g>
    </g>
    <g id="line2d_58">
     <path d="M 54.16615 37.237178 
L 74.16615 37.237178 
" style="fill:none;stroke:#000000;stroke-dasharray:10.5,1.5,6,1.5;stroke-dashoffset:0;stroke-width:1.5;"/>
    </g>
    <g id="line2d_59"/>
    <g id="text_16">
     <!-- TOV for $p_0$=0.1 -->
     <g transform="translate(82.16615 40.737178)scale(0.1 -0.1)">
      <defs>
       <path d="M 3981 4332 
L 288 4332 
L 179 2924 
L 294 2924 
C 378 3981 467 4166 1453 4166 
C 1568 4166 1754 4166 1805 4159 
C 1926 4140 1926 4064 1926 3917 
L 1926 465 
C 1926 236 1907 166 1376 166 
L 1197 166 
L 1197 0 
C 1504 6 1824 12 2138 12 
C 2451 12 2771 6 3078 0 
L 3078 166 
L 2899 166 
C 2368 166 2349 236 2349 465 
L 2349 3917 
C 2349 4057 2349 4134 2464 4159 
C 2515 4166 2701 4166 2816 4166 
C 3795 4166 3891 3981 3974 2924 
L 4090 2924 
L 3981 4332 
z
" id="CMR17-54" transform="scale(0.015625)"/>
       <path d="M 4307 2166 
C 4307 3488 3366 4480 2304 4480 
C 1216 4480 294 3475 294 2166 
C 294 857 1229 -128 2298 -128 
C 3392 -128 4307 876 4307 2166 
z
M 2304 -13 
C 1574 -13 781 722 781 2250 
C 781 3771 1651 4364 2298 4364 
C 2976 4364 3821 3752 3821 2250 
C 3821 696 3008 -13 2304 -13 
z
" id="CMR17-4f" transform="scale(0.015625)"/>
       <path d="M 3776 3762 
C 3834 3903 3936 4179 4365 4185 
L 4365 4352 
C 4218 4339 4051 4339 3891 4339 
C 3738 4339 3475 4339 3328 4352 
L 3328 4185 
C 3648 4166 3661 3942 3661 3903 
C 3661 3833 3642 3788 3622 3737 
L 2362 448 
L 1043 3903 
C 1024 3948 1011 3980 1011 4012 
C 1011 4185 1267 4185 1402 4185 
L 1402 4352 
C 1197 4339 896 4339 685 4339 
C 518 4339 218 4339 64 4352 
L 64 4185 
C 435 4185 506 4160 582 3955 
L 2106 -26 
C 2138 -116 2144 -128 2214 -128 
C 2285 -128 2291 -116 2323 -26 
L 3776 3762 
z
" id="CMR17-56" transform="scale(0.015625)"/>
      </defs>
      <use transform="scale(0.996264)" xlink:href="#CMR17-54"/>
      <use transform="translate(66.509881 0)scale(0.996264)" xlink:href="#CMR17-4f"/>
      <use transform="translate(135.622215 0)scale(0.996264)" xlink:href="#CMR17-56"/>
      <use transform="translate(234.770611 0)scale(0.996264)" xlink:href="#CMR17-66"/>
      <use transform="translate(262.244124 0)scale(0.996264)" xlink:href="#CMR17-6f"/>
      <use transform="translate(307.934601 0)scale(0.996264)" xlink:href="#CMR17-72"/>
      <use transform="translate(373.291335 0)scale(0.996264)" xlink:href="#CMMI12-70"/>
      <use transform="translate(422.250849 -14.943915)scale(0.697382)" xlink:href="#CMR17-30"/>
      <use transform="translate(454.732163 0)scale(0.996264)" xlink:href="#CMR17-3d"/>
      <use transform="translate(526.446951 0)scale(0.996264)" xlink:href="#CMR17-30"/>
      <use transform="translate(572.137428 0)scale(0.996264)" xlink:href="#CMR17-2e"/>
      <use transform="translate(597.008487 0)scale(0.996264)" xlink:href="#CMR17-31"/>
     </g>
    </g>
    <g id="line2d_60">
     <path d="M 54.16615 51.174357 
L 74.16615 51.174357 
" style="fill:none;stroke:#000000;stroke-dasharray:1.5,6;stroke-dashoffset:0;stroke-width:1.5;"/>
    </g>
    <g id="line2d_61"/>
    <g id="text_17">
     <!-- LE for $p_0$=1 -->
     <g transform="translate(82.16615 54.674357)scale(0.1 -0.1)">
      <use transform="scale(0.996264)" xlink:href="#CMR17-4c"/>
      <use transform="translate(57.381408 0)scale(0.996264)" xlink:href="#CMR17-45"/>
      <use transform="translate(150.043675 0)scale(0.996264)" xlink:href="#CMR17-66"/>
      <use transform="translate(177.517187 0)scale(0.996264)" xlink:href="#CMR17-6f"/>
      <use transform="translate(223.207664 0)scale(0.996264)" xlink:href="#CMR17-72"/>
      <use transform="translate(288.564398 0)scale(0.996264)" xlink:href="#CMMI12-70"/>
      <use transform="translate(337.523912 -14.943915)scale(0.697382)" xlink:href="#CMR17-30"/>
      <use transform="translate(370.005226 0)scale(0.996264)" xlink:href="#CMR17-3d"/>
      <use transform="translate(441.720015 0)scale(0.996264)" xlink:href="#CMR17-31"/>
     </g>
    </g>
    <g id="line2d_62">
     <path d="M 54.16615 65.111535 
L 74.16615 65.111535 
" style="fill:none;stroke:#000000;stroke-dasharray:7.5,3,1.5,3;stroke-dashoffset:0;stroke-width:1.5;"/>
    </g>
    <g id="line2d_63"/>
    <g id="text_18">
     <!-- TOV for $p_0$=1 -->
     <g transform="translate(82.16615 68.611535)scale(0.1 -0.1)">
      <use transform="scale(0.996264)" xlink:href="#CMR17-54"/>
      <use transform="translate(66.509881 0)scale(0.996264)" xlink:href="#CMR17-4f"/>
      <use transform="translate(135.622215 0)scale(0.996264)" xlink:href="#CMR17-56"/>
      <use transform="translate(234.770611 0)scale(0.996264)" xlink:href="#CMR17-66"/>
      <use transform="translate(262.244124 0)scale(0.996264)" xlink:href="#CMR17-6f"/>
      <use transform="translate(307.934601 0)scale(0.996264)" xlink:href="#CMR17-72"/>
      <use transform="translate(373.291335 0)scale(0.996264)" xlink:href="#CMMI12-70"/>
      <use transform="translate(422.250849 -14.943915)scale(0.697382)" xlink:href="#CMR17-30"/>
      <use transform="translate(454.732163 0)scale(0.996264)" xlink:href="#CMR17-3d"/>
      <use transform="translate(526.446951 0)scale(0.996264)" xlink:href="#CMR17-31"/>
     </g>
    </g>
   </g>
  </g>
 </g>
 <defs>
  <clipPath id="p1b617f1099">
   <rect height="224.50653" width="376.03385" x="45.16615" y="10.8"/>
  </clipPath>
 </defs>
</svg>
