<?xml version="1.0" encoding="utf-8" standalone="no"?>
<!DOCTYPE svg PUBLIC "-//W3C//DTD SVG 1.1//EN"
  "http://www.w3.org/Graphics/SVG/1.1/DTD/svg11.dtd">
<!-- Created with matplotlib (https://matplotlib.org/) -->
<svg height="576pt" version="1.1" viewBox="0 0 460.8 576" width="460.8pt" xmlns="http://www.w3.org/2000/svg" xmlns:xlink="http://www.w3.org/1999/xlink">
 <metadata>
  <rdf:RDF xmlns:cc="http://creativecommons.org/ns#" xmlns:dc="http://purl.org/dc/elements/1.1/" xmlns:rdf="http://www.w3.org/1999/02/22-rdf-syntax-ns#">
   <cc:Work>
    <dc:type rdf:resource="http://purl.org/dc/dcmitype/StillImage"/>
    <dc:date>2020-10-15T13:14:46.969363</dc:date>
    <dc:format>image/svg+xml</dc:format>
    <dc:creator>
     <cc:Agent>
      <dc:title>Matplotlib v3.3.2, https://matplotlib.org/</dc:title>
     </cc:Agent>
    </dc:creator>
   </cc:Work>
  </rdf:RDF>
 </metadata>
 <defs>
  <style type="text/css">*{stroke-linecap:butt;stroke-linejoin:round;}</style>
 </defs>
 <g id="figure_1">
  <g id="patch_1">
   <path d="M 0 576 
L 460.8 576 
L 460.8 0 
L 0 0 
z
" style="fill:#ffffff;"/>
  </g>
  <g id="axes_1">
   <g id="patch_2">
    <path d="M 57.6 266.792727 
L 414.72 266.792727 
L 414.72 69.12 
L 57.6 69.12 
z
" style="fill:#ffffff;"/>
   </g>
   <g id="matplotlib.axis_1">
    <g id="xtick_1">
     <g id="line2d_1">
      <defs>
       <path d="M 0 0 
L 0 3.5 
" id="m2c2a1c1685" style="stroke:#000000;stroke-width:0.8;"/>
      </defs>
      <g>
       <use style="stroke:#000000;stroke-width:0.8;" x="73.832727" xlink:href="#m2c2a1c1685" y="266.792727"/>
      </g>
     </g>
     <g id="text_1">
      <!-- 0.0 -->
      <g transform="translate(65.881165 281.391165)scale(0.1 -0.1)">
       <defs>
        <path d="M 31.78125 66.40625 
Q 24.171875 66.40625 20.328125 58.90625 
Q 16.5 51.421875 16.5 36.375 
Q 16.5 21.390625 20.328125 13.890625 
Q 24.171875 6.390625 31.78125 6.390625 
Q 39.453125 6.390625 43.28125 13.890625 
Q 47.125 21.390625 47.125 36.375 
Q 47.125 51.421875 43.28125 58.90625 
Q 39.453125 66.40625 31.78125 66.40625 
z
M 31.78125 74.21875 
Q 44.046875 74.21875 50.515625 64.515625 
Q 56.984375 54.828125 56.984375 36.375 
Q 56.984375 17.96875 50.515625 8.265625 
Q 44.046875 -1.421875 31.78125 -1.421875 
Q 19.53125 -1.421875 13.0625 8.265625 
Q 6.59375 17.96875 6.59375 36.375 
Q 6.59375 54.828125 13.0625 64.515625 
Q 19.53125 74.21875 31.78125 74.21875 
z
" id="DejaVuSans-48"/>
        <path d="M 10.6875 12.40625 
L 21 12.40625 
L 21 0 
L 10.6875 0 
z
" id="DejaVuSans-46"/>
       </defs>
       <use xlink:href="#DejaVuSans-48"/>
       <use x="63.623047" xlink:href="#DejaVuSans-46"/>
       <use x="95.410156" xlink:href="#DejaVuSans-48"/>
      </g>
     </g>
    </g>
    <g id="xtick_2">
     <g id="line2d_2">
      <g>
       <use style="stroke:#000000;stroke-width:0.8;" x="127.941818" xlink:href="#m2c2a1c1685" y="266.792727"/>
      </g>
     </g>
     <g id="text_2">
      <!-- 0.2 -->
      <g transform="translate(119.990256 281.391165)scale(0.1 -0.1)">
       <defs>
        <path d="M 19.1875 8.296875 
L 53.609375 8.296875 
L 53.609375 0 
L 7.328125 0 
L 7.328125 8.296875 
Q 12.9375 14.109375 22.625 23.890625 
Q 32.328125 33.6875 34.8125 36.53125 
Q 39.546875 41.84375 41.421875 45.53125 
Q 43.3125 49.21875 43.3125 52.78125 
Q 43.3125 58.59375 39.234375 62.25 
Q 35.15625 65.921875 28.609375 65.921875 
Q 23.96875 65.921875 18.8125 64.3125 
Q 13.671875 62.703125 7.8125 59.421875 
L 7.8125 69.390625 
Q 13.765625 71.78125 18.9375 73 
Q 24.125 74.21875 28.421875 74.21875 
Q 39.75 74.21875 46.484375 68.546875 
Q 53.21875 62.890625 53.21875 53.421875 
Q 53.21875 48.921875 51.53125 44.890625 
Q 49.859375 40.875 45.40625 35.40625 
Q 44.1875 33.984375 37.640625 27.21875 
Q 31.109375 20.453125 19.1875 8.296875 
z
" id="DejaVuSans-50"/>
       </defs>
       <use xlink:href="#DejaVuSans-48"/>
       <use x="63.623047" xlink:href="#DejaVuSans-46"/>
       <use x="95.410156" xlink:href="#DejaVuSans-50"/>
      </g>
     </g>
    </g>
    <g id="xtick_3">
     <g id="line2d_3">
      <g>
       <use style="stroke:#000000;stroke-width:0.8;" x="182.050909" xlink:href="#m2c2a1c1685" y="266.792727"/>
      </g>
     </g>
     <g id="text_3">
      <!-- 0.4 -->
      <g transform="translate(174.099347 281.391165)scale(0.1 -0.1)">
       <defs>
        <path d="M 37.796875 64.3125 
L 12.890625 25.390625 
L 37.796875 25.390625 
z
M 35.203125 72.90625 
L 47.609375 72.90625 
L 47.609375 25.390625 
L 58.015625 25.390625 
L 58.015625 17.1875 
L 47.609375 17.1875 
L 47.609375 0 
L 37.796875 0 
L 37.796875 17.1875 
L 4.890625 17.1875 
L 4.890625 26.703125 
z
" id="DejaVuSans-52"/>
       </defs>
       <use xlink:href="#DejaVuSans-48"/>
       <use x="63.623047" xlink:href="#DejaVuSans-46"/>
       <use x="95.410156" xlink:href="#DejaVuSans-52"/>
      </g>
     </g>
    </g>
    <g id="xtick_4">
     <g id="line2d_4">
      <g>
       <use style="stroke:#000000;stroke-width:0.8;" x="236.16" xlink:href="#m2c2a1c1685" y="266.792727"/>
      </g>
     </g>
     <g id="text_4">
      <!-- 0.6 -->
      <g transform="translate(228.208437 281.391165)scale(0.1 -0.1)">
       <defs>
        <path d="M 33.015625 40.375 
Q 26.375 40.375 22.484375 35.828125 
Q 18.609375 31.296875 18.609375 23.390625 
Q 18.609375 15.53125 22.484375 10.953125 
Q 26.375 6.390625 33.015625 6.390625 
Q 39.65625 6.390625 43.53125 10.953125 
Q 47.40625 15.53125 47.40625 23.390625 
Q 47.40625 31.296875 43.53125 35.828125 
Q 39.65625 40.375 33.015625 40.375 
z
M 52.59375 71.296875 
L 52.59375 62.3125 
Q 48.875 64.0625 45.09375 64.984375 
Q 41.3125 65.921875 37.59375 65.921875 
Q 27.828125 65.921875 22.671875 59.328125 
Q 17.53125 52.734375 16.796875 39.40625 
Q 19.671875 43.65625 24.015625 45.921875 
Q 28.375 48.1875 33.59375 48.1875 
Q 44.578125 48.1875 50.953125 41.515625 
Q 57.328125 34.859375 57.328125 23.390625 
Q 57.328125 12.15625 50.6875 5.359375 
Q 44.046875 -1.421875 33.015625 -1.421875 
Q 20.359375 -1.421875 13.671875 8.265625 
Q 6.984375 17.96875 6.984375 36.375 
Q 6.984375 53.65625 15.1875 63.9375 
Q 23.390625 74.21875 37.203125 74.21875 
Q 40.921875 74.21875 44.703125 73.484375 
Q 48.484375 72.75 52.59375 71.296875 
z
" id="DejaVuSans-54"/>
       </defs>
       <use xlink:href="#DejaVuSans-48"/>
       <use x="63.623047" xlink:href="#DejaVuSans-46"/>
       <use x="95.410156" xlink:href="#DejaVuSans-54"/>
      </g>
     </g>
    </g>
    <g id="xtick_5">
     <g id="line2d_5">
      <g>
       <use style="stroke:#000000;stroke-width:0.8;" x="290.269091" xlink:href="#m2c2a1c1685" y="266.792727"/>
      </g>
     </g>
     <g id="text_5">
      <!-- 0.8 -->
      <g transform="translate(282.317528 281.391165)scale(0.1 -0.1)">
       <defs>
        <path d="M 31.78125 34.625 
Q 24.75 34.625 20.71875 30.859375 
Q 16.703125 27.09375 16.703125 20.515625 
Q 16.703125 13.921875 20.71875 10.15625 
Q 24.75 6.390625 31.78125 6.390625 
Q 38.8125 6.390625 42.859375 10.171875 
Q 46.921875 13.96875 46.921875 20.515625 
Q 46.921875 27.09375 42.890625 30.859375 
Q 38.875 34.625 31.78125 34.625 
z
M 21.921875 38.8125 
Q 15.578125 40.375 12.03125 44.71875 
Q 8.5 49.078125 8.5 55.328125 
Q 8.5 64.0625 14.71875 69.140625 
Q 20.953125 74.21875 31.78125 74.21875 
Q 42.671875 74.21875 48.875 69.140625 
Q 55.078125 64.0625 55.078125 55.328125 
Q 55.078125 49.078125 51.53125 44.71875 
Q 48 40.375 41.703125 38.8125 
Q 48.828125 37.15625 52.796875 32.3125 
Q 56.78125 27.484375 56.78125 20.515625 
Q 56.78125 9.90625 50.3125 4.234375 
Q 43.84375 -1.421875 31.78125 -1.421875 
Q 19.734375 -1.421875 13.25 4.234375 
Q 6.78125 9.90625 6.78125 20.515625 
Q 6.78125 27.484375 10.78125 32.3125 
Q 14.796875 37.15625 21.921875 38.8125 
z
M 18.3125 54.390625 
Q 18.3125 48.734375 21.84375 45.5625 
Q 25.390625 42.390625 31.78125 42.390625 
Q 38.140625 42.390625 41.71875 45.5625 
Q 45.3125 48.734375 45.3125 54.390625 
Q 45.3125 60.0625 41.71875 63.234375 
Q 38.140625 66.40625 31.78125 66.40625 
Q 25.390625 66.40625 21.84375 63.234375 
Q 18.3125 60.0625 18.3125 54.390625 
z
" id="DejaVuSans-56"/>
       </defs>
       <use xlink:href="#DejaVuSans-48"/>
       <use x="63.623047" xlink:href="#DejaVuSans-46"/>
       <use x="95.410156" xlink:href="#DejaVuSans-56"/>
      </g>
     </g>
    </g>
    <g id="xtick_6">
     <g id="line2d_6">
      <g>
       <use style="stroke:#000000;stroke-width:0.8;" x="344.378182" xlink:href="#m2c2a1c1685" y="266.792727"/>
      </g>
     </g>
     <g id="text_6">
      <!-- 1.0 -->
      <g transform="translate(336.426619 281.391165)scale(0.1 -0.1)">
       <defs>
        <path d="M 12.40625 8.296875 
L 28.515625 8.296875 
L 28.515625 63.921875 
L 10.984375 60.40625 
L 10.984375 69.390625 
L 28.421875 72.90625 
L 38.28125 72.90625 
L 38.28125 8.296875 
L 54.390625 8.296875 
L 54.390625 0 
L 12.40625 0 
z
" id="DejaVuSans-49"/>
       </defs>
       <use xlink:href="#DejaVuSans-49"/>
       <use x="63.623047" xlink:href="#DejaVuSans-46"/>
       <use x="95.410156" xlink:href="#DejaVuSans-48"/>
      </g>
     </g>
    </g>
    <g id="xtick_7">
     <g id="line2d_7">
      <g>
       <use style="stroke:#000000;stroke-width:0.8;" x="398.487273" xlink:href="#m2c2a1c1685" y="266.792727"/>
      </g>
     </g>
     <g id="text_7">
      <!-- 1.2 -->
      <g transform="translate(390.53571 281.391165)scale(0.1 -0.1)">
       <use xlink:href="#DejaVuSans-49"/>
       <use x="63.623047" xlink:href="#DejaVuSans-46"/>
       <use x="95.410156" xlink:href="#DejaVuSans-50"/>
      </g>
     </g>
    </g>
   </g>
   <g id="matplotlib.axis_2">
    <g id="ytick_1">
     <g id="line2d_8">
      <defs>
       <path d="M 0 0 
L -3.5 0 
" id="m8671641c83" style="stroke:#000000;stroke-width:0.8;"/>
      </defs>
      <g>
       <use style="stroke:#000000;stroke-width:0.8;" x="57.6" xlink:href="#m8671641c83" y="257.829278"/>
      </g>
     </g>
     <g id="text_8">
      <!-- 0.0 -->
      <g transform="translate(34.696875 261.628497)scale(0.1 -0.1)">
       <use xlink:href="#DejaVuSans-48"/>
       <use x="63.623047" xlink:href="#DejaVuSans-46"/>
       <use x="95.410156" xlink:href="#DejaVuSans-48"/>
      </g>
     </g>
    </g>
    <g id="ytick_2">
     <g id="line2d_9">
      <g>
       <use style="stroke:#000000;stroke-width:0.8;" x="57.6" xlink:href="#m8671641c83" y="221.884447"/>
      </g>
     </g>
     <g id="text_9">
      <!-- 0.2 -->
      <g transform="translate(34.696875 225.683666)scale(0.1 -0.1)">
       <use xlink:href="#DejaVuSans-48"/>
       <use x="63.623047" xlink:href="#DejaVuSans-46"/>
       <use x="95.410156" xlink:href="#DejaVuSans-50"/>
      </g>
     </g>
    </g>
    <g id="ytick_3">
     <g id="line2d_10">
      <g>
       <use style="stroke:#000000;stroke-width:0.8;" x="57.6" xlink:href="#m8671641c83" y="185.939616"/>
      </g>
     </g>
     <g id="text_10">
      <!-- 0.4 -->
      <g transform="translate(34.696875 189.738835)scale(0.1 -0.1)">
       <use xlink:href="#DejaVuSans-48"/>
       <use x="63.623047" xlink:href="#DejaVuSans-46"/>
       <use x="95.410156" xlink:href="#DejaVuSans-52"/>
      </g>
     </g>
    </g>
    <g id="ytick_4">
     <g id="line2d_11">
      <g>
       <use style="stroke:#000000;stroke-width:0.8;" x="57.6" xlink:href="#m8671641c83" y="149.994786"/>
      </g>
     </g>
     <g id="text_11">
      <!-- 0.6 -->
      <g transform="translate(34.696875 153.794004)scale(0.1 -0.1)">
       <use xlink:href="#DejaVuSans-48"/>
       <use x="63.623047" xlink:href="#DejaVuSans-46"/>
       <use x="95.410156" xlink:href="#DejaVuSans-54"/>
      </g>
     </g>
    </g>
    <g id="ytick_5">
     <g id="line2d_12">
      <g>
       <use style="stroke:#000000;stroke-width:0.8;" x="57.6" xlink:href="#m8671641c83" y="114.049955"/>
      </g>
     </g>
     <g id="text_12">
      <!-- 0.8 -->
      <g transform="translate(34.696875 117.849174)scale(0.1 -0.1)">
       <use xlink:href="#DejaVuSans-48"/>
       <use x="63.623047" xlink:href="#DejaVuSans-46"/>
       <use x="95.410156" xlink:href="#DejaVuSans-56"/>
      </g>
     </g>
    </g>
    <g id="ytick_6">
     <g id="line2d_13">
      <g>
       <use style="stroke:#000000;stroke-width:0.8;" x="57.6" xlink:href="#m8671641c83" y="78.105124"/>
      </g>
     </g>
     <g id="text_13">
      <!-- 1.0 -->
      <g transform="translate(34.696875 81.904343)scale(0.1 -0.1)">
       <use xlink:href="#DejaVuSans-49"/>
       <use x="63.623047" xlink:href="#DejaVuSans-46"/>
       <use x="95.410156" xlink:href="#DejaVuSans-48"/>
      </g>
     </g>
    </g>
   </g>
   <g id="line2d_14">
    <path clip-path="url(#p27d73bca5e)" d="M 73.832727 78.105124 
L 76.538182 78.724996 
L 79.243636 80.407099 
L 81.949091 83.167867 
L 84.654545 86.954338 
L 87.36 91.692357 
L 90.065455 97.290611 
L 92.770909 103.643843 
L 95.476364 110.636273 
L 98.181818 118.145208 
L 100.887273 126.044698 
L 103.592727 134.209103 
L 106.298182 142.516429 
L 109.003636 150.851316 
L 111.709091 159.107584 
L 114.414545 167.190257 
L 117.12 175.017045 
L 119.825455 182.519251 
L 122.530909 189.64213 
L 125.236364 196.344734 
L 127.941818 202.599312 
L 130.647273 208.390322 
L 133.352727 213.713162 
L 136.058182 218.572695 
L 138.763636 222.981669 
L 141.469091 226.959105 
L 144.174545 230.528738 
L 146.88 233.717569 
L 149.585455 236.554562 
L 152.290909 239.069532 
L 154.996364 241.292223 
L 157.701818 243.251582 
L 160.407273 244.975217 
L 163.112727 246.489024 
L 165.818182 247.81695 
L 168.523636 248.980882 
L 171.229091 250.000618 
L 173.934545 250.89392 
L 176.64 251.676603 
L 179.345455 252.362668 
L 182.050909 252.964446 
L 184.756364 253.492752 
L 187.461818 253.95704 
L 190.167273 254.365553 
L 192.872727 254.725464 
L 195.578182 255.043002 
L 198.283636 255.323577 
L 200.989091 255.571876 
L 203.694545 255.791968 
L 206.4 255.987377 
L 209.105455 256.161162 
L 211.810909 256.315976 
L 214.516364 256.454125 
L 217.221818 256.57761 
L 219.927273 256.688175 
L 222.632727 256.787337 
L 225.338182 256.876419 
L 228.043636 256.956578 
L 230.749091 257.028824 
L 233.454545 257.094041 
L 236.16 257.153006 
L 238.865455 257.206399 
L 241.570909 257.254821 
L 244.276364 257.298798 
L 246.981818 257.338797 
L 249.687273 257.375228 
L 252.392727 257.408457 
L 255.098182 257.438805 
L 257.803636 257.466558 
L 260.509091 257.491973 
L 263.214545 257.515274 
L 265.92 257.536664 
L 268.625455 257.556323 
L 271.330909 257.574413 
L 274.036364 257.591078 
L 276.741818 257.606447 
L 279.447273 257.620637 
L 282.152727 257.633752 
L 284.858182 257.645886 
L 287.563636 257.657123 
L 290.269091 257.667541 
L 292.974545 257.677209 
L 295.68 257.686188 
L 298.385455 257.694536 
L 301.090909 257.702304 
L 303.796364 257.709539 
L 306.501818 257.716283 
L 309.207273 257.722575 
L 311.912727 257.728449 
L 314.618182 257.733938 
L 317.323636 257.739072 
L 320.029091 257.743876 
L 322.734545 257.748376 
L 325.44 257.752593 
L 328.145455 257.756549 
L 330.850909 257.760261 
L 333.556364 257.763749 
L 336.261818 257.767026 
L 338.967273 257.770109 
L 341.672727 257.77301 
L 344.378182 257.775742 
L 347.083636 257.778316 
L 349.789091 257.780743 
L 352.494545 257.783032 
L 355.2 257.785193 
L 357.905455 257.787234 
L 360.610909 257.789163 
L 363.316364 257.790987 
L 366.021818 257.792712 
L 368.727273 257.794345 
L 371.432727 257.795892 
L 374.138182 257.797357 
L 376.843636 257.798746 
L 379.549091 257.800063 
L 382.254545 257.801313 
L 384.96 257.8025 
L 387.665455 257.803626 
L 390.370909 257.804697 
L 393.076364 257.805715 
L 395.781818 257.806683 
L 398.487273 257.807603 
" style="fill:none;stroke:#000000;stroke-linecap:square;stroke-width:1.5;"/>
   </g>
   <g id="line2d_15">
    <path clip-path="url(#p27d73bca5e)" d="M 73.832727 78.105124 
L 76.538182 78.105124 
L 79.243636 78.622863 
L 81.949091 79.398696 
L 84.654545 80.45384 
L 87.36 81.790119 
L 90.065455 83.40245 
L 92.770909 85.282624 
L 95.476364 87.420391 
L 98.181818 89.803906 
L 100.887273 92.419998 
L 103.592727 95.254375 
L 106.298182 98.291803 
L 109.003636 101.516284 
L 111.709091 104.911218 
L 114.414545 108.459576 
L 117.12 112.144054 
L 119.825455 115.947235 
L 122.530909 119.851733 
L 125.236364 123.840336 
L 127.941818 127.896137 
L 130.647273 132.002652 
L 133.352727 136.143928 
L 136.058182 140.304642 
L 138.763636 144.470178 
L 141.469091 148.626704 
L 144.174545 152.761219 
L 146.88 156.861609 
L 149.585455 160.916668 
L 152.290909 164.916124 
L 154.996364 168.850648 
L 157.701818 172.711852 
L 160.407273 176.492279 
L 163.112727 180.185385 
L 165.818182 183.785515 
L 168.523636 187.287871 
L 171.229091 190.688472 
L 173.934545 193.98412 
L 176.64 197.17235 
L 179.345455 200.251386 
L 182.050909 203.220091 
L 184.756364 206.07792 
L 187.461818 208.824867 
L 190.167273 211.46142 
L 192.872727 213.988511 
L 195.578182 216.407467 
L 198.283636 218.719965 
L 200.989091 220.927992 
L 203.694545 223.033799 
L 206.4 225.039862 
L 209.105455 226.94885 
L 211.810909 228.763586 
L 214.516364 230.487017 
L 217.221818 232.122185 
L 219.927273 233.6722 
L 222.632727 235.140216 
L 225.338182 236.529412 
L 228.043636 237.842966 
L 230.749091 239.084046 
L 233.454545 240.255787 
L 236.16 241.361286 
L 238.865455 242.403584 
L 241.570909 243.385657 
L 244.276364 244.310411 
L 246.981818 245.180676 
L 249.687273 245.999195 
L 252.392727 246.768624 
L 255.098182 247.491528 
L 257.803636 248.170381 
L 260.509091 248.807557 
L 263.214545 249.40534 
L 265.92 249.965916 
L 268.625455 250.491375 
L 271.330909 250.983717 
L 274.036364 251.444846 
L 276.741818 251.876576 
L 279.447273 252.280636 
L 282.152727 252.658664 
L 284.858182 253.012218 
L 287.563636 253.342773 
L 290.269091 253.651729 
L 292.974545 253.940407 
L 295.68 254.210059 
L 298.385455 254.461866 
L 301.090909 254.696942 
L 303.796364 254.916341 
L 306.501818 255.121053 
L 309.207273 255.312011 
L 311.912727 255.490096 
L 314.618182 255.656133 
L 317.323636 255.810899 
L 320.029091 255.955127 
L 322.734545 256.0895 
L 325.44 256.214664 
L 328.145455 256.331223 
L 330.850909 256.439743 
L 333.556364 256.540756 
L 336.261818 256.63476 
L 338.967273 256.722222 
L 341.672727 256.803578 
L 344.378182 256.879237 
L 347.083636 256.949583 
L 349.789091 257.014973 
L 352.494545 257.075742 
L 355.2 257.132204 
L 357.905455 257.184651 
L 360.610909 257.233358 
L 363.316364 257.278579 
L 366.021818 257.320553 
L 368.727273 257.359505 
L 371.432727 257.395641 
L 374.138182 257.429157 
L 376.843636 257.460234 
L 379.549091 257.489041 
L 382.254545 257.515736 
L 384.96 257.540467 
L 387.665455 257.563371 
L 390.370909 257.584577 
L 393.076364 257.604203 
L 395.781818 257.622362 
L 398.487273 257.639157 
" style="fill:none;stroke:#000000;stroke-dasharray:1.5,2.475;stroke-dashoffset:0;stroke-width:1.5;"/>
   </g>
   <g id="patch_3">
    <path d="M 57.6 266.792727 
L 57.6 69.12 
" style="fill:none;stroke:#000000;stroke-linecap:square;stroke-linejoin:miter;stroke-width:0.8;"/>
   </g>
   <g id="patch_4">
    <path d="M 414.72 266.792727 
L 414.72 69.12 
" style="fill:none;stroke:#000000;stroke-linecap:square;stroke-linejoin:miter;stroke-width:0.8;"/>
   </g>
   <g id="patch_5">
    <path d="M 57.6 266.792727 
L 414.72 266.792727 
" style="fill:none;stroke:#000000;stroke-linecap:square;stroke-linejoin:miter;stroke-width:0.8;"/>
   </g>
   <g id="patch_6">
    <path d="M 57.6 69.12 
L 414.72 69.12 
" style="fill:none;stroke:#000000;stroke-linecap:square;stroke-linejoin:miter;stroke-width:0.8;"/>
   </g>
   <g id="legend_1">
    <g id="patch_7">
     <path d="M 308.02 106.516875 
L 407.72 106.516875 
Q 409.72 106.516875 409.72 104.516875 
L 409.72 76.12 
Q 409.72 74.12 407.72 74.12 
L 308.02 74.12 
Q 306.02 74.12 306.02 76.12 
L 306.02 104.516875 
Q 306.02 106.516875 308.02 106.516875 
z
" style="fill:#ffffff;opacity:0.8;stroke:#cccccc;stroke-linejoin:miter;"/>
    </g>
    <g id="line2d_16">
     <path d="M 310.02 82.218438 
L 330.02 82.218438 
" style="fill:none;stroke:#000000;stroke-linecap:square;stroke-width:1.5;"/>
    </g>
    <g id="line2d_17"/>
    <g id="text_14">
     <!-- Pressure $p_{TOV}$ -->
     <g transform="translate(338.02 85.718438)scale(0.1 -0.1)">
      <defs>
       <path d="M 19.671875 64.796875 
L 19.671875 37.40625 
L 32.078125 37.40625 
Q 38.96875 37.40625 42.71875 40.96875 
Q 46.484375 44.53125 46.484375 51.125 
Q 46.484375 57.671875 42.71875 61.234375 
Q 38.96875 64.796875 32.078125 64.796875 
z
M 9.8125 72.90625 
L 32.078125 72.90625 
Q 44.34375 72.90625 50.609375 67.359375 
Q 56.890625 61.8125 56.890625 51.125 
Q 56.890625 40.328125 50.609375 34.8125 
Q 44.34375 29.296875 32.078125 29.296875 
L 19.671875 29.296875 
L 19.671875 0 
L 9.8125 0 
z
" id="DejaVuSans-80"/>
       <path d="M 41.109375 46.296875 
Q 39.59375 47.171875 37.8125 47.578125 
Q 36.03125 48 33.890625 48 
Q 26.265625 48 22.1875 43.046875 
Q 18.109375 38.09375 18.109375 28.8125 
L 18.109375 0 
L 9.078125 0 
L 9.078125 54.6875 
L 18.109375 54.6875 
L 18.109375 46.1875 
Q 20.953125 51.171875 25.484375 53.578125 
Q 30.03125 56 36.53125 56 
Q 37.453125 56 38.578125 55.875 
Q 39.703125 55.765625 41.0625 55.515625 
z
" id="DejaVuSans-114"/>
       <path d="M 56.203125 29.59375 
L 56.203125 25.203125 
L 14.890625 25.203125 
Q 15.484375 15.921875 20.484375 11.0625 
Q 25.484375 6.203125 34.421875 6.203125 
Q 39.59375 6.203125 44.453125 7.46875 
Q 49.3125 8.734375 54.109375 11.28125 
L 54.109375 2.78125 
Q 49.265625 0.734375 44.1875 -0.34375 
Q 39.109375 -1.421875 33.890625 -1.421875 
Q 20.796875 -1.421875 13.15625 6.1875 
Q 5.515625 13.8125 5.515625 26.8125 
Q 5.515625 40.234375 12.765625 48.109375 
Q 20.015625 56 32.328125 56 
Q 43.359375 56 49.78125 48.890625 
Q 56.203125 41.796875 56.203125 29.59375 
z
M 47.21875 32.234375 
Q 47.125 39.59375 43.09375 43.984375 
Q 39.0625 48.390625 32.421875 48.390625 
Q 24.90625 48.390625 20.390625 44.140625 
Q 15.875 39.890625 15.1875 32.171875 
z
" id="DejaVuSans-101"/>
       <path d="M 44.28125 53.078125 
L 44.28125 44.578125 
Q 40.484375 46.53125 36.375 47.5 
Q 32.28125 48.484375 27.875 48.484375 
Q 21.1875 48.484375 17.84375 46.4375 
Q 14.5 44.390625 14.5 40.28125 
Q 14.5 37.15625 16.890625 35.375 
Q 19.28125 33.59375 26.515625 31.984375 
L 29.59375 31.296875 
Q 39.15625 29.25 43.1875 25.515625 
Q 47.21875 21.78125 47.21875 15.09375 
Q 47.21875 7.46875 41.1875 3.015625 
Q 35.15625 -1.421875 24.609375 -1.421875 
Q 20.21875 -1.421875 15.453125 -0.5625 
Q 10.6875 0.296875 5.421875 2 
L 5.421875 11.28125 
Q 10.40625 8.6875 15.234375 7.390625 
Q 20.0625 6.109375 24.8125 6.109375 
Q 31.15625 6.109375 34.5625 8.28125 
Q 37.984375 10.453125 37.984375 14.40625 
Q 37.984375 18.0625 35.515625 20.015625 
Q 33.0625 21.96875 24.703125 23.78125 
L 21.578125 24.515625 
Q 13.234375 26.265625 9.515625 29.90625 
Q 5.8125 33.546875 5.8125 39.890625 
Q 5.8125 47.609375 11.28125 51.796875 
Q 16.75 56 26.8125 56 
Q 31.78125 56 36.171875 55.265625 
Q 40.578125 54.546875 44.28125 53.078125 
z
" id="DejaVuSans-115"/>
       <path d="M 8.5 21.578125 
L 8.5 54.6875 
L 17.484375 54.6875 
L 17.484375 21.921875 
Q 17.484375 14.15625 20.5 10.265625 
Q 23.53125 6.390625 29.59375 6.390625 
Q 36.859375 6.390625 41.078125 11.03125 
Q 45.3125 15.671875 45.3125 23.6875 
L 45.3125 54.6875 
L 54.296875 54.6875 
L 54.296875 0 
L 45.3125 0 
L 45.3125 8.40625 
Q 42.046875 3.421875 37.71875 1 
Q 33.40625 -1.421875 27.6875 -1.421875 
Q 18.265625 -1.421875 13.375 4.4375 
Q 8.5 10.296875 8.5 21.578125 
z
M 31.109375 56 
z
" id="DejaVuSans-117"/>
       <path id="DejaVuSans-32"/>
       <path d="M 49.609375 33.6875 
Q 49.609375 40.875 46.484375 44.671875 
Q 43.359375 48.484375 37.5 48.484375 
Q 33.5 48.484375 29.859375 46.4375 
Q 26.21875 44.390625 23.390625 40.484375 
Q 20.609375 36.625 18.9375 31.15625 
Q 17.28125 25.6875 17.28125 20.3125 
Q 17.28125 13.484375 20.40625 9.796875 
Q 23.53125 6.109375 29.296875 6.109375 
Q 33.546875 6.109375 37.1875 8.109375 
Q 40.828125 10.109375 43.40625 13.921875 
Q 46.1875 17.921875 47.890625 23.34375 
Q 49.609375 28.765625 49.609375 33.6875 
z
M 21.78125 46.390625 
Q 25.390625 51.125 30.296875 53.5625 
Q 35.203125 56 41.21875 56 
Q 49.609375 56 54.25 50.5 
Q 58.890625 45.015625 58.890625 35.109375 
Q 58.890625 27 56 19.65625 
Q 53.125 12.3125 47.703125 6.5 
Q 44.09375 2.640625 39.546875 0.609375 
Q 35.015625 -1.421875 29.984375 -1.421875 
Q 24.171875 -1.421875 20.21875 1 
Q 16.265625 3.421875 14.3125 8.203125 
L 8.6875 -20.796875 
L -0.296875 -20.796875 
L 14.40625 54.6875 
L 23.390625 54.6875 
z
" id="DejaVuSans-Oblique-112"/>
       <path d="M 5.90625 72.90625 
L 67.578125 72.90625 
L 66.015625 64.59375 
L 39.984375 64.59375 
L 27.484375 0 
L 17.578125 0 
L 30.078125 64.59375 
L 4.296875 64.59375 
z
" id="DejaVuSans-Oblique-84"/>
       <path d="M 45.609375 66.21875 
Q 37.5 66.21875 31.296875 62.28125 
Q 25.09375 58.34375 20.515625 50.296875 
Q 17.578125 45.171875 16.03125 39.40625 
Q 14.5 33.640625 14.5 27.78125 
Q 14.5 17.625 19.359375 12.109375 
Q 24.21875 6.59375 33.109375 6.59375 
Q 41.109375 6.59375 47.375 10.5625 
Q 53.65625 14.546875 58.109375 22.40625 
Q 61.078125 27.6875 62.640625 33.46875 
Q 64.203125 39.265625 64.203125 45.015625 
Q 64.203125 55.125 59.3125 60.671875 
Q 54.4375 66.21875 45.609375 66.21875 
z
M 32.8125 -1.421875 
Q 19.390625 -1.421875 11.6875 6.53125 
Q 4 14.5 4 28.328125 
Q 4 36.234375 7 44.484375 
Q 10.015625 52.734375 15.28125 59.1875 
Q 21.484375 66.75 29.09375 70.484375 
Q 36.71875 74.21875 45.90625 74.21875 
Q 59.28125 74.21875 66.984375 66.328125 
Q 74.703125 58.453125 74.703125 44.828125 
Q 74.703125 36.421875 71.765625 28.3125 
Q 68.84375 20.21875 63.375 13.625 
Q 57.125 6 49.578125 2.28125 
Q 42.046875 -1.421875 32.8125 -1.421875 
z
" id="DejaVuSans-Oblique-79"/>
       <path d="M 20.609375 0 
L 7.8125 72.90625 
L 17.484375 72.90625 
L 28.078125 10.203125 
L 63.484375 72.90625 
L 74.21875 72.90625 
L 32.078125 0 
z
" id="DejaVuSans-Oblique-86"/>
      </defs>
      <use transform="translate(0 0.09375)" xlink:href="#DejaVuSans-80"/>
      <use transform="translate(60.302734 0.09375)" xlink:href="#DejaVuSans-114"/>
      <use transform="translate(101.416016 0.09375)" xlink:href="#DejaVuSans-101"/>
      <use transform="translate(162.939453 0.09375)" xlink:href="#DejaVuSans-115"/>
      <use transform="translate(215.039062 0.09375)" xlink:href="#DejaVuSans-115"/>
      <use transform="translate(267.138672 0.09375)" xlink:href="#DejaVuSans-117"/>
      <use transform="translate(330.517578 0.09375)" xlink:href="#DejaVuSans-114"/>
      <use transform="translate(371.630859 0.09375)" xlink:href="#DejaVuSans-101"/>
      <use transform="translate(433.154297 0.09375)" xlink:href="#DejaVuSans-32"/>
      <use transform="translate(464.941406 0.09375)" xlink:href="#DejaVuSans-Oblique-112"/>
      <use transform="translate(528.417969 -16.3125)scale(0.7)" xlink:href="#DejaVuSans-Oblique-84"/>
      <use transform="translate(571.176758 -16.3125)scale(0.7)" xlink:href="#DejaVuSans-Oblique-79"/>
      <use transform="translate(626.274414 -16.3125)scale(0.7)" xlink:href="#DejaVuSans-Oblique-86"/>
     </g>
    </g>
    <g id="line2d_18">
     <path d="M 310.02 96.916875 
L 330.02 96.916875 
" style="fill:none;stroke:#000000;stroke-dasharray:1.5,2.475;stroke-dashoffset:0;stroke-width:1.5;"/>
    </g>
    <g id="line2d_19"/>
    <g id="text_15">
     <!-- Pressure $p_{LE}$ -->
     <g transform="translate(338.02 100.416875)scale(0.1 -0.1)">
      <defs>
       <path d="M 16.796875 72.90625 
L 26.703125 72.90625 
L 14.203125 8.203125 
L 49.703125 8.203125 
L 48.09375 0 
L 2.6875 0 
z
" id="DejaVuSans-Oblique-76"/>
       <path d="M 16.890625 72.90625 
L 62.984375 72.90625 
L 61.375 64.59375 
L 25.09375 64.59375 
L 20.90625 43.015625 
L 55.71875 43.015625 
L 54.109375 34.71875 
L 19.28125 34.71875 
L 14.203125 8.296875 
L 51.3125 8.296875 
L 49.703125 0 
L 2.6875 0 
z
" id="DejaVuSans-Oblique-69"/>
      </defs>
      <use transform="translate(0 0.09375)" xlink:href="#DejaVuSans-80"/>
      <use transform="translate(60.302734 0.09375)" xlink:href="#DejaVuSans-114"/>
      <use transform="translate(101.416016 0.09375)" xlink:href="#DejaVuSans-101"/>
      <use transform="translate(162.939453 0.09375)" xlink:href="#DejaVuSans-115"/>
      <use transform="translate(215.039062 0.09375)" xlink:href="#DejaVuSans-115"/>
      <use transform="translate(267.138672 0.09375)" xlink:href="#DejaVuSans-117"/>
      <use transform="translate(330.517578 0.09375)" xlink:href="#DejaVuSans-114"/>
      <use transform="translate(371.630859 0.09375)" xlink:href="#DejaVuSans-101"/>
      <use transform="translate(433.154297 0.09375)" xlink:href="#DejaVuSans-32"/>
      <use transform="translate(464.941406 0.09375)" xlink:href="#DejaVuSans-Oblique-112"/>
      <use transform="translate(528.417969 -16.3125)scale(0.7)" xlink:href="#DejaVuSans-Oblique-76"/>
      <use transform="translate(567.416992 -16.3125)scale(0.7)" xlink:href="#DejaVuSans-Oblique-69"/>
     </g>
    </g>
   </g>
  </g>
  <g id="axes_2">
   <g id="patch_8">
    <path d="M 57.6 504 
L 414.72 504 
L 414.72 306.327273 
L 57.6 306.327273 
z
" style="fill:#ffffff;"/>
   </g>
   <g id="matplotlib.axis_3">
    <g id="xtick_8">
     <g id="line2d_20">
      <g>
       <use style="stroke:#000000;stroke-width:0.8;" x="73.832727" xlink:href="#m2c2a1c1685" y="504"/>
      </g>
     </g>
     <g id="text_16">
      <!-- 0.0 -->
      <g transform="translate(65.881165 518.598437)scale(0.1 -0.1)">
       <use xlink:href="#DejaVuSans-48"/>
       <use x="63.623047" xlink:href="#DejaVuSans-46"/>
       <use x="95.410156" xlink:href="#DejaVuSans-48"/>
      </g>
     </g>
    </g>
    <g id="xtick_9">
     <g id="line2d_21">
      <g>
       <use style="stroke:#000000;stroke-width:0.8;" x="127.941818" xlink:href="#m2c2a1c1685" y="504"/>
      </g>
     </g>
     <g id="text_17">
      <!-- 0.2 -->
      <g transform="translate(119.990256 518.598437)scale(0.1 -0.1)">
       <use xlink:href="#DejaVuSans-48"/>
       <use x="63.623047" xlink:href="#DejaVuSans-46"/>
       <use x="95.410156" xlink:href="#DejaVuSans-50"/>
      </g>
     </g>
    </g>
    <g id="xtick_10">
     <g id="line2d_22">
      <g>
       <use style="stroke:#000000;stroke-width:0.8;" x="182.050909" xlink:href="#m2c2a1c1685" y="504"/>
      </g>
     </g>
     <g id="text_18">
      <!-- 0.4 -->
      <g transform="translate(174.099347 518.598437)scale(0.1 -0.1)">
       <use xlink:href="#DejaVuSans-48"/>
       <use x="63.623047" xlink:href="#DejaVuSans-46"/>
       <use x="95.410156" xlink:href="#DejaVuSans-52"/>
      </g>
     </g>
    </g>
    <g id="xtick_11">
     <g id="line2d_23">
      <g>
       <use style="stroke:#000000;stroke-width:0.8;" x="236.16" xlink:href="#m2c2a1c1685" y="504"/>
      </g>
     </g>
     <g id="text_19">
      <!-- 0.6 -->
      <g transform="translate(228.208437 518.598437)scale(0.1 -0.1)">
       <use xlink:href="#DejaVuSans-48"/>
       <use x="63.623047" xlink:href="#DejaVuSans-46"/>
       <use x="95.410156" xlink:href="#DejaVuSans-54"/>
      </g>
     </g>
    </g>
    <g id="xtick_12">
     <g id="line2d_24">
      <g>
       <use style="stroke:#000000;stroke-width:0.8;" x="290.269091" xlink:href="#m2c2a1c1685" y="504"/>
      </g>
     </g>
     <g id="text_20">
      <!-- 0.8 -->
      <g transform="translate(282.317528 518.598437)scale(0.1 -0.1)">
       <use xlink:href="#DejaVuSans-48"/>
       <use x="63.623047" xlink:href="#DejaVuSans-46"/>
       <use x="95.410156" xlink:href="#DejaVuSans-56"/>
      </g>
     </g>
    </g>
    <g id="xtick_13">
     <g id="line2d_25">
      <g>
       <use style="stroke:#000000;stroke-width:0.8;" x="344.378182" xlink:href="#m2c2a1c1685" y="504"/>
      </g>
     </g>
     <g id="text_21">
      <!-- 1.0 -->
      <g transform="translate(336.426619 518.598437)scale(0.1 -0.1)">
       <use xlink:href="#DejaVuSans-49"/>
       <use x="63.623047" xlink:href="#DejaVuSans-46"/>
       <use x="95.410156" xlink:href="#DejaVuSans-48"/>
      </g>
     </g>
    </g>
    <g id="xtick_14">
     <g id="line2d_26">
      <g>
       <use style="stroke:#000000;stroke-width:0.8;" x="398.487273" xlink:href="#m2c2a1c1685" y="504"/>
      </g>
     </g>
     <g id="text_22">
      <!-- 1.2 -->
      <g transform="translate(390.53571 518.598437)scale(0.1 -0.1)">
       <use xlink:href="#DejaVuSans-49"/>
       <use x="63.623047" xlink:href="#DejaVuSans-46"/>
       <use x="95.410156" xlink:href="#DejaVuSans-50"/>
      </g>
     </g>
    </g>
   </g>
   <g id="matplotlib.axis_4">
    <g id="ytick_7">
     <g id="line2d_27">
      <g>
       <use style="stroke:#000000;stroke-width:0.8;" x="57.6" xlink:href="#m8671641c83" y="495.014876"/>
      </g>
     </g>
     <g id="text_23">
      <!-- 0.00 -->
      <g transform="translate(28.334375 498.814095)scale(0.1 -0.1)">
       <use xlink:href="#DejaVuSans-48"/>
       <use x="63.623047" xlink:href="#DejaVuSans-46"/>
       <use x="95.410156" xlink:href="#DejaVuSans-48"/>
       <use x="159.033203" xlink:href="#DejaVuSans-48"/>
      </g>
     </g>
    </g>
    <g id="ytick_8">
     <g id="line2d_28">
      <g>
       <use style="stroke:#000000;stroke-width:0.8;" x="57.6" xlink:href="#m8671641c83" y="472.552066"/>
      </g>
     </g>
     <g id="text_24">
      <!-- 0.25 -->
      <g transform="translate(28.334375 476.351285)scale(0.1 -0.1)">
       <defs>
        <path d="M 10.796875 72.90625 
L 49.515625 72.90625 
L 49.515625 64.59375 
L 19.828125 64.59375 
L 19.828125 46.734375 
Q 21.96875 47.46875 24.109375 47.828125 
Q 26.265625 48.1875 28.421875 48.1875 
Q 40.625 48.1875 47.75 41.5 
Q 54.890625 34.8125 54.890625 23.390625 
Q 54.890625 11.625 47.5625 5.09375 
Q 40.234375 -1.421875 26.90625 -1.421875 
Q 22.3125 -1.421875 17.546875 -0.640625 
Q 12.796875 0.140625 7.71875 1.703125 
L 7.71875 11.625 
Q 12.109375 9.234375 16.796875 8.0625 
Q 21.484375 6.890625 26.703125 6.890625 
Q 35.15625 6.890625 40.078125 11.328125 
Q 45.015625 15.765625 45.015625 23.390625 
Q 45.015625 31 40.078125 35.4375 
Q 35.15625 39.890625 26.703125 39.890625 
Q 22.75 39.890625 18.8125 39.015625 
Q 14.890625 38.140625 10.796875 36.28125 
z
" id="DejaVuSans-53"/>
       </defs>
       <use xlink:href="#DejaVuSans-48"/>
       <use x="63.623047" xlink:href="#DejaVuSans-46"/>
       <use x="95.410156" xlink:href="#DejaVuSans-50"/>
       <use x="159.033203" xlink:href="#DejaVuSans-53"/>
      </g>
     </g>
    </g>
    <g id="ytick_9">
     <g id="line2d_29">
      <g>
       <use style="stroke:#000000;stroke-width:0.8;" x="57.6" xlink:href="#m8671641c83" y="450.089256"/>
      </g>
     </g>
     <g id="text_25">
      <!-- 0.50 -->
      <g transform="translate(28.334375 453.888475)scale(0.1 -0.1)">
       <use xlink:href="#DejaVuSans-48"/>
       <use x="63.623047" xlink:href="#DejaVuSans-46"/>
       <use x="95.410156" xlink:href="#DejaVuSans-53"/>
       <use x="159.033203" xlink:href="#DejaVuSans-48"/>
      </g>
     </g>
    </g>
    <g id="ytick_10">
     <g id="line2d_30">
      <g>
       <use style="stroke:#000000;stroke-width:0.8;" x="57.6" xlink:href="#m8671641c83" y="427.626446"/>
      </g>
     </g>
     <g id="text_26">
      <!-- 0.75 -->
      <g transform="translate(28.334375 431.425665)scale(0.1 -0.1)">
       <defs>
        <path d="M 8.203125 72.90625 
L 55.078125 72.90625 
L 55.078125 68.703125 
L 28.609375 0 
L 18.3125 0 
L 43.21875 64.59375 
L 8.203125 64.59375 
z
" id="DejaVuSans-55"/>
       </defs>
       <use xlink:href="#DejaVuSans-48"/>
       <use x="63.623047" xlink:href="#DejaVuSans-46"/>
       <use x="95.410156" xlink:href="#DejaVuSans-55"/>
       <use x="159.033203" xlink:href="#DejaVuSans-53"/>
      </g>
     </g>
    </g>
    <g id="ytick_11">
     <g id="line2d_31">
      <g>
       <use style="stroke:#000000;stroke-width:0.8;" x="57.6" xlink:href="#m8671641c83" y="405.163636"/>
      </g>
     </g>
     <g id="text_27">
      <!-- 1.00 -->
      <g transform="translate(28.334375 408.962855)scale(0.1 -0.1)">
       <use xlink:href="#DejaVuSans-49"/>
       <use x="63.623047" xlink:href="#DejaVuSans-46"/>
       <use x="95.410156" xlink:href="#DejaVuSans-48"/>
       <use x="159.033203" xlink:href="#DejaVuSans-48"/>
      </g>
     </g>
    </g>
    <g id="ytick_12">
     <g id="line2d_32">
      <g>
       <use style="stroke:#000000;stroke-width:0.8;" x="57.6" xlink:href="#m8671641c83" y="382.700826"/>
      </g>
     </g>
     <g id="text_28">
      <!-- 1.25 -->
      <g transform="translate(28.334375 386.500045)scale(0.1 -0.1)">
       <use xlink:href="#DejaVuSans-49"/>
       <use x="63.623047" xlink:href="#DejaVuSans-46"/>
       <use x="95.410156" xlink:href="#DejaVuSans-50"/>
       <use x="159.033203" xlink:href="#DejaVuSans-53"/>
      </g>
     </g>
    </g>
    <g id="ytick_13">
     <g id="line2d_33">
      <g>
       <use style="stroke:#000000;stroke-width:0.8;" x="57.6" xlink:href="#m8671641c83" y="360.238017"/>
      </g>
     </g>
     <g id="text_29">
      <!-- 1.50 -->
      <g transform="translate(28.334375 364.037235)scale(0.1 -0.1)">
       <use xlink:href="#DejaVuSans-49"/>
       <use x="63.623047" xlink:href="#DejaVuSans-46"/>
       <use x="95.410156" xlink:href="#DejaVuSans-53"/>
       <use x="159.033203" xlink:href="#DejaVuSans-48"/>
      </g>
     </g>
    </g>
    <g id="ytick_14">
     <g id="line2d_34">
      <g>
       <use style="stroke:#000000;stroke-width:0.8;" x="57.6" xlink:href="#m8671641c83" y="337.775207"/>
      </g>
     </g>
     <g id="text_30">
      <!-- 1.75 -->
      <g transform="translate(28.334375 341.574425)scale(0.1 -0.1)">
       <use xlink:href="#DejaVuSans-49"/>
       <use x="63.623047" xlink:href="#DejaVuSans-46"/>
       <use x="95.410156" xlink:href="#DejaVuSans-55"/>
       <use x="159.033203" xlink:href="#DejaVuSans-53"/>
      </g>
     </g>
    </g>
    <g id="ytick_15">
     <g id="line2d_35">
      <g>
       <use style="stroke:#000000;stroke-width:0.8;" x="57.6" xlink:href="#m8671641c83" y="315.312397"/>
      </g>
     </g>
     <g id="text_31">
      <!-- 2.00 -->
      <g transform="translate(28.334375 319.111615)scale(0.1 -0.1)">
       <use xlink:href="#DejaVuSans-50"/>
       <use x="63.623047" xlink:href="#DejaVuSans-46"/>
       <use x="95.410156" xlink:href="#DejaVuSans-48"/>
       <use x="159.033203" xlink:href="#DejaVuSans-48"/>
      </g>
     </g>
    </g>
   </g>
   <g id="line2d_36">
    <path clip-path="url(#p2e2cf0c357)" d="M 73.832727 315.312397 
L 76.538182 315.312397 
L 79.243636 315.700794 
L 81.949091 316.283334 
L 84.654545 317.076615 
L 87.36 318.082953 
L 90.065455 319.299731 
L 92.770909 320.7222 
L 95.476364 322.34427 
L 98.181818 324.158818 
L 100.887273 326.15785 
L 103.592727 328.332623 
L 106.298182 330.673746 
L 109.003636 333.171271 
L 111.709091 335.814783 
L 114.414545 338.593494 
L 117.12 341.496325 
L 119.825455 344.511997 
L 122.530909 347.62911 
L 125.236364 350.836227 
L 127.941818 354.121951 
L 130.647273 357.474994 
L 133.352727 360.884249 
L 136.058182 364.33885 
L 138.763636 367.828227 
L 141.469091 371.342162 
L 144.174545 374.870827 
L 146.88 378.404826 
L 149.585455 381.935227 
L 152.290909 385.453587 
L 154.996364 388.951971 
L 157.701818 392.422971 
L 160.407273 395.859711 
L 163.112727 399.255853 
L 165.818182 402.605595 
L 168.523636 405.90367 
L 171.229091 409.145334 
L 173.934545 412.326358 
L 176.64 415.443011 
L 179.345455 418.492041 
L 182.050909 421.470661 
L 184.756364 424.376526 
L 187.461818 427.207707 
L 190.167273 429.962673 
L 192.872727 432.640267 
L 195.578182 435.239675 
L 198.283636 437.76041 
L 200.989091 440.202282 
L 203.694545 442.565376 
L 206.4 444.850029 
L 209.105455 447.056804 
L 211.810909 449.186472 
L 214.516364 451.239988 
L 217.221818 453.218468 
L 219.927273 455.123177 
L 222.632727 456.955503 
L 225.338182 458.716943 
L 228.043636 460.409089 
L 230.749091 462.033608 
L 233.454545 463.59223 
L 236.16 465.086737 
L 238.865455 466.51895 
L 241.570909 467.890716 
L 244.276364 469.203899 
L 246.981818 470.460374 
L 249.687273 471.662016 
L 252.392727 472.810691 
L 255.098182 473.908254 
L 257.803636 474.95654 
L 260.509091 475.957361 
L 263.214545 476.912499 
L 265.92 477.823705 
L 268.625455 478.692695 
L 271.330909 479.521145 
L 274.036364 480.310691 
L 276.741818 481.062929 
L 279.447273 481.779409 
L 282.152727 482.461636 
L 284.858182 483.111071 
L 287.563636 483.729129 
L 290.269091 484.317176 
L 292.974545 484.876536 
L 295.68 485.408482 
L 298.385455 485.914246 
L 301.090909 486.395011 
L 303.796364 486.851918 
L 306.501818 487.286063 
L 309.207273 487.698498 
L 311.912727 488.090235 
L 314.618182 488.462244 
L 317.323636 488.815454 
L 320.029091 489.150758 
L 322.734545 489.469007 
L 325.44 489.77102 
L 328.145455 490.057577 
L 330.850909 490.329425 
L 333.556364 490.587279 
L 336.261818 490.83182 
L 338.967273 491.063699 
L 341.672727 491.283538 
L 344.378182 491.49193 
L 347.083636 491.689441 
L 349.789091 491.87661 
L 352.494545 492.053952 
L 355.2 492.221956 
L 357.905455 492.38109 
L 360.610909 492.531798 
L 363.316364 492.674503 
L 366.021818 492.809609 
L 368.727273 492.937499 
L 371.432727 493.058538 
L 374.138182 493.173075 
L 376.843636 493.281439 
L 379.549091 493.383945 
L 382.254545 493.480891 
L 384.96 493.572563 
L 387.665455 493.65923 
L 390.370909 493.741149 
L 393.076364 493.818564 
L 395.781818 493.891708 
L 398.487273 493.960801 
" style="fill:none;stroke:#000000;stroke-dasharray:5.55,2.4;stroke-dashoffset:0;stroke-width:1.5;"/>
   </g>
   <g id="line2d_37">
    <path clip-path="url(#p2e2cf0c357)" d="M 73.832727 315.312397 
L 76.538182 315.777446 
L 79.243636 317.041449 
L 81.949091 319.122524 
L 84.654545 321.990212 
L 87.36 325.60105 
L 90.065455 329.900848 
L 92.770909 334.826224 
L 95.476364 340.306221 
L 98.181818 346.264048 
L 100.887273 352.618912 
L 103.592727 359.287876 
L 106.298182 366.187693 
L 109.003636 373.236558 
L 111.709091 380.355735 
L 114.414545 387.471012 
L 117.12 394.513941 
L 119.825455 401.422853 
L 122.530909 408.143614 
L 125.236364 414.63012 
L 127.941818 420.844528 
L 130.647273 426.757246 
L 133.352727 432.346681 
L 136.058182 437.598788 
L 138.763636 442.506454 
L 141.469091 447.068749 
L 144.174545 451.290093 
L 146.88 455.17938 
L 149.585455 458.749092 
L 152.290909 462.014457 
L 154.996364 464.992652 
L 157.701818 467.702096 
L 160.407273 470.161837 
L 163.112727 472.391036 
L 165.818182 474.408552 
L 168.523636 476.232624 
L 171.229091 477.880638 
L 173.934545 479.368963 
L 176.64 480.712861 
L 179.345455 481.926439 
L 182.050909 483.022641 
L 184.756364 484.013279 
L 187.461818 484.909074 
L 190.167273 485.719718 
L 192.872727 486.453944 
L 195.578182 487.119601 
L 198.283636 487.723723 
L 200.989091 488.27261 
L 203.694545 488.771893 
L 206.4 489.226603 
L 209.105455 489.641231 
L 211.810909 490.019785 
L 214.516364 490.365844 
L 217.221818 490.682601 
L 219.927273 490.972908 
L 222.632727 491.239314 
L 225.338182 491.484097 
L 228.043636 491.709295 
L 230.749091 491.916732 
L 233.454545 492.108046 
L 236.16 492.284702 
L 238.865455 492.448018 
L 241.570909 492.599179 
L 244.276364 492.739249 
L 246.981818 492.86919 
L 249.687273 492.989868 
L 252.392727 493.102063 
L 255.098182 493.206483 
L 257.803636 493.303768 
L 260.509091 493.394497 
L 263.214545 493.479196 
L 265.92 493.558342 
L 268.625455 493.63237 
L 271.330909 493.701674 
L 274.036364 493.766615 
L 276.741818 493.827522 
L 279.447273 493.884693 
L 282.152727 493.938404 
L 284.858182 493.988905 
L 287.563636 494.036427 
L 290.269091 494.08118 
L 292.974545 494.123358 
L 295.68 494.163139 
L 298.385455 494.200686 
L 301.090909 494.236151 
L 303.796364 494.269672 
L 306.501818 494.301377 
L 309.207273 494.331385 
L 311.912727 494.359805 
L 314.618182 494.386738 
L 317.323636 494.412279 
L 320.029091 494.436513 
L 322.734545 494.459522 
L 325.44 494.481379 
L 328.145455 494.502155 
L 330.850909 494.521914 
L 333.556364 494.540716 
L 336.261818 494.558616 
L 338.967273 494.575668 
L 341.672727 494.591919 
L 344.378182 494.607415 
L 347.083636 494.622199 
L 349.789091 494.636309 
L 352.494545 494.649783 
L 355.2 494.662656 
L 357.905455 494.674959 
L 360.610909 494.686723 
L 363.316364 494.697978 
L 366.021818 494.708748 
L 368.727273 494.71906 
L 371.432727 494.728938 
L 374.138182 494.738402 
L 376.843636 494.747474 
L 379.549091 494.756174 
L 382.254545 494.76452 
L 384.96 494.77253 
L 387.665455 494.780219 
L 390.370909 494.787603 
L 393.076364 494.794698 
L 395.781818 494.801516 
L 398.487273 494.80807 
" style="fill:none;stroke:#000000;stroke-dasharray:9.6,2.4,1.5,2.4;stroke-dashoffset:0;stroke-width:1.5;"/>
   </g>
   <g id="line2d_38">
    <path clip-path="url(#p2e2cf0c357)" d="M 73.832727 495.014876 
L 76.538182 495.014125 
L 79.243636 495.008891 
L 81.949091 494.994815 
L 84.654545 494.967789 
L 87.36 494.924059 
L 90.065455 494.860331 
L 92.770909 494.773846 
L 95.476364 494.662443 
L 98.181818 494.524599 
L 100.887273 494.359444 
L 103.592727 494.166752 
L 106.298182 493.946923 
L 109.003636 493.700928 
L 111.709091 493.430253 
L 114.414545 493.136823 
L 117.12 492.822919 
L 119.825455 492.491088 
L 122.530909 492.144057 
L 125.236364 491.784642 
L 127.941818 491.415671 
L 130.647273 491.039906 
L 133.352727 490.65999 
L 136.058182 490.278385 
L 138.763636 489.897344 
L 141.469091 489.51888 
L 144.174545 489.144753 
L 146.88 488.776467 
L 149.585455 488.415274 
L 152.290909 488.062184 
L 154.996364 487.717985 
L 157.701818 487.383262 
L 160.407273 487.058419 
L 163.112727 486.743706 
L 165.818182 486.439234 
L 168.523636 486.145006 
L 171.229091 485.860931 
L 173.934545 485.586844 
L 176.64 485.322525 
L 179.345455 485.067706 
L 182.050909 484.822092 
L 184.756364 484.585362 
L 187.461818 484.357183 
L 190.167273 484.137216 
L 192.872727 483.92512 
L 195.578182 483.720555 
L 198.283636 483.52319 
L 200.989091 483.332699 
L 203.694545 483.148769 
L 206.4 482.971095 
L 209.105455 482.799388 
L 211.810909 482.633369 
L 214.516364 482.472772 
L 217.221818 482.317344 
L 219.927273 482.166844 
L 222.632727 482.021046 
L 225.338182 481.879731 
L 228.043636 481.742696 
L 230.749091 481.609747 
L 233.454545 481.4807 
L 236.16 481.355381 
L 238.865455 481.233626 
L 241.570909 481.115281 
L 244.276364 481.000198 
L 246.981818 480.888238 
L 249.687273 480.77927 
L 252.392727 480.673171 
L 255.098182 480.569821 
L 257.803636 480.46911 
L 260.509091 480.370932 
L 263.214545 480.275188 
L 265.92 480.181782 
L 268.625455 480.090625 
L 271.330909 480.00163 
L 274.036364 479.914718 
L 276.741818 479.829811 
L 279.447273 479.746836 
L 282.152727 479.665723 
L 284.858182 479.586407 
L 287.563636 479.508824 
L 290.269091 479.432915 
L 292.974545 479.358621 
L 295.68 479.285889 
L 298.385455 479.214667 
L 301.090909 479.144905 
L 303.796364 479.076555 
L 306.501818 479.009573 
L 309.207273 478.943914 
L 311.912727 478.879539 
L 314.618182 478.816406 
L 317.323636 478.754479 
L 320.029091 478.693721 
L 322.734545 478.634096 
L 325.44 478.575573 
L 328.145455 478.518118 
L 330.850909 478.461701 
L 333.556364 478.406293 
L 336.261818 478.351866 
L 338.967273 478.298391 
L 341.672727 478.245843 
L 344.378182 478.194197 
L 347.083636 478.143429 
L 349.789091 478.093516 
L 352.494545 478.044434 
L 355.2 477.996163 
L 357.905455 477.948681 
L 360.610909 477.901969 
L 363.316364 477.856007 
L 366.021818 477.810777 
L 368.727273 477.766261 
L 371.432727 477.72244 
L 374.138182 477.679299 
L 376.843636 477.636822 
L 379.549091 477.594992 
L 382.254545 477.553794 
L 384.96 477.513214 
L 387.665455 477.473238 
L 390.370909 477.433852 
L 393.076364 477.395043 
L 395.781818 477.356797 
L 398.487273 477.319103 
" style="fill:none;stroke:#000000;stroke-linecap:square;stroke-width:1.5;"/>
   </g>
   <g id="line2d_39">
    <path clip-path="url(#p2e2cf0c357)" d="M 73.832727 495.014876 
L 76.538182 495.014123 
L 79.243636 495.00886 
L 81.949091 494.994614 
L 84.654545 494.966978 
L 87.36 494.921645 
L 90.065455 494.854442 
L 92.770909 494.761354 
L 95.476364 494.63856 
L 98.181818 494.48245 
L 100.887273 494.289658 
L 103.592727 494.057076 
L 106.298182 493.781872 
L 109.003636 493.461511 
L 111.709091 493.09376 
L 114.414545 492.676702 
L 117.12 492.208739 
L 119.825455 491.688595 
L 122.530909 491.115318 
L 125.236364 490.488273 
L 127.941818 489.807141 
L 130.647273 489.071908 
L 133.352727 488.282854 
L 136.058182 487.440544 
L 138.763636 486.545809 
L 141.469091 485.599734 
L 144.174545 484.60364 
L 146.88 483.559066 
L 149.585455 482.467748 
L 152.290909 481.331603 
L 154.996364 480.152707 
L 157.701818 478.933276 
L 160.407273 477.675646 
L 163.112727 476.382253 
L 165.818182 475.055616 
L 168.523636 473.698314 
L 171.229091 472.312976 
L 173.934545 470.902257 
L 176.64 469.468826 
L 179.345455 468.015348 
L 182.050909 466.544474 
L 184.756364 465.058827 
L 187.461818 463.560988 
L 190.167273 462.053488 
L 192.872727 460.538796 
L 195.578182 459.019315 
L 198.283636 457.497371 
L 200.989091 455.975206 
L 203.694545 454.454976 
L 206.4 452.938746 
L 209.105455 451.428483 
L 211.810909 449.926058 
L 214.516364 448.433242 
L 217.221818 446.951703 
L 219.927273 445.48301 
L 222.632727 444.028629 
L 225.338182 442.589926 
L 228.043636 441.168167 
L 230.749091 439.76452 
L 233.454545 438.380057 
L 236.16 437.015756 
L 238.865455 435.672503 
L 241.570909 434.351099 
L 244.276364 433.052255 
L 246.981818 431.776603 
L 249.687273 430.524695 
L 252.392727 429.297007 
L 255.098182 428.093943 
L 257.803636 426.91584 
L 260.509091 425.762968 
L 263.214545 424.635535 
L 265.92 423.533693 
L 268.625455 422.457537 
L 271.330909 421.407113 
L 274.036364 420.382416 
L 276.741818 419.383398 
L 279.447273 418.409969 
L 282.152727 417.462 
L 284.858182 416.539325 
L 287.563636 415.641746 
L 290.269091 414.769036 
L 292.974545 413.920936 
L 295.68 413.097167 
L 298.385455 412.297422 
L 301.090909 411.521377 
L 303.796364 410.768687 
L 306.501818 410.038991 
L 309.207273 409.331914 
L 311.912727 408.647067 
L 314.618182 407.98405 
L 317.323636 407.342454 
L 320.029091 406.721861 
L 322.734545 406.121846 
L 325.44 405.54198 
L 328.145455 404.981828 
L 330.850909 404.440952 
L 333.556364 403.918913 
L 336.261818 403.41527 
L 338.967273 402.929582 
L 341.672727 402.461408 
L 344.378182 402.01031 
L 347.083636 401.57585 
L 349.789091 401.157594 
L 352.494545 400.75511 
L 355.2 400.367971 
L 357.905455 399.995754 
L 360.610909 399.638041 
L 363.316364 399.294417 
L 366.021818 398.964476 
L 368.727273 398.647814 
L 371.432727 398.344035 
L 374.138182 398.05275 
L 376.843636 397.773576 
L 379.549091 397.506134 
L 382.254545 397.250055 
L 384.96 397.004976 
L 387.665455 396.770541 
L 390.370909 396.5464 
L 393.076364 396.332213 
L 395.781818 396.127643 
L 398.487273 395.932364 
" style="fill:none;stroke:#000000;stroke-dasharray:1.5,2.475;stroke-dashoffset:0;stroke-width:1.5;"/>
   </g>
   <g id="patch_9">
    <path d="M 57.6 504 
L 57.6 306.327273 
" style="fill:none;stroke:#000000;stroke-linecap:square;stroke-linejoin:miter;stroke-width:0.8;"/>
   </g>
   <g id="patch_10">
    <path d="M 414.72 504 
L 414.72 306.327273 
" style="fill:none;stroke:#000000;stroke-linecap:square;stroke-linejoin:miter;stroke-width:0.8;"/>
   </g>
   <g id="patch_11">
    <path d="M 57.6 504 
L 414.72 504 
" style="fill:none;stroke:#000000;stroke-linecap:square;stroke-linejoin:miter;stroke-width:0.8;"/>
   </g>
   <g id="patch_12">
    <path d="M 57.6 306.327273 
L 414.72 306.327273 
" style="fill:none;stroke:#000000;stroke-linecap:square;stroke-linejoin:miter;stroke-width:0.8;"/>
   </g>
   <g id="legend_2">
    <g id="patch_13">
     <path d="M 351.12 373.080398 
L 407.72 373.080398 
Q 409.72 373.080398 409.72 371.080398 
L 409.72 313.327273 
Q 409.72 311.327273 407.72 311.327273 
L 351.12 311.327273 
Q 349.12 311.327273 349.12 313.327273 
L 349.12 371.080398 
Q 349.12 373.080398 351.12 373.080398 
z
" style="fill:#ffffff;opacity:0.8;stroke:#cccccc;stroke-linejoin:miter;"/>
    </g>
    <g id="line2d_40">
     <path d="M 353.12 319.42571 
L 373.12 319.42571 
" style="fill:none;stroke:#000000;stroke-dasharray:5.55,2.4;stroke-dashoffset:0;stroke-width:1.5;"/>
    </g>
    <g id="line2d_41"/>
    <g id="text_32">
     <!-- $\rho_{TOV}$ -->
     <g transform="translate(381.12 322.92571)scale(0.1 -0.1)">
      <defs>
       <path d="M 18.796875 44.921875 
Q 22.703125 49.90625 30.953125 54.296875 
Q 34.1875 56 43.0625 56 
Q 53.03125 56 57.71875 48.09375 
Q 62.40625 40.1875 59.90625 27.296875 
Q 57.375 14.40625 49.609375 6.484375 
Q 41.84375 -1.421875 31.890625 -1.421875 
Q 25.875 -1.421875 22.015625 0.984375 
Q 18.171875 3.328125 16.3125 8.203125 
L 10.640625 -20.796875 
L 1.609375 -20.796875 
L 10.890625 26.8125 
Q 13.09375 38.09375 18.796875 44.921875 
z
M 50.59375 27.296875 
Q 52.484375 37.203125 49.515625 42.875 
Q 46.53125 48.484375 39.40625 48.484375 
Q 32.28125 48.484375 27.09375 42.875 
Q 21.921875 37.203125 20.015625 27.296875 
Q 18.0625 17.390625 21.046875 11.71875 
Q 24.03125 6.109375 31.15625 6.109375 
Q 38.28125 6.109375 43.453125 11.71875 
Q 48.640625 17.390625 50.59375 27.296875 
z
" id="DejaVuSans-Oblique-961"/>
      </defs>
      <use xlink:href="#DejaVuSans-Oblique-961"/>
      <use transform="translate(63.476562 -16.40625)scale(0.7)" xlink:href="#DejaVuSans-Oblique-84"/>
      <use transform="translate(106.235352 -16.40625)scale(0.7)" xlink:href="#DejaVuSans-Oblique-79"/>
      <use transform="translate(161.333008 -16.40625)scale(0.7)" xlink:href="#DejaVuSans-Oblique-86"/>
     </g>
    </g>
    <g id="line2d_42">
     <path d="M 353.12 334.124148 
L 373.12 334.124148 
" style="fill:none;stroke:#000000;stroke-dasharray:9.6,2.4,1.5,2.4;stroke-dashoffset:0;stroke-width:1.5;"/>
    </g>
    <g id="line2d_43"/>
    <g id="text_33">
     <!-- $\rho_{LE}$ -->
     <g transform="translate(381.12 337.624148)scale(0.1 -0.1)">
      <use xlink:href="#DejaVuSans-Oblique-961"/>
      <use transform="translate(63.476562 -16.40625)scale(0.7)" xlink:href="#DejaVuSans-Oblique-76"/>
      <use transform="translate(102.475586 -16.40625)scale(0.7)" xlink:href="#DejaVuSans-Oblique-69"/>
     </g>
    </g>
    <g id="line2d_44">
     <path d="M 353.12 348.822585 
L 373.12 348.822585 
" style="fill:none;stroke:#000000;stroke-linecap:square;stroke-width:1.5;"/>
    </g>
    <g id="line2d_45"/>
    <g id="text_34">
     <!-- $m_{TOV}$ -->
     <g transform="translate(381.12 352.322585)scale(0.1 -0.1)">
      <defs>
       <path d="M 89.796875 33.015625 
L 83.40625 0 
L 74.421875 0 
L 80.71875 32.71875 
Q 81.109375 34.8125 81.296875 36.328125 
Q 81.5 37.84375 81.5 38.921875 
Q 81.5 43.3125 79.046875 45.75 
Q 76.609375 48.1875 72.21875 48.1875 
Q 65.671875 48.1875 60.546875 43.28125 
Q 55.421875 38.375 53.90625 30.515625 
L 47.90625 0 
L 38.921875 0 
L 45.3125 32.71875 
Q 45.703125 34.515625 45.890625 36.046875 
Q 46.09375 37.59375 46.09375 38.8125 
Q 46.09375 43.265625 43.65625 45.71875 
Q 41.21875 48.1875 36.921875 48.1875 
Q 30.28125 48.1875 25.140625 43.28125 
Q 20.015625 38.375 18.5 30.515625 
L 12.5 0 
L 3.515625 0 
L 14.203125 54.6875 
L 23.1875 54.6875 
L 21.484375 46.1875 
Q 25.140625 50.984375 30.046875 53.484375 
Q 34.96875 56 40.578125 56 
Q 46.53125 56 50.359375 52.875 
Q 54.203125 49.75 54.984375 44.1875 
Q 59.078125 49.953125 64.46875 52.96875 
Q 69.875 56 75.875 56 
Q 82.90625 56 86.734375 51.953125 
Q 90.578125 47.90625 90.578125 40.484375 
Q 90.578125 38.875 90.375 36.9375 
Q 90.1875 35.015625 89.796875 33.015625 
z
" id="DejaVuSans-Oblique-109"/>
      </defs>
      <use xlink:href="#DejaVuSans-Oblique-109"/>
      <use transform="translate(97.412109 -16.40625)scale(0.7)" xlink:href="#DejaVuSans-Oblique-84"/>
      <use transform="translate(140.170898 -16.40625)scale(0.7)" xlink:href="#DejaVuSans-Oblique-79"/>
      <use transform="translate(195.268555 -16.40625)scale(0.7)" xlink:href="#DejaVuSans-Oblique-86"/>
     </g>
    </g>
    <g id="line2d_46">
     <path d="M 353.12 363.50071 
L 373.12 363.50071 
" style="fill:none;stroke:#000000;stroke-dasharray:1.5,2.475;stroke-dashoffset:0;stroke-width:1.5;"/>
    </g>
    <g id="line2d_47"/>
    <g id="text_35">
     <!-- $m_{LE}$ -->
     <g transform="translate(381.12 367.00071)scale(0.1 -0.1)">
      <use xlink:href="#DejaVuSans-Oblique-109"/>
      <use transform="translate(97.412109 -16.40625)scale(0.7)" xlink:href="#DejaVuSans-Oblique-76"/>
      <use transform="translate(136.411133 -16.40625)scale(0.7)" xlink:href="#DejaVuSans-Oblique-69"/>
     </g>
    </g>
   </g>
  </g>
 </g>
 <defs>
  <clipPath id="p27d73bca5e">
   <rect height="197.672727" width="357.12" x="57.6" y="69.12"/>
  </clipPath>
  <clipPath id="p2e2cf0c357">
   <rect height="197.672727" width="357.12" x="57.6" y="306.327273"/>
  </clipPath>
 </defs>
</svg>
