<?xml version="1.0" encoding="utf-8" standalone="no"?>
<!DOCTYPE svg PUBLIC "-//W3C//DTD SVG 1.1//EN"
  "http://www.w3.org/Graphics/SVG/1.1/DTD/svg11.dtd">
<!-- Created with matplotlib (https://matplotlib.org/) -->
<svg height="288pt" version="1.1" viewBox="0 0 460.8 288" width="460.8pt" xmlns="http://www.w3.org/2000/svg" xmlns:xlink="http://www.w3.org/1999/xlink">
 <metadata>
  <rdf:RDF xmlns:cc="http://creativecommons.org/ns#" xmlns:dc="http://purl.org/dc/elements/1.1/" xmlns:rdf="http://www.w3.org/1999/02/22-rdf-syntax-ns#">
   <cc:Work>
    <dc:type rdf:resource="http://purl.org/dc/dcmitype/StillImage"/>
    <dc:date>2020-11-19T13:12:39.662431</dc:date>
    <dc:format>image/svg+xml</dc:format>
    <dc:creator>
     <cc:Agent>
      <dc:title>Matplotlib v3.3.2, https://matplotlib.org/</dc:title>
     </cc:Agent>
    </dc:creator>
   </cc:Work>
  </rdf:RDF>
 </metadata>
 <defs>
  <style type="text/css">*{stroke-linecap:butt;stroke-linejoin:round;}</style>
 </defs>
 <g id="figure_1">
  <g id="patch_1">
   <path d="M 0 288 
L 460.8 288 
L 460.8 0 
L 0 0 
z
" style="fill:#ffffff;"/>
  </g>
  <g id="axes_1">
   <g id="patch_2">
    <path d="M 57.6 252 
L 414.72 252 
L 414.72 34.56 
L 57.6 34.56 
z
" style="fill:#ffffff;"/>
   </g>
   <g id="matplotlib.axis_1">
    <g id="xtick_1">
     <g id="line2d_1">
      <defs>
       <path d="M 0 0 
L 0 3.5 
" id="m07ba505abe" style="stroke:#000000;stroke-width:0.8;"/>
      </defs>
      <g>
       <use style="stroke:#000000;stroke-width:0.8;" x="73.170167" xlink:href="#m07ba505abe" y="252"/>
      </g>
     </g>
     <g id="text_1">
      <!-- 0 -->
      <g transform="translate(69.988917 266.598437)scale(0.1 -0.1)">
       <defs>
        <path d="M 31.78125 66.40625 
Q 24.171875 66.40625 20.328125 58.90625 
Q 16.5 51.421875 16.5 36.375 
Q 16.5 21.390625 20.328125 13.890625 
Q 24.171875 6.390625 31.78125 6.390625 
Q 39.453125 6.390625 43.28125 13.890625 
Q 47.125 21.390625 47.125 36.375 
Q 47.125 51.421875 43.28125 58.90625 
Q 39.453125 66.40625 31.78125 66.40625 
z
M 31.78125 74.21875 
Q 44.046875 74.21875 50.515625 64.515625 
Q 56.984375 54.828125 56.984375 36.375 
Q 56.984375 17.96875 50.515625 8.265625 
Q 44.046875 -1.421875 31.78125 -1.421875 
Q 19.53125 -1.421875 13.0625 8.265625 
Q 6.59375 17.96875 6.59375 36.375 
Q 6.59375 54.828125 13.0625 64.515625 
Q 19.53125 74.21875 31.78125 74.21875 
z
" id="DejaVuSans-48"/>
       </defs>
       <use xlink:href="#DejaVuSans-48"/>
      </g>
     </g>
    </g>
    <g id="xtick_2">
     <g id="line2d_2">
      <g>
       <use style="stroke:#000000;stroke-width:0.8;" x="139.426199" xlink:href="#m07ba505abe" y="252"/>
      </g>
     </g>
     <g id="text_2">
      <!-- 1 -->
      <g transform="translate(136.244949 266.598437)scale(0.1 -0.1)">
       <defs>
        <path d="M 12.40625 8.296875 
L 28.515625 8.296875 
L 28.515625 63.921875 
L 10.984375 60.40625 
L 10.984375 69.390625 
L 28.421875 72.90625 
L 38.28125 72.90625 
L 38.28125 8.296875 
L 54.390625 8.296875 
L 54.390625 0 
L 12.40625 0 
z
" id="DejaVuSans-49"/>
       </defs>
       <use xlink:href="#DejaVuSans-49"/>
      </g>
     </g>
    </g>
    <g id="xtick_3">
     <g id="line2d_3">
      <g>
       <use style="stroke:#000000;stroke-width:0.8;" x="205.68223" xlink:href="#m07ba505abe" y="252"/>
      </g>
     </g>
     <g id="text_3">
      <!-- 2 -->
      <g transform="translate(202.50098 266.598437)scale(0.1 -0.1)">
       <defs>
        <path d="M 19.1875 8.296875 
L 53.609375 8.296875 
L 53.609375 0 
L 7.328125 0 
L 7.328125 8.296875 
Q 12.9375 14.109375 22.625 23.890625 
Q 32.328125 33.6875 34.8125 36.53125 
Q 39.546875 41.84375 41.421875 45.53125 
Q 43.3125 49.21875 43.3125 52.78125 
Q 43.3125 58.59375 39.234375 62.25 
Q 35.15625 65.921875 28.609375 65.921875 
Q 23.96875 65.921875 18.8125 64.3125 
Q 13.671875 62.703125 7.8125 59.421875 
L 7.8125 69.390625 
Q 13.765625 71.78125 18.9375 73 
Q 24.125 74.21875 28.421875 74.21875 
Q 39.75 74.21875 46.484375 68.546875 
Q 53.21875 62.890625 53.21875 53.421875 
Q 53.21875 48.921875 51.53125 44.890625 
Q 49.859375 40.875 45.40625 35.40625 
Q 44.1875 33.984375 37.640625 27.21875 
Q 31.109375 20.453125 19.1875 8.296875 
z
" id="DejaVuSans-50"/>
       </defs>
       <use xlink:href="#DejaVuSans-50"/>
      </g>
     </g>
    </g>
    <g id="xtick_4">
     <g id="line2d_4">
      <g>
       <use style="stroke:#000000;stroke-width:0.8;" x="271.938262" xlink:href="#m07ba505abe" y="252"/>
      </g>
     </g>
     <g id="text_4">
      <!-- 3 -->
      <g transform="translate(268.757012 266.598437)scale(0.1 -0.1)">
       <defs>
        <path d="M 40.578125 39.3125 
Q 47.65625 37.796875 51.625 33 
Q 55.609375 28.21875 55.609375 21.1875 
Q 55.609375 10.40625 48.1875 4.484375 
Q 40.765625 -1.421875 27.09375 -1.421875 
Q 22.515625 -1.421875 17.65625 -0.515625 
Q 12.796875 0.390625 7.625 2.203125 
L 7.625 11.71875 
Q 11.71875 9.328125 16.59375 8.109375 
Q 21.484375 6.890625 26.8125 6.890625 
Q 36.078125 6.890625 40.9375 10.546875 
Q 45.796875 14.203125 45.796875 21.1875 
Q 45.796875 27.640625 41.28125 31.265625 
Q 36.765625 34.90625 28.71875 34.90625 
L 20.21875 34.90625 
L 20.21875 43.015625 
L 29.109375 43.015625 
Q 36.375 43.015625 40.234375 45.921875 
Q 44.09375 48.828125 44.09375 54.296875 
Q 44.09375 59.90625 40.109375 62.90625 
Q 36.140625 65.921875 28.71875 65.921875 
Q 24.65625 65.921875 20.015625 65.03125 
Q 15.375 64.15625 9.8125 62.3125 
L 9.8125 71.09375 
Q 15.4375 72.65625 20.34375 73.4375 
Q 25.25 74.21875 29.59375 74.21875 
Q 40.828125 74.21875 47.359375 69.109375 
Q 53.90625 64.015625 53.90625 55.328125 
Q 53.90625 49.265625 50.4375 45.09375 
Q 46.96875 40.921875 40.578125 39.3125 
z
" id="DejaVuSans-51"/>
       </defs>
       <use xlink:href="#DejaVuSans-51"/>
      </g>
     </g>
    </g>
    <g id="xtick_5">
     <g id="line2d_5">
      <g>
       <use style="stroke:#000000;stroke-width:0.8;" x="338.194294" xlink:href="#m07ba505abe" y="252"/>
      </g>
     </g>
     <g id="text_5">
      <!-- 4 -->
      <g transform="translate(335.013044 266.598437)scale(0.1 -0.1)">
       <defs>
        <path d="M 37.796875 64.3125 
L 12.890625 25.390625 
L 37.796875 25.390625 
z
M 35.203125 72.90625 
L 47.609375 72.90625 
L 47.609375 25.390625 
L 58.015625 25.390625 
L 58.015625 17.1875 
L 47.609375 17.1875 
L 47.609375 0 
L 37.796875 0 
L 37.796875 17.1875 
L 4.890625 17.1875 
L 4.890625 26.703125 
z
" id="DejaVuSans-52"/>
       </defs>
       <use xlink:href="#DejaVuSans-52"/>
      </g>
     </g>
    </g>
    <g id="xtick_6">
     <g id="line2d_6">
      <g>
       <use style="stroke:#000000;stroke-width:0.8;" x="404.450326" xlink:href="#m07ba505abe" y="252"/>
      </g>
     </g>
     <g id="text_6">
      <!-- 5 -->
      <g transform="translate(401.269076 266.598437)scale(0.1 -0.1)">
       <defs>
        <path d="M 10.796875 72.90625 
L 49.515625 72.90625 
L 49.515625 64.59375 
L 19.828125 64.59375 
L 19.828125 46.734375 
Q 21.96875 47.46875 24.109375 47.828125 
Q 26.265625 48.1875 28.421875 48.1875 
Q 40.625 48.1875 47.75 41.5 
Q 54.890625 34.8125 54.890625 23.390625 
Q 54.890625 11.625 47.5625 5.09375 
Q 40.234375 -1.421875 26.90625 -1.421875 
Q 22.3125 -1.421875 17.546875 -0.640625 
Q 12.796875 0.140625 7.71875 1.703125 
L 7.71875 11.625 
Q 12.109375 9.234375 16.796875 8.0625 
Q 21.484375 6.890625 26.703125 6.890625 
Q 35.15625 6.890625 40.078125 11.328125 
Q 45.015625 15.765625 45.015625 23.390625 
Q 45.015625 31 40.078125 35.4375 
Q 35.15625 39.890625 26.703125 39.890625 
Q 22.75 39.890625 18.8125 39.015625 
Q 14.890625 38.140625 10.796875 36.28125 
z
" id="DejaVuSans-53"/>
       </defs>
       <use xlink:href="#DejaVuSans-53"/>
      </g>
     </g>
    </g>
    <g id="text_7">
     <!-- Exponent $n=\frac{1}{\gamma-1}$ -->
     <g transform="translate(192.31 282.178125)scale(0.1 -0.1)">
      <defs>
       <path d="M 9.8125 72.90625 
L 55.90625 72.90625 
L 55.90625 64.59375 
L 19.671875 64.59375 
L 19.671875 43.015625 
L 54.390625 43.015625 
L 54.390625 34.71875 
L 19.671875 34.71875 
L 19.671875 8.296875 
L 56.78125 8.296875 
L 56.78125 0 
L 9.8125 0 
z
" id="DejaVuSans-69"/>
       <path d="M 54.890625 54.6875 
L 35.109375 28.078125 
L 55.90625 0 
L 45.3125 0 
L 29.390625 21.484375 
L 13.484375 0 
L 2.875 0 
L 24.125 28.609375 
L 4.6875 54.6875 
L 15.28125 54.6875 
L 29.78125 35.203125 
L 44.28125 54.6875 
z
" id="DejaVuSans-120"/>
       <path d="M 18.109375 8.203125 
L 18.109375 -20.796875 
L 9.078125 -20.796875 
L 9.078125 54.6875 
L 18.109375 54.6875 
L 18.109375 46.390625 
Q 20.953125 51.265625 25.265625 53.625 
Q 29.59375 56 35.59375 56 
Q 45.5625 56 51.78125 48.09375 
Q 58.015625 40.1875 58.015625 27.296875 
Q 58.015625 14.40625 51.78125 6.484375 
Q 45.5625 -1.421875 35.59375 -1.421875 
Q 29.59375 -1.421875 25.265625 0.953125 
Q 20.953125 3.328125 18.109375 8.203125 
z
M 48.6875 27.296875 
Q 48.6875 37.203125 44.609375 42.84375 
Q 40.53125 48.484375 33.40625 48.484375 
Q 26.265625 48.484375 22.1875 42.84375 
Q 18.109375 37.203125 18.109375 27.296875 
Q 18.109375 17.390625 22.1875 11.75 
Q 26.265625 6.109375 33.40625 6.109375 
Q 40.53125 6.109375 44.609375 11.75 
Q 48.6875 17.390625 48.6875 27.296875 
z
" id="DejaVuSans-112"/>
       <path d="M 30.609375 48.390625 
Q 23.390625 48.390625 19.1875 42.75 
Q 14.984375 37.109375 14.984375 27.296875 
Q 14.984375 17.484375 19.15625 11.84375 
Q 23.34375 6.203125 30.609375 6.203125 
Q 37.796875 6.203125 41.984375 11.859375 
Q 46.1875 17.53125 46.1875 27.296875 
Q 46.1875 37.015625 41.984375 42.703125 
Q 37.796875 48.390625 30.609375 48.390625 
z
M 30.609375 56 
Q 42.328125 56 49.015625 48.375 
Q 55.71875 40.765625 55.71875 27.296875 
Q 55.71875 13.875 49.015625 6.21875 
Q 42.328125 -1.421875 30.609375 -1.421875 
Q 18.84375 -1.421875 12.171875 6.21875 
Q 5.515625 13.875 5.515625 27.296875 
Q 5.515625 40.765625 12.171875 48.375 
Q 18.84375 56 30.609375 56 
z
" id="DejaVuSans-111"/>
       <path d="M 54.890625 33.015625 
L 54.890625 0 
L 45.90625 0 
L 45.90625 32.71875 
Q 45.90625 40.484375 42.875 44.328125 
Q 39.84375 48.1875 33.796875 48.1875 
Q 26.515625 48.1875 22.3125 43.546875 
Q 18.109375 38.921875 18.109375 30.90625 
L 18.109375 0 
L 9.078125 0 
L 9.078125 54.6875 
L 18.109375 54.6875 
L 18.109375 46.1875 
Q 21.34375 51.125 25.703125 53.5625 
Q 30.078125 56 35.796875 56 
Q 45.21875 56 50.046875 50.171875 
Q 54.890625 44.34375 54.890625 33.015625 
z
" id="DejaVuSans-110"/>
       <path d="M 56.203125 29.59375 
L 56.203125 25.203125 
L 14.890625 25.203125 
Q 15.484375 15.921875 20.484375 11.0625 
Q 25.484375 6.203125 34.421875 6.203125 
Q 39.59375 6.203125 44.453125 7.46875 
Q 49.3125 8.734375 54.109375 11.28125 
L 54.109375 2.78125 
Q 49.265625 0.734375 44.1875 -0.34375 
Q 39.109375 -1.421875 33.890625 -1.421875 
Q 20.796875 -1.421875 13.15625 6.1875 
Q 5.515625 13.8125 5.515625 26.8125 
Q 5.515625 40.234375 12.765625 48.109375 
Q 20.015625 56 32.328125 56 
Q 43.359375 56 49.78125 48.890625 
Q 56.203125 41.796875 56.203125 29.59375 
z
M 47.21875 32.234375 
Q 47.125 39.59375 43.09375 43.984375 
Q 39.0625 48.390625 32.421875 48.390625 
Q 24.90625 48.390625 20.390625 44.140625 
Q 15.875 39.890625 15.1875 32.171875 
z
" id="DejaVuSans-101"/>
       <path d="M 18.3125 70.21875 
L 18.3125 54.6875 
L 36.8125 54.6875 
L 36.8125 47.703125 
L 18.3125 47.703125 
L 18.3125 18.015625 
Q 18.3125 11.328125 20.140625 9.421875 
Q 21.96875 7.515625 27.59375 7.515625 
L 36.8125 7.515625 
L 36.8125 0 
L 27.59375 0 
Q 17.1875 0 13.234375 3.875 
Q 9.28125 7.765625 9.28125 18.015625 
L 9.28125 47.703125 
L 2.6875 47.703125 
L 2.6875 54.6875 
L 9.28125 54.6875 
L 9.28125 70.21875 
z
" id="DejaVuSans-116"/>
       <path id="DejaVuSans-32"/>
       <path d="M 55.71875 33.015625 
L 49.3125 0 
L 40.28125 0 
L 46.6875 32.671875 
Q 47.125 34.96875 47.359375 36.71875 
Q 47.609375 38.484375 47.609375 39.5 
Q 47.609375 43.609375 45.015625 45.890625 
Q 42.4375 48.1875 37.796875 48.1875 
Q 30.5625 48.1875 25.34375 43.375 
Q 20.125 38.578125 18.5 30.328125 
L 12.5 0 
L 3.515625 0 
L 14.109375 54.6875 
L 23.09375 54.6875 
L 21.296875 46.09375 
Q 25.046875 50.828125 30.3125 53.40625 
Q 35.59375 56 41.40625 56 
Q 48.640625 56 52.609375 52.09375 
Q 56.59375 48.1875 56.59375 41.109375 
Q 56.59375 39.359375 56.375 37.359375 
Q 56.15625 35.359375 55.71875 33.015625 
z
" id="DejaVuSans-Oblique-110"/>
       <path d="M 10.59375 45.40625 
L 73.1875 45.40625 
L 73.1875 37.203125 
L 10.59375 37.203125 
z
M 10.59375 25.484375 
L 73.1875 25.484375 
L 73.1875 17.1875 
L 10.59375 17.1875 
z
" id="DejaVuSans-61"/>
       <path d="M 23.296875 46.09375 
L 28.71875 12.3125 
L 54 54.6875 
L 63.53125 54.6875 
L 30.8125 0 
L 26.765625 -20.796875 
L 17.78125 -20.796875 
L 21.828125 0 
L 15.4375 40.828125 
Q 14.453125 46.96875 9.8125 46.96875 
L 7.421875 46.96875 
L 8.890625 54.6875 
L 12.3125 54.6875 
Q 21.921875 54.6875 23.296875 46.09375 
z
" id="DejaVuSans-Oblique-947"/>
       <path d="M 10.59375 35.5 
L 73.1875 35.5 
L 73.1875 27.203125 
L 10.59375 27.203125 
z
" id="DejaVuSans-8722"/>
      </defs>
      <use transform="translate(0 0.16875)" xlink:href="#DejaVuSans-69"/>
      <use transform="translate(63.183594 0.16875)" xlink:href="#DejaVuSans-120"/>
      <use transform="translate(122.363281 0.16875)" xlink:href="#DejaVuSans-112"/>
      <use transform="translate(185.839844 0.16875)" xlink:href="#DejaVuSans-111"/>
      <use transform="translate(247.021484 0.16875)" xlink:href="#DejaVuSans-110"/>
      <use transform="translate(310.400391 0.16875)" xlink:href="#DejaVuSans-101"/>
      <use transform="translate(371.923828 0.16875)" xlink:href="#DejaVuSans-110"/>
      <use transform="translate(435.302734 0.16875)" xlink:href="#DejaVuSans-116"/>
      <use transform="translate(474.511719 0.16875)" xlink:href="#DejaVuSans-32"/>
      <use transform="translate(506.298828 0.16875)" xlink:href="#DejaVuSans-Oblique-110"/>
      <use transform="translate(589.160156 0.16875)" xlink:href="#DejaVuSans-61"/>
      <use transform="translate(756.431641 43.965625)scale(0.7)" xlink:href="#DejaVuSans-49"/>
      <use transform="translate(692.431641 -38.31875)scale(0.7)" xlink:href="#DejaVuSans-Oblique-947"/>
      <use transform="translate(747.495117 -38.31875)scale(0.7)" xlink:href="#DejaVuSans-8722"/>
      <use transform="translate(819.785156 -38.31875)scale(0.7)" xlink:href="#DejaVuSans-49"/>
      <path d="M 692.431641 18.965625 
L 692.431641 25.215625 
L 864.321289 25.215625 
L 864.321289 18.965625 
L 692.431641 18.965625 
z
"/>
     </g>
    </g>
   </g>
   <g id="matplotlib.axis_2">
    <g id="ytick_1">
     <g id="line2d_7">
      <defs>
       <path d="M 0 0 
L -3.5 0 
" id="m99075a0f9b" style="stroke:#000000;stroke-width:0.8;"/>
      </defs>
      <g>
       <use style="stroke:#000000;stroke-width:0.8;" x="57.6" xlink:href="#m99075a0f9b" y="228.272219"/>
      </g>
     </g>
     <g id="text_8">
      <!-- $\mathdefault{10^{-1}}$ -->
      <g transform="translate(27.1 232.071437)scale(0.1 -0.1)">
       <use transform="translate(0 0.684375)" xlink:href="#DejaVuSans-49"/>
       <use transform="translate(63.623047 0.684375)" xlink:href="#DejaVuSans-48"/>
       <use transform="translate(128.203125 38.965625)scale(0.7)" xlink:href="#DejaVuSans-8722"/>
       <use transform="translate(186.855469 38.965625)scale(0.7)" xlink:href="#DejaVuSans-49"/>
      </g>
     </g>
    </g>
    <g id="ytick_2">
     <g id="line2d_8">
      <g>
       <use style="stroke:#000000;stroke-width:0.8;" x="57.6" xlink:href="#m99075a0f9b" y="182.282964"/>
      </g>
     </g>
     <g id="text_9">
      <!-- $\mathdefault{10^{0}}$ -->
      <g transform="translate(33 186.082182)scale(0.1 -0.1)">
       <use transform="translate(0 0.765625)" xlink:href="#DejaVuSans-49"/>
       <use transform="translate(63.623047 0.765625)" xlink:href="#DejaVuSans-48"/>
       <use transform="translate(128.203125 39.046875)scale(0.7)" xlink:href="#DejaVuSans-48"/>
      </g>
     </g>
    </g>
    <g id="ytick_3">
     <g id="line2d_9">
      <g>
       <use style="stroke:#000000;stroke-width:0.8;" x="57.6" xlink:href="#m99075a0f9b" y="136.293709"/>
      </g>
     </g>
     <g id="text_10">
      <!-- $\mathdefault{10^{1}}$ -->
      <g transform="translate(33 140.092927)scale(0.1 -0.1)">
       <use transform="translate(0 0.684375)" xlink:href="#DejaVuSans-49"/>
       <use transform="translate(63.623047 0.684375)" xlink:href="#DejaVuSans-48"/>
       <use transform="translate(128.203125 38.965625)scale(0.7)" xlink:href="#DejaVuSans-49"/>
      </g>
     </g>
    </g>
    <g id="ytick_4">
     <g id="line2d_10">
      <g>
       <use style="stroke:#000000;stroke-width:0.8;" x="57.6" xlink:href="#m99075a0f9b" y="90.304454"/>
      </g>
     </g>
     <g id="text_11">
      <!-- $\mathdefault{10^{2}}$ -->
      <g transform="translate(33 94.103672)scale(0.1 -0.1)">
       <use transform="translate(0 0.765625)" xlink:href="#DejaVuSans-49"/>
       <use transform="translate(63.623047 0.765625)" xlink:href="#DejaVuSans-48"/>
       <use transform="translate(128.203125 39.046875)scale(0.7)" xlink:href="#DejaVuSans-50"/>
      </g>
     </g>
    </g>
    <g id="ytick_5">
     <g id="line2d_11">
      <g>
       <use style="stroke:#000000;stroke-width:0.8;" x="57.6" xlink:href="#m99075a0f9b" y="44.315199"/>
      </g>
     </g>
     <g id="text_12">
      <!-- $\mathdefault{10^{3}}$ -->
      <g transform="translate(33 48.114417)scale(0.1 -0.1)">
       <use transform="translate(0 0.765625)" xlink:href="#DejaVuSans-49"/>
       <use transform="translate(63.623047 0.765625)" xlink:href="#DejaVuSans-48"/>
       <use transform="translate(128.203125 39.046875)scale(0.7)" xlink:href="#DejaVuSans-51"/>
      </g>
     </g>
    </g>
    <g id="ytick_6">
     <g id="line2d_12">
      <defs>
       <path d="M 0 0 
L -2 0 
" id="mc038b67e52" style="stroke:#000000;stroke-width:0.6;"/>
      </defs>
      <g>
       <use style="stroke:#000000;stroke-width:0.6;" x="57.6" xlink:href="#mc038b67e52" y="246.573183"/>
      </g>
     </g>
    </g>
    <g id="ytick_7">
     <g id="line2d_13">
      <g>
       <use style="stroke:#000000;stroke-width:0.6;" x="57.6" xlink:href="#mc038b67e52" y="242.116364"/>
      </g>
     </g>
    </g>
    <g id="ytick_8">
     <g id="line2d_14">
      <g>
       <use style="stroke:#000000;stroke-width:0.6;" x="57.6" xlink:href="#mc038b67e52" y="238.474877"/>
      </g>
     </g>
    </g>
    <g id="ytick_9">
     <g id="line2d_15">
      <g>
       <use style="stroke:#000000;stroke-width:0.6;" x="57.6" xlink:href="#mc038b67e52" y="235.396044"/>
      </g>
     </g>
    </g>
    <g id="ytick_10">
     <g id="line2d_16">
      <g>
       <use style="stroke:#000000;stroke-width:0.6;" x="57.6" xlink:href="#mc038b67e52" y="232.729038"/>
      </g>
     </g>
    </g>
    <g id="ytick_11">
     <g id="line2d_17">
      <g>
       <use style="stroke:#000000;stroke-width:0.6;" x="57.6" xlink:href="#mc038b67e52" y="230.376572"/>
      </g>
     </g>
    </g>
    <g id="ytick_12">
     <g id="line2d_18">
      <g>
       <use style="stroke:#000000;stroke-width:0.6;" x="57.6" xlink:href="#mc038b67e52" y="214.428073"/>
      </g>
     </g>
    </g>
    <g id="ytick_13">
     <g id="line2d_19">
      <g>
       <use style="stroke:#000000;stroke-width:0.6;" x="57.6" xlink:href="#mc038b67e52" y="206.329768"/>
      </g>
     </g>
    </g>
    <g id="ytick_14">
     <g id="line2d_20">
      <g>
       <use style="stroke:#000000;stroke-width:0.6;" x="57.6" xlink:href="#mc038b67e52" y="200.583928"/>
      </g>
     </g>
    </g>
    <g id="ytick_15">
     <g id="line2d_21">
      <g>
       <use style="stroke:#000000;stroke-width:0.6;" x="57.6" xlink:href="#mc038b67e52" y="196.127109"/>
      </g>
     </g>
    </g>
    <g id="ytick_16">
     <g id="line2d_22">
      <g>
       <use style="stroke:#000000;stroke-width:0.6;" x="57.6" xlink:href="#mc038b67e52" y="192.485622"/>
      </g>
     </g>
    </g>
    <g id="ytick_17">
     <g id="line2d_23">
      <g>
       <use style="stroke:#000000;stroke-width:0.6;" x="57.6" xlink:href="#mc038b67e52" y="189.406789"/>
      </g>
     </g>
    </g>
    <g id="ytick_18">
     <g id="line2d_24">
      <g>
       <use style="stroke:#000000;stroke-width:0.6;" x="57.6" xlink:href="#mc038b67e52" y="186.739783"/>
      </g>
     </g>
    </g>
    <g id="ytick_19">
     <g id="line2d_25">
      <g>
       <use style="stroke:#000000;stroke-width:0.6;" x="57.6" xlink:href="#mc038b67e52" y="184.387317"/>
      </g>
     </g>
    </g>
    <g id="ytick_20">
     <g id="line2d_26">
      <g>
       <use style="stroke:#000000;stroke-width:0.6;" x="57.6" xlink:href="#mc038b67e52" y="168.438818"/>
      </g>
     </g>
    </g>
    <g id="ytick_21">
     <g id="line2d_27">
      <g>
       <use style="stroke:#000000;stroke-width:0.6;" x="57.6" xlink:href="#mc038b67e52" y="160.340513"/>
      </g>
     </g>
    </g>
    <g id="ytick_22">
     <g id="line2d_28">
      <g>
       <use style="stroke:#000000;stroke-width:0.6;" x="57.6" xlink:href="#mc038b67e52" y="154.594673"/>
      </g>
     </g>
    </g>
    <g id="ytick_23">
     <g id="line2d_29">
      <g>
       <use style="stroke:#000000;stroke-width:0.6;" x="57.6" xlink:href="#mc038b67e52" y="150.137854"/>
      </g>
     </g>
    </g>
    <g id="ytick_24">
     <g id="line2d_30">
      <g>
       <use style="stroke:#000000;stroke-width:0.6;" x="57.6" xlink:href="#mc038b67e52" y="146.496367"/>
      </g>
     </g>
    </g>
    <g id="ytick_25">
     <g id="line2d_31">
      <g>
       <use style="stroke:#000000;stroke-width:0.6;" x="57.6" xlink:href="#mc038b67e52" y="143.417534"/>
      </g>
     </g>
    </g>
    <g id="ytick_26">
     <g id="line2d_32">
      <g>
       <use style="stroke:#000000;stroke-width:0.6;" x="57.6" xlink:href="#mc038b67e52" y="140.750528"/>
      </g>
     </g>
    </g>
    <g id="ytick_27">
     <g id="line2d_33">
      <g>
       <use style="stroke:#000000;stroke-width:0.6;" x="57.6" xlink:href="#mc038b67e52" y="138.398062"/>
      </g>
     </g>
    </g>
    <g id="ytick_28">
     <g id="line2d_34">
      <g>
       <use style="stroke:#000000;stroke-width:0.6;" x="57.6" xlink:href="#mc038b67e52" y="122.449563"/>
      </g>
     </g>
    </g>
    <g id="ytick_29">
     <g id="line2d_35">
      <g>
       <use style="stroke:#000000;stroke-width:0.6;" x="57.6" xlink:href="#mc038b67e52" y="114.351258"/>
      </g>
     </g>
    </g>
    <g id="ytick_30">
     <g id="line2d_36">
      <g>
       <use style="stroke:#000000;stroke-width:0.6;" x="57.6" xlink:href="#mc038b67e52" y="108.605418"/>
      </g>
     </g>
    </g>
    <g id="ytick_31">
     <g id="line2d_37">
      <g>
       <use style="stroke:#000000;stroke-width:0.6;" x="57.6" xlink:href="#mc038b67e52" y="104.148599"/>
      </g>
     </g>
    </g>
    <g id="ytick_32">
     <g id="line2d_38">
      <g>
       <use style="stroke:#000000;stroke-width:0.6;" x="57.6" xlink:href="#mc038b67e52" y="100.507112"/>
      </g>
     </g>
    </g>
    <g id="ytick_33">
     <g id="line2d_39">
      <g>
       <use style="stroke:#000000;stroke-width:0.6;" x="57.6" xlink:href="#mc038b67e52" y="97.428279"/>
      </g>
     </g>
    </g>
    <g id="ytick_34">
     <g id="line2d_40">
      <g>
       <use style="stroke:#000000;stroke-width:0.6;" x="57.6" xlink:href="#mc038b67e52" y="94.761273"/>
      </g>
     </g>
    </g>
    <g id="ytick_35">
     <g id="line2d_41">
      <g>
       <use style="stroke:#000000;stroke-width:0.6;" x="57.6" xlink:href="#mc038b67e52" y="92.408807"/>
      </g>
     </g>
    </g>
    <g id="ytick_36">
     <g id="line2d_42">
      <g>
       <use style="stroke:#000000;stroke-width:0.6;" x="57.6" xlink:href="#mc038b67e52" y="76.460308"/>
      </g>
     </g>
    </g>
    <g id="ytick_37">
     <g id="line2d_43">
      <g>
       <use style="stroke:#000000;stroke-width:0.6;" x="57.6" xlink:href="#mc038b67e52" y="68.362003"/>
      </g>
     </g>
    </g>
    <g id="ytick_38">
     <g id="line2d_44">
      <g>
       <use style="stroke:#000000;stroke-width:0.6;" x="57.6" xlink:href="#mc038b67e52" y="62.616163"/>
      </g>
     </g>
    </g>
    <g id="ytick_39">
     <g id="line2d_45">
      <g>
       <use style="stroke:#000000;stroke-width:0.6;" x="57.6" xlink:href="#mc038b67e52" y="58.159344"/>
      </g>
     </g>
    </g>
    <g id="ytick_40">
     <g id="line2d_46">
      <g>
       <use style="stroke:#000000;stroke-width:0.6;" x="57.6" xlink:href="#mc038b67e52" y="54.517857"/>
      </g>
     </g>
    </g>
    <g id="ytick_41">
     <g id="line2d_47">
      <g>
       <use style="stroke:#000000;stroke-width:0.6;" x="57.6" xlink:href="#mc038b67e52" y="51.439024"/>
      </g>
     </g>
    </g>
    <g id="ytick_42">
     <g id="line2d_48">
      <g>
       <use style="stroke:#000000;stroke-width:0.6;" x="57.6" xlink:href="#mc038b67e52" y="48.772018"/>
      </g>
     </g>
    </g>
    <g id="ytick_43">
     <g id="line2d_49">
      <g>
       <use style="stroke:#000000;stroke-width:0.6;" x="57.6" xlink:href="#mc038b67e52" y="46.419552"/>
      </g>
     </g>
    </g>
    <g id="text_13">
     <!-- $r_0$ -->
     <g transform="translate(21.020313 147.73)rotate(-90)scale(0.1 -0.1)">
      <defs>
       <path d="M 44.578125 46.390625 
Q 43.21875 47.125 41.453125 47.515625 
Q 39.703125 47.90625 37.703125 47.90625 
Q 30.515625 47.90625 25.140625 42.453125 
Q 19.78125 37.015625 18.015625 27.875 
L 12.5 0 
L 3.515625 0 
L 14.203125 54.6875 
L 23.1875 54.6875 
L 21.484375 46.1875 
Q 25.046875 50.921875 30 53.453125 
Q 34.96875 56 40.578125 56 
Q 42.046875 56 43.453125 55.828125 
Q 44.875 55.671875 46.296875 55.28125 
z
" id="DejaVuSans-Oblique-114"/>
      </defs>
      <use xlink:href="#DejaVuSans-Oblique-114"/>
      <use transform="translate(41.113281 -16.40625)scale(0.7)" xlink:href="#DejaVuSans-48"/>
     </g>
    </g>
   </g>
   <g id="line2d_50">
    <path clip-path="url(#p5d3572f364)" d="M 73.832727 158.316212 
L 80.45833 153.667804 
L 87.083933 148.936407 
L 93.709537 144.055329 
L 100.33514 138.983555 
L 106.960743 133.711768 
L 113.586347 128.222052 
L 120.211948 122.499557 
L 126.837553 116.522298 
L 133.463158 110.265362 
L 140.088758 103.729599 
L 146.714363 96.893385 
L 153.339968 89.752899 
L 159.965565 82.3076 
L 166.59117 74.555782 
L 173.216774 66.506861 
L 179.842379 58.170532 
L 186.467984 49.561621 
" style="fill:none;stroke:#ff0000;stroke-dasharray:9.6,2.4,1.5,2.4;stroke-dashoffset:0;stroke-width:1.5;"/>
   </g>
   <g id="line2d_51">
    <path clip-path="url(#p5d3572f364)" d="M 73.832727 97.545608 
L 80.45833 96.157101 
L 87.083933 94.838818 
L 93.709537 93.580994 
L 100.33514 92.366686 
L 106.960743 91.192737 
L 113.586347 90.048451 
L 120.211948 88.932593 
L 126.837553 87.835155 
L 133.463158 86.756392 
L 140.088758 85.690073 
L 146.714363 84.632652 
L 153.339968 83.582708 
L 159.965565 82.53642 
L 166.59117 81.492053 
L 173.216774 80.445878 
L 179.842379 79.39734 
L 186.467984 78.342868 
L 193.093581 77.279802 
L 199.719185 76.208251 
L 206.34479 75.123909 
L 212.970387 74.024573 
L 219.596 72.908903 
L 226.221597 71.773927 
L 232.847209 70.616343 
L 239.472806 69.434188 
L 246.098403 68.224003 
L 252.724016 66.982684 
L 259.349612 65.7059 
L 265.975225 64.389832 
L 272.600822 63.029353 
L 279.226419 61.61982 
L 285.852031 60.154368 
L 292.477628 58.626539 
L 299.103241 57.027981 
L 305.728838 55.348453 
L 312.354435 53.576059 
L 318.980047 51.697194 
L 325.605644 49.693478 
L 332.231257 47.542849 
L 338.856869 45.216851 
" style="fill:none;stroke:#ff0000;stroke-linecap:square;stroke-width:1.5;"/>
   </g>
   <g id="line2d_52">
    <path clip-path="url(#p5d3572f364)" d="M 73.832727 181.69259 
L 80.45833 179.147147 
L 87.083933 176.587118 
L 93.709537 173.789143 
L 100.33514 170.992019 
L 106.960743 168.043303 
L 113.586347 164.964469 
L 120.211948 161.647295 
L 126.837553 158.077013 
L 133.463158 154.24817 
L 140.088758 150.097947 
L 146.714363 145.649103 
L 153.339968 140.850643 
L 159.965565 135.722735 
L 166.59117 130.225919 
L 173.216774 124.421205 
L 179.842379 118.290553 
L 186.467984 111.892552 
L 193.093581 105.248904 
L 199.719185 98.389782 
L 206.34479 91.326826 
L 212.970387 84.066405 
L 219.596 76.593572 
L 226.221597 68.884066 
L 232.847209 60.905486 
L 239.472806 52.616963 
" style="fill:none;stroke:#008000;stroke-dasharray:9.6,2.4,1.5,2.4;stroke-dashoffset:0;stroke-width:1.5;"/>
   </g>
   <g id="line2d_53">
    <path clip-path="url(#p5d3572f364)" d="M 73.832727 143.56071 
L 80.45833 142.146355 
L 87.083933 140.850643 
L 93.709537 139.586731 
L 100.33514 138.375881 
L 106.960743 137.192435 
L 113.586347 136.055461 
L 120.211948 134.923713 
L 126.837553 133.835003 
L 133.463158 132.752338 
L 140.088758 131.6936 
L 146.714363 130.627921 
L 153.339968 129.573389 
L 159.965565 128.531089 
L 166.59117 127.489019 
L 173.216774 126.437573 
L 179.842379 125.392379 
L 186.467984 124.333218 
L 193.093581 123.275301 
L 199.719185 122.20145 
L 206.34479 121.116901 
L 212.970387 120.017365 
L 219.596 118.89983 
L 226.221597 117.770291 
L 232.847209 116.611562 
L 239.472806 115.424849 
L 246.098403 114.218546 
L 252.724016 112.975047 
L 259.349612 111.699237 
L 265.975225 110.379634 
L 272.600822 109.019117 
L 279.226419 107.611925 
L 285.852031 106.146712 
L 292.477628 104.617429 
L 299.103241 103.018746 
L 305.728838 101.339791 
L 312.354435 99.567536 
L 318.980047 97.686739 
L 325.605644 95.683518 
L 332.231257 93.533983 
L 338.856869 91.207359 
L 345.482466 88.667704 
L 352.108063 85.865218 
L 358.73366 82.728211 
L 365.359257 79.15244 
L 371.984885 74.975951 
L 378.610482 69.927037 
L 385.236079 63.488792 
L 391.861676 54.480277 
" style="fill:none;stroke:#008000;stroke-linecap:square;stroke-width:1.5;"/>
   </g>
   <g id="line2d_54">
    <path clip-path="url(#p5d3572f364)" d="M 73.832727 206.329767 
L 80.45833 205.040748 
L 87.083933 203.829899 
L 93.709537 202.68828 
L 100.33514 201.089598 
L 106.960743 199.609449 
L 113.586347 198.231462 
L 120.211948 196.942442 
L 126.837553 195.343759 
L 133.463158 193.863609 
L 140.088758 192.485622 
L 146.714363 190.88694 
L 153.339968 189.123482 
L 159.965565 187.245453 
L 166.59117 185.064428 
L 173.216774 182.891321 
L 179.842379 180.379345 
L 186.467984 177.826144 
L 193.093581 174.724498 
L 199.719185 171.451186 
L 206.34479 167.559675 
L 212.970387 163.121978 
L 219.596 157.958478 
L 226.221597 151.890253 
L 232.847209 144.683741 
L 239.472806 136.174229 
L 246.098403 126.364544 
L 252.724016 115.779238 
L 259.349612 105.538002 
L 265.975225 96.570991 
L 272.600822 88.867435 
L 279.226419 81.781934 
L 285.852031 74.583944 
L 292.477628 66.591983 
L 299.103241 57.001575 
L 305.728838 44.443636 
" style="fill:none;stroke:#0000ff;stroke-dasharray:9.6,2.4,1.5,2.4;stroke-dashoffset:0;stroke-width:1.5;"/>
   </g>
   <g id="line2d_55">
    <path clip-path="url(#p5d3572f364)" d="M 73.832727 189.694174 
L 80.45833 188.296899 
L 87.083933 186.991017 
L 93.709537 185.765304 
L 100.33514 184.387317 
L 106.960743 183.307439 
L 113.586347 182.084227 
L 120.211948 180.931625 
L 126.837553 179.841926 
L 133.463158 178.808614 
L 140.088758 177.826144 
L 146.714363 176.737858 
L 153.339968 175.562645 
L 159.965565 174.588164 
L 166.59117 173.529751 
L 173.216774 172.524614 
L 179.842379 171.451186 
L 186.467984 170.322474 
L 193.093581 169.358449 
L 199.719185 168.240082 
L 206.34479 167.181029 
L 212.970387 166.086352 
L 219.596 164.964469 
L 226.221597 163.822852 
L 232.847209 162.668028 
L 239.472806 161.435192 
L 246.098403 160.207802 
L 252.724016 158.989174 
L 259.349612 157.7235 
L 265.975225 156.368888 
L 272.600822 155.049195 
L 279.226419 153.620194 
L 285.852031 152.153635 
L 292.477628 150.623048 
L 299.103241 149.011776 
L 305.728838 147.346405 
L 312.354435 145.585393 
L 318.980047 143.675994 
L 325.605644 141.696317 
L 332.231257 139.53968 
L 338.856869 137.213338 
L 345.482466 134.664321 
L 352.108063 131.868872 
L 358.73366 128.721568 
L 365.359257 125.150839 
L 371.984885 120.967986 
L 378.610482 115.922774 
L 385.236079 109.478047 
L 391.861676 100.470529 
L 398.487273 84.917333 
" style="fill:none;stroke:#0000ff;stroke-linecap:square;stroke-width:1.5;"/>
   </g>
   <g id="line2d_56">
    <path clip-path="url(#p5d3572f364)" d="M 73.832727 242.116364 
L 80.45833 238.474878 
L 87.083933 238.474878 
L 93.709537 235.396044 
L 100.33514 235.396044 
L 106.960743 235.396044 
L 113.586347 232.729038 
L 120.211948 232.729038 
L 126.837553 230.376571 
L 133.463158 230.376571 
L 140.088758 228.272218 
L 146.714363 226.3686 
L 153.339968 226.3686 
L 159.965565 224.630733 
L 166.59117 224.630733 
L 173.216774 223.03205 
L 179.842379 221.551899 
L 186.467984 220.173912 
L 193.093581 218.884893 
L 199.719185 217.674044 
L 206.34479 216.532426 
L 212.970387 215.452549 
L 219.596 214.428073 
L 226.221597 212.524455 
L 232.847209 211.636625 
L 239.472806 209.971254 
L 246.098403 208.43412 
L 252.724016 207.00688 
L 259.349612 205.040748 
L 265.975225 203.250935 
L 272.600822 201.608403 
L 279.226419 199.139476 
L 285.852031 196.942442 
L 292.477628 194.589975 
L 299.103241 191.830715 
L 305.728838 188.844135 
L 312.354435 185.528934 
L 318.980047 181.499614 
L 325.605644 176.737858 
L 332.231257 170.992019 
L 338.856869 163.121978 
L 345.482466 151.246603 
L 352.108063 123.866822 
" style="fill:none;stroke:#ff4500;stroke-dasharray:9.6,2.4,1.5,2.4;stroke-dashoffset:0;stroke-width:1.5;"/>
   </g>
   <g id="line2d_57">
    <path clip-path="url(#p5d3572f364)" d="M 73.832727 238.474878 
L 80.45833 235.396044 
L 87.083933 235.396044 
L 93.709537 232.729038 
L 100.33514 230.376571 
L 106.960743 230.376571 
L 113.586347 228.272218 
L 120.211948 228.272218 
L 126.837553 226.3686 
L 133.463158 226.3686 
L 140.088758 224.630733 
L 146.714363 223.03205 
L 153.339968 223.03205 
L 159.965565 221.551899 
L 166.59117 220.173912 
L 173.216774 218.884893 
L 179.842379 217.674044 
L 186.467984 216.532426 
L 193.093581 215.452549 
L 199.719185 214.428073 
L 206.34479 213.453594 
L 212.970387 212.524455 
L 219.596 211.636625 
L 226.221597 209.971254 
L 232.847209 209.187904 
L 239.472806 207.707754 
L 246.098403 206.329767 
L 252.724016 205.040748 
L 259.349612 203.829899 
L 265.975225 202.68828 
L 272.600822 201.089598 
L 279.226419 199.609449 
L 285.852031 198.231462 
L 292.477628 196.942442 
L 299.103241 195.343759 
L 305.728838 193.510097 
L 312.354435 191.830715 
L 318.980047 189.694174 
L 325.605644 187.764258 
L 332.231257 185.528934 
L 338.856869 183.307439 
L 345.482466 180.745829 
L 352.108063 177.826144 
L 358.73366 174.724498 
L 365.359257 171.105825 
L 371.984885 166.901684 
L 378.610482 161.789959 
L 385.236079 155.306251 
L 391.861676 146.16623 
L 398.487273 130.255421 
" style="fill:none;stroke:#ff4500;stroke-linecap:square;stroke-width:1.5;"/>
   </g>
   <g id="patch_3">
    <path d="M 57.6 252 
L 57.6 34.56 
" style="fill:none;stroke:#000000;stroke-linecap:square;stroke-linejoin:miter;stroke-width:0.8;"/>
   </g>
   <g id="patch_4">
    <path d="M 414.72 252 
L 414.72 34.56 
" style="fill:none;stroke:#000000;stroke-linecap:square;stroke-linejoin:miter;stroke-width:0.8;"/>
   </g>
   <g id="patch_5">
    <path d="M 57.6 252 
L 414.72 252 
" style="fill:none;stroke:#000000;stroke-linecap:square;stroke-linejoin:miter;stroke-width:0.8;"/>
   </g>
   <g id="patch_6">
    <path d="M 57.6 34.56 
L 414.72 34.56 
" style="fill:none;stroke:#000000;stroke-linecap:square;stroke-linejoin:miter;stroke-width:0.8;"/>
   </g>
   <g id="text_14">
    <!-- $r_0$ where $p(r_0)=0$ -->
    <g transform="translate(183.48 28.56)scale(0.12 -0.12)">
     <defs>
      <path d="M 4.203125 54.6875 
L 13.1875 54.6875 
L 24.421875 12.015625 
L 35.59375 54.6875 
L 46.1875 54.6875 
L 57.421875 12.015625 
L 68.609375 54.6875 
L 77.59375 54.6875 
L 63.28125 0 
L 52.6875 0 
L 40.921875 44.828125 
L 29.109375 0 
L 18.5 0 
z
" id="DejaVuSans-119"/>
      <path d="M 54.890625 33.015625 
L 54.890625 0 
L 45.90625 0 
L 45.90625 32.71875 
Q 45.90625 40.484375 42.875 44.328125 
Q 39.84375 48.1875 33.796875 48.1875 
Q 26.515625 48.1875 22.3125 43.546875 
Q 18.109375 38.921875 18.109375 30.90625 
L 18.109375 0 
L 9.078125 0 
L 9.078125 75.984375 
L 18.109375 75.984375 
L 18.109375 46.1875 
Q 21.34375 51.125 25.703125 53.5625 
Q 30.078125 56 35.796875 56 
Q 45.21875 56 50.046875 50.171875 
Q 54.890625 44.34375 54.890625 33.015625 
z
" id="DejaVuSans-104"/>
      <path d="M 41.109375 46.296875 
Q 39.59375 47.171875 37.8125 47.578125 
Q 36.03125 48 33.890625 48 
Q 26.265625 48 22.1875 43.046875 
Q 18.109375 38.09375 18.109375 28.8125 
L 18.109375 0 
L 9.078125 0 
L 9.078125 54.6875 
L 18.109375 54.6875 
L 18.109375 46.1875 
Q 20.953125 51.171875 25.484375 53.578125 
Q 30.03125 56 36.53125 56 
Q 37.453125 56 38.578125 55.875 
Q 39.703125 55.765625 41.0625 55.515625 
z
" id="DejaVuSans-114"/>
      <path d="M 49.609375 33.6875 
Q 49.609375 40.875 46.484375 44.671875 
Q 43.359375 48.484375 37.5 48.484375 
Q 33.5 48.484375 29.859375 46.4375 
Q 26.21875 44.390625 23.390625 40.484375 
Q 20.609375 36.625 18.9375 31.15625 
Q 17.28125 25.6875 17.28125 20.3125 
Q 17.28125 13.484375 20.40625 9.796875 
Q 23.53125 6.109375 29.296875 6.109375 
Q 33.546875 6.109375 37.1875 8.109375 
Q 40.828125 10.109375 43.40625 13.921875 
Q 46.1875 17.921875 47.890625 23.34375 
Q 49.609375 28.765625 49.609375 33.6875 
z
M 21.78125 46.390625 
Q 25.390625 51.125 30.296875 53.5625 
Q 35.203125 56 41.21875 56 
Q 49.609375 56 54.25 50.5 
Q 58.890625 45.015625 58.890625 35.109375 
Q 58.890625 27 56 19.65625 
Q 53.125 12.3125 47.703125 6.5 
Q 44.09375 2.640625 39.546875 0.609375 
Q 35.015625 -1.421875 29.984375 -1.421875 
Q 24.171875 -1.421875 20.21875 1 
Q 16.265625 3.421875 14.3125 8.203125 
L 8.6875 -20.796875 
L -0.296875 -20.796875 
L 14.40625 54.6875 
L 23.390625 54.6875 
z
" id="DejaVuSans-Oblique-112"/>
      <path d="M 31 75.875 
Q 24.46875 64.65625 21.28125 53.65625 
Q 18.109375 42.671875 18.109375 31.390625 
Q 18.109375 20.125 21.3125 9.0625 
Q 24.515625 -2 31 -13.1875 
L 23.1875 -13.1875 
Q 15.875 -1.703125 12.234375 9.375 
Q 8.59375 20.453125 8.59375 31.390625 
Q 8.59375 42.28125 12.203125 53.3125 
Q 15.828125 64.359375 23.1875 75.875 
z
" id="DejaVuSans-40"/>
      <path d="M 8.015625 75.875 
L 15.828125 75.875 
Q 23.140625 64.359375 26.78125 53.3125 
Q 30.421875 42.28125 30.421875 31.390625 
Q 30.421875 20.453125 26.78125 9.375 
Q 23.140625 -1.703125 15.828125 -13.1875 
L 8.015625 -13.1875 
Q 14.5 -2 17.703125 9.0625 
Q 20.90625 20.125 20.90625 31.390625 
Q 20.90625 42.671875 17.703125 53.65625 
Q 14.5 64.65625 8.015625 75.875 
z
" id="DejaVuSans-41"/>
     </defs>
     <use transform="translate(0 0.015625)" xlink:href="#DejaVuSans-Oblique-114"/>
     <use transform="translate(41.113281 -16.390625)scale(0.7)" xlink:href="#DejaVuSans-48"/>
     <use transform="translate(88.383789 0.015625)" xlink:href="#DejaVuSans-32"/>
     <use transform="translate(120.170898 0.015625)" xlink:href="#DejaVuSans-119"/>
     <use transform="translate(201.958008 0.015625)" xlink:href="#DejaVuSans-104"/>
     <use transform="translate(265.336914 0.015625)" xlink:href="#DejaVuSans-101"/>
     <use transform="translate(326.860352 0.015625)" xlink:href="#DejaVuSans-114"/>
     <use transform="translate(367.973633 0.015625)" xlink:href="#DejaVuSans-101"/>
     <use transform="translate(429.49707 0.015625)" xlink:href="#DejaVuSans-32"/>
     <use transform="translate(461.28418 0.015625)" xlink:href="#DejaVuSans-Oblique-112"/>
     <use transform="translate(524.760742 0.015625)" xlink:href="#DejaVuSans-40"/>
     <use transform="translate(563.774414 0.015625)" xlink:href="#DejaVuSans-Oblique-114"/>
     <use transform="translate(604.887695 -16.390625)scale(0.7)" xlink:href="#DejaVuSans-48"/>
     <use transform="translate(652.158203 0.015625)" xlink:href="#DejaVuSans-41"/>
     <use transform="translate(710.654297 0.015625)" xlink:href="#DejaVuSans-61"/>
     <use transform="translate(813.925781 0.015625)" xlink:href="#DejaVuSans-48"/>
    </g>
   </g>
   <g id="legend_1">
    <g id="patch_7">
     <path d="M 281.32 247 
L 407.72 247 
Q 409.72 247 409.72 245 
L 409.72 128.575 
Q 409.72 126.575 407.72 126.575 
L 281.32 126.575 
Q 279.32 126.575 279.32 128.575 
L 279.32 245 
Q 279.32 247 281.32 247 
z
" style="fill:#ffffff;opacity:0.8;stroke:#cccccc;stroke-linejoin:miter;"/>
    </g>
    <g id="line2d_58">
     <path d="M 283.32 134.673438 
L 303.32 134.673438 
" style="fill:none;stroke:#ff0000;stroke-dasharray:9.6,2.4,1.5,2.4;stroke-dashoffset:0;stroke-width:1.5;"/>
    </g>
    <g id="line2d_59"/>
    <g id="text_15">
     <!-- $r_0$ TOV for $A=$0.01 -->
     <g transform="translate(311.32 138.173438)scale(0.1 -0.1)">
      <defs>
       <path d="M -0.296875 72.90625 
L 61.375 72.90625 
L 61.375 64.59375 
L 35.5 64.59375 
L 35.5 0 
L 25.59375 0 
L 25.59375 64.59375 
L -0.296875 64.59375 
z
" id="DejaVuSans-84"/>
       <path d="M 39.40625 66.21875 
Q 28.65625 66.21875 22.328125 58.203125 
Q 16.015625 50.203125 16.015625 36.375 
Q 16.015625 22.609375 22.328125 14.59375 
Q 28.65625 6.59375 39.40625 6.59375 
Q 50.140625 6.59375 56.421875 14.59375 
Q 62.703125 22.609375 62.703125 36.375 
Q 62.703125 50.203125 56.421875 58.203125 
Q 50.140625 66.21875 39.40625 66.21875 
z
M 39.40625 74.21875 
Q 54.734375 74.21875 63.90625 63.9375 
Q 73.09375 53.65625 73.09375 36.375 
Q 73.09375 19.140625 63.90625 8.859375 
Q 54.734375 -1.421875 39.40625 -1.421875 
Q 24.03125 -1.421875 14.8125 8.828125 
Q 5.609375 19.09375 5.609375 36.375 
Q 5.609375 53.65625 14.8125 63.9375 
Q 24.03125 74.21875 39.40625 74.21875 
z
" id="DejaVuSans-79"/>
       <path d="M 28.609375 0 
L 0.78125 72.90625 
L 11.078125 72.90625 
L 34.1875 11.53125 
L 57.328125 72.90625 
L 67.578125 72.90625 
L 39.796875 0 
z
" id="DejaVuSans-86"/>
       <path d="M 37.109375 75.984375 
L 37.109375 68.5 
L 28.515625 68.5 
Q 23.6875 68.5 21.796875 66.546875 
Q 19.921875 64.59375 19.921875 59.515625 
L 19.921875 54.6875 
L 34.71875 54.6875 
L 34.71875 47.703125 
L 19.921875 47.703125 
L 19.921875 0 
L 10.890625 0 
L 10.890625 47.703125 
L 2.296875 47.703125 
L 2.296875 54.6875 
L 10.890625 54.6875 
L 10.890625 58.5 
Q 10.890625 67.625 15.140625 71.796875 
Q 19.390625 75.984375 28.609375 75.984375 
z
" id="DejaVuSans-102"/>
       <path d="M 36.8125 72.90625 
L 48 72.90625 
L 61.53125 0 
L 51.21875 0 
L 48.1875 18.703125 
L 15.375 18.703125 
L 5.078125 0 
L -5.328125 0 
z
M 40.375 63.1875 
L 19.921875 26.90625 
L 46.6875 26.90625 
z
" id="DejaVuSans-Oblique-65"/>
       <path d="M 10.6875 12.40625 
L 21 12.40625 
L 21 0 
L 10.6875 0 
z
" id="DejaVuSans-46"/>
      </defs>
      <use transform="translate(0 0.015625)" xlink:href="#DejaVuSans-Oblique-114"/>
      <use transform="translate(41.113281 -16.390625)scale(0.7)" xlink:href="#DejaVuSans-48"/>
      <use transform="translate(88.383789 0.015625)" xlink:href="#DejaVuSans-32"/>
      <use transform="translate(120.170898 0.015625)" xlink:href="#DejaVuSans-84"/>
      <use transform="translate(181.254883 0.015625)" xlink:href="#DejaVuSans-79"/>
      <use transform="translate(259.96582 0.015625)" xlink:href="#DejaVuSans-86"/>
      <use transform="translate(328.374023 0.015625)" xlink:href="#DejaVuSans-32"/>
      <use transform="translate(360.161133 0.015625)" xlink:href="#DejaVuSans-102"/>
      <use transform="translate(395.366211 0.015625)" xlink:href="#DejaVuSans-111"/>
      <use transform="translate(456.547852 0.015625)" xlink:href="#DejaVuSans-114"/>
      <use transform="translate(497.661133 0.015625)" xlink:href="#DejaVuSans-32"/>
      <use transform="translate(529.448242 0.015625)" xlink:href="#DejaVuSans-Oblique-65"/>
      <use transform="translate(617.338867 0.015625)" xlink:href="#DejaVuSans-61"/>
      <use transform="translate(720.610352 0.015625)" xlink:href="#DejaVuSans-48"/>
      <use transform="translate(784.233398 0.015625)" xlink:href="#DejaVuSans-46"/>
      <use transform="translate(816.020508 0.015625)" xlink:href="#DejaVuSans-48"/>
      <use transform="translate(879.643555 0.015625)" xlink:href="#DejaVuSans-49"/>
     </g>
    </g>
    <g id="line2d_60">
     <path d="M 283.32 149.351563 
L 303.32 149.351563 
" style="fill:none;stroke:#ff0000;stroke-linecap:square;stroke-width:1.5;"/>
    </g>
    <g id="line2d_61"/>
    <g id="text_16">
     <!-- $r_0$ LE  for $A=$0.01 -->
     <g transform="translate(311.32 152.851563)scale(0.1 -0.1)">
      <defs>
       <path d="M 9.8125 72.90625 
L 19.671875 72.90625 
L 19.671875 8.296875 
L 55.171875 8.296875 
L 55.171875 0 
L 9.8125 0 
z
" id="DejaVuSans-76"/>
      </defs>
      <use transform="translate(0 0.015625)" xlink:href="#DejaVuSans-Oblique-114"/>
      <use transform="translate(41.113281 -16.390625)scale(0.7)" xlink:href="#DejaVuSans-48"/>
      <use transform="translate(88.383789 0.015625)" xlink:href="#DejaVuSans-32"/>
      <use transform="translate(120.170898 0.015625)" xlink:href="#DejaVuSans-76"/>
      <use transform="translate(175.883789 0.015625)" xlink:href="#DejaVuSans-69"/>
      <use transform="translate(239.067383 0.015625)" xlink:href="#DejaVuSans-32"/>
      <use transform="translate(270.854492 0.015625)" xlink:href="#DejaVuSans-32"/>
      <use transform="translate(302.641602 0.015625)" xlink:href="#DejaVuSans-102"/>
      <use transform="translate(337.84668 0.015625)" xlink:href="#DejaVuSans-111"/>
      <use transform="translate(399.02832 0.015625)" xlink:href="#DejaVuSans-114"/>
      <use transform="translate(440.141602 0.015625)" xlink:href="#DejaVuSans-32"/>
      <use transform="translate(471.928711 0.015625)" xlink:href="#DejaVuSans-Oblique-65"/>
      <use transform="translate(559.819336 0.015625)" xlink:href="#DejaVuSans-61"/>
      <use transform="translate(663.09082 0.015625)" xlink:href="#DejaVuSans-48"/>
      <use transform="translate(726.713867 0.015625)" xlink:href="#DejaVuSans-46"/>
      <use transform="translate(758.500977 0.015625)" xlink:href="#DejaVuSans-48"/>
      <use transform="translate(822.124023 0.015625)" xlink:href="#DejaVuSans-49"/>
     </g>
    </g>
    <g id="line2d_62">
     <path d="M 283.32 164.029688 
L 303.32 164.029688 
" style="fill:none;stroke:#008000;stroke-dasharray:9.6,2.4,1.5,2.4;stroke-dashoffset:0;stroke-width:1.5;"/>
    </g>
    <g id="line2d_63"/>
    <g id="text_17">
     <!-- $r_0$ TOV for $A=$0.1 -->
     <g transform="translate(311.32 167.529688)scale(0.1 -0.1)">
      <use transform="translate(0 0.015625)" xlink:href="#DejaVuSans-Oblique-114"/>
      <use transform="translate(41.113281 -16.390625)scale(0.7)" xlink:href="#DejaVuSans-48"/>
      <use transform="translate(88.383789 0.015625)" xlink:href="#DejaVuSans-32"/>
      <use transform="translate(120.170898 0.015625)" xlink:href="#DejaVuSans-84"/>
      <use transform="translate(181.254883 0.015625)" xlink:href="#DejaVuSans-79"/>
      <use transform="translate(259.96582 0.015625)" xlink:href="#DejaVuSans-86"/>
      <use transform="translate(328.374023 0.015625)" xlink:href="#DejaVuSans-32"/>
      <use transform="translate(360.161133 0.015625)" xlink:href="#DejaVuSans-102"/>
      <use transform="translate(395.366211 0.015625)" xlink:href="#DejaVuSans-111"/>
      <use transform="translate(456.547852 0.015625)" xlink:href="#DejaVuSans-114"/>
      <use transform="translate(497.661133 0.015625)" xlink:href="#DejaVuSans-32"/>
      <use transform="translate(529.448242 0.015625)" xlink:href="#DejaVuSans-Oblique-65"/>
      <use transform="translate(617.338867 0.015625)" xlink:href="#DejaVuSans-61"/>
      <use transform="translate(720.610352 0.015625)" xlink:href="#DejaVuSans-48"/>
      <use transform="translate(784.233398 0.015625)" xlink:href="#DejaVuSans-46"/>
      <use transform="translate(816.020508 0.015625)" xlink:href="#DejaVuSans-49"/>
     </g>
    </g>
    <g id="line2d_64">
     <path d="M 283.32 178.707813 
L 303.32 178.707813 
" style="fill:none;stroke:#008000;stroke-linecap:square;stroke-width:1.5;"/>
    </g>
    <g id="line2d_65"/>
    <g id="text_18">
     <!-- $r_0$ LE  for $A=$0.1 -->
     <g transform="translate(311.32 182.207813)scale(0.1 -0.1)">
      <use transform="translate(0 0.015625)" xlink:href="#DejaVuSans-Oblique-114"/>
      <use transform="translate(41.113281 -16.390625)scale(0.7)" xlink:href="#DejaVuSans-48"/>
      <use transform="translate(88.383789 0.015625)" xlink:href="#DejaVuSans-32"/>
      <use transform="translate(120.170898 0.015625)" xlink:href="#DejaVuSans-76"/>
      <use transform="translate(175.883789 0.015625)" xlink:href="#DejaVuSans-69"/>
      <use transform="translate(239.067383 0.015625)" xlink:href="#DejaVuSans-32"/>
      <use transform="translate(270.854492 0.015625)" xlink:href="#DejaVuSans-32"/>
      <use transform="translate(302.641602 0.015625)" xlink:href="#DejaVuSans-102"/>
      <use transform="translate(337.84668 0.015625)" xlink:href="#DejaVuSans-111"/>
      <use transform="translate(399.02832 0.015625)" xlink:href="#DejaVuSans-114"/>
      <use transform="translate(440.141602 0.015625)" xlink:href="#DejaVuSans-32"/>
      <use transform="translate(471.928711 0.015625)" xlink:href="#DejaVuSans-Oblique-65"/>
      <use transform="translate(559.819336 0.015625)" xlink:href="#DejaVuSans-61"/>
      <use transform="translate(663.09082 0.015625)" xlink:href="#DejaVuSans-48"/>
      <use transform="translate(726.713867 0.015625)" xlink:href="#DejaVuSans-46"/>
      <use transform="translate(758.500977 0.015625)" xlink:href="#DejaVuSans-49"/>
     </g>
    </g>
    <g id="line2d_66">
     <path d="M 283.32 193.385938 
L 303.32 193.385938 
" style="fill:none;stroke:#0000ff;stroke-dasharray:9.6,2.4,1.5,2.4;stroke-dashoffset:0;stroke-width:1.5;"/>
    </g>
    <g id="line2d_67"/>
    <g id="text_19">
     <!-- $r_0$ TOV for $A=$1.0 -->
     <g transform="translate(311.32 196.885938)scale(0.1 -0.1)">
      <use transform="translate(0 0.015625)" xlink:href="#DejaVuSans-Oblique-114"/>
      <use transform="translate(41.113281 -16.390625)scale(0.7)" xlink:href="#DejaVuSans-48"/>
      <use transform="translate(88.383789 0.015625)" xlink:href="#DejaVuSans-32"/>
      <use transform="translate(120.170898 0.015625)" xlink:href="#DejaVuSans-84"/>
      <use transform="translate(181.254883 0.015625)" xlink:href="#DejaVuSans-79"/>
      <use transform="translate(259.96582 0.015625)" xlink:href="#DejaVuSans-86"/>
      <use transform="translate(328.374023 0.015625)" xlink:href="#DejaVuSans-32"/>
      <use transform="translate(360.161133 0.015625)" xlink:href="#DejaVuSans-102"/>
      <use transform="translate(395.366211 0.015625)" xlink:href="#DejaVuSans-111"/>
      <use transform="translate(456.547852 0.015625)" xlink:href="#DejaVuSans-114"/>
      <use transform="translate(497.661133 0.015625)" xlink:href="#DejaVuSans-32"/>
      <use transform="translate(529.448242 0.015625)" xlink:href="#DejaVuSans-Oblique-65"/>
      <use transform="translate(617.338867 0.015625)" xlink:href="#DejaVuSans-61"/>
      <use transform="translate(720.610352 0.015625)" xlink:href="#DejaVuSans-49"/>
      <use transform="translate(784.233398 0.015625)" xlink:href="#DejaVuSans-46"/>
      <use transform="translate(816.020508 0.015625)" xlink:href="#DejaVuSans-48"/>
     </g>
    </g>
    <g id="line2d_68">
     <path d="M 283.32 208.064063 
L 303.32 208.064063 
" style="fill:none;stroke:#0000ff;stroke-linecap:square;stroke-width:1.5;"/>
    </g>
    <g id="line2d_69"/>
    <g id="text_20">
     <!-- $r_0$ LE  for $A=$1.0 -->
     <g transform="translate(311.32 211.564063)scale(0.1 -0.1)">
      <use transform="translate(0 0.015625)" xlink:href="#DejaVuSans-Oblique-114"/>
      <use transform="translate(41.113281 -16.390625)scale(0.7)" xlink:href="#DejaVuSans-48"/>
      <use transform="translate(88.383789 0.015625)" xlink:href="#DejaVuSans-32"/>
      <use transform="translate(120.170898 0.015625)" xlink:href="#DejaVuSans-76"/>
      <use transform="translate(175.883789 0.015625)" xlink:href="#DejaVuSans-69"/>
      <use transform="translate(239.067383 0.015625)" xlink:href="#DejaVuSans-32"/>
      <use transform="translate(270.854492 0.015625)" xlink:href="#DejaVuSans-32"/>
      <use transform="translate(302.641602 0.015625)" xlink:href="#DejaVuSans-102"/>
      <use transform="translate(337.84668 0.015625)" xlink:href="#DejaVuSans-111"/>
      <use transform="translate(399.02832 0.015625)" xlink:href="#DejaVuSans-114"/>
      <use transform="translate(440.141602 0.015625)" xlink:href="#DejaVuSans-32"/>
      <use transform="translate(471.928711 0.015625)" xlink:href="#DejaVuSans-Oblique-65"/>
      <use transform="translate(559.819336 0.015625)" xlink:href="#DejaVuSans-61"/>
      <use transform="translate(663.09082 0.015625)" xlink:href="#DejaVuSans-49"/>
      <use transform="translate(726.713867 0.015625)" xlink:href="#DejaVuSans-46"/>
      <use transform="translate(758.500977 0.015625)" xlink:href="#DejaVuSans-48"/>
     </g>
    </g>
    <g id="line2d_70">
     <path d="M 283.32 222.742188 
L 303.32 222.742188 
" style="fill:none;stroke:#ff4500;stroke-dasharray:9.6,2.4,1.5,2.4;stroke-dashoffset:0;stroke-width:1.5;"/>
    </g>
    <g id="line2d_71"/>
    <g id="text_21">
     <!-- $r_0$ TOV for $A=$10.0 -->
     <g transform="translate(311.32 226.242188)scale(0.1 -0.1)">
      <use transform="translate(0 0.015625)" xlink:href="#DejaVuSans-Oblique-114"/>
      <use transform="translate(41.113281 -16.390625)scale(0.7)" xlink:href="#DejaVuSans-48"/>
      <use transform="translate(88.383789 0.015625)" xlink:href="#DejaVuSans-32"/>
      <use transform="translate(120.170898 0.015625)" xlink:href="#DejaVuSans-84"/>
      <use transform="translate(181.254883 0.015625)" xlink:href="#DejaVuSans-79"/>
      <use transform="translate(259.96582 0.015625)" xlink:href="#DejaVuSans-86"/>
      <use transform="translate(328.374023 0.015625)" xlink:href="#DejaVuSans-32"/>
      <use transform="translate(360.161133 0.015625)" xlink:href="#DejaVuSans-102"/>
      <use transform="translate(395.366211 0.015625)" xlink:href="#DejaVuSans-111"/>
      <use transform="translate(456.547852 0.015625)" xlink:href="#DejaVuSans-114"/>
      <use transform="translate(497.661133 0.015625)" xlink:href="#DejaVuSans-32"/>
      <use transform="translate(529.448242 0.015625)" xlink:href="#DejaVuSans-Oblique-65"/>
      <use transform="translate(617.338867 0.015625)" xlink:href="#DejaVuSans-61"/>
      <use transform="translate(720.610352 0.015625)" xlink:href="#DejaVuSans-49"/>
      <use transform="translate(784.233398 0.015625)" xlink:href="#DejaVuSans-48"/>
      <use transform="translate(847.856445 0.015625)" xlink:href="#DejaVuSans-46"/>
      <use transform="translate(879.643555 0.015625)" xlink:href="#DejaVuSans-48"/>
     </g>
    </g>
    <g id="line2d_72">
     <path d="M 283.32 237.420313 
L 303.32 237.420313 
" style="fill:none;stroke:#ff4500;stroke-linecap:square;stroke-width:1.5;"/>
    </g>
    <g id="line2d_73"/>
    <g id="text_22">
     <!-- $r_0$ LE  for $A=$10.0 -->
     <g transform="translate(311.32 240.920313)scale(0.1 -0.1)">
      <use transform="translate(0 0.015625)" xlink:href="#DejaVuSans-Oblique-114"/>
      <use transform="translate(41.113281 -16.390625)scale(0.7)" xlink:href="#DejaVuSans-48"/>
      <use transform="translate(88.383789 0.015625)" xlink:href="#DejaVuSans-32"/>
      <use transform="translate(120.170898 0.015625)" xlink:href="#DejaVuSans-76"/>
      <use transform="translate(175.883789 0.015625)" xlink:href="#DejaVuSans-69"/>
      <use transform="translate(239.067383 0.015625)" xlink:href="#DejaVuSans-32"/>
      <use transform="translate(270.854492 0.015625)" xlink:href="#DejaVuSans-32"/>
      <use transform="translate(302.641602 0.015625)" xlink:href="#DejaVuSans-102"/>
      <use transform="translate(337.84668 0.015625)" xlink:href="#DejaVuSans-111"/>
      <use transform="translate(399.02832 0.015625)" xlink:href="#DejaVuSans-114"/>
      <use transform="translate(440.141602 0.015625)" xlink:href="#DejaVuSans-32"/>
      <use transform="translate(471.928711 0.015625)" xlink:href="#DejaVuSans-Oblique-65"/>
      <use transform="translate(559.819336 0.015625)" xlink:href="#DejaVuSans-61"/>
      <use transform="translate(663.09082 0.015625)" xlink:href="#DejaVuSans-49"/>
      <use transform="translate(726.713867 0.015625)" xlink:href="#DejaVuSans-48"/>
      <use transform="translate(790.336914 0.015625)" xlink:href="#DejaVuSans-46"/>
      <use transform="translate(822.124023 0.015625)" xlink:href="#DejaVuSans-48"/>
     </g>
    </g>
   </g>
  </g>
 </g>
 <defs>
  <clipPath id="p5d3572f364">
   <rect height="217.44" width="357.12" x="57.6" y="34.56"/>
  </clipPath>
 </defs>
</svg>
