<?xml version="1.0" encoding="utf-8" standalone="no"?>
<!DOCTYPE svg PUBLIC "-//W3C//DTD SVG 1.1//EN"
  "http://www.w3.org/Graphics/SVG/1.1/DTD/svg11.dtd">
<svg height="340.15748pt" version="1.1" viewBox="0 0 453.543307 340.15748" width="453.543307pt" xmlns="http://www.w3.org/2000/svg" xmlns:xlink="http://www.w3.org/1999/xlink">
 <metadata>
  <rdf:RDF xmlns:cc="http://creativecommons.org/ns#" xmlns:dc="http://purl.org/dc/elements/1.1/" xmlns:rdf="http://www.w3.org/1999/02/22-rdf-syntax-ns#">
   <cc:Work>
    <dc:type rdf:resource="http://purl.org/dc/dcmitype/StillImage"/>
    <dc:date>2021-04-26T17:54:56.613127</dc:date>
    <dc:format>image/svg+xml</dc:format>
    <dc:creator>
     <cc:Agent>
      <dc:title>Matplotlib v3.4.1, https://matplotlib.org/</dc:title>
     </cc:Agent>
    </dc:creator>
   </cc:Work>
  </rdf:RDF>
 </metadata>
 <defs>
  <style type="text/css">*{stroke-linecap:butt;stroke-linejoin:round;}</style>
 </defs>
 <g id="figure_1">
  <g id="patch_1">
   <path d="M 0 340.15748 
L 453.543307 340.15748 
L 453.543307 0 
L 0 0 
z
" style="fill:#ffffff;"/>
  </g>
  <g id="axes_1">
   <g id="patch_2">
    <path d="M 43.45781 136.798913 
L 220.811649 136.798913 
L 220.811649 10.8 
L 43.45781 10.8 
z
" style="fill:#ffffff;"/>
   </g>
   <g id="matplotlib.axis_1">
    <g id="xtick_1">
     <g id="line2d_1">
      <defs>
       <path d="M 0 0 
L 0 3.5 
" id="m819a9017c2" style="stroke:#000000;stroke-width:0.8;"/>
      </defs>
      <g>
       <use style="stroke:#000000;stroke-width:0.8;" x="51.519348" xlink:href="#m819a9017c2" y="136.798913"/>
      </g>
     </g>
     <g id="text_1">
      <!-- $\mathdefault{0.0}$ -->
      <g transform="translate(45.154309 150.717412)scale(0.1 -0.1)">
       <defs>
        <path d="M 2688 2038 
C 2688 2430 2682 3099 2413 3613 
C 2176 4063 1798 4224 1466 4224 
C 1158 4224 768 4082 525 3620 
C 269 3137 243 2539 243 2038 
C 243 1671 250 1112 448 623 
C 723 -39 1216 -128 1466 -128 
C 1760 -128 2208 -7 2470 604 
C 2662 1048 2688 1568 2688 2038 
z
M 1466 -26 
C 1056 -26 813 328 723 816 
C 653 1196 653 1749 653 2109 
C 653 2604 653 3015 736 3407 
C 858 3954 1216 4121 1466 4121 
C 1728 4121 2067 3947 2189 3420 
C 2272 3054 2278 2623 2278 2109 
C 2278 1691 2278 1176 2202 797 
C 2067 96 1690 -26 1466 -26 
z
" id="CMR17-30" transform="scale(0.015625)"/>
        <path d="M 1178 307 
C 1178 492 1024 620 870 620 
C 685 620 557 467 557 313 
C 557 128 710 0 864 0 
C 1050 0 1178 153 1178 307 
z
" id="CMMI12-3a" transform="scale(0.015625)"/>
       </defs>
       <use transform="scale(0.996264)" xlink:href="#CMR17-30"/>
       <use transform="translate(45.690477 0)scale(0.996264)" xlink:href="#CMMI12-3a"/>
       <use transform="translate(72.787654 0)scale(0.996264)" xlink:href="#CMR17-30"/>
      </g>
     </g>
    </g>
    <g id="xtick_2">
     <g id="line2d_2">
      <g>
       <use style="stroke:#000000;stroke-width:0.8;" x="115.499809" xlink:href="#m819a9017c2" y="136.798913"/>
      </g>
     </g>
     <g id="text_2">
      <!-- $\mathdefault{0.5}$ -->
      <g transform="translate(109.13477 150.717412)scale(0.1 -0.1)">
       <defs>
        <path d="M 730 3750 
C 794 3724 1056 3641 1325 3641 
C 1920 3641 2246 3961 2432 4140 
C 2432 4191 2432 4224 2394 4224 
C 2387 4224 2374 4224 2323 4198 
C 2099 4102 1837 4032 1517 4032 
C 1325 4032 1037 4055 723 4191 
C 653 4224 640 4224 634 4224 
C 602 4224 595 4217 595 4090 
L 595 2231 
C 595 2113 595 2080 659 2080 
C 691 2080 704 2093 736 2139 
C 941 2435 1222 2560 1542 2560 
C 1766 2560 2246 2415 2246 1293 
C 2246 1087 2246 716 2054 422 
C 1894 159 1645 25 1370 25 
C 947 25 518 319 403 812 
C 429 806 480 793 506 793 
C 589 793 749 838 749 1036 
C 749 1209 627 1280 506 1280 
C 358 1280 262 1190 262 1011 
C 262 454 704 -128 1382 -128 
C 2042 -128 2669 441 2669 1267 
C 2669 2054 2170 2662 1549 2662 
C 1222 2662 947 2540 730 2304 
L 730 3750 
z
" id="CMR17-35" transform="scale(0.015625)"/>
       </defs>
       <use transform="scale(0.996264)" xlink:href="#CMR17-30"/>
       <use transform="translate(45.690477 0)scale(0.996264)" xlink:href="#CMMI12-3a"/>
       <use transform="translate(72.787654 0)scale(0.996264)" xlink:href="#CMR17-35"/>
      </g>
     </g>
    </g>
    <g id="xtick_3">
     <g id="line2d_3">
      <g>
       <use style="stroke:#000000;stroke-width:0.8;" x="179.480271" xlink:href="#m819a9017c2" y="136.798913"/>
      </g>
     </g>
     <g id="text_3">
      <!-- $\mathdefault{1.0}$ -->
      <g transform="translate(173.115231 150.717412)scale(0.1 -0.1)">
       <defs>
        <path d="M 1702 4083 
C 1702 4217 1696 4224 1606 4224 
C 1357 3927 979 3833 621 3820 
C 602 3820 570 3820 563 3808 
C 557 3795 557 3782 557 3648 
C 755 3648 1088 3686 1344 3839 
L 1344 467 
C 1344 243 1331 166 781 166 
L 589 166 
L 589 0 
C 896 6 1216 12 1523 12 
C 1830 12 2150 6 2458 0 
L 2458 166 
L 2266 166 
C 1715 166 1702 236 1702 467 
L 1702 4083 
z
" id="CMR17-31" transform="scale(0.015625)"/>
       </defs>
       <use transform="scale(0.996264)" xlink:href="#CMR17-31"/>
       <use transform="translate(45.690477 0)scale(0.996264)" xlink:href="#CMMI12-3a"/>
       <use transform="translate(72.787654 0)scale(0.996264)" xlink:href="#CMR17-30"/>
      </g>
     </g>
    </g>
    <g id="text_4">
     <!-- Radius $r$ -->
     <g transform="translate(113.18608 163.573088)scale(0.1 -0.1)">
      <defs>
       <path d="M 2509 2156 
C 3117 2278 3629 2689 3629 3203 
C 3629 3806 2950 4352 2054 4352 
L 333 4352 
L 333 4185 
C 774 4185 845 4185 845 3896 
L 845 428 
C 845 140 774 140 333 140 
L 333 -26 
C 518 -13 851 -13 1050 -13 
C 1248 -13 1581 -13 1766 -26 
L 1766 140 
C 1325 140 1254 140 1254 428 
L 1254 2112 
L 2003 2112 
C 2368 2112 2573 1964 2662 1881 
C 2918 1632 2918 1459 2918 1024 
C 2918 595 2918 377 3110 160 
C 3354 -103 3680 -128 3821 -128 
C 4294 -128 4365 403 4365 512 
C 4365 550 4365 595 4307 595 
C 4256 595 4250 556 4250 531 
C 4218 115 4032 -26 3834 -26 
C 3482 -26 3443 377 3405 768 
C 3386 902 3373 998 3360 1139 
C 3322 1459 3270 1926 2509 2156 
z
M 1984 2214 
L 1254 2214 
L 1254 3935 
C 1254 4153 1267 4185 1523 4185 
L 1990 4185 
C 2522 4185 3142 3999 3142 3203 
C 3142 2374 2464 2214 1984 2214 
z
" id="CMR17-52" transform="scale(0.015625)"/>
       <path d="M 2304 1656 
C 2304 2048 2304 2275 2035 2534 
C 1798 2751 1523 2816 1306 2816 
C 800 2816 435 2408 435 1977 
C 435 1740 627 1728 666 1728 
C 749 1728 896 1779 896 1958 
C 896 2118 774 2188 666 2188 
C 640 2188 608 2182 589 2176 
C 723 2594 1069 2713 1293 2713 
C 1613 2713 1965 2421 1965 1875 
L 1965 1632 
C 1587 1619 1133 1568 774 1373 
C 371 1147 256 822 256 576 
C 256 77 832 -64 1171 -64 
C 1523 -64 1850 135 1990 505 
C 2003 219 2182 -39 2464 -39 
C 2598 -39 2938 51 2938 563 
L 2938 926 
L 2822 926 
L 2822 557 
C 2822 161 2650 109 2566 109 
C 2304 109 2304 446 2304 732 
L 2304 1656 
z
M 1965 887 
C 1965 323 1568 38 1216 38 
C 896 38 646 278 646 576 
C 646 771 730 1114 1101 1322 
C 1408 1497 1760 1523 1965 1536 
L 1965 887 
z
" id="CMR17-61" transform="scale(0.015625)"/>
       <path d="M 1869 4345 
L 1869 4179 
C 2246 4179 2304 4141 2304 3843 
L 2304 2371 
C 2278 2403 2016 2816 1498 2816 
C 845 2816 211 2228 211 1376 
C 211 529 806 -64 1434 -64 
C 1978 -64 2259 361 2291 406 
L 2291 -64 
L 3066 -13 
L 3066 154 
C 2688 154 2630 193 2630 503 
L 2630 4416 
L 1869 4345 
z
M 2291 762 
C 2291 568 2176 393 2029 264 
C 1811 70 1594 38 1472 38 
C 1286 38 621 135 621 1369 
C 621 2636 1363 2713 1530 2713 
C 1824 2713 2061 2545 2208 2313 
C 2291 2177 2291 2157 2291 2041 
L 2291 762 
z
" id="CMR17-64" transform="scale(0.015625)"/>
       <path d="M 992 3961 
C 992 4102 877 4224 730 4224 
C 589 4224 467 4108 467 3961 
C 467 3820 582 3699 730 3699 
C 870 3699 992 3814 992 3961 
z
M 243 2745 
L 243 2579 
C 602 2579 653 2540 653 2231 
L 653 443 
C 653 198 627 166 218 166 
L 218 0 
C 371 12 646 12 806 12 
C 960 12 1222 12 1370 0 
L 1370 166 
C 992 166 979 205 979 436 
L 979 2816 
L 243 2745 
z
" id="CMR17-69" transform="scale(0.015625)"/>
       <path d="M 1882 2745 
L 1882 2579 
C 2259 2579 2317 2540 2317 2229 
L 2317 1053 
C 2317 510 2029 38 1555 38 
C 1030 38 986 355 986 691 
L 986 2816 
L 211 2745 
L 211 2579 
C 467 2579 640 2579 646 2320 
L 646 1079 
C 646 646 646 368 813 187 
C 896 103 1056 -64 1517 -64 
C 2061 -64 2272 400 2323 536 
L 2330 536 
L 2330 -64 
L 3091 -13 
L 3091 154 
C 2714 154 2656 193 2656 503 
L 2656 2816 
L 1882 2745 
z
" id="CMR17-75" transform="scale(0.015625)"/>
       <path d="M 1978 2688 
C 1978 2803 1971 2809 1933 2809 
C 1907 2809 1901 2803 1824 2707 
C 1805 2681 1747 2617 1728 2592 
C 1523 2809 1235 2816 1126 2816 
C 416 2816 160 2444 160 2073 
C 160 1497 813 1363 998 1324 
C 1402 1241 1542 1216 1677 1100 
C 1760 1024 1901 883 1901 652 
C 1901 384 1747 38 1158 38 
C 602 38 403 460 288 1024 
C 269 1113 269 1120 218 1120 
C 166 1120 160 1113 160 985 
L 160 64 
C 160 -52 166 -58 205 -58 
C 237 -58 243 -52 275 0 
C 314 57 410 211 448 275 
C 576 102 800 -64 1158 -64 
C 1792 -64 2131 281 2131 780 
C 2131 1107 1958 1280 1875 1356 
C 1683 1555 1459 1600 1190 1651 
C 838 1728 390 1817 390 2208 
C 390 2374 480 2726 1126 2726 
C 1811 2726 1850 2086 1862 1881 
C 1869 1849 1901 1843 1920 1843 
C 1978 1843 1978 1862 1978 1971 
L 1978 2688 
z
" id="CMR17-73" transform="scale(0.015625)"/>
       <path d="M 2490 2633 
C 2291 2598 2189 2457 2189 2316 
C 2189 2163 2310 2111 2400 2111 
C 2579 2111 2726 2265 2726 2457 
C 2726 2651 2528 2816 2208 2816 
C 1952 2816 1658 2700 1389 2335 
C 1344 2660 1088 2816 832 2816 
C 582 2816 454 2642 378 2508 
C 269 2278 173 1892 173 1860 
C 173 1834 198 1801 243 1801 
C 294 1801 301 1808 339 1957 
C 435 2342 557 2687 813 2687 
C 966 2687 1011 2604 1011 2419 
C 1011 2278 947 2028 902 1827 
L 723 1130 
C 698 1007 627 716 595 600 
C 550 432 480 128 480 96 
C 480 6 550 -64 646 -64 
C 717 -64 838 -20 877 109 
C 896 160 1133 1136 1171 1285 
C 1203 1427 1242 1562 1274 1705 
C 1299 1795 1325 1898 1344 1982 
C 1363 2040 1536 2355 1696 2495 
C 1773 2566 1939 2687 2202 2687 
C 2304 2687 2406 2674 2490 2633 
z
" id="CMMI12-72" transform="scale(0.015625)"/>
      </defs>
      <use transform="scale(0.996264)" xlink:href="#CMR17-52"/>
      <use transform="translate(67.791102 0)scale(0.996264)" xlink:href="#CMR17-61"/>
      <use transform="translate(113.481579 0)scale(0.996264)" xlink:href="#CMR17-64"/>
      <use transform="translate(164.376949 0)scale(0.996264)" xlink:href="#CMR17-69"/>
      <use transform="translate(189.248007 0)scale(0.996264)" xlink:href="#CMR17-75"/>
      <use transform="translate(240.143377 0)scale(0.996264)" xlink:href="#CMR17-73"/>
      <use transform="translate(306.020681 0)scale(0.996264)" xlink:href="#CMMI12-72"/>
     </g>
    </g>
   </g>
   <g id="matplotlib.axis_2">
    <g id="ytick_1">
     <g id="line2d_4">
      <defs>
       <path d="M 0 0 
L -3.5 0 
" id="m996d6a6a96" style="stroke:#000000;stroke-width:0.8;"/>
      </defs>
      <g>
       <use style="stroke:#000000;stroke-width:0.8;" x="43.45781" xlink:href="#m996d6a6a96" y="131.07169"/>
      </g>
     </g>
     <g id="text_5">
      <!-- $\mathdefault{0.0}$ -->
      <g transform="translate(23.727731 134.530939)scale(0.1 -0.1)">
       <use transform="scale(0.996264)" xlink:href="#CMR17-30"/>
       <use transform="translate(45.690477 0)scale(0.996264)" xlink:href="#CMMI12-3a"/>
       <use transform="translate(72.787654 0)scale(0.996264)" xlink:href="#CMR17-30"/>
      </g>
     </g>
    </g>
    <g id="ytick_2">
     <g id="line2d_5">
      <g>
       <use style="stroke:#000000;stroke-width:0.8;" x="43.45781" xlink:href="#m996d6a6a96" y="102.435573"/>
      </g>
     </g>
     <g id="text_6">
      <!-- $\mathdefault{0.5}$ -->
      <g transform="translate(23.727731 105.894822)scale(0.1 -0.1)">
       <use transform="scale(0.996264)" xlink:href="#CMR17-30"/>
       <use transform="translate(45.690477 0)scale(0.996264)" xlink:href="#CMMI12-3a"/>
       <use transform="translate(72.787654 0)scale(0.996264)" xlink:href="#CMR17-35"/>
      </g>
     </g>
    </g>
    <g id="ytick_3">
     <g id="line2d_6">
      <g>
       <use style="stroke:#000000;stroke-width:0.8;" x="43.45781" xlink:href="#m996d6a6a96" y="73.799457"/>
      </g>
     </g>
     <g id="text_7">
      <!-- $\mathdefault{1.0}$ -->
      <g transform="translate(23.727731 77.258706)scale(0.1 -0.1)">
       <use transform="scale(0.996264)" xlink:href="#CMR17-31"/>
       <use transform="translate(45.690477 0)scale(0.996264)" xlink:href="#CMMI12-3a"/>
       <use transform="translate(72.787654 0)scale(0.996264)" xlink:href="#CMR17-30"/>
      </g>
     </g>
    </g>
    <g id="ytick_4">
     <g id="line2d_7">
      <g>
       <use style="stroke:#000000;stroke-width:0.8;" x="43.45781" xlink:href="#m996d6a6a96" y="45.16334"/>
      </g>
     </g>
     <g id="text_8">
      <!-- $\mathdefault{1.5}$ -->
      <g transform="translate(23.727731 48.622589)scale(0.1 -0.1)">
       <use transform="scale(0.996264)" xlink:href="#CMR17-31"/>
       <use transform="translate(45.690477 0)scale(0.996264)" xlink:href="#CMMI12-3a"/>
       <use transform="translate(72.787654 0)scale(0.996264)" xlink:href="#CMR17-35"/>
      </g>
     </g>
    </g>
    <g id="ytick_5">
     <g id="line2d_8">
      <g>
       <use style="stroke:#000000;stroke-width:0.8;" x="43.45781" xlink:href="#m996d6a6a96" y="16.527223"/>
      </g>
     </g>
     <g id="text_9">
      <!-- $\mathdefault{2.0}$ -->
      <g transform="translate(23.727731 19.986473)scale(0.1 -0.1)">
       <defs>
        <path d="M 2669 990 
L 2554 990 
C 2490 537 2438 460 2413 422 
C 2381 371 1920 371 1830 371 
L 602 371 
C 832 620 1280 1073 1824 1596 
C 2214 1966 2669 2400 2669 3033 
C 2669 3788 2067 4224 1395 4224 
C 691 4224 262 3603 262 3027 
C 262 2777 448 2745 525 2745 
C 589 2745 781 2783 781 3007 
C 781 3206 614 3264 525 3264 
C 486 3264 448 3257 422 3244 
C 544 3788 915 4057 1306 4057 
C 1862 4057 2227 3616 2227 3033 
C 2227 2477 1901 1998 1536 1583 
L 262 147 
L 262 0 
L 2515 0 
L 2669 990 
z
" id="CMR17-32" transform="scale(0.015625)"/>
       </defs>
       <use transform="scale(0.996264)" xlink:href="#CMR17-32"/>
       <use transform="translate(45.690477 0)scale(0.996264)" xlink:href="#CMMI12-3a"/>
       <use transform="translate(72.787654 0)scale(0.996264)" xlink:href="#CMR17-30"/>
      </g>
     </g>
    </g>
    <g id="text_10">
     <!-- Pressure $p$ -->
     <g transform="translate(17.790553 96.383186)rotate(-90)scale(0.1 -0.1)">
      <defs>
       <path d="M 1267 2048 
L 2291 2048 
C 3117 2048 3718 2583 3718 3187 
C 3718 3791 3130 4352 2291 4352 
L 333 4352 
L 333 4185 
C 774 4185 845 4185 845 3899 
L 845 453 
C 845 166 774 166 333 166 
L 333 0 
C 518 12 858 12 1056 12 
C 1254 12 1594 12 1779 0 
L 1779 166 
C 1338 166 1267 166 1267 453 
L 1267 2048 
z
M 1254 2182 
L 1254 3937 
C 1254 4153 1267 4185 1523 4185 
L 2170 4185 
C 2995 4185 3232 3715 3232 3187 
C 3232 2608 2950 2182 2170 2182 
L 1254 2182 
z
" id="CMR17-50" transform="scale(0.015625)"/>
       <path d="M 960 1517 
C 960 2134 1222 2713 1702 2713 
C 1747 2713 1792 2707 1837 2687 
C 1837 2687 1696 2642 1696 2475 
C 1696 2321 1818 2257 1914 2257 
C 1990 2257 2131 2302 2131 2482 
C 2131 2687 1926 2816 1709 2816 
C 1222 2816 1011 2340 947 2115 
L 941 2115 
L 941 2816 
L 198 2745 
L 198 2578 
C 576 2578 634 2540 634 2231 
L 634 443 
C 634 198 608 166 198 166 
L 198 0 
C 352 12 646 12 813 12 
C 998 12 1325 12 1498 0 
L 1498 166 
C 1037 166 960 166 960 455 
L 960 1517 
z
" id="CMR17-72" transform="scale(0.015625)"/>
       <path d="M 2438 1503 
C 2464 1529 2464 1542 2464 1606 
C 2464 2251 2118 2816 1389 2816 
C 710 2816 173 2175 173 1394 
C 173 554 781 -64 1459 -64 
C 2176 -64 2458 619 2458 755 
C 2458 800 2419 800 2406 800 
C 2362 800 2355 787 2330 709 
C 2189 270 1837 51 1504 51 
C 1229 51 954 206 781 490 
C 582 819 582 1200 582 1503 
L 2438 1503 
z
M 589 1600 
C 634 2511 1126 2713 1382 2713 
C 1818 2713 2112 2308 2118 1600 
L 589 1600 
z
" id="CMR17-65" transform="scale(0.015625)"/>
       <path d="M 275 -794 
C 230 -981 205 -1031 -58 -1031 
C -135 -1031 -199 -1031 -199 -1152 
C -199 -1165 -192 -1216 -122 -1216 
C -39 -1216 51 -1204 134 -1204 
L 410 -1204 
C 544 -1204 870 -1216 1005 -1216 
C 1043 -1216 1120 -1216 1120 -1101 
C 1120 -1031 1075 -1031 966 -1031 
C 672 -1031 653 -987 653 -937 
C 653 -863 941 217 979 364 
C 1050 185 1222 -64 1555 -64 
C 2278 -64 3059 874 3059 1813 
C 3059 2400 2726 2816 2246 2816 
C 1837 2816 1491 2419 1421 2330 
C 1370 2649 1120 2816 864 2816 
C 678 2816 531 2726 410 2483 
C 294 2253 205 1864 205 1838 
C 205 1813 230 1781 275 1781 
C 326 1781 333 1787 371 1934 
C 467 2311 589 2687 845 2687 
C 992 2687 1043 2585 1043 2394 
C 1043 2241 1024 2177 998 2062 
L 275 -794 
z
M 1382 1992 
C 1427 2170 1606 2356 1709 2445 
C 1779 2509 1990 2687 2234 2687 
C 2515 2687 2643 2407 2643 2075 
C 2643 1768 2464 1047 2304 715 
C 2144 370 1850 64 1555 64 
C 1120 64 1050 613 1050 638 
C 1050 657 1062 708 1069 740 
L 1382 1992 
z
" id="CMMI12-70" transform="scale(0.015625)"/>
      </defs>
      <use transform="scale(0.996264)" xlink:href="#CMR17-50"/>
      <use transform="translate(62.586301 0)scale(0.996264)" xlink:href="#CMR17-72"/>
      <use transform="translate(97.867068 0)scale(0.996264)" xlink:href="#CMR17-65"/>
      <use transform="translate(138.352729 0)scale(0.996264)" xlink:href="#CMR17-73"/>
      <use transform="translate(174.154066 0)scale(0.996264)" xlink:href="#CMR17-73"/>
      <use transform="translate(209.955404 0)scale(0.996264)" xlink:href="#CMR17-75"/>
      <use transform="translate(260.850774 0)scale(0.996264)" xlink:href="#CMR17-72"/>
      <use transform="translate(296.131542 0)scale(0.996264)" xlink:href="#CMR17-65"/>
      <use transform="translate(366.693168 0)scale(0.996264)" xlink:href="#CMMI12-70"/>
     </g>
    </g>
   </g>
   <g id="line2d_9">
    <path clip-path="url(#p93e418819f)" d="M 51.519348 16.527223 
L 52.798957 18.025701 
L 54.078567 21.903556 
L 55.358176 28.049874 
L 56.637785 36.053964 
L 57.917394 45.398418 
L 59.197003 55.518758 
L 60.476613 65.860489 
L 61.756222 75.929639 
L 63.035831 85.330669 
L 64.31544 93.787626 
L 65.59505 101.147395 
L 66.874659 107.367211 
L 68.154268 112.491224 
L 69.433877 116.622229 
L 70.713486 119.894333 
L 71.993096 122.450603 
L 73.272705 124.427507 
L 74.552314 125.945984 
L 75.831923 127.107794 
L 77.111533 127.995411 
L 78.391142 128.673892 
L 79.670751 129.19358 
L 80.95036 129.592925 
L 82.22997 129.901049 
L 83.509579 130.1399 
L 84.789188 130.32599 
L 86.068797 130.471738 
L 87.348406 130.586504 
L 88.628016 130.677361 
L 89.907625 130.749672 
L 91.187234 130.807522 
L 92.466843 130.854038 
L 93.746453 130.891623 
L 95.026062 130.922135 
L 96.305671 130.947017 
L 97.58528 130.967395 
L 98.864889 130.984154 
L 100.144499 130.997991 
L 101.424108 131.009459 
L 102.703717 131.018996 
L 103.983326 131.026955 
L 105.262936 131.033619 
L 106.542545 131.039216 
L 107.822154 131.043929 
L 109.101763 131.04791 
L 110.381372 131.051281 
L 111.660982 131.054143 
L 112.940591 131.056579 
L 114.2202 131.058656 
L 115.499809 131.060431 
L 116.779419 131.061951 
L 118.059028 131.063255 
L 119.338637 131.064376 
L 120.618246 131.065341 
L 121.897855 131.066174 
L 123.177465 131.066893 
L 124.457074 131.067514 
L 125.736683 131.068053 
L 127.016292 131.06852 
L 128.295902 131.068925 
L 129.575511 131.069278 
L 130.85512 131.069584 
L 132.134729 131.069851 
L 133.414338 131.070083 
L 134.693948 131.070286 
L 135.973557 131.070463 
L 137.253166 131.070618 
L 138.532775 131.070753 
L 139.812385 131.070871 
L 141.091994 131.070975 
L 142.371603 131.071065 
L 143.651212 131.071144 
L 144.930822 131.071214 
L 146.210431 131.071274 
L 147.49004 131.071327 
L 148.769649 131.071374 
L 150.049258 131.071415 
L 151.328868 131.07145 
L 152.608477 131.071481 
L 153.888086 131.071509 
L 155.167695 131.071533 
L 156.447305 131.071554 
L 157.726914 131.071572 
L 159.006523 131.071588 
L 160.286132 131.071602 
L 161.565741 131.071614 
L 162.845351 131.071624 
L 164.12496 131.071634 
L 165.404569 131.071642 
L 166.684178 131.071649 
L 167.963788 131.071655 
L 169.243397 131.07166 
L 170.523006 131.071664 
L 171.802615 131.071668 
L 173.082224 131.071672 
L 174.361834 131.071675 
L 175.641443 131.071677 
L 176.921052 131.071679 
L 178.200661 131.071681 
L 179.480271 131.071682 
L 180.75988 131.071684 
L 182.039489 131.071685 
L 183.319098 131.071686 
L 184.598707 131.071687 
L 185.878317 131.071687 
L 187.157926 131.071688 
L 188.437535 131.071688 
L 189.717144 131.071689 
L 190.996754 131.071689 
L 192.276363 131.071689 
L 193.555972 131.071689 
L 194.835581 131.071689 
L 196.115191 131.07169 
L 197.3948 131.07169 
L 198.674409 131.07169 
L 199.954018 131.07169 
L 201.233627 131.07169 
L 202.513237 131.07169 
L 203.792846 131.07169 
L 205.072455 131.07169 
L 206.352064 131.07169 
L 207.631674 131.07169 
L 208.911283 131.07169 
L 210.190892 131.07169 
L 211.470501 131.07169 
L 212.75011 131.07169 
" style="fill:none;stroke:#000000;stroke-linecap:square;stroke-width:1.5;"/>
   </g>
   <g id="line2d_10">
    <path clip-path="url(#p93e418819f)" d="M 51.519348 16.527223 
L 52.798957 16.527223 
L 54.078567 18.37924 
L 55.358176 21.100763 
L 56.637785 24.698621 
L 57.917394 29.088845 
L 59.197003 34.149102 
L 60.476613 39.739344 
L 61.756222 45.712862 
L 63.035831 51.924533 
L 64.31544 58.237358 
L 65.59505 64.527445 
L 66.874659 70.687417 
L 68.154268 76.628343 
L 69.433877 82.280321 
L 70.713486 87.591961 
L 71.993096 92.529027 
L 73.272705 97.072499 
L 74.552314 101.216319 
L 75.831923 104.965015 
L 77.111533 108.331387 
L 78.391142 111.334353 
L 79.670751 113.997043 
L 80.95036 116.345177 
L 82.22997 118.405732 
L 83.509579 120.20589 
L 84.789188 121.772237 
L 86.068797 123.130188 
L 87.348406 124.303602 
L 88.628016 125.31454 
L 89.907625 126.183151 
L 91.187234 126.927648 
L 92.466843 127.564342 
L 93.746453 128.107734 
L 95.026062 128.570631 
L 96.305671 128.964276 
L 97.58528 129.298492 
L 98.864889 129.581826 
L 100.144499 129.821681 
L 101.424108 130.024453 
L 102.703717 130.19565 
L 103.983326 130.340002 
L 105.262936 130.461562 
L 106.542545 130.563798 
L 107.822154 130.649669 
L 109.101763 130.721697 
L 110.381372 130.78203 
L 111.660982 130.832492 
L 112.940591 130.874631 
L 114.2202 130.909763 
L 115.499809 130.939 
L 116.779419 130.963284 
L 118.059028 130.983413 
L 119.338637 131.000059 
L 120.618246 131.01379 
L 121.897855 131.025087 
L 123.177465 131.034353 
L 124.457074 131.041928 
L 125.736683 131.048097 
L 127.016292 131.053103 
L 128.295902 131.057145 
L 129.575511 131.060394 
L 130.85512 131.06299 
L 132.134729 131.065051 
L 133.414338 131.066677 
L 134.693948 131.067949 
L 135.973557 131.068935 
L 137.253166 131.069692 
L 138.532775 131.070266 
L 139.812385 131.070696 
L 141.091994 131.071012 
L 142.371603 131.07124 
L 143.651212 131.071401 
L 144.930822 131.071512 
L 146.210431 131.071586 
L 147.49004 131.071633 
L 148.769649 131.071661 
L 150.049258 131.071677 
L 151.328868 131.071685 
L 152.608477 131.071689 
L 153.888086 131.07169 
L 155.167695 131.07169 
" style="fill:none;stroke:#000000;stroke-dasharray:1.5,2.475;stroke-dashoffset:0;stroke-width:1.5;"/>
   </g>
   <g id="patch_3">
    <path d="M 43.45781 136.798913 
L 43.45781 10.8 
" style="fill:none;stroke:#000000;stroke-linecap:square;stroke-linejoin:miter;stroke-width:0.8;"/>
   </g>
   <g id="patch_4">
    <path d="M 220.811649 136.798913 
L 220.811649 10.8 
" style="fill:none;stroke:#000000;stroke-linecap:square;stroke-linejoin:miter;stroke-width:0.8;"/>
   </g>
   <g id="patch_5">
    <path d="M 43.45781 136.798913 
L 220.811649 136.798913 
" style="fill:none;stroke:#000000;stroke-linecap:square;stroke-linejoin:miter;stroke-width:0.8;"/>
   </g>
   <g id="patch_6">
    <path d="M 43.45781 10.8 
L 220.811649 10.8 
" style="fill:none;stroke:#000000;stroke-linecap:square;stroke-linejoin:miter;stroke-width:0.8;"/>
   </g>
   <g id="legend_1">
    <g id="patch_7">
     <path d="M 160.042377 46.674357 
L 213.811649 46.674357 
Q 215.811649 46.674357 215.811649 44.674357 
L 215.811649 17.8 
Q 215.811649 15.8 213.811649 15.8 
L 160.042377 15.8 
Q 158.042377 15.8 158.042377 17.8 
L 158.042377 44.674357 
Q 158.042377 46.674357 160.042377 46.674357 
z
" style="fill:#ffffff;opacity:0.8;stroke:#cccccc;stroke-linejoin:miter;"/>
    </g>
    <g id="line2d_11">
     <path d="M 162.042377 23.3 
L 182.042377 23.3 
" style="fill:none;stroke:#000000;stroke-linecap:square;stroke-width:1.5;"/>
    </g>
    <g id="line2d_12"/>
    <g id="text_11">
     <!-- $p_{TOV}$ -->
     <g transform="translate(190.042377 26.8)scale(0.1 -0.1)">
      <defs>
       <path d="M 2669 3886 
C 2707 4038 2720 4096 2816 4121 
C 2867 4134 3078 4134 3213 4134 
C 3853 4134 4154 4109 4154 3612 
C 4154 3516 4128 3274 4090 3038 
L 4083 2962 
C 4083 2937 4109 2898 4147 2898 
C 4211 2898 4211 2930 4230 3032 
L 4416 4159 
C 4429 4217 4429 4230 4429 4249 
C 4429 4319 4390 4319 4262 4319 
L 762 4319 
C 614 4319 608 4313 570 4198 
L 179 3051 
C 173 3038 154 2968 154 2962 
C 154 2930 179 2898 218 2898 
C 269 2898 282 2924 307 3007 
C 576 3777 710 4134 1562 4134 
L 1990 4134 
C 2144 4134 2208 4134 2208 4064 
C 2208 4045 2208 4032 2176 3917 
L 1318 497 
C 1254 249 1242 185 563 185 
C 403 185 358 185 358 64 
C 358 0 429 0 461 0 
C 621 0 787 12 947 12 
L 1946 12 
C 2106 12 2278 0 2438 0 
C 2509 0 2573 0 2573 121 
C 2573 185 2528 185 2362 185 
C 1786 185 1786 242 1786 338 
C 1786 344 1786 389 1811 491 
L 2669 3886 
z
" id="CMMI12-54" transform="scale(0.015625)"/>
       <path d="M 4646 2788 
C 4646 3837 3955 4480 3059 4480 
C 1690 4480 307 3017 307 1550 
C 307 552 973 -128 1901 -128 
C 3245 -128 4646 1264 4646 2788 
z
M 1939 19 
C 1414 19 858 400 858 1391 
C 858 1969 1069 2915 1594 3551 
C 2061 4110 2598 4339 3027 4339 
C 3590 4339 4134 3932 4134 3017 
C 4134 2452 3891 1569 3462 965 
C 2995 317 2413 19 1939 19 
z
" id="CMMI12-4f" transform="scale(0.015625)"/>
       <path d="M 3962 3644 
C 4179 3987 4378 4140 4704 4166 
C 4768 4172 4819 4172 4819 4287 
C 4819 4313 4806 4352 4749 4352 
C 4634 4352 4358 4339 4243 4339 
C 4058 4339 3866 4352 3686 4352 
C 3635 4352 3571 4352 3571 4230 
C 3571 4172 3629 4166 3654 4166 
C 3891 4146 3917 4032 3917 3956 
C 3917 3860 3827 3714 3821 3708 
L 1811 540 
L 1363 3968 
C 1363 4153 1696 4166 1766 4166 
C 1862 4166 1920 4166 1920 4287 
C 1920 4352 1850 4352 1830 4352 
C 1722 4352 1594 4339 1485 4339 
L 1126 4339 
C 659 4339 467 4352 461 4352 
C 422 4352 346 4352 346 4236 
C 346 4166 390 4166 493 4166 
C 819 4166 838 4108 858 3949 
L 1370 25 
C 1389 -109 1389 -128 1478 -128 
C 1555 -128 1587 -109 1651 -7 
L 3962 3644 
z
" id="CMMI12-56" transform="scale(0.015625)"/>
      </defs>
      <use transform="scale(0.996264)" xlink:href="#CMMI12-70"/>
      <use transform="translate(48.959514 -14.943915)scale(0.697382)" xlink:href="#CMMI12-54"/>
      <use transform="translate(98.465836 -14.943915)scale(0.697382)" xlink:href="#CMMI12-4f"/>
      <use transform="translate(152.547864 -14.943915)scale(0.697382)" xlink:href="#CMMI12-56"/>
     </g>
    </g>
    <g id="line2d_13">
     <path d="M 162.042377 37.237178 
L 182.042377 37.237178 
" style="fill:none;stroke:#000000;stroke-dasharray:1.5,2.475;stroke-dashoffset:0;stroke-width:1.5;"/>
    </g>
    <g id="line2d_14"/>
    <g id="text_12">
     <!-- $p_{LE}$ -->
     <g transform="translate(190.042377 40.737178)scale(0.1 -0.1)">
      <defs>
       <path d="M 2349 3860 
C 2406 4102 2426 4166 2989 4166 
C 3162 4166 3206 4166 3206 4287 
C 3206 4352 3136 4352 3110 4352 
C 2982 4352 2835 4339 2707 4339 
L 1850 4339 
C 1728 4339 1587 4352 1466 4352 
C 1414 4352 1344 4352 1344 4230 
C 1344 4166 1402 4166 1498 4166 
C 1888 4166 1888 4115 1888 4045 
C 1888 4032 1888 3994 1862 3898 
L 998 472 
C 941 249 928 185 480 185 
C 358 185 294 185 294 70 
C 294 0 333 0 461 0 
L 3328 0 
C 3469 0 3475 6 3520 121 
L 4013 1478 
C 4026 1510 4038 1548 4038 1567 
C 4038 1605 4006 1631 3974 1631 
C 3968 1631 3936 1631 3923 1605 
C 3910 1599 3910 1586 3859 1465 
C 3654 905 3366 185 2285 185 
L 1670 185 
C 1581 185 1568 185 1530 191 
C 1459 198 1453 211 1453 262 
C 1453 306 1466 344 1478 402 
L 2349 3860 
z
" id="CMMI12-4c" transform="scale(0.015625)"/>
       <path d="M 4448 1489 
C 4454 1508 4474 1553 4474 1578 
C 4474 1611 4448 1643 4410 1643 
C 4384 1643 4371 1636 4352 1617 
C 4339 1611 4339 1598 4282 1469 
C 3904 570 3629 185 2605 185 
L 1670 185 
C 1581 185 1568 185 1530 192 
C 1459 198 1453 211 1453 262 
C 1453 307 1466 346 1478 403 
L 1920 2176 
L 2554 2176 
C 3053 2176 3091 2066 3091 1874 
C 3091 1810 3091 1752 3046 1559 
C 3034 1534 3027 1508 3027 1489 
C 3027 1444 3059 1424 3098 1424 
C 3155 1424 3162 1469 3187 1559 
L 3552 3036 
C 3552 3068 3526 3099 3488 3099 
C 3430 3099 3424 3074 3398 2986 
C 3270 2500 3142 2361 2573 2361 
L 1965 2361 
L 2362 3913 
C 2419 4134 2432 4153 2694 4153 
L 3610 4153 
C 4397 4153 4557 3945 4557 3465 
C 4557 3459 4557 3282 4531 3074 
C 4525 3049 4518 3011 4518 2998 
C 4518 2948 4550 2929 4589 2929 
C 4634 2929 4659 2954 4672 3068 
L 4806 4172 
C 4806 4191 4819 4255 4819 4268 
C 4819 4339 4762 4339 4646 4339 
L 1523 4339 
C 1402 4339 1338 4339 1338 4223 
C 1338 4153 1382 4153 1491 4153 
C 1888 4153 1888 4109 1888 4039 
C 1888 4008 1882 3983 1862 3913 
L 998 474 
C 941 249 928 185 480 185 
C 358 185 294 185 294 70 
C 294 0 333 0 461 0 
L 3674 0 
C 3814 0 3821 6 3866 108 
L 4448 1489 
z
" id="CMMI12-45" transform="scale(0.015625)"/>
      </defs>
      <use transform="scale(0.996264)" xlink:href="#CMMI12-70"/>
      <use transform="translate(48.959514 -14.943915)scale(0.697382)" xlink:href="#CMMI12-4c"/>
      <use transform="translate(95.418928 -14.943915)scale(0.697382)" xlink:href="#CMMI12-45"/>
     </g>
    </g>
   </g>
  </g>
  <g id="axes_2">
   <g id="patch_8">
    <path d="M 265.389469 136.798913 
L 442.743307 136.798913 
L 442.743307 10.8 
L 265.389469 10.8 
z
" style="fill:#ffffff;"/>
   </g>
   <g id="matplotlib.axis_3">
    <g id="xtick_4">
     <g id="line2d_15">
      <g>
       <use style="stroke:#000000;stroke-width:0.8;" x="273.451007" xlink:href="#m819a9017c2" y="136.798913"/>
      </g>
     </g>
     <g id="text_13">
      <!-- $\mathdefault{0.0}$ -->
      <g transform="translate(267.085967 150.717412)scale(0.1 -0.1)">
       <use transform="scale(0.996264)" xlink:href="#CMR17-30"/>
       <use transform="translate(45.690477 0)scale(0.996264)" xlink:href="#CMMI12-3a"/>
       <use transform="translate(72.787654 0)scale(0.996264)" xlink:href="#CMR17-30"/>
      </g>
     </g>
    </g>
    <g id="xtick_5">
     <g id="line2d_16">
      <g>
       <use style="stroke:#000000;stroke-width:0.8;" x="337.431468" xlink:href="#m819a9017c2" y="136.798913"/>
      </g>
     </g>
     <g id="text_14">
      <!-- $\mathdefault{0.5}$ -->
      <g transform="translate(331.066428 150.717412)scale(0.1 -0.1)">
       <use transform="scale(0.996264)" xlink:href="#CMR17-30"/>
       <use transform="translate(45.690477 0)scale(0.996264)" xlink:href="#CMMI12-3a"/>
       <use transform="translate(72.787654 0)scale(0.996264)" xlink:href="#CMR17-35"/>
      </g>
     </g>
    </g>
    <g id="xtick_6">
     <g id="line2d_17">
      <g>
       <use style="stroke:#000000;stroke-width:0.8;" x="401.411929" xlink:href="#m819a9017c2" y="136.798913"/>
      </g>
     </g>
     <g id="text_15">
      <!-- $\mathdefault{1.0}$ -->
      <g transform="translate(395.04689 150.717412)scale(0.1 -0.1)">
       <use transform="scale(0.996264)" xlink:href="#CMR17-31"/>
       <use transform="translate(45.690477 0)scale(0.996264)" xlink:href="#CMMI12-3a"/>
       <use transform="translate(72.787654 0)scale(0.996264)" xlink:href="#CMR17-30"/>
      </g>
     </g>
    </g>
    <g id="text_16">
     <!-- Radius $r$ -->
     <g transform="translate(335.117739 163.573088)scale(0.1 -0.1)">
      <use transform="scale(0.996264)" xlink:href="#CMR17-52"/>
      <use transform="translate(67.791102 0)scale(0.996264)" xlink:href="#CMR17-61"/>
      <use transform="translate(113.481579 0)scale(0.996264)" xlink:href="#CMR17-64"/>
      <use transform="translate(164.376949 0)scale(0.996264)" xlink:href="#CMR17-69"/>
      <use transform="translate(189.248007 0)scale(0.996264)" xlink:href="#CMR17-75"/>
      <use transform="translate(240.143377 0)scale(0.996264)" xlink:href="#CMR17-73"/>
      <use transform="translate(306.020681 0)scale(0.996264)" xlink:href="#CMMI12-72"/>
     </g>
    </g>
   </g>
   <g id="matplotlib.axis_4">
    <g id="ytick_6">
     <g id="line2d_18">
      <g>
       <use style="stroke:#000000;stroke-width:0.8;" x="265.389469" xlink:href="#m996d6a6a96" y="131.07169"/>
      </g>
     </g>
     <g id="text_17">
      <!-- $\mathdefault{0}$ -->
      <g transform="translate(253.408133 134.530939)scale(0.1 -0.1)">
       <use transform="scale(0.996264)" xlink:href="#CMR17-30"/>
      </g>
     </g>
    </g>
    <g id="ytick_7">
     <g id="line2d_19">
      <g>
       <use style="stroke:#000000;stroke-width:0.8;" x="265.389469" xlink:href="#m996d6a6a96" y="97.057639"/>
      </g>
     </g>
     <g id="text_18">
      <!-- $\mathdefault{2}$ -->
      <g transform="translate(253.408133 100.516888)scale(0.1 -0.1)">
       <use transform="scale(0.996264)" xlink:href="#CMR17-32"/>
      </g>
     </g>
    </g>
    <g id="ytick_8">
     <g id="line2d_20">
      <g>
       <use style="stroke:#000000;stroke-width:0.8;" x="265.389469" xlink:href="#m996d6a6a96" y="63.043588"/>
      </g>
     </g>
     <g id="text_19">
      <!-- $\mathdefault{4}$ -->
      <g transform="translate(253.408133 66.502837)scale(0.1 -0.1)">
       <defs>
        <path d="M 2150 4147 
C 2150 4281 2144 4288 2029 4288 
L 128 1254 
L 128 1088 
L 1779 1088 
L 1779 460 
C 1779 230 1766 166 1318 166 
L 1197 166 
L 1197 0 
C 1402 12 1747 12 1965 12 
C 2182 12 2528 12 2733 0 
L 2733 166 
L 2611 166 
C 2163 166 2150 230 2150 460 
L 2150 1088 
L 2803 1088 
L 2803 1254 
L 2150 1254 
L 2150 4147 
z
M 1798 3723 
L 1798 1254 
L 256 1254 
L 1798 3723 
z
" id="CMR17-34" transform="scale(0.015625)"/>
       </defs>
       <use transform="scale(0.996264)" xlink:href="#CMR17-34"/>
      </g>
     </g>
    </g>
    <g id="ytick_9">
     <g id="line2d_21">
      <g>
       <use style="stroke:#000000;stroke-width:0.8;" x="265.389469" xlink:href="#m996d6a6a96" y="29.029537"/>
      </g>
     </g>
     <g id="text_20">
      <!-- $\mathdefault{6}$ -->
      <g transform="translate(253.408133 32.488786)scale(0.1 -0.1)">
       <defs>
        <path d="M 678 2198 
C 678 3712 1395 4076 1811 4076 
C 1946 4076 2272 4049 2400 3782 
C 2298 3782 2106 3782 2106 3558 
C 2106 3385 2246 3328 2336 3328 
C 2394 3328 2566 3353 2566 3571 
C 2566 3987 2246 4224 1805 4224 
C 1043 4224 243 3411 243 2011 
C 243 257 966 -128 1478 -128 
C 2099 -128 2688 431 2688 1295 
C 2688 2101 2170 2688 1517 2688 
C 1126 2688 838 2430 678 1979 
L 678 2198 
z
M 1478 25 
C 691 25 691 1212 691 1450 
C 691 1914 909 2585 1504 2585 
C 1613 2585 1926 2585 2138 2140 
C 2253 1889 2253 1624 2253 1302 
C 2253 954 2253 696 2118 438 
C 1978 173 1773 25 1478 25 
z
" id="CMR17-36" transform="scale(0.015625)"/>
       </defs>
       <use transform="scale(0.996264)" xlink:href="#CMR17-36"/>
      </g>
     </g>
    </g>
    <g id="text_21">
     <!-- Density $\rho$ -->
     <g transform="translate(247.470955 94.598231)rotate(-90)scale(0.1 -0.1)">
      <defs>
       <path d="M 333 4352 
L 333 4185 
C 774 4185 845 4185 845 3898 
L 845 453 
C 845 166 774 166 333 166 
L 333 0 
L 2368 0 
C 3398 0 4224 943 4224 2140 
C 4224 3344 3411 4352 2368 4352 
L 333 4352 
z
M 1523 166 
C 1267 166 1254 198 1254 414 
L 1254 3936 
C 1254 4153 1267 4185 1523 4185 
L 2240 4185 
C 2771 4185 3750 3873 3750 2140 
C 3750 1242 3488 879 3366 707 
C 3213 510 2848 166 2240 166 
L 1523 166 
z
" id="CMR17-44" transform="scale(0.015625)"/>
       <path d="M 2656 1954 
C 2656 2282 2592 2816 1837 2816 
C 1331 2816 1069 2424 973 2166 
L 966 2166 
L 966 2816 
L 211 2745 
L 211 2578 
C 589 2578 646 2540 646 2231 
L 646 443 
C 646 198 621 166 211 166 
L 211 0 
C 365 12 646 12 813 12 
C 979 12 1267 12 1421 0 
L 1421 166 
C 1011 166 986 192 986 443 
L 986 1678 
C 986 2269 1344 2713 1792 2713 
C 2266 2713 2317 2289 2317 1980 
L 2317 443 
C 2317 198 2291 166 1882 166 
L 1882 0 
C 2035 12 2317 12 2483 12 
C 2650 12 2938 12 3091 0 
L 3091 166 
C 2682 166 2656 192 2656 443 
L 2656 1954 
z
" id="CMR17-6e" transform="scale(0.015625)"/>
       <path d="M 966 2585 
L 1862 2585 
L 1862 2752 
L 966 2752 
L 966 3968 
L 851 3968 
C 838 3292 614 2700 70 2687 
L 70 2585 
L 627 2585 
L 627 778 
C 627 655 627 -64 1370 -64 
C 1747 -64 1965 308 1965 784 
L 1965 1151 
L 1850 1151 
L 1850 790 
C 1850 347 1677 51 1408 51 
C 1222 51 966 179 966 765 
L 966 2585 
z
" id="CMR17-74" transform="scale(0.015625)"/>
       <path d="M 2496 2183 
C 2656 2579 2944 2585 3034 2585 
L 3034 2752 
C 2912 2745 2752 2739 2630 2739 
C 2496 2739 2285 2739 2157 2752 
L 2157 2585 
C 2400 2566 2406 2384 2406 2332 
C 2406 2268 2394 2235 2362 2158 
L 1664 409 
L 902 2300 
C 870 2378 870 2423 870 2430 
C 870 2572 1018 2585 1171 2585 
L 1171 2752 
C 1018 2739 742 2739 582 2739 
C 410 2739 205 2739 64 2752 
L 64 2585 
C 410 2585 448 2553 531 2345 
L 1485 -31 
C 1197 -795 1030 -1242 627 -1242 
C 557 -1242 397 -1223 282 -1106 
C 429 -1093 493 -1002 493 -892 
C 493 -782 416 -685 288 -685 
C 147 -685 77 -782 77 -899 
C 77 -1158 339 -1344 627 -1344 
C 998 -1344 1229 -983 1357 -659 
L 2496 2183 
z
" id="CMR17-79" transform="scale(0.015625)"/>
       <path d="M 198 -1085 
C 192 -1116 179 -1154 179 -1191 
C 179 -1287 256 -1351 352 -1351 
C 448 -1351 538 -1287 576 -1198 
C 602 -1141 781 -390 986 389 
C 1114 70 1350 -64 1600 -64 
C 2323 -64 3142 830 3142 1794 
C 3142 2477 2726 2816 2285 2816 
C 1722 2816 1037 2234 826 1385 
L 198 -1085 
z
M 1594 64 
C 1158 64 1050 568 1050 645 
C 1050 683 1210 1289 1229 1385 
C 1555 2656 2182 2687 2278 2687 
C 2566 2687 2726 2426 2726 2049 
C 2726 1724 2554 1091 2445 823 
C 2253 383 1920 64 1594 64 
z
" id="CMMI12-1a" transform="scale(0.015625)"/>
      </defs>
      <use transform="scale(0.996264)" xlink:href="#CMR17-44"/>
      <use transform="translate(70.393556 0)scale(0.996264)" xlink:href="#CMR17-65"/>
      <use transform="translate(110.879216 0)scale(0.996264)" xlink:href="#CMR17-6e"/>
      <use transform="translate(161.774586 0)scale(0.996264)" xlink:href="#CMR17-73"/>
      <use transform="translate(197.575924 0)scale(0.996264)" xlink:href="#CMR17-69"/>
      <use transform="translate(222.446982 0)scale(0.996264)" xlink:href="#CMR17-74"/>
      <use transform="translate(255.125296 0)scale(0.996264)" xlink:href="#CMR17-79"/>
      <use transform="translate(333.494178 0)scale(0.996264)" xlink:href="#CMMI12-1a"/>
     </g>
    </g>
   </g>
   <g id="line2d_22">
    <path clip-path="url(#p3b0e136f65)" d="M 273.451007 16.662516 
L 274.730616 17.786893 
L 276.010225 20.714107 
L 277.289834 25.407661 
L 278.569444 31.62651 
L 279.849053 39.055493 
L 281.128662 47.334428 
L 282.408271 56.087119 
L 283.68788 64.950228 
L 284.96749 73.599248 
L 286.247099 81.768763 
L 287.526708 89.264766 
L 288.806317 95.967976 
L 290.085927 101.828637 
L 291.365536 106.854765 
L 292.645145 111.096791 
L 293.924754 114.631692 
L 295.204363 117.549051 
L 296.483973 119.940399 
L 297.763582 121.892129 
L 299.043191 123.481555 
L 300.3228 124.775328 
L 301.60241 125.8294 
L 302.882019 126.68987 
L 304.161628 127.394229 
L 305.441237 127.972711 
L 306.720847 128.449565 
L 308.000456 128.844191 
L 309.280065 129.172095 
L 310.559674 129.445677 
L 311.839283 129.67487 
L 313.118893 129.867652 
L 314.398502 130.030447 
L 315.678111 130.168444 
L 316.95772 130.285855 
L 318.23733 130.386107 
L 319.516939 130.472 
L 320.796548 130.545832 
L 322.076157 130.609496 
L 323.355766 130.664557 
L 324.635376 130.712313 
L 325.914985 130.753848 
L 327.194594 130.790064 
L 328.474203 130.821722 
L 329.753813 130.84946 
L 331.033422 130.873818 
L 332.313031 130.895254 
L 333.59264 130.914157 
L 334.872249 130.930857 
L 336.151859 130.94564 
L 337.431468 130.958747 
L 338.711077 130.970388 
L 339.990686 130.980743 
L 341.270296 130.989969 
L 342.549905 130.998199 
L 343.829514 131.005551 
L 345.109123 131.012127 
L 346.388732 131.018017 
L 347.668342 131.023297 
L 348.947951 131.028036 
L 350.22756 131.032293 
L 351.507169 131.036122 
L 352.786779 131.039568 
L 354.066388 131.042672 
L 355.345997 131.045471 
L 356.625606 131.047995 
L 357.905215 131.050274 
L 359.184825 131.052333 
L 360.464434 131.054194 
L 361.744043 131.055877 
L 363.023652 131.057399 
L 364.303262 131.058777 
L 365.582871 131.060024 
L 366.86248 131.061154 
L 368.142089 131.062177 
L 369.421699 131.063105 
L 370.701308 131.063945 
L 371.980917 131.064707 
L 373.260526 131.065397 
L 374.540135 131.066023 
L 375.819745 131.06659 
L 377.099354 131.067104 
L 378.378963 131.067569 
L 379.658572 131.067991 
L 380.938182 131.068373 
L 382.217791 131.068719 
L 383.4974 131.069032 
L 384.777009 131.069315 
L 386.056618 131.06957 
L 387.336228 131.069801 
L 388.615837 131.07001 
L 389.895446 131.070198 
L 391.175055 131.070367 
L 392.454665 131.07052 
L 393.734274 131.070657 
L 395.013883 131.070781 
L 396.293492 131.070891 
L 397.573101 131.07099 
L 398.852711 131.071079 
L 400.13232 131.071158 
L 401.411929 131.071228 
L 402.691538 131.071291 
L 403.971148 131.071346 
L 405.250757 131.071395 
L 406.530366 131.071438 
L 407.809975 131.071476 
L 409.089584 131.07151 
L 410.369194 131.071539 
L 411.648803 131.071564 
L 412.928412 131.071586 
L 414.208021 131.071605 
L 415.487631 131.071621 
L 416.76724 131.071635 
L 418.046849 131.071646 
L 419.326458 131.071656 
L 420.606067 131.071664 
L 421.885677 131.07167 
L 423.165286 131.071676 
L 424.444895 131.07168 
L 425.724504 131.071683 
L 427.004114 131.071685 
L 428.283723 131.071687 
L 429.563332 131.071688 
L 430.842941 131.071689 
L 432.122551 131.07169 
L 433.40216 131.07169 
L 434.681769 131.07169 
" style="fill:none;stroke:#000000;stroke-linecap:square;stroke-width:1.5;"/>
   </g>
   <g id="line2d_23">
    <path clip-path="url(#p3b0e136f65)" d="M 274.730616 17.752461 
L 276.010225 19.264219 
L 277.289834 22.075151 
L 278.569444 25.911474 
L 279.849053 30.609061 
L 281.128662 35.996106 
L 282.408271 41.890233 
L 283.68788 48.106609 
L 284.96749 54.46762 
L 286.247099 60.8118 
L 287.526708 67.000883 
L 288.806317 72.92432 
L 290.085927 78.500981 
L 291.365536 83.678221 
L 292.645145 88.42882 
L 293.924754 92.746586 
L 295.204363 96.641395 
L 296.483973 100.13438 
L 297.763582 103.253714 
L 299.043191 106.031221 
L 300.3228 108.499856 
L 301.60241 110.691954 
L 302.882019 112.638129 
L 304.161628 114.366647 
L 305.441237 115.903142 
L 306.720847 117.270569 
L 308.000456 118.489294 
L 309.280065 119.577268 
L 310.559674 120.550241 
L 311.839283 121.421995 
L 313.118893 122.204562 
L 314.398502 122.90844 
L 315.678111 123.542787 
L 316.95772 124.115591 
L 318.23733 124.633829 
L 319.516939 125.103595 
L 320.796548 125.530226 
L 322.076157 125.918395 
L 323.355766 126.272207 
L 324.635376 126.595268 
L 325.914985 126.890757 
L 327.194594 127.161476 
L 328.474203 127.409903 
L 329.753813 127.638232 
L 331.033422 127.848409 
L 332.313031 128.042163 
L 333.59264 128.221035 
L 334.872249 128.386398 
L 336.151859 128.539479 
L 337.431468 128.681376 
L 338.711077 128.813074 
L 339.990686 128.935457 
L 341.270296 129.04932 
L 342.549905 129.15538 
L 343.829514 129.254282 
L 345.109123 129.346612 
L 346.388732 129.432898 
L 347.668342 129.513619 
L 348.947951 129.58921 
L 350.22756 129.660066 
L 351.507169 129.726547 
L 352.786779 129.788981 
L 354.066388 129.847667 
L 355.345997 129.902878 
L 356.625606 129.954864 
L 357.905215 130.003855 
L 359.184825 130.05006 
L 360.464434 130.093673 
L 361.744043 130.134869 
L 363.023652 130.173812 
L 364.303262 130.210653 
L 365.582871 130.245529 
L 366.86248 130.278568 
L 368.142089 130.309889 
L 369.421699 130.3396 
L 370.701308 130.367802 
L 371.980917 130.394588 
L 373.260526 130.420047 
L 374.540135 130.444257 
L 375.819745 130.467293 
L 377.099354 130.489226 
L 378.378963 130.51012 
L 379.658572 130.530034 
L 380.938182 130.549026 
L 382.217791 130.567148 
L 383.4974 130.584447 
L 384.777009 130.60097 
L 386.056618 130.61676 
L 387.336228 130.631857 
L 388.615837 130.646297 
L 389.895446 130.660116 
L 391.175055 130.673346 
L 392.454665 130.686018 
L 393.734274 130.698162 
L 395.013883 130.709803 
L 396.293492 130.720968 
L 397.573101 130.731681 
L 398.852711 130.741964 
L 400.13232 130.751838 
L 401.411929 130.761323 
L 402.691538 130.770438 
L 403.971148 130.779201 
L 405.250757 130.787629 
L 406.530366 130.795736 
L 407.809975 130.803539 
L 409.089584 130.811052 
L 410.369194 130.818287 
L 411.648803 130.825257 
L 412.928412 130.831974 
L 414.208021 130.83845 
L 415.487631 130.844695 
L 416.76724 130.85072 
L 418.046849 130.856533 
L 419.326458 130.862145 
L 420.606067 130.867563 
L 421.885677 130.872796 
L 423.165286 130.877852 
L 424.444895 130.882738 
L 425.724504 130.887461 
L 427.004114 130.892029 
L 428.283723 130.896446 
L 429.563332 130.90072 
L 430.842941 130.904856 
L 432.122551 130.90886 
L 433.40216 130.912737 
L 434.681769 130.916492 
" style="fill:none;stroke:#000000;stroke-dasharray:5.55,2.4;stroke-dashoffset:0;stroke-width:1.5;"/>
   </g>
   <g id="line2d_24">
    <path clip-path="url(#p3b0e136f65)" d="M 273.451007 16.662516 
L 274.730616 16.662516 
L 276.010225 18.052711 
L 277.289834 20.10601 
L 278.569444 22.840102 
L 279.849053 26.207886 
L 281.128662 30.13501 
L 282.408271 34.533595 
L 283.68788 39.308902 
L 284.96749 44.364172 
L 286.247099 49.604569 
L 287.526708 54.940408 
L 288.806317 60.289639 
L 290.085927 65.579596 
L 291.365536 70.748053 
L 292.645145 75.743638 
L 293.924754 80.525718 
L 295.204363 85.063865 
L 296.483973 89.337007 
L 297.763582 93.332382 
L 299.043191 97.044394 
L 300.3228 100.473433 
L 301.60241 103.624741 
L 302.882019 106.507344 
L 304.161628 109.133096 
L 305.441237 111.515847 
L 306.720847 113.670725 
L 308.000456 115.613549 
L 309.280065 117.360354 
L 310.559674 118.927014 
L 311.839283 120.328963 
L 313.118893 121.580987 
L 314.398502 122.697083 
L 315.678111 123.69037 
L 316.95772 124.573039 
L 318.23733 125.356343 
L 319.516939 126.050599 
L 320.796548 126.665225 
L 322.076157 127.208775 
L 323.355766 127.688986 
L 324.635376 128.112838 
L 325.914985 128.486605 
L 327.194594 128.815915 
L 328.474203 129.105803 
L 329.753813 129.360766 
L 331.033422 129.584816 
L 332.313031 129.781521 
L 333.59264 129.954058 
L 334.872249 130.105246 
L 336.151859 130.237588 
L 337.431468 130.353303 
L 338.711077 130.454358 
L 339.990686 130.542494 
L 341.270296 130.619254 
L 342.549905 130.686001 
L 343.829514 130.743942 
L 345.109123 130.794143 
L 346.388732 130.837547 
L 347.668342 130.874988 
L 348.947951 130.9072 
L 350.22756 130.934836 
L 351.507169 130.958469 
L 352.786779 130.978606 
L 354.066388 130.995695 
L 355.345997 131.010132 
L 356.625606 131.022265 
L 357.905215 131.032402 
L 359.184825 131.040814 
L 360.464434 131.047741 
L 361.744043 131.053394 
L 363.023652 131.057959 
L 364.303262 131.061599 
L 365.582871 131.064459 
L 366.86248 131.066666 
L 368.142089 131.068331 
L 369.421699 131.069551 
L 370.701308 131.070414 
L 371.980917 131.070994 
L 373.260526 131.071358 
L 374.540135 131.071562 
L 375.819745 131.071657 
L 377.099354 131.071687 
" style="fill:none;stroke:#000000;stroke-dasharray:1.5,2.475;stroke-dashoffset:0;stroke-width:1.5;"/>
   </g>
   <g id="line2d_25">
    <path clip-path="url(#p3b0e136f65)" d="M 274.730616 16.527223 
L 276.010225 17.319131 
L 277.289834 18.617343 
L 278.569444 20.310157 
L 279.849053 22.403045 
L 281.128662 24.86508 
L 282.408271 27.659262 
L 283.68788 30.742401 
L 284.96749 34.068502 
L 286.247099 37.590458 
L 287.526708 41.261617 
L 288.806317 45.03701 
L 290.085927 48.874359 
L 291.365536 52.734788 
L 292.645145 56.583365 
L 293.924754 60.389371 
L 295.204363 64.126414 
L 296.483973 67.772385 
L 297.763582 71.309279 
L 299.043191 74.722936 
L 300.3228 78.002717 
L 301.60241 81.14113 
L 302.882019 84.133461 
L 304.161628 86.977382 
L 305.441237 89.672591 
L 306.720847 92.220469 
L 308.000456 94.623763 
L 309.280065 96.886299 
L 310.559674 99.012729 
L 311.839283 101.008333 
L 313.118893 102.878812 
L 314.398502 104.630132 
L 315.678111 106.268415 
L 316.95772 107.799808 
L 318.23733 109.230415 
L 319.516939 110.566224 
L 320.796548 111.813053 
L 322.076157 112.976519 
L 323.355766 114.062006 
L 324.635376 115.074646 
L 325.914985 116.019315 
L 327.194594 116.90062 
L 328.474203 117.722904 
L 329.753813 118.490249 
L 331.033422 119.206481 
L 332.313031 119.87518 
L 333.59264 120.499688 
L 334.872249 121.083123 
L 336.151859 121.628386 
L 337.431468 122.138178 
L 338.711077 122.615007 
L 339.990686 123.061202 
L 341.270296 123.478927 
L 342.549905 123.870185 
L 343.829514 124.236836 
L 345.109123 124.580604 
L 346.388732 124.903085 
L 347.668342 125.205759 
L 348.947951 125.489997 
L 350.22756 125.757068 
L 351.507169 126.008151 
L 352.786779 126.244335 
L 354.066388 126.46663 
L 355.345997 126.675974 
L 356.625606 126.873236 
L 357.905215 127.05922 
L 359.184825 127.234674 
L 360.464434 127.400291 
L 361.744043 127.556715 
L 363.023652 127.704542 
L 364.303262 127.844329 
L 365.582871 127.97659 
L 366.86248 128.101805 
L 368.142089 128.22042 
L 369.421699 128.33285 
L 370.701308 128.43948 
L 371.980917 128.540671 
L 373.260526 128.636756 
L 374.540135 128.728048 
L 375.819745 128.814838 
L 377.099354 128.897397 
" style="fill:none;stroke:#000000;stroke-dasharray:1.5,7.5;stroke-dashoffset:0;stroke-width:1.5;"/>
   </g>
   <g id="patch_9">
    <path d="M 265.389469 136.798913 
L 265.389469 10.8 
" style="fill:none;stroke:#000000;stroke-linecap:square;stroke-linejoin:miter;stroke-width:0.8;"/>
   </g>
   <g id="patch_10">
    <path d="M 442.743307 136.798913 
L 442.743307 10.8 
" style="fill:none;stroke:#000000;stroke-linecap:square;stroke-linejoin:miter;stroke-width:0.8;"/>
   </g>
   <g id="patch_11">
    <path d="M 265.389469 136.798913 
L 442.743307 136.798913 
" style="fill:none;stroke:#000000;stroke-linecap:square;stroke-linejoin:miter;stroke-width:0.8;"/>
   </g>
   <g id="patch_12">
    <path d="M 265.389469 10.8 
L 442.743307 10.8 
" style="fill:none;stroke:#000000;stroke-linecap:square;stroke-linejoin:miter;stroke-width:0.8;"/>
   </g>
   <g id="legend_2">
    <g id="patch_13">
     <path d="M 381.835654 74.548713 
L 435.743307 74.548713 
Q 437.743307 74.548713 437.743307 72.548713 
L 437.743307 17.8 
Q 437.743307 15.8 435.743307 15.8 
L 381.835654 15.8 
Q 379.835654 15.8 379.835654 17.8 
L 379.835654 72.548713 
Q 379.835654 74.548713 381.835654 74.548713 
z
" style="fill:#ffffff;opacity:0.8;stroke:#cccccc;stroke-linejoin:miter;"/>
    </g>
    <g id="line2d_26">
     <path d="M 383.835654 23.3 
L 403.835654 23.3 
" style="fill:none;stroke:#000000;stroke-linecap:square;stroke-width:1.5;"/>
    </g>
    <g id="line2d_27"/>
    <g id="text_22">
     <!-- $\rho_{TOV}$ -->
     <g transform="translate(411.835654 26.8)scale(0.1 -0.1)">
      <use transform="scale(0.996264)" xlink:href="#CMMI12-1a"/>
      <use transform="translate(50.314373 -14.943915)scale(0.697382)" xlink:href="#CMMI12-54"/>
      <use transform="translate(99.820695 -14.943915)scale(0.697382)" xlink:href="#CMMI12-4f"/>
      <use transform="translate(153.902723 -14.943915)scale(0.697382)" xlink:href="#CMMI12-56"/>
     </g>
    </g>
    <g id="line2d_28">
     <path d="M 383.835654 37.237178 
L 403.835654 37.237178 
" style="fill:none;stroke:#000000;stroke-dasharray:5.55,2.4;stroke-dashoffset:0;stroke-width:1.5;"/>
    </g>
    <g id="line2d_29"/>
    <g id="text_23">
     <!-- $\bar{\rho}_{TOV}$ -->
     <g transform="translate(411.835654 40.737178)scale(0.1 -0.1)">
      <defs>
       <path d="M 2554 3520 
L 2554 3667 
L 378 3667 
L 378 3520 
L 2554 3520 
z
" id="CMR17-16" transform="scale(0.015625)"/>
      </defs>
      <use transform="translate(10.441101 0.006461)scale(0.996264)" xlink:href="#CMR17-16"/>
      <use transform="scale(0.996264)" xlink:href="#CMMI12-1a"/>
      <use transform="translate(50.314373 -14.943915)scale(0.697382)" xlink:href="#CMMI12-54"/>
      <use transform="translate(99.820695 -14.943915)scale(0.697382)" xlink:href="#CMMI12-4f"/>
      <use transform="translate(153.902723 -14.943915)scale(0.697382)" xlink:href="#CMMI12-56"/>
     </g>
    </g>
    <g id="line2d_30">
     <path d="M 383.835654 51.174357 
L 403.835654 51.174357 
" style="fill:none;stroke:#000000;stroke-dasharray:1.5,2.475;stroke-dashoffset:0;stroke-width:1.5;"/>
    </g>
    <g id="line2d_31"/>
    <g id="text_24">
     <!-- $\rho_{LE}$ -->
     <g transform="translate(411.835654 54.674357)scale(0.1 -0.1)">
      <use transform="scale(0.996264)" xlink:href="#CMMI12-1a"/>
      <use transform="translate(50.314373 -14.943915)scale(0.697382)" xlink:href="#CMMI12-4c"/>
      <use transform="translate(96.773787 -14.943915)scale(0.697382)" xlink:href="#CMMI12-45"/>
     </g>
    </g>
    <g id="line2d_32">
     <path d="M 383.835654 65.111535 
L 403.835654 65.111535 
" style="fill:none;stroke:#000000;stroke-dasharray:1.5,7.5;stroke-dashoffset:0;stroke-width:1.5;"/>
    </g>
    <g id="line2d_33"/>
    <g id="text_25">
     <!-- $\bar{\rho}_{LE}$ -->
     <g transform="translate(411.835654 68.611535)scale(0.1 -0.1)">
      <use transform="translate(10.441101 0.006461)scale(0.996264)" xlink:href="#CMR17-16"/>
      <use transform="scale(0.996264)" xlink:href="#CMMI12-1a"/>
      <use transform="translate(50.314373 -14.943915)scale(0.697382)" xlink:href="#CMMI12-4c"/>
      <use transform="translate(96.773787 -14.943915)scale(0.697382)" xlink:href="#CMMI12-45"/>
     </g>
    </g>
   </g>
  </g>
  <g id="axes_3">
   <g id="patch_14">
    <path d="M 43.45781 300.5975 
L 220.811649 300.5975 
L 220.811649 174.598587 
L 43.45781 174.598587 
z
" style="fill:#ffffff;"/>
   </g>
   <g id="matplotlib.axis_5">
    <g id="xtick_7">
     <g id="line2d_34">
      <g>
       <use style="stroke:#000000;stroke-width:0.8;" x="51.519348" xlink:href="#m819a9017c2" y="300.5975"/>
      </g>
     </g>
     <g id="text_26">
      <!-- $\mathdefault{0.0}$ -->
      <g transform="translate(45.154309 314.515999)scale(0.1 -0.1)">
       <use transform="scale(0.996264)" xlink:href="#CMR17-30"/>
       <use transform="translate(45.690477 0)scale(0.996264)" xlink:href="#CMMI12-3a"/>
       <use transform="translate(72.787654 0)scale(0.996264)" xlink:href="#CMR17-30"/>
      </g>
     </g>
    </g>
    <g id="xtick_8">
     <g id="line2d_35">
      <g>
       <use style="stroke:#000000;stroke-width:0.8;" x="115.499809" xlink:href="#m819a9017c2" y="300.5975"/>
      </g>
     </g>
     <g id="text_27">
      <!-- $\mathdefault{0.5}$ -->
      <g transform="translate(109.13477 314.515999)scale(0.1 -0.1)">
       <use transform="scale(0.996264)" xlink:href="#CMR17-30"/>
       <use transform="translate(45.690477 0)scale(0.996264)" xlink:href="#CMMI12-3a"/>
       <use transform="translate(72.787654 0)scale(0.996264)" xlink:href="#CMR17-35"/>
      </g>
     </g>
    </g>
    <g id="xtick_9">
     <g id="line2d_36">
      <g>
       <use style="stroke:#000000;stroke-width:0.8;" x="179.480271" xlink:href="#m819a9017c2" y="300.5975"/>
      </g>
     </g>
     <g id="text_28">
      <!-- $\mathdefault{1.0}$ -->
      <g transform="translate(173.115231 314.515999)scale(0.1 -0.1)">
       <use transform="scale(0.996264)" xlink:href="#CMR17-31"/>
       <use transform="translate(45.690477 0)scale(0.996264)" xlink:href="#CMMI12-3a"/>
       <use transform="translate(72.787654 0)scale(0.996264)" xlink:href="#CMR17-30"/>
      </g>
     </g>
    </g>
    <g id="text_29">
     <!-- Radius $r$ -->
     <g transform="translate(113.18608 327.371675)scale(0.1 -0.1)">
      <use transform="scale(0.996264)" xlink:href="#CMR17-52"/>
      <use transform="translate(67.791102 0)scale(0.996264)" xlink:href="#CMR17-61"/>
      <use transform="translate(113.481579 0)scale(0.996264)" xlink:href="#CMR17-64"/>
      <use transform="translate(164.376949 0)scale(0.996264)" xlink:href="#CMR17-69"/>
      <use transform="translate(189.248007 0)scale(0.996264)" xlink:href="#CMR17-75"/>
      <use transform="translate(240.143377 0)scale(0.996264)" xlink:href="#CMR17-73"/>
      <use transform="translate(306.020681 0)scale(0.996264)" xlink:href="#CMMI12-72"/>
     </g>
    </g>
   </g>
   <g id="matplotlib.axis_6">
    <g id="ytick_10">
     <g id="line2d_37">
      <g>
       <use style="stroke:#000000;stroke-width:0.8;" x="43.45781" xlink:href="#m996d6a6a96" y="294.870277"/>
      </g>
     </g>
     <g id="text_30">
      <!-- $\mathdefault{0.0}$ -->
      <g transform="translate(23.727731 298.329526)scale(0.1 -0.1)">
       <use transform="scale(0.996264)" xlink:href="#CMR17-30"/>
       <use transform="translate(45.690477 0)scale(0.996264)" xlink:href="#CMMI12-3a"/>
       <use transform="translate(72.787654 0)scale(0.996264)" xlink:href="#CMR17-30"/>
      </g>
     </g>
    </g>
    <g id="ytick_11">
     <g id="line2d_38">
      <g>
       <use style="stroke:#000000;stroke-width:0.8;" x="43.45781" xlink:href="#m996d6a6a96" y="254.622605"/>
      </g>
     </g>
     <g id="text_31">
      <!-- $\mathdefault{0.1}$ -->
      <g transform="translate(23.727731 258.081854)scale(0.1 -0.1)">
       <use transform="scale(0.996264)" xlink:href="#CMR17-30"/>
       <use transform="translate(45.690477 0)scale(0.996264)" xlink:href="#CMMI12-3a"/>
       <use transform="translate(72.787654 0)scale(0.996264)" xlink:href="#CMR17-31"/>
      </g>
     </g>
    </g>
    <g id="ytick_12">
     <g id="line2d_39">
      <g>
       <use style="stroke:#000000;stroke-width:0.8;" x="43.45781" xlink:href="#m996d6a6a96" y="214.374933"/>
      </g>
     </g>
     <g id="text_32">
      <!-- $\mathdefault{0.2}$ -->
      <g transform="translate(23.727731 217.834182)scale(0.1 -0.1)">
       <use transform="scale(0.996264)" xlink:href="#CMR17-30"/>
       <use transform="translate(45.690477 0)scale(0.996264)" xlink:href="#CMMI12-3a"/>
       <use transform="translate(72.787654 0)scale(0.996264)" xlink:href="#CMR17-32"/>
      </g>
     </g>
    </g>
    <g id="text_33">
     <!-- Mass $m$ -->
     <g transform="translate(17.790553 254.618742)rotate(-90)scale(0.1 -0.1)">
      <defs>
       <path d="M 1338 4249 
C 1299 4345 1293 4352 1158 4352 
L 339 4352 
L 339 4185 
C 781 4185 851 4185 851 3898 
L 851 624 
C 851 465 851 166 339 166 
L 339 0 
C 486 12 755 12 915 12 
C 1075 12 1344 12 1491 0 
L 1491 166 
C 979 166 979 465 979 624 
L 979 4159 
L 986 4159 
L 2490 102 
C 2515 38 2528 0 2579 0 
C 2630 0 2643 38 2669 102 
L 4186 4191 
L 4192 4191 
L 4192 453 
C 4192 166 4122 166 3680 166 
L 3680 0 
C 3853 12 4198 12 4384 12 
C 4570 12 4922 12 5094 0 
L 5094 166 
C 4653 166 4582 166 4582 453 
L 4582 3898 
C 4582 4185 4653 4185 5094 4185 
L 5094 4352 
L 4282 4352 
C 4147 4352 4141 4345 4102 4249 
L 2720 516 
L 1338 4249 
z
" id="CMR17-4d" transform="scale(0.015625)"/>
       <path d="M 1318 1870 
C 1331 1909 1491 2228 1728 2432 
C 1894 2585 2112 2687 2362 2687 
C 2618 2687 2707 2496 2707 2241 
C 2707 2202 2707 2075 2630 1775 
L 2470 1117 
C 2419 925 2298 453 2285 383 
C 2259 287 2221 121 2221 95 
C 2221 6 2291 -64 2387 -64 
C 2579 -64 2611 83 2669 313 
L 3053 1838 
C 3066 1890 3398 2687 4102 2687 
C 4358 2687 4448 2496 4448 2241 
C 4448 1883 4198 1187 4058 804 
C 4000 651 3968 568 3968 453 
C 3968 166 4166 -64 4474 -64 
C 5069 -64 5293 874 5293 913 
C 5293 945 5267 970 5229 970 
C 5171 970 5165 951 5133 842 
C 4986 332 4749 64 4493 64 
C 4429 64 4326 70 4326 274 
C 4326 440 4403 645 4429 715 
C 4544 1021 4832 1775 4832 2145 
C 4832 2528 4608 2816 4122 2816 
C 3693 2816 3347 2573 3091 2196 
C 3072 2541 2861 2816 2381 2816 
C 1811 2816 1510 2413 1395 2253 
C 1376 2617 1114 2816 832 2816 
C 646 2816 499 2726 378 2483 
C 262 2253 173 1864 173 1838 
C 173 1813 198 1781 243 1781 
C 294 1781 301 1787 339 1934 
C 435 2311 557 2687 813 2687 
C 960 2687 1011 2585 1011 2394 
C 1011 2253 947 2004 902 1807 
L 723 1117 
C 698 996 627 708 595 593 
C 550 427 480 127 480 95 
C 480 6 550 -64 646 -64 
C 723 -64 813 -26 864 70 
C 877 102 934 325 966 453 
L 1107 1028 
L 1318 1870 
z
" id="CMMI12-6d" transform="scale(0.015625)"/>
      </defs>
      <use transform="scale(0.996264)" xlink:href="#CMR17-4d"/>
      <use transform="translate(84.686941 0)scale(0.996264)" xlink:href="#CMR17-61"/>
      <use transform="translate(130.377418 0)scale(0.996264)" xlink:href="#CMR17-73"/>
      <use transform="translate(166.178755 0)scale(0.996264)" xlink:href="#CMR17-73"/>
      <use transform="translate(232.056059 0)scale(0.996264)" xlink:href="#CMMI12-6d"/>
     </g>
    </g>
   </g>
   <g id="line2d_40">
    <path clip-path="url(#pb917467179)" d="M 51.519348 294.870277 
L 52.798957 294.859044 
L 54.078567 294.78161 
L 55.358176 294.578549 
L 56.637785 294.203113 
L 57.917394 293.625431 
L 59.197003 292.83453 
L 60.476613 291.837994 
L 61.756222 290.65946 
L 63.035831 289.334477 
L 64.31544 287.90548 
L 65.59505 286.416724 
L 66.874659 284.909922 
L 68.154268 283.421083 
L 69.433877 281.978772 
L 70.713486 280.603653 
L 71.993096 279.309033 
L 73.272705 278.101997 
L 74.552314 276.984777 
L 75.831923 275.956104 
L 77.111533 275.012371 
L 78.391142 274.14856 
L 79.670751 273.35893 
L 80.95036 272.637498 
L 82.22997 271.97835 
L 83.509579 271.375839 
L 84.789188 270.824688 
L 86.068797 270.320042 
L 87.348406 269.857481 
L 88.628016 269.433005 
L 89.907625 269.043016 
L 91.187234 268.684283 
L 92.466843 268.35391 
L 93.746453 268.049304 
L 95.026062 267.768143 
L 96.305671 267.508345 
L 97.58528 267.268044 
L 98.864889 267.045562 
L 100.144499 266.839392 
L 101.424108 266.648178 
L 102.703717 266.470693 
L 103.983326 266.305833 
L 105.262936 266.152594 
L 106.542545 266.010069 
L 107.822154 265.877434 
L 109.101763 265.753938 
L 110.381372 265.638898 
L 111.660982 265.531688 
L 112.940591 265.43174 
L 114.2202 265.338531 
L 115.499809 265.251582 
L 116.779419 265.170452 
L 118.059028 265.094738 
L 119.338637 265.024067 
L 120.618246 264.958095 
L 121.897855 264.896506 
L 123.177465 264.839005 
L 124.457074 264.785322 
L 125.736683 264.735205 
L 127.016292 264.688422 
L 128.295902 264.644754 
L 129.575511 264.604001 
L 130.85512 264.565976 
L 132.134729 264.530505 
L 133.414338 264.497423 
L 134.693948 264.46658 
L 135.973557 264.437835 
L 137.253166 264.411054 
L 138.532775 264.386114 
L 139.812385 264.362899 
L 141.091994 264.3413 
L 142.371603 264.321216 
L 143.651212 264.302552 
L 144.930822 264.285218 
L 146.210431 264.269131 
L 147.49004 264.254211 
L 148.769649 264.240384 
L 150.049258 264.227582 
L 151.328868 264.215737 
L 152.608477 264.20479 
L 153.888086 264.194682 
L 155.167695 264.185359 
L 156.447305 264.176769 
L 157.726914 264.168864 
L 159.006523 264.161598 
L 160.286132 264.15493 
L 161.565741 264.148817 
L 162.845351 264.143224 
L 164.12496 264.138112 
L 165.404569 264.13345 
L 166.684178 264.129205 
L 167.963788 264.125347 
L 169.243397 264.121848 
L 170.523006 264.118681 
L 171.802615 264.115822 
L 173.082224 264.113247 
L 174.361834 264.110934 
L 175.641443 264.108862 
L 176.921052 264.107011 
L 178.200661 264.105364 
L 179.480271 264.103903 
L 180.75988 264.102612 
L 182.039489 264.101476 
L 183.319098 264.10048 
L 184.598707 264.099611 
L 185.878317 264.098858 
L 187.157926 264.098209 
L 188.437535 264.097652 
L 189.717144 264.097178 
L 190.996754 264.096777 
L 192.276363 264.096442 
L 193.555972 264.096164 
L 194.835581 264.095935 
L 196.115191 264.09575 
L 197.3948 264.095602 
L 198.674409 264.095486 
L 199.954018 264.095396 
L 201.233627 264.095328 
L 202.513237 264.095278 
L 203.792846 264.095242 
L 205.072455 264.095218 
L 206.352064 264.095202 
L 207.631674 264.095192 
L 208.911283 264.095187 
L 210.190892 264.095184 
L 211.470501 264.095184 
L 212.75011 264.095183 
" style="fill:none;stroke:#000000;stroke-linecap:square;stroke-width:1.5;"/>
   </g>
   <g id="line2d_41">
    <path clip-path="url(#pb917467179)" d="M 51.519348 294.870277 
L 52.798957 294.858922 
L 54.078567 294.780068 
L 55.358176 294.569295 
L 56.637785 294.167577 
L 57.917394 293.523749 
L 59.197003 292.596194 
L 60.476613 291.354123 
L 61.756222 289.778156 
L 63.035831 287.860333 
L 64.31544 285.60357 
L 65.59505 283.020665 
L 66.874659 280.132964 
L 68.154268 276.968803 
L 69.433877 273.561844 
L 70.713486 269.949418 
L 71.993096 266.170947 
L 73.272705 262.266515 
L 74.552314 258.275638 
L 75.831923 254.236244 
L 77.111533 250.183882 
L 78.391142 246.15114 
L 79.670751 242.167259 
L 80.95036 238.257922 
L 82.22997 234.445192 
L 83.509579 230.747558 
L 84.789188 227.180087 
L 86.068797 223.754634 
L 87.348406 220.480089 
L 88.628016 217.362648 
L 89.907625 214.40616 
L 91.187234 211.612366 
L 92.466843 208.98119 
L 93.746453 206.51106 
L 95.026062 204.199098 
L 96.305671 202.041391 
L 97.58528 200.033201 
L 98.864889 198.169106 
L 100.144499 196.443224 
L 101.424108 194.849301 
L 102.703717 193.38087 
L 103.983326 192.031333 
L 105.262936 190.794051 
L 106.542545 189.662426 
L 107.822154 188.629941 
L 109.101763 187.69023 
L 110.381372 186.837091 
L 111.660982 186.064537 
L 112.940591 185.366802 
L 114.2202 184.73836 
L 115.499809 184.173945 
L 116.779419 183.668539 
L 118.059028 183.217381 
L 119.338637 182.815996 
L 120.618246 182.460124 
L 121.897855 182.145781 
L 123.177465 181.869233 
L 124.457074 181.626968 
L 125.736683 181.415717 
L 127.016292 181.232425 
L 128.295902 181.074244 
L 129.575511 180.938546 
L 130.85512 180.822887 
L 132.134729 180.725006 
L 133.414338 180.642821 
L 134.693948 180.574431 
L 135.973557 180.518067 
L 137.253166 180.472127 
L 138.532775 180.435164 
L 139.812385 180.405847 
L 141.091994 180.382977 
L 142.371603 180.36549 
L 143.651212 180.352423 
L 144.930822 180.342931 
L 146.210431 180.336264 
L 147.49004 180.331791 
L 148.769649 180.328945 
L 150.049258 180.327266 
L 151.328868 180.32638 
L 152.608477 180.325978 
L 153.888086 180.325842 
L 155.167695 180.32581 
" style="fill:none;stroke:#000000;stroke-dasharray:1.5,2.475;stroke-dashoffset:0;stroke-width:1.5;"/>
   </g>
   <g id="patch_15">
    <path d="M 43.45781 300.5975 
L 43.45781 174.598587 
" style="fill:none;stroke:#000000;stroke-linecap:square;stroke-linejoin:miter;stroke-width:0.8;"/>
   </g>
   <g id="patch_16">
    <path d="M 220.811649 300.5975 
L 220.811649 174.598587 
" style="fill:none;stroke:#000000;stroke-linecap:square;stroke-linejoin:miter;stroke-width:0.8;"/>
   </g>
   <g id="patch_17">
    <path d="M 43.45781 300.5975 
L 220.811649 300.5975 
" style="fill:none;stroke:#000000;stroke-linecap:square;stroke-linejoin:miter;stroke-width:0.8;"/>
   </g>
   <g id="patch_18">
    <path d="M 43.45781 174.598587 
L 220.811649 174.598587 
" style="fill:none;stroke:#000000;stroke-linecap:square;stroke-linejoin:miter;stroke-width:0.8;"/>
   </g>
   <g id="legend_3">
    <g id="patch_19">
     <path d="M 50.45781 210.472944 
L 107.961962 210.472944 
Q 109.961962 210.472944 109.961962 208.472944 
L 109.961962 181.598587 
Q 109.961962 179.598587 107.961962 179.598587 
L 50.45781 179.598587 
Q 48.45781 179.598587 48.45781 181.598587 
L 48.45781 208.472944 
Q 48.45781 210.472944 50.45781 210.472944 
z
" style="fill:#ffffff;opacity:0.8;stroke:#cccccc;stroke-linejoin:miter;"/>
    </g>
    <g id="line2d_42">
     <path d="M 52.45781 187.098587 
L 72.45781 187.098587 
" style="fill:none;stroke:#000000;stroke-linecap:square;stroke-width:1.5;"/>
    </g>
    <g id="line2d_43"/>
    <g id="text_34">
     <!-- $m_{TOV}$ -->
     <g transform="translate(80.45781 190.598587)scale(0.1 -0.1)">
      <use transform="scale(0.996264)" xlink:href="#CMMI12-6d"/>
      <use transform="translate(85.327224 -14.943915)scale(0.697382)" xlink:href="#CMMI12-54"/>
      <use transform="translate(134.833547 -14.943915)scale(0.697382)" xlink:href="#CMMI12-4f"/>
      <use transform="translate(188.915575 -14.943915)scale(0.697382)" xlink:href="#CMMI12-56"/>
     </g>
    </g>
    <g id="line2d_44">
     <path d="M 52.45781 201.035765 
L 72.45781 201.035765 
" style="fill:none;stroke:#000000;stroke-dasharray:1.5,2.475;stroke-dashoffset:0;stroke-width:1.5;"/>
    </g>
    <g id="line2d_45"/>
    <g id="text_35">
     <!-- $m_{LE}$ -->
     <g transform="translate(80.45781 204.535765)scale(0.1 -0.1)">
      <use transform="scale(0.996264)" xlink:href="#CMMI12-6d"/>
      <use transform="translate(85.327224 -14.943915)scale(0.697382)" xlink:href="#CMMI12-4c"/>
      <use transform="translate(131.786638 -14.943915)scale(0.697382)" xlink:href="#CMMI12-45"/>
     </g>
    </g>
   </g>
  </g>
  <g id="axes_4">
   <g id="patch_20">
    <path d="M 265.389469 300.5975 
L 442.743307 300.5975 
L 442.743307 174.598587 
L 265.389469 174.598587 
z
" style="fill:#ffffff;"/>
   </g>
   <g id="matplotlib.axis_7">
    <g id="xtick_10">
     <g id="line2d_46">
      <g>
       <use style="stroke:#000000;stroke-width:0.8;" x="272.161161" xlink:href="#m819a9017c2" y="300.5975"/>
      </g>
     </g>
     <g id="text_36">
      <!-- $\mathdefault{0.0}$ -->
      <g transform="translate(265.796121 314.515999)scale(0.1 -0.1)">
       <use transform="scale(0.996264)" xlink:href="#CMR17-30"/>
       <use transform="translate(45.690477 0)scale(0.996264)" xlink:href="#CMMI12-3a"/>
       <use transform="translate(72.787654 0)scale(0.996264)" xlink:href="#CMR17-30"/>
      </g>
     </g>
    </g>
    <g id="xtick_11">
     <g id="line2d_47">
      <g>
       <use style="stroke:#000000;stroke-width:0.8;" x="336.653465" xlink:href="#m819a9017c2" y="300.5975"/>
      </g>
     </g>
     <g id="text_37">
      <!-- $\mathdefault{0.5}$ -->
      <g transform="translate(330.288426 314.515999)scale(0.1 -0.1)">
       <use transform="scale(0.996264)" xlink:href="#CMR17-30"/>
       <use transform="translate(45.690477 0)scale(0.996264)" xlink:href="#CMMI12-3a"/>
       <use transform="translate(72.787654 0)scale(0.996264)" xlink:href="#CMR17-35"/>
      </g>
     </g>
    </g>
    <g id="xtick_12">
     <g id="line2d_48">
      <g>
       <use style="stroke:#000000;stroke-width:0.8;" x="401.14577" xlink:href="#m819a9017c2" y="300.5975"/>
      </g>
     </g>
     <g id="text_38">
      <!-- $\mathdefault{1.0}$ -->
      <g transform="translate(394.780731 314.515999)scale(0.1 -0.1)">
       <use transform="scale(0.996264)" xlink:href="#CMR17-31"/>
       <use transform="translate(45.690477 0)scale(0.996264)" xlink:href="#CMMI12-3a"/>
       <use transform="translate(72.787654 0)scale(0.996264)" xlink:href="#CMR17-30"/>
      </g>
     </g>
    </g>
    <g id="text_39">
     <!-- Radius $r$ -->
     <g transform="translate(335.117739 327.371675)scale(0.1 -0.1)">
      <use transform="scale(0.996264)" xlink:href="#CMR17-52"/>
      <use transform="translate(67.791102 0)scale(0.996264)" xlink:href="#CMR17-61"/>
      <use transform="translate(113.481579 0)scale(0.996264)" xlink:href="#CMR17-64"/>
      <use transform="translate(164.376949 0)scale(0.996264)" xlink:href="#CMR17-69"/>
      <use transform="translate(189.248007 0)scale(0.996264)" xlink:href="#CMR17-75"/>
      <use transform="translate(240.143377 0)scale(0.996264)" xlink:href="#CMR17-73"/>
      <use transform="translate(306.020681 0)scale(0.996264)" xlink:href="#CMMI12-72"/>
     </g>
    </g>
   </g>
   <g id="matplotlib.axis_8">
    <g id="ytick_13">
     <g id="line2d_49">
      <g>
       <use style="stroke:#000000;stroke-width:0.8;" x="265.389469" xlink:href="#m996d6a6a96" y="295.351377"/>
      </g>
     </g>
     <g id="text_40">
      <!-- $\mathdefault{0.0}$ -->
      <g transform="translate(245.65939 298.810626)scale(0.1 -0.1)">
       <use transform="scale(0.996264)" xlink:href="#CMR17-30"/>
       <use transform="translate(45.690477 0)scale(0.996264)" xlink:href="#CMMI12-3a"/>
       <use transform="translate(72.787654 0)scale(0.996264)" xlink:href="#CMR17-30"/>
      </g>
     </g>
    </g>
    <g id="ytick_14">
     <g id="line2d_50">
      <g>
       <use style="stroke:#000000;stroke-width:0.8;" x="265.389469" xlink:href="#m996d6a6a96" y="260.876611"/>
      </g>
     </g>
     <g id="text_41">
      <!-- $\mathdefault{0.2}$ -->
      <g transform="translate(245.65939 264.33586)scale(0.1 -0.1)">
       <use transform="scale(0.996264)" xlink:href="#CMR17-30"/>
       <use transform="translate(45.690477 0)scale(0.996264)" xlink:href="#CMMI12-3a"/>
       <use transform="translate(72.787654 0)scale(0.996264)" xlink:href="#CMR17-32"/>
      </g>
     </g>
    </g>
    <g id="ytick_15">
     <g id="line2d_51">
      <g>
       <use style="stroke:#000000;stroke-width:0.8;" x="265.389469" xlink:href="#m996d6a6a96" y="226.401845"/>
      </g>
     </g>
     <g id="text_42">
      <!-- $\mathdefault{0.4}$ -->
      <g transform="translate(245.65939 229.861094)scale(0.1 -0.1)">
       <use transform="scale(0.996264)" xlink:href="#CMR17-30"/>
       <use transform="translate(45.690477 0)scale(0.996264)" xlink:href="#CMMI12-3a"/>
       <use transform="translate(72.787654 0)scale(0.996264)" xlink:href="#CMR17-34"/>
      </g>
     </g>
    </g>
    <g id="ytick_16">
     <g id="line2d_52">
      <g>
       <use style="stroke:#000000;stroke-width:0.8;" x="265.389469" xlink:href="#m996d6a6a96" y="191.927079"/>
      </g>
     </g>
     <g id="text_43">
      <!-- $\mathdefault{0.6}$ -->
      <g transform="translate(245.65939 195.386328)scale(0.1 -0.1)">
       <use transform="scale(0.996264)" xlink:href="#CMR17-30"/>
       <use transform="translate(45.690477 0)scale(0.996264)" xlink:href="#CMMI12-3a"/>
       <use transform="translate(72.787654 0)scale(0.996264)" xlink:href="#CMR17-36"/>
      </g>
     </g>
    </g>
    <g id="text_44">
     <!-- Mass radius ratio $m/r$ -->
     <g transform="translate(239.16873 286.255954)rotate(-90)scale(0.1 -0.1)">
      <defs>
       <path d="M 2758 1356 
C 2758 2176 2163 2816 1466 2816 
C 768 2816 173 2176 173 1356 
C 173 550 768 -64 1466 -64 
C 2163 -64 2758 550 2758 1356 
z
M 1466 51 
C 1165 51 909 230 762 480 
C 602 768 582 1126 582 1408 
C 582 1676 595 2009 762 2297 
C 890 2508 1139 2713 1466 2713 
C 1754 2713 1997 2553 2150 2329 
C 2349 2028 2349 1606 2349 1408 
C 2349 1158 2336 774 2163 467 
C 1984 172 1709 51 1466 51 
z
" id="CMR17-6f" transform="scale(0.015625)"/>
       <path d="M 2746 4563 
C 2746 4569 2784 4665 2784 4678 
C 2784 4755 2720 4800 2669 4800 
C 2637 4800 2579 4800 2528 4659 
L 384 -1364 
C 384 -1370 346 -1466 346 -1479 
C 346 -1556 410 -1600 461 -1600 
C 499 -1600 557 -1594 602 -1460 
L 2746 4563 
z
" id="CMMI12-3d" transform="scale(0.015625)"/>
      </defs>
      <use transform="scale(0.996264)" xlink:href="#CMR17-4d"/>
      <use transform="translate(84.686941 0)scale(0.996264)" xlink:href="#CMR17-61"/>
      <use transform="translate(130.377418 0)scale(0.996264)" xlink:href="#CMR17-73"/>
      <use transform="translate(166.178755 0)scale(0.996264)" xlink:href="#CMR17-73"/>
      <use transform="translate(232.056059 0)scale(0.996264)" xlink:href="#CMR17-72"/>
      <use transform="translate(267.336827 0)scale(0.996264)" xlink:href="#CMR17-61"/>
      <use transform="translate(313.027304 0)scale(0.996264)" xlink:href="#CMR17-64"/>
      <use transform="translate(363.922674 0)scale(0.996264)" xlink:href="#CMR17-69"/>
      <use transform="translate(388.793732 0)scale(0.996264)" xlink:href="#CMR17-75"/>
      <use transform="translate(439.689102 0)scale(0.996264)" xlink:href="#CMR17-73"/>
      <use transform="translate(505.566406 0)scale(0.996264)" xlink:href="#CMR17-72"/>
      <use transform="translate(540.847174 0)scale(0.996264)" xlink:href="#CMR17-61"/>
      <use transform="translate(586.537651 0)scale(0.996264)" xlink:href="#CMR17-74"/>
      <use transform="translate(621.818419 0)scale(0.996264)" xlink:href="#CMR17-69"/>
      <use transform="translate(646.689477 0)scale(0.996264)" xlink:href="#CMR17-6f"/>
      <use transform="translate(722.455921 0)scale(0.996264)" xlink:href="#CMMI12-6d"/>
      <use transform="translate(807.783145 0)scale(0.996264)" xlink:href="#CMMI12-3d"/>
      <use transform="translate(856.558064 0)scale(0.996264)" xlink:href="#CMMI12-72"/>
     </g>
    </g>
   </g>
   <g id="line2d_53">
    <path clip-path="url(#p6885640d81)" d="M 273.451007 294.870277 
L 274.740853 293.45265 
L 276.030699 291.186647 
L 277.320545 288.208009 
L 278.610391 284.688457 
L 279.900237 280.820123 
L 281.190083 276.798886 
L 282.479929 272.808627 
L 283.769775 269.008182 
L 285.059622 265.522353 
L 286.349468 262.437644 
L 287.639314 259.802642 
L 288.92916 257.632208 
L 290.219006 255.91417 
L 291.508852 254.617052 
L 292.798698 253.697552 
L 294.088544 253.106878 
L 295.37839 252.79554 
L 296.668236 252.716569 
L 297.958083 252.827386 
L 299.247929 253.090645 
L 300.537775 253.474384 
L 301.827621 253.951745 
L 303.117467 254.500473 
L 304.407313 255.102329 
L 305.697159 255.742491 
L 306.987005 256.409001 
L 308.276851 257.092274 
L 309.566697 257.784672 
L 310.856544 258.480144 
L 312.14639 259.173928 
L 313.436236 259.862308 
L 314.726082 260.542409 
L 316.015928 261.212036 
L 317.305774 261.86954 
L 318.59562 262.51371 
L 319.885466 263.143688 
L 321.175312 263.758893 
L 322.465158 264.358972 
L 323.755005 264.943749 
L 325.044851 265.513186 
L 326.334697 266.067359 
L 327.624543 266.606427 
L 328.914389 267.130618 
L 330.204235 267.64021 
L 331.494081 268.135518 
L 332.783927 268.616886 
L 334.073773 269.084675 
L 335.363619 269.539261 
L 336.653465 269.981025 
L 337.943312 270.410353 
L 339.233158 270.827628 
L 340.523004 271.233233 
L 341.81285 271.627542 
L 343.102696 272.010925 
L 344.392542 272.383743 
L 345.682388 272.746348 
L 346.972234 273.099082 
L 348.26208 273.442279 
L 349.551926 273.776261 
L 350.841773 274.101339 
L 352.131619 274.417815 
L 353.421465 274.725979 
L 354.711311 275.026113 
L 356.001157 275.318487 
L 357.291003 275.603362 
L 358.580849 275.88099 
L 359.870695 276.151611 
L 361.160541 276.415459 
L 362.450387 276.672757 
L 363.740234 276.923722 
L 365.03008 277.168559 
L 366.319926 277.407469 
L 367.609772 277.640644 
L 368.899618 277.868267 
L 370.189464 278.090516 
L 371.47931 278.307562 
L 372.769156 278.519569 
L 374.059002 278.726695 
L 375.348848 278.929092 
L 376.638695 279.126907 
L 377.928541 279.32028 
L 379.218387 279.509347 
L 380.508233 279.694238 
L 381.798079 279.875079 
L 383.087925 280.051992 
L 384.377771 280.225094 
L 385.667617 280.394496 
L 386.957463 280.560307 
L 388.247309 280.722632 
L 389.537156 280.881572 
L 390.827002 281.037223 
L 392.116848 281.189681 
L 393.406694 281.339034 
L 394.69654 281.485372 
L 395.986386 281.628777 
L 397.276232 281.769333 
L 398.566078 281.907116 
L 399.855924 282.042204 
L 401.14577 282.17467 
L 402.435617 282.304585 
L 403.725463 282.432018 
L 405.015309 282.557034 
L 406.305155 282.679699 
L 407.595001 282.800075 
L 408.884847 282.918221 
L 410.174693 283.034195 
L 411.464539 283.148055 
L 412.754385 283.259855 
L 414.044231 283.369648 
L 415.334077 283.477484 
L 416.623924 283.583413 
L 417.91377 283.687484 
L 419.203616 283.789744 
L 420.493462 283.890236 
L 421.783308 283.989006 
L 423.073154 284.086095 
L 424.363 284.181546 
L 425.652846 284.275397 
L 426.942692 284.367688 
L 428.232538 284.458457 
L 429.522385 284.54774 
L 430.812231 284.635572 
L 432.102077 284.721989 
L 433.391923 284.807024 
L 434.681769 284.890709 
" style="fill:none;stroke:#000000;stroke-linecap:square;stroke-width:1.5;"/>
   </g>
   <g id="line2d_54">
    <path clip-path="url(#p6885640d81)" d="M 273.451007 294.865075 
L 274.740853 293.419619 
L 276.030699 291.054525 
L 277.320545 287.82752 
L 278.610391 283.817486 
L 279.900237 279.118869 
L 281.190083 273.838406 
L 282.479929 268.090534 
L 283.769775 261.993177 
L 285.059622 255.66367 
L 286.349468 249.215158 
L 287.639314 242.753573 
L 288.92916 236.375284 
L 290.219006 230.16542 
L 291.508852 224.196888 
L 292.798698 218.529957 
L 294.088544 213.212387 
L 295.37839 208.279976 
L 296.668236 203.757406 
L 297.958083 199.659321 
L 299.247929 195.991544 
L 300.537775 192.752319 
L 301.827621 189.933576 
L 303.117467 187.522124 
L 304.407313 185.500764 
L 305.697159 183.849302 
L 306.987005 182.545444 
L 308.276851 181.565545 
L 309.566697 180.885242 
L 310.856544 180.480071 
L 312.14639 180.32581 
L 313.436236 180.398837 
L 314.726082 180.676447 
L 316.015928 181.136965 
L 317.305774 181.759924 
L 318.59562 182.52615 
L 319.885466 183.41775 
L 321.175312 184.4182 
L 322.465158 185.512257 
L 323.755005 186.685976 
L 325.044851 187.926635 
L 326.334697 189.222686 
L 327.624543 190.563689 
L 328.914389 191.940238 
L 330.204235 193.343903 
L 331.494081 194.767142 
L 332.783927 196.20325 
L 334.073773 197.646278 
L 335.363619 199.090972 
L 336.653465 200.532722 
L 337.943312 201.967487 
L 339.233158 203.391747 
L 340.523004 204.802484 
L 341.81285 206.197067 
L 343.102696 207.573277 
L 344.392542 208.929241 
L 345.682388 210.263388 
L 346.972234 211.574431 
L 348.26208 212.861327 
L 349.551926 214.12325 
L 350.841773 215.359585 
L 352.131619 216.569881 
L 353.421465 217.75384 
L 354.711311 218.911304 
L 356.001157 220.042243 
L 357.291003 221.146715 
L 358.580849 222.224881 
L 359.870695 223.27699 
L 361.160541 224.30335 
L 362.450387 225.304329 
L 363.740234 226.280359 
L 365.03008 227.231905 
L 366.319926 228.15948 
L 367.609772 229.06362 
L 368.899618 229.944903 
L 370.189464 230.803911 
L 371.47931 231.641255 
L 372.769156 232.457565 
L 374.059002 233.253472 
L 375.348848 234.029622 
L 376.638695 234.786665 
" style="fill:none;stroke:#000000;stroke-dasharray:1.5,2.475;stroke-dashoffset:0;stroke-width:1.5;"/>
   </g>
   <g id="patch_21">
    <path d="M 265.389469 300.5975 
L 265.389469 174.598587 
" style="fill:none;stroke:#000000;stroke-linecap:square;stroke-linejoin:miter;stroke-width:0.8;"/>
   </g>
   <g id="patch_22">
    <path d="M 442.743307 300.5975 
L 442.743307 174.598587 
" style="fill:none;stroke:#000000;stroke-linecap:square;stroke-linejoin:miter;stroke-width:0.8;"/>
   </g>
   <g id="patch_23">
    <path d="M 265.389469 300.5975 
L 442.743307 300.5975 
" style="fill:none;stroke:#000000;stroke-linecap:square;stroke-linejoin:miter;stroke-width:0.8;"/>
   </g>
   <g id="patch_24">
    <path d="M 265.389469 174.598587 
L 442.743307 174.598587 
" style="fill:none;stroke:#000000;stroke-linecap:square;stroke-linejoin:miter;stroke-width:0.8;"/>
   </g>
   <g id="legend_4">
    <g id="patch_25">
     <path d="M 366.549167 212.523867 
L 435.743307 212.523867 
Q 437.743307 212.523867 437.743307 210.523867 
L 437.743307 181.598587 
Q 437.743307 179.598587 435.743307 179.598587 
L 366.549167 179.598587 
Q 364.549167 179.598587 364.549167 181.598587 
L 364.549167 210.523867 
Q 364.549167 212.523867 366.549167 212.523867 
z
" style="fill:#ffffff;opacity:0.8;stroke:#cccccc;stroke-linejoin:miter;"/>
    </g>
    <g id="line2d_55">
     <path d="M 368.549167 187.570567 
L 388.549167 187.570567 
" style="fill:none;stroke:#000000;stroke-linecap:square;stroke-width:1.5;"/>
    </g>
    <g id="line2d_56"/>
    <g id="text_45">
     <!-- $m_{TOV}/r$ -->
     <g transform="translate(396.549167 191.070567)scale(0.1 -0.1)">
      <use transform="scale(0.996264)" xlink:href="#CMMI12-6d"/>
      <use transform="translate(85.327224 -14.943915)scale(0.697382)" xlink:href="#CMMI12-54"/>
      <use transform="translate(134.833547 -14.943915)scale(0.697382)" xlink:href="#CMMI12-4f"/>
      <use transform="translate(188.915575 -14.943915)scale(0.697382)" xlink:href="#CMMI12-56"/>
      <use transform="translate(244.396577 0)scale(0.996264)" xlink:href="#CMMI12-3d"/>
      <use transform="translate(293.171496 0)scale(0.996264)" xlink:href="#CMMI12-72"/>
     </g>
    </g>
    <g id="line2d_57">
     <path d="M 368.549167 202.533207 
L 388.549167 202.533207 
" style="fill:none;stroke:#000000;stroke-dasharray:1.5,2.475;stroke-dashoffset:0;stroke-width:1.5;"/>
    </g>
    <g id="line2d_58"/>
    <g id="text_46">
     <!-- $m_{LE}/r$ -->
     <g transform="translate(396.549167 206.033207)scale(0.1 -0.1)">
      <use transform="scale(0.996264)" xlink:href="#CMMI12-6d"/>
      <use transform="translate(85.327224 -14.943915)scale(0.697382)" xlink:href="#CMMI12-4c"/>
      <use transform="translate(131.786638 -14.943915)scale(0.697382)" xlink:href="#CMMI12-45"/>
      <use transform="translate(186.920675 0)scale(0.996264)" xlink:href="#CMMI12-3d"/>
      <use transform="translate(235.695594 0)scale(0.996264)" xlink:href="#CMMI12-72"/>
     </g>
    </g>
   </g>
  </g>
 </g>
 <defs>
  <clipPath id="p93e418819f">
   <rect height="125.998913" width="177.353839" x="43.45781" y="10.8"/>
  </clipPath>
  <clipPath id="p3b0e136f65">
   <rect height="125.998913" width="177.353839" x="265.389469" y="10.8"/>
  </clipPath>
  <clipPath id="pb917467179">
   <rect height="125.998913" width="177.353839" x="43.45781" y="174.598587"/>
  </clipPath>
  <clipPath id="p6885640d81">
   <rect height="125.998913" width="177.353839" x="265.389469" y="174.598587"/>
  </clipPath>
 </defs>
</svg>
